<?xml version="1.0" encoding="utf-8"?>
<!-- Generator: Adobe Illustrator 16.0.0, SVG Export Plug-In . SVG Version: 6.00 Build 0)  -->
<!DOCTYPE svg PUBLIC "-//W3C//DTD SVG 1.1//EN" "http://www.w3.org/Graphics/SVG/1.1/DTD/svg11.dtd">
<svg version="1.1" xmlns="http://www.w3.org/2000/svg" xmlns:xlink="http://www.w3.org/1999/xlink" x="0px" y="0px" width="100px"
	 height="100px" viewBox="0 0 100 100" enable-background="new 0 0 100 100" xml:space="preserve">
<g id="Calque_2">
</g>
<g id="Calque_1">
	<path d="M99.987,70.049c-0.002-0.033,0.005-0.064,0-0.097c-0.009-0.056-0.033-0.105-0.051-0.157
		c-0.012-0.034-0.018-0.068-0.032-0.1c-0.049-0.106-0.112-0.204-0.193-0.287c-0.011-0.011-0.024-0.017-0.035-0.027
		c-0.074-0.069-0.158-0.125-0.251-0.169c-0.035-0.017-0.072-0.026-0.109-0.039c-0.044-0.015-0.084-0.037-0.13-0.046l-24.27-4.593
		l-13.332-2.462c-1.51-0.28-2.957-0.043-3.984,0.575c-1.079-1.116-3.2-1.94-4.527-2.186c-2.295-0.424-4.882-0.458-7.573-0.197
		V32.141c0.058-0.17,0.088-0.352,0.044-0.54c-0.008-0.037-0.032-0.064-0.044-0.099V19.088c0-0.116-0.03-0.224-0.066-0.328
		c1.08-0.564,1.725-1.248,1.725-2.077V12.14c0,0,0-0.001,0-0.002c-0.004-4.256-16.4-4.716-23.45-4.716
		c-5.561,0-23.703,0.34-23.708,4.716c0,0,0,0.001,0,0.001v4.544c0,0.792,0.601,1.451,1.607,2c-0.055,0.124-0.088,0.259-0.088,0.404
		v46.92c0,0.038,0.018,0.071,0.021,0.108c-0.004,0.037-0.021,0.069-0.021,0.107c0,3.361,13.476,3.996,19.715,4.11
		c-0.727,0.849-1.2,1.688-1.348,2.488c-0.046,0.248-0.064,0.508-0.051,0.773h-0.003c0,0,0.014,5.221,0.014,6.038
		c0,2.982,4.003,3.723,5.319,3.966c1.063,0.197,3.349,0.22,5.023-0.362c0.045,0.113,0.097,0.225,0.155,0.334
		c0.502,0.942,1.423,1.621,2.548,1.888c0.058,0.023,0.119,0.041,0.182,0.052l38,7.05c0.061,0.011,0.122,0.017,0.183,0.017
		c0.119,0,0.234-0.028,0.345-0.07c0.026-0.009,0.051-0.018,0.075-0.03c0.021-0.009,0.043-0.014,0.063-0.024l27.744-15.295
		c0.319-0.176,0.518-0.512,0.518-0.876V70.11C100,70.089,99.989,70.07,99.987,70.049z M61.252,64.043l13.297,2.458l21.535,4.075
		L71.078,84.362l-8.017-1.35c1.654-0.582,4.024-1.177,5.959-1.662c7.105-1.781,15.16-3.8,15.16-8.471
		c0-4.266-14.398-6.893-26.223-7.754c0.082-0.084,0.155-0.18,0.205-0.294C58.428,64.225,59.714,63.762,61.252,64.043z
		 M51.002,76.173c-0.452-0.086-1.032-0.189-1.706-0.309c-14.075-2.499-15.594-4.164-15.594-4.764c0-2.606,6.426-4.29,16.37-4.29
		c17.246,0,32.108,4.071,32.108,6.069c0,3.11-7.888,5.087-13.646,6.531c-5.158,1.293-8.152,2.11-9.099,3.539
		c-0.021,0.028-0.048,0.05-0.065,0.081c-0.003,0.004-0.008,0.008-0.01,0.012c-0.056,0.095-0.089,0.199-0.11,0.305
		c-0.003,0.013-0.012,0.022-0.014,0.035c-0.003,0.018,0.004,0.034,0.002,0.052c-0.005,0.038-0.016,0.076-0.016,0.114
		c0,0.653-0.268,1.067-0.493,1.3c-0.275,0.285-0.636,0.449-0.987,0.449c-0.918,0-1.511-1.128-1.511-2.875
		c0-0.251,0.006-0.494,0.011-0.728C56.305,78.974,55.974,77.12,51.002,76.173z M52.708,62.429c1.55,0.287,3.275,1.256,3.573,1.741
		c-0.023,0.087-0.035,0.175-0.035,0.262c0,0.215,0.075,0.42,0.202,0.592c-2.3-0.141-4.471-0.213-6.376-0.213
		c-8.38,0-18.37,1.091-18.37,6.29c0,3.071,6.323,4.794,17.245,6.733c0.664,0.118,1.236,0.219,1.682,0.304
		c3.411,0.649,3.644,1.356,3.623,3.085l-20.598-3.834c-0.023-0.006-0.08-0.02-0.104-0.024c-0.63-0.117-1.154-0.466-1.403-0.934
		c-0.148-0.278-0.178-0.565-0.081-0.789c0.22-0.507-0.008-1.105-0.515-1.325c-0.488-0.211-1.047-0.012-1.284,0.454
		c-0.011,0.02-0.021,0.041-0.031,0.062c-0.341,0.462-2.87,0.963-4.69,0.627c-1.485-0.274-3.941-0.936-3.693-2.274
		c0.603-3.258,12.03-9.372,22.606-10.795c0.014,0,0.026,0.008,0.041,0.008c0.058,0,0.107-0.023,0.162-0.033
		C47.483,62.002,50.241,61.972,52.708,62.429z M3.519,66.008V33.081L15.1,35.744v32.337c-6.607-0.445-10.804-1.343-11.587-2.045
		C3.513,66.025,3.519,66.018,3.519,66.008z M29.917,64.545c-2.564,1.166-4.819,2.473-6.548,3.81
		c-2.25-0.005-4.343-0.063-6.269-0.158V36.139h12.817V64.545z M31.917,63.693V35.76l11.582-2.663v27.417
		C39.572,61.093,35.53,62.24,31.917,63.693z M23.708,9.422c13.501,0,20.727,1.641,21.431,2.687c-0.738,0.99-7.571,2.75-21.431,2.75
		c-13.813,0-20.743-1.719-21.656-2.72C2.964,11.141,9.895,9.422,23.708,9.422z M2,14.345c4.872,2.299,17.279,2.515,21.708,2.515
		c4.376,0,16.63-0.215,21.458-2.508l0.008,2.246c-0.516,0.978-7.343,2.805-21.466,2.805C9.443,19.402,2.519,17.569,2,16.684V14.345z
		 M23.708,21.402c3.937,0,14.245-0.175,19.792-1.879v11.521L30.78,33.969c-0.138,0.032-0.261,0.092-0.368,0.17H16.674
		c-0.107-0.079-0.23-0.139-0.368-0.17l-12.788-2.94V19.467C9.08,21.223,19.685,21.402,23.708,21.402z M25.528,81.631
		c-1.68-0.311-3.682-0.91-3.682-2c0-0.405-0.003-1.894-0.007-3.292c0.798,0.437,1.879,0.815,3.344,1.085
		c1.044,0.192,3.26,0.215,4.928-0.33v3.978C29.592,81.514,27.255,81.95,25.528,81.631z M33.478,83.539
		c-0.624-0.115-1.124-0.447-1.37-0.91c-0.152-0.285-0.181-0.582-0.079-0.816c0-0.001,0-0.002,0.001-0.003
		c0.023-0.055,0.024-0.119,0.038-0.179c0.016-0.072,0.043-0.142,0.043-0.214c0,0,0,0,0-0.001v-2.44
		c0.317,0.151,0.649,0.274,1.003,0.339c0.023,0.006,0.08,0.02,0.103,0.024l21.072,3.924c0.278,2.94,1.971,4.033,3.453,4.033
		c0.891,0,1.774-0.386,2.425-1.058c0.417-0.43,0.71-0.959,0.881-1.538l9.208,1.55v4.123L33.631,83.58
		C33.582,83.563,33.531,83.549,33.478,83.539z M72.256,89.885v-3.888L98,71.803v3.889L72.256,89.885z"/>
</g>
</svg>
