<?xml version="1.0" encoding="utf-8"?>
<!-- Generator: Adobe Illustrator 16.0.0, SVG Export Plug-In . SVG Version: 6.00 Build 0)  -->
<!DOCTYPE svg PUBLIC "-//W3C//DTD SVG 1.1//EN" "http://www.w3.org/Graphics/SVG/1.1/DTD/svg11.dtd">
<svg version="1.1" xmlns="http://www.w3.org/2000/svg" xmlns:xlink="http://www.w3.org/1999/xlink" x="0px" y="0px" width="100px"
	 height="100px" viewBox="0 0 100 100" enable-background="new 0 0 100 100" xml:space="preserve">
<g id="Calque_2">
</g>
<g id="Calque_1">
	<path d="M87.852,52.668c-1.996-4.262-4.051-5.787-5.552-6.901c-1.086-0.806-1.742-1.293-2.061-2.521
		c-0.457-1.767,0.224-2.743,0.944-3.775c0.447-0.642,0.887-1.311,1.017-2.119c0.039-0.133,0.057-0.271,0.057-0.415
		c0-0.006-0.001-0.012-0.001-0.018c0-0.002,0.001-0.004,0.001-0.006c0-0.002-0.001-0.004-0.001-0.007
		c-0.012-0.872-0.541-1.766-5.702-2.398c1.164-2.237,2.172-4.308,2.867-6.63c0.931-3.107,1.471-6.157,1.523-8.585
		c0.063-2.909-0.584-4.586-1.921-4.985l-2.562-0.766c-3.224-0.969-6.506,6.852-7.784,11.122c-0.831,2.776-1.092,5.477-1.395,8.603
		c-0.021,0.22-0.046,0.452-0.067,0.674c-0.743-0.013-1.484-0.027-2.256-0.027c-3.865,0-7.531,0.166-10.479,0.469
		c0.419-2.611,0.859-5.139,1.293-7.574c1.236-6.951,2.304-12.954,2.304-18.651C58.077,0,47.875,0,41.124,0h-13.44
		C20.933,0,10.73,0,10.73,8.158c0,5.754,1.313,13.214,2.702,21.111c1.348,7.662,2.74,15.579,2.801,21.674
		C7.782,59.864,14.89,73.589,20.02,79.36l-4.048,15.207c-0.021,0.084-0.033,0.17-0.033,0.257c0,1.118,1.001,1.939,5.986,2.581
		c3.339,0.43,7.769,0.667,12.475,0.667c4.737,0,9.19-0.24,12.538-0.675c0.158-0.021,0.297-0.084,0.421-0.168
		c0.629,0.584,1.259,0.815,1.511,0.887C52.218,99.401,57.333,100,64.957,100c7.527,0,12.795-0.617,16.101-1.885
		c0.515-0.147,2.608-0.935,3.043-4.13c0.061-0.446,0.354-1.713,0.724-3.316C86.859,81.864,91.626,61.243,87.852,52.668z
		 M81.108,47.374c1.313,0.974,2.925,2.172,4.578,5.417c-0.025,0.088-0.055,0.176-0.055,0.272c0,1.384-7.296,4.078-20.671,4.078
		c-13.373,0-20.669-2.694-20.669-4.078c0-0.064-0.025-0.121-0.037-0.182c1.653-3.222,3.255-4.435,4.56-5.42
		c0.772-0.583,1.514-1.151,2.076-2c3.029,0.611,8.287,0.984,14.069,0.984c5.807,0,11.08-0.375,14.105-0.99
		C79.624,46.268,80.352,46.813,81.108,47.374z M78.271,43.572c-2.933,0.537-7.952,0.873-13.311,0.873
		c-5.349,0-10.366-0.335-13.299-0.871c0.47-2.105-0.19-3.537-0.886-4.615c0.693,0.143,1.523,0.277,2.538,0.403
		c3.117,0.387,7.254,0.6,11.646,0.6c4.394,0,8.53-0.213,11.647-0.6c1-0.124,1.821-0.256,2.508-0.396
		C78.425,40.039,77.781,41.465,78.271,43.572z M79.051,36.942c-0.943,0.208-2.325,0.414-4.075,0.586
		c0.198-0.382,0.393-0.755,0.586-1.122C77.211,36.584,78.317,36.775,79.051,36.942z M69.274,33.459
		c0.292-3.022,0.544-5.632,1.319-8.222c1.892-6.315,4.504-9.771,5.295-9.78l2.542,0.758c0.679,0.449,0.966,4.77-0.926,11.09
		c-0.776,2.593-2,4.917-3.418,7.606c-0.47,0.892-0.959,1.823-1.458,2.81c-0.051,0.118-0.08,0.22-0.111,0.324
		c0.018-0.077,0.025-0.155,0.063-0.229c0.017-0.033,0.032-0.063,0.049-0.096c-1.168,0.079-2.451,0.142-3.837,0.183
		C68.995,36.32,69.139,34.865,69.274,33.459z M64.96,35.914c0.7,0,1.371,0.014,2.049,0.024c-0.071,0.647-0.145,1.301-0.235,1.991
		c-0.001,0.006,0.002,0.012,0.001,0.019c-0.591,0.008-1.192,0.014-1.814,0.014c-6.785,0-11.782-0.506-14.11-1.024
		C53.178,36.42,58.175,35.914,64.96,35.914z M17.942,52.054c0.188-0.188,0.293-0.442,0.293-0.707c0-6.322-1.44-14.508-2.833-22.425
		c-1.374-7.809-2.672-15.184-2.672-20.764C12.73,2.471,19.804,2,27.684,2h13.44c7.88,0,14.953,0.471,14.953,6.158
		c0,5.521-1.054,11.443-2.273,18.301c-0.466,2.625-0.946,5.338-1.395,8.177c-3.938,0.568-4.745,1.285-4.745,2.302
		c0,0.139,0.016,0.272,0.052,0.401c0.12,0.824,0.565,1.508,1.019,2.164c0.723,1.046,1.405,2.034,0.947,3.804
		c-0.32,1.236-0.98,1.733-2.072,2.558c-0.619,0.467-1.334,1.01-2.1,1.784c-3.124-0.902-6.54-1.376-10.188-1.376
		c-4.789,0-9.158,0.778-12.986,2.313c-0.513,0.206-0.762,0.788-0.556,1.3c0.156,0.391,0.531,0.628,0.928,0.628
		c0.124,0,0.25-0.023,0.372-0.072c3.591-1.44,7.709-2.17,12.242-2.17c3.122,0,6.052,0.372,8.76,1.065
		c-0.664,0.91-1.345,2.037-2.021,3.48c-2.28,5.18-1.428,14.76,0.05,23.457c-2.253-0.263-4.948-0.407-7.705-0.407
		c-3.44,0-10.529,0.205-13.213,1.783C17.605,73.323,9.616,60.382,17.942,52.054z M22.087,79.37c0.77-0.556,4.93-1.503,12.317-1.503
		c2.937,0,5.784,0.167,8.068,0.469c0.867,4.732,1.863,9.055,2.563,12.076c-3.021,0.305-6.767,0.474-10.637,0.474
		c-6.275,0-12.133-0.451-15.074-1.14L22.087,79.37z M34.399,96.072c-8.887,0-14.886-0.834-16.355-1.514l0.767-2.88
		c3.125,0.74,9.061,1.208,15.589,1.208c4.042,0,7.96-0.181,11.09-0.509c0.173,0.763,0.296,1.336,0.332,1.606
		c0.079,0.579,0.224,1.054,0.393,1.485C43.004,95.856,38.841,96.072,34.399,96.072z M82.876,90.219
		c-0.412,1.781-0.684,2.958-0.758,3.496c-0.287,2.117-1.541,2.461-1.572,2.47c-0.056,0.011-0.109,0.027-0.161,0.047
		C77.317,97.421,72.271,98,64.957,98c-7.305,0-12.348-0.579-15.415-1.769c-0.037-0.015-0.1-0.033-0.139-0.042
		c-0.054-0.014-1.313-0.359-1.6-2.477c-0.074-0.54-0.348-1.721-0.763-3.509c-0.458-1.976-1.108-4.777-1.768-7.989
		c3.848,1.742,11.312,2.858,19.688,2.859c8.507,0,15.84-1.102,19.679-2.851C83.981,85.437,83.333,88.24,82.876,90.219z
		 M85.156,79.615c-2.052,1.708-9.618,3.458-20.195,3.458c-10.804,0-18.006-1.758-20.125-3.39c-0.022-0.017-0.05-0.021-0.073-0.036
		c-1.618-8.423-3.006-18.704-1.396-24.522c3.54,3.122,15.021,4.017,21.595,4.017c6.59,0,18.111-0.898,21.623-4.038
		C88.146,60.968,86.765,71.213,85.156,79.615z"/>
</g>
</svg>
