<svg id="Calque_1" data-name="Calque 1" xmlns="http://www.w3.org/2000/svg" viewBox="0 0 300 300"><defs><style>.cls-1{fill:#1d1d1b;}</style></defs><title>logo_uDeBretagne5</title><path class="cls-1" d="M180.11,140a6,6,0,0,1-4.83-2.38l-2.9-3.69q-5.07-6.47-10.16-12.9a4.87,4.87,0,0,1-.27-6,145.14,145.14,0,0,1,13.42-17.66,8.25,8.25,0,0,1,9.42-2.42,122.3,122.3,0,0,1,11.75,4.87c5.28,2.61,10.59,5.37,15.71,8q3.69,1.92,7.39,3.83a7,7,0,0,1,3.93,6.59s0,.06,0,.09a7.11,7.11,0,0,1-4.67,6.32l-4.77,2.07c-5.28,2.28-10.73,4.65-16.13,6.9-3.47,1.45-7,2.82-10.45,4.15l-3.4,1.31a17.38,17.38,0,0,1-2.48.71A7,7,0,0,1,180.11,140Zm-12.8-22.22c3.29,4.16,6.54,8.3,9.79,12.44l2.9,3.69a.3.3,0,0,0,.09.1l.25,0a11.34,11.34,0,0,0,1.62-.45l3.43-1.32c3.39-1.31,6.9-2.66,10.29-4.08,5.36-2.25,10.8-4.6,16-6.88l4.78-2.07c.67-.29,1-.62,1.06-1,0-.78-.19-.92-.67-1.17-2.48-1.27-5-2.56-7.42-3.84-5.1-2.65-10.37-5.4-15.6-8a119.12,119.12,0,0,0-11.17-4.63,2.34,2.34,0,0,0-2.86.79A138.52,138.52,0,0,0,167.31,117.78Z"/><path class="cls-1" d="M150,107.45a5.6,5.6,0,0,1-2.93-.88,142.39,142.39,0,0,1-18.24-13,8.29,8.29,0,0,1-3.22-6,3.2,3.2,0,0,1,.15-1.15c.17-.49.32-1,.47-1.5A20.93,20.93,0,0,1,127.64,81c4-7.93,8.12-15.76,11.6-22.38.8-1.52,1.66-3,2.49-4.43C142.35,53.1,143,52,143.56,51A7.24,7.24,0,0,1,150.49,47a7.1,7.1,0,0,1,6.39,4.34l1.93,4.16c2.5,5.39,5.08,11,7.55,16.49,2.13,4.78,4.08,9.6,5.7,13.69,1.52,3.82.87,6.06-2.48,8.56-3,2.23-6,4.43-9,6.63-2.46,1.8-4.93,3.6-7.38,5.42A5.44,5.44,0,0,1,150,107.45ZM131.65,87.63a2.85,2.85,0,0,0,1,1.34,134.93,134.93,0,0,0,17.22,12.31c2.42-1.79,4.78-3.52,7.14-5.25q4.49-3.27,9-6.59a9.06,9.06,0,0,0,.8-.65,6.44,6.44,0,0,0-.31-.89c-1.6-4-3.52-8.78-5.6-13.45-2.45-5.49-5-11-7.52-16.41l-1.93-4.17c-.33-.71-.64-.85-1.18-.87a1.29,1.29,0,0,0-1.43.84c-.61,1.12-1.26,2.23-1.9,3.34-.84,1.44-1.63,2.81-2.37,4.21C141.08,68,137,75.8,133,83.69a17.39,17.39,0,0,0-1,2.92Z"/><path class="cls-1" d="M118.69,141.65a2.87,2.87,0,0,1-.77-.11c-.52-.14-1-.25-1.51-.36a18,18,0,0,1-3.55-1.07c-5.76-2.62-12.44-5.67-18.94-8.86-4.78-2.35-9.53-5-13.72-7.32A7.89,7.89,0,0,1,77,120.45a5.17,5.17,0,0,1,2.37-7.1c2.74-1.53,5.7-3.09,9-4.77l.84-.42c2.94-1.48,6-3,9.11-4.32,4.75-2,9.62-3.93,14.32-5.79l2.62-1a14,14,0,0,1,2.29-.64c.25,0,.51-.1.76-.17A6.18,6.18,0,0,1,125,98.5l3.51,4.35c1.88,2.34,3.77,4.68,5.64,7,.72.91,1.39,1.83,2,2.73.55.75,1.09,1.51,1.66,2.24a4.65,4.65,0,0,1,.11,5.93l-3.22,4.43c-2.23,3.07-4.53,6.24-6.86,9.34a36.32,36.32,0,0,1-4.33,4.8,9.13,9.13,0,0,1-2.8,1.65c-.24.1-.48.2-.7.31A2.94,2.94,0,0,1,118.69,141.65Zm-35.94-23.3a1.47,1.47,0,0,0,.36.33c4.13,2.3,8.82,4.9,13.46,7.18,6.42,3.16,13.05,6.19,18.77,8.78a12.92,12.92,0,0,0,2.39.69l.68.15h0a6.23,6.23,0,0,0,1.06-.51,30.43,30.43,0,0,0,3.61-4c2.3-3.06,4.59-6.21,6.81-9.26l2.74-3.77-1.3-1.78c-.64-.88-1.24-1.72-1.88-2.52-1.86-2.35-3.74-4.67-5.61-7-1.18-1.45-2.35-2.91-3.52-4.36a1.12,1.12,0,0,0-.26-.26,1.13,1.13,0,0,0-.21,0c-.33.09-.66.16-1,.23a7.36,7.36,0,0,0-1.32.34l-2.63,1c-4.67,1.84-9.5,3.75-14.19,5.73-2.94,1.25-5.89,2.73-8.75,4.16l-.84.42C88,115.49,85.29,116.94,82.75,118.35Z"/><path class="cls-1" d="M149.71,252.15a3.19,3.19,0,0,1-1.26-.26c-1-.43-9.55-4.76-19.7-26.89l-26.19,7.15a6.53,6.53,0,0,1-7.49-3.06,6.27,6.27,0,0,1,1.11-7.7c30.17-29.33,46.42-65.8,48.29-108.39a3,3,0,0,1,3-2.86h4.43a3,3,0,0,1,3,2.86c1.88,42.59,18.12,79.06,48.29,108.39h0a6.27,6.27,0,0,1,1.11,7.7,6.53,6.53,0,0,1-7.49,3.06L170.73,225c-10.06,24.43-19.4,26.87-20.46,27.07A2.67,2.67,0,0,1,149.71,252.15Zm-19.27-33.73a3,3,0,0,1,2.74,1.8c7.67,17.49,14.33,23.72,16.77,25.55,2.36-1.4,8.91-6.74,16.19-25.43a3,3,0,0,1,3.59-1.81l28.66,7.83a.57.57,0,0,0,.7-.25c.12-.21,0-.29-.08-.42h0c-28.73-27.93-45.3-62.1-49.32-101.68-4,39.58-20.6,73.75-49.33,101.68-.13.13-.2.21-.08.42a.56.56,0,0,0,.7.25l28.66-7.83A3.15,3.15,0,0,1,130.44,218.42Z"/><path class="cls-1" d="M150,6A144,144,0,0,1,251.82,251.82,144,144,0,1,1,48.18,48.18,143,143,0,0,1,150,6m0-6A150,150,0,1,0,300,150,150,150,0,0,0,150,0Z"/></svg>