<?xml version="1.0" encoding="utf-8"?>
<!-- Generator: Adobe Illustrator 16.0.0, SVG Export Plug-In . SVG Version: 6.00 Build 0)  -->
<!DOCTYPE svg PUBLIC "-//W3C//DTD SVG 1.1//EN" "http://www.w3.org/Graphics/SVG/1.1/DTD/svg11.dtd">
<svg version="1.1" xmlns="http://www.w3.org/2000/svg" xmlns:xlink="http://www.w3.org/1999/xlink" x="0px" y="0px" width="100px"
	 height="100px" viewBox="0 0 100 100" enable-background="new 0 0 100 100" xml:space="preserve">
<g id="Calque_2">
</g>
<g id="v2">
	<path d="M42.343,45.015c0.001-0.023,0.011-0.043,0.011-0.067c0-2.655-7.053-2.861-9.215-2.861s-9.215,0.206-9.215,2.861
		c0,0.043,0.017,0.082,0.021,0.124c-0.002,0.01-0.009,0.018-0.01,0.028c-0.473,3.18-0.712,6.545-0.712,10.001
		c0,3.458,0.24,6.824,0.712,10.007c0.461,3.083,1.121,5.852,1.962,8.226c0.857,2.435,1.87,4.365,3.014,5.738
		c0.986,1.182,2.045,1.92,3.16,2.209v14.602c-7.043,0.125-7.06,1.464-7.06,2.053c0,0.618,0,2.065,8.144,2.065
		s8.144-1.447,8.144-2.065c0-0.593-0.021-1.947-7.228-2.054V81.314c1.176-0.256,2.292-1.002,3.329-2.243
		c1.141-1.37,2.155-3.3,3.014-5.736c0.84-2.377,1.5-5.145,1.96-8.228c0.473-3.18,0.713-6.546,0.713-10.006
		c0-3.459-0.24-6.824-0.713-10.002C42.369,45.068,42.35,45.044,42.343,45.015z M25.223,55.101c0-2.846,0.177-5.618,0.507-8.276
		c2.241,0.887,5.945,0.984,7.41,0.984c1.471,0,5.201-0.098,7.439-0.995c0.331,2.66,0.509,5.435,0.509,8.287
		c0,0.898-0.02,1.788-0.053,2.671c-1.199-0.385-3.485-0.682-7.895-0.682c-4.374,0-6.657,0.292-7.865,0.672
		C25.242,56.883,25.223,55.996,25.223,55.101z M33.139,44.087c3.405,0,5.734,0.469,6.759,0.861
		c-1.025,0.392-3.354,0.861-6.759,0.861c-3.404,0-5.733-0.47-6.759-0.861C27.405,44.556,29.734,44.087,33.139,44.087z
		 M32.323,97.884c0.033,0.038,0.066,0.07,0.104,0.103c-0.602-0.008-1.19-0.023-1.704-0.052
		C31.207,97.908,31.758,97.893,32.323,97.884z M33.711,97.989c0.04-0.034,0.075-0.068,0.108-0.107
		c0.624,0.008,1.234,0.023,1.767,0.053C35.023,97.967,34.373,97.982,33.711,97.989z M40.395,64.812
		c-0.441,2.957-1.07,5.6-1.868,7.857c-0.769,2.181-1.69,3.952-2.664,5.121c-1.808,2.165-3.611,2.164-5.417,0.001
		c-0.976-1.172-1.896-2.943-2.664-5.124c-0.799-2.255-1.428-4.898-1.869-7.854c-0.211-1.422-0.369-2.886-0.483-4.376
		c1.246,0.356,3.519,0.624,7.709,0.624c4.228,0,6.502-0.273,7.741-0.634C40.765,61.921,40.607,63.388,40.395,64.812z M30.13,64.39
		c-0.13,0-0.26-0.06-0.36-0.15c-0.09-0.09-0.14-0.22-0.14-0.35c0-0.14,0.05-0.26,0.14-0.35c0.2-0.2,0.53-0.19,0.71-0.01
		c0.09,0.1,0.15,0.23,0.15,0.36c0,0.13-0.06,0.26-0.15,0.35C30.39,64.33,30.26,64.39,30.13,64.39z M36.48,65.14
		c0.09,0.1,0.14,0.22,0.14,0.35c0,0.14-0.05,0.27-0.15,0.36C36.38,65.94,36.25,66,36.12,66c-0.13,0-0.25-0.06-0.35-0.15
		c-0.09-0.09-0.15-0.22-0.15-0.36c0-0.13,0.05-0.25,0.14-0.35C35.97,64.95,36.29,64.96,36.48,65.14z M35.26,70.96
		c0.1,0.1,0.15,0.23,0.15,0.36s-0.05,0.26-0.15,0.35c-0.09,0.09-0.22,0.15-0.35,0.15c-0.13,0-0.26-0.06-0.35-0.15
		c-0.1-0.09-0.15-0.22-0.15-0.35c0-0.14,0.05-0.26,0.15-0.36C34.74,70.78,35.08,70.78,35.26,70.96z M30.83,68.57
		c0.1,0.1,0.15,0.22,0.15,0.35s-0.05,0.26-0.14,0.35c-0.1,0.1-0.23,0.15-0.36,0.15c-0.13,0-0.26-0.05-0.35-0.14
		c-0.1-0.1-0.15-0.23-0.15-0.36s0.05-0.26,0.15-0.35C30.32,68.38,30.65,68.39,30.83,68.57z M33.9,75.24c0.1,0.1,0.15,0.23,0.15,0.36
		c0,0.13-0.05,0.26-0.15,0.35c-0.09,0.1-0.22,0.15-0.35,0.15s-0.25-0.05-0.35-0.14c-0.09-0.1-0.15-0.23-0.15-0.36
		c0-0.13,0.05-0.26,0.14-0.35C33.39,75.06,33.71,75.06,33.9,75.24z M72.115,43.075c-2.621-8.071-5.329-16.412-5.418-27.112
		c1.482-1.092,2.355-3.093,2.262-5.282c-0.072-1.673-0.708-3.038-1.739-3.796c0.073-1.071,0.221-3.261,0.282-4.292
		C67.501,0.125,61.898,0,60.775,0s-6.726,0.125-6.724,2.653c0.059,0.986,0.207,3.163,0.28,4.231
		c-1.031,0.758-1.667,2.123-1.739,3.795c-0.094,2.189,0.779,4.191,2.261,5.282c-0.089,10.701-2.797,19.042-5.418,27.113
		c-2.397,7.383-4.662,14.357-4.662,22.429v28.037c0,3.554,8.295,5.173,16.002,5.173s16.002-1.619,16.002-5.173V65.503
		C76.777,57.432,74.513,50.458,72.115,43.075z M74.777,85.248c0,0.949-4.764,3.173-14.002,3.173s-14.002-2.224-14.002-3.173V68.311
		c2.921,1.7,8.601,2.499,14.002,2.499s11.081-0.799,14.002-2.498V85.248z M56.333,14.539c-1.285-0.698-1.801-2.398-1.742-3.773
		c0.051-1.177,0.514-2.126,1.181-2.417c0.387-0.169,0.626-0.563,0.597-0.985c0,0-0.218-3.167-0.306-4.568
		C56.532,2.486,58.209,2,60.775,2c2.563,0,4.24,0.485,4.712,0.793c-0.092,1.475-0.305,4.569-0.305,4.57
		c-0.029,0.421,0.21,0.816,0.597,0.985c0.667,0.291,1.131,1.24,1.181,2.418c0.059,1.375-0.458,3.075-1.743,3.772
		c-0.322,0.175-0.523,0.512-0.523,0.879c0,9.156,1.848,16.572,3.996,23.509c-0.484,0.087-0.987,0.165-1.508,0.235
		c-0.651-2.939-3.274-5.146-6.407-5.146s-5.756,2.207-6.406,5.146c-0.521-0.071-1.023-0.148-1.509-0.235
		c2.147-6.937,3.996-14.354,3.996-23.51C56.855,15.051,56.655,14.714,56.333,14.539z M60.775,36.016
		c2.518,0,4.565,2.048,4.565,4.565s-2.048,4.565-4.565,4.565c-2.517,0-4.565-2.048-4.565-4.565S58.258,36.016,60.775,36.016z
		 M46.773,65.503c0-7.754,2.217-14.583,4.564-21.811c0.306-0.943,0.613-1.891,0.917-2.844c0.634,0.118,1.295,0.223,1.985,0.314
		c0.296,3.348,3.112,5.983,6.536,5.983s6.24-2.635,6.536-5.984c0.69-0.091,1.351-0.196,1.984-0.314
		c0.304,0.954,0.611,1.901,0.917,2.844c2.348,7.229,4.564,14.057,4.564,21.811v0.133c0,0.949-4.764,3.173-14.002,3.173
		s-14.002-2.224-14.002-3.173V65.503z M60.775,96.713c-9.238,0-14.002-2.224-14.002-3.173v-5.618
		c2.921,1.7,8.601,2.499,14.002,2.499s11.081-0.799,14.002-2.499v5.618C74.777,94.489,70.014,96.713,60.775,96.713z"/>
</g>
</svg>
