<?xml version="1.0" encoding="utf-8"?>
<!-- Generator: Adobe Illustrator 16.0.0, SVG Export Plug-In . SVG Version: 6.00 Build 0)  -->
<!DOCTYPE svg PUBLIC "-//W3C//DTD SVG 1.1//EN" "http://www.w3.org/Graphics/SVG/1.1/DTD/svg11.dtd">
<svg version="1.1" xmlns="http://www.w3.org/2000/svg" xmlns:xlink="http://www.w3.org/1999/xlink" x="0px" y="0px" width="100px"
	 height="100px" viewBox="0 0 100 100" enable-background="new 0 0 100 100" xml:space="preserve">
<g id="Calque_2">
</g>
<g id="Calque_1">
	<path d="M98.266,22.166c1.107-1.323,1.734-3.413,1.734-4.772c0-4.557-3.929-9.179-10.778-12.679
		c-8.044-4.111-19.471-6.117-24.666-2.361c-0.217,0.157-0.348,0.386-0.393,0.629c-2.344,0.205-4.403,0.798-5.922,1.897
		c-0.217,0.157-0.348,0.386-0.394,0.629c-2.344,0.205-4.403,0.798-5.923,1.897c-0.217,0.157-0.348,0.386-0.394,0.63
		c-2.344,0.204-4.404,0.798-5.923,1.896c-0.215,0.155-0.345,0.382-0.391,0.623c-2.335,0.202-4.386,0.791-5.894,1.882
		c-0.396,0.264-0.803,0.531-1.213,0.799c-1.605,1.053-3.266,2.141-4.405,3.15c-0.063,0.056-0.101,0.127-0.146,0.194
		c-1.294,1.282-1.975,2.965-1.975,4.953c0,1.193,0.548,3.088,1.587,4.353c-1.28,0.74-2.277,2.01-2.277,3.5V57.59
		c-0.021-0.006-0.043-0.016-0.063-0.021c-1.227-0.348-2.577-0.524-4.015-0.524c-11.253,0-25.747,10.625-26.71,17.558
		c-0.033,0.237-0.052,0.502-0.052,0.783L0,75.387c0,0,0.072,5.256,0.072,6.404c0,2.514,1.642,4.253,4.879,5.171
		c1.021,0.288,2.413,0.272,3.631-0.041c0.364-0.094,0.7-0.21,1.005-0.348c0.365,1.409,1.318,2.676,2.771,3.087l35.123,9.945
		c0.09,0.025,0.182,0.038,0.272,0.038c0.231,0,0.459-0.081,0.641-0.232l25.826-21.574c0.228-0.19,0.359-0.471,0.359-0.768v-4.151
		l5.687-2.275l6.316-2.526l6.315-2.526l6.316-2.526c0.38-0.152,0.629-0.52,0.629-0.929V25.565
		C99.844,24.128,99.234,22.906,98.266,22.166z M91.527,28.124v35.862l-4.315,1.727V30.618c0-1.27-0.477-2.371-1.257-3.121
		l3.865-1.547C90.986,26.039,91.527,27.097,91.527,28.124z M67.006,35.081l3.876-1.551c1.16,0.094,1.698,1.149,1.698,2.173v33.742
		l-4.316-1.223V38.197C68.264,36.929,67.786,35.83,67.006,35.081z M75.68,11.548c6.158,3.146,9.689,7.119,9.689,10.898
		c0,1.289-0.771,3.062-1.494,3.729l-0.896,0.359c-0.009,0.003-0.018,0.007-0.026,0.011l-2.403,0.961
		c0.326-0.901,0.504-1.818,0.504-2.534c0-4.558-3.929-9.179-10.779-12.679C65.767,9.991,60.2,8.35,55.261,8.011
		C60.085,6.524,68.497,7.878,75.68,11.548z M69.363,14.074c6.158,3.146,9.689,7.119,9.689,10.898c0,1.292-0.772,3.068-1.497,3.732
		l-0.885,0.354c-0.015,0.006-0.028,0.011-0.042,0.017l-2.396,0.959c0.326-0.902,0.505-1.819,0.505-2.535
		c0-4.558-3.93-9.179-10.78-12.679c-4.506-2.302-10.07-3.942-15.002-4.286C53.782,9.054,62.187,10.407,69.363,14.074z
		 M63.048,16.601c6.158,3.146,9.69,7.119,9.69,10.898c0,1.293-0.775,3.072-1.501,3.734l-0.875,0.35
		c-0.019,0.007-0.036,0.013-0.054,0.021l-2.387,0.956c0.323-0.897,0.5-1.809,0.5-2.521c0-9.434-15.491-16.262-25.935-16.262
		c-0.563,0-1.103,0.026-1.632,0.065C45.109,11.247,54.873,12.424,63.048,16.601z M73.326,32.551l3.868-1.548
		c1.162,0.092,1.701,1.148,1.701,2.173v35.862l-4.315,1.727V35.67C74.58,34.402,74.104,33.302,73.326,32.551z M79.64,30.024
		l3.868-1.548c1.164,0.091,1.704,1.148,1.704,2.174v35.862l-4.316,1.727V33.144C80.896,31.875,80.42,30.774,79.64,30.024z
		 M90.193,23.646l-0.905,0.362c-0.006,0.002-0.011,0.004-0.017,0.006l-2.405,0.963c0.325-0.901,0.503-1.817,0.503-2.532
		c0-4.558-3.929-9.179-10.779-12.679c-4.506-2.303-10.072-3.944-15.011-4.283c4.825-1.485,13.235-0.132,20.417,3.538
		c6.158,3.146,9.689,7.119,9.689,10.898C91.686,21.208,90.917,22.978,90.193,23.646z M32.895,58.347V29.354
		c0-1.143,1.518-2.16,2.714-2.16c0.553,0,1-0.448,1-1s-0.447-1-1-1c-0.919,0-2.023-2.248-2.023-3.66
		c0-5.009,5.577-5.756,8.902-5.756c9.451,0,23.935,6.389,23.935,14.262c0,1.283-0.766,3.046-1.488,3.716l-0.9,0.36
		c-0.003,0.001-0.004,0.003-0.007,0.004c-0.1,0.041-0.186,0.104-0.266,0.174c-0.019,0.016-0.044,0.024-0.062,0.042
		c-0.048,0.047-0.076,0.11-0.113,0.166c-0.033,0.051-0.078,0.095-0.102,0.151c-0.01,0.024-0.009,0.053-0.017,0.078
		c-0.033,0.099-0.061,0.2-0.062,0.306c0,0.003-0.002,0.005-0.002,0.008c0,0.061,0.024,0.114,0.034,0.171
		c0.013,0.067,0.011,0.134,0.037,0.2c0.001,0.003,0.004,0.006,0.006,0.009c0.007,0.018,0.02,0.03,0.027,0.047
		c0.044,0.092,0.1,0.175,0.166,0.247c0.024,0.026,0.052,0.047,0.078,0.07c0.064,0.056,0.133,0.103,0.208,0.14
		c0.031,0.016,0.061,0.032,0.095,0.045c0.111,0.042,0.228,0.071,0.349,0.071c0.001,0,0.001,0,0.001,0
		c1.276,0.001,1.858,1.116,1.858,2.184v29.427l-27.598-7.817c-1.343-0.381-2.748-0.115-3.717,0.63
		c-0.525-0.75-1.297-1.415-2.093-1.931C32.869,58.474,32.895,58.415,32.895,58.347z M2.088,74.877
		c0.849-6.108,14.5-15.833,24.729-15.833c1.253,0,2.421,0.151,3.47,0.448c1.549,0.439,3.535,2.221,3.32,2.979
		c-0.026,0.091-0.038,0.184-0.038,0.274c0,0.436,0.287,0.836,0.728,0.961c0.524,0.146,1.084-0.158,1.234-0.69
		c0.283-0.999,1.158-1.355,1.883-1.355c0.233,0,0.472,0.034,0.738,0.109l33.291,9.43L47.493,91.222l-34.632-9.81
		c-1.1-0.312-1.673-2.02-1.354-3.147c0.026-0.091,0.038-0.183,0.038-0.273c0-0.436-0.287-0.836-0.728-0.961
		c-0.528-0.152-1.085,0.157-1.234,0.689c-0.174,0.613-1.538,1.132-2.979,1.132c-0.419,0-0.813-0.046-1.11-0.13
		C1.703,77.647,1.992,75.563,2.088,74.877z M8.084,84.985c-0.871,0.223-1.909,0.245-2.588,0.053c-3.069-0.87-3.424-2.27-3.424-3.247
		c0-0.428-0.01-1.422-0.022-2.504c0.708,0.532,1.646,1.004,2.9,1.359c1.23,0.347,3.064,0.259,4.47-0.325v3.993
		C9.175,84.583,8.698,84.827,8.084,84.985z M11.51,84.58c0.026-0.091,0.038-0.183,0.038-0.274c0-0.165-0.053-0.319-0.128-0.461
		v-0.922c0.282,0.18,0.591,0.326,0.929,0.422l33.705,9.547v4.231l-33.185-9.395C11.768,87.416,11.191,85.708,11.51,84.58z
		 M48.054,97.091v-3.82c0.114-0.039,0.222-0.097,0.317-0.176L72.58,72.856v3.746L48.054,97.091z M97.844,61.459l-4.316,1.727V28.091
		c0-1.271-0.478-2.372-1.258-3.122l3.863-1.547c1.17,0.088,1.711,1.147,1.711,2.175V61.459z M95.983,21.406
		c-0.065,0-0.122,0.025-0.185,0.037c-0.063,0.012-0.125,0.01-0.187,0.035l-0.016,0.006c-0.002,0-0.003,0.001-0.005,0.001
		l-2.409,0.964c0.325-0.9,0.503-1.815,0.503-2.53c0-4.558-3.929-9.179-10.779-12.679c-4.507-2.303-10.073-3.944-15.012-4.284
		c4.824-1.484,13.234-0.131,20.417,3.539C94.469,9.642,98,13.614,98,17.394C98,19.006,96.794,21.406,95.983,21.406z M43.105,84.294
		c3.233,0,5.58-1.315,5.58-3.126c0-1.812-2.347-3.127-5.58-3.127c-3.232,0-5.579,1.315-5.579,3.127
		C37.526,82.979,39.873,84.294,43.105,84.294z M43.105,80.041c2.429,0,3.58,0.904,3.58,1.127s-1.151,1.126-3.58,1.126
		c-2.428,0-3.579-0.903-3.579-1.126C39.526,80.887,40.796,80.041,43.105,80.041z M40.001,42.615c1.387,0,2.473-1.435,2.473-3.266
		s-1.086-3.266-2.473-3.266c-1.388,0-2.475,1.435-2.475,3.266S38.613,42.615,40.001,42.615z M39.996,38.083
		c0.115,0.027,0.478,0.461,0.478,1.267c0,0.795-0.354,1.228-0.473,1.265c-0.12-0.036-0.475-0.466-0.475-1.265
		C39.526,38.54,39.89,38.109,39.996,38.083z"/>
</g>
</svg>
