<?xml version="1.0" encoding="utf-8"?>
<!-- Generator: Adobe Illustrator 16.0.0, SVG Export Plug-In . SVG Version: 6.00 Build 0)  -->
<!DOCTYPE svg PUBLIC "-//W3C//DTD SVG 1.1//EN" "http://www.w3.org/Graphics/SVG/1.1/DTD/svg11.dtd">
<svg version="1.1" xmlns="http://www.w3.org/2000/svg" xmlns:xlink="http://www.w3.org/1999/xlink" x="0px" y="0px" width="100px"
	 height="100px" viewBox="0 0 100 100" enable-background="new 0 0 100 100" xml:space="preserve">
<g id="Calque_2">
</g>
<g id="v2">
	<path d="M55.394,52.529l0.035-1.238c0-4.635-2.893-10.764-7.033-14.905c-5.874-5.873-5.802-15.994-5.767-20.857
		c0.006-0.738,0.01-1.358-0.007-1.832c-0.003-0.093-0.034-0.176-0.061-0.261V1c0-0.552-0.447-1-1-1h-7.805c-0.553,0-1,0.448-1,1
		v12.73c0,0.001,0,0.001,0,0.002c-0.015,0.469-0.012,1.075-0.006,1.796c0.035,4.864,0.107,14.984-5.765,20.856
		c-4.142,4.141-7.034,10.27-7.034,14.934l0.041,1.432c-0.015,0.068-0.041,0.132-0.041,0.204c0,0.122,0.021,0.239,0.057,0.354
		l1.23,42.86c0,3.787,16.287,3.831,16.451,3.831s16.45-0.044,16.45-3.803l1.226-42.731c0.077-0.163,0.13-0.331,0.13-0.511
		C55.496,52.801,55.455,52.659,55.394,52.529z M52.438,85.816c-0.098,0.122-0.177,0.259-0.209,0.417
		c-0.997,0.91-7.865,2.031-14.506,2.031c-6.64,0-13.506-1.121-14.503-2.031c-0.039-0.195-0.145-0.362-0.279-0.499l-0.885-30.839
		c4.673,1.827,15.527,1.893,15.667,1.893c0.139,0,10.89-0.063,15.601-1.865L52.438,85.816z M34.757,2h5.805v10.73h-5.805V2z
		 M28.4,37.8c6.465-6.463,6.388-17.149,6.351-22.285c-0.002-0.285-0.003-0.538-0.004-0.784h5.886
		c-0.001,0.246-0.002,0.499-0.004,0.783c-0.036,5.136-0.113,15.822,6.353,22.286c3.735,3.736,6.447,9.41,6.447,13.463l-0.044,1.54
		c-1.547,0.975-9.356,1.985-15.662,1.985c-6.397,0-14.349-1.041-15.729-2.028l-0.042-1.469C21.952,47.209,24.664,41.535,28.4,37.8z
		 M37.69,98c-6.601,0-13.418-1.107-14.456-2.014l-0.22-7.671c4.228,1.919,14.577,1.949,14.708,1.949s10.37-0.029,14.642-1.918
		l-0.219,7.64C51.11,96.892,44.292,98,37.69,98z M25.416,49.247c0.513-3.653,3.16-7.032,5.288-9.747
		c0.341-0.436,0.968-0.512,1.404-0.17c0.435,0.341,0.511,0.969,0.17,1.404c-1.979,2.527-4.444,5.671-4.882,8.792
		c-0.07,0.5-0.498,0.861-0.989,0.861c-0.046,0-0.093-0.003-0.14-0.01C25.721,50.299,25.339,49.794,25.416,49.247z M73.246,75.916
		c1.36-0.865,2.569-2.086,3.594-3.627c1.012-1.517,1.805-3.275,2.356-5.229c0.565-2.008,0.852-4.139,0.852-6.333
		c0-2.196-1.251-14.885-1.812-16.886c-0.012-0.764-0.331-2.063-9.584-2.063c-9.584,0-9.584,1.395-9.584,2.145
		c0,0.018,0.001,0.038,0.001,0.057c-0.576,2.376-1.778,14.6-1.778,16.747c0,2.188,0.287,4.318,0.854,6.333
		c0.551,1.956,1.344,3.716,2.355,5.228c1.025,1.542,2.234,2.763,3.595,3.629c1.109,0.703,2.275,1.134,3.478,1.299v17.206
		c-8.18,0.126-8.203,1.638-8.203,2.225c0,0.612,0,2.237,9.3,2.237c9.301,0,9.301-1.625,9.301-2.237c0-0.591-0.026-2.122-8.397-2.228
		V77.229C70.845,77.087,72.078,76.657,73.246,75.916z M68.652,52.34c-4.688,0-7.288,0.287-8.734,0.666
		c0.301-2.932,0.649-5.924,0.907-7.556c1.335,0.357,3.683,0.618,7.827,0.618c4.178,0,6.533-0.265,7.862-0.626
		c0.259,1.63,0.608,4.632,0.908,7.574C75.984,52.631,73.38,52.34,68.652,52.34z M73.246,54.484
		c-1.268,0.086-2.804,0.144-4.594,0.144s-3.325-0.058-4.593-0.144c1.268-0.087,2.803-0.145,4.593-0.145
		C70.443,54.34,71.979,54.397,73.246,54.484z M68.652,43.779c1.763,0,3.218,0.058,4.378,0.145c-1.127,0.086-2.566,0.145-4.378,0.145
		s-3.251-0.059-4.377-0.145C65.436,43.837,66.89,43.779,68.652,43.779z M62.165,71.178c-0.896-1.339-1.601-2.906-2.094-4.659
		c-0.518-1.838-0.78-3.786-0.78-5.791c0-0.734,0.142-2.609,0.347-4.843c1.381,0.417,4.008,0.743,9.015,0.743
		c5.048,0,7.677-0.332,9.049-0.754c0.205,2.237,0.347,4.116,0.347,4.854c0,2.012-0.262,3.96-0.776,5.791
		c-0.495,1.75-1.199,3.318-2.097,4.662c-0.869,1.308-1.879,2.333-3.002,3.047c-2.23,1.417-4.769,1.418-7.005,0.001
		C64.046,73.515,63.036,72.489,62.165,71.178z M68.67,96.884c-1.975,0-3.592-0.101-4.819-0.237c1.035-0.115,2.362-0.201,3.932-0.227
		c0.183,0.247,0.461,0.417,0.791,0.417c0.331,0,0.61-0.171,0.792-0.419c1.654,0.021,3.048,0.108,4.124,0.229
		C72.262,96.783,70.645,96.884,68.67,96.884z"/>
</g>
</svg>
