<?xml version="1.0" encoding="utf-8"?>
<!-- Generator: Adobe Illustrator 16.0.0, SVG Export Plug-In . SVG Version: 6.00 Build 0)  -->
<!DOCTYPE svg PUBLIC "-//W3C//DTD SVG 1.1//EN" "http://www.w3.org/Graphics/SVG/1.1/DTD/svg11.dtd">
<svg version="1.1" xmlns="http://www.w3.org/2000/svg" xmlns:xlink="http://www.w3.org/1999/xlink" x="0px" y="0px" width="100px"
	 height="100px" viewBox="0 0 100 100" enable-background="new 0 0 100 100" xml:space="preserve">
<g id="Calque_2">
</g>
<g id="Calque_1">
	<path d="M98.333,28.006c-1.523-2.328-3.984-3.919-6.986-4.606c3.879-4.963,4.727-10.786,2.023-14.917
		c-3.834-5.863-13.114-6.354-21.125-1.115c-0.001,0-0.002,0.001-0.003,0.001c0,0,0,0-0.001,0.001l-11.703,7.653
		c-0.194,0.07-0.376,0.161-0.546,0.272c-0.105,0.069-0.187,0.158-0.256,0.253l-12.424,8.125c-0.002,0.001-0.005,0.002-0.007,0.003
		c-0.001,0.001-0.002,0.002-0.003,0.003l-12.047,7.879c-0.003,0.002-0.007,0.004-0.011,0.006c-0.001,0.001-0.002,0.002-0.003,0.003
		l-0.482,0.315c-0.002,0.001-0.005,0.002-0.007,0.004c-0.001,0.001-0.002,0.002-0.003,0.003l-12.784,8.361
		c-0.001,0.001-0.004,0.001-0.006,0.003c-0.001,0.001-0.002,0.002-0.003,0.003L10.161,47.97c-3.772,2.467-6.636,5.839-8.063,9.494
		c-1.477,3.782-1.258,7.443,0.616,10.308c1.153,1.763,2.828,3.07,4.912,3.856C0.689,77.21-2.012,85.61,1.663,91.229
		c2.077,3.175,5.887,4.996,10.455,4.996c3.971,0,8.236-1.357,12.008-3.823L90.43,49.101c4.013-2.625,7.057-6.222,8.57-10.131
		C100.56,34.941,100.322,31.047,98.333,28.006z M23.053,41.929c0.503-0.33,1.936-0.033,3.699,1.169
		c2.692,1.836,5.253,5.127,5.3,8.044c-1.724-0.425-3.615-1.019-5.595-1.641c-3.81-1.197-7.697-2.415-10.988-2.612L23.053,41.929z
		 M35.848,33.561c0.434-0.282,1.532-0.114,3.008,0.893c2.688,1.834,5.128,5.309,5.096,8.375c-1.589-0.382-3.312-0.888-5.115-1.417
		c-3.897-1.146-7.875-2.312-11.24-2.454L35.848,33.561z M48.402,25.351c0.466-0.304,1.743-0.104,3.445,1.058
		c2.653,1.811,5.165,5.116,5.173,8.096c-1.661-0.404-3.47-0.955-5.365-1.532c-3.828-1.165-7.733-2.351-11.046-2.526L48.402,25.351z
		 M61.369,16.87c0.65-0.121,1.911,0.238,3.418,1.267c2.691,1.835,5.25,5.123,5.3,8.038c-1.957-0.506-4.09-1.282-6.164-2.037
		c-3.296-1.198-6.658-2.416-9.59-2.667L61.369,16.87z M73.336,9.043c0,0,0.001,0,0.001,0c0.504-0.333,1.875-0.124,3.688,1.114
		c2.591,1.768,4.938,4.85,4.954,7.702c-1.843-0.465-3.846-1.14-5.793-1.797c-3.349-1.131-6.764-2.276-9.747-2.508L73.336,9.043z
		 M4.388,66.677c-1.51-2.309-1.662-5.322-0.427-8.485c1.277-3.271,3.867-6.307,7.294-8.547c2.915-1.907,9.124,0.045,14.602,1.766
		c2.456,0.771,4.774,1.5,6.875,1.939c0.068,0.014,0.137,0.021,0.205,0.021c0.193,0,0.384-0.056,0.548-0.163
		c0.222-0.145,0.377-0.373,0.432-0.633c0.842-4.028-2.399-8.648-6.037-11.129c-0.269-0.183-0.533-0.346-0.794-0.499
		c3.217,0.042,7.375,1.263,11.188,2.384c2.258,0.663,4.391,1.29,6.345,1.699c0.069,0.014,0.138,0.021,0.206,0.021
		c0.464,0,0.879-0.324,0.979-0.795c0.89-4.253-2.333-9.076-5.818-11.454c-0.197-0.134-0.389-0.249-0.582-0.364
		c3.243-0.11,7.65,1.226,11.671,2.45c2.359,0.719,4.587,1.397,6.62,1.822c0.068,0.014,0.137,0.021,0.205,0.021
		c0.193,0,0.383-0.056,0.547-0.163c0.222-0.145,0.377-0.373,0.432-0.632c0.86-4.108-2.318-8.734-5.902-11.179
		c-0.614-0.419-1.211-0.746-1.784-0.995c2.851-1.083,7.518,0.608,12.05,2.257c2.532,0.92,5.15,1.873,7.528,2.371
		c0.069,0.014,0.138,0.021,0.206,0.021c0.463,0,0.879-0.324,0.978-0.795c0.843-4.029-2.398-8.649-6.036-11.13
		c-0.541-0.369-1.066-0.668-1.576-0.914c2.963-0.391,7.137,1.013,11.208,2.386c2.391,0.807,4.863,1.641,7.106,2.11
		c0.069,0.014,0.138,0.021,0.206,0.021c0.463,0,0.879-0.324,0.978-0.795c0.871-4.153-2.335-8.504-5.683-10.789
		c-0.655-0.447-1.29-0.793-1.899-1.055c6.202-2.794,12.708-2.052,15.441,2.127c2.383,3.642,1.297,9.016-2.674,13.491
		c-0.377-0.026-0.752-0.058-1.141-0.058c-3.972,0-8.238,1.359-12.011,3.826l-12.502,8.177c-0.204,0.073-0.396,0.167-0.574,0.285
		c-0.111,0.073-0.201,0.166-0.272,0.269L35.846,53.012c0,0-0.001,0-0.002,0.001c0,0,0,0-0.001,0.001L9.647,70.146
		C7.341,69.604,5.527,68.418,4.388,66.677z M80.977,29.7c2.808,1.916,5.35,5.271,5.32,8.366c-1.995-0.497-4.166-1.229-6.276-1.942
		c-3.645-1.23-7.364-2.48-10.584-2.69l7.527-4.923C77.521,28.145,79.015,28.361,80.977,29.7z M23.278,63.621
		c0.001,0,0.002,0,0.002-0.001c0.542-0.354,2.03-0.113,4.027,1.25c2.915,1.989,5.686,5.57,5.687,8.729
		c-1.867-0.455-3.916-1.099-6.065-1.774c-4.141-1.301-8.368-2.628-11.915-2.799L23.278,63.621z M36.938,54.687l0.001,0
		c0.48-0.315,1.682-0.143,3.288,0.953c2.911,1.986,5.549,5.765,5.47,9.082c-1.721-0.41-3.588-0.958-5.545-1.533
		c-4.239-1.246-8.568-2.516-12.196-2.626L36.938,54.687z M50.338,45.924c0.001-0.001,0.003-0.001,0.005-0.002
		c0.514-0.337,1.911-0.128,3.755,1.13c2.873,1.96,5.589,5.556,5.552,8.784c-1.798-0.434-3.759-1.031-5.815-1.656
		c-4.162-1.267-8.412-2.558-11.982-2.706L50.338,45.924z M64.198,36.86c0.692-0.141,2.018,0.201,3.717,1.361
		c2.914,1.988,5.682,5.565,5.687,8.723c-2.115-0.541-4.425-1.38-6.67-2.197c-3.587-1.305-7.25-2.635-10.415-2.863L64.198,36.86z
		 M97.134,38.248c-1.363,3.521-4.133,6.781-7.798,9.178L23.031,90.729c-3.451,2.255-7.327,3.497-10.914,3.497
		c-3.937,0-7.056-1.453-8.781-4.091c-3.312-5.065-0.263-12.961,6.779-17.875c0.367-0.013,0.689-0.228,0.851-0.553
		c3.236-1.775,9.665,0.236,15.365,2.027c2.62,0.823,5.096,1.601,7.336,2.07c0.069,0.014,0.138,0.021,0.206,0.021
		c0.463,0,0.879-0.324,0.978-0.795c0.894-4.271-2.551-9.175-6.415-11.812c-0.361-0.247-0.715-0.461-1.064-0.656
		c3.48-0.018,8.041,1.319,12.216,2.546c2.41,0.708,4.686,1.376,6.769,1.813c0.069,0.014,0.138,0.021,0.206,0.021
		c0.463,0,0.88-0.324,0.979-0.796c0.944-4.512-2.483-9.631-6.185-12.158c-0.273-0.186-0.543-0.354-0.81-0.505
		c3.497-0.189,8.317,1.275,12.707,2.611c2.518,0.766,4.896,1.49,7.063,1.943c0.068,0.014,0.136,0.021,0.205,0.021
		c0.193,0,0.384-0.056,0.548-0.163c0.222-0.145,0.377-0.373,0.432-0.632c0.911-4.357-2.466-9.266-6.273-11.863
		c-0.712-0.486-1.4-0.852-2.058-1.121c3.05-1.296,8.142,0.552,13.079,2.348c2.701,0.982,5.494,1.998,8.026,2.528
		c0.068,0.014,0.136,0.021,0.205,0.021c0.193,0,0.384-0.056,0.548-0.163c0.222-0.146,0.377-0.373,0.432-0.633
		c0.893-4.271-2.551-9.175-6.416-11.812c-0.646-0.441-1.274-0.798-1.876-1.073c3.191-0.52,7.765,1.022,12.217,2.524
		c2.552,0.861,5.19,1.752,7.581,2.252c0.069,0.014,0.138,0.021,0.206,0.021c0.463,0,0.879-0.324,0.978-0.795
		c0.922-4.405-2.486-9.023-6.042-11.45c-0.749-0.511-1.472-0.895-2.162-1.177c2.618-1.205,5.352-1.859,7.937-1.859
		c3.936,0,7.054,1.453,8.779,4.089C98.286,31.588,98.455,34.836,97.134,38.248z"/>
</g>
</svg>
