<?xml version="1.0" encoding="utf-8"?>
<!-- Generator: Adobe Illustrator 16.0.0, SVG Export Plug-In . SVG Version: 6.00 Build 0)  -->
<!DOCTYPE svg PUBLIC "-//W3C//DTD SVG 1.1//EN" "http://www.w3.org/Graphics/SVG/1.1/DTD/svg11.dtd">
<svg version="1.1" xmlns="http://www.w3.org/2000/svg" xmlns:xlink="http://www.w3.org/1999/xlink" x="0px" y="0px" width="100px"
	 height="100px" viewBox="0 0 100 100" enable-background="new 0 0 100 100" xml:space="preserve">
<g id="Titres">
</g>
<g id="Calque_1">
	<path d="M17.056,50.637v21.637c0,0.553-0.448,1-1,1s-1-0.447-1-1V50.637c0-0.553,0.448-1,1-1S17.056,50.084,17.056,50.637z
		 M90.375,17.546v72.545c0,0.353-0.185,0.679-0.488,0.858l-14.935,8.909c-0.025,0.016-0.054,0.021-0.081,0.034
		c-0.029,0.015-0.058,0.026-0.089,0.038C74.671,99.972,74.557,100,74.44,100H40.496c-0.552,0-1-0.447-1-1v-2.691
		c-1.304,0.742-2.804,1.146-4.389,1.146H19.04c-4.687,0-9.415-3.359-9.415-10.863V37.909c0-5.922,3.476-11.276,6.542-16.001
		c2.237-3.447,4.335-6.703,4.466-9.354c-1.491-0.512-1.5-1.182-1.5-1.489v-4.27c0-0.534,0-2.159,7.785-2.159
		c7.786,0,7.786,1.625,7.786,2.159v4.27c0,0.285-0.012,0.882-1.2,1.375c0.072,2.679,2.147,5.982,4.354,9.48
		c0.659,1.045,1.328,2.111,1.977,3.203l5.092-17.9V1c0-0.553,0.448-1,1-1h33.943c0.552,0,1,0.447,1,1v5.969l9.235,9.895
		c0.01,0.011,0.013,0.025,0.022,0.037c0.067,0.077,0.119,0.164,0.159,0.258c0.011,0.026,0.023,0.05,0.032,0.076
		C90.353,17.334,90.375,17.438,90.375,17.546z M23.043,6.796c1.048,0.211,2.347,0.358,3.874,0.358c1.527,0,2.826-0.147,3.875-0.358
		c-1.048-0.211-2.348-0.358-3.875-0.358C25.391,6.438,24.092,6.585,23.043,6.796z M21.133,10.629
		c0.711,0.251,2.722,0.596,5.785,0.596c3.063,0,5.075-0.345,5.786-0.596V8.437c-1.146,0.301-2.943,0.519-5.786,0.519
		c-2.842,0-4.639-0.218-5.785-0.519V10.629z M39.496,80.896c-3.637,0.705-8.874,1.073-12.578,1.074
		c-0.136,0-10.773-0.028-15.293-1.853v6.473c0,6.542,3.995,8.863,7.415,8.863h16.067c0.987,0,2.805-0.228,4.389-1.583V80.896z
		 M39.496,43.988c-3.64,0.705-8.876,1.073-12.578,1.073c-0.136,0-10.773-0.028-15.293-1.853v34.787
		c1.149,0.891,8.34,1.975,15.293,1.975c3.744-0.001,9.083-0.383,12.578-1.113V43.988z M39.496,28.604
		c-1.015-1.938-2.189-3.807-3.33-5.615c-2.249-3.564-4.356-6.94-4.623-10.048c-1.109,0.173-2.599,0.284-4.626,0.284
		c-1.847,0-3.244-0.094-4.318-0.24c-0.291,3.101-2.45,6.463-4.754,10.013c-2.916,4.491-6.22,9.583-6.22,14.912v3.178
		c1.149,0.891,8.341,1.975,15.293,1.975c3.741,0,9.08-0.381,12.578-1.112V28.604z M76.091,24.307l11.708-6.984l-7.451-7.981
		L76.091,24.307z M46.927,6.363h31.943V2H46.927V6.363z M61.528,10.26c0.045-0.417-0.039-0.752-0.25-0.998L61.277,9.26
		c-0.711-0.831-2.937-0.677-4.991,0.869c-1.239,0.935-2.08,2.164-2.192,3.208c-0.045,0.419,0.04,0.754,0.245,1.002
		c0.745,0.81,2.949,0.662,4.979-0.868C60.569,12.526,61.417,11.296,61.528,10.26z M60.522,15.067
		c-1.326,0.999-2.779,1.551-4.114,1.691l1.307,1.524c0.72,0.841,2.954,0.699,5.007-0.846c1.25-0.941,2.096-2.171,2.208-3.208
		c0.045-0.419-0.039-0.756-0.25-1.003l-1.426-1.662C62.804,12.818,61.841,14.072,60.522,15.067z M73.44,27.455H41.496v0.821
		c0,0.005,0,0.01,0,0.016v65.647c0.074,0.212,0.073,0.44,0,0.652V98H73.44V27.455z M78.546,8.363H63.143l3.056,3.562
		c0.578,0.674,0.827,1.545,0.721,2.521c-0.173,1.592-1.292,3.307-2.993,4.59c-1.54,1.158-3.261,1.752-4.753,1.752
		c-1.218,0.001-2.284-0.395-2.976-1.202l-3.4-3.963c-0.001-0.001-0.002-0.002-0.003-0.003c0-0.001-0.001-0.002-0.001-0.002
		l-0.018-0.021c-0.024-0.028-0.031-0.063-0.052-0.093c-0.495-0.653-0.717-1.469-0.618-2.382c0.172-1.599,1.286-3.314,2.977-4.591
		c0.083-0.063,0.172-0.108,0.256-0.168h-8.656L41.82,25.455h31.864L78.546,8.363z M88.375,19.307L75.44,27.022v70.217l12.935-7.716
		V19.307z M47.682,64.16c-2.385-2.383-3.926-6.361-3.926-10.136c0-4.354,3.547-7.897,7.907-7.897c1.097,0,2.164,0.222,3.171,0.66
		c0.019,0.009,0.036,0.013,0.054,0.021c0.023-0.012,0.041-0.026,0.059-0.045c0.522-0.543,0.442-2.646,0.416-3.336
		c-0.008-0.214-0.015-0.395-0.015-0.528c0-0.828,0.613-1.596,1.601-2.005c0.993-0.413,2.557-0.488,3.692,0.646
		c0.188,0.188,0.292,0.442,0.292,0.707c0,0.266-0.105,0.521-0.293,0.707c-0.363,0.463-0.422,2.527-0.292,3.74
		c0.938-0.372,1.917-0.568,2.924-0.568c4.36,0,7.907,3.543,7.907,7.897c0,3.774-1.541,7.752-3.925,10.134
		c-2.462,2.453-6.212,3.977-9.786,3.977S50.144,66.611,47.682,64.16z M56.951,47.262c0.166,0.007,0.325,0.016,0.516,0.016
		c0.359,0,0.66-0.018,0.94-0.044c-0.076-0.503-0.117-1.109-0.118-1.829c-0.001-1.148,0.109-2.072,0.328-2.765
		c-0.19-0.036-0.367-0.023-0.49-0.009c-0.431,0.06-0.698,0.253-0.779,0.346c0.001,0.103,0.007,0.229,0.012,0.374
		C57.413,44.7,57.412,46.167,56.951,47.262z M53.141,50.618c0.856-0.024,1.762-0.092,2.061-0.285
		c0.188-0.188,0.422-0.276,0.687-0.277c0,0,0,0,0,0c0.265,0,0.5,0.123,0.688,0.311c0.31,0.31,0.593,0.72,0.86,1.179
		c0.307-0.477,0.636-0.893,0.923-1.18c0.391-0.389,1.023-0.39,1.414,0.001c0.282,0.179,1.177,0.26,2.069,0.251
		c-0.717-0.589-1.4-1.226-1.851-1.66c-0.744,0.227-1.496,0.32-2.524,0.32c-0.992,0-1.725-0.091-2.445-0.301
		C54.582,49.39,53.88,50.027,53.141,50.618z M45.756,54.024c0,3.271,1.31,6.693,3.338,8.72c2.1,2.091,5.309,3.391,8.373,3.391
		s6.273-1.3,8.374-3.393c2.027-2.024,3.337-5.447,3.337-8.718c0-3.252-2.65-5.897-5.907-5.897c-0.376,0-0.746,0.039-1.11,0.108
		c1.016,0.907,2.01,1.688,2.358,1.852c0.336,0.056,0.625,0.281,0.759,0.604c0.155,0.373,0.069,0.804-0.216,1.09
		c-0.69,0.69-2.196,0.836-3.338,0.836c0,0-0.001,0-0.001,0c-0.634,0-1.603-0.049-2.392-0.301c-0.371,0.517-0.748,1.199-0.9,1.74
		c-0.112,0.398-0.458,0.688-0.87,0.726c-0.031,0.003-0.062,0.004-0.093,0.004c-0.377,0-0.727-0.214-0.896-0.558l-0.12-0.243
		c-0.28-0.57-0.585-1.191-0.878-1.658c-0.781,0.241-1.73,0.289-2.353,0.29c-0.002,0-0.004,0-0.007,0
		c-1.144,0-2.649-0.146-3.34-0.836c-0.286-0.286-0.372-0.716-0.217-1.09c0.134-0.324,0.427-0.551,0.767-0.604
		c0.365-0.163,1.415-0.961,2.426-1.839c-0.388-0.079-0.784-0.12-1.187-0.12C48.406,48.127,45.756,50.772,45.756,54.024z"/>
</g>
</svg>
