<svg id="Calque_1" data-name="Calque 1" xmlns="http://www.w3.org/2000/svg" viewBox="0 0 99.01 89.29"><title>09_b_FRUITS BIO</title><path d="M63.88,32c-.15.5-.28,1-.4,1.53-1.76-3.07-5.56-8.46-11.39-10.09a14.36,14.36,0,0,0-3.81-.5c-6.82,0-13,4.33-13.23,4.52a1,1,0,0,0-.33,1.2c.17.41,4.38,10,12.5,12.27a14.36,14.36,0,0,0,3.81.5c4.95,0,9.54-2.28,11.79-3.6a38.25,38.25,0,0,0,.18,8,9.46,9.46,0,0,1-2-.72,25,25,0,0,0-10.84-2.71,20,20,0,0,0-3.48.31,18.24,18.24,0,0,0-12.59,8A19.29,19.29,0,0,0,32.5,53.9c-11-7.68-19.68-23.22-20.38-30.48.12-.62.22-1.24.32-1.88.5-3.16,1-6.44,4.78-9.74,1.62-1.42,2.29-2.65,2.05-3.75a2.16,2.16,0,0,0-1.68-1.58,6.86,6.86,0,0,0-6,1.72c-2.62,2.67-3.95,4.45-7.91,18.38C-3.68,42.59,1.4,56.3,7,65c9.85,15.37,27.11,24.93,37.72,25.16,3.42,3.14,7.1,5.28,10.57,5.45.58,0,1.06,0,1.68,0l1-.08c1.54-.14,4.76-.43,7-.44s5.48.3,7,.44c.53,0,.88.08,1.05.08h1.61c9.64-.46,20.91-16.16,23.52-26.12,1.74-6.68.85-13.69-2.38-18.74a18.24,18.24,0,0,0-12.59-8,20.19,20.19,0,0,0-3.48-.3,25,25,0,0,0-10.84,2.7,10.14,10.14,0,0,1-3.85,1,1.13,1.13,0,0,0,0-.26,34,34,0,0,1,.4-11.76ZM51,39.46A12.09,12.09,0,0,1,47.75,39c-6-1.66-9.71-8.15-10.84-10.37C38.65,27.58,43.35,25,48.27,25a12.11,12.11,0,0,1,3.29.43c5.95,1.66,9.7,8.15,10.84,10.37C60.66,36.85,56,39.46,51,39.46ZM31.82,55.87a24.65,24.65,0,0,0-.86,9C20.12,58.5,8.33,46.5,9.16,24.4h1.06C11.47,32.37,20.2,48,31.82,55.87ZM13,9.59a5.1,5.1,0,0,1,3.48-1.28,1.9,1.9,0,0,1,.84.18s0,.55-1.41,1.8c-4.32,3.78-4.91,7.59-5.43,11-.07.4-.14.77-.2,1.16H8.2a1,1,0,0,0-.18,0l-.18,0-.14.08a2,2,0,0,0-.19.12h0l-.9.88C9.64,13.34,10.84,11.78,13,9.59ZM8.65,63.9C3.36,55.65-1.47,42.66,5.42,27.5l1.7-1.65c-.3,23,12.74,35.2,24.16,41.46.12.72.27,1.45.46,2.17,1.47,5.59,5.66,13,10.77,18.49C32.29,86.55,17.2,77.24,8.65,63.9ZM96.2,69C93.73,78.4,83,93.19,74.53,93.59c-.53,0-1,0-1.54,0l-.85-.07c-1.57-.14-4.85-.44-7.2-.44s-5.63.3-7.2.44c-.45,0-.75.07-.92.07-.46,0-.94,0-1.47,0-3.05-.14-6.38-2.14-9.51-5.07l-.13-.12C40.15,83.15,35.25,75,33.68,69s-.82-12.56,2.13-17.16a16,16,0,0,1,11.25-7.14,18,18,0,0,1,3.13-.28,23,23,0,0,1,10,2.5A12.1,12.1,0,0,0,65,48.11a12.05,12.05,0,0,0,4.75-1.22,23,23,0,0,1,10-2.5,18,18,0,0,1,3.13.28,16,16,0,0,1,11.25,7.14C97,56.4,97.81,62.82,96.2,69Zm-3.45-4.82a1,1,0,0,1-1,1h0a1,1,0,0,1-1-1c-.31-6.53-3.13-10.89-8.39-13a1,1,0,0,1,.73-1.86C89.15,51.8,92.4,56.76,92.75,64.15Z" transform="translate(0 -6.31)"/></svg>