<svg id="Calque_1" data-name="Calque 1" xmlns="http://www.w3.org/2000/svg" viewBox="0 0 300 300"><defs><style>.cls-1{fill:#1d1d1b;}</style></defs><title>picto_camargue</title><path class="cls-1" d="M150,6A144,144,0,0,1,251.82,251.82,144,144,0,1,1,48.18,48.18,143,143,0,0,1,150,6m0-6A150,150,0,1,0,300,150,150,150,0,0,0,150,0Z"/><path d="M194.69,226.64h-.15c-1.2,0-2.33-.1-3.28-.19l-4.59-.42a2.53,2.53,0,0,1-1.94-1.24,2.49,2.49,0,0,1-.11-2.3l.48-1q.26-.57.57-1.17l.61-1.1-.15,0-.27,0-1.29-.2a2.86,2.86,0,0,1-.65-.19,9.25,9.25,0,0,1,.47,1.76c0,.11,0,.33.06.54s0,.24,0,.31v.27a4.49,4.49,0,0,1-.06.66,4.74,4.74,0,0,1-1.14,2.42l-.1.11a5.5,5.5,0,0,1-.53.45,3.72,3.72,0,0,1-.63.38,4.1,4.1,0,0,1-.64.27l-.52.15-.21,0-.11,0-.19,0-.5.08a27.15,27.15,0,0,1-3.11.14c-.94,0-1.91,0-2.88-.1l-.7-.05-1.43-.13-1.07-.14-1.53-.21a2.5,2.5,0,0,1-1.61-4l.5-.62.77-1,.2-.31-1,.11a2.5,2.5,0,0,1-2.6-3.38l.87-2.27c.08-.21.13-.35.17-.49l.2-.56.09-.27c.26-.82.47-1.53.64-2.21a39.32,39.32,0,0,0,.89-4.34,32,32,0,0,0,.38-4.14v-.37c0-.21,0-.41,0-.61v-.35l0-.54,0-.36a3.91,3.91,0,0,0-.05-.48l-.38-2c-.2-1-.39-2-.6-2.91-.29-1.35-.58-2.53-.89-3.62-.21-.75-.44-1.48-.68-2.19-.84.21-1.88.45-3.11.69a59,59,0,0,1-7.49.94,41.53,41.53,0,0,1-4.87,0,25.67,25.67,0,0,1-5.64-1l-.71-.22-.6-.22-.2-.08c-.36-.13-.75-.3-1.13-.48l-.32-.15c-.92-.45-1.8-.94-2.78-1.53l-.33-.2a16.16,16.16,0,0,0-4.12-2l-.12,0c-.19,0-.47-.1-.77-.15l-.47,0a5.65,5.65,0,0,0-.77,0h-.19c-.32,0-.67,0-1,0l-.92.1-.32,0-.33.06a7.29,7.29,0,0,0-2.08.72,10.4,10.4,0,0,0-2.08,1.56l-1,.88c-.18.17-.37.34-.55.49l-.84.61a2.37,2.37,0,0,1-2,.49,2.5,2.5,0,0,1-1.32-.7l-.54-.53-.44-.44c0-.05-.09-.11-.14-.17l-.1-.12a5.32,5.32,0,0,1-.4-.52,29.14,29.14,0,0,1-1.76,3.14,45,45,0,0,1-5.16,6.58c-.94,1-1.91,2-2.82,2.92l-.11.11c-.42.42-.83.85-1.23,1.27a15.7,15.7,0,0,0-1.06,1.19v0a.61.61,0,0,1,0,.14v.12a9.71,9.71,0,0,0,.62,2.27,18.81,18.81,0,0,0,2.6,4.5l.23.3.43.51.35.44c.34.46.67,1,1,1.56a30.88,30.88,0,0,1,1.58,3c.49,1,.9,2,1.27,3,.2.55.38,1.09.54,1.66l.14.53a6,6,0,0,1,.18,1.12,3.84,3.84,0,0,1-.18,1.58,3.63,3.63,0,0,1-.83,1.4,3.26,3.26,0,0,1-.39.36,4.12,4.12,0,0,1-.64.45l-.17.09-.24.13-.22.1a2.12,2.12,0,0,1-.35.15l-.28.1-.41.13a11.41,11.41,0,0,1-1.58.28,18.06,18.06,0,0,1-2.46.07c-.7,0-1.42-.08-2.2-.17-1.22-.13-2.37-.32-3.48-.5l-.18,0a2.5,2.5,0,0,1-1.62-3.94l.12-.16-.18,0a2.5,2.5,0,0,1-2.93-2.73,4.85,4.85,0,0,1,.11-.55l.66-3a15.33,15.33,0,0,0,.25-1.63,2.3,2.3,0,0,0,0-.28l-.1-.52a5.44,5.44,0,0,0-.42-1,15.14,15.14,0,0,0-1.71-2.42c-.29-.35-.58-.68-.88-1l-.22-.25-.52-.61-.31.7c-.43,1-.93,2.21-1.33,3.38-.07.21-.14.43-.19.64a5,5,0,0,0-.09.54,9.67,9.67,0,0,0,0,1.45,21.87,21.87,0,0,0,.52,3.44c.11.49.23,1,.35,1.49l.11.47c.1.41.18.78.26,1.19l0,.2s0,.09,0,.13l0,.21a5.32,5.32,0,0,1,0,.79,2.41,2.41,0,0,1,0,.57,3.09,3.09,0,0,1-.14.74v0a3.29,3.29,0,0,1-.16.44L93,224l-.12.21-.08.13A4.27,4.27,0,0,1,91,225.85l-.18.07-.35.13a1.71,1.71,0,0,1-.3.09l-.39.1-.53.09a11.85,11.85,0,0,1-1.45.11c-.77,0-1.53,0-2.49-.12-.78-.07-1.54-.16-2.3-.27l-1-.14L81,225.73l-2.07-.38a2.49,2.49,0,0,1-1.9-1.62,2.52,2.52,0,0,1,.44-2.46l.56-.64c.33-.38.65-.76.95-1.13.18-.21.3-.38.43-.55l.32-.44a6.93,6.93,0,0,0-.75-.2l-1.59-.39a2.52,2.52,0,0,1-1.79-1.66,2.47,2.47,0,0,1,.48-2.39l.45-.53.94-1.11c.22-.27.41-.5.59-.74l.32-.44c.38-.52.72-1,1.06-1.56a21.28,21.28,0,0,0,1.63-3.12,10.65,10.65,0,0,0,.79-2.93c.13-1.31.23-2.63.33-3.93l.2-2.76.06-.78a10.3,10.3,0,0,1-1.56,1.18,7.83,7.83,0,0,1-1.24.63,9,9,0,0,1-1,.32l-.13,0c-.58.15-1.12.27-1.6.36-3.21.62-4,.29-4.63-.21a2.55,2.55,0,0,1-1-1.76,2.51,2.51,0,0,1,.77-2.09l.06-.08h0s.06-.12.16-.35a12.39,12.39,0,0,0,.45-1.4q.12-.44.24-.9c.12-.49.26-1,.42-1.58.09-.32.2-.66.32-1l.16-.49a10.37,10.37,0,0,0,.26-1.2,11.86,11.86,0,0,0,.08-3c0-.56-.14-1.15-.25-1.74-.15-.75-.28-1.51-.41-2.3-.29-1.81-.52-3.43-.7-5-.1-.88-.19-1.78-.27-2.72a29.86,29.86,0,0,1-.09-3.12l0-.42c0-.19,0-.35.06-.5s0-.12,0-.14l0-.2a2.43,2.43,0,0,1,.06-.31l0-.18.09-.35c.1-.44.25-1,.46-1.59.08-.26.17-.52.25-.77a16.68,16.68,0,0,0,.52-1.71,3.67,3.67,0,0,0,.1-.83,6.2,6.2,0,0,0,0-1.1,16.51,16.51,0,0,0-.55-2.51c-.1-.39-.22-.77-.33-1.16-.2-.66-.4-1.33-.58-2-.07-.25-.14-.54-.2-.83,0,0,0-.12,0-.14l-.12-.69-.12-.73,0-.2L72,151.87v-.11a42.66,42.66,0,0,1,.45-7.52c.17-1.27.38-2.52.6-3.71s.49-2.45.78-3.71l.3-1.21c.05-.2.08-.29.11-.38l.37-1,.06-.17.31-.69a7.9,7.9,0,0,1,.44-.93l.12-.22c.13-.25.26-.5.41-.73l.56-.88.09-.14.6-.82c.16-.22.35-.44.54-.66l.19-.22a22,22,0,0,1,3.38-3.16,24.45,24.45,0,0,1,3.85-2.39,26.91,26.91,0,0,1,4.15-1.68,34.65,34.65,0,0,1,4.16-1,48.66,48.66,0,0,1,8-.69c1.28,0,2.53,0,3.77,0l2.19,0,1.51.05c2.49.12,4.82.44,7.19.78l1.69.25a79.1,79.1,0,0,0,10.53,1.1l1.32,0,1.26-.09,1.28-.17c.43-.08.93-.15,1.42-.22,1.76-.23,3.41-.39,5-.55l.45,0c3.2-.3,6.28-.6,8.95-1a42.32,42.32,0,0,0,6.3-1.38,17.21,17.21,0,0,0,3.34-1.43L158,117c.22-.14.45-.27.6-.38a4.07,4.07,0,0,1,.85-.44l.82-.43c1.48-.77,3.09-1.51,4.78-2.19.95-.39,1.9-.75,2.81-1.09l1.51-.57.85-.36.21-.1.06,0h0l.1-.08.07-.06c.19-.17.34-.29.48-.4s.55-.45.84-.67c1-.74,2-1.45,3.19-2.22.44-.28.88-.55,1.31-.8l-.11-.09a13.47,13.47,0,0,1-2-2,10.79,10.79,0,0,1-1-1.34q-.09-.14-.18-.3c0-.06-.11-.2-.13-.26a5.79,5.79,0,0,1-.25-.57,3.86,3.86,0,0,1-.17-2.39,1.63,1.63,0,0,1,.13-.39,4.39,4.39,0,0,1,.44-.78,2.43,2.43,0,0,1,.2-.25,5.15,5.15,0,0,1,.58-.57l.24-.2.12-.09.27-.19.11-.08c.41-.28.84-.53,1.28-.78l1.26-.66a14.47,14.47,0,0,1,1.55-.67l.43-.16a17.62,17.62,0,0,1-.9-1.57,16.14,16.14,0,0,1-1.53-4.42A11.77,11.77,0,0,1,177,84l.15-.48,0-.15c0-.05,0-.1.05-.15l.24-.58s0-.1.07-.14l.07-.14a4.73,4.73,0,0,1,.23-.45l.3-.52c.16-.29.38-.62.6-1l.08-.11c.14-.22.35-.5.56-.77l.18-.22a15.28,15.28,0,0,1,4.13-3.64l.17-.1c.16-.09.32-.19.48-.27l.86-.42.18-.08.86-.33c.23-.08.41-.14.6-.19l.36-.1A6.11,6.11,0,0,1,188,74l.66-.13.3,0H189l1.54-.08c.12,0,.33,0,.45,0l.91.09a9.61,9.61,0,0,1,1.52.21l2.25.43.3.07.11,0,.82.21a2.5,2.5,0,0,1,.37,4.74l-3.17,1.35-1.07.56-.93.77a10.36,10.36,0,0,0-1.32,1.66,6.48,6.48,0,0,0-1.2,3.57A4.61,4.61,0,0,0,191,90.13l.15-.07a11.94,11.94,0,0,1,2.09-.78,12.84,12.84,0,0,1,4.46-.43A12.36,12.36,0,0,1,202.05,90a10.2,10.2,0,0,1,2.34-.7c.34-.07.73-.11,1.11-.15h.25a10.95,10.95,0,0,1,3.78.48A10,10,0,0,1,212,90.75l.48.33.13.09.34-.17a5.1,5.1,0,0,0,.78-.56,3,3,0,0,0,.81-1.27l.12-.49,0-.13a1.72,1.72,0,0,0,0-.26l.07-.64v-.49a2.25,2.25,0,0,0,0-.26.76.76,0,0,0,0-.15,5.27,5.27,0,0,0-.46-2.1,6.29,6.29,0,0,0-1.34-1.82l-.1-.1-.7-.63-.23-.18-3.45-2.47-1-.69a2.5,2.5,0,0,1,1-4.52l2.55-.43a9.09,9.09,0,0,1,1.36-.16h.39a3.46,3.46,0,0,1,.52,0h.11l.41,0,.2,0,.59.09.43.07.71.17.5.13.68.22.39.13.28.1.22.09.64.27a18.76,18.76,0,0,1,2.32,1.27,16.14,16.14,0,0,1,4,3.61,14.13,14.13,0,0,1,2.49,4.91,13.77,13.77,0,0,1,.36,5.54,16.28,16.28,0,0,1-3.23,7.32,14.64,14.64,0,0,1,1.27.79,10.39,10.39,0,0,1,1.56,1.27,7.31,7.31,0,0,1,.9,1.09,5.4,5.4,0,0,1,.46.87,5.18,5.18,0,0,1,.33,1.33v0a5,5,0,0,1-.36,2.27,6.66,6.66,0,0,1-.7,1.26,12.84,12.84,0,0,1-1.27,1.47l-.57.54-.45.4-.15.13a16.36,16.36,0,0,1-2.83,1.88,16.75,16.75,0,0,1-3,1.2l-.28.08a.74.74,0,0,1,0,.14,12.49,12.49,0,0,1-.7,2c0,.22,0,.47,0,.73a59.66,59.66,0,0,1-1,7.49c-.58,3.1-1.44,6.67-2.57,10.61-.21.77-.44,1.57-.7,2.38a30.12,30.12,0,0,0-.14,4c0,1.69.15,3.83.37,6.74l.31,4.12c.05.76.09,1.52.12,2.32,0,.42,0,.86,0,1.32l0,.35c0,.37-.05.75-.1,1.12s-.12.83-.2,1.24l0,.13,0,.13,0,.13c-.11.42-.21.84-.35,1.24a16.17,16.17,0,0,1-1,2.5,35.9,35.9,0,0,1-2.32,3.9l-2.05,3.1c-.71,1.08-1.3,1.93-1.84,2.66a15.65,15.65,0,0,1,.32,3,21.57,21.57,0,0,1-1,6.24c-.42,1.52-1,3.11-1.61,4.8-.26.71-.52,1.45-.79,2.2-.37,1.08-.8,2.37-1.15,3.74l-.38,1.46-.21.81c-.21.74-.44,1.51-.68,2.28s-.46,1.5-.7,2.27c-.72,2.3-1.47,4.68-2,7.13a26.33,26.33,0,0,0-.62,4.71l0,.64a2,2,0,0,0,0,.23l0,.52a5.36,5.36,0,0,0,.06.77c0,.21,0,.36.06.51s.06.44.09.57l0,.11.21.94a13.58,13.58,0,0,0,1,2.08l.36.62c.37.65.79,1.38,1.18,2.21l.06.14a7.78,7.78,0,0,1,.71,2.45,4.83,4.83,0,0,1-.69,3.05,4.49,4.49,0,0,1-.6.76l-.1.09a5.12,5.12,0,0,1-.43.36l-.11.07a3.33,3.33,0,0,1-.71.42l-.2.09-.1.05a9,9,0,0,1-2.47.61C195.9,226.6,195.3,226.64,194.69,226.64ZM88.5,222.26Zm0,0h0Zm0,0Zm0-.18v0Zm21.63-.43Zm80.66-.26.95.1c.82.07,1.82.15,2.84.16a12.25,12.25,0,0,0,1.38-.07,4.48,4.48,0,0,0,1-.2,4.33,4.33,0,0,0-.29-.77c-.31-.67-.65-1.26-1-1.88l-.37-.67a17.33,17.33,0,0,1-1.36-2.84c0-.08-.06-.18-.08-.28s-.06-.2-.08-.28l-.2-.92a8.69,8.69,0,0,1-.21-1.22l0-.33a10.91,10.91,0,0,1-.12-1.34l0-.46c0-.19,0-.37,0-.57l0-.7a30.59,30.59,0,0,1,.74-5.65c.6-2.67,1.38-5.15,2.13-7.54.24-.76.47-1.5.69-2.24s.44-1.48.65-2.21c.07-.23.12-.45.18-.66l.38-1.46c.39-1.54.86-3,1.27-4.14.27-.78.54-1.53.81-2.26.58-1.6,1.12-3.11,1.51-4.47a16.5,16.5,0,0,0,.76-4.82,9.41,9.41,0,0,0-.4-2.77l0-.09a2.51,2.51,0,0,1,.42-2.33c.19-.23.37-.47.56-.72.52-.7,1.09-1.52,1.8-2.59l2-3.11a32.62,32.62,0,0,0,2-3.37,11.74,11.74,0,0,0,.74-1.82c.1-.31.17-.59.24-.88l0-.14c.05-.29.11-.57.14-.87,0,0,0-.07,0-.11,0-.24,0-.47.05-.71l0-.3c0-.28,0-.62,0-.95,0-.73-.07-1.43-.11-2.12l-.31-4.09c-.23-3-.35-5.25-.38-7a35.31,35.31,0,0,1,.21-5,1.88,1.88,0,0,1,.1-.47c.27-.83.5-1.64.72-2.42,1.08-3.8,1.91-7.23,2.47-10.18a54.78,54.78,0,0,0,.92-6.84c0-.4,0-.76,0-1.07a2.47,2.47,0,0,1,.25-1.07,8.27,8.27,0,0,0,.6-1.56c0-.11.06-.22.08-.33a1.1,1.1,0,0,0,0-.16l.05-.36v0a2.5,2.5,0,0,1,.87-2,2.64,2.64,0,0,1,1.45-.6H217a11.44,11.44,0,0,0,1.15-.28,10.27,10.27,0,0,0,2.08-.84,11.66,11.66,0,0,0,1.93-1.26l.14-.13.24-.21.49-.47a6.66,6.66,0,0,0,.71-.8l.13-.2a2.05,2.05,0,0,0-.2-.23,6.33,6.33,0,0,0-.85-.69,9.79,9.79,0,0,0-1-.62c-.39-.2-.78-.38-1.16-.53l-.59-.22-.12,0-.52-.17.58-2.29h0l-.69,2.26a2.54,2.54,0,0,1-1.83-2.06,2.47,2.47,0,0,1,1.12-2.48l.21-.12.73-.65a11.4,11.4,0,0,0,2-2.76,11.17,11.17,0,0,0,1.13-3.32,8.5,8.5,0,0,0-.25-3.45,9.8,9.8,0,0,0-.63-1.63,10.57,10.57,0,0,0-1-1.52A11.15,11.15,0,0,0,218,80.45c-.33-.21-.67-.41-1-.59a10.91,10.91,0,0,1,1.8,2.69,10.41,10.41,0,0,1,.92,4,7.85,7.85,0,0,1,0,.84v.33c0,.14,0,.28,0,.42l-.07.68a6.41,6.41,0,0,1-.12.87l-.06.33a2.68,2.68,0,0,1-.07.27l-.11.36a8,8,0,0,1-2.23,3.53,9.64,9.64,0,0,1-1.68,1.22,8.26,8.26,0,0,1-1.93.79l-.11,0a3.51,3.51,0,0,1-2.42-.18,8.17,8.17,0,0,1-1.36-.82l-.38-.27a4.92,4.92,0,0,0-1.18-.55,5.32,5.32,0,0,0-1.35-.25H206c-.22,0-.42,0-.63.08a5,5,0,0,0-1.3.39l-.15.06-.24.13-.06,0-.1.06a2.51,2.51,0,0,1-2.71.11l-.52-.3-.14-.09-.11,0a7.43,7.43,0,0,0-2.69-.71,8.07,8.07,0,0,0-2.77.27,7,7,0,0,0-1.28.49,4.11,4.11,0,0,0-.37.19l-.26.16-.25.17-.14.1a2.52,2.52,0,0,1-3,.11l-.22-.17-.17-.15-.26-.23c-.29-.25-.5-.46-.71-.67a9.62,9.62,0,0,1-3.26-6.34,11.44,11.44,0,0,1,2-6.53,16.18,16.18,0,0,1,1.61-2.1h0l-.21.06-.86.35-.53.26-.14.08-.22.13a10.45,10.45,0,0,0-2.72,2.4l-.19.25a3.15,3.15,0,0,0-.31.41l-.12.18c-.14.2-.27.39-.39.6l-.3.53-.09.18-.06.11c-.05.11-.09.23-.14.34l0,.11-.09.27a6.85,6.85,0,0,0-.09,3.11,11,11,0,0,0,1.06,3,13.33,13.33,0,0,0,1.74,2.61l.53.59.29.24a2.5,2.5,0,0,1-1.4,4.56h0l-1,.1a11.37,11.37,0,0,0-2.38.6,9.44,9.44,0,0,0-1,.45l-1.08.56-.52.3.25.32a8.36,8.36,0,0,0,1.28,1.25,7.27,7.27,0,0,0,2.33,1.3,4.57,4.57,0,0,0,.8.17,2.5,2.5,0,0,1,.45,4.86c-.23.08-.52.19-.87.34a33.2,33.2,0,0,0-4.31,2.36c-1.07.69-2,1.32-2.84,2-.25.18-.49.37-.73.57a3.63,3.63,0,0,0-.33.28l-1.74-1.81,1.64,1.89a6,6,0,0,1-.47.38,3.51,3.51,0,0,1-.42.27l-.19.11-.49.24-.54.24-.15.06-.4.16-1.6.61c-.87.32-1.77.66-2.68,1-1.55.63-3,1.3-4.36,2l-1,.51a2.48,2.48,0,0,1-.37.17l-.65.41-.24.14-.09.06a21.4,21.4,0,0,1-4.37,1.88,46.26,46.26,0,0,1-7.06,1.56c-2.79.43-6,.74-9.23,1l-.44,0c-1.54.15-3.15.3-4.81.53-.43.06-.88.12-1.34.2l-1.44.2h-.16l-1.4.1h-.14l-1.44,0a80,80,0,0,1-11.29-1.16l-1.68-.25a67.55,67.55,0,0,0-6.73-.72c-.49,0-.93,0-1.38-.05l-2.16,0c-1.17,0-2.37,0-3.58,0a46.06,46.06,0,0,0-7.22.62,30.41,30.41,0,0,0-3.56.85,22,22,0,0,0-3.37,1.36,20.08,20.08,0,0,0-3.07,1.9,17.69,17.69,0,0,0-2.6,2.42l-.21.25c-.1.12-.2.23-.29.35l-1,1.54c-.07.11-.15.26-.22.4l-.19.35a3.81,3.81,0,0,0-.22.47l-.71,2-.15.62c-.27,1.17-.52,2.35-.73,3.48s-.4,2.28-.57,3.46a39,39,0,0,0-.41,6.6l.2,1.8.09.52c.06.22.11.45.17.68.18.66.36,1.28.54,1.89l.36,1.22a20.84,20.84,0,0,1,.7,3.31,11.07,11.07,0,0,1,.08,1.8,8.21,8.21,0,0,1-.21,1.74,21.49,21.49,0,0,1-.67,2.27l-.24.71c-.13.41-.26.82-.36,1.25l-.15.78v.33a24.94,24.94,0,0,0,.08,2.53c.07.85.15,1.69.25,2.51.11,1,.25,2.06.42,3.17,0-.12.1-.36.15-.56.27-1,.52-2,.76-3.09.39-1.74.69-3.35.92-4.9a2.5,2.5,0,0,1,4.89-.29c.12.46.25.92.38,1.37l.29,1a51.08,51.08,0,0,1,1.4,5.67,72.14,72.14,0,0,1,.91,7.17c.1,1.42.14,2.68.11,3.84,0,.35,0,.68,0,1l0,.27c0,.24,0,.47-.07.73-.06.61-.11,1.24-.17,1.87-.13,1.64-.26,3.32-.38,5l-.2,2.77c-.11,1.35-.21,2.7-.34,4.05a15.58,15.58,0,0,1-1.15,4.34,25.57,25.57,0,0,1-2,3.9c-.35.55-.77,1.18-1.24,1.82l-.1.15h0l.41.18c.26.12.52.25.76.39a6.58,6.58,0,0,1,.8.56,3.73,3.73,0,0,1,.81.93h0a2.69,2.69,0,0,1,.28.71,2.38,2.38,0,0,1,.07.7,3.39,3.39,0,0,1-.06.5,3,3,0,0,1-.13.54,2.65,2.65,0,0,1-.19.52l0,.13a2,2,0,0,1-.1.21c-.1.21-.17.35-.25.49a10,10,0,0,1-.62,1,.46.46,0,0,1-.07.1c.6.08,1.21.15,1.82.21.79.07,1.41.09,2,.1l.62,0c-.05-.25-.11-.5-.17-.74l-.11-.48c-.13-.54-.26-1.06-.37-1.58a25.19,25.19,0,0,1-.63-4.27,13.75,13.75,0,0,1,.06-2.25,10.73,10.73,0,0,1,.19-1.11c.09-.38.2-.75.32-1.12.46-1.34,1-2.66,1.48-3.77l.79-1.8a7.58,7.58,0,0,0,.32-1.46,25.5,25.5,0,0,0,.15-2.88v-.72c0-.61,0-1.28.09-1.95,0-.08,0-.23,0-.38a6.15,6.15,0,0,1,.12-.71l.08-.37a3.68,3.68,0,0,1,.15-.56,11.47,11.47,0,0,1,2-3.65,24.35,24.35,0,0,1,2.56-2.66c.44-.41.88-.8,1.32-1.19L98,186.69c.38-.34.76-.7,1.13-1.06l.19-.2a2.5,2.5,0,0,1,4.15,2.52c-.36,1.1-.71,2.11-1.09,3.14s-1,2.5-1.71,4.11a26.14,26.14,0,0,1-1.29,2.42c-.15.26-.3.49-.45.7l-.08.11a4.41,4.41,0,0,1-.44.6l-.07.09-.38.46-.45.51a5.19,5.19,0,0,0-.67.89,1.57,1.57,0,0,0-.23.63,1.78,1.78,0,0,0,.15.8,5.51,5.51,0,0,0,.63,1.08c.31.43.67.85,1,1.2l.22.24,1,1.12a19.78,19.78,0,0,1,2.29,3.26,10.34,10.34,0,0,1,.84,2.1l.12.5a1.18,1.18,0,0,1,0,.2l0,.12c0,.12,0,.24,0,.35s0,.1,0,.15v.54c0,.24,0,.43,0,.63-.06.62-.16,1.28-.31,2.1h.28a5.62,5.62,0,0,1,1.39.22,4,4,0,0,1,.78.31,3,3,0,0,1,1,.81,3.11,3.11,0,0,1,.61,1.85,4.43,4.43,0,0,1-.33,1.6l-.1.23c.48.05.93.08,1.36.09a12,12,0,0,0,1.76,0A5.88,5.88,0,0,0,110,221h0c-.12-.42-.27-.84-.42-1.26-.32-.87-.68-1.73-1.1-2.64s-.89-1.78-1.34-2.54a13.12,13.12,0,0,0-.77-1.14l-.2-.27-.41-.49c-.12-.14-.24-.28-.35-.43a24.24,24.24,0,0,1-3.28-5.71,14.49,14.49,0,0,1-.92-3.33,6.25,6.25,0,0,1-.07-.72v-.12a.49.49,0,0,1,0-.12c0-.16,0-.31,0-.46v-.2c0-.05,0-.1,0-.15s0-.28.06-.38l0-.09a2.7,2.7,0,0,1,.17-.6c0-.09.08-.19.12-.28l.06-.11a7.1,7.1,0,0,1,.54-.84,21,21,0,0,1,1.43-1.64c.43-.45.86-.89,1.3-1.33L105,196c.89-.9,1.82-1.85,2.71-2.81a40.66,40.66,0,0,0,4.61-5.85,27,27,0,0,0,1.71-3.13l.22-.52.23-.55h0a2.6,2.6,0,0,1,2-1.66h.21l.19,0,.44,0,.37,0a6.94,6.94,0,0,1,2.28.32h0a2.63,2.63,0,0,1,.42.17l.11.06a2.63,2.63,0,0,1,.49.31,2.6,2.6,0,0,1,.28.24,4.83,4.83,0,0,1,.7.88l.23-.2a14.79,14.79,0,0,1,3.08-2.26,12.37,12.37,0,0,1,3.55-1.24l.31-.05a6,6,0,0,1,.61-.1l.78-.1h.13l.25,0c.43,0,.92-.06,1.41-.06a9.33,9.33,0,0,1,1.34,0l.33,0,.25,0,.29.05a11,11,0,0,1,1.36.28,20.62,20.62,0,0,1,5.42,2.54l.33.2c.87.52,1.64,1,2.36,1.3l.27.13c.26.12.51.24.78.34l.29.11.31.12.61.19a20.78,20.78,0,0,0,4.53.74,35.31,35.31,0,0,0,4.25,0,52.86,52.86,0,0,0,6.83-.85,40.45,40.45,0,0,0,4.16-1l.59-.19a2.5,2.5,0,0,1,3.14,1.42,44.8,44.8,0,0,1,1.65,4.83c.34,1.19.65,2.46,1,3.91.21,1,.41,2,.62,3l.41,2.2q.06.42.09.81l0,.34s0,.07,0,.1l0,.72,0,.38c0,.33,0,.56,0,.8v.4a38.24,38.24,0,0,1-.43,4.84,48.35,48.35,0,0,1-1,4.84c-.19.77-.42,1.56-.7,2.43,0,.12-.09.29-.15.45l-.07.2.06,0,.17.08.44.25a5.75,5.75,0,0,1,1.5,1.38,3.2,3.2,0,0,1,.33.51,4.37,4.37,0,0,1,.21.49,2.85,2.85,0,0,1,.14.5,2.07,2.07,0,0,1,.07.49,1.66,1.66,0,0,1,0,.36,6,6,0,0,1-.37,2l0,.05.38,0c.86.05,1.74.08,2.58.09a21.16,21.16,0,0,0,2.47-.1l.23,0a5.14,5.14,0,0,0-.28-.93,10.86,10.86,0,0,0-.45-1c-.33-.68-.68-1.32-1-1.94l-.12-.21L177,216a11.79,11.79,0,0,1-.56-1.23.42.42,0,0,1,0-.1,4,4,0,0,1-.21-.87l-.07-.4a5.87,5.87,0,0,1-.08-.72v-.1l0-.54v-.1a23.14,23.14,0,0,1,.45-4.87c.28-1.49.61-2.88,1-4.3l.26-1.06c.24-1,.47-1.9.67-2.82l0-.18c.11-.54.23-1.06.31-1.59.06-.3.1-.56.13-.82l0-.23c0-.22.06-.44.08-.64.11-1.11.24-2.17.36-3.18s.27-2.15.35-3.14a19.56,19.56,0,0,0,0-4.36,2.61,2.61,0,0,1,1.09-2.5,2.49,2.49,0,0,1,2.66-.12l.11.06a2.75,2.75,0,0,0,.52.17,7.18,7.18,0,0,0,2.26.07,9.23,9.23,0,0,0,1.53-.31l.34-.11.1,0,.1,0,.12-.05a2.5,2.5,0,0,1,4.1,1.68v0a4.56,4.56,0,0,1,0,.64c0,.16,0,.32,0,.47v.17c0,.12,0,.23,0,.34-.09,1.26-.25,2.5-.4,3.67-.11.84-.23,1.69-.36,2.58-.23,1.72-.48,3.49-.7,5.37-.18,1.6-.3,3-.37,4.37,0,.84,0,1.56,0,2.25,0,.35,0,.72,0,1.11,0,.17,0,.27,0,.38l0,.21,0,.44,0,.59a2.09,2.09,0,0,1,0,.25l0,.68a4.65,4.65,0,0,1-.05.57l0,.47,0,.15-.05.29a18.85,18.85,0,0,1-.62,2.61c-.23.78-.53,1.59-.93,2.58l-.29.65-.11.25.2.08.37.17.47.25a4.69,4.69,0,0,1,1.25,1h0l.11.15a2.55,2.55,0,0,1,.35.56,2.34,2.34,0,0,1,.22.55,2.51,2.51,0,0,1,.1.61,4.59,4.59,0,0,1-.23,1.66,9.58,9.58,0,0,1-.55,1.3C190.87,221.21,190.82,221.3,190.78,221.38Zm-11.32.12Zm0,0h0Zm17.66-.21Zm-17.29-.13h0Zm.08,0Zm-10.47-1.2h0Zm17.7-.4a1.58,1.58,0,0,0,.12.15l-.12-.15Zm.15.14Zm0,0ZM174,218.14h0Zm0,0v0Zm0,0Zm7.1-5.09c.09.22.2.45.32.69s.35.67.54,1l.11.21c.15.27.3.54.44.82a3,3,0,0,1,.2-.49l.81-1.52q.19-.36.36-.72l.29-.63.22-.51a20.64,20.64,0,0,0,.77-2.11,15.32,15.32,0,0,0,.48-2l.09-.69a1.11,1.11,0,0,1,0-.19v-.54l-.07-1c0-.2,0-.39,0-.58,0-.4,0-.85-.05-1.3,0-.81,0-1.62,0-2.58.08-1.46.21-3,.41-4.7.22-1.94.47-3.75.71-5.49.13-.88.24-1.72.35-2.54l.12-.91-.47.06a13.19,13.19,0,0,1-2.07.07c0,.67,0,1.36-.11,2.07-.09,1.06-.22,2.16-.37,3.33-.12,1-.24,2-.35,3,0,.25-.06.52-.09.79l0,.19c0,.34-.09.7-.16,1.07-.09.57-.22,1.18-.35,1.8l0,.19c-.22,1-.46,2-.71,3l-.26,1c-.32,1.35-.64,2.67-.89,4a18.64,18.64,0,0,0-.37,3.76l0,.73v0l.09.52Zm-.11-.65h0ZM105.5,203Zm0,0h0Zm0,0Zm0,0h0Zm0,0Zm0,0h0Zm0,0Zm0,0Zm0,0ZM72.2,194.29Zm7.06-8.37a15.76,15.76,0,0,1-.19,2.31,15,15,0,0,1-.42,1.87l-.19.6c-.09.27-.19.55-.26.8-.15.53-.27,1-.39,1.47a.84.84,0,0,1,0,.17h0a4.48,4.48,0,0,0,.5-.27,4.54,4.54,0,0,0,1-.85,3.08,3.08,0,0,0,.65-1.15,4.38,4.38,0,0,0,.13-1.7,9,9,0,0,0-.17-1c-.08-.35-.18-.74-.3-1.12S79.39,186.28,79.26,185.92Zm39.23.6h0Zm51.72-75h0Zm0,0Zm.52-.37-.23.14Zm43.85-1.08v.06h0ZM192.6,95h0ZM81.79,159.41a2.51,2.51,0,0,1-2.43-1.89c-.19-.75-.37-1.49-.51-2.21a20.22,20.22,0,0,1-.42-3.22v-.73c0-.21,0-.42,0-.62v-.17c0-.61.12-1.14.19-1.59a26.33,26.33,0,0,1,1.42-5.21c1.09-2.79,2-5.11,2.55-6.74a6.13,6.13,0,0,1,.89-1.57.39.39,0,0,0,.08-.1,2.52,2.52,0,0,1,3.19-.64,2.47,2.47,0,0,1,1.15,3l-.16.47c-.41,1.29-.81,2.75-1.16,4.29-.54,2.29-1,4.7-1.41,7.16-.43,2.73-.73,5.1-.92,7.47A2.49,2.49,0,0,1,82,159.4Z"/></svg>