<?xml version="1.0" encoding="utf-8"?>
<!-- Generator: Adobe Illustrator 16.0.0, SVG Export Plug-In . SVG Version: 6.00 Build 0)  -->
<!DOCTYPE svg PUBLIC "-//W3C//DTD SVG 1.1//EN" "http://www.w3.org/Graphics/SVG/1.1/DTD/svg11.dtd">
<svg version="1.1" xmlns="http://www.w3.org/2000/svg" xmlns:xlink="http://www.w3.org/1999/xlink" x="0px" y="0px" width="100px"
	 height="100px" viewBox="0 0 100 100" enable-background="new 0 0 100 100" xml:space="preserve">
<g id="Calque_2">
</g>
<g id="Calque_1">
	<path d="M85.78,22.693c-8.772-2.868-20.6-5.641-32.451-7.609c-12.631-2.099-25.285-3.303-34.717-3.303
		c-12.608,0-14.412,2.082-14.672,3.647c-0.011,0.069-0.024,0.146-0.034,0.23c-0.352,2.203-0.47,4.036-0.578,5.805
		c-0.237,3.882-0.425,6.948-3.066,12.022c-0.046,0.089-0.076,0.184-0.094,0.279c-1.089,3.123,3.356,12.92,6.173,18.606
		c5.911,11.931,16.771,29.961,22.702,31.256c1.288,1.509,4.752,2.739,10.37,3.669c0.892,0.147,5.763,0.922,9.867,0.922
		c1.738,0,3.321-0.147,4.424-0.531c0.083,0.039,0.164,0.083,0.259,0.099c0.201,0.033,0.413,0.05,0.637,0.05
		c6.365-0.002,21.935-13.143,31.16-22.3c4.495-4.462,11.854-12.282,11.83-15.585c0.014-0.096,0.017-0.194,0.001-0.293
		c-0.858-5.66-0.044-8.619,0.987-12.368c0.486-1.77,0.989-3.599,1.373-5.909C100.126,30.329,100.591,27.535,85.78,22.693z
		 M95.386,48.172c-4.856-1.843-10.489-1.268-16.412,1.702c-3.284,1.646-6.447,3.927-9.378,6.642
		c-2.292-3.367-6.949-11.057-6.496-17.238c7.665,0.887,15.157,1.42,21.287,1.42c4.938,0,8.987-0.347,11.535-1.133
		C95.354,42.008,95.02,44.575,95.386,48.172z M96.649,36.76c-0.038,0.136-0.073,0.269-0.11,0.403
		c-3.822,2.299-23.035,2.162-46.587-1.754c-4.309-0.716-8.435-1.505-12.327-2.336c0,0-0.001-0.001-0.002-0.001c0,0-0.001,0-0.001,0
		C20.25,29.359,7.65,24.789,5.298,22.004c0.009-0.14,0.018-0.277,0.027-0.418c0.062-0.997,0.129-2.021,0.236-3.11
		c1.769,1.42,5.353,3.289,12.55,5.642c8.771,2.867,20.6,5.642,32.452,7.61c12.629,2.099,25.282,3.301,34.713,3.301
		c6.509,0,10.135-0.555,12.16-1.307C97.185,34.794,96.916,35.791,96.649,36.76z M18.612,13.782c9.327,0,21.861,1.193,34.39,3.275
		c11.755,1.952,23.476,4.699,32.157,7.538c12.776,4.177,12.823,6.42,12.819,6.457c0,0.001,0,0.001,0,0.002
		c-0.01,0.038-0.721,1.974-12.701,1.974c-9.327,0-21.859-1.193-34.385-3.273c-11.758-1.954-23.479-4.701-32.159-7.539
		C5.915,18.025,5.91,15.778,5.914,15.757C5.917,15.736,6.578,13.782,18.612,13.782z M5.106,24.473
		c4.831,3.511,17.534,7.382,31.15,10.345c-1.57,5.989-8.462,11.765-11.719,14.213c-1.896-3.518-4.151-6.696-6.726-9.316
		c-4.646-4.727-9.788-7.083-14.981-6.921C4.34,29.508,4.854,26.969,5.106,24.473z M8.134,51.483
		c-4.8-9.687-6.279-14.945-6.19-16.614c6.207-0.631,11.257,3.008,14.441,6.247c9.087,9.245,14.261,26.425,12.185,40.212
		C24.231,78.986,15.472,66.292,8.134,51.483z M32.89,83.654c-2.22-0.827-2.417-1.423-2.422-1.423
		c1.691-10.167-0.344-21.861-4.997-31.399c3.806-2.814,11.042-8.919,12.743-15.596c3.809,0.799,7.662,1.524,11.409,2.146
		c3.748,0.623,7.628,1.183,11.491,1.657c-0.545,7.01,4.671,15.473,7.014,18.876c-7.434,7.466-13.113,17.781-14.848,27.882
		C51.421,86.781,38.968,85.918,32.89,83.654z M84.351,64.116C72.607,75.773,60.194,84.948,55.333,85.773
		c2.497-13.719,12.95-28.302,24.538-34.111c4.059-2.034,10.015-3.841,15.683-1.238C95.098,52.029,92.004,56.52,84.351,64.116z"/>
</g>
</svg>
