<svg id="Calque_1" data-name="Calque 1" xmlns="http://www.w3.org/2000/svg" viewBox="0 0 300 300"><defs><style>.cls-1{fill:#1d1d1b;}</style></defs><title>picto_france</title><path class="cls-1" d="M150,6A144,144,0,0,1,251.82,251.82,144,144,0,1,1,48.18,48.18,143,143,0,0,1,150,6m0-6A150,150,0,1,0,300,150,150,150,0,0,0,150,0Z"/><path class="cls-1" d="M150.17,237.75a16.4,16.4,0,0,1-6.56-1.72c-.54-.23-1.06-.46-1.39-.56-5.63-1.7-9.13-2.54-12.85-3.43-5.21-1.25-11.12-2.67-24.17-6.72l-.18-.07c-.58-.23-14.15-5.71-21.59-15.47a8.86,8.86,0,0,1-2.1-5.79c0-3.35,2-5.44,3.75-7.29a15.21,15.21,0,0,0,3.24-4.35c1-2.25,1.21-4.85,1.48-11.15.79-18.68,5.4-19.31,6.92-19.51a2.92,2.92,0,0,1,1.26.08A120.13,120.13,0,0,0,92,149.71c-14.23-25.13-27.12-33.54-32-36-.08,0-8-4.51-9.3-7.08-1.13-2.26-.19-4.65.87-6.69,1.86-3.56,4-7.6,8.37-9.68,2.67-1.25,4.54-1,7.63-.68A88.85,88.85,0,0,0,78,90.26c4.76,0,5.5-.28,6-.71.24-.21.46-.39.68-.56.54-.42,1.09-.85,2.41-5.89l.38-1.44c.81-3.16,1.22-4.75,3-5.78,3.17-1.83,7.38-.87,8.74-.34A16,16,0,0,1,104.43,79a7.64,7.64,0,0,0,2.89,1.92c1.28.38,2.56.27,4.66-1.54a9.47,9.47,0,0,0,1.83-2.52,12.3,12.3,0,0,1,3.82-4.54l1.17-.8a15.76,15.76,0,0,1,4.47-2.36l.93-.37c5.38-2.11,11.92-7,14.39-13,.32-.78.6-1.63.86-2.46.87-2.69,1.84-5.73,4.78-6.07a4.29,4.29,0,0,1,3.18,1,6.21,6.21,0,0,0,.56.38c.87.48,1.87.14,3.93-.73a12.36,12.36,0,0,1,5.91-1.37h0c3.39.28,4.38,1.75,13.82,15.76,4,5.86,5.49,6.89,7.26,8.07l1.29.9,1.28,1c2.35,1.79,3.53,2.68,8.5,3.55.93.17,8.68,1.37,10.1,1.53a17,17,0,0,1,10.08,5.38,10.88,10.88,0,0,1,2.09,2.74,1.28,1.28,0,0,0,.14.23h0a.85.85,0,0,0,.19.17c1.24.92,2.67.77,4.9.45s5-.72,7.39,1.21c2.54,2.1,2.62,5.33,2.71,9.08.11,4.56-1,7.76-2.63,12.19s-3.21,8.93-7.4,12.92c-.36.4-1.6,2.43-2.42,3.78a37.69,37.69,0,0,1-2.93,4.45,87.51,87.51,0,0,0-4.3,9.42,6.67,6.67,0,0,1,3.64.65c4.06,2.26,6.71,10.18,9.47,28.24a37.23,37.23,0,0,0,1.15,4.73c.42,1.42.89,3,1.3,4.93l.57,2.62c.62,2.9.93,4.36,1.89,8a15.52,15.52,0,0,0,2.07,4.91,9.18,9.18,0,0,1,1.6,4.25c1,8.75-9.08,15.84-19,21.62-7.4,4.28-15.17,1-18.9-.63-.53-.23-1.19-.51-1.4-.56a25.29,25.29,0,0,1-5.47-1.72,12.48,12.48,0,0,0-4.45-1.06c-2.17-.28-8.76-1.11-12.7,2.33a5.82,5.82,0,0,0-1.73,2.79,44.62,44.62,0,0,1-3.65,7.23c-2.94,4.83-5.06,8.32-9,9.65A9.46,9.46,0,0,1,150.17,237.75Zm-43.38-17.18c12.81,4,18.62,5.38,23.75,6.61,3.78.91,7.36,1.77,13.12,3.51a18.63,18.63,0,0,1,1.94.75c1.79.78,4,1.75,6,1.08s3.55-2.94,6.33-7.51a40.19,40.19,0,0,0,3.29-6.51,10.43,10.43,0,0,1,3.07-4.67c5.63-4.93,13.9-3.88,16.62-3.53a17.46,17.46,0,0,1,5.85,1.45,20.45,20.45,0,0,0,4.53,1.41,14.28,14.28,0,0,1,2.28.84c3.21,1.37,9.2,3.93,14.42.9,4.75-2.75,17.34-10.05,16.59-16.74a4.49,4.49,0,0,0-.88-2.17,20.49,20.49,0,0,1-2.66-6.26c-1-3.75-1.32-5.34-1.94-8.22l-.57-2.6c-.37-1.73-.8-3.19-1.21-4.61a40.69,40.69,0,0,1-1.3-5.36c-3-19.74-5.64-23.9-6.95-24.62a9.05,9.05,0,0,0-3.93.64,2.49,2.49,0,0,1-3.34-2.61c0-.44.62-4.62,6.09-15.11a2.62,2.62,0,0,1,.54-.7c.41-.47,1.6-2.42,2.39-3.72a27.69,27.69,0,0,1,3.25-4.8c3.33-3.17,4.63-6.8,6.13-11,1.6-4.44,2.42-6.92,2.34-10.38-.06-2.63-.11-4.7-.9-5.35-.59-.48-1.71-.36-3.49-.11-2.38.34-5.64.81-8.59-1.39a5.48,5.48,0,0,1-1.74-2,5.92,5.92,0,0,0-1.25-1.61c-1.05-1-3.49-3.52-7.1-3.93-1.62-.19-9.49-1.41-10.4-1.57-5.87-1-7.78-2.32-10.65-4.49-.38-.29-.78-.6-1.22-.92s-.76-.53-1.12-.77c-2.11-1.42-4.11-2.76-8.61-9.44-6.47-9.59-9.13-13.49-10.09-13.57h0a8.51,8.51,0,0,0-3.55,1c-2.31,1-5.19,2.19-8.27.51a6.53,6.53,0,0,1-.61-.37c-.26.63-.55,1.51-.76,2.17-.28.87-.6,1.86-1,2.82C140,65.56,131.94,71.1,126,73.43l-.94.37a11.45,11.45,0,0,0-3.48,1.84l-1.19.8a7.93,7.93,0,0,0-2.28,2.88,13.55,13.55,0,0,1-2.9,3.83c-1.13,1-4.59,4-9.35,2.54a12,12,0,0,1-4.79-3,11.45,11.45,0,0,0-3.73-2.5,7,7,0,0,0-4.3-.06,23.4,23.4,0,0,0-.8,2.77l-.38,1.46c-1.58,6-2.53,7.29-4.19,8.57-.12.1-.25.19-.38.32-1.94,1.75-4.14,2-9.38,2a93.14,93.14,0,0,1-10.9-.7c-2.87-.33-3.6-.39-4.93.24-2.89,1.35-4.36,4.18-6.06,7.46a6,6,0,0,0-.82,2.12,51.29,51.29,0,0,0,7.08,4.89c6.54,3.28,19.71,12.6,34.08,38,5.72,10.11,11,23.5,10.17,26.05a2.6,2.6,0,0,1-1.3,1.55,2.56,2.56,0,0,1-2.26,0,2.64,2.64,0,0,1-1.42-2c-.06-.29-.23-1.2-1.85-2.71-.86-.8-1.6-1.65-2.26-2.39l-.36-.41c-.92,1.89-2,6.65-2.32,14-.27,6.52-.47,9.79-1.91,13a20.11,20.11,0,0,1-4.18,5.75c-1.55,1.63-2.36,2.55-2.37,3.83a4,4,0,0,0,1.07,2.77C93.74,215.05,105.68,220.12,106.79,220.57Zm101.76-94.11-.07.05Z"/><path class="cls-1" d="M235.78,247a4.52,4.52,0,0,1-2.55-.95c-.26-.17-.59-.39-1-.62a5,5,0,0,0-1.37-.56,5.36,5.36,0,0,1-2.11-1c-1-.76-1.66-1.87-3-4.08-.32-.53-.54-.92-.72-1.23a3.78,3.78,0,0,0-.57-.86,4.14,4.14,0,0,0-1.16-.88,10.36,10.36,0,0,1-.94-.58c-3.23-2.34-3.53-6.59-3.73-9.41a5.3,5.3,0,0,1,0-1.31c.07-.63.22-1.93.51-5.5a16.24,16.24,0,0,1,1.08-5.13l.15-.38a6.62,6.62,0,0,1,1.59-2.66,6,6,0,0,1,4.33-1.43,18,18,0,0,0,2.37-.22,20.35,20.35,0,0,0,2.63-.55,12.06,12.06,0,0,0-.16-1.35c-.22-1.33-.59-3.56,1.23-5a4.51,4.51,0,0,1,.77-.5,2.87,2.87,0,0,1,1.67-2.22s2.15-.8,3.42.71h0c1,1.16,1.31,2.94,1.67,5.16.06.4.11.74.16.94a7.07,7.07,0,0,0,.35,1.06,1.1,1.1,0,0,1,.27.08,5.38,5.38,0,0,1,1.3.69c2,1.53,2.23,4.27.82,10.87-.38,1.79-.68,2.91-.9,3.72a11.51,11.51,0,0,0-.51,2.81,42,42,0,0,0,0,4.78c0,.45,0,.86.07,1.23a27.28,27.28,0,0,1,0,3.78,26.44,26.44,0,0,1-.37,3.08,13.51,13.51,0,0,1-1.29,4.41c-.59,1.06-1.47,2.68-3.41,3.05A3.37,3.37,0,0,1,235.78,247Zm.36-36a4.64,4.64,0,0,1-.65,1.49c-1.22,1.86-3.2,2.2-5.94,2.67a23.26,23.26,0,0,1-3,.28,6.3,6.3,0,0,0-1.12.1c0,.07-.2.48-.34.84l-.16.41a11,11,0,0,0-.73,3.63c-.3,3.7-.46,5.06-.54,5.71a2.5,2.5,0,0,0,0,.32v.06c.14,1.88.34,4.74,1.68,5.7a5.19,5.19,0,0,0,.5.31,8.83,8.83,0,0,1,2.37,1.84,8.37,8.37,0,0,1,1.21,1.74c.16.29.37.65.66,1.14a22,22,0,0,0,1.75,2.69l.11.07a1.16,1.16,0,0,0,.22.06,9.77,9.77,0,0,1,2.5,1c.33.18.61.35.86.5,0,0,0,0,0-.08a9.33,9.33,0,0,0,.74-2.81,23.9,23.9,0,0,0,.31-2.56,22.06,22.06,0,0,0,0-3.17c0-.4,0-.82-.07-1.3a49.81,49.81,0,0,1,0-5.36,16.74,16.74,0,0,1,.67-3.77c.22-.8.49-1.81.84-3.47a23.08,23.08,0,0,0,.78-5.92,5.14,5.14,0,0,1-2.17-1.54A4.86,4.86,0,0,1,236.14,211Z"/></svg>