<?xml version="1.0" encoding="utf-8"?>
<!-- Generator: Adobe Illustrator 16.0.0, SVG Export Plug-In . SVG Version: 6.00 Build 0)  -->
<!DOCTYPE svg PUBLIC "-//W3C//DTD SVG 1.1//EN" "http://www.w3.org/Graphics/SVG/1.1/DTD/svg11.dtd">
<svg version="1.1" xmlns="http://www.w3.org/2000/svg" xmlns:xlink="http://www.w3.org/1999/xlink" x="0px" y="0px" width="100px"
	 height="100px" viewBox="0 0 100 100" enable-background="new 0 0 100 100" xml:space="preserve">
<g id="Calque_2">
</g>
<g id="Calque_1">
	<path d="M99.994,84.865c-0.001-0.011,0.005-0.02,0.004-0.031L95.688,15.11c-0.002-0.025-0.016-0.046-0.019-0.071
		c-0.445-5.637-28.74-6.486-45.668-6.486c-17.063,0-45.688,0.86-45.688,6.619c0,0.009,0.003,0.019,0.003,0.028
		c0,0.002-0.001,0.004-0.001,0.006L0.003,84.834c-0.001,0.01,0.004,0.019,0.004,0.028C0.006,84.874,0,84.884,0,84.896
		c0,3,13.02,6.551,24.02,6.551c9.599,0,19.518-1.819,20.108-4.882l5.873-12.019l5.888,12.047c0.727,2.917,11.374,4.854,21.344,4.854
		c10.639,0,22.768-3.49,22.768-6.551C100,84.885,99.994,84.876,99.994,84.865z M50.001,32.012c-29.921,0-43.975-5.348-44.266-7.374
		c0-0.001-0.001-0.003-0.001-0.005L6.163,17.7c5.3,3.635,21.598,6.845,43.838,6.845c22.248,0,38.55-3.212,43.843-6.849l0.428,6.913
		c-0.001,0.008-0.005,0.015-0.005,0.022C93.976,26.665,79.922,32.012,50.001,32.012z M16.066,19.368
		c7.925-1.125,16.785-1.921,33.936-1.921c17.138,0,25.996,0.796,33.921,1.921c-7.164,1.698-18.362,3.178-33.922,3.178
		C34.433,22.545,23.23,21.064,16.066,19.368z M50.001,10.553c34.625,0,43.36,3.432,43.688,4.613
		c-0.092,0.694-1.767,1.774-5.106,2.896c-0.023-0.005-0.042-0.021-0.066-0.024c-9.343-1.467-18.11-2.59-38.515-2.59
		c-20.421,0-29.189,1.123-38.531,2.591c-0.024,0.004-0.043,0.019-0.066,0.025c-3.33-1.117-5.002-2.19-5.094-2.876
		C6.641,13.984,15.376,10.553,50.001,10.553z M24.02,89.447c-11.213,0-20.836-3.42-22.007-4.721l3.566-57.582
		c5.33,3.645,21.854,6.868,44.422,6.868c1.999,0,3.944-0.028,5.845-0.077V64.91c0.002,1.441,0.004,3.619-1.334,4.958
		c-0.929,0.93-2.447,1.402-4.511,1.402c-0.294,0-0.551,0.131-0.734,0.333c-0.065,0.065-0.121,0.141-0.164,0.229l-6.845,14.006
		c-0.015,0.031-0.014,0.065-0.025,0.097c-0.028,0.076-0.062,0.15-0.07,0.233C41.516,87.134,35.368,89.447,24.02,89.447z
		 M57.833,86.119c-0.01-0.063-0.04-0.118-0.062-0.176c-0.013-0.035-0.011-0.072-0.027-0.106l-6.188-12.662
		c1.859-0.221,3.33-0.851,4.371-1.894c1.924-1.925,1.921-4.709,1.919-6.373V33.876c18.528-0.645,31.895-3.526,36.582-6.735
		l3.562,57.616c-0.955,1.213-9.553,4.69-20.757,4.69C65.485,89.447,58.625,87.08,57.833,86.119z M49.59,44.53
		c-0.189-0.19-0.29-0.44-0.29-0.71c0-0.26,0.101-0.52,0.29-0.7c0.37-0.38,1.04-0.38,1.41,0c0.189,0.18,0.3,0.44,0.3,0.7
		c0,0.27-0.11,0.52-0.3,0.71c-0.18,0.19-0.439,0.29-0.7,0.29C50.03,44.82,49.771,44.72,49.59,44.53z M49.59,53.35
		c-0.189-0.19-0.29-0.45-0.29-0.71c0-0.26,0.101-0.52,0.29-0.71c0.37-0.37,1.04-0.37,1.41,0c0.189,0.19,0.3,0.45,0.3,0.71
		c0,0.26-0.11,0.52-0.3,0.71c-0.189,0.18-0.439,0.29-0.7,0.29C50.03,53.64,49.78,53.53,49.59,53.35z M49.59,62.16
		c-0.189-0.18-0.29-0.44-0.29-0.7c0-0.27,0.101-0.52,0.29-0.71c0.37-0.37,1.04-0.37,1.41,0c0.189,0.19,0.3,0.44,0.3,0.71
		c0,0.26-0.11,0.52-0.3,0.7c-0.18,0.19-0.439,0.3-0.7,0.3C50.03,62.46,49.771,62.35,49.59,62.16z"/>
</g>
</svg>
