<?xml version="1.0" encoding="utf-8"?>
<!-- Generator: Adobe Illustrator 16.0.0, SVG Export Plug-In . SVG Version: 6.00 Build 0)  -->
<!DOCTYPE svg PUBLIC "-//W3C//DTD SVG 1.1//EN" "http://www.w3.org/Graphics/SVG/1.1/DTD/svg11.dtd">
<svg version="1.1" xmlns="http://www.w3.org/2000/svg" xmlns:xlink="http://www.w3.org/1999/xlink" x="0px" y="0px" width="100px"
	 height="100px" viewBox="0 0 100 100" enable-background="new 0 0 100 100" xml:space="preserve">
<g id="Calque_1">
</g>
<g id="Calque_2">
	<path d="M72.439,51.219c0-7.616,0.905-13.032,1.704-17.811c0.615-3.674,1.145-6.847,1.145-10.271c0-5.323-2.229-6.803-4.038-7.132
		c-0.39-2.46-2.316-4.41-4.765-4.831V2.076c0-1.05-0.69-1.568-1.813-1.825c-0.023-0.006-0.052-0.01-0.077-0.015
		c-0.12-0.026-0.242-0.05-0.372-0.07c-0.038-0.006-0.071-0.015-0.111-0.021c-0.055-0.008-0.118-0.011-0.174-0.018
		c-0.141-0.018-0.285-0.033-0.434-0.045c-0.155-0.014-0.316-0.025-0.482-0.035c-0.13-0.007-0.263-0.014-0.398-0.019
		c-0.153-0.006-0.312-0.011-0.473-0.015c-0.181-0.004-0.363-0.007-0.55-0.009c-0.223-0.002-0.456-0.003-0.692-0.003
		c-0.171,0-0.344,0-0.519,0h-0.336c-0.677,0-1.324,0.001-1.929,0.017c-0.071,0.002-0.142,0.005-0.211,0.007
		c-0.198,0.006-0.391,0.016-0.577,0.027C57.21,0.06,57.086,0.069,56.965,0.08c-0.156,0.013-0.308,0.029-0.453,0.047
		c-0.057,0.007-0.121,0.011-0.176,0.019c-0.033,0.005-0.058,0.013-0.09,0.018c-1.272,0.198-2.117,0.641-2.255,1.621
		c-0.016,0.096-0.023,0.19-0.023,0.282c0,0.003-0.001,0.006-0.001,0.009l-0.011,9.098c-2.451,0.421-4.379,2.371-4.769,4.833
		c-1.809,0.33-4.036,1.812-4.036,7.131c0,3.424,0.53,6.597,1.145,10.271c0.8,4.778,1.705,10.195,1.705,17.811
		c0,6.124-0.599,9.57-1.232,13.219c-0.34,1.957-0.689,3.974-0.978,6.502c-1.927-0.57-3.967-0.733-6.018-0.43l-11.835,1.752h-0.002
		c-3.304,0.492-3.747,7.897-2.762,14.569C26.132,93.281,28.563,100,31.71,100c0.108,0,0.219-0.008,0.329-0.024l11.836-1.75
		c4.993-0.74,8.971-4.052,10.822-8.385c1.645,0.177,3.489,0.272,5.522,0.273c9.994,0,15.061-2.072,15.061-6.158
		c0-10.373-0.857-15.282-1.614-19.614C73.035,60.733,72.439,57.325,72.439,51.219z M55.964,4.324
		c1.188,0.487,2.752,0.719,4.259,0.719c1.51,0,3.077-0.233,4.267-0.721l0.013,7.443c-0.164,0.309-1.629,1.051-4.279,1.051
		c-2.653,0-4.119-0.742-4.268-0.965L55.964,4.324z M60.308,2h0.066c0.189,0,0.388,0,0.589,0c0.011,0,0.021,0,0.032,0
		c0.189,0,0.383,0.002,0.576,0.004c0.043,0,0.086,0.001,0.129,0.002c0.156,0.002,0.313,0.004,0.466,0.008
		c0.113,0.002,0.224,0.007,0.335,0.011c0.083,0.003,0.167,0.005,0.247,0.009c0.146,0.006,0.286,0.015,0.424,0.024
		c0.041,0.002,0.085,0.004,0.124,0.007c0.141,0.011,0.269,0.024,0.394,0.038c0.032,0.003,0.068,0.006,0.1,0.01
		c0.111,0.014,0.206,0.031,0.301,0.049c0.034,0.006,0.075,0.012,0.106,0.019c0.026,0.006,0.042,0.014,0.067,0.02
		c-0.523,0.35-1.881,0.84-4.041,0.84c-2.236,0-3.615-0.526-4.081-0.827c0.039-0.011,0.068-0.024,0.113-0.034
		c0.033-0.007,0.077-0.013,0.113-0.02c0.093-0.017,0.185-0.034,0.294-0.048c0.032-0.004,0.071-0.007,0.106-0.011
		c0.122-0.014,0.247-0.027,0.384-0.037c0.046-0.003,0.098-0.006,0.146-0.009c0.131-0.008,0.264-0.017,0.402-0.023
		c0.084-0.004,0.172-0.006,0.258-0.009c0.107-0.003,0.214-0.008,0.323-0.01c0.156-0.004,0.314-0.006,0.473-0.008
		c0.04,0,0.081-0.001,0.122-0.002c0.194-0.002,0.388-0.003,0.578-0.004c0.01,0,0.02,0,0.029,0c0.201,0,0.398,0,0.588,0h0.066H60.308
		z M54.476,13.13c1.035,1.149,3.456,1.686,5.747,1.686c2.29,0,4.708-0.536,5.742-1.686c1.891,0.235,3.364,1.835,3.364,3.79
		c0,0.392-1.584,2.381-9.109,2.381s-9.108-1.99-9.108-2.381c0-0.003-0.002-0.006-0.002-0.01
		C51.114,14.959,52.587,13.364,54.476,13.13z M27.153,86.538c-1.158-7.836,0.23-12.172,1.078-12.298
		c0.098-0.017,0.253,0.055,0.426,0.183c1.394,1.033,3.271,5.239,4.163,11.278c0.496,3.344,0.577,6.531,0.229,8.976
		c-0.372,2.608-1.083,3.289-1.303,3.321C30.93,98.116,28.314,94.375,27.153,86.538z M43.582,96.247l-9.203,1.361
		c0.266-0.683,0.492-1.546,0.649-2.649c0.376-2.629,0.294-6.022-0.229-9.55c-0.752-5.093-2.236-9.376-3.936-11.558l9.203-1.362
		c3.175-0.472,6.338,0.323,8.915,2.234c2.576,1.912,4.254,4.712,4.724,7.885C54.673,89.157,50.132,95.276,43.582,96.247z
		 M60.22,88.113c-1.768,0-3.388-0.073-4.843-0.21c0.466-1.772,0.591-3.664,0.307-5.588c-0.549-3.701-2.505-6.968-5.511-9.198
		c-0.774-0.574-1.595-1.059-2.448-1.457c0.291-2.705,0.658-4.828,1.015-6.879c0.648-3.736,1.262-7.265,1.262-13.561
		c0-7.782-0.92-13.285-1.732-18.14c-0.6-3.586-1.117-6.684-1.117-9.941c0-3.022,0.76-4.742,2.258-5.131
		c0.707,1.335,3.062,3.294,10.811,3.294s10.104-1.959,10.812-3.294c1.498,0.389,2.258,2.109,2.258,5.131
		c0,3.258-0.518,6.355-1.117,9.941c-0.813,4.855-1.732,10.358-1.732,18.14c0,6.28,0.61,9.771,1.257,13.467
		c0.743,4.251,1.585,9.07,1.585,19.27C73.281,86.598,68.521,88.113,60.22,88.113z M59.635,6.695v2.794c0,0.552-0.447,1-1,1
		s-1-0.448-1-1V6.695c0-0.552,0.447-1,1-1S59.635,6.143,59.635,6.695z"/>
</g>
</svg>
