<?xml version="1.0" encoding="utf-8"?>
<!-- Generator: Adobe Illustrator 16.0.0, SVG Export Plug-In . SVG Version: 6.00 Build 0)  -->
<!DOCTYPE svg PUBLIC "-//W3C//DTD SVG 1.1//EN" "http://www.w3.org/Graphics/SVG/1.1/DTD/svg11.dtd">
<svg version="1.1" xmlns="http://www.w3.org/2000/svg" xmlns:xlink="http://www.w3.org/1999/xlink" x="0px" y="0px" width="100px"
	 height="100px" viewBox="0 0 100 100" enable-background="new 0 0 100 100" xml:space="preserve">
<g id="Titres">
</g>
<g id="Calque_1">
	<path d="M49.611,33.671c0.182,0.522-0.095,1.092-0.616,1.273c-5.573,1.935-18.503,8.433-29.468,17.631
		c-0.188,0.157-0.415,0.234-0.642,0.234c-0.286,0-0.569-0.122-0.767-0.357c-0.355-0.423-0.3-1.054,0.123-1.409
		c11.17-9.371,24.389-16.007,30.097-17.989C48.861,32.872,49.43,33.15,49.611,33.671z M100.001,14.188
		c-0.026,1.805-0.754,3.492-2.048,4.75c-1.273,1.235-2.956,1.912-4.707,1.912c-0.243,0-0.486-0.014-0.73-0.04
		c-0.031-0.002-0.06,0.008-0.09,0.002c-0.257-0.044-0.488-0.101-0.708-0.16c-0.411-0.097-0.811-0.226-1.194-0.396
		c-1.681-0.615-2.817-0.747-13.03,9.155c1.081,5.6-1.133,14.495-6.472,25.5c-6.866,14.15-17.917,29.552-29.563,41.199
		c-1.14,1.14-2.741,1.718-4.761,1.718c-6.049,0-15.205-5.249-23.328-13.372C8.164,79.252,4.059,73.549,1.81,68.399
		c-2.377-5.441-2.41-9.714-0.093-12.031c12.571-12.571,28.436-23.281,43.525-29.384c10.788-4.365,19.831-5.862,25.572-4.397
		c7.034-6.841,8.966-9.187,9.29-10.428c-0.551-1.009-0.841-2.146-0.823-3.327c0.026-1.807,0.755-3.494,2.051-4.751
		c1.293-1.256,3.021-1.941,4.804-1.908c1.805,0.027,3.491,0.754,4.749,2.049c0.854,0.875,1.44,1.968,1.721,3.147
		c2.02-0.189,4.05,0.532,5.486,2.013C99.349,10.675,100.027,12.382,100.001,14.188z M39.532,84.88
		c-2.152-4.926-6.108-10.412-11.142-15.444c-7.648-7.647-16.455-12.785-21.914-12.785c-1.47,0-2.595,0.38-3.346,1.131
		c-1.67,1.671-1.484,5.249,0.512,9.816c2.151,4.927,6.108,10.412,11.141,15.444c7.648,7.647,16.455,12.786,21.914,12.786
		c1.47,0,2.596-0.381,3.347-1.132C41.714,93.026,41.527,89.448,39.532,84.88z M73.913,26.385c-3.822-3.822-14.784-2.86-27.921,2.453
		c-13.584,5.494-27.805,14.794-39.614,25.82c0.034,0,0.063-0.007,0.099-0.007c6.048,0,15.204,5.249,23.328,13.371
		c5.205,5.205,9.311,10.908,11.561,16.058c1.229,2.813,1.818,5.304,1.793,7.384c10.328-11.027,19.905-24.733,26.063-37.425
		C75.739,40.604,77.537,30.008,73.913,26.385z M98.001,14.159c0.019-1.271-0.459-2.473-1.344-3.384
		c-1.194-1.229-2.967-1.723-4.623-1.291c-0.031,0.008-0.062,0-0.092,0.005c-0.031,0.005-0.058,0.022-0.09,0.025
		c-0.037,0.002-0.069-0.013-0.105-0.014c-0.071-0.002-0.138-0.011-0.205-0.028c-0.061-0.015-0.115-0.035-0.171-0.06
		c-0.06-0.027-0.113-0.058-0.166-0.096c-0.054-0.038-0.1-0.08-0.145-0.127c-0.042-0.044-0.077-0.09-0.111-0.142
		c-0.037-0.058-0.065-0.118-0.09-0.184c-0.013-0.033-0.037-0.059-0.046-0.094c-0.008-0.032,0-0.062-0.005-0.094
		c-0.006-0.031-0.022-0.056-0.024-0.088c-0.08-1.115-0.553-2.17-1.332-2.97c-0.887-0.913-2.075-1.425-3.346-1.444
		c-0.024,0-0.049,0-0.072,0c-1.244,0-2.416,0.476-3.309,1.344c-0.883,0.855-1.381,1.995-1.43,3.217
		c0.097,0.564,0.276,0.981,0.454,1.378c0.258,0.576,0.448,1.078,0.471,1.628c0.128,0.173,0.251,0.349,0.403,0.506
		c0.385,0.396,0.375,1.03-0.021,1.414c-0.194,0.188-0.445,0.282-0.696,0.282c-0.121,0-0.241-0.027-0.355-0.071
		c-1.062,1.792-3.551,4.493-8.642,9.466c0.937,0.437,1.757,0.972,2.418,1.633c0.629,0.629,1.12,1.408,1.505,2.299
		c6.29-6.063,9.271-8.409,11.301-9.067c-0.03-0.294,0.053-0.597,0.281-0.819c0.396-0.385,1.028-0.376,1.414,0.02
		c0.379,0.39,0.813,0.703,1.282,0.939c0.069,0.024,0.139,0.049,0.21,0.075c0.364,0.134,0.755,0.264,1.2,0.363
		c0.065,0.01,0.128,0.031,0.194,0.039c1.418,0.157,2.82-0.323,3.845-1.317C97.471,16.618,97.982,15.43,98.001,14.159z
		 M26.838,70.987c8.438,8.439,15.175,18.786,11.729,22.232c-0.61,0.61-1.462,0.919-2.529,0.919c-4.22,0-12.137-5.083-19.702-12.649
		C7.898,73.052,1.161,62.707,4.607,59.259c0.61-0.61,1.461-0.919,2.528-0.919C11.354,58.339,19.271,63.422,26.838,70.987z
		 M25.424,72.401C17.503,64.483,10.229,60.34,7.136,60.34c-0.519,0-0.894,0.112-1.114,0.333C4.42,62.275,8.107,70.432,17.75,80.076
		c7.919,7.919,15.194,12.063,18.288,12.063c0.519,0,0.894-0.112,1.115-0.334C38.754,90.204,35.066,82.047,25.424,72.401z
		 M16.98,71.634c-0.771,0.771,0.663,3.46,3.208,6.004c2.544,2.544,5.232,3.979,6.005,3.208c0.771-0.772-0.665-3.459-3.208-6.004
		C20.44,72.298,17.753,70.861,16.98,71.634z"/>
</g>
</svg>
