<?xml version="1.0" encoding="utf-8"?>
<!-- Generator: Adobe Illustrator 16.0.0, SVG Export Plug-In . SVG Version: 6.00 Build 0)  -->
<!DOCTYPE svg PUBLIC "-//W3C//DTD SVG 1.1//EN" "http://www.w3.org/Graphics/SVG/1.1/DTD/svg11.dtd">
<svg version="1.1" xmlns="http://www.w3.org/2000/svg" xmlns:xlink="http://www.w3.org/1999/xlink" x="0px" y="0px" width="100px"
	 height="100px" viewBox="0 0 100 100" enable-background="new 0 0 100 100" xml:space="preserve">
<g id="Calque_2">
</g>
<g id="Calque_1">
	<path d="M99.399,68.757c0-0.988-0.005-2.823-13.946-4.097c-6.851-2.755-15.6-5.378-21.676-5.378c-3.689,0-8.363,0.969-13,2.345
		V16.66c0-0.023-0.012-0.042-0.013-0.064c0.003-0.054,0.013-0.107,0.013-0.162c0-0.552-0.448-1-1-1c-0.005,0-0.01,0.003-0.015,0.003
		c-0.005,0-0.01-0.003-0.015-0.003c-2.759,0-8.229-5.723-8.97-9.103c1.53-0.564,2.535-1.313,2.535-2.311
		C43.312,0.194,28.595,0,25.645,0S7.978,0.194,7.978,4.02c0,1.008,1.027,1.763,2.586,2.33c-0.756,3.382-6.209,9.084-8.963,9.084
		c-0.552,0-1,0.448-1,1c0,0.055,0.01,0.108,0.013,0.162c-0.001,0.022-0.013,0.041-0.013,0.064v64.225
		c0,5.141,12.664,7.83,25.173,7.83c2.535,0,5.02-0.12,7.414-0.335c5.49,7.857,15.551,11.62,30.59,11.62
		c24.303,0,35.622-9.813,35.622-30.882c0-0.022-0.011-0.042-0.013-0.063C99.398,68.948,99.399,68.848,99.399,68.757z M97.099,68.771
		c-0.408,0.222-1.088,0.454-2.029,0.685c-0.769-0.574-1.978-1.282-3.498-2.053C95.061,67.948,96.518,68.475,97.099,68.771z
		 M84.688,66.495c0.05,0.03,0.106,0.045,0.162,0.066c3.026,1.217,5.644,2.447,7.407,3.455c-5.58,0.922-15.374,1.709-28.479,1.709
		s-22.9-0.787-28.479-1.709c1.764-1.008,4.383-2.239,7.411-3.457c0.053-0.02,0.106-0.035,0.154-0.063
		c6.628-2.652,15.15-5.214,20.915-5.214C69.54,61.282,78.06,63.843,84.688,66.495z M30.456,68.771
		c0.581-0.296,2.037-0.823,5.527-1.369c-1.52,0.771-2.729,1.479-3.498,2.053C31.543,69.225,30.864,68.994,30.456,68.771z
		 M42.101,64.66c-13.941,1.273-13.946,3.108-13.946,4.097c0,0.091,0,0.191,0.013,0.298c-0.001,0.022-0.013,0.041-0.013,0.063
		c0,1.254,0.043,2.465,0.124,3.64c-0.861,0.027-1.723,0.056-2.59,0.056c-14.304,0-23.087-3.396-23.087-5.831V28.492
		c4.086,3.018,13.806,4.618,23.087,4.618c9.282,0,19.002-1.6,23.089-4.618v33.752C46.461,62.99,44.193,63.819,42.101,64.66z
		 M48.777,25.28c0,2.435-8.784,5.83-23.089,5.83c-14.304,0-23.087-3.396-23.087-5.83v-5.634c4.086,3.018,13.806,4.618,23.087,4.618
		c9.282,0,19.002-1.6,23.089-4.618V25.28z M25.645,2c9.077,0,14.306,1.241,15.497,2.02c-0.291,0.19-0.826,0.409-1.596,0.629
		c-0.102,0.015-0.2,0.035-0.289,0.078c-2.458,0.658-7.013,1.314-13.612,1.314c-6.518,0-11.04-0.64-13.52-1.29
		c-0.141-0.076-0.295-0.131-0.467-0.131c-0.002,0-0.003,0.001-0.005,0.001c-0.718-0.211-1.227-0.419-1.505-0.602
		C11.339,3.241,16.568,2,25.645,2z M12.476,6.901c4.585,1.059,11.282,1.14,13.169,1.14c1.895,0,8.637-0.082,13.223-1.152
		c0.953,3.96,5.882,9.246,9.608,10.329c-1.6,2.319-9.964,5.046-22.788,5.046c-12.836,0-21.204-2.733-22.791-5.053
		C6.616,16.112,11.518,10.851,12.476,6.901z M25.773,86.715c-14.357,0-23.173-3.396-23.173-5.83V70.196
		c4.086,3.018,13.806,4.618,23.087,4.618c0.927,0,1.849-0.03,2.768-0.06c0.511,4.533,1.686,8.424,3.531,11.708
		C29.964,86.615,27.894,86.715,25.773,86.715z M63.777,98c-22.59,0-33.019-8.41-33.595-27.204c1.538,0.597,4.24,1.214,8.999,1.759
		c6.576,0.754,15.311,1.169,24.596,1.169c9.284,0,18.019-0.415,24.595-1.169c4.76-0.545,7.462-1.163,9-1.759
		C96.795,89.59,86.367,98,63.777,98z M65.86,65.23c-0.19-0.18-0.29-0.44-0.29-0.71c0-0.26,0.1-0.52,0.29-0.7
		c0.37-0.37,1.04-0.37,1.41,0c0.19,0.18,0.29,0.44,0.29,0.7c0,0.27-0.1,0.52-0.29,0.71c-0.18,0.19-0.44,0.29-0.71,0.29
		C66.3,65.52,66.04,65.42,65.86,65.23z M59.14,65.23c-0.18-0.19-0.29-0.44-0.29-0.71c0-0.26,0.11-0.52,0.29-0.7
		c0.37-0.37,1.05-0.38,1.42,0c0.18,0.18,0.29,0.44,0.29,0.7c0,0.27-0.11,0.52-0.29,0.71c-0.19,0.19-0.44,0.29-0.71,0.29
		C59.59,65.52,59.33,65.42,59.14,65.23z M51.84,66.81c-0.19-0.18-0.29-0.44-0.29-0.71c0-0.26,0.1-0.52,0.29-0.7
		c0.37-0.37,1.04-0.38,1.41,0c0.19,0.18,0.3,0.44,0.3,0.7c0,0.27-0.11,0.52-0.3,0.71c-0.18,0.19-0.44,0.29-0.7,0.29
		C52.28,67.1,52.02,67,51.84,66.81z M55.43,69.82c-0.18-0.18-0.29-0.44-0.29-0.7c0-0.27,0.11-0.52,0.29-0.71
		c0.37-0.37,1.04-0.37,1.42,0c0.18,0.19,0.29,0.44,0.29,0.71c0,0.26-0.11,0.52-0.29,0.71c-0.19,0.18-0.45,0.29-0.71,0.29
		C55.88,70.12,55.62,70.01,55.43,69.82z M74.58,67.91c-0.18-0.19-0.29-0.45-0.29-0.71c0-0.27,0.11-0.52,0.3-0.71
		c0.37-0.37,1.04-0.37,1.41,0c0.19,0.18,0.29,0.44,0.29,0.71c0,0.26-0.1,0.52-0.29,0.71c-0.18,0.18-0.44,0.29-0.71,0.29
		C75.03,68.2,74.77,68.09,74.58,67.91z M80.83,68.91c-0.19-0.19-0.3-0.45-0.3-0.71c0-0.27,0.11-0.52,0.29-0.71
		c0.38-0.37,1.05-0.37,1.42,0c0.19,0.19,0.29,0.44,0.29,0.71c0,0.26-0.1,0.52-0.29,0.7c-0.19,0.19-0.45,0.3-0.71,0.3
		C81.27,69.2,81.02,69.09,80.83,68.91z M69.73,69.46c-0.19-0.18-0.29-0.44-0.29-0.7c0-0.27,0.1-0.52,0.29-0.71
		c0.37-0.37,1.04-0.37,1.41,0c0.19,0.19,0.3,0.44,0.3,0.71c0,0.26-0.11,0.52-0.3,0.7c-0.18,0.19-0.44,0.3-0.7,0.3
		C70.17,69.76,69.91,69.65,69.73,69.46z M62.26,69.65c-0.18-0.18-0.29-0.44-0.29-0.7c0-0.27,0.11-0.53,0.29-0.71
		c0.37-0.37,1.04-0.38,1.42,0c0.18,0.18,0.29,0.44,0.29,0.71c0,0.26-0.11,0.52-0.29,0.7c-0.19,0.19-0.45,0.3-0.71,0.3
		C62.71,69.95,62.45,69.84,62.26,69.65z M45.7,68.51c0-0.26,0.11-0.52,0.29-0.7c0.37-0.37,1.04-0.38,1.42-0.01
		c0.18,0.19,0.29,0.45,0.29,0.71c0,0.27-0.11,0.52-0.29,0.71c-0.19,0.19-0.45,0.29-0.71,0.29c-0.26,0-0.52-0.1-0.71-0.29
		C45.81,69.03,45.7,68.78,45.7,68.51z M40.53,36.369c-1.267-1.151-2.845-1.819-4.443-1.88c-1.663-0.052-3.151,0.53-4.189,1.672
		c-1.785,1.965-2.33,3.275-2.811,4.431c-0.375,0.901-0.699,1.68-1.646,2.722c-1.088,1.198-2.184,1.861-3.343,2.563
		c-1.121,0.678-2.28,1.379-3.351,2.559c-0.296,0.326-0.544,0.693-0.745,1.087c-0.479-0.377-0.924-0.771-1.374-1.178
		c-0.972-0.878-1.977-1.786-3.415-2.472c-0.676-0.323-1.404-0.486-2.165-0.486c-2.347,0-4.602,1.547-5.746,3.941
		c-1.063,2.224-0.666,5.006,1.117,7.833c2.905,4.606,9.61,9.371,15.804,9.371c3.771,0,6.621-1.793,8.241-5.186
		c0.696-1.458,0.881-3.052,0.564-4.529c4.717-2.452,9.645-7.371,10.429-12.534C43.917,41.263,42.904,38.526,40.53,36.369z
		 M28.921,44.659c1.181-1.298,1.604-2.315,2.013-3.299c0.147-0.354,0.299-0.713,0.491-1.096c0.026,0.021,0.06,0.036,0.084,0.059
		c0.702,0.638,0.646,1.71,0.55,2.292c-0.188,1.147-0.842,2.404-1.794,3.451c-1.845,2.032-4.393,2.848-5.58,1.796
		c0.149-0.091,0.296-0.183,0.448-0.275C26.307,46.877,27.637,46.072,28.921,44.659z M19.941,51.926
		c0.009,0.006,0.017,0.012,0.025,0.017c0.374,0.234,0.776,0.46,1.218,0.671c1.582,0.755,2.677,0.868,3.736,0.977
		c0.381,0.039,0.77,0.082,1.193,0.155c-0.013,0.032-0.017,0.068-0.032,0.099c-0.408,0.855-1.451,1.11-2.037,1.186
		c-1.15,0.153-2.545-0.113-3.821-0.723c-2.476-1.183-3.991-3.387-3.326-4.827c0.129,0.116,0.259,0.229,0.39,0.348
		C18.039,50.507,18.868,51.251,19.941,51.926z M30.66,60.482c-1.283,2.687-3.448,4.048-6.437,4.048
		c-4.847,0-11.178-3.785-14.112-8.438c-0.993-1.574-1.972-3.875-1.004-5.904c0.801-1.677,2.385-2.803,3.941-2.803
		c0.46,0,0.899,0.098,1.303,0.291c0.352,0.168,0.669,0.359,0.974,0.561c-0.076,0.121-0.167,0.232-0.228,0.361
		c-1.194,2.5,0.679,5.801,4.264,7.514c1.319,0.63,2.713,0.96,4.014,0.96c0.315,0,0.625-0.019,0.927-0.059
		c1.706-0.222,2.979-1.042,3.583-2.307c0.066-0.138,0.096-0.289,0.144-0.433c0.391,0.146,0.813,0.323,1.288,0.549
		c0.85,0.406,1.466,1.197,1.733,2.227C31.334,58.144,31.195,59.363,30.66,60.482z M41.48,43.981c-0.675,4.443-5,8.744-9.201,10.975
		c-0.518-0.836-1.218-1.515-2.1-1.937c-2.397-1.145-3.809-1.29-5.055-1.418c-0.971-0.1-1.81-0.186-3.078-0.792
		c-0.123-0.059-0.224-0.125-0.34-0.186c0.131-0.308,0.295-0.596,0.521-0.844c0.262-0.288,0.536-0.537,0.816-0.77
		c0.093,0.107,0.174,0.226,0.28,0.322c0.736,0.668,1.685,0.988,2.721,0.988c1.854,0,3.989-1.023,5.701-2.909
		c1.222-1.343,2.035-2.931,2.288-4.472c0.279-1.697-0.14-3.152-1.177-4.095c-0.113-0.103-0.249-0.176-0.374-0.264
		c0.252-0.332,0.543-0.686,0.896-1.075c0.633-0.698,1.571-1.057,2.632-1.019c1.128,0.043,2.255,0.527,3.174,1.362
		C41.066,39.559,41.839,41.622,41.48,43.981z"/>
</g>
</svg>
