<?xml version="1.0" encoding="utf-8"?>
<!-- Generator: Adobe Illustrator 16.0.0, SVG Export Plug-In . SVG Version: 6.00 Build 0)  -->
<!DOCTYPE svg PUBLIC "-//W3C//DTD SVG 1.1//EN" "http://www.w3.org/Graphics/SVG/1.1/DTD/svg11.dtd">
<svg version="1.1" xmlns="http://www.w3.org/2000/svg" xmlns:xlink="http://www.w3.org/1999/xlink" x="0px" y="0px" width="100px"
	 height="100px" viewBox="0 0 100 100" enable-background="new 0 0 100 100" xml:space="preserve">
<g id="Calque_2">
</g>
<g id="Calque_1">
	<path d="M54.692,25.082c-3.301,1.296-9.228,1.831-15.594,1.831c-9.469,0-19.913-1.18-24.165-2.785
		c-0.517-0.195-0.777-0.772-0.583-1.289s0.774-0.778,1.289-0.583c7.345,2.771,31.099,3.801,38.322,0.964
		c0.516-0.203,1.095,0.051,1.296,0.565C55.459,24.299,55.206,24.88,54.692,25.082z M29.794,51.68
		c0,11.478-2.512,23.098-7.313,23.098c-4.802,0-7.314-11.62-7.314-23.098c0-11.477,2.512-23.096,7.314-23.096
		C27.283,28.584,29.794,40.203,29.794,51.68z M27.794,51.68c0-13.07-3.094-21.096-5.313-21.096s-5.314,8.025-5.314,21.096
		c0,13.071,3.095,21.098,5.314,21.098S27.794,64.751,27.794,51.68z M90.508,42.836c0,0.002,0.001,0.004,0.001,0.006v50.445
		c0,0.488-0.353,0.905-0.834,0.986l-33.978,5.713C55.642,99.996,55.586,100,55.531,100c-0.144,0-0.281-0.041-0.411-0.1
		c-0.016-0.007-0.034-0.004-0.049-0.012l-11.055-5.724c-0.332-0.172-0.54-0.515-0.54-0.888v-0.047
		c-2.315,0.092-4.71,0.141-7.128,0.141c-0.012,0-0.024,0-0.036,0c-4.479,0-26.821-0.22-26.821-4.561V23.877
		c0-4.912,6.514-7.022,12.813-9.063c3.369-1.091,6.835-2.221,8.325-3.604c-0.104-0.213-0.179-0.437-0.179-0.688V3.125
		C30.45,0.151,38.356,0,39.941,0c1.585,0,9.493,0.151,9.493,3.125v7.396c0,0.29-0.094,0.546-0.231,0.785
		c0.852,0.842,1.718,1.642,2.559,2.413c5.314,4.875,10.336,9.493,11.228,24.872l12.835-2.236c0.186-0.032,0.375-0.012,0.549,0.059
		l13.512,5.502c0.059,0.024,0.101,0.068,0.152,0.101c0.038,0.024,0.083,0.033,0.117,0.062c0.011,0.009,0.015,0.023,0.024,0.032
		c0.072,0.066,0.124,0.145,0.173,0.227c0.021,0.035,0.051,0.063,0.067,0.101C90.476,42.563,90.507,42.697,90.508,42.836z
		 M53.022,42.357c1.218,1.593,2.314,3.346,3.137,5.078l29.71-4.996l-9.984-4.065L53.022,42.357z M46.184,38.619
		c-0.93-0.489-1.324-0.401-1.377-0.352c-0.152,0.141-0.462,1.233,0.725,3.984l7.709,3.992C51.249,42.946,48.38,39.774,46.184,38.619
		z M45.617,44.548c0.528,3.444,2.531,6.92,4.847,8.119c0.65,0.337,1.602,0.629,2.449,0.115c0.911-0.555,1.488-1.891,1.597-3.63
		L45.617,44.548z M32.45,10.372c0.512,0.462,3.124,1.272,7.492,1.272c4.368,0,6.981-0.81,7.493-1.272V5.208
		c-2.453,0.966-6.42,1.039-7.493,1.039s-5.039-0.072-7.492-1.039V10.372z M32.666,3.124c0.836,0.468,3.345,1.122,7.275,1.122
		s6.44-0.654,7.276-1.122C46.383,2.655,43.875,2,39.941,2C36.009,2,33.501,2.655,32.666,3.124z M43.476,91.229V42.832
		c0-0.086,0.011-0.171,0.033-0.252c-1.112-2.771-1.146-4.769-0.065-5.775c0.59-0.549,1.704-0.988,3.67,0.045
		c1.397,0.735,2.958,2.077,4.442,3.733l9.45-1.646C60.2,24.184,55.659,20.009,50.41,15.192c-0.917-0.842-1.866-1.712-2.808-2.654
		c-2.436,1.032-6.563,1.105-7.66,1.105c-1.113,0-5.339-0.079-7.759-1.153c-0.011,0.012-0.015,0.027-0.026,0.039
		c-1.769,1.768-5.396,2.943-9.237,4.188c-5.357,1.735-11.429,3.702-11.429,7.16v64.77c1.207,1.137,10.504,2.724,24.821,2.724
		c0.012,0,0.024,0,0.036,0C38.768,91.37,41.163,91.322,43.476,91.229z M45.476,92.668l9.055,4.688V54.064
		c-0.182,0.16-0.375,0.302-0.58,0.427c-0.627,0.381-1.322,0.572-2.053,0.572c-0.76,0-1.558-0.207-2.354-0.619
		c-1.581-0.818-2.999-2.363-4.068-4.253V92.668z M88.509,44.024l-31.978,5.377v48.417l31.978-5.377V44.024z"/>
</g>
</svg>
