<?xml version="1.0" encoding="utf-8"?>
<!-- Generator: Adobe Illustrator 16.0.0, SVG Export Plug-In . SVG Version: 6.00 Build 0)  -->
<!DOCTYPE svg PUBLIC "-//W3C//DTD SVG 1.1//EN" "http://www.w3.org/Graphics/SVG/1.1/DTD/svg11.dtd">
<svg version="1.1" xmlns="http://www.w3.org/2000/svg" xmlns:xlink="http://www.w3.org/1999/xlink" x="0px" y="0px" width="100px"
	 height="100px" viewBox="0 0 100 100" enable-background="new 0 0 100 100" xml:space="preserve">
<g id="Calque_2">
</g>
<g id="Calque_1">
	<path d="M82.96,40.87c0-0.467,1.343-0.847,2.998-0.847s2.998,0.38,2.998,0.847c0,0.47-1.343,0.848-2.998,0.848
		S82.96,41.34,82.96,40.87z M85.108,44.445c0,0.468,1.342,0.848,2.998,0.848c1.655,0,2.998-0.38,2.998-0.848
		c0-0.47-1.343-0.848-2.998-0.848C86.45,43.598,85.108,43.976,85.108,44.445z M87.438,48.622c0,0.47,1.343,0.847,2.999,0.847
		c1.653,0,2.996-0.377,2.996-0.847c0-0.468-1.343-0.845-2.996-0.845C88.78,47.777,87.438,48.154,87.438,48.622z M99.426,53.816
		l-2.469,32.313c-0.04,0.522-0.475,0.924-0.998,0.924H83.505l3.228,6.51c0.128,0.168,0.204,0.378,0.204,0.606c0,0.552-0.448,1-1,1
		c-0.007,0-0.013,0-0.02,0H14.083c-0.343,0-0.663-0.177-0.846-0.467s-0.205-0.655-0.057-0.965l3.193-6.685H5.288
		c-0.509,0-0.936-0.381-0.994-0.887L0.587,53.839c-1.338-1.895-0.551-7.598,4.012-13.633c7.729-10.228,10.555-10.228,11.483-10.228
		h0.968v-7.642c0-2.831,2.057-5.186,4.754-5.661V5.831c0-0.552,0.448-1,1-1h54.39c0.552,0,1,0.448,1,1v10.845
		c2.697,0.476,4.754,2.831,4.754,5.661v7.642h0.968c0.929,0,3.755,0,11.483,10.228C99.947,46.219,100.744,51.901,99.426,53.816z
		 M78.195,18.736v11.243h2.753v-7.642C80.948,20.616,79.777,19.177,78.195,18.736z M23.806,33.521h52.389V6.831H23.806V33.521z
		 M19.052,29.979h2.753V18.736c-1.582,0.441-2.753,1.88-2.753,3.601V29.979z M2.073,52.428h95.874
		c0.383-1.132-0.032-5.579-4.143-11.015c-6.614-8.753-9.24-9.434-9.887-9.434h-5.722v1.542h1.865c0.552,0,1,0.448,1,1
		c0,0.552-0.448,1-1,1H19.594c-0.553,0-1-0.448-1-1c0-0.553,0.448-1,1-1h2.21v-1.542h-5.722c-0.647,0-3.272,0.68-9.887,9.434
		C2.11,46.817,1.676,51.239,2.073,52.428z M23.806,65.008v6.489l3.1-6.489H23.806z M21.805,65.008h-1.692v14.22l1.692-3.542V65.008z
		 M84.304,93.169L70.341,65.008H29.123L19.02,86.156c-0.026,0.243-0.127,0.462-0.296,0.621l-3.054,6.392H84.304z M78.195,65.008
		v11.273c0,0.016-0.008,0.029-0.009,0.044l1.355,2.734V65.008H78.195z M76.194,65.008h-3.619l3.619,7.3V65.008z M97.373,54.429
		H2.669L6.18,85.052h11.15l0.781-1.636V64.007c0-0.553,0.448-1,1-1h9.38h42.47h9.58c0.553,0,1,0.448,1,1v19.088l0.97,1.957h12.52
		L97.373,54.429z"/>
</g>
</svg>
