<?xml version="1.0" encoding="utf-8"?>
<!-- Generator: Adobe Illustrator 16.0.0, SVG Export Plug-In . SVG Version: 6.00 Build 0)  -->
<!DOCTYPE svg PUBLIC "-//W3C//DTD SVG 1.1//EN" "http://www.w3.org/Graphics/SVG/1.1/DTD/svg11.dtd">
<svg version="1.1" xmlns="http://www.w3.org/2000/svg" xmlns:xlink="http://www.w3.org/1999/xlink" x="0px" y="0px" width="100px"
	 height="100px" viewBox="0 0 100 100" enable-background="new 0 0 100 100" xml:space="preserve">
<g id="Calque_2">
</g>
<g id="Calque_1">
	<path d="M99.588,68.063c0.261-0.616,0.412-1.251,0.412-1.911c0-4.673-7.335-8.749-20.242-11.336c1.76-0.873,3.38-1.76,4.937-2.916
		c2.462-1.828,4.597-3.832,6.012-5.643c1.708-2.187,2.167-3.843,1.365-4.922l-1.505-2.026c-0.801-1.08-2.519-1.119-5.105-0.118
		c-2.143,0.83-4.68,2.293-7.142,4.121c-2.209,1.639-3.942,3.541-5.948,5.744c-1.164,1.278-2.41,2.637-3.858,4.071
		c-5.88-0.634-12.101-0.961-18.513-0.961c-1.253,0-2.488,0.025-3.726,0.05V32.29c0.084-0.146,0.145-0.307,0.145-0.487
		c0-3.633-6.736-5.721-13.249-6.537c0.356-0.503,0.631-1.021,0.836-1.518c2.41-5.817-1.179-16.032-5.757-20.61
		c-0.391-0.391-1.023-0.391-1.414,0c-0.195,0.195-0.293,0.451-0.293,0.707s0.098,0.512,0.293,0.707
		c1.899,1.9-0.409,5.71-2.643,9.396c-1.805,2.978-3.671,6.057-3.671,8.673c0,0.001,0,0.002,0,0.003
		c0.001,0.851,0.191,1.656,0.524,2.383c-7.692,0.611-15.347,2.814-15.866,6.534c-0.115,0.163-0.197,0.351-0.197,0.565v0.328
		c0,0.038,0.001,0.076,0.002,0.113l0.139,27.258C1.956,61.593,0,63.707,0,66.152c0,0.642,0.146,1.273,0.422,1.892
		C0.146,68.672,0,69.315,0,69.963c0,0.686,0.163,1.359,0.479,2.018C0.167,72.646,0,73.329,0,74.016c0,0.599,0.13,1.189,0.371,1.768
		C0.129,76.375,0,76.979,0,77.585C0,81.672,5.719,85.33,15.735,87.9c4.973,5.544,18.642,9.255,34.265,9.255
		c15.572,0,29.199-3.686,34.212-9.2C93.613,85.594,100,82.108,100,77.585c0-0.598-0.123-1.193-0.359-1.775
		c0.23-0.579,0.359-1.176,0.359-1.794c0-0.682-0.164-1.357-0.47-2.018c0.298-0.654,0.47-1.331,0.47-2.036
		C100,69.322,99.857,68.686,99.588,68.063z M50,86.005c-8.11,0-16.137-0.539-23.214-1.558C9.678,81.983,2.014,77.439,2.001,74.024
		c3.675,3.603,12.268,6.587,24.5,8.349c7.17,1.033,15.295,1.579,23.499,1.579c20.222,0,41.488-3.415,47.987-9.821
		C97.726,79.771,78.098,86.005,50,86.005z M26.501,78.563c7.17,1.033,15.295,1.579,23.499,1.579c20.192,0,41.426-3.405,47.959-9.793
		C97.096,75.915,77.649,81.952,50,81.952c-8.11,0-16.137-0.539-23.214-1.558C10.137,77.996,2.453,73.631,2.04,70.251
		C5.736,73.837,14.312,76.808,26.501,78.563z M73.849,50.402c1.937-2.125,3.609-3.961,5.662-5.484
		c4.967-3.688,8.809-4.817,9.449-4.417l1.487,1.993c0.219,0.761-1.974,4.111-6.944,7.802c-2.048,1.52-4.285,2.584-6.875,3.816
		c-2.464,1.172-5.165,2.468-8.263,4.384c-0.019,0.012-0.037,0.021-0.055,0.034c-1.39,0.861-2.851,1.835-4.421,3
		c-3.878,2.888-5.811,5.707-7.606,8.58c-0.156,0.25-0.452,0.696-0.781,1.193c-0.54,0.814-0.968,1.465-1.256,1.929
		c-1.377,0.039-2.789,0.061-4.246,0.061c-4.898,0-9.697-0.249-14.1-0.709c4.057-3.441,7.911-4.714,12.41-5.957
		c0.684-0.189,1.38-0.358,2.094-0.532c3.526-0.857,7.523-1.83,12.674-5.662c0.436-0.325,0.837-0.641,1.244-0.959
		c0.024-0.018,0.048-0.035,0.071-0.055C68.686,56.055,71.423,53.065,73.849,50.402z M69.136,60.371
		c10.044,1.572,14.634,4.088,14.634,5.781c0,2.648-10.148,6.224-27.086,6.989c0.17-0.257,0.338-0.512,0.485-0.734
		c0.341-0.515,0.647-0.979,0.81-1.238c1.691-2.706,3.507-5.356,7.104-8.035C66.515,62.072,67.855,61.172,69.136,60.371z
		 M27.669,71.374c-7.901-1.576-11.438-3.758-11.439-5.221c0.001-1.641,4.171-4.008,13.487-5.599
		c5.915-1.008,12.929-1.542,20.283-1.542c3.79,0,7.483,0.148,11.031,0.428c-4.422,3.084-7.958,3.945-11.1,4.709
		c-0.734,0.179-1.45,0.353-2.154,0.547c-5.239,1.447-9.656,2.943-14.517,7.575C31.287,72.017,29.405,71.719,27.669,71.374z
		 M26.275,26.375c-1.411,0-2.642-0.782-3.283-1.936c1.738-0.775,4.124-3.561,5.541-6.024c0.16,0.398,0.332,0.797,0.502,1.193
		c0.488,1.135,0.993,2.309,0.993,3.013C30.028,24.69,28.345,26.375,26.275,26.375z M25.902,14.984
		c1.459-2.407,2.945-4.86,3.469-7.08c2.762,4.641,4.402,11.179,2.787,15.079c-0.056,0.135-0.115,0.267-0.18,0.394
		c0.033-0.248,0.05-0.5,0.05-0.756c0-1.116-0.562-2.421-1.156-3.804c-0.561-1.304-1.141-2.652-1.141-3.624c0-0.552-0.447-1-1-1
		s-1,0.448-1,1c0,1.681-3.616,6.344-5.208,7.292C22.596,20.44,24.276,17.667,25.902,14.984z M22.464,26.919
		c0.787,0.699,1.765,1.184,2.846,1.368c0.038,1.677-0.024,4.033-0.025,4.061c-0.015,0.552,0.421,1.012,0.973,1.026
		c0.01,0,0.019,0,0.028,0c0.539,0,0.984-0.43,0.999-0.973c0.002-0.115,0.062-2.36,0.026-4.073c1.681-0.139,2.977-0.611,3.976-1.256
		c8.301,0.765,12.833,3.084,13.106,4.586c-0.07,0.136-0.118,0.284-0.118,0.448v0.191c0,2.037-7.437,5.116-18.646,5.116
		c-11.273,0-18.507-2.894-18.644-4.921v-0.07c0.082-0.146,0.142-0.305,0.142-0.483C7.126,30.176,12.954,27.45,22.464,26.919z
		 M7,35.582c3.556,2.507,11.262,3.832,18.628,3.832c7.466,0,15.121-1.441,18.646-3.976v16.821
		c-4.819,0.147-9.505,0.474-13.977,0.991c-8.465,0.979-17.259,2.824-23.18,5.543L7,35.582z M30.528,55.236
		c6.15-0.711,12.701-1.071,19.472-1.071c5.729,0,11.289,0.274,16.597,0.786c-0.955,0.869-2.008,1.766-3.174,2.69
		c-4.269-0.414-8.779-0.628-13.423-0.628c-7.466,0-14.596,0.543-20.619,1.57c-6.911,1.18-15.149,3.451-15.151,7.57
		c0.002,3.786,7.097,5.995,13.049,7.182c1.934,0.385,4.043,0.71,6.257,0.986c0.021,0.001,0.042,0.008,0.064,0.008
		c5.025,0.623,10.646,0.963,16.4,0.963c1.608,0,3.218-0.026,4.816-0.078c0.003,0,0.006,0.001,0.009,0.001
		c0.004,0,0.008-0.001,0.012-0.001c16.06-0.517,30.933-3.606,30.933-9.061c0-3.973-7.826-6.212-13.977-7.358
		c1.766-0.983,3.392-1.777,4.929-2.511C89.656,58.541,98,62.403,98,66.152c0,5.67-19.713,11.989-48,11.989
		c-8.11,0-16.137-0.539-23.214-1.558C9.664,74.118,2,69.568,2,66.152C2,62.485,10.928,57.504,30.528,55.236z M50,95.155
		c-12.463,0-23.878-2.479-29.919-6.264c2.012,0.407,4.15,0.777,6.42,1.104c7.17,1.033,15.295,1.579,23.499,1.579
		c10.396,0,21.067-0.905,29.871-2.652C73.819,92.69,62.43,95.155,50,95.155z M50,89.574c-8.11,0-16.137-0.539-23.214-1.558
		C10.594,85.685,2.87,81.49,2.078,78.152c3.718,3.569,12.275,6.525,24.423,8.274c7.17,1.033,15.295,1.579,23.499,1.579
		c20.127,0,41.287-3.383,47.894-9.732C96.388,83.754,77.148,89.574,50,89.574z"/>
</g>
</svg>
