<?xml version="1.0" encoding="utf-8"?>
<!-- Generator: Adobe Illustrator 16.0.0, SVG Export Plug-In . SVG Version: 6.00 Build 0)  -->
<!DOCTYPE svg PUBLIC "-//W3C//DTD SVG 1.1//EN" "http://www.w3.org/Graphics/SVG/1.1/DTD/svg11.dtd">
<svg version="1.1" xmlns="http://www.w3.org/2000/svg" xmlns:xlink="http://www.w3.org/1999/xlink" x="0px" y="0px" width="100px"
	 height="100px" viewBox="0 0 100 100" enable-background="new 0 0 100 100" xml:space="preserve">
<g id="Calque_2">
</g>
<g id="Calque_1">
	<path d="M100,53.983c0-0.932-0.004-3.104-12.864-4.585c-0.933-0.471-1.895-0.933-2.868-1.378c0.328-1.418,0.818-2.962,1.565-4.661
		c2.468-5.588,4.967-9.163,7.172-12.318c1.693-2.42,3.155-4.512,4.256-7.006c1.791-4.053,3.193-9.186,2.29-11.517
		c-0.29-0.748-0.76-1.085-1.103-1.236l-2.293-1.013c-1.224-0.538-2.73,0.269-4.477,2.404c-1.444,1.769-2.917,4.277-4.147,7.063
		c-1.104,2.502-1.669,4.995-2.32,7.882c-0.849,3.75-1.811,8.001-4.265,13.583c-0.74,1.682-1.533,3.16-2.349,4.487
		c-3.333-1.214-7.778-2.527-11.455-2.527c-5.612,0-13.686,3.041-20.014,6.239c-0.624,0.071-1.216,0.146-1.779,0.221v-6.338
		c0-4.169-3.297-7.615-7.531-8.09v-1.201c0-0.149-0.037-0.287-0.095-0.414c1.879-0.897,3.039-2.031,3.039-3.401v-4.038
		c0-3.86-9.093-5.88-18.075-5.88s-18.075,2.02-18.075,5.88v4.038c0,1.37,1.16,2.504,3.039,3.401
		c-0.058,0.127-0.095,0.265-0.095,0.414v1.201c-4.234,0.475-7.53,3.921-7.53,8.09v20.158C0.021,63.486,0,63.525,0,63.572
		c0,0.167,0.011,0.333,0.026,0.498v7.578c0,5.861,9.954,10.452,22.661,10.452c7.645,0,14.549-1.663,18.727-4.477
		c1.749,1.653,3.905,3.035,6.521,4.136v2.44c0,0.329,0.162,0.637,0.433,0.823c4.623,3.186,11.231,4.869,19.11,4.869
		c8.055,0,14.663-1.618,19.111-4.683c0.271-0.186,0.433-0.493,0.433-0.822v-2.915C97.421,76.754,100,67.251,100,54.402
		c0-0.07-0.025-0.132-0.039-0.197C99.973,54.131,100,54.06,100,53.983z M97.926,53.993c-0.271,0.296-0.92,0.612-1.928,0.931
		c-0.852-0.785-2.219-1.751-3.905-2.783C96.4,52.938,97.621,53.722,97.926,53.993z M82.775,42.006
		c2.532-5.758,3.517-10.108,4.385-13.946c0.63-2.785,1.175-5.192,2.2-7.515c2.466-5.586,5.213-8.447,5.976-8.447
		c0.003,0,0.007,0,0.011,0.001l2.259,0.992c0.561,0.554,0.307,4.522-2.174,10.137c-1.022,2.317-2.433,4.333-4.064,6.668
		c-2.259,3.23-4.817,6.891-7.363,12.657c-2.037,4.629-2.341,8.208-2.358,11.021c-2.186,0.201-4.685,0.383-7.104,0.464
		C77.191,51.266,80.253,47.739,82.775,42.006z M77.471,47.409c-1.853,2.652-3.761,4.621-5.426,6.333l-0.327,0.337
		c-1.801-0.01-3.457-0.103-4.777-0.317c-0.543-0.087-1.058,0.282-1.146,0.827c-0.088,0.545,0.281,1.058,0.827,1.146
		c1.54,0.25,3.444,0.347,5.466,0.347c6.801,0,14.933-1.094,15.038-1.107c0.548-0.075,0.931-0.579,0.856-1.126
		c-0.075-0.548-0.579-0.93-1.126-0.856c-0.788,0.107-1.904,0.243-3.208,0.381c0.015-1.014,0.077-2.116,0.246-3.324
		c4.292,1.993,7.764,4.046,9.703,5.491c-5.063,1.086-14.221,2.042-26.454,2.042c-12.246,0-21.412-0.958-26.473-2.045
		c1.596-1.206,4.139-2.737,7.124-4.253c0.073-0.029,0.142-0.061,0.205-0.105c6.07-3.061,13.871-6.019,19.144-6.019
		C69.788,45.16,73.345,45.94,77.471,47.409z M36.355,53.994c0.304-0.272,1.523-1.055,5.828-1.853
		c-1.706,1.047-3.061,2.013-3.897,2.783C37.277,54.605,36.626,54.289,36.355,53.994z M34.281,53.983c0,0.076,0.028,0.147,0.04,0.222
		c-0.014,0.065-0.04,0.127-0.04,0.197c0,5.872,0.538,11.046,2.115,15.384c-3.81,1.426-8.623,2.213-13.709,2.213
		c-12.344,0-20.635-4.357-20.635-8.427c0-0.047-0.021-0.086-0.026-0.131v-17.59c3.374,3.301,11.144,5.506,20.661,5.506
		c9.519,0,17.288-2.205,20.662-5.506v4.059C34.289,51.344,34.281,53.155,34.281,53.983z M22.688,22.258
		c10.401,0,16.076,2.564,16.076,3.881c0,1.317-5.675,3.88-16.076,3.88c-10.402,0-16.076-2.563-16.076-3.88
		C6.611,24.822,12.285,22.258,22.688,22.258z M6.611,30.177v-1.21c3.163,2.009,9.639,3.052,16.076,3.052s12.913-1.043,16.076-3.052
		v1.21c0,1.317-5.675,3.88-16.076,3.88C12.285,34.057,6.611,31.494,6.611,30.177z M8.556,37.137c0.553,0,1-0.446,1-0.999V34.33
		c3.463,1.138,8.307,1.727,13.132,1.727s9.669-0.589,13.132-1.727v1.808c0,0.553,0.447,0.999,0.999,0.999
		c3.075,0,5.653,2.013,6.344,4.71c-0.017,0.074-0.045,0.145-0.045,0.225c0,3.421-8.391,7.233-20.43,7.233S2.259,45.492,2.259,42.071
		c0-0.08-0.028-0.15-0.045-0.225C2.903,39.149,5.481,37.137,8.556,37.137z M2.026,71.648v-3.68
		c3.536,3.62,11.359,6.083,20.661,6.083c5.356,0,10.45-0.844,14.501-2.372c0.758,1.627,1.692,3.117,2.835,4.463
		c-3.851,2.457-10.347,3.959-17.336,3.959C10.328,80.102,2.026,75.73,2.026,71.648z M85.023,83.853
		c-4.11,2.645-10.16,4.041-17.545,4.041c-7.118,0-13.319-1.498-17.543-4.229v-1.15c4.449,1.499,10.081,2.295,17.207,2.295
		c7.489,0,13.332-0.878,17.881-2.529V83.853z M67.143,82.81c-16.972,0-24.967-4.505-28.453-12.703
		c-0.011-0.041-0.008-0.083-0.024-0.124c-0.014-0.032-0.041-0.054-0.057-0.084c-1.577-3.816-2.202-8.418-2.31-13.731
		c0.509,0.246,1.101,0.474,1.763,0.686c0.163,0.104,0.344,0.173,0.53,0.173c0.01,0,0.02-0.006,0.03-0.006
		c8.686,2.521,27.491,2.562,28.521,2.562c1.03,0,19.833-0.041,28.519-2.562c0.01,0,0.02,0.006,0.03,0.006
		c0.188,0,0.368-0.068,0.532-0.174c0.66-0.211,1.252-0.438,1.759-0.684C97.642,73.072,92.095,82.81,67.143,82.81z M30.399,59.68
		c-0.956-3.414-4.088-5.929-7.803-5.929c-3.723,0-6.858,2.523-7.808,5.948c-1.567,0.175-2.794,1.492-2.794,3.105
		c0,1.731,1.408,3.142,3.14,3.142c0.147,0,0.292-0.03,0.438-0.051c1.401,2.431,4.021,4.074,7.023,4.074
		c3.008,0,5.634-1.651,7.033-4.091c0.201,0.04,0.405,0.067,0.612,0.067c1.73,0,3.139-1.41,3.139-3.142
		C33.381,61.127,32.056,59.765,30.399,59.68z M13.994,62.805c0-0.38,0.204-0.708,0.495-0.914c0.002,0.684,0.098,1.344,0.261,1.978
		C14.312,63.708,13.994,63.297,13.994,62.805z M22.597,67.97c-3.369,0-6.109-2.74-6.109-6.109s2.74-6.11,6.109-6.11
		c3.368,0,6.109,2.741,6.109,6.11S25.965,67.97,22.597,67.97z M30.434,63.907c0.171-0.655,0.271-1.338,0.271-2.047
		c0-0.032-0.004-0.063-0.005-0.096c0.399,0.177,0.682,0.575,0.681,1.04C31.381,63.365,30.967,63.813,30.434,63.907z M20.392,62.829
		c-0.611,0-1.104-0.494-1.104-1.104c0-0.607,0.493-1.103,1.104-1.103c0.608,0,1.101,0.495,1.101,1.103
		C21.492,62.335,21,62.829,20.392,62.829z M26.214,61.726c0,0.609-0.494,1.104-1.104,1.104c-0.607,0-1.102-0.494-1.102-1.104
		c0-0.607,0.494-1.103,1.102-1.103C25.72,60.623,26.214,61.118,26.214,61.726z M24.78,64.006c0.391,0.391,0.391,1.023,0,1.414
		c-0.531,0.531-1.232,0.797-1.937,0.797c-0.723,0-1.45-0.278-2.005-0.832c-0.392-0.39-0.393-1.022-0.003-1.414
		s1.022-0.392,1.414-0.002c0.319,0.317,0.819,0.334,1.116,0.037C23.757,63.615,24.39,63.615,24.78,64.006z"/>
</g>
</svg>
