<?xml version="1.0" encoding="utf-8"?>
<!-- Generator: Adobe Illustrator 16.0.0, SVG Export Plug-In . SVG Version: 6.00 Build 0)  -->
<!DOCTYPE svg PUBLIC "-//W3C//DTD SVG 1.1//EN" "http://www.w3.org/Graphics/SVG/1.1/DTD/svg11.dtd">
<svg version="1.1" xmlns="http://www.w3.org/2000/svg" xmlns:xlink="http://www.w3.org/1999/xlink" x="0px" y="0px" width="100px"
	 height="100px" viewBox="0 0 100 100" enable-background="new 0 0 100 100" xml:space="preserve">
<g id="Calque_2">
</g>
<g id="Calque_1">
	<path d="M80.411,72.237c0-5.754-1.643-12.416-3.382-19.47c-2.95-11.96-6-24.328-0.596-31.953c0.007-0.01,0.008-0.021,0.014-0.031
		c0.011-0.016,0.027-0.024,0.038-0.041c0.903-1.498,1.361-3.095,1.361-4.748c0-5.926-6.063-10.838-13.95-11.717V1
		c0-0.552-0.448-1-1-1h-3.869c-0.552,0-1,0.448-1,1v3.372c-7.479,1.118-13.119,5.904-13.119,11.624c0,1.659,0.46,3.261,1.368,4.763
		c0.023,0.039,0.055,0.069,0.083,0.104c3.661,5.208,3.598,12.471,1.919,21.64l-0.399-2.015c-0.001-0.005-0.004-0.008-0.005-0.013
		c-0.257-2.709-5.441-4.128-10.578-4.128c-5.136,0-10.32,1.419-10.577,4.128c-0.001,0.005-0.004,0.008-0.005,0.013l-2.531,12.774
		c-0.013,0.064-0.019,0.129-0.019,0.194c0,0.817,1.018,1.552,2.555,2.161l-7.102,30.329c-0.038,0.164-0.035,0.333,0.01,0.495
		l3.09,11.142c0.123,0.443,0.524,0.733,0.963,0.733c0.088,0,0.178-0.012,0.268-0.037c0.11-0.03,0.203-0.087,0.292-0.148l9.611,1.852
		c0.062,0.012,0.125,0.018,0.189,0.018h7.215c0.06,0,0.119-0.005,0.177-0.016l9.795-1.766c0.041,0.018,0.073,0.048,0.118,0.06
		c0.089,0.024,0.179,0.037,0.268,0.037c0.438,0,0.84-0.291,0.963-0.733l0.059-0.211c0.004-0.016,0.01-0.03,0.013-0.046l0.807-2.909
		c2.737,0.437,5.699,0.82,8.976,0.82c2.613,0,15.65-0.173,15.65-3.589v-8.12c0-0.009-0.005-0.017-0.005-0.026
		C80.238,80.021,80.411,76.846,80.411,72.237z M60.027,2h1.869v2.143c-0.175-0.004-0.346-0.019-0.521-0.019
		c-0.455,0-0.902,0.023-1.347,0.049V2z M47.911,19.577c-0.66-1.143-1.003-2.346-1.003-3.582c0-5.443,6.489-9.871,14.466-9.871
		c7.979,0,14.471,4.428,14.471,9.871c0,1.241-0.345,2.449-1.012,3.596c-0.995,0.842-5.874,2.384-13.375,2.384
		C53.81,21.975,48.871,20.416,47.911,19.577z M49.556,22.464c2.789,0.862,7.034,1.511,11.901,1.511
		c4.923,0,9.035-0.641,11.742-1.488c-3.658,8.277-0.844,19.686,1.887,30.759c1.709,6.933,3.324,13.48,3.324,18.991
		c0,4.581-0.123,7.562-2.547,10.983c-0.004,0.006-0.004,0.013-0.008,0.019c-0.067,0.098-0.12,0.206-0.148,0.325
		c-0.841,0.737-5.978,1.972-13.876,1.972c-2.137,0-4.301-0.103-6.319-0.288l-7.002-29.902c1.177-0.551,1.92-1.191,1.92-1.891
		c0-0.065-0.006-0.13-0.019-0.194l-1.122-5.663C51.16,39.098,52.769,29.65,49.556,22.464z M37.296,38.346
		c5.675,0,8.602,1.637,8.602,2.336c0,0.698-2.927,2.334-8.602,2.334s-8.602-1.636-8.602-2.334
		C28.694,39.983,31.621,38.346,37.296,38.346z M28.246,43.044c1.963,1.299,5.518,1.972,9.05,1.972c3.533,0,7.087-0.673,9.051-1.972
		l2.009,10.141c-1.073,0.677-5.357,2.202-11.06,2.202c-5.702,0-9.986-1.524-11.06-2.202L28.246,43.044z M41.165,98h-7.03
		l-9.748-1.878l-2.765-9.97l7.004-29.911c2.642,0.718,5.984,1.146,8.67,1.146c2.914,0,6.598-0.503,9.324-1.334l7.048,30.1
		l-2.8,10.099L41.165,98z M62.429,93.235c-3.053,0-5.845-0.352-8.438-0.76l1.448-5.225c2.047,0.184,4.232,0.286,6.391,0.286
		c0.517,0,10.333-0.029,14.25-1.929v5.826C75.222,92.086,70.521,93.235,62.429,93.235z M34.505,42.024
		c1.039,0,1.765-0.545,1.765-1.325c0-0.782-0.726-1.328-1.765-1.328c-1.039,0-1.764,0.546-1.764,1.328
		C32.741,41.479,33.467,42.024,34.505,42.024z M40.307,42.024c1.038,0,1.763-0.545,1.763-1.325c0-0.782-0.725-1.328-1.763-1.328
		c-1.039,0-1.765,0.546-1.765,1.328C38.542,41.479,39.268,42.024,40.307,42.024z M34.507,60.702l-4.126,26.042
		c-0.078,0.492-0.503,0.843-0.986,0.843c-0.052,0-0.105-0.004-0.158-0.012c-0.545-0.086-0.917-0.599-0.831-1.145l4.126-26.042
		c0.087-0.545,0.594-0.913,1.145-0.831C34.222,59.644,34.594,60.156,34.507,60.702z M46.188,86.43
		c0.086,0.546-0.286,1.058-0.831,1.145c-0.053,0.008-0.106,0.012-0.158,0.012c-0.483,0-0.908-0.351-0.986-0.843l-4.126-26.042
		c-0.086-0.546,0.286-1.058,0.831-1.145c0.548-0.082,1.058,0.286,1.145,0.831L46.188,86.43z M41.974,88.684c0,0.552-0.448,1-1,1
		h-6.447c-0.552,0-1-0.448-1-1s0.448-1,1-1h6.447C41.526,87.684,41.974,88.132,41.974,88.684z"/>
</g>
</svg>
