<?xml version="1.0" encoding="utf-8"?>
<!-- Generator: Adobe Illustrator 16.0.0, SVG Export Plug-In . SVG Version: 6.00 Build 0)  -->
<!DOCTYPE svg PUBLIC "-//W3C//DTD SVG 1.1//EN" "http://www.w3.org/Graphics/SVG/1.1/DTD/svg11.dtd">
<svg version="1.1" xmlns="http://www.w3.org/2000/svg" xmlns:xlink="http://www.w3.org/1999/xlink" x="0px" y="0px" width="100px"
	 height="100px" viewBox="0 0 100 100" enable-background="new 0 0 100 100" xml:space="preserve">
<g id="Calque_2">
</g>
<g id="v2">
	<path d="M77.188,86.129l0.225-0.27c6.882-2.533,11.177-8.598,11.292-15.938c0.001-0.033,0.015-0.063,0.015-0.096
		c0-0.021-0.009-0.039-0.009-0.061c0-0.049,0.005-0.096,0.005-0.145c0-2.6-0.914-5.105-1.796-7.529
		c-0.771-2.119-1.5-4.117-1.5-5.898c0-0.014-0.003-0.025-0.003-0.039c0-0.01-0.002-0.021-0.002-0.031
		c-0.13-4.133-11.464-4.457-14.953-4.457c-1.907,0-6.159,0.098-9.642,0.861V42.094c0-0.029-0.016-0.053-0.019-0.082
		c-0.007-0.088-0.027-0.168-0.057-0.25c-0.018-0.051-0.032-0.098-0.057-0.145c-0.046-0.084-0.108-0.154-0.176-0.221
		c-0.025-0.025-0.038-0.061-0.066-0.084c-0.007-0.006-0.018-0.006-0.025-0.012c-0.093-0.07-0.201-0.119-0.317-0.154
		c-0.021-0.006-0.04-0.021-0.062-0.027c-0.003,0-0.004-0.002-0.007-0.002c-8.132-1.775-13.498-6.158-15.209-9.713
		c-0.57-1.186-0.696-2.248-0.4-3.045c0.585-0.408,0.961-0.916,0.961-1.563c0-0.156-0.037-0.313-0.107-0.451l-2.538-5.023
		c0.237-2.479,5.001-6.238,10.839-8.504c0.027-0.01,0.044-0.031,0.07-0.045c0.071-0.035,0.135-0.074,0.195-0.125
		c0.036-0.029,0.071-0.057,0.103-0.092c0.053-0.057,0.093-0.121,0.132-0.189c0.021-0.037,0.045-0.07,0.061-0.109
		c0.032-0.082,0.047-0.168,0.058-0.256c0.004-0.033,0.017-0.064,0.017-0.1c0-0.006,0.003-0.01,0.003-0.016V5.285
		c0-0.211-0.081-0.396-0.193-0.559c-0.017-0.023-0.03-0.049-0.049-0.072c-0.049-0.059-0.104-0.107-0.166-0.152
		c-0.037-0.029-0.074-0.055-0.115-0.078c-0.058-0.031-0.115-0.057-0.178-0.078c-0.025-0.008-0.045-0.023-0.071-0.031L36.182,0.029
		c-0.153-0.037-0.312-0.037-0.466-0.004L18.669,3.977c-0.029,0.008-0.053,0.025-0.081,0.035c-0.063,0.02-0.119,0.043-0.175,0.072
		c-0.042,0.023-0.079,0.051-0.116,0.078c-0.062,0.047-0.118,0.092-0.167,0.15c-0.017,0.021-0.029,0.045-0.044,0.066
		c-0.118,0.164-0.202,0.355-0.202,0.572v6.625c0,0.008,0.004,0.016,0.004,0.023c0,0.016,0.007,0.031,0.008,0.047
		c0.008,0.107,0.03,0.211,0.07,0.307c0.012,0.031,0.031,0.057,0.046,0.084c0.041,0.078,0.088,0.15,0.148,0.215
		c0.027,0.029,0.056,0.053,0.086,0.08c0.064,0.055,0.135,0.098,0.212,0.135c0.024,0.012,0.041,0.033,0.065,0.043
		c5.643,2.188,10.595,6.24,10.838,8.809l-2.54,5.027c-0.071,0.139-0.107,0.295-0.107,0.451c0,0.645,0.376,1.152,0.961,1.563
		c0.296,0.797,0.17,1.859-0.4,3.045c-1.71,3.555-7.077,7.938-15.209,9.713c-0.002,0-0.004,0.002-0.006,0.002
		c-0.025,0.006-0.045,0.023-0.07,0.031c-0.114,0.035-0.22,0.082-0.311,0.15c-0.007,0.006-0.018,0.006-0.025,0.012
		c-0.028,0.023-0.041,0.059-0.066,0.084c-0.068,0.068-0.13,0.137-0.176,0.221c-0.025,0.047-0.04,0.094-0.058,0.145
		c-0.029,0.082-0.05,0.162-0.057,0.25c-0.002,0.029-0.019,0.053-0.019,0.082v48.859c0,0.469,0.326,0.875,0.783,0.977l23.77,5.283
		c0.071,0.016,0.143,0.021,0.214,0.023c0.001,0,0.001,0,0.002,0l0,0h0.001h0.001c0.071-0.002,0.144-0.008,0.215-0.023l23.771-5.283
		c0.457-0.102,0.783-0.508,0.783-0.977v-6.346c0.849,0.48,1.75,0.902,2.702,1.254l0.225,0.268c3.498,4.174,4.528,5.723,1.788,8.613
		c-4.035,0.266-7.485,0.959-7.485,2.555c0,2.234,6.752,2.703,12.417,2.703s12.418-0.469,12.418-2.703
		c0-1.596-3.451-2.289-7.485-2.555C72.659,91.852,73.688,90.303,77.188,86.129z M76.536,84.057
		c-0.056,0.018-0.115,0.025-0.168,0.053c-3.722,1.279-8.08,1.279-11.802,0.002c-0.054-0.029-0.114-0.037-0.171-0.055
		c-5.266-1.871-8.848-6.066-9.869-11.309c3.339,1.836,9.8,2.699,15.944,2.699c6.141,0,12.598-0.861,15.939-2.695
		C85.386,77.994,81.803,82.188,76.536,84.057z M86.71,69.789c0,0.029-0.002,0.057-0.003,0.084
		c-0.139,1.242-5.853,3.574-16.238,3.574c-10.431,0-16.152-2.352-16.244-3.59c0-0.02-0.002-0.037-0.002-0.057
		c0.07-1.236,5.795-3.598,16.246-3.598C80.886,66.203,86.604,68.549,86.71,69.789z M86.354,66.867
		c-3.357-1.813-9.779-2.664-15.885-2.664c-6.119,0-12.554,0.855-15.905,2.676c0.335-1.469,0.869-2.963,1.393-4.43
		c0.566-1.58,1.104-3.098,1.375-4.525c3.769,1.775,11.399,1.887,13.134,1.887c0.003,0,0.006,0,0.009,0
		c1.712,0,9.326-0.111,13.106-1.879c0.271,1.574,0.852,3.174,1.459,4.844C85.533,64.125,86.03,65.5,86.354,66.867z M83.242,55.865
		c-1.606,1.014-6.191,1.945-12.766,1.945c-0.005,0-0.01,0-0.015,0c-6.58,0-11.167-0.93-12.77-1.943
		c0.879-0.908,5.222-2.201,12.77-2.201C78.005,53.666,82.351,54.957,83.242,55.865z M43.022,32.271
		c1.625,3.373,6.082,7.383,12.727,9.701l-18.7,4.156V29.924c1.321-0.043,3.434-0.188,5.21-0.652
		C42.264,30.203,42.514,31.211,43.022,32.271z M19.882,6.227l16.035,3.98c0.079,0.02,0.159,0.029,0.24,0.029
		c0.076,0,0.151-0.01,0.226-0.025l15.834-3.67v4.549l-16.054,3.695l-16.281-3.992V6.227z M35.934,2.029l12.987,3.223L36.165,8.207
		L23.179,4.984L35.934,2.029z M26.175,14.395l9.743,2.391c0.078,0.018,0.158,0.027,0.238,0.027c0.075,0,0.15-0.008,0.224-0.025
		l9.549-2.197c-2.988,2.074-5.182,4.518-5.208,6.881c-0.152,0.342-1.752,1.189-4.672,1.189c-2.923,0-4.523-0.85-4.666-1.145h0
		C31.384,19.145,29.185,16.574,26.175,14.395z M30.55,23.396c1.286,0.857,3.443,1.262,5.5,1.262s4.214-0.404,5.499-1.262
		l1.701,3.369c-0.725,0.471-3.213,1.176-7.2,1.176c-3.988,0-6.475-0.705-7.2-1.176L30.55,23.396z M29.077,32.271
		c0.51-1.061,0.759-2.068,0.764-3c1.775,0.465,3.888,0.609,5.209,0.652v16.205l-18.7-4.156
		C22.997,39.654,27.453,35.645,29.077,32.271z M13.279,43.34l21.771,4.838v46.811l-21.771-4.836V43.34z M58.82,90.152l-21.771,4.836
		V48.178L58.82,43.34v9.738c-1.908,0.662-3.261,1.633-3.298,3.053c0,0.01-0.002,0.018-0.002,0.025c0,0.012-0.003,0.021-0.003,0.033
		c0,1.555-0.701,3.514-1.443,5.588c-0.913,2.551-1.857,5.189-1.857,7.844c0,0.055,0.005,0.109,0.006,0.166
		c0,0.014-0.006,0.025-0.006,0.039c0,0.021,0.009,0.041,0.01,0.063c0.077,5.498,2.497,10.281,6.593,13.41V90.152z M70.466,98
		c-4.373,0-7.452-0.352-9.142-0.703c1.69-0.352,4.77-0.703,9.142-0.703s7.452,0.352,9.143,0.703C77.918,97.648,74.839,98,70.466,98z
		 M70.466,94.596c-0.755,0-1.529,0.008-2.303,0.029c1.846-2.898,0.691-5.273-1.325-7.869c1.182,0.209,2.393,0.322,3.628,0.322
		c1.236,0,2.447-0.113,3.628-0.322c-2.016,2.596-3.171,4.971-1.325,7.869C71.995,94.604,71.221,94.596,70.466,94.596z"/>
</g>
</svg>
