<?xml version="1.0" encoding="utf-8"?>
<!-- Generator: Adobe Illustrator 16.0.0, SVG Export Plug-In . SVG Version: 6.00 Build 0)  -->
<!DOCTYPE svg PUBLIC "-//W3C//DTD SVG 1.1//EN" "http://www.w3.org/Graphics/SVG/1.1/DTD/svg11.dtd">
<svg version="1.1" xmlns="http://www.w3.org/2000/svg" xmlns:xlink="http://www.w3.org/1999/xlink" x="0px" y="0px" width="100px"
	 height="100px" viewBox="0 0 100 100" enable-background="new 0 0 100 100" xml:space="preserve">
<g id="Calque_2">
</g>
<g id="Calque_1">
	<path d="M100,27.112C100,15.42,89.095,5.907,75.692,5.907c-8.782,0-16.766,4.077-21.095,10.688
		c-2.648-1.234-4.528-1.347-5.579-0.294L38.031,27.29c-0.801-0.344-1.6-0.659-2.395-0.936c-7.13-2.482-13.093-1.938-16.785,1.537
		c-5.879,5.533-4.478,17.25,3.429,29.295c-4.236,3.328-7.643,5.496-10.47,7.291c-3.06,1.943-5.477,3.479-7.611,5.613
		C1,73.29-0.383,76.798,0.091,80.514c0.394,3.09,2.114,6.234,4.975,9.095c2.975,2.976,6.048,4.484,9.135,4.484h0
		c3.137,0,6.288-1.561,9.364-4.637c2.134-2.134,3.669-4.551,5.612-7.61c1.694-2.668,3.723-5.854,6.743-9.764
		c7.627,6.045,15.485,9.274,21.748,9.274c3.473,0,6.457-0.992,8.635-3.042c3.693-3.475,4.6-9.392,2.552-16.661
		c-0.347-1.23-0.776-2.477-1.274-3.729l9.654-9.654C89.921,47.572,100,38.353,100,27.112z M75.692,7.907
		C87.992,7.907,98,16.523,98,27.112S87.992,46.316,75.692,46.316c-2.64,0-5.064-0.351-7.411-1.072
		c-0.349-0.181-0.51-0.456-0.584-0.66c-0.124-0.343-0.099-0.729,0.072-1.094c0.163-0.352,0.44-0.613,0.781-0.737
		c0.221-0.08,0.567-0.139,0.964,0.047c0.041,0.019,0.083,0.035,0.126,0.049c2.036,0.633,4.11,0.94,6.341,0.94
		c10.522,0,19.084-7.481,19.084-16.677s-8.562-16.677-19.084-16.677c-7.093,0-13.527,3.389-16.853,8.852
		c-0.747-0.521-1.481-1.009-2.186-1.435c-0.198-0.119-0.378-0.214-0.569-0.323C60.359,11.572,67.654,7.907,75.692,7.907z
		 M79.137,41.527c-1.554-3.778-5.632-9.226-10.83-14.422c-2.525-2.525-5.11-4.789-7.559-6.642c0.001-0.001,0.001-0.001,0.001-0.001
		c2.937-4.951,8.773-8.027,15.232-8.027c9.42,0,17.084,6.584,17.084,14.677C93.065,34.278,87.053,40.251,79.137,41.527z
		 M27.488,80.773c-1.877,2.956-3.359,5.29-5.337,7.269c-5.324,5.322-10.447,5.377-15.671,0.152
		c-2.544-2.544-4.067-5.287-4.405-7.934c-0.391-3.071,0.799-6.017,3.539-8.756c1.979-1.979,4.314-3.462,7.27-5.339
		c5.221-3.316,12.371-7.857,23.024-18.513c0,0,0.05-0.025,0.188-0.025c1.086,0,3.516,1.33,6.059,3.873
		c3.236,3.237,4.075,5.816,3.861,6.232C35.346,68.401,30.804,75.552,27.488,80.773z M64.931,76.858
		c-5.364,5.051-16.715,2.419-27.771-6.352c2.623-3.271,5.926-7.016,10.271-11.36c1.783-1.786-0.752-5.948-3.862-9.06
		c-2.708-2.709-5.642-4.459-7.473-4.459c-0.816,0-1.313,0.325-1.585,0.598c-4.037,4.036-7.558,7.176-10.66,9.705
		c-7.152-10.984-8.67-21.837-3.627-26.582c3.123-2.94,8.362-3.333,14.756-1.105c6.612,2.305,13.584,7.112,19.629,13.537
		c6.046,6.425,10.422,13.676,12.32,20.416C68.765,68.712,68.055,73.919,64.931,76.858z M56.065,40.409
		c-4.965-5.275-10.553-9.5-16.099-12.227l10.466-10.467c0.218-0.218,1.336-0.361,3.999,1.018c0.005,0.004,0.008,0.01,0.014,0.013
		c0.011,0.007,0.023,0.006,0.034,0.012c0.436,0.228,0.908,0.491,1.429,0.806c3.309,2,7.209,5.181,10.984,8.956
		c4.705,4.704,8.551,9.735,10.154,13.224c-0.354,0.019-0.706,0.046-1.065,0.046c-2.005,0-3.866-0.272-5.688-0.832
		c-0.777-0.343-1.638-0.372-2.428-0.083c-0.844,0.308-1.521,0.938-1.908,1.771c-0.396,0.845-0.446,1.775-0.14,2.621
		c0.293,0.807,0.887,1.451,1.673,1.817c0.04,0.02,0.082,0.035,0.125,0.049c2.173,0.676,4.411,1.039,6.788,1.14l-7.67,7.671
		C64.321,50.651,60.658,45.292,56.065,40.409z M19.408,73.843c2.252,2.135,3.544,4.803,3.544,7.322c0,0.553-0.448,1-1,1
		s-1-0.447-1-1c0-1.973-1.064-4.113-2.92-5.87c-1.71-1.62-3.856-2.653-5.328-2.575c-0.544,0.039-1.022-0.395-1.052-0.945
		c-0.03-0.552,0.393-1.022,0.945-1.053C14.645,70.626,17.26,71.808,19.408,73.843z"/>
</g>
</svg>
