<?xml version="1.0" encoding="utf-8"?>
<!-- Generator: Adobe Illustrator 16.0.0, SVG Export Plug-In . SVG Version: 6.00 Build 0)  -->
<!DOCTYPE svg PUBLIC "-//W3C//DTD SVG 1.1//EN" "http://www.w3.org/Graphics/SVG/1.1/DTD/svg11.dtd">
<svg version="1.1" xmlns="http://www.w3.org/2000/svg" xmlns:xlink="http://www.w3.org/1999/xlink" x="0px" y="0px" width="100px"
	 height="100px" viewBox="0 0 100 100" enable-background="new 0 0 100 100" xml:space="preserve">
<g id="Calque_2">
</g>
<g id="v2">
	<path d="M24.368,49.149c0.512-3.646,3.155-7.018,5.278-9.729c0.341-0.435,0.969-0.511,1.404-0.17s0.511,0.969,0.17,1.404
		c-1.976,2.522-4.434,5.66-4.872,8.773c-0.07,0.5-0.499,0.861-0.989,0.861c-0.046,0-0.093-0.003-0.141-0.01
		C24.672,50.202,24.292,49.696,24.368,49.149z M67.175,71.033v23.661c7.379,0.072,11.129,0.961,11.129,2.649
		c0,1.763-4.075,2.656-12.111,2.656s-12.11-0.894-12.11-2.656c0-1.686,3.737-2.575,11.093-2.649V71.031
		c-1.704-0.167-3.357-0.726-4.924-1.72c-1.776-1.128-3.361-2.729-4.711-4.757c-0.56-0.837-1.057-1.745-1.513-2.691L53.04,96.006
		c0,3.753-16.255,3.797-16.419,3.797s-16.42-0.044-16.42-3.826l-1.284-44.759c0-4.655,2.886-10.773,7.02-14.906
		c5.86-5.859,5.788-15.959,5.753-20.813c-0.005-0.722-0.009-1.327,0.006-1.796l0,0V1c0-0.552,0.448-1,1-1h7.789c0.552,0,1,0.448,1,1
		v12.408c0.026,0.085,0.059,0.169,0.062,0.262c0.016,0.473,0.012,1.093,0.006,1.83c-0.035,4.854-0.107,14.953,5.753,20.813
		c1.832,1.831,3.441,4.088,4.665,6.466c0.125-0.59,0.267-1.174,0.426-1.75c-0.002-0.042-0.002-0.081-0.002-0.117
		c0-0.692,0-2.532,13.775-2.532c13.477,0,13.769,1.76,13.775,2.484c0.002,0.008,0.009,0.013,0.011,0.021
		c0.749,2.657,1.129,5.477,1.129,8.382c0,2.902-0.38,5.724-1.129,8.385c-0.728,2.581-1.773,4.903-3.108,6.902
		c-1.349,2.025-2.934,3.626-4.712,4.756C70.558,70.312,68.891,70.872,67.175,71.033z M56.563,55.046
		c0.701,0.097,1.55,0.187,2.509,0.266l-0.229-0.517C57.938,54.872,57.182,54.958,56.563,55.046z M61.323,55.458
		c1.445,0.073,3.063,0.119,4.846,0.119c0.512,0,1.011-0.004,1.496-0.011l-2.013-4.563l-5.269,2.327L61.323,55.458z M62.231,57.517
		l0.477,1.081l2.323-1.026C64.017,57.564,63.089,57.544,62.231,57.517z M62.38,62.527l5.324,2.063l2.063-5.324l-1.929-0.747
		L63.126,60.6L62.38,62.527z M75.78,55.045c-1.489-0.208-3.631-0.395-6.371-0.482l0.417,0.946
		C72.303,55.419,74.337,55.245,75.78,55.045z M78.751,53.677c0.215-1.439,0.333-2.91,0.333-4.41c0-2.364-0.284-4.658-0.813-6.848
		c-1.704,0.553-5.146,1.022-12.102,1.022c-6.894,0-10.337-0.46-12.058-1.007c-0.527,2.188-0.81,4.477-0.81,6.833
		c0,1.489,0.117,2.952,0.328,4.383c0.846-0.324,2.231-0.583,4.44-0.793c-0.016-0.398,0.205-0.783,0.591-0.953l7.098-3.135
		c0.243-0.107,0.518-0.114,0.766-0.018c0.247,0.096,0.446,0.286,0.554,0.529l1.438,3.259C74.561,52.671,77.411,53.144,78.751,53.677
		z M56.558,40.911c2.103,0.292,5.434,0.531,9.611,0.531s7.509-0.24,9.611-0.531c-2.103-0.291-5.434-0.531-9.611-0.531
		S58.66,40.62,56.558,40.911z M33.695,12.704h5.789V2h-5.789V12.704z M51.045,95.794l1.133-39.182
		c-0.57-2.357-0.876-4.818-0.876-7.345c0-0.918,0.052-1.825,0.128-2.725c-1.119-3.199-3.127-6.404-5.539-8.816
		c-6.452-6.451-6.376-17.116-6.339-22.241c0.002-0.284,0.003-0.536,0.004-0.782h-5.871c0,0.246,0.002,0.498,0.004,0.782
		c0.037,5.125,0.113,15.79-6.339,22.241c-3.728,3.728-6.434,9.39-6.434,13.463l1.28,44.604c1.038,0.904,7.84,2.009,14.425,2.009
		C43.206,97.803,50.009,96.697,51.045,95.794z M61.323,67.623c3.103,1.968,6.639,1.967,9.739,0c1.541-0.979,2.927-2.384,4.12-4.177
		c1.219-1.826,2.177-3.957,2.847-6.335c0.048-0.17,0.082-0.347,0.126-0.519c-1.299,0.4-3.542,0.752-7.421,0.905l0.688,0.267
		c0.247,0.096,0.446,0.286,0.554,0.529c0.106,0.243,0.113,0.518,0.018,0.765l-2.786,7.189c-0.153,0.396-0.532,0.639-0.933,0.639
		c-0.12,0-0.242-0.022-0.361-0.068l-7.189-2.786c-0.515-0.2-0.771-0.779-0.571-1.294l1.026-2.649L60,57.415
		c-2.867-0.175-4.654-0.474-5.767-0.809c0.044,0.167,0.076,0.339,0.123,0.505c0.67,2.378,1.628,4.509,2.847,6.333
		C58.398,65.24,59.784,66.646,61.323,67.623z M74.952,97.344c-1.563-0.313-4.265-0.612-8.002-0.649
		c-0.183,0.234-0.455,0.395-0.775,0.395s-0.593-0.16-0.775-0.394c-3.719,0.039-6.408,0.337-7.966,0.649
		C59.102,97.677,62.052,98,66.192,98S73.284,97.677,74.952,97.344z M49.335,54.986c0.224,0.201,0.346,0.492,0.332,0.792
		l-1.193,25.08c-0.022,0.472-0.372,0.863-0.837,0.939c-3.532,0.579-7.739,0.938-10.98,0.938c-3.246,0-7.585-0.371-11.054-0.944
		c-0.465-0.077-0.813-0.468-0.836-0.939l-1.194-25.087c-0.014-0.3,0.108-0.591,0.332-0.792c0.224-0.2,0.527-0.289,0.824-0.243
		c3.472,0.552,8.266,0.922,11.929,0.922c3.642,0,8.407-0.365,11.856-0.909C48.808,54.696,49.112,54.786,49.335,54.986z
		 M47.611,56.896c-3.39,0.459-7.629,0.756-10.955,0.756c-3.347,0-7.616-0.302-11.029-0.768l1.098,23.06
		c3.219,0.485,7.028,0.792,9.931,0.792c2.854,0,6.635-0.305,9.858-0.787L47.611,56.896z"/>
</g>
</svg>
