<?xml version="1.0" encoding="utf-8"?>
<!-- Generator: Adobe Illustrator 16.0.0, SVG Export Plug-In . SVG Version: 6.00 Build 0)  -->
<!DOCTYPE svg PUBLIC "-//W3C//DTD SVG 1.1//EN" "http://www.w3.org/Graphics/SVG/1.1/DTD/svg11.dtd">
<svg version="1.1" xmlns="http://www.w3.org/2000/svg" xmlns:xlink="http://www.w3.org/1999/xlink" x="0px" y="0px" width="100px"
	 height="100px" viewBox="0 0 100 100" enable-background="new 0 0 100 100" xml:space="preserve">
<g id="Titres">
</g>
<g id="Calque_1">
	<path d="M54.925,50.497c-0.263-0.188-0.602-0.238-0.903-0.134c-4.528,1.539-31.228,19.516-38.73,27.016
		c-0.422,0.421-0.546,1.025-0.332,1.615c0.96,2.651,11.061,7.099,17.431,7.676c0.884,0.08,1.753,0.121,2.585,0.121
		c0,0,0.001,0,0.002,0c7.634,0,13.15-3.461,16.395-10.285c2.71-5.7,3.972-13.706,3.972-25.196
		C55.343,50.988,55.188,50.685,54.925,50.497z M49.564,75.647c-2.925,6.152-7.696,9.143-14.587,9.143h-0.003
		c-0.771,0-1.581-0.038-2.405-0.113c-6.396-0.579-14.374-4.619-15.596-6.149c7.403-7.219,29.896-22.272,36.361-25.657
		C53.227,63.218,52.021,70.482,49.564,75.647z M11.956,75.241c0.064,0.013,0.13,0.019,0.194,0.019c0.254,0,0.501-0.097,0.688-0.274
		c6.009-5.701,26.11-19.129,36.909-26.343c3.562-2.379,5.914-3.951,6.568-4.448c0.028-0.021,0.056-0.044,0.082-0.069
		c2.697-2.545,3.613-5.184,4.582-7.977l0.057-0.163c2.75-7.913,21.032-19.104,27.845-22.748c0.359-0.191,0.706-0.372,1.036-0.543
		c2.001-1.038,3.582-1.857,3.827-3.388c0.181-1.121-0.419-2.315-1.942-3.873c-0.369-0.377-0.966-0.402-1.366-0.06
		c-2.902,2.49-11.81,5.856-22.125,9.755C44.01,24.314,10.726,36.894,6.933,54.575c-1.074,5.005,0.545,15.324,2.986,19.036
		C10.542,74.559,11.209,75.092,11.956,75.241z M8.888,54.995C12.452,38.379,46.494,25.513,69.019,17
		c10.139-3.831,18.299-6.916,21.953-9.513c0.776,0.921,0.824,1.348,0.799,1.503c-0.086,0.536-1.452,1.244-2.773,1.929
		c-0.337,0.175-0.691,0.358-1.059,0.555c-0.252,0.135-25.223,13.59-28.79,23.855l-0.057,0.164c-0.921,2.651-1.716,4.943-4.026,7.141
		c-0.671,0.5-3.098,2.121-6.429,4.346c-10.549,7.047-29.935,19.997-36.636,26.056c-0.117-0.119-0.257-0.288-0.411-0.524
		C9.45,69.259,7.936,59.436,8.888,54.995z M98.782,9.227c-0.005-0.139-0.039-0.27-0.095-0.388c-0.238-3.153-3.193-6.475-6.055-8.637
		c-0.374-0.283-0.895-0.268-1.254,0.039c-3.801,3.26-13.992,6.957-25.793,11.238C40.375,20.626,5.845,33.153,1.892,53.073
		c0,0,0,0.001,0,0.001c-2.53,12.746-0.639,23.799,5.47,31.965c6.38,8.529,16.908,13.514,31.294,14.818
		c1.063,0.096,2.076,0.143,3.043,0.143c17.888-0.001,19.533-16.032,20.992-30.261c0.847-8.261,1.723-16.803,5.537-22.039
		c7.472-10.257,17.998-19.194,30.438-25.845c0.336-0.18,0.541-0.536,0.527-0.917L98.782,9.227z M3.853,53.464
		c3.733-18.815,37.65-31.12,62.415-40.104c11.865-4.304,21.359-7.748,25.77-11.083c2.965,2.412,4.816,5.247,4.663,7.204
		c-0.076,0.977-0.649,1.739-1.752,2.328C82.235,18.611,71.477,27.75,63.837,38.239c-4.133,5.674-5.036,14.489-5.91,23.015
		c-1.501,14.638-2.919,28.465-18.965,28.465h-0.003c-0.923,0-1.898-0.046-2.899-0.137c-12.599-1.141-21.792-5.47-27.325-12.865
		C4.036,70.437,2.211,61.744,3.853,53.464z M66.61,46.522c-4.132,5.673-5.035,14.488-5.91,23.013
		c-1.583,15.443-3.08,30.027-21.865,28.329c-13.796-1.25-23.847-5.968-29.872-14.023c-2.646-3.539-4.439-7.676-5.382-12.29
		c0.924,2.283,2.106,4.431,3.552,6.363c5.888,7.869,15.56,12.464,28.747,13.659c1.061,0.096,2.097,0.145,3.079,0.145
		c0.002,0,0.001,0,0.003,0c17.849,0,19.429-15.385,20.954-30.261c0.847-8.261,1.723-16.804,5.538-22.041
		c7.464-10.248,17.989-19.185,30.438-25.845c0.396-0.213,0.723-0.444,1.019-0.683l0.263,7.498
		C84.708,27.148,74.148,36.175,66.61,46.522z M35.337,82.055c2.324,0,5.035-1.211,7.253-3.24c1.76-1.609,3.038-3.556,3.599-5.481
		c0.611-2.101,0.314-3.951-0.838-5.211c-0.867-0.948-2.126-1.45-3.64-1.45c-2.324,0-5.038,1.211-7.259,3.241
		c-3.826,3.501-5.036,8.197-2.756,10.689C32.563,81.552,33.822,82.054,35.337,82.055z M35.802,71.389
		c1.861-1.701,4.07-2.717,5.909-2.717c0.653,0,1.56,0.139,2.164,0.8c0.895,0.978,0.63,2.488,0.394,3.302
		c-0.46,1.578-1.535,3.199-3.028,4.565c-1.859,1.701-4.065,2.716-5.903,2.716c-0.653,0-1.56-0.139-2.165-0.802
		C31.699,77.643,32.903,74.041,35.802,71.389z"/>
</g>
</svg>
