<?xml version="1.0" encoding="utf-8"?>
<!-- Generator: Adobe Illustrator 16.0.0, SVG Export Plug-In . SVG Version: 6.00 Build 0)  -->
<!DOCTYPE svg PUBLIC "-//W3C//DTD SVG 1.1//EN" "http://www.w3.org/Graphics/SVG/1.1/DTD/svg11.dtd">
<svg version="1.1" xmlns="http://www.w3.org/2000/svg" xmlns:xlink="http://www.w3.org/1999/xlink" x="0px" y="0px" width="100px"
	 height="100px" viewBox="0 0 100 100" enable-background="new 0 0 100 100" xml:space="preserve">
<g id="Calque_2">
</g>
<g id="Calque_1">
	<path d="M91.833,22.752c-0.096-2.574-3.017-3.23-7.044-4.128l-0.228-0.051V6.061c0-1.066-0.646-1.689-1.731-2.058
		C82.821,4,82.811,3.996,82.8,3.992c-0.137-0.046-0.282-0.087-0.434-0.125c-0.277-0.073-0.57-0.139-0.899-0.186
		c-0.101-0.015-0.22-0.021-0.325-0.033c-0.2-0.024-0.406-0.046-0.62-0.063c-0.12-0.01-0.236-0.021-0.36-0.029
		c-0.35-0.023-0.718-0.039-1.096-0.051C78.995,3.503,78.923,3.5,78.85,3.498c-0.877-0.023-1.818-0.024-2.806-0.024h-0.122h-0.246
		h-0.122c-0.995,0-1.941,0.001-2.823,0.025c-0.065,0.001-0.13,0.004-0.194,0.006c-0.378,0.012-0.747,0.027-1.097,0.051
		c-0.129,0.008-0.251,0.021-0.375,0.03c-0.204,0.018-0.401,0.038-0.592,0.061c-0.11,0.014-0.235,0.02-0.34,0.035
		C69.8,3.729,69.504,3.796,69.225,3.87c-0.145,0.036-0.284,0.076-0.416,0.12C68.795,3.995,68.781,4,68.767,4.005
		c-1.08,0.369-1.723,0.991-1.723,2.055L67.03,18.571l-0.21,0.047c-4.105,0.913-7.072,1.572-7.072,4.261
		c0,0.055,0.013,0.104,0.016,0.158l-0.018,37.475c-0.939-0.034-1.914-0.057-2.953-0.057c-1.396,0-2.696,0.032-3.911,0.094V42.157
		c0-18.877-5.325-23.763-10.962-28.936c-0.803-0.737-1.631-1.502-2.445-2.306c0.126-0.229,0.214-0.472,0.214-0.748V3.046
		C39.689,0.146,32.044,0,30.511,0s-9.178,0.146-9.178,3.046v7.122c0,0.276,0.088,0.52,0.215,0.748
		c-0.814,0.804-1.642,1.568-2.445,2.306C13.466,18.395,8.141,23.28,8.141,42.157V91.08c0,3.687,17.123,3.973,22.37,3.973
		c3.587,0,7.09-0.132,10.244-0.369v0.003c0,3.525,5.396,5.313,16.038,5.313c10.654,0,16.056-1.788,16.056-5.313v-0.126
		c0.955,0.036,1.937,0.061,2.954,0.061c10.654,0,16.056-1.787,16.056-5.313v-66.43C91.859,22.834,91.839,22.795,91.833,22.752z
		 M69.03,8.617c1.689,0.886,4.235,1.344,6.769,1.344c2.53,0,5.072-0.455,6.763-1.337v11.854c0,0.552-2.37,1.9-6.763,1.9
		c-4.398,0-6.771-1.349-6.771-1.899L69.03,8.617z M75.922,5.474h0.088c0.616,0,1.305,0.001,2,0.01c0.007,0,0.015,0.001,0.022,0.001
		c0.155,0.002,0.311,0.005,0.466,0.008c1.881,0.04,3.758,0.167,4.064,0.568c0,0.552-2.37,1.9-6.763,1.9
		c-4.355,0-6.714-1.327-6.748-1.887c0.292-0.334,1.554-0.484,3.04-0.551c0.094-0.004,0.189-0.007,0.285-0.011
		c0.062-0.002,0.123-0.005,0.185-0.007c1.017-0.032,2.091-0.032,2.994-0.032h0.122H75.922z M67.043,20.618
		c0.161,2.468,4.479,3.761,8.756,3.761c4.272,0,8.585-1.293,8.748-3.76c3.284,0.734,5.296,1.252,5.296,2.26
		c0,1.648-4.346,3.313-14.056,3.313c-9.513,0-13.86-1.602-14.022-3.219v-0.094c0-0.012-0.006-0.021-0.007-0.033
		C61.803,21.858,63.798,21.342,67.043,20.618z M70.849,65.769c0,1.649-4.346,3.313-14.056,3.313c-9.697,0-14.038-1.664-14.038-3.313
		s4.341-3.313,14.038-3.313C66.503,62.455,70.849,64.119,70.849,65.769z M27.2,72.698c-1.465-1.577-1.697-3.634-0.665-6.127
		c1.361-3.285,4.426-6.208,6.924-7.634c-1.417,3.042,0.372,5.404,1.759,7.234c1.731,2.285,2.88,3.819,0.38,6.461
		c-1.557,0.312-3.078,0.402-4.362,0.385c-0.384-0.006-0.784-0.018-1.19-0.038C29.035,72.93,28.09,72.832,27.2,72.698z
		 M36.813,64.964c-1.813-2.394-3.124-4.122-0.006-7.24c0.286-0.286,0.372-0.716,0.217-1.09s-0.52-0.617-0.924-0.617
		c-3.644,0-9.402,4.94-11.411,9.79c-0.956,2.307-1.009,4.463-0.226,6.294c-1.675-0.504-3.01-1.206-3.941-2.098
		c-1.775-1.7-2.582-4.393-2.055-6.859c0.372-1.741,1.336-3.296,2.356-4.941c0.708-1.142,1.44-2.322,1.976-3.593
		c0.666-1.577,0.959-3.129,0.886-4.556c0.337,0.483,0.649,1.029,0.939,1.64c0.737,1.559,0.87,3.312,0.373,4.938
		c-0.148,0.482,0.087,0.999,0.549,1.205c0.461,0.204,1.002,0.035,1.264-0.396c1.531-2.54,2.064-5.489,1.5-8.304
		c-0.157-0.79-0.395-1.551-0.625-2.287c-0.291-0.932-0.565-1.812-0.671-2.698c-0.222-1.868,0.357-3.826,1.589-5.373
		c0.372-0.466,0.803-0.896,1.281-1.282c-0.701,1.493-0.945,3.159-0.657,4.831c0.326,1.892,1.324,3.774,2.965,5.595
		c1.411,1.566,3.082,2.873,4.697,4.137c0.288,0.225,0.675,0.276,1.01,0.131c0.335-0.144,0.566-0.459,0.601-0.822
		c0.139-1.42,0.596-2.436,1.48-3.292c0.297-0.286,0.625-0.545,0.978-0.775c-0.486,1.348-0.546,2.9-0.128,4.486
		c0.419,1.584,1.317,2.87,2.185,4.114c0.795,1.14,1.546,2.216,1.882,3.441c0.205,0.749,0.313,1.527,0.326,2.319
		c-2.96,0.886-4.467,2.254-4.467,4.107v4.7c-0.672,0.489-1.378,0.904-2.113,1.229C39.821,68.954,38.192,66.786,36.813,64.964z
		 M23.333,10.008V5.102c2.376,0.918,6.15,0.988,7.178,0.988s4.802-0.07,7.178-0.988v4.906c-0.515,0.441-3.025,1.206-7.178,1.206
		C26.358,11.214,23.848,10.449,23.333,10.008z M30.511,2c3.681,0,6.072,0.601,6.926,1.045c-0.854,0.444-3.246,1.045-6.926,1.045
		c-3.68,0-6.071-0.601-6.926-1.045C24.439,2.601,26.83,2,30.511,2z M30.511,93.053c-11.681,0-19.179-1.249-20.37-2.192V42.157
		c0-17.998,4.78-22.384,10.314-27.462c0.879-0.806,1.787-1.639,2.688-2.541c2.36,0.99,6.313,1.06,7.368,1.06s5.007-0.069,7.368-1.06
		c0.902,0.901,1.81,1.735,2.689,2.541c5.534,5.078,10.314,9.464,10.314,27.462v18.531c-1.362,0.118-2.595,0.28-3.684,0.491
		c-0.044-0.805-0.164-1.598-0.374-2.365c-0.426-1.559-1.313-2.83-2.17-4.059c-0.804-1.152-1.563-2.24-1.892-3.48
		c-0.441-1.67-0.271-3.928,1.527-5.26c0.37-0.274,0.505-0.766,0.327-1.19c-0.178-0.425-0.622-0.678-1.079-0.601
		c-1.888,0.299-3.645,1.155-4.948,2.412c-0.837,0.811-1.411,1.733-1.751,2.836c-1.124-0.902-2.224-1.848-3.163-2.89
		c-1.385-1.536-2.219-3.082-2.48-4.596c-0.44-2.552,0.714-5.006,3.087-6.563c0.403-0.265,0.56-0.778,0.374-1.223
		c-0.187-0.445-0.664-0.696-1.134-0.591c-2.58,0.56-4.944,1.988-6.486,3.921c-1.563,1.963-2.296,4.462-2.012,6.856
		c0.128,1.07,0.443,2.08,0.748,3.058c0.224,0.718,0.436,1.396,0.573,2.083c0.1,0.499,0.158,1.003,0.175,1.509
		c-0.03-0.067-0.06-0.134-0.091-0.2c-1.111-2.342-2.547-3.929-4.39-4.851c-0.413-0.207-0.913-0.103-1.211,0.249
		c-0.298,0.353-0.316,0.863-0.043,1.236c1.633,2.232,0.663,5.191,0.169,6.36c-0.475,1.127-1.134,2.19-1.833,3.315
		c-1.066,1.72-2.168,3.497-2.613,5.578c-0.668,3.13,0.363,6.553,2.628,8.723c2.19,2.095,5.827,3.282,10.812,3.529
		c0.43,0.021,0.852,0.034,1.256,0.04c0.141,0.002,0.285,0.004,0.432,0.004c2.651,0,6.101-0.438,9.118-2.168v19.825
		C37.613,92.92,34.106,93.053,30.511,93.053z M56.793,98c-9.697,0-14.038-1.664-14.038-3.313V68.83
		c2.446,1.493,7.129,2.252,14.038,2.252c6.919,0,11.608-0.759,14.056-2.254v25.858C70.849,96.336,66.503,98,56.793,98z
		 M75.803,92.621c-1.019,0-2.001-0.024-2.954-0.062V65.769c0-2.928-3.738-4.653-11.103-5.155l0.016-34.664
		c2.45,1.487,7.128,2.242,14.024,2.242c6.936,0,11.63-0.762,14.073-2.264v63.381C89.859,90.957,85.513,92.621,75.803,92.621z
		 M72.458,16.994v-4.12c0-0.553,0.448-1,1-1s1,0.447,1,1v4.12c0,0.553-0.448,1-1,1S72.458,17.547,72.458,16.994z M84.279,55.024
		l-2.009-5.063c-0.101-0.254-0.301-0.455-0.554-0.558l-2.349-0.952c-0.275-0.688-0.695-1.275-1.215-1.726
		c0.252-0.272,0.462-0.589,0.634-0.938l3.319,0.586l3.143,2.679c0.188,0.161,0.419,0.239,0.648,0.239
		c0.283,0,0.564-0.119,0.762-0.352c0.358-0.42,0.308-1.051-0.112-1.409l-3.35-2.855c-0.136-0.116-0.3-0.193-0.475-0.224
		l-3.474-0.612c0-0.092-0.018-0.177-0.023-0.267l3.745-0.788c0.265-0.056,0.495-0.216,0.64-0.445l2.216-3.512
		c0.295-0.467,0.155-1.084-0.312-1.379c-0.465-0.294-1.085-0.155-1.379,0.313l-1.99,3.153l-3.478,0.731
		c-0.176-0.301-0.396-0.561-0.635-0.796c0.445-0.517,0.724-1.181,0.724-1.914c0-0.424-0.094-0.825-0.255-1.19
		c1.971-1.194,4.383-3.35,4.383-6.758c0-0.553-0.448-1-1-1s-1,0.447-1,1c0,2.685-2.216,4.395-3.829,5.285
		c-0.381-0.18-0.801-0.288-1.25-0.288s-0.869,0.108-1.25,0.288c-1.613-0.891-3.829-2.6-3.829-5.285c0-0.553-0.448-1-1-1
		s-1,0.447-1,1c0,3.408,2.413,5.563,4.383,6.758c-0.162,0.365-0.255,0.767-0.255,1.19c0,0.733,0.279,1.397,0.724,1.914
		c-0.239,0.235-0.459,0.495-0.635,0.797l-3.479-0.732l-1.99-3.153c-0.294-0.467-0.911-0.606-1.379-0.313
		c-0.467,0.295-0.607,0.912-0.312,1.379l2.216,3.512c0.145,0.229,0.375,0.39,0.64,0.445l3.745,0.788
		c-0.006,0.09-0.023,0.175-0.024,0.267l-3.474,0.612c-0.175,0.03-0.339,0.107-0.475,0.224l-3.35,2.855
		c-0.42,0.358-0.47,0.989-0.112,1.409c0.198,0.232,0.479,0.352,0.762,0.352c0.229,0,0.46-0.078,0.648-0.239l3.143-2.679l3.319-0.586
		c0.172,0.349,0.381,0.666,0.634,0.938c-0.52,0.45-0.94,1.038-1.215,1.726l-2.35,0.952c-0.253,0.103-0.453,0.304-0.554,0.558
		l-2.009,5.063l-2.44,1.941c-0.432,0.344-0.504,0.973-0.16,1.405c0.198,0.248,0.489,0.377,0.783,0.377
		c0.218,0,0.438-0.071,0.622-0.218l2.648-2.107c0.137-0.108,0.243-0.251,0.307-0.413l1.95-4.912l0.872-0.354
		c0.185,2.299,1.851,4.112,3.896,4.112c2.044,0,3.71-1.813,3.895-4.112l0.872,0.354l1.95,4.912c0.064,0.162,0.17,0.305,0.307,0.413
		l2.648,2.107c0.184,0.146,0.404,0.218,0.622,0.218c0.294,0,0.585-0.129,0.783-0.377c0.344-0.433,0.272-1.062-0.16-1.405
		L84.279,55.024z M74.852,38.938c0-0.524,0.427-0.951,0.951-0.951c0.524,0,0.95,0.427,0.95,0.951s-0.426,0.951-0.95,0.951
		C75.278,39.889,74.852,39.462,74.852,38.938z M74.356,43.849c0-1.063,0.662-1.96,1.446-1.96c0.783,0,1.445,0.897,1.445,1.96
		c0,1.062-0.662,1.958-1.445,1.958C75.019,45.807,74.356,44.91,74.356,43.849z M75.803,52.856c-1.065,0-1.932-1.133-1.932-2.525
		c0-1.392,0.867-2.524,1.932-2.524c1.064,0,1.931,1.133,1.931,2.524C77.733,51.724,76.867,52.856,75.803,52.856z"/>
</g>
</svg>
