<?xml version="1.0" encoding="utf-8"?>
<!-- Generator: Adobe Illustrator 16.0.0, SVG Export Plug-In . SVG Version: 6.00 Build 0)  -->
<!DOCTYPE svg PUBLIC "-//W3C//DTD SVG 1.1//EN" "http://www.w3.org/Graphics/SVG/1.1/DTD/svg11.dtd">
<svg version="1.1" xmlns="http://www.w3.org/2000/svg" xmlns:xlink="http://www.w3.org/1999/xlink" x="0px" y="0px" width="100px"
	 height="100px" viewBox="0 0 100 100" enable-background="new 0 0 100 100" xml:space="preserve">
<g id="Calque_1">
</g>
<g id="Calque_2">
	<path d="M88.177,46.873c-0.834-3.552-8.949-5.673-16.927-6.54l2.598-13.514l8.906,1.713c0.063,0.012,0.126,0.018,0.188,0.018
		c0.199,0,0.395-0.059,0.562-0.172c0.22-0.149,0.371-0.379,0.421-0.64l1.156-6.062c0-0.001,0.001-0.002,0.001-0.003
		c0-0.001,0-0.002,0-0.003l1.156-6.064c0.104-0.542-0.252-1.065-0.793-1.169L59.041,9.349c-0.263-0.05-0.53,0.004-0.751,0.154
		c-0.22,0.149-0.371,0.379-0.421,0.64l-2.314,12.14c-0.104,0.542,0.252,1.065,0.794,1.169l9.338,1.796l-2.802,14.578
		c-0.655-0.012-1.309-0.026-1.979-0.026c-4.629,0-9.276,0.3-13.395,0.891c0.3-2.421,0.649-4.428,0.963-6.227
		c0.435-2.49,0.778-4.457,0.777-6.363l0,0v-11.5c0-0.166-0.05-0.315-0.121-0.453C48.114,7.078,40.406,0,31.068,0
		c-9.337,0-17.045,7.078-18.061,16.149c-0.071,0.138-0.121,0.287-0.121,0.453v11.5c0,1.904,0.343,3.87,0.777,6.359
		c0.703,4.031,1.666,9.551,1.666,18.223c0,8.007-1.175,13.301-2.212,17.972c-0.741,3.342-1.382,6.228-1.382,9.34
		c0,4.446,11.857,6.103,19.332,6.103c3.492,0,7.036-0.313,10.108-0.883l1.536,7.621C42.861,97.323,52.205,100,61.24,100
		c8.725,0,17.993-2.47,18.132-7.052l8.655-44.371c0.157-0.36,0.236-0.729,0.236-1.101v-0.209
		C88.264,47.126,88.229,46.995,88.177,46.873z M59.646,11.502l24.44,4.708l-0.782,4.102l-24.44-4.706L59.646,11.502z M58.489,17.57
		l24.44,4.706l-0.782,4.103l-24.441-4.701L58.489,17.57z M71.883,26.441l-5.102,26.541c-1.398,0.08-2.875,0.129-4.415,0.149
		l5.285-27.504L71.883,26.441z M61.979,55.14c1.51-0.015,2.983-0.059,4.412-0.133L59.687,89.89c-0.121,0.559-0.469,1.066-0.955,1.39
		c-0.489,0.326-1.063,0.44-1.606,0.323c-1.129-0.249-1.892-1.517-1.626-2.739L61.979,55.14z M62.502,41.822l-2.176,11.322
		c-13.444-0.071-22.936-2.548-24.579-4.99l-0.182-0.899c0.188-1.994,8.646-5.454,25.34-5.454
		C61.447,41.801,61.971,41.814,62.502,41.822z M47.251,19.785c0,4.015-12.077,7.015-22.876,7.015c-2.944,0-5.433-0.236-7.195-0.684
		c-1.881-0.477-2.293-1.037-2.293-1.212v-5.356c6.369,4.163,25.995,4.163,32.364,0V19.785z M14.887,27.423
		c0.508,0.241,1.102,0.454,1.801,0.632c1.921,0.488,4.579,0.746,7.688,0.746c6.406,0,18.192-1.375,22.876-5.304v4.605
		c0,1.673-6.304,4.104-16.183,4.104c-9.878,0-16.182-2.43-16.182-4.104V27.423z M31.068,2c8.486,0,15.454,6.571,16.117,14.89
		c-0.658,1.65-6.791,3.815-16.117,3.815c-9.325,0-15.459-2.165-16.116-3.815C15.615,8.571,22.582,2,31.068,2z M31.068,84.1
		c-10.582,0-17.332-2.694-17.332-4.103c0-2.894,0.618-5.68,1.335-8.907c0.931-4.197,2.071-9.349,2.236-16.614
		c1,5.077,1.904,11.22,1.904,18.498c0,0.552,0.447,1,1,1s1-0.448,1-1c0-10.583-1.856-18.815-3.212-24.826
		c-0.631-2.799-1.129-5.01-1.268-6.693c0-0.003-0.003-0.006-0.003-0.01c-0.331-2.939-0.745-5.317-1.096-7.327
		c-0.185-1.063-0.347-2.014-0.477-2.908c3.271,1.974,9.613,2.996,15.911,2.996c6.299,0,12.643-1.022,15.913-2.997
		c-0.13,0.895-0.292,1.848-0.478,2.912c-0.343,1.961-0.727,4.169-1.047,6.898c-6.842,1.202-11.779,3.284-11.899,6.198
		c-0.001,0.017-0.01,0.032-0.01,0.05v0.36c0,0.42,0.102,0.836,0.302,1.238l6.932,34.391C37.836,83.801,34.432,84.1,31.068,84.1z
		 M77.393,92.652c-0.013,0.063-0.019,0.127-0.019,0.191c0,2.434-6.899,5.157-16.134,5.157c-9.156,0-16.529-2.884-16.529-5.272
		c0-0.066-0.007-0.132-0.02-0.198l-8.345-41.402c4.263,2.373,13.08,3.923,23.596,4.013l-6.403,33.322
		c-0.494,2.275,0.951,4.608,3.159,5.094c0.284,0.062,0.57,0.092,0.855,0.092c0.802,0,1.592-0.24,2.287-0.705
		c0.929-0.619,1.568-1.554,1.806-2.654l6.807-35.412c7.6-0.56,13.738-1.96,17.064-3.885L77.393,92.652z M68.845,52.845l2.025-10.539
		c10.145,1.075,15.057,3.54,15.363,5.021l-0.117,0.6C85.079,49.665,79.147,52.016,68.845,52.845z M30.068,5.169c0-0.552,0.447-1,1-1
		c3.191,0,11.673,4.096,13.127,10.555c0.121,0.539-0.217,1.074-0.756,1.195c-0.074,0.017-0.148,0.024-0.221,0.024
		c-0.457,0-0.87-0.315-0.975-0.78c-1.148-5.102-8.521-8.994-11.176-8.994C30.516,6.169,30.068,5.721,30.068,5.169z"/>
</g>
</svg>
