<?xml version="1.0" encoding="utf-8"?>
<!-- Generator: Adobe Illustrator 16.0.0, SVG Export Plug-In . SVG Version: 6.00 Build 0)  -->
<!DOCTYPE svg PUBLIC "-//W3C//DTD SVG 1.1//EN" "http://www.w3.org/Graphics/SVG/1.1/DTD/svg11.dtd">
<svg version="1.1" xmlns="http://www.w3.org/2000/svg" xmlns:xlink="http://www.w3.org/1999/xlink" x="0px" y="0px" width="100px"
	 height="100px" viewBox="0 0 100 100" enable-background="new 0 0 100 100" xml:space="preserve">
<g id="Calque_1">
</g>
<g id="Calque_2">
	<path d="M94.715,16.994c0-5.644-3.531-10.57-8.825-12.413c-1.815-2.45-11.942-2.657-15.255-2.657S57.196,2.131,55.38,4.581
		c-4.039,1.405-7.046,4.606-8.246,8.582L43.837,2.549c-0.001-0.005-0.005-0.008-0.007-0.013c-0.009-0.026-0.007-0.057-0.018-0.083
		C43.012,0.439,35.995,0,30.047,0c-5.948,0-12.966,0.439-13.766,2.454c-0.007,0.016-0.006,0.035-0.012,0.052
		c-0.006,0.016-0.019,0.027-0.024,0.043l-4.052,13.04c-0.016,0.05-0.008,0.1-0.016,0.15c-0.007,0.05-0.029,0.095-0.029,0.146
		c0,0.031,0.004,0.061,0.005,0.091c0,0.004,0,0.008,0,0.012c0.001,0.014,0.001,0.027,0.002,0.041
		c-4.162,1.937-6.872,6.104-6.87,10.848l3.737,64.52c0,0.004,0.002,0.007,0.002,0.01c0.042,1.108,1.126,1.738,6.766,2.275
		c3.813,0.363,8.875,0.563,14.254,0.563c5.378,0,10.44-0.2,14.253-0.563c5.64-0.537,6.724-1.167,6.766-2.275
		c0-0.003,0.002-0.006,0.002-0.01l0.392-6.768l3.919,12.614c0.01,0.032,0.031,0.057,0.044,0.088
		c0.024,0.063,0.056,0.124,0.092,0.184c0.009,0.013,0.018,0.024,0.027,0.037C56.907,99.66,65.394,100,70.64,100
		c5.463,0,14.443-0.368,15.228-2.721c0.005-0.014,0.014-0.023,0.019-0.037l4.513-14.521c0.016-0.05,0.008-0.1,0.016-0.15
		c0.007-0.05,0.029-0.095,0.029-0.146c0-0.021-0.003-0.042-0.004-0.063c0.078-0.132,0.137-0.276,0.147-0.439L94.715,16.994z
		 M70.635,3.924c7.153,0,11.619,0.845,13.118,1.462c-1.499,0.618-5.965,1.464-13.118,1.464s-11.62-0.847-13.117-1.464
		C59.016,4.769,63.482,3.924,70.635,3.924z M55.752,6.57c2.529,2.094,11.75,2.28,14.883,2.28s12.354-0.187,14.884-2.28
		c4.33,1.637,7.196,5.737,7.198,10.36l-4.061,63.842c-0.97-0.304-2.427-0.568-4.612-0.81c-3.588-0.396-8.351-0.614-13.409-0.614
		c-5.06,0-9.823,0.218-13.412,0.614c-2.183,0.241-3.639,0.505-4.609,0.809l-4.059-63.778C48.555,12.31,51.421,8.207,55.752,6.57z
		 M83.991,96.6c-0.518,0.303-2.238,0.72-5.119,1.021c-0.545-2.576-3.96-4.504-8.232-4.504c-4.273,0-7.688,1.928-8.234,4.504
		c-2.904-0.303-4.631-0.726-5.133-1.029L52.972,82.75c1.682-0.634,8.132-1.4,17.663-1.4c9.529,0,15.978,0.766,17.66,1.4L83.991,96.6
		z M14.338,15.541c-0.01-0.005-0.021-0.009-0.03-0.015l3.458-11.128c1.152,0.469,2.847,0.779,4.792,0.977
		c0.511,2.354,3.613,4.113,7.49,4.113s6.979-1.759,7.49-4.113c1.939-0.197,3.629-0.506,4.781-0.973l3.458,11.129
		c-1.627,0.558-7.375,1.218-15.735,1.218C21.728,16.749,16.002,16.097,14.338,15.541z M24.801,5.551
		c1.722,0.101,3.527,0.14,5.246,0.14s3.524-0.039,5.246-0.14c-0.728,1.029-2.672,1.937-5.246,1.937S25.529,6.58,24.801,5.551z
		 M40.74,2.845C38.917,3.257,35.321,3.69,30.047,3.69c-5.275,0-8.872-0.433-10.694-0.845C21.175,2.433,24.772,2,30.047,2
		C35.321,2,38.917,2.433,40.74,2.845z M30.047,92.244c-10.552,0-17.55-0.761-19.049-1.363L7.285,26.819
		c0-4.226,2.64-7.936,6.597-9.339c0.885,0.271,2.188,0.505,4.104,0.716c3.227,0.356,7.508,0.552,12.055,0.552
		s8.828-0.196,12.055-0.552c2.207-0.244,3.604-0.517,4.48-0.842l3.547,55.774l-1.028,17.752
		C47.596,91.483,40.598,92.244,30.047,92.244z M64.43,97.796c0.524-1.358,2.927-2.68,6.209-2.68c3.282,0,5.684,1.321,6.208,2.68
		C75.088,97.92,73.021,98,70.64,98C68.257,98,66.19,97.92,64.43,97.796z M53.903,54.985c-0.367-0.414-0.329-1.045,0.084-1.412
		c2.326-2.062,7.772-6.891,7.772-15.021c0-9.94,4.845-13.604,7.733-14.903c3.707-1.668,8.284-1.208,10.882,1.093
		c1.776,1.578,2.924,4.551,2.924,7.575c0,1.62,0.757,3.765,1.588,4.501c0.909,0.806,0.358,2.123-0.641,4.514
		c-0.383,0.917-0.818,1.956-1.127,2.914c-0.199,0.616-0.319,1.216-0.435,1.796c-0.296,1.486-0.666,3.335-2.774,3.335
		c-1.116,0-2.145-0.202-3.139-0.397c-1.986-0.39-3.161-0.566-4.21,0.365c-0.414,0.367-1.046,0.327-1.412-0.084
		c-0.367-0.414-0.329-1.045,0.084-1.412c1.841-1.632,3.917-1.224,5.922-0.832c0.901,0.177,1.833,0.36,2.754,0.36
		c0.363,0,0.482-0.074,0.813-1.727c0.121-0.606,0.258-1.293,0.493-2.02c0.335-1.038,0.787-2.118,1.185-3.071
		c0.355-0.848,0.825-1.974,0.923-2.476c-1.14-1.209-1.871-3.476-1.998-5.239c-2.062,1.741-5.337,3.205-6.576,3.374
		c-1.334,6.607-6.495,12.459-10.519,16.483c-0.195,0.195-0.451,0.293-0.707,0.293s-0.512-0.098-0.707-0.293
		c-0.391-0.391-0.391-1.023,0-1.414c2.54-2.54,10.268-10.268,10.268-18.249c0-0.552,0.448-1,1-1s1,0.448,1,1
		c0,0.369-0.026,0.735-0.053,1.101c1.745-0.518,5.724-2.939,6.034-3.952c-0.349-1.643-1.07-3.107-2.019-3.95
		c-1.747-1.547-5.306-2.309-8.734-0.765c-2.447,1.101-6.553,4.264-6.553,13.079c0,9.029-5.918,14.276-8.445,16.517
		c-0.19,0.169-0.427,0.252-0.663,0.252C54.375,55.321,54.101,55.208,53.903,54.985z M67.8,40.612c-0.552,0-1-0.448-1-1
		c0-7.813,3.599-12.649,6.933-12.649c0.552,0,1,0.448,1,1s-0.448,1-1,1c-1.771,0-4.933,3.559-4.933,10.649
		C68.8,40.165,68.352,40.612,67.8,40.612z M41.349,47.698c-0.309,0.738-0.659,1.575-0.907,2.343
		c-0.157,0.488-0.253,0.967-0.345,1.431c-0.24,1.203-0.569,2.851-2.431,2.851c-0.92,0-1.799-0.172-2.574-0.324
		c-1.547-0.304-2.46-0.442-3.241,0.251c-0.414,0.366-1.046,0.328-1.412-0.084c-0.367-0.413-0.329-1.045,0.084-1.412
		c1.56-1.383,3.363-1.029,4.953-0.718c0.719,0.141,1.463,0.287,2.189,0.287c0.09,0,0.123-0.014,0.124-0.014
		c0.124-0.117,0.257-0.786,0.346-1.229c0.099-0.495,0.21-1.056,0.403-1.653c0.273-0.847,0.641-1.726,0.965-2.5
		c0.262-0.627,0.606-1.451,0.712-1.87c-0.849-0.951-1.4-2.547-1.563-3.922c-1.614,1.278-3.903,2.325-5.003,2.531
		c-1.132,5.335-5.282,10.044-8.526,13.289c-0.195,0.195-0.451,0.293-0.707,0.293s-0.512-0.098-0.707-0.293
		c-0.391-0.391-0.391-1.023,0-1.414c2.04-2.04,8.246-8.246,8.246-14.619c0-0.552,0.448-1,1-1s1,0.448,1,1
		c0,0.204-0.019,0.405-0.029,0.608c1.384-0.53,4.109-2.139,4.473-2.939c-0.277-1.261-0.832-2.379-1.558-3.024
		c-1.366-1.21-4.159-1.801-6.856-0.587c-1.937,0.871-5.186,3.381-5.186,10.4c0,7.386-4.83,11.668-6.892,13.497
		c-0.19,0.169-0.427,0.252-0.663,0.252c-0.276,0-0.551-0.114-0.749-0.336c-0.367-0.414-0.329-1.045,0.084-1.412
		c1.861-1.65,6.219-5.515,6.219-12.001c0-8.145,3.988-11.155,6.366-12.225c3.113-1.401,6.815-1.024,9.004,0.916
		c1.476,1.312,2.428,3.771,2.428,6.267c0,1.242,0.592,2.942,1.219,3.498C42.654,44.575,42.163,45.75,41.349,47.698z M27.875,47.234
		c-0.552,0-1-0.448-1-1c0-6.436,3.008-10.419,5.796-10.419c0.552,0,1,0.448,1,1s-0.448,1-1,1c-1.362,0-3.796,2.813-3.796,8.419
		C28.875,46.787,28.427,47.234,27.875,47.234z"/>
</g>
</svg>
