<svg id="Calque_1" data-name="Calque 1" xmlns="http://www.w3.org/2000/svg" viewBox="0 0 300 300"><defs><style>.cls-1{fill:#1d1d1b;}</style></defs><title>picto_corsica</title><path class="cls-1" d="M150,6A144,144,0,0,1,251.82,251.82,144,144,0,1,1,48.18,48.18,143,143,0,0,1,150,6m0-6A150,150,0,1,0,300,150,150,150,0,0,0,150,0Z"/><path d="M243.53,183.94h0a23.46,23.46,0,0,0-3.16-9.65,29.66,29.66,0,0,0-8.06-8.67c-2.94-2.15-6-4.19-8.66-6l-2-1.33a69.36,69.36,0,0,1-7.38-5.26l-.22-.21a8.27,8.27,0,0,0,.64-1.3,15.36,15.36,0,0,1,2.28-2l7.65-4.44a48.27,48.27,0,0,0,8.07-5.75,24.91,24.91,0,0,0,8.11-13.87,40.74,40.74,0,0,0,.72-5,17.52,17.52,0,0,0-.24-5.07,53.16,53.16,0,0,1-1-9.82c0-.75,0-1.52,0-2.33,0-.57,0-1.14.05-1.72,0-2.6,0-5.21.06-7.79a10.62,10.62,0,0,0-.28-2.65c-.46-1.92-.88-3.65-1.4-5.43a25.09,25.09,0,0,1-1.09-5l.08-.14a14.88,14.88,0,0,0,.79-1.64,14,14,0,0,0-.19-11.26,17.87,17.87,0,0,0-6.19-7.27,26.52,26.52,0,0,0-13.25-4.8,22.87,22.87,0,0,0-8.51.71,5.29,5.29,0,0,0-3.85,6.65,11.28,11.28,0,0,0,1.22,2.94c.62,1,1.25,2,1.88,2.93l.26.39c.54.84,1.08,1.68,1.61,2.53a7.73,7.73,0,0,1,1.37,3.13,1,1,0,0,1,0,.17,7.39,7.39,0,0,1-1.51.84A43.3,43.3,0,0,0,207,78.18a15.53,15.53,0,0,0-5.38,5.47,12.26,12.26,0,0,0-1.62,6.1l-.27-.14a15.09,15.09,0,0,1-1.21-3.89c-.15-.92-.34-2-.59-3.08a8.76,8.76,0,0,0-3.57-5.35,15,15,0,0,0-4.83-2.07c-.46-.13-.94-.23-1.42-.34l-.14,0a12.35,12.35,0,0,1-1.79-.49c-2.68-1.13-5.48-2.41-8.3-3.8-1.31-.65-2.61-1.32-3.91-2l-.11-.06c-3.37-1.71-6.85-3.49-10.49-5a41.92,41.92,0,0,0-14.53-3.44,5.31,5.31,0,0,1-2.22-.4,8.48,8.48,0,0,0-7-.14,8.34,8.34,0,0,1-1.14.32,12.58,12.58,0,0,0-6-.66c-2.07.25-4.15.58-6.17.89l-2.29.37a24.57,24.57,0,0,1-6.16.52A5.36,5.36,0,0,0,114,62.24c-.4.3-.79.62-1.17.93l-.09.08a14.47,14.47,0,0,1-1.34,1,28,28,0,0,1-6.92,2.84,31.48,31.48,0,0,0-8.29,3.64,15.81,15.81,0,0,0-6.36,7.42l-.59,1.44c-.47,1.18-1,2.36-1.47,3.53a12.29,12.29,0,0,1-2.1,3.58,28.55,28.55,0,0,0-6.09,9.59,65.46,65.46,0,0,0-3.44,13c0,.08,0,.17,0,.25-.15.87-.29,1.73-.43,2.59-.54,3.38-1.11,7-1.56,10.66a14.77,14.77,0,0,1-2.83,7.11c-1.72,2.32-3.44,4.59-5.12,6.74l-1.26,1.6a72.13,72.13,0,0,0-5.32,7.3,25.76,25.76,0,0,0-2.31,4.76c-1.77,4.91,0,9.34,4.65,11.58a27.6,27.6,0,0,1,2.77,1.56,10.86,10.86,0,0,1,1.51,1.08l-.3.42-1.23,1.68a6.72,6.72,0,0,0,.45,8.66,14.9,14.9,0,0,0,1.67,1.55,6.5,6.5,0,0,0,.61,7.17,8.63,8.63,0,0,0,1.18,1.31l.75.73c.34.32.67.63,1,1a2.59,2.59,0,0,1,.22.29,1.31,1.31,0,0,1-.14.43,8.59,8.59,0,0,0-.51,1.3l-.22.76a17.54,17.54,0,0,0-.68,3,9.92,9.92,0,0,0,1.53,7,16.69,16.69,0,0,0,13,7.35c1.91.13,3.85.09,5.55.05l3.33-.05a23.88,23.88,0,0,1,4.13.14,5.37,5.37,0,0,1,4,2.35,12.72,12.72,0,0,1,1.37,2.65,19.61,19.61,0,0,0,4.16,6.84c2,2.13,4,4.11,6.25,6.24l1.26,1.21a46.86,46.86,0,0,1,4.25,4.36,12.78,12.78,0,0,1,1.85,2.73c.67,1.54,1.41,3,2.13,4.44a10.38,10.38,0,0,0,6.67,5.56,25.63,25.63,0,0,0,6.9,1,22.06,22.06,0,0,0,2.58-.16,37.92,37.92,0,0,0,16.57-6.41,69.29,69.29,0,0,0,11.54-10q3.19-3.34,6.35-6.72l.64-.69c2-2.12,4-4.24,6-6.35a30.63,30.63,0,0,1,4.66-4.11l.47-.33c1.26-.87,2.57-1.77,3.82-2.8a40.49,40.49,0,0,0,3.58-3.28q-.12.75-.21,1.44c-.26,1.72-.42,3.43-.57,5a40.71,40.71,0,0,1-1.47,8.72c-.17.54-.37,1.07-.56,1.6l-.08.22a28,28,0,0,0-1.64,5.79c-.63,4.52,1.09,7.8,5.13,9.76a16.42,16.42,0,0,0,5.21,1.49c1.93.22,4,.41,6.47.58a11.5,11.5,0,0,0,7.26-1.5l.49-.31a25.43,25.43,0,0,0,3.49-2.52,41.36,41.36,0,0,0,6.63-8c2.46-3.69,4.58-7.56,6.67-11.36l2.54-4.6a25.27,25.27,0,0,1,2.53-4c.08-.08.18-.15.27-.23l.1-.08a11.38,11.38,0,0,0,1.38-1.27,12.4,12.4,0,0,0,1.11-1.48l.1-.15c.08-.12.19-.29.24-.35.54-.58,1.1-1.13,1.66-1.69s1.27-1.26,1.88-1.92a9.88,9.88,0,0,0,2.73-4.89A32.45,32.45,0,0,0,243.53,183.94Zm-30.92-70.42c.1,1,.15,1.81.16,2.57a41.43,41.43,0,0,1-.23,4.6,5.24,5.24,0,0,0-1.87-3.57l-.41-.36c-.21-.18-.43-.37-.64-.57-1-1-.91-1.5-.68-2.12a15.59,15.59,0,0,1,1.4-2.64c.15-.23.29-.47.43-.73Zm-13.39,30.1a14,14,0,0,0-2.13,2.62,12.37,12.37,0,0,0-1.35,5.2,2.24,2.24,0,0,0-.41.1,2.91,2.91,0,0,0-1.69,1.56,7.26,7.26,0,0,0-.4,1,2.65,2.65,0,0,0-.62.63c-.28-.17-.56-.34-.85-.5a14.61,14.61,0,0,0-2.6-1.22,3.38,3.38,0,0,0-1.07-.18,2.75,2.75,0,0,0-1.55.47,2.93,2.93,0,0,0-1.22,2.38,11,11,0,0,0,.25,2.57,12.06,12.06,0,0,0,.38,1.43l.25.67a15.23,15.23,0,0,1-1.69,1l-.53.3a3.25,3.25,0,0,1-.46.22c-.25.12-.51.24-.75.37a3.26,3.26,0,0,0-1.77,2.37,3.19,3.19,0,0,0,1,2.71,13.78,13.78,0,0,0,1.65,1.39l.35.27,0,0a2.81,2.81,0,0,1-.7.48l-.82.42a5.23,5.23,0,0,0-2.85,5.58,15.72,15.72,0,0,0,.69,3.15,50.48,50.48,0,0,0,5.59,12c.72,1.18,1.42,2.37,2,3.6,1,2,.86,3.18-.61,4.81a31.66,31.66,0,0,1-3.42,3.19c-1.09.89-2.24,1.69-3.4,2.49l-.48.34a36.4,36.4,0,0,0-5.63,4.93q-3.16,3.32-6.3,6.68c-2.22,2.36-4.44,4.73-6.68,7.07A63.5,63.5,0,0,1,151,232.81a31.69,31.69,0,0,1-13.85,5.38,13,13,0,0,1-1.78.12,19.19,19.19,0,0,1-5.21-.79,4.12,4.12,0,0,1-2.7-2.29c-.69-1.37-1.38-2.75-2-4.16a18.34,18.34,0,0,0-2.74-4.18,52.67,52.67,0,0,0-4.81-5l-1.32-1.26c-2-1.93-4-3.86-5.9-5.9a13.29,13.29,0,0,1-2.83-4.65,18.64,18.64,0,0,0-2-4A11.53,11.53,0,0,0,97.53,201a21.81,21.81,0,0,0-3.57-.25c-.59,0-1.16,0-1.73,0l-3.29,0c-.83,0-1.66,0-2.49,0s-1.67,0-2.5-.08a10.42,10.42,0,0,1-8.19-4.63,3.82,3.82,0,0,1-.44-2.67,11.18,11.18,0,0,1,.45-1.88l.45-1.29a6.59,6.59,0,0,0-1.16-7.54c-.43-.48-.9-.93-1.36-1.37l-.85-.82c-.08-.09-.18-.16-.26-.26a1.53,1.53,0,0,1-.23-.42,1.19,1.19,0,0,1,.27-.41c.13-.15.27-.27.63-.61l.3-.27c.24-.22.48-.44.7-.67a2.53,2.53,0,0,0-.66-4.33l-.67-.36a7.84,7.84,0,0,1-1.17-.66A12.58,12.58,0,0,1,69.84,171c-.18-.2-.27-.3,0-.75s.76-1,1.14-1.56.74-1,1.11-1.52a4.67,4.67,0,0,0,0-5.53,12.56,12.56,0,0,0-4-3.57,33.45,33.45,0,0,0-3.39-1.92c-1.71-.82-2.11-1.86-1.44-3.72a19.48,19.48,0,0,1,1.74-3.6,68.33,68.33,0,0,1,4.88-6.67l1.29-1.63q2.66-3.41,5.23-6.89a21.18,21.18,0,0,0,4-10.09c.33-2.67.73-5.33,1.14-8a22.56,22.56,0,0,0,2.16,1.17l.51.25a100.2,100.2,0,0,0,11.14,4.59c7.22,2.61,14.27,4.78,22.75,7.35q6.15,1.86,12.31,3.65l7,2.09c1,.31,2,.62,3.07.89a5.32,5.32,0,0,0,1.38.19,3.88,3.88,0,0,0,3.25-1.74,8.55,8.55,0,0,1,1.42-1.46q1.49-.27,2.94-.57c3.77-.79,7.33-1.52,10.7-.54a10.28,10.28,0,0,1,4.69,3,6.15,6.15,0,0,1,.86,2.64,5.64,5.64,0,0,1-.88,4.25,19.39,19.39,0,0,0-1.24,1.86l-2.32,3.61,3.4.1h.11a2.57,2.57,0,0,0,1.71-.58l.84-.6a6.88,6.88,0,0,1,1.74-1,35.57,35.57,0,0,0,7.13,2.53,99.29,99.29,0,0,0,12.91,2.14l.69.08a7.5,7.5,0,0,0,.93.06,5.53,5.53,0,0,0,1.75-.27L196,148.1,194.53,147a4.4,4.4,0,0,0,2.54-1.19h0a3.53,3.53,0,0,0,1.3-2.17l.2-.13ZM87.32,92.54a.25.25,0,0,1,0,.07l-.24.2Zm-3,18.82a4,4,0,0,0-.49-.27,1,1,0,0,1-.13-.22,3.54,3.54,0,0,1,0-1.87,5.59,5.59,0,0,0,.75,2.43Zm99.83,26.7-.86-.27-.11,0c-1.08-.32-2.1-.63-3.12-1a12.82,12.82,0,0,0-4.3-.65c-.54,0-1.06,0-1.55,0l-.78,0c-.42,0-.86.05-1.32.1a12.77,12.77,0,0,0-3.91-7.83c2.17,1.15,4.44,2.45,6.89,3.92,3.08,1.84,6,3.7,8.8,5.52Zm-66.49-30.28c1.17,0,4,1.84,5.81,3,.88.58,1.74,1.14,2.51,1.6-2-.79-4.06-1.62-6.06-2.48a6.55,6.55,0,0,1-2.42-2.17A.43.43,0,0,1,117.63,107.78Zm8.26,1.07c2.35,1.06,4.64,2.11,6.9,3.23q-2.17-.81-4.31-1.71A21.85,21.85,0,0,1,125.89,108.85Zm-34.68-5.57.28.2a5,5,0,0,1-1.25-.62v0c0-.11,0-.22,0-.34C90.53,102.77,90.87,103,91.21,103.28Zm11.47,12.12a47.71,47.71,0,0,1-7.84-4.06,1.94,1.94,0,0,0,.22-.4,2.48,2.48,0,0,0-.49-2.67l0-.06.25-.1,3-1.19a2.5,2.5,0,0,0,.67-4.24L97,101.52a2.27,2.27,0,0,0,1.07-.08,2.07,2.07,0,0,0,1.4-1.65,2.56,2.56,0,0,0-.85-2.39,4.13,4.13,0,0,0-1.7-.8l-.42-.13a2,2,0,0,1-1.23-1.54v0l5.26,2.48c2.93,1.38,5.87,2.76,8.82,4.11q3.23,1.47,6.48,2.89l.4.17.61.27a2.64,2.64,0,0,0-2.55,2c-.48,2.29,2.56,5.12,4.39,5.9a193.5,193.5,0,0,0,27.36,9.35,2.34,2.34,0,0,0,.44.24l3.35,1.33.44.17a16.66,16.66,0,0,0-6.45,2.85,20.82,20.82,0,0,0-2.82,2.46l-1.72-.51-7.37-2.18c-4-1.18-8-2.35-12-3.56-6.09-1.84-11.44-3.48-16.62-5.22a1.47,1.47,0,0,0,.28-.76A1.5,1.5,0,0,0,102.68,115.4Zm93.17,23.76,0,0a55.72,55.72,0,0,0-8.45-6.51q-4.46-2.94-9-5.67a133.57,133.57,0,0,0-15.18-8,9.23,9.23,0,0,0-3-1c-.81-.08-1.63-.1-2.45-.11l-.3-.14a3.3,3.3,0,0,0-1.41-2.68,35.41,35.41,0,0,0-9.49-4,40.57,40.57,0,0,1-7.26-2.77c-4.39-2.37-8.92-4.4-13.31-6.36l-2.38-1.07-5.1-2.26c-2.14-.94-4.28-1.88-6.4-2.85-2.93-1.33-5.84-2.7-8.75-4.08l-6.16-2.9a4.86,4.86,0,0,0-5.41.76l-.26.2a21.84,21.84,0,0,0,2.18-4c.55-1.24,1.06-2.5,1.56-3.76l.55-1.36a9.59,9.59,0,0,1,3.91-4.48,25.53,25.53,0,0,1,6.68-2.91,33.29,33.29,0,0,0,8.51-3.56,20.76,20.76,0,0,0,2.07-1.56c.27-.22.54-.44.88-.7.36,0,.73,0,1.09,0a38.33,38.33,0,0,0,6.24-.67l2.14-.34c2-.31,4-.62,6-.87a6.88,6.88,0,0,1,.89-.06,5.9,5.9,0,0,1,2.58.57,3.56,3.56,0,0,0,1.47.33,3,3,0,0,0,.6-.06l.46-.1a16.05,16.05,0,0,0,2.72-.75A2.83,2.83,0,0,1,143,65.2a1.89,1.89,0,0,1,.84.2,11.56,11.56,0,0,0,4.78,1,35.69,35.69,0,0,1,12.35,3c3.4,1.39,6.77,3.1,10,4.76,1.36.7,2.71,1.39,4.08,2.06,2.93,1.45,5.84,2.78,8.64,4a16.61,16.61,0,0,0,2.91.83c.42.1.84.19,1.25.3a9.19,9.19,0,0,1,2.88,1.17,2.43,2.43,0,0,1,1,1.57c.21.88.37,1.78.51,2.68a22,22,0,0,0,2.19,6.49,3.87,3.87,0,0,0,1.94,1.82l1,.45c1.56.7,3.12,1.41,4.63,2.19a8.28,8.28,0,0,1,1.42,1l-.41.14a2.85,2.85,0,0,0-1.94,2,5.08,5.08,0,0,0,1.33,5.33,12.46,12.46,0,0,0,1.4,1.2c.28.22.57.42.86.62l.3.21a21,21,0,0,0-1.94,3.73,7.91,7.91,0,0,0,2.17,8.82l.31.29a5.46,5.46,0,0,0-2.35,3.15,6.39,6.39,0,0,0-.21,1.4,7.68,7.68,0,0,0-2.63,4.66c-.15.85-.27,1.71-.4,2.57-.08.58-.16,1.16-.25,1.74a11.39,11.39,0,0,1-.35,1.64,1.61,1.61,0,0,1-.81,1.1,11.43,11.43,0,0,0-1.57,1,3.49,3.49,0,0,0-.75.73A3.07,3.07,0,0,0,195.85,139.16Zm-4.53,48.14a44.37,44.37,0,0,1-4.92-10.48,14.38,14.38,0,0,1-.41-1.58l.28-.14a8,8,0,0,0,4.47-6.29l.14-1.15a2.53,2.53,0,0,0-.9-2.23,6.14,6.14,0,0,0,2.33-3.48,18,18,0,0,0,1.06,9,20.32,20.32,0,0,0,4.26,6.54c1.35,1.42,2.74,2.82,4.09,4.17l.12.11c.94.94,1.88,1.88,2.81,2.83q.65.66,1.23,1.35a10.83,10.83,0,0,0-1.29.14,14.77,14.77,0,0,0-10.05,7.69,13.29,13.29,0,0,0-.91-2.36C193,190.16,192.28,188.86,191.32,187.3Zm14.57-51.79c.1-.63.19-1.25.29-2s.2-1.49.34-2.25a1.36,1.36,0,0,1,.51-1,5.8,5.8,0,0,0,2.21-4.25,8.82,8.82,0,0,0,2-1.73,5.59,5.59,0,0,0,1-1.82,39.91,39.91,0,0,1-1.57,6.54,26.09,26.09,0,0,1-2.09,4.81,31,31,0,0,1-2.81,2C205.85,135.77,205.87,135.64,205.89,135.51ZM238,193.1a5.11,5.11,0,0,1-1.49,2.46c-.57.61-1.16,1.19-1.74,1.77s-1.22,1.22-1.8,1.84a7.36,7.36,0,0,0-.75,1l-.09.14a9.16,9.16,0,0,1-.67.92,8.8,8.8,0,0,1-.82.74l-.1.08a6.41,6.41,0,0,0-.92.87,29.06,29.06,0,0,0-3.12,4.88l-2.56,4.63c-2,3.65-4.07,7.42-6.41,10.92a36.51,36.51,0,0,1-5.8,7,21.23,21.23,0,0,1-2.86,2l-.48.31a6.68,6.68,0,0,1-4.24.72c-2.33-.16-4.37-.34-6.22-.56a11.17,11.17,0,0,1-3.61-1c-2-1-2.68-2.23-2.36-4.57a23.34,23.34,0,0,1,1.38-4.75l.09-.23c.21-.59.42-1.17.62-1.76a45.22,45.22,0,0,0,1.69-9.84c.14-1.45.3-3.1.53-4.7a49.25,49.25,0,0,1,1.12-5.89c0-.06,0-.12,0-.19a.75.75,0,0,0,.05-.16,19.13,19.13,0,0,1,1.16-3c1.54-3.11,4.09-5.26,6.82-5.73a5.7,5.7,0,0,1,2.38.12,2.5,2.5,0,0,0,2.95-1.48,9.21,9.21,0,0,0,.57-4.23,2.58,2.58,0,0,0-.51-1.3,33.39,33.39,0,0,0-2.62-3c-.94-1-1.89-1.92-2.85-2.88l-.11-.11c-1.33-1.33-2.71-2.7-4-4.08a15.37,15.37,0,0,1-3.22-4.93,13.41,13.41,0,0,1-.61-7.43c.08-.4.16-.79.26-1.17a2.49,2.49,0,0,0-.71-2.4h0l0-.05a4.9,4.9,0,0,0,.95-2.07,5,5,0,0,0,2.8-4.09,7.29,7.29,0,0,1,.65-3,8.44,8.44,0,0,1,1.37-1.68,5,5,0,0,0,1.41-4.37,2.4,2.4,0,0,0,.46-.21l1.74-1.09a48.31,48.31,0,0,0,5.84-4.06,2.6,2.6,0,0,0,.52-.62,30.2,30.2,0,0,0,2.76-6.17,45.8,45.8,0,0,0,2.3-14.58,31.6,31.6,0,0,0-.23-3.38,3.74,3.74,0,0,0-.57-1.62c-1.23-1.92-2.44-3.8-3.75-5.64-.59-.83-1.18-1.63-1.78-2.44l-.09-.13c-.8-1.08-1.63-2.2-2.4-3.33a2.25,2.25,0,0,0-.57-.58,5,5,0,0,0-1.77-4.1,9.48,9.48,0,0,0-.91-.69,2.28,2.28,0,0,0-.12-.93c-.09-.28-.18-.57-.26-.88a8,8,0,0,1,.63-6.23,10.49,10.49,0,0,1,3.68-3.7,39.18,39.18,0,0,1,3.89-2,9.72,9.72,0,0,0,3.08-2,4.86,4.86,0,0,0,1.26-3.86,11.89,11.89,0,0,0-2.11-5.42c-.54-.87-1.11-1.74-1.67-2.61l-.25-.39c-.62-1-1.24-1.89-1.82-2.84a5.71,5.71,0,0,1-.64-1.57c-.08-.3-.11-.44.4-.59a18,18,0,0,1,6.69-.53,21.7,21.7,0,0,1,10.72,3.85,2.62,2.62,0,0,0-.73.4A2.5,2.5,0,0,0,227.8,68c0,.09.1.18.16.27a10.3,10.3,0,0,0,2.84,3.58,2.49,2.49,0,0,0,3.55-.46,9.12,9.12,0,0,1-.48,5.7,10.57,10.57,0,0,1-.55,1.13c-.17.32-.34.63-.48,1a2.37,2.37,0,0,0-.21,1.08A27.12,27.12,0,0,0,234,87.09c.48,1.65.89,3.32,1.33,5.16a6.38,6.38,0,0,1,.14,1.47q0,3.87-.06,7.76c0,.53,0,1.06-.05,1.59,0,.86-.06,1.75,0,2.67a58,58,0,0,0,1.1,10.76,12.9,12.9,0,0,1,.13,3.63,34.37,34.37,0,0,1-.63,4.4,20,20,0,0,1-6.54,11.12,44.09,44.09,0,0,1-7.26,5.16c-2.58,1.51-5.17,3-7.76,4.5l-.23.15a19.55,19.55,0,0,0-3.53,3.23,2.38,2.38,0,0,0-.46.82,3,3,0,0,1-.38.81c-1.53,2.21-1.07,4.53,1.28,6.55a72.1,72.1,0,0,0,7.9,5.66l2,1.32c2.6,1.71,5.6,3.72,8.47,5.81a24.68,24.68,0,0,1,6.71,7.2,18.48,18.48,0,0,1,2.48,7.63A27.94,27.94,0,0,1,238,193.1Z"/><path d="M100.14,126a35.27,35.27,0,0,0-7.59-3,11.61,11.61,0,0,0-4.53-.11l-.72.08a2.57,2.57,0,0,0-1,.32,1.5,1.5,0,0,0-.89,1.17l0,.26a1.5,1.5,0,0,0,.85,1.57l.45.22a10.82,10.82,0,0,0,1.23.55l2.36.83c1.16.41,2.31.81,3.45,1.24a21.34,21.34,0,0,1,3.45,1.58,4.18,4.18,0,0,0,2.13.61A4.81,4.81,0,0,0,101,131a2.12,2.12,0,0,0,.8-3.79A8.49,8.49,0,0,0,100.14,126Z"/><path d="M98.53,134.45c-.92-.5-9.06-4.75-11.93-1.45a2.28,2.28,0,0,0-.42.75,4.72,4.72,0,0,0,.11,2.68,1.5,1.5,0,0,0,2.83.23h0a25.74,25.74,0,0,1,.7,3.35,1.66,1.66,0,0,1,0,.24,1.5,1.5,0,0,0-1.66,1.85c.07.29.1.48.12.61a1.49,1.49,0,0,0-.22,1.62,1.51,1.51,0,0,0,1.36.86,1.5,1.5,0,0,0,.64-.15h0l1.52-.75a24.84,24.84,0,0,1,5-2.07,8.41,8.41,0,0,0,3.59-1.72,3.18,3.18,0,0,0,1.2-2.3,3.09,3.09,0,0,0-1-2.32A8,8,0,0,0,98.53,134.45Zm-.27,3.79a5.33,5.33,0,0,1-2.33,1.06,18.91,18.91,0,0,0-3.08,1.07,6.2,6.2,0,0,0-.07-.84A27.74,27.74,0,0,0,92,135.7a3.47,3.47,0,0,0-.31-.71,24,24,0,0,1,5.45,2.1,5,5,0,0,1,1.19.89l.11.11Z"/><path d="M159.77,152.11a10.31,10.31,0,0,0-3,1.91,8.37,8.37,0,0,0-2.1,3.32,8.92,8.92,0,0,1-1,1.83,27.73,27.73,0,0,1-1.84,2.14c-.46.5-.94,1-1.47,1.64a13,13,0,0,1-7.25,3.84l-.78.13-.55.09a1.5,1.5,0,0,0-1.15.93,1.52,1.52,0,0,0,.21,1.47c.84,1.08,3.71,1.6,5.43,1.69l.75,0a9,9,0,0,0,6.61-2.42,45.57,45.57,0,0,0,4.11-4.77,13.09,13.09,0,0,0,2-5.1,11.19,11.19,0,0,1,1.47-4,2.15,2.15,0,0,0,.3-.58l.08-.19a1.5,1.5,0,0,0-1.92-2Zm-4.38,10a41.64,41.64,0,0,1-3.87,4.49,5,5,0,0,1-2.81,1.36,13.33,13.33,0,0,0,4-3.11c.49-.59.94-1.07,1.37-1.54.6-.64,1.21-1.3,1.88-2.16A5.22,5.22,0,0,1,155.39,162.14Z"/><path d="M145.46,148.1l.46,1.11c.64,1.52,1.51,3.6,1.13,4.71a6.3,6.3,0,0,1-.94,1,7.47,7.47,0,0,0-1.32,1.45l-.16.26c-.65,1-1.53,2.43-.9,4.11a1.5,1.5,0,0,0,1.4,1,1.52,1.52,0,0,0,.51-.09,9.86,9.86,0,0,0,2.76-1.75,12.91,12.91,0,0,1,1.28-1c2-1.21,3.09-4.51,2.43-7.19a24.25,24.25,0,0,0-.75-2.54c-.22-.63-.47-1.24-.71-1.84a21.28,21.28,0,0,1-1-2.7,3.72,3.72,0,0,1,1.19-4.07,6.76,6.76,0,0,1,3.4-2,2.69,2.69,0,0,1,2.72,1,4.13,4.13,0,0,1,.22.42c.42.8,1.11,2.16,2.7,2.2a3,3,0,0,0,2.83-2.92,6.63,6.63,0,0,0-4.8-6.65,11.51,11.51,0,0,0-7.66.62,12.52,12.52,0,0,0-2.82,1.46,10.22,10.22,0,0,0-4,6.74,7.88,7.88,0,0,0,1.2,5A15.94,15.94,0,0,1,145.46,148.1Zm1-6.19a7.27,7.27,0,0,1,2.76-4.78,9.61,9.61,0,0,1,2.14-1.09,10.81,10.81,0,0,1,3.86-.82,5.87,5.87,0,0,1,1.81.26,4,4,0,0,1,2.71,2.86,2.54,2.54,0,0,0-.16-.28,5.67,5.67,0,0,0-5.81-2.46,9.54,9.54,0,0,0-5,2.79,6.63,6.63,0,0,0-2.28,4.69A3.06,3.06,0,0,1,146.46,141.91Z"/></svg>