<?xml version="1.0" encoding="utf-8"?>
<!-- Generator: Adobe Illustrator 16.0.0, SVG Export Plug-In . SVG Version: 6.00 Build 0)  -->
<!DOCTYPE svg PUBLIC "-//W3C//DTD SVG 1.1//EN" "http://www.w3.org/Graphics/SVG/1.1/DTD/svg11.dtd">
<svg version="1.1" xmlns="http://www.w3.org/2000/svg" xmlns:xlink="http://www.w3.org/1999/xlink" x="0px" y="0px" width="100px"
	 height="100px" viewBox="0 0 100 100" enable-background="new 0 0 100 100" xml:space="preserve">
<g id="Calque_2">
</g>
<g id="Calque_1">
	<path d="M100,83.523c0-2.446-0.828-5.889-1.704-9.532c-0.887-3.685-1.803-7.495-1.803-10.152c0-6.182,0.955-12.29,1.88-18.198
		c1.675-10.708,3.248-20.824-1.901-28.045c-0.479-1.54-3.693-2.778-6.312-3.479c0.002-0.026,0.016-0.05,0.016-0.077
		c0-0.038-0.002-0.075-0.007-0.112L88.868,2.459c-0.116-2.205-5.452-2.378-7.101-2.378c-1.414,0-5.546,0.127-6.763,1.557
		l-6.298,1.175c-0.013,0-0.022-0.007-0.035-0.007c-1.013,0-1.692,1.078-1.692,2.683c0,1.433,0.545,2.438,1.383,2.639
		c0.039,0.013,0.07,0.038,0.111,0.047l5.541,1.119l-0.645,4.608c-0.007,0.046-0.01,0.093-0.01,0.139c0,0.14,0.03,0.27,0.079,0.394
		c-2.026,0.628-4.757,1.722-5.205,3.15c-5.158,7.221-3.584,17.342-1.908,28.056c0.924,5.908,1.88,12.017,1.88,18.199
		c0,1.43-0.184,6.088-0.421,8.687l-1.021-0.927c-0.184-0.167-0.423-0.26-0.672-0.26c-2.491,0-4.56-1.424-6.463-2.882
		c-0.175-0.134-0.389-0.206-0.608-0.206h-1.174c0.72-2.45,1.713-4.902,2.694-7.314c1.734-4.265,3.372-8.293,3.372-12.023
		c0-0.416-0.258-0.789-0.647-0.936c-0.391-0.149-0.829-0.036-1.104,0.276c-0.269,0.307-0.604,0.742-0.99,1.247
		c-1.353,1.766-3.615,4.722-5.504,4.784c-0.537,0.019-1.045-0.239-1.544-0.763c0.166-1.385,0.067-2.226-0.484-2.799
		c-0.011-0.013-0.015-0.029-0.026-0.042c-0.01-0.011-0.021-0.019-0.031-0.029c-0.001-0.001-0.001-0.002-0.002-0.003
		c0,0-0.001-0.001-0.002-0.001c-1.992-2.036-4.156-3.002-6.431-2.985c-0.197,0.005-0.395,0.031-0.592,0.053
		c0.187-0.815,0.363-1.391,0.479-1.635c0.171-0.36,0.111-0.789-0.151-1.089c-2.303-2.625-5.727-3.176-8.193-3.177
		c0,0-0.001,0-0.002,0c-3.854,0-8.098,1.396-9.661,3.176c-0.331,0.378-0.331,0.942,0,1.319c0.347,0.396,0.695,0.954,1.041,1.643
		c-0.215-0.021-0.423-0.05-0.653-0.05c-0.001,0-0.001,0-0.001,0c-2.413,0-5.899,1.201-8.252,3.884c-0.331,0.377-0.331,0.941,0,1.318
		c3.262,3.718,5.465,9.262,6.79,14.075H14.943c-2.372,0-4.385,0.964-6.515,1.983C6.196,70.233,3.888,71.339,1,71.339
		c-0.411,0-0.78,0.252-0.931,0.635s-0.051,0.818,0.25,1.098l21.336,19.813c0.047,0.043,0.106,0.066,0.159,0.101
		c0.049,0.03,0.092,0.069,0.146,0.091c0.118,0.049,0.245,0.076,0.375,0.076c2.77,0,5.043,1.772,7.242,3.486
		c2.166,1.688,4.212,3.281,6.702,3.281h37.205c2.489,0,4.535-1.594,6.7-3.281c2.2-1.714,4.475-3.486,7.243-3.486
		c0.081,0,0.154-0.028,0.229-0.046c0.084,0.021,0.168,0.046,0.254,0.046c0.271,0,0.543-0.11,0.74-0.328
		c0.371-0.408,0.341-1.041-0.068-1.412l-3.483-3.163C90.217,88.072,100,87.25,100,83.523z M96.396,45.332
		c-0.936,5.982-1.903,12.17-1.903,18.507c0,2.808,0.889,6.586,1.776,10.276c-6.022-7.826-7.303-17.217-6.553-21.816
		c0.844-5.176,3.575-7.259,5.985-9.096c0.398-0.304,0.79-0.604,1.163-0.911C96.714,43.293,96.558,44.304,96.396,45.332z
		 M80.768,16.472v1.902c0,0.553,0.447,1,1,1s1-0.447,1-1v-1.902c1.373-0.046,3.764-0.208,5.462-0.756
		c3.302,0.685,5.392,1.723,6.105,2.275c-1.188,0.952-5.884,2.875-11.986,2.875c-6.106,0-10.803-1.925-11.987-2.877
		c0.674-0.527,2.554-1.452,5.433-2.126C77.439,16.296,79.523,16.431,80.768,16.472z M86.048,2.533
		c-0.81,0.225-2.171,0.451-4.28,0.451c-2.111,0-3.473-0.228-4.282-0.452c0.81-0.225,2.172-0.451,4.282-0.451
		C83.881,2.081,85.238,2.309,86.048,2.533z M69.093,6.258c-0.05-0.136-0.113-0.393-0.113-0.77c0-0.338,0.052-0.564,0.098-0.709
		l6.14-1.146c1.423,1.234,5.209,1.351,6.551,1.351c1.042,0,3.559-0.069,5.298-0.678l1.06,9.34c-0.854,0.353-3.284,0.845-6.357,0.845
		c-3.058,0-5.478-0.487-6.343-0.839l0.701-5.015c0.073-0.523-0.273-1.014-0.792-1.119L69.093,6.258z M67.838,42.315
		c0.364,0.299,0.746,0.592,1.134,0.888c2.41,1.837,5.143,3.92,5.985,9.096c0.81,4.969-0.749,13.011-5.133,19.793
		c0.254-3.089,0.382-7.564,0.382-8.253c0-6.338-0.968-12.524-1.903-18.508C68.143,44.311,67.988,43.309,67.838,42.315z
		 M56.823,75.673c-0.031-0.524-0.038-1.051-0.019-1.579c1.412,0.312,2.15,0.608,2.51,0.802
		C58.871,75.132,58.038,75.407,56.823,75.673z M55.734,56.284c2.172-0.072,4.16-2.022,5.722-3.911
		c-0.585,2.444-1.655,5.076-2.768,7.811c-2.094,5.149-4.249,10.47-3.845,15.854c-0.952,0.149-2.043,0.287-3.271,0.403
		c0.073-9.334,1.282-15.821,2.016-19.739c0.063-0.338,0.119-0.643,0.175-0.945C54.379,56.109,55.034,56.299,55.734,56.284z
		 M47.198,49.663c0.044-0.001,0.087-0.002,0.13-0.002c1.656,0,3.282,0.807,4.832,2.396c0.175,0.46-0.187,2.397-0.539,4.276
		c-0.75,4.01-1.99,10.663-2.05,20.271c-1.248,0.084-2.616,0.143-4.09,0.173c-0.074-11.142-1.354-21.361-3.056-24.75
		C43.908,50.537,45.582,49.704,47.198,49.663z M31.13,45.797c1.474-1.018,4.548-1.981,7.559-1.981h0.002
		c1.905,0.001,4.478,0.374,6.283,2.074c-0.195,0.606-0.396,1.439-0.577,2.389c-1.413,0.591-2.772,1.594-3.976,2.966
		c-0.331,0.377-0.331,0.941,0,1.318c1.249,1.425,2.974,11.267,3.06,24.238c-0.06,0-0.114,0.001-0.174,0.001
		c-1.76,0-3.378-0.043-4.858-0.116c-0.22-4.441-2.471-18.708-5.43-26.821c0.017-0.256-0.063-0.518-0.246-0.726
		c-0.012-0.014-0.029-0.022-0.042-0.036C32.214,47.778,31.679,46.645,31.13,45.797z M29.413,49.903c0,0,0.001,0,0.002,0
		c0.722,0,1.296,0.146,1.652,0.396c2.739,7.398,5.119,21.458,5.375,26.259c-2.093-0.156-3.848-0.375-5.255-0.617
		c0.201-0.198,0.326-0.47,0.306-0.773c-0.312-4.553-2.73-15.826-8.234-22.674C25.157,50.72,27.702,49.903,29.413,49.903z
		 M29.497,75.305c0.008,0.114,0.042,0.22,0.085,0.319c-1.097-0.251-1.866-0.506-2.282-0.729c0.322-0.173,0.946-0.429,2.087-0.705
		C29.436,74.596,29.475,74.978,29.497,75.305z M9.292,70.969c2.003-0.96,3.733-1.788,5.651-1.788h13.523
		c0.255,1.08,0.467,2.104,0.628,3.025c-2.821,0.653-4.059,1.473-4.059,2.682c0,3.726,15.22,3.914,18.271,3.914
		c0.291,0,0.692-0.002,1.18-0.008c0.001,0,0.001,0,0.001,0c0.002,0,0.002,0,0.002,0c4.636-0.061,17.089-0.536,17.089-3.906
		c0-1.277-1.399-2.13-4.589-2.797c0.088-0.612,0.201-1.226,0.339-1.84h1.356c1.934,1.462,4.212,2.948,7.012,3.079L84.68,90.566
		c-1.605-0.661-3.066-1.789-4.494-2.901c-2.165-1.687-4.211-3.28-6.7-3.28H36.28c-2.49,0-4.536,1.594-6.702,3.281
		c-2.102,1.638-4.275,3.31-6.88,3.457L3.326,73.134C5.607,72.732,7.538,71.809,9.292,70.969z M78.956,95.061
		c-1.887,1.47-3.668,2.858-5.471,2.858H36.28c-1.804,0-3.586-1.389-5.473-2.859c-1.328-1.034-2.761-2.138-4.374-2.91
		c1.613-0.772,3.047-1.872,4.374-2.906c1.887-1.47,3.669-2.858,5.473-2.858h37.205c1.803,0,3.584,1.389,5.471,2.858
		c1.329,1.035,2.765,2.136,4.379,2.908C81.721,92.924,80.285,94.024,78.956,95.061z M82.943,86.289L70.345,74.85
		c5.794-7.84,7.499-17.269,6.587-22.873c-0.972-5.961-4.31-8.506-6.747-10.364c-1.466-1.117-2.624-2-2.902-3.242
		c0-0.002-0.002-0.003-0.002-0.003c-0.941-7.355-1.045-13.775,2.008-18.752c2.317,1.749,7.878,3.251,13.061,3.251
		c5.184,0,10.743-1.502,13.062-3.251c3.042,4.96,2.951,11.352,2.019,18.675c-0.009,0.028-0.029,0.05-0.036,0.08
		c-0.279,1.242-1.437,2.125-2.902,3.242c-2.438,1.858-5.775,4.402-6.748,10.364c-1.132,6.945,1.824,18.467,9.5,26.301
		C97.686,80.313,98,82.139,98,83.523C98,84.276,93.357,86.241,82.943,86.289z"/>
</g>
</svg>
