<?xml version="1.0" encoding="utf-8"?>
<!-- Generator: Adobe Illustrator 16.0.0, SVG Export Plug-In . SVG Version: 6.00 Build 0)  -->
<!DOCTYPE svg PUBLIC "-//W3C//DTD SVG 1.1//EN" "http://www.w3.org/Graphics/SVG/1.1/DTD/svg11.dtd">
<svg version="1.1" xmlns="http://www.w3.org/2000/svg" xmlns:xlink="http://www.w3.org/1999/xlink" x="0px" y="0px" width="100px"
	 height="100px" viewBox="0 0 100 100" enable-background="new 0 0 100 100" xml:space="preserve">
<g id="Titres">
</g>
<g id="Calque_1">
	<path d="M99.992,64.701c-0.004-0.094-0.03-0.181-0.059-0.269c-0.013-0.041-0.016-0.084-0.034-0.123
		c-0.059-0.123-0.139-0.234-0.242-0.325l0,0c-0.005-0.004-0.012-0.005-0.017-0.009c-0.094-0.079-0.202-0.145-0.326-0.186
		l-0.027-0.009c-0.001,0-0.002-0.001-0.004-0.001L53.227,48.517l6.418-6.444c0.389-0.391,0.389-1.023-0.002-1.413l-0.888-0.89
		c-0.56-0.562-0.984-0.988-1.636-1.625l26.285-27.181c0.884-0.883,1.371-2.059,1.371-3.308c0-1.25-0.487-2.425-1.371-3.309
		c-0.884-0.884-2.059-1.371-3.309-1.371c-1.25,0-2.425,0.486-3.32,1.382L50.358,31.674c-0.169-0.162-0.326-0.311-0.504-0.48
		c-0.393-0.373-1.013-0.367-1.396,0.018L31.123,48.545L0.897,51.673C0.83,51.68,0.772,51.709,0.71,51.729
		c-0.05,0.015-0.102,0.021-0.148,0.044c-0.083,0.041-0.154,0.1-0.222,0.162c-0.024,0.022-0.054,0.035-0.077,0.059
		c-0.085,0.094-0.152,0.203-0.197,0.323c-0.001,0.004-0.004,0.006-0.006,0.01c-0.013,0.036-0.008,0.073-0.017,0.109
		C0.025,52.512,0,52.586,0,52.667V76.3c0,0.421,0.263,0.796,0.659,0.94l51.08,18.547c0.113,0.041,0.228,0.061,0.341,0.061
		c0.002,0,0.003-0.001,0.005-0.001c0.044,0,0.088-0.002,0.131-0.009l46.92-6.476C99.631,89.293,100,88.87,100,88.371V64.738
		C100,64.726,99.992,64.714,99.992,64.701z M78.2,5.761c1.012-1.012,2.777-1.011,3.79,0c0.506,0.506,0.785,1.179,0.785,1.895
		c0,0.715-0.279,1.388-0.796,1.906L55.681,36.754c-0.591-0.568-1.33-1.275-2.274-2.176l-1.592-1.534L78.2,5.761z M49.182,33.315
		c1.111,1.057,2.033,1.936,2.817,2.684l3.007,2.896c0.013,0.012,0.03,0.016,0.043,0.027c1.072,1.037,1.566,1.533,2.29,2.259
		l0.186,0.187l-6.862,6.89c-0.021,0.021-0.043,0.039-0.062,0.063L38.04,60.93c-0.046,0.046-0.069,0.105-0.104,0.157l-8.152,1.125
		c-0.495,0.068-0.863,0.491-0.863,0.991v6.767l-1.919,1.921c-1.096,1.095-2.552,1.698-4.1,1.698s-3.004-0.603-4.099-1.698
		c-1.095-1.095-1.698-2.55-1.698-4.098c0-1.548,0.603-3.004,1.698-4.099L49.182,33.315z M28.88,50.788l-8.025,8.025l-15.42-5.599
		L28.88,50.788z M51.08,93.42L2,75.599V54.094l17.294,6.28l-1.906,1.906c-1.473,1.472-2.284,3.43-2.284,5.513
		c0,2.082,0.812,4.04,2.284,5.512c1.473,1.473,3.43,2.284,5.513,2.284c2.082,0,4.041-0.811,5.515-2.285L28.92,72.8v3.001
		c0,0.552,0.448,1,1,1s1-0.448,1-1V64.963l20.16,6.965V93.42z M52.18,70.192l-18.72-6.468l14.559-2.01
		c0.547-0.076,0.929-0.581,0.854-1.127c-0.076-0.548-0.589-0.928-1.127-0.854l-6.598,0.911l10.501-10.543l42.957,14.235
		L52.18,70.192z M98,87.499l-44.92,6.2V72.087L98,65.886V87.499z"/>
</g>
</svg>
