<?xml version="1.0" encoding="utf-8"?>
<!-- Generator: Adobe Illustrator 16.0.0, SVG Export Plug-In . SVG Version: 6.00 Build 0)  -->
<!DOCTYPE svg PUBLIC "-//W3C//DTD SVG 1.1//EN" "http://www.w3.org/Graphics/SVG/1.1/DTD/svg11.dtd">
<svg version="1.1" xmlns="http://www.w3.org/2000/svg" xmlns:xlink="http://www.w3.org/1999/xlink" x="0px" y="0px" width="100px"
	 height="100px" viewBox="0 0 100 100" enable-background="new 0 0 100 100" xml:space="preserve">
<g id="Calque_2">
</g>
<g id="Calque_1">
	<path d="M38.183,50.974c-0.397,0-0.773-0.238-0.929-0.63c-0.204-0.513,0.045-1.095,0.559-1.299
		c0.207-0.083,5.169-2.029,12.716-2.029s12.509,1.946,12.716,2.029c0.513,0.205,0.763,0.786,0.559,1.298
		c-0.204,0.513-0.787,0.763-1.298,0.56c-0.048-0.019-4.839-1.887-11.976-1.887c-7.167,0-11.928,1.867-11.975,1.886
		C38.432,50.95,38.306,50.974,38.183,50.974z M41.166,41.505c0-1.223-0.991-2.212-2.213-2.212c-1.224,0-2.214,0.989-2.214,2.212
		c0,1.224,0.99,2.215,2.214,2.215C40.175,43.72,41.166,42.729,41.166,41.505 M30.289,63.508c0,0.74,0.6,1.339,1.339,1.339
		c0.74,0,1.34-0.6,1.34-1.339c0-0.74-0.6-1.339-1.34-1.339C30.889,62.169,30.289,62.768,30.289,63.508 M29.452,58.195
		c0,0.741,0.6,1.34,1.339,1.34c0.74,0,1.34-0.6,1.34-1.34c0-0.74-0.6-1.338-1.34-1.338C30.052,56.856,29.452,57.455,29.452,58.195
		 M25.936,61.71c0,0.741,0.6,1.34,1.339,1.34c0.74,0,1.34-0.599,1.34-1.34c0-0.74-0.6-1.338-1.34-1.338
		C26.536,60.372,25.936,60.97,25.936,61.71 M54.445,69.026c1.774-1.31,7.571-7.702,6.795-10.977
		c-0.135-0.569-0.589-1.559-2.122-1.786c-3.246-0.467-6.348-0.714-8.969-0.714l-0.146,0l-0.152,0c-2.622,0-5.724,0.247-8.974,0.714
		c-1.528,0.227-1.982,1.216-2.118,1.785c-0.775,3.276,5.022,9.668,6.796,10.978c0.34,0.326,1.795,1.61,3.64,1.61h1.61
		C52.65,70.636,54.105,69.352,54.445,69.026z M50.003,57.549l0.146,0c2.528,0,5.531,0.24,8.68,0.693
		c0.417,0.062,0.446,0.186,0.465,0.268c0.421,1.777-4.141,7.576-6.071,8.932c-0.052,0.037-0.101,0.079-0.146,0.125
		c-0.01,0.011-1.065,1.07-2.272,1.07h-1.61c-1.208,0-2.265-1.063-2.272-1.07c-0.044-0.046-0.093-0.087-0.146-0.125
		c-1.93-1.356-6.492-7.154-6.071-8.932c0.02-0.082,0.049-0.206,0.461-0.267c3.153-0.454,6.156-0.693,8.685-0.693L50.003,57.549z
		 M48.999,78.073c0.342-0.381,0.711-0.792,1.001-1.099c0.29,0.308,0.659,0.718,1.001,1.099c2.798,3.112,7.479,8.324,11.15,7.476
		C83.689,80.582,90.806,38.4,91.097,36.608c0.089-0.545-0.281-1.059-0.826-1.148c-0.547-0.094-1.059,0.281-1.147,0.826
		c-0.07,0.426-7.179,42.646-27.421,47.314c-2.522,0.577-7.211-4.636-9.214-6.864c-1.293-1.438-1.686-1.861-2.128-2.032
		c-0.232-0.09-0.489-0.09-0.722,0c-0.442,0.171-0.835,0.593-2.128,2.032c-2.003,2.228-6.701,7.439-9.214,6.864
		c-20.232-4.667-27.351-46.888-27.421-47.314c-0.089-0.544-0.595-0.915-1.147-0.826c-0.545,0.089-0.915,0.603-0.826,1.148
		c0.292,1.792,7.409,43.974,28.946,48.941c0.27,0.062,0.544,0.091,0.824,0.091C42.196,85.64,46.406,80.957,48.999,78.073z
		 M37.245,19.813c0.051-0.02,5.124-2.011,12.755-2.011c7.602,0,12.706,1.991,12.756,2.011c0.512,0.202,1.094-0.046,1.299-0.56
		c0.204-0.513-0.046-1.094-0.558-1.298c-0.221-0.088-5.485-2.153-13.497-2.153s-13.276,2.065-13.497,2.153
		c-0.512,0.205-0.762,0.787-0.557,1.3c0.156,0.391,0.532,0.629,0.929,0.629C36.998,19.885,37.123,19.862,37.245,19.813z
		 M58.834,41.505c0,1.224,0.991,2.215,2.213,2.215c1.224,0,2.214-0.992,2.214-2.215c0-1.223-0.99-2.212-2.214-2.212
		C59.825,39.293,58.834,40.282,58.834,41.505 M69.711,63.508c0-0.74-0.6-1.339-1.339-1.339c-0.74,0-1.34,0.599-1.34,1.339
		c0,0.74,0.6,1.339,1.34,1.339C69.111,64.848,69.711,64.248,69.711,63.508 M70.548,58.195c0-0.74-0.6-1.338-1.339-1.338
		c-0.74,0-1.34,0.598-1.34,1.338c0,0.741,0.6,1.34,1.34,1.34C69.948,59.535,70.548,58.936,70.548,58.195 M74.064,61.71
		c0-0.74-0.6-1.338-1.34-1.338c-0.739,0-1.339,0.598-1.339,1.338c0,0.741,0.6,1.34,1.339,1.34
		C73.464,63.05,74.064,62.451,74.064,61.71 M61.314,88.788v-4.293c0-0.552-0.448-1-1-1s-1,0.448-1,1v4.293
		c0,5.136-4.178,9.314-9.314,9.314s-9.314-4.178-9.314-9.314v-4.293c0-0.552-0.448-1-1-1s-1,0.448-1,1v4.293
		c0,6.238,5.076,11.314,11.314,11.314S61.314,95.026,61.314,88.788z M51,88.555V75.637c0-0.552-0.448-1-1-1s-1,0.448-1,1v12.918
		c0,0.552,0.448,1,1,1S51,89.107,51,88.555z M91.015,36.872c2.528-5.37,9.428-29.083,2.98-35.53
		c-0.874-0.874-2.105-1.288-3.643-1.233c-8.032,0.286-24.289,13.861-27.982,18.121c-0.362,0.417-0.317,1.049,0.1,1.411
		c0.418,0.362,1.049,0.317,1.41-0.1c3.792-4.374,19.383-17.178,26.543-17.433c0.983-0.035,1.686,0.177,2.158,0.649
		c5.07,5.071-0.361,26.86-3.375,33.265c-0.235,0.5-0.021,1.095,0.479,1.33c0.138,0.065,0.282,0.095,0.426,0.095
		C90.485,37.446,90.845,37.234,91.015,36.872z M84.843,32.539c0.375-0.044,0.694-0.295,0.823-0.65
		c2.112-5.792,4.024-14.661,2.462-20.6c-0.131-0.498-0.615-0.813-1.126-0.733C81.123,11.5,71.681,18.394,69.1,21.173
		c-0.227,0.244-0.317,0.584-0.241,0.909c0.076,0.324,0.308,0.589,0.62,0.707c2.588,0.98,11.278,4.549,14.414,9.307
		c0.187,0.283,0.501,0.45,0.835,0.45C84.765,32.545,84.804,32.543,84.843,32.539z M86.402,12.723
		c0.926,4.899-0.375,11.649-2.022,16.753c-3.355-3.737-9.189-6.528-12.733-7.981C74.777,18.711,81.648,13.936,86.402,12.723z
		 M10.315,37.351c0.5-0.235,0.714-0.831,0.479-1.33C7.78,29.616,2.349,7.827,7.418,2.756C7.89,2.284,8.596,2.077,9.576,2.107
		c7.16,0.255,22.75,13.059,26.543,17.433c0.361,0.417,0.992,0.462,1.41,0.1c0.417-0.362,0.462-0.993,0.101-1.411
		C33.937,13.969,17.679,0.394,9.647,0.108c-1.538-0.061-2.77,0.36-3.643,1.233c-6.447,6.447,0.453,30.16,2.98,35.53
		c0.171,0.362,0.53,0.574,0.905,0.574C10.033,37.446,10.178,37.416,10.315,37.351z M16.107,32.096
		c3.136-4.757,11.826-8.326,14.415-9.307c0.312-0.118,0.544-0.383,0.62-0.707c0.076-0.324-0.015-0.665-0.241-0.909
		c-2.582-2.779-12.023-9.673-17.903-10.618c-0.511-0.083-0.995,0.235-1.125,0.733c-1.562,5.938,0.35,14.808,2.461,20.599
		c0.129,0.355,0.448,0.607,0.823,0.651c0.039,0.004,0.078,0.007,0.116,0.007C15.606,32.545,15.921,32.378,16.107,32.096z
		 M28.354,21.495c-3.543,1.453-9.378,4.244-12.734,7.981c-1.647-5.105-2.948-11.855-2.021-16.753
		C18.352,13.936,25.223,18.711,28.354,21.495z"/>
</g>
</svg>
