<?xml version="1.0" encoding="utf-8"?>
<!-- Generator: Adobe Illustrator 16.0.0, SVG Export Plug-In . SVG Version: 6.00 Build 0)  -->
<!DOCTYPE svg PUBLIC "-//W3C//DTD SVG 1.1//EN" "http://www.w3.org/Graphics/SVG/1.1/DTD/svg11.dtd">
<svg version="1.1" xmlns="http://www.w3.org/2000/svg" xmlns:xlink="http://www.w3.org/1999/xlink" x="0px" y="0px" width="100px"
	 height="100px" viewBox="0 0 100 100" enable-background="new 0 0 100 100" xml:space="preserve">
<g id="Calque_2">
</g>
<g id="v2">
	<path d="M85.327,12.614c-0.23-0.502-0.823-0.724-1.325-0.493L73.444,16.95c-0.261,0.119-0.458,0.344-0.541,0.619l-4.21,13.854
		c-0.631-0.027-1.266-0.045-1.901-0.045c-1.02,0-2.049,0.038-3.065,0.105V17.859c0-0.102-0.019-0.199-0.048-0.293
		c-0.006-0.021-0.018-0.041-0.026-0.062c-0.036-0.094-0.086-0.181-0.148-0.26c-0.011-0.014-0.013-0.03-0.025-0.043L54.56,7.007V1
		c0-0.552-0.448-1-1-1H20.819c-0.552,0-1,0.448-1,1v6.416l-5.204,19.515c-0.009,0.036,0.002,0.072-0.003,0.108
		c-0.008,0.051-0.03,0.097-0.03,0.15v65.47c0,0.552,0.448,1,1,1h32.74c0.376,0,0.692-0.216,0.862-0.523l3.375-2.109v4.487
		c0,3.542,8.861,4.487,14.097,4.487s14.097-0.931,14.097-4.422V36.19c0-0.018-0.009-0.033-0.01-0.051
		c0.001-0.018,0.01-0.032,0.01-0.05c0-2.5-4.588-4.036-10.011-4.533l3.943-12.975l10.148-4.642
		C85.336,13.71,85.557,13.117,85.327,12.614z M68.093,33.397l-1.707,5.618c-6.981-0.041-11.104-1.62-11.741-2.458
		c0.108-0.159,0.186-0.34,0.186-0.548c0.112-0.787,4.316-2.632,11.961-2.632C67.238,33.377,67.67,33.385,68.093,33.397z
		 M54.56,44.482v-5.581c2.637,1.408,7.389,2.025,11.22,2.107l-0.38,1.25C61.118,42.386,56.854,43.104,54.56,44.482z M64.784,44.285
		l-0.721,2.373c-0.16,0.528,0.138,1.087,0.667,1.248c0.097,0.029,0.195,0.043,0.291,0.043c0.429,0,0.825-0.278,0.957-0.71
		l0.912-3.001c7.349,0.016,11.472,1.78,11.829,2.627c-0.357,0.851-4.514,2.629-11.926,2.629c-7.64,0-11.844-1.842-11.96-2.627
		C54.938,46.151,58.424,44.57,64.784,44.285z M67.494,42.247l0.38-1.251c4.313-0.115,8.503-0.837,10.879-2.145v5.552
		C76.306,43.046,71.936,42.316,67.494,42.247z M61.207,17.641l-11.205,7.13l4.074-15.278L61.207,17.641z M21.819,2H52.56v4.547
		H21.819V2z M30.857,10.186c1.947-1.563,4.047-1.727,4.719-0.898l0.005,0.007c0.665,0.834,0.053,2.849-1.891,4.414
		c-1.928,1.548-4.014,1.708-4.712,0.891C28.324,13.748,28.928,11.74,30.857,10.186z M34.943,15.267
		c1.289-1.037,2.178-2.293,2.605-3.526l1.313,1.632c0.669,0.833,0.058,2.852-1.888,4.417c-1.949,1.563-4.059,1.714-4.735,0.872
		l-1.297-1.613C32.238,16.899,33.656,16.301,34.943,15.267z M21.587,8.547h8.131c-0.038,0.029-0.078,0.05-0.115,0.081
		c-2.676,2.155-3.639,5.263-2.244,7.145c0.009,0.012,0.01,0.026,0.02,0.038l0.013,0.016c0.002,0.002,0.002,0.005,0.004,0.008
		c0.003,0.003,0.007,0.006,0.009,0.009l0.021,0.026c0.001,0.001,0.002,0.003,0.003,0.005c0,0,0.001,0,0.001,0.001l3.248,4.039
		c0.677,0.843,1.721,1.256,2.913,1.256c1.456,0,3.134-0.617,4.633-1.822c2.727-2.192,3.69-5.368,2.195-7.229l-2.874-3.573h14.711
		l-4.704,17.642h-30.67L21.587,8.547z M16.582,28.188h30.74v63.47h-30.74V28.188z M49.322,90.691V27.573l12.405-7.893V31.66
		c-4.455,0.514-8.228,1.745-8.815,3.784c-0.211,0.184-0.352,0.445-0.352,0.747v52.477L49.322,90.691z M66.657,98
		c-8.004,0-11.949-1.808-12.097-2.487V49.248c2.543,1.528,7.509,2.246,12.232,2.246c4.678,0,9.385-0.739,11.961-2.166l0.001,46.241
		C78.594,96.261,74.761,98,66.657,98z M78.753,36.091c0,0.018,0.009,0.032,0.01,0.05c-0.001,0.018-0.01,0.032-0.01,0.05v0.112
		c-0.137,0.747-3.762,2.403-10.266,2.674l1.661-5.465C75.663,33.955,78.663,35.407,78.753,36.091z M32.053,46.465
		c-0.419-0.854-0.92-1.687-1.469-2.458c0.216,0.011,0.458,0.019,0.724,0.019h0c1.823,0,4.383-0.35,6.228-2.015
		c2.949-2.661,2.714-7.524,2.703-7.73c-0.026-0.47-0.376-0.858-0.841-0.932c-0.029-0.005-0.732-0.115-1.741-0.115
		c-1.822,0-4.381,0.349-6.226,2.012c-2.112,1.906-2.591,4.934-2.69,6.579c-0.625-0.615-1.257-1.123-1.854-1.464
		c-1.263-0.723-2.143-0.585-2.657-0.342c-0.495,0.233-0.697,0.813-0.472,1.312c0.225,0.497,0.822,0.715,1.323,0.498
		c0.043-0.019,0.318-0.023,0.863,0.298c1.296,0.766,2.846,2.562,3.944,4.526c-5.527,0.98-9.742,5.807-9.742,11.61
		c0,6.508,5.296,11.802,11.805,11.802c6.509,0,11.804-5.294,11.804-11.802C43.756,51.789,38.515,46.521,32.053,46.465z
		 M32.77,36.731c1.373-1.237,3.415-1.497,4.887-1.497c0.209,0,0.403,0.006,0.575,0.014c-0.069,1.312-0.421,3.821-2.036,5.278
		c-1.374,1.239-3.417,1.5-4.889,1.5c-0.208,0-0.402-0.005-0.574-0.014C30.807,40.696,31.164,38.18,32.77,36.731z M31.952,68.065
		c-5.407,0-9.805-4.397-9.805-9.802c0-5.005,3.773-9.138,8.624-9.725c0.262,0.704,0.443,1.396,0.502,2.035
		c0.048,0.519,0.483,0.908,0.995,0.908c0.03,0,0.062-0.001,0.093-0.004c0.55-0.05,0.955-0.538,0.904-1.087
		c-0.056-0.609-0.197-1.243-0.394-1.883c4.977,0.465,8.886,4.661,8.886,9.756C41.756,63.667,37.358,68.065,31.952,68.065z"/>
</g>
</svg>
