<?xml version="1.0" encoding="utf-8"?>
<!-- Generator: Adobe Illustrator 16.0.0, SVG Export Plug-In . SVG Version: 6.00 Build 0)  -->
<!DOCTYPE svg PUBLIC "-//W3C//DTD SVG 1.1//EN" "http://www.w3.org/Graphics/SVG/1.1/DTD/svg11.dtd">
<svg version="1.1" xmlns="http://www.w3.org/2000/svg" xmlns:xlink="http://www.w3.org/1999/xlink" x="0px" y="0px" width="100px"
	 height="100px" viewBox="0 0 100 100" enable-background="new 0 0 100 100" xml:space="preserve">
<g id="Calque_2">
</g>
<g id="Calque_1">
	<path d="M37.847,72.162c0-0.799,0.648-1.445,1.447-1.445c0.796,0,1.444,0.646,1.444,1.445c0,0.798-0.648,1.446-1.444,1.446
		C38.495,73.608,37.847,72.96,37.847,72.162z M45.479,73.608c0.799,0,1.445-0.648,1.445-1.446c0-0.799-0.646-1.445-1.445-1.445
		c-0.798,0-1.444,0.646-1.444,1.445C44.034,72.96,44.681,73.608,45.479,73.608z M40.1,76.732c0.668,0.668,1.542,1.003,2.41,1.003
		c0.844,0,1.681-0.316,2.316-0.952c0.391-0.391,0.391-1.023,0-1.414s-1.023-0.391-1.414,0c-0.243,0.243-0.55,0.372-0.924,0.369
		c-0.363-0.005-0.71-0.154-0.975-0.419c-0.391-0.391-1.023-0.391-1.414,0S39.709,76.341,40.1,76.732z M82.324,37.187
		c1.674,2.127,2.891,5.044,2.891,7.146v49.133c0,4.244-8.241,6.534-15.996,6.534c-6.762,0-13.889-1.742-15.605-5
		c-3.611,0.753-7.471,1.151-11.512,1.151c-15.317,0-27.316-5.483-27.316-12.483V49.203c0-0.278,0.017-0.552,0.041-0.825
		c-0.025-0.229-0.041-0.458-0.041-0.69c0-0.264,0.106-0.5,0.273-0.679c0.973-3.982,4.519-7.032,8.874-7.44v-1.653
		c0-0.213,0.081-0.4,0.195-0.562c-2.337-1.068-3.771-2.427-3.771-4.071v-4.906c0-4.548,10.939-6.928,21.745-6.928
		c3.99,0,7.845,0.328,11.21,0.933c0.417-1.873,2.547-3.464,6.112-4.545c0.918-2.032,2.508-3.203,3.786-4.139
		c1.252-0.917,1.961-1.474,1.961-2.272c0-0.7-0.229-1.699-0.472-2.757c-0.562-2.449-1.198-5.225,0.265-7.061
		C65.813,0.541,67.245,0,69.219,0c1.973,0,3.404,0.541,4.254,1.607c1.463,1.835,0.826,4.612,0.265,7.061
		c-0.242,1.058-0.472,2.057-0.472,2.757c0,0.798,0.709,1.355,1.961,2.272c1.28,0.937,2.872,2.109,3.789,4.146
		c3.99,1.208,6.199,3.05,6.199,5.225v10.265C85.215,34.885,84.104,36.174,82.324,37.187z M60.676,21.463
		c0.507,0.527,3.457,1.473,8.543,1.473c5.085,0,8.035-0.945,8.542-1.473c-0.042-3.464-1.909-4.831-3.715-6.152
		c-1.367-1-2.78-2.034-2.78-3.886c0-0.926,0.254-2.033,0.522-3.204c0.46-2.009,0.982-4.286,0.12-5.368
		C71.457,2.287,70.553,2,69.219,2s-2.239,0.287-2.69,0.854c-0.862,1.083-0.34,3.359,0.12,5.368c0.269,1.171,0.522,2.277,0.522,3.204
		c0,1.852-1.413,2.886-2.78,3.886C62.585,16.633,60.718,17.999,60.676,21.463z M22.356,28.376c0,2.009,7.691,4.928,19.745,4.928
		c3.98,0,7.81-0.332,11.12-0.948v-7.965c-3.309-0.615-7.145-0.944-11.12-0.944C30.048,23.448,22.356,26.367,22.356,28.376z
		 M42.102,38.21c4.959,0,9.682-0.517,13.354-1.429c-1.025-0.697-1.736-1.51-2.046-2.429c-3.389,0.618-7.275,0.953-11.308,0.953
		c-8.017,0-16.104-1.311-19.745-3.845v1.823C22.356,35.292,30.048,38.21,42.102,38.21z M16.841,48.334
		c0.839,5.396,12.063,9.837,25.261,9.837c3.855,0,7.672-0.393,11.12-1.111V44.333c0-1.559,0.669-3.567,1.696-5.37
		c-3.665,0.801-8.153,1.247-12.816,1.247c-5.974,0-11.984-0.729-16.169-2.147v2.459c0,0.552-0.447,1-1,1
		C20.752,41.522,17.301,44.507,16.841,48.334z M31.869,72.336c0-0.163,0.017-0.321,0.024-0.481c-0.743,0.223-1.29,0.906-1.29,1.721
		c0,0.968,0.767,1.753,1.723,1.797C32.03,74.412,31.869,73.393,31.869,72.336z M42.184,80.651c4.585,0,8.315-3.73,8.315-8.315
		s-3.73-8.315-8.315-8.315s-8.314,3.73-8.314,8.315S37.599,80.651,42.184,80.651z M52.049,75.345
		c0.415,0.031,0.826-0.078,1.173-0.317v-2.919c-0.228-0.155-0.481-0.258-0.749-0.301c0.009,0.176,0.026,0.35,0.026,0.528
		C52.499,73.383,52.34,74.393,52.049,75.345z M16.785,52.457v21.397c0,5.683,11.594,10.483,25.316,10.483
		c3.906,0,7.641-0.378,11.12-1.105v-6.011c-0.332,0.094-0.672,0.159-1.021,0.159c-0.324,0-0.644-0.045-0.953-0.125
		c-1.75,3.211-5.157,5.395-9.064,5.395c-3.891,0-7.282-2.167-9.039-5.355c-0.241,0.047-0.485,0.084-0.736,0.084
		c-2.098,0-3.805-1.707-3.805-3.805c0-2.027,1.597-3.673,3.596-3.784c1.138-4.459,5.176-7.771,9.984-7.771
		c4.804,0,8.84,3.306,9.981,7.759c0.356-0.001,0.712,0.05,1.057,0.146V59.098c-3.496,0.7-7.222,1.074-11.12,1.074
		C30.5,60.172,20.808,57.025,16.785,52.457z M42.102,94.15c3.854,0,7.668-0.394,11.12-1.112v-7.771
		c-3.499,0.7-7.228,1.071-11.12,1.071c-11.602,0-21.294-3.147-25.316-7.714v5.043C16.785,89.35,28.379,94.15,42.102,94.15z
		 M80.449,38.06c-3.066,1.185-7.209,1.806-11.23,1.806c-3.968,0-8.057-0.603-11.11-1.757c0,0-0.002,0.001-0.003,0.002
		c-0.07,0.023-0.15,0.043-0.222,0.065c-1.508,1.79-2.662,4.398-2.662,6.157v49.133c0,1.893,5.325,4.534,13.997,4.534
		s13.996-2.641,13.996-4.534V44.333C83.215,42.534,82.007,39.852,80.449,38.06z M83.215,26.357
		c-2.915,2.124-8.574,3.243-13.996,3.243s-11.082-1.12-13.997-3.243v6.975c0,1.893,5.325,4.533,13.997,4.533
		s13.996-2.64,13.996-4.533V26.357z M83.215,23.067c0-0.98-1.356-2.05-3.549-2.894c0.06,0.441,0.096,0.907,0.096,1.41
		c0,3.258-9.464,3.353-10.543,3.353s-10.544-0.094-10.544-3.353c0-0.503,0.037-0.968,0.096-1.41
		c-2.188,0.844-3.549,1.921-3.549,2.894c0,1.893,5.325,4.533,13.997,4.533S83.215,24.96,83.215,23.067z M71.958,87.2h-5.48
		c-0.553,0-1,0.448-1,1s0.447,1,1,1h5.48c0.553,0,1-0.448,1-1S72.511,87.2,71.958,87.2z M71.958,73.728h-5.48c-0.553,0-1,0.448-1,1
		s0.447,1,1,1h5.48c0.553,0,1-0.448,1-1S72.511,73.728,71.958,73.728z M71.958,60.254h-5.48c-0.553,0-1,0.448-1,1s0.447,1,1,1h5.48
		c0.553,0,1-0.448,1-1S72.511,60.254,71.958,60.254z M65.478,47.781c0,0.552,0.447,1,1,1h5.48c0.553,0,1-0.448,1-1s-0.447-1-1-1
		h-5.48C65.925,46.781,65.478,47.229,65.478,47.781z"/>
</g>
</svg>
