<?xml version="1.0" encoding="utf-8"?>
<!-- Generator: Adobe Illustrator 16.0.0, SVG Export Plug-In . SVG Version: 6.00 Build 0)  -->
<!DOCTYPE svg PUBLIC "-//W3C//DTD SVG 1.1//EN" "http://www.w3.org/Graphics/SVG/1.1/DTD/svg11.dtd">
<svg version="1.1" xmlns="http://www.w3.org/2000/svg" xmlns:xlink="http://www.w3.org/1999/xlink" x="0px" y="0px" width="100px"
	 height="100px" viewBox="0 0 100 100" enable-background="new 0 0 100 100" xml:space="preserve">
<g id="Titres">
</g>
<g id="Calque_1">
	<path d="M94.924,74.943h-4.269c-0.343-7.843-4.657-14.069-9.926-14.069c-1.146,0-2.244,0.31-3.271,0.852
		c-1.825-4.174-4.932-6.722-8.306-6.723c-3.434,0-6.564,2.614-8.382,6.898c-1.114-0.654-2.32-1.027-3.586-1.027
		c-1.267,0-2.474,0.374-3.589,1.028c-1.814-4.285-4.945-6.899-8.381-6.899c-3.222,0-6.202,2.321-8.054,6.165V33.382
		c0-0.126-0.01-0.251-0.013-0.377c0.003-0.037,0.013-0.071,0.013-0.108c0-0.035-0.017-0.064-0.02-0.098
		c-0.205-5.774-3.386-11.021-6.213-15.667c-2.125-3.493-4.117-6.793-4.264-9.501c1.422-0.5,1.431-1.15,1.431-1.45V2.107
		c0-0.521,0-2.107-7.478-2.107c-7.476,0-7.476,1.586-7.476,2.107v4.074c0,0.3,0.008,0.95,1.429,1.45
		c-0.146,2.708-2.139,6.008-4.264,9.501c-2.826,4.646-6.008,9.894-6.213,15.667c-0.003,0.034-0.02,0.063-0.02,0.098
		c0,0.037,0.01,0.071,0.013,0.108c-0.003,0.126-0.013,0.25-0.013,0.377v57.317c0,3.962,14.85,4.076,16.543,4.076
		c2.125,0,4.167-0.086,6.097-0.246l1.165,4.711c0.11,0.446,0.511,0.76,0.971,0.76h9.229c0.366,0,0.702-0.2,0.878-0.521l4.663-8.546
		h3.309l4.552,8.538c0.174,0.326,0.514,0.53,0.883,0.53h9.229c0.366,0,0.703-0.2,0.878-0.521l4.659-8.546h3.59l4.552,8.538
		c0.174,0.326,0.514,0.53,0.883,0.53h9.231c0.458,0,0.857-0.312,0.97-0.755l5.623-22.301h2.944c0.553,0,1-0.448,1-1
		S95.477,74.943,94.924,74.943z M77.557,63.964c0.035-0.026,0.074-0.047,0.104-0.078c0.945-0.65,1.981-1.012,3.068-1.012
		c4.183,0,7.615,5.33,7.928,12.069H72.801C73.029,70.021,74.921,65.854,77.557,63.964z M69.153,57.003
		c2.647,0,5.146,2.237,6.627,5.881c-2.809,2.447-4.752,6.899-4.978,12.059h-3.691c-0.218-4.981-2.037-9.299-4.689-11.794
		C63.891,59.343,66.432,57.003,69.153,57.003z M53.683,64.226c0.048-0.035,0.095-0.066,0.136-0.108
		c1.024-0.79,2.163-1.244,3.367-1.244c1.206,0,2.347,0.456,3.372,1.248c0.034,0.034,0.073,0.06,0.112,0.089
		c2.472,1.987,4.225,6.008,4.443,10.732H49.257C49.476,70.23,51.221,66.219,53.683,64.226z M45.216,57.003
		c2.725,0,5.264,2.341,6.731,6.148c-2.652,2.495-4.471,6.813-4.688,11.792h-3.691c-0.226-5.161-2.17-9.613-4.979-12.06
		C40.07,59.24,42.569,57.003,45.216,57.003z M35.776,63.366c0.314,0.144,0.623,0.309,0.921,0.513
		c0.044,0.045,0.099,0.077,0.151,0.113c2.618,1.902,4.493,6.051,4.721,10.951H25.712c0.313-6.74,3.745-12.069,7.929-12.069
		c0.738,0,1.45,0.179,2.129,0.489C35.771,63.364,35.774,63.365,35.776,63.366z M20.619,1.844c1.231,0,2.313,0.104,3.23,0.264
		c-0.917,0.159-1.999,0.262-3.23,0.262s-2.313-0.104-3.23-0.262C18.306,1.947,19.388,1.844,20.619,1.844z M15.144,3.727
		c1.104,0.283,2.808,0.487,5.476,0.487c2.669,0,4.374-0.204,5.478-0.487v2c-0.684,0.238-2.581,0.561-5.478,0.561
		c-2.896,0-4.792-0.324-5.476-0.561V3.727z M12.018,18.171c2.182-3.587,4.229-6.986,4.523-10.109
		c1.023,0.138,2.343,0.226,4.078,0.226c1.736,0,3.056-0.088,4.079-0.226c0.294,3.123,2.341,6.522,4.522,10.109
		c2.688,4.417,5.711,9.403,5.921,14.638c-0.697,0.767-5.588,2.163-14.522,2.163S6.794,33.577,6.097,32.81
		C6.307,27.574,9.33,22.588,12.018,18.171z M6.076,35.054c4.108,1.849,13.236,1.919,14.543,1.919s10.435-0.07,14.543-1.919v4.29
		c-0.042,0.094-0.082,0.189-0.094,0.297c-0.624,5.662-6.162,10.271-11.839,9.886c-1.509-0.105-2.979-0.51-4.535-0.939
		c-1.633-0.45-3.321-0.915-5.087-1.016c-2.185-0.125-5.464,0.694-7.531,2.434V35.054z M6.076,54.105
		c0.063-0.137,0.106-0.284,0.102-0.445c-0.02-0.657,0.287-1.296,0.91-1.902c1.556-1.512,4.479-2.307,6.405-2.189
		c1.554,0.088,3.067,0.505,4.67,0.947c1.582,0.436,3.219,0.886,4.928,1.006c4.813,0.333,9.519-2.385,12.071-6.41v15.957
		c-0.497-0.116-1.003-0.195-1.521-0.195c-5.27,0-9.584,6.227-9.927,14.069h-5.211c-0.553,0-1,0.448-1,1s0.447,1,1,1h3.864
		l0.943,3.813c-0.887,0.031-1.784,0.053-2.691,0.053c-9.004,0-13.905-1.419-14.543-2.182V54.105z M20.619,92.775
		c-8.995,0-13.897-1.416-14.543-2.18V80.89c4.108,1.85,13.236,1.919,14.543,1.919c1.075,0,2.137-0.028,3.182-0.071l2.429,9.824
		C24.449,92.701,22.571,92.775,20.619,92.775z M84.607,98h-7.852l-4.552-8.538c-0.174-0.326-0.514-0.53-0.883-0.53h-4.784
		c-0.366,0-0.703,0.2-0.878,0.521L61,98h-8.035l-4.552-8.538c-0.174-0.326-0.514-0.53-0.883-0.53h-4.503
		c-0.366,0-0.702,0.2-0.878,0.521L37.486,98h-7.852l-5.207-21.057h65.489L84.607,98z"/>
</g>
</svg>
