<?xml version="1.0" encoding="utf-8"?>
<!-- Generator: Adobe Illustrator 16.0.0, SVG Export Plug-In . SVG Version: 6.00 Build 0)  -->
<!DOCTYPE svg PUBLIC "-//W3C//DTD SVG 1.1//EN" "http://www.w3.org/Graphics/SVG/1.1/DTD/svg11.dtd">
<svg version="1.1" xmlns="http://www.w3.org/2000/svg" xmlns:xlink="http://www.w3.org/1999/xlink" x="0px" y="0px" width="100px"
	 height="100px" viewBox="0 0 100 100" enable-background="new 0 0 100 100" xml:space="preserve">
<g id="Calque_2">
</g>
<g id="Calque_1">
	<path d="M92.991,52.549c-3.077-12.432-5.983-24.173-5.983-29.484c0-0.129-0.029-0.25-0.073-0.363
		c1.066-0.281,1.496-0.641,1.566-1.2l3.871-13.296c0.041-0.14,0.046-0.279,0.028-0.414c0.012-0.087,0.012-0.167,0.012-0.236
		c0-0.8,0-2.923-17.945-2.923c-17.954,0-17.954,2.123-17.954,2.923c0,0.078,0,0.169,0.017,0.269c-0.029,0.28,0.048,0.57,0.257,0.791
		c0.161,0.17,3.777,3.98,5.362,5.435l1.8,7.422c0.059,0.577,0.487,0.943,1.572,1.23c-0.044,0.113-0.073,0.234-0.073,0.363
		c0,2.775-0.797,7.314-1.994,12.782c-3.741-5.897-8.618-8.724-13.774-8.154c-0.031-0.31-0.187-0.603-0.477-0.771
		c-7.522-4.356-20.302-3.633-28.67,5.118C4.09,49.238,0.15,75.205,0.007,83.695C0.006,83.707,0,83.718,0,83.729
		c0,0.045,0.004,0.091,0.004,0.136C0.003,83.969,0,84.083,0,84.181c0,0.031,0.015,0.058,0.018,0.088
		C0.2,89.731,3.163,95.072,9.548,95.072c1.314,0,2.438,0.091,3.431,0.171c0.806,0.064,1.555,0.125,2.278,0.125
		c2.095,0,3.973-0.515,6.375-2.884c1.12-0.755,19.848-13.416,34.24-25.075c-1.956,8.518-3.419,16.139-3.419,20.906
		c0,1.248,1.283,2.241,7.545,3.035c4.341,0.551,10.105,0.854,16.229,0.854c6.124,0,11.888-0.304,16.229-0.854
		c6.261-0.794,7.544-1.787,7.544-3.035C100,80.869,96.437,66.472,92.991,52.549z M74.466,6.632c7.704,0,12.318,0.48,14.551,0.922
		c-2.233,0.442-6.848,0.922-14.551,0.922c-7.707,0-12.324-0.479-14.559-0.922C62.142,7.112,66.759,6.632,74.466,6.632z
		 M64.019,13.277c-0.048-0.2-0.158-0.381-0.313-0.517c-0.65-0.569-1.928-1.856-3.085-3.045c2.608,0.438,6.866,0.76,13.845,0.76
		c8.698,0,13.173-0.499,15.483-1.104l-3.3,11.333c-1.084,0.347-5.071,0.877-10.425,0.877c-5.321,0-9.291-0.524-10.402-0.871
		L64.019,13.277z M2.004,83.885c0.094-9.943,5.025-34.827,19.973-50.462c7.372-7.707,18.401-8.654,25.338-5.226
		c-1.098,0.338-2.203,0.809-3.306,1.453c-0.686,0.4-1.349,0.859-2,1.347c-0.096-0.093-0.211-0.169-0.344-0.218
		c-3.645-1.343-9.278-0.626-12.827,1.636c-2.088,1.331-3.398,3.096-3.831,5.145c-1.123,0.183-2.295,0.949-3.336,2.21
		c-1.677,2.03-3.021,5.354-2.393,8.288c-2.363,1.057-4.666,3.538-5.713,6.26c-0.788,2.049-0.811,4.063-0.083,5.782
		c-1.85,1.343-3.759,4.704-4.439,7.443c-0.559,2.249-0.373,4.154,0.515,5.5c-0.852,0.859-1.487,2.164-1.896,3.896
		c-1.14,4.837-0.25,12.059,1.851,16.132C4.036,93.049,2.051,88.149,2.004,83.885z M13.14,93.249c-0.4-0.032-0.83-0.064-1.277-0.095
		c-0.014-0.023-0.016-0.051-0.032-0.074C9.56,89.807,8.479,82.186,9.609,77.397c0.403-1.709,1.069-2.893,1.876-3.335
		c0.289-0.158,0.481-0.447,0.514-0.774c0.034-0.328-0.096-0.65-0.346-0.864c-1.266-1.077-0.962-3.219-0.669-4.398
		c0.839-3.378,3.202-6.334,4.064-6.525c0.318-0.071,0.583-0.293,0.707-0.594c0.125-0.302,0.095-0.645-0.08-0.92
		c-1.106-1.737-0.742-3.651-0.242-4.95c0.963-2.504,3.257-4.823,5.336-5.397c0.272-0.075,0.5-0.262,0.627-0.515
		s0.141-0.547,0.039-0.811c-0.877-2.262,0.262-5.434,1.779-7.27c0.869-1.053,1.818-1.637,2.48-1.512
		c0.28,0.05,0.563-0.019,0.787-0.19s0.365-0.43,0.388-0.711c0.151-1.814,1.175-3.338,3.044-4.529
		c3.115-1.984,7.555-2.362,10.336-1.648c-5.685,5.136-9.959,13.471-13.078,22.384c-0.134-0.013-0.272-0.001-0.408,0.045
		c-5.056,1.687-8.757,5.718-10.154,11.061c-1.505,5.754-0.048,11.961,3.801,16.2c0.105,0.115,0.231,0.196,0.367,0.251
		c-0.488,3.745-0.729,6.829-0.758,8.87C17.568,93.597,16.053,93.481,13.14,93.249z M21.13,79.876
		c-2.82-3.691-3.816-8.724-2.585-13.427c1.125-4.303,3.96-7.61,7.833-9.259C23.811,65.1,22.118,73.254,21.13,79.876z M22.066,89.771
		c0.62-12.388,6.657-48.88,22.952-58.395c9.094-5.312,15.087,2.654,17.242,6.325c0.151,0.258,0.401,0.413,0.673,0.466
		c-1.009,4.429-2.224,9.344-3.471,14.381c-0.967,3.907-1.941,7.847-2.846,11.665C44.142,74.545,27.293,86.202,22.066,89.771z
		 M76.227,90.205c-12.425,0-20.431-1.213-21.773-2.138c0.079-7.278,3.572-21.388,6.951-35.038
		c3.107-12.553,6.042-24.409,6.042-29.965c0-0.004-0.002-0.007-0.002-0.011c0.221,0.03,0.434,0.061,0.681,0.091
		c2.318,0.282,5.195,0.438,8.099,0.438c2.907,0,5.785-0.155,8.104-0.438c0.248-0.03,0.461-0.061,0.683-0.092
		c0,0.004-0.002,0.008-0.002,0.012c0,5.556,2.935,17.412,6.042,29.965c3.378,13.65,6.871,27.76,6.949,35.038
		C96.657,88.992,88.651,90.205,76.227,90.205z"/>
</g>
</svg>
