<?xml version="1.0" encoding="utf-8"?>
<!-- Generator: Adobe Illustrator 16.0.0, SVG Export Plug-In . SVG Version: 6.00 Build 0)  -->
<!DOCTYPE svg PUBLIC "-//W3C//DTD SVG 1.1//EN" "http://www.w3.org/Graphics/SVG/1.1/DTD/svg11.dtd">
<svg version="1.1" xmlns="http://www.w3.org/2000/svg" xmlns:xlink="http://www.w3.org/1999/xlink" x="0px" y="0px" width="100px"
	 height="100px" viewBox="0 0 100 100" enable-background="new 0 0 100 100" xml:space="preserve">
<g id="Titres">
</g>
<g id="Calque_1">
	<path d="M100,47.216c0-0.026-0.013-0.048-0.015-0.074c-0.006-0.083-0.022-0.163-0.049-0.243c-0.014-0.04-0.026-0.079-0.044-0.116
		c-0.035-0.073-0.083-0.138-0.136-0.201c-0.024-0.029-0.043-0.062-0.071-0.088c-0.008-0.008-0.013-0.019-0.021-0.026L77.044,26.406
		c-0.033-0.029-0.074-0.04-0.109-0.063c-0.057-0.039-0.111-0.075-0.173-0.101c-0.059-0.024-0.117-0.038-0.179-0.051
		c-0.064-0.013-0.126-0.024-0.192-0.025c-0.062,0-0.12,0.009-0.181,0.02c-0.065,0.011-0.128,0.024-0.19,0.049
		c-0.061,0.024-0.114,0.058-0.169,0.093c-0.037,0.024-0.079,0.033-0.114,0.063c-1.271,1.072-3.45,0.421-4.548-0.875
		c-0.585-0.691-1.026-1.732,0.195-2.771c0.02-0.017,0.028-0.04,0.045-0.058c0.019-0.018,0.042-0.026,0.06-0.045
		c0.029-0.033,0.039-0.074,0.063-0.109c0.038-0.057,0.073-0.111,0.099-0.172c0.024-0.06,0.039-0.12,0.051-0.183
		c0.013-0.063,0.023-0.123,0.023-0.187c0-0.065-0.009-0.125-0.021-0.189c-0.011-0.063-0.024-0.122-0.048-0.182
		c-0.024-0.063-0.059-0.118-0.097-0.175c-0.023-0.036-0.032-0.076-0.061-0.109c-0.017-0.02-0.041-0.028-0.058-0.046
		c-0.018-0.018-0.026-0.042-0.045-0.059L58.245,9.731c-0.182-0.159-0.416-0.247-0.658-0.247C42.21,9.484,0,15.106,0,33.204v36.673
		c0,0.008,0.004,0.015,0.004,0.022c0,0.008-0.004,0.015-0.003,0.022c0.003,0.066,0.03,0.122,0.045,0.184
		c0.015,0.06,0.019,0.122,0.044,0.177c0.027,0.061,0.071,0.108,0.109,0.162c0.037,0.052,0.067,0.108,0.113,0.152
		c0.031,0.029,0.07,0.046,0.104,0.071c0.071,0.052,0.141,0.104,0.225,0.137c0.027,0.01,0.059,0.009,0.086,0.018
		C0.816,70.848,0.903,70.877,1,70.877c0.008,0,0.015-0.004,0.023-0.005c0.007,0,0.014,0.004,0.021,0.004l0.154-0.002
		c2.217,0,4.09,1.312,4.09,2.864c0,0.442-0.13,1.048-0.229,1.193c-0.01,0.014-0.012,0.03-0.021,0.044
		c-0.037,0.054-0.059,0.115-0.084,0.176c-0.027,0.063-0.056,0.124-0.069,0.19c-0.003,0.016-0.014,0.028-0.016,0.044
		c-0.007,0.045,0.007,0.087,0.007,0.132c-0.001,0.071-0.003,0.14,0.01,0.209c0.013,0.063,0.037,0.12,0.061,0.179
		c0.024,0.06,0.046,0.117,0.082,0.171c0.039,0.059,0.087,0.105,0.137,0.155c0.032,0.032,0.052,0.072,0.089,0.101
		c0.015,0.011,0.033,0.015,0.048,0.025c0.036,0.024,0.074,0.04,0.112,0.059c0.076,0.038,0.152,0.067,0.233,0.084
		c0.021,0.004,0.039,0.019,0.061,0.022l93.142,13.981c0.049,0.008,0.099,0.011,0.148,0.011c0.238,0,0.47-0.085,0.652-0.242
		c0.221-0.19,0.348-0.467,0.348-0.758V77.862c0-0.064-0.025-0.121-0.037-0.182c-0.012-0.065-0.015-0.133-0.039-0.193
		c-0.025-0.061-0.067-0.109-0.104-0.164c-0.035-0.053-0.061-0.111-0.105-0.157c-0.044-0.046-0.103-0.075-0.155-0.111
		c-0.052-0.037-0.099-0.081-0.158-0.107c-0.061-0.026-0.129-0.031-0.195-0.045c-0.06-0.013-0.114-0.04-0.178-0.042
		c-1.513-0.044-2.785-1.979-2.723-4.14c0.065-2.21,1.234-3.981,2.617-3.981c0.016,0,0.032,0,0.048,0c0.006,0,0.01-0.002,0.016-0.002
		c0.004,0,0.008,0.003,0.013,0.003c0.025,0,0.047-0.013,0.072-0.015c0.385-0.013,0.704-0.248,0.845-0.589
		c0.018-0.042,0.018-0.09,0.03-0.134c0.021-0.077,0.05-0.151,0.052-0.233c0-0.005-0.002-0.009-0.002-0.015
		c0-0.005,0.003-0.009,0.003-0.015V47.216z M57.212,11.485L69.317,22.07c-1.039,1.442-0.951,3.206,0.344,4.735
		c1.088,1.286,2.81,2.135,4.495,2.135c0.738,0,1.467-0.169,2.135-0.529l19.554,17.344l-19.373-2.771
		c-0.412-3.29-3.624-5.859-7.515-5.859c-3.032,0-5.645,1.562-6.851,3.806l-60.04-8.585C3.484,17.622,40.952,11.578,57.212,11.485z
		 M74.512,43.822c-0.08,2.466-2.538,4.454-5.555,4.454c-3.068,0-5.563-2.052-5.563-4.575s2.496-4.575,5.563-4.575
		c3.058,0,5.545,2.04,5.561,4.553c-0.002,0.012-0.01,0.022-0.012,0.035C74.5,43.75,74.513,43.785,74.512,43.822z M98,66.867
		c-2.063,0.537-3.605,2.823-3.693,5.798c-0.084,2.921,1.507,5.414,3.693,6.045v9.645L7.192,74.724
		c0.092-0.521,0.097-0.952,0.097-0.986c0-2.465-2.309-4.502-5.289-4.817V34.356l59.463,8.503c-0.041,0.276-0.069,0.555-0.069,0.841
		c0,3.625,3.393,6.575,7.563,6.575c3.663,0,6.723-2.276,7.414-5.286L98,48.083V66.867z M40.535,58.335
		c-4.737,0-8.592,3.293-8.592,7.34s3.854,7.34,8.592,7.34s8.592-3.293,8.592-7.34S45.272,58.335,40.535,58.335z M40.535,71.016
		c-3.635,0-6.592-2.396-6.592-5.34s2.957-5.34,6.592-5.34s6.592,2.396,6.592,5.34S44.17,71.016,40.535,71.016z M22.599,21.818
		c-2.328,0-4.221,1.545-4.221,3.444c0,1.9,1.894,3.445,4.221,3.445c2.327,0,4.22-1.545,4.22-3.445
		C26.818,23.363,24.925,21.818,22.599,21.818z M22.599,26.708c-1.183,0-2.221-0.675-2.221-1.445c0-0.769,1.038-1.444,2.221-1.444
		c1.183,0,2.22,0.675,2.22,1.444C24.818,26.032,23.781,26.708,22.599,26.708z M71.342,69.638c-0.51,1.423-0.384,2.806,0.354,3.893
		c0.763,1.126,2.105,1.771,3.684,1.771c1.333,0,2.742-0.458,3.968-1.29c1.293-0.876,2.264-2.082,2.734-3.395
		c0.51-1.423,0.384-2.806-0.353-3.893c-0.763-1.126-2.106-1.772-3.685-1.772c-1.333,0-2.742,0.458-3.967,1.289
		C72.784,67.12,71.812,68.326,71.342,69.638z M75.2,67.898c0.897-0.609,1.907-0.944,2.844-0.944c0.532,0,1.502,0.116,2.029,0.895
		c0.37,0.545,0.415,1.29,0.126,2.095c-0.329,0.917-1.029,1.774-1.974,2.414c-0.898,0.609-1.909,0.945-2.845,0.945
		c-0.531,0-1.501-0.116-2.028-0.894c-0.371-0.545-0.416-1.29-0.127-2.096C73.553,69.396,74.254,68.539,75.2,67.898z M54.388,18.426
		c-1.069-0.896-2.516-1.446-4.075-1.55c-3.41-0.226-6.189,1.693-6.362,4.279c-0.088,1.311,0.501,2.568,1.66,3.539
		c1.069,0.895,2.516,1.446,4.075,1.55c0.18,0.012,0.358,0.018,0.535,0.018c3.159,0,5.665-1.848,5.827-4.297
		C56.136,20.654,55.546,19.397,54.388,18.426z M49.819,24.249c-1.139-0.076-2.178-0.463-2.924-1.088
		c-0.656-0.55-0.993-1.214-0.949-1.872c0.091-1.363,1.774-2.431,3.833-2.431c0.132,0,0.266,0.004,0.401,0.013
		c1.139,0.076,2.177,0.462,2.923,1.087c0.656,0.55,0.993,1.214,0.948,1.873C53.956,23.283,52.044,24.401,49.819,24.249z
		 M19.161,43.414c-1.641,0-3.618,0.675-5.424,1.853c-3.517,2.294-5.166,5.564-3.835,7.606c0.59,0.906,1.686,1.405,3.085,1.405
		c1.643,0,3.619-0.675,5.423-1.852c3.515-2.298,5.162-5.569,3.832-7.609C21.653,43.913,20.559,43.414,19.161,43.414z M17.316,50.752
		c-1.465,0.956-3.083,1.526-4.33,1.526c-0.406,0-1.128-0.064-1.41-0.497c-0.507-0.778,0.508-3.05,3.252-4.84
		c1.467-0.957,3.086-1.528,4.331-1.528c0.405,0,1.125,0.064,1.406,0.496C21.073,46.687,20.059,48.959,17.316,50.752z"/>
</g>
</svg>
