<?xml version="1.0" encoding="utf-8"?>
<!-- Generator: Adobe Illustrator 16.0.0, SVG Export Plug-In . SVG Version: 6.00 Build 0)  -->
<!DOCTYPE svg PUBLIC "-//W3C//DTD SVG 1.1//EN" "http://www.w3.org/Graphics/SVG/1.1/DTD/svg11.dtd">
<svg version="1.1" xmlns="http://www.w3.org/2000/svg" xmlns:xlink="http://www.w3.org/1999/xlink" x="0px" y="0px" width="100px"
	 height="100px" viewBox="0 0 100 100" enable-background="new 0 0 100 100" xml:space="preserve">
<g id="Calque_2">
</g>
<g id="Calque_1">
	<path d="M88.466,33.734c3.287,0,5.962-2.455,5.962-5.472s-2.675-5.472-5.962-5.472s-5.961,2.455-5.961,5.472
		S85.179,33.734,88.466,33.734z M88.466,24.79c2.185,0,3.962,1.558,3.962,3.472s-1.777,3.472-3.962,3.472
		c-2.184,0-3.961-1.558-3.961-3.472S86.282,24.79,88.466,24.79z M99.293,28.262c0-5.436-4.857-9.857-10.827-9.857
		c-2.517,0-4.929,0.788-6.862,2.231v-2.394c1.187-0.741,1.915-1.665,1.915-2.773V4.945C83.519,1.699,77.371,0,71.299,0
		c-6.073,0-12.221,1.698-12.221,4.944v10.524c0,1.108,0.729,2.031,1.914,2.772v4.614l-10.881,11.1v-9.803
		c0-3.721-15.477-4.277-24.702-4.277S0.707,20.431,0.707,24.152v12.71c0,0.793,0.708,1.441,1.903,1.972
		c-1.207,0.982-1.744,2.521-1.744,3.512v9.961c-0.002,0.028-0.016,0.052-0.016,0.08c0,0.042,0.012,0.082,0.016,0.124v33.346
		c-0.002,0.028-0.016,0.052-0.016,0.08c0,0.042,0.012,0.082,0.016,0.124v9.662c0,3.721,15.377,4.276,24.543,4.276
		s24.543-0.556,24.543-4.276v-9.917c0.005-0.047,0.021-0.092,0.021-0.14c0-0.037-0.017-0.068-0.021-0.104V52.257
		c0.005-0.047,0.021-0.092,0.021-0.14c0-0.037-0.017-0.068-0.021-0.104v-9.667c0-0.991-0.537-2.53-1.744-3.512
		c1.195-0.531,1.903-1.179,1.903-1.972v-0.051l12.595-12.848c0.184-0.187,0.286-0.438,0.286-0.7v-4.08
		c2.287,0.812,5.305,1.229,8.307,1.229c3.001,0,6.018-0.417,8.305-1.228v3.767c0,0.421,0.264,0.797,0.66,0.94
		s0.839,0.023,1.109-0.302c0.309-0.372,0.658-0.723,1.037-1.042c1.645-1.382,3.796-2.143,6.056-2.143
		c4.867,0,8.827,3.525,8.827,7.857c0,3.144-2.09,5.973-5.323,7.207c-0.292,0.111-0.516,0.353-0.604,0.653s-0.03,0.624,0.156,0.875
		c7.227,9.765,4.218,25.957,1.799,38.967c-1.044,5.619-2.031,10.932-2.059,15.002c-1.088,0.978-8.534,2.332-19.787,2.332
		c-10.487,0-18.297-1.19-19.788-2.342c-0.44-0.337-1.066-0.256-1.403,0.181c-0.337,0.438-0.257,1.065,0.181,1.403
		c2.469,1.905,12.332,2.758,21.01,2.758c3.638,0,21.786-0.2,21.786-4.158c0-3.908,0.984-9.203,2.026-14.81
		c2.41-12.967,5.391-29.004-1.453-39.508C97.188,35.095,99.293,31.848,99.293,28.262z M48.111,26.17v10.547
		c-1.027,0.999-8.762,2.422-22.702,2.422S3.734,37.716,2.707,36.717V26.17c0.006,0.003,0.014,0.005,0.021,0.008
		c0.243,0.104,0.511,0.201,0.791,0.295c0.068,0.023,0.137,0.046,0.208,0.069c0.289,0.093,0.59,0.182,0.911,0.266
		c0.051,0.013,0.104,0.025,0.156,0.038c0.293,0.075,0.6,0.146,0.917,0.213c0.079,0.017,0.155,0.034,0.235,0.051
		c0.356,0.073,0.726,0.143,1.107,0.208c0.083,0.014,0.167,0.027,0.251,0.041c0.346,0.058,0.699,0.112,1.061,0.164
		c0.07,0.01,0.139,0.021,0.21,0.03c0.412,0.057,0.834,0.11,1.263,0.16c0.102,0.012,0.204,0.023,0.307,0.035
		c0.413,0.046,0.83,0.09,1.255,0.13c0.034,0.003,0.066,0.007,0.1,0.01c0.454,0.043,0.916,0.082,1.38,0.118
		c0.11,0.008,0.221,0.017,0.332,0.025c0.461,0.035,0.926,0.068,1.393,0.097c0.043,0.002,0.087,0.005,0.13,0.007
		c0.441,0.027,0.884,0.052,1.328,0.074c0.107,0.005,0.214,0.011,0.322,0.017c0.468,0.023,0.935,0.043,1.401,0.062
		c0.083,0.003,0.165,0.006,0.248,0.009c0.416,0.016,0.83,0.03,1.241,0.042c0.092,0.002,0.185,0.006,0.277,0.008
		c0.46,0.013,0.917,0.024,1.368,0.034c0.096,0.002,0.19,0.003,0.286,0.005c0.415,0.008,0.825,0.015,1.229,0.021
		c0.053,0,0.106,0.001,0.159,0.002c0.441,0.006,0.872,0.01,1.295,0.013c0.098,0,0.194,0.001,0.291,0.001
		c0.419,0.002,0.833,0.004,1.23,0.004s0.811-0.001,1.23-0.004c0.097,0,0.193-0.001,0.291-0.001c0.423-0.003,0.854-0.007,1.295-0.013
		c0.053,0,0.106-0.001,0.16-0.002c0.404-0.006,0.814-0.013,1.229-0.021c0.096-0.002,0.19-0.003,0.286-0.005
		c0.451-0.01,0.907-0.021,1.368-0.034c0.092-0.002,0.185-0.006,0.277-0.008c0.412-0.013,0.825-0.027,1.241-0.042
		c0.083-0.003,0.165-0.006,0.248-0.009c0.466-0.019,0.934-0.039,1.401-0.062c0.107-0.005,0.214-0.011,0.322-0.017
		c0.443-0.022,0.886-0.047,1.328-0.074c0.043-0.002,0.086-0.005,0.13-0.007c0.467-0.029,0.932-0.063,1.393-0.097
		c0.111-0.008,0.222-0.017,0.332-0.025c0.465-0.037,0.926-0.075,1.38-0.118c0.034-0.003,0.066-0.006,0.1-0.01
		c0.425-0.041,0.842-0.084,1.255-0.13c0.103-0.012,0.205-0.023,0.307-0.035c0.429-0.05,0.852-0.103,1.263-0.16
		c0.071-0.01,0.14-0.021,0.21-0.03c0.362-0.052,0.715-0.106,1.06-0.164c0.084-0.014,0.169-0.027,0.252-0.042
		c0.381-0.065,0.75-0.135,1.106-0.208c0.08-0.017,0.157-0.034,0.235-0.051c0.317-0.068,0.624-0.139,0.917-0.213
		c0.051-0.013,0.105-0.025,0.156-0.038c0.321-0.084,0.623-0.173,0.911-0.266c0.071-0.022,0.139-0.046,0.208-0.069
		c0.28-0.095,0.547-0.192,0.791-0.295C48.097,26.175,48.105,26.173,48.111,26.17z M47.908,24.152
		c-1.583,0.986-9.22,2.277-22.499,2.277S4.493,25.139,2.91,24.152c1.583-0.986,9.22-2.277,22.499-2.277S46.326,23.166,47.908,24.152
		z M47.953,85.54c-1.129,1.119-9.613,2.675-22.675,2.675c-13.737,0-21.367-1.413-22.412-2.41V54.42
		c4.454,1.907,15.307,2.245,22.412,2.245c3.332,0,17.392-0.145,22.675-2.481V85.54z M25.409,98c-13.855,0-21.533-1.421-22.543-2.417
		V87.97c4.454,1.907,15.307,2.245,22.412,2.245c3.332,0,17.392-0.145,22.675-2.481v7.849C46.943,96.579,39.265,98,25.409,98z
		 M45.509,39.903c1.993,0,2.443,2.063,2.443,2.443v9.644c-1.129,1.119-9.613,2.675-22.675,2.675c-13.737,0-21.367-1.413-22.412-2.41
		v-9.909c0-0.38,0.451-2.443,2.443-2.443c0.166,0,0.316-0.05,0.454-0.122c5.332,1.13,13.759,1.358,19.646,1.358
		s14.314-0.228,19.646-1.358C45.193,39.853,45.343,39.903,45.509,39.903z M71.299,2c6.612,0,10.22,1.945,10.22,2.944
		c0,0.999-3.607,2.943-10.22,2.943c-6.613,0-10.221-1.944-10.221-2.943C61.078,3.945,64.686,2,71.299,2z M61.078,15.469V7.771
		c2.301,1.395,6.271,2.118,10.221,2.118c3.949,0,7.919-0.723,10.22-2.118v7.698c0,0.999-3.607,2.943-10.22,2.943
		C64.686,18.412,61.078,16.468,61.078,15.469z M62.88,43.529c-0.307-0.042-0.619,0.064-0.84,0.285l-1.732,1.735h-3.552
		c-0.553,0-1,0.448-1,1v3.552l-1.735,1.734c-0.199,0.199-0.306,0.475-0.292,0.757c0.015,0.282,0.147,0.545,0.365,0.724l10.428,8.533
		l-1.675,3.665c-0.161,0.352-0.104,0.764,0.144,1.059s0.642,0.421,1.018,0.325l6.33-1.646c-0.115,2.983,0.066,9.44,3.691,10.453
		c0.091,0.025,0.181,0.037,0.271,0.037c0.437,0,0.839-0.289,0.962-0.73c0.148-0.532-0.162-1.084-0.693-1.232
		c-1.983-0.554-2.352-5.426-2.227-8.57l6.494,1.688c0.084,0.021,0.168,0.032,0.252,0.032c0.291,0,0.573-0.128,0.766-0.357
		c0.248-0.295,0.305-0.707,0.144-1.059l-1.675-3.665l10.428-8.533c0.218-0.179,0.351-0.441,0.365-0.724
		c0.014-0.282-0.093-0.558-0.292-0.757l-1.735-1.734v-3.552c0-0.552-0.447-1-1-1h-3.553l-1.731-1.735
		c-0.222-0.22-0.532-0.327-0.84-0.285c-0.31,0.041-0.581,0.224-0.736,0.495l-1.688,2.953l0.549-5.696
		c0.033-0.339-0.109-0.672-0.377-0.882c-0.269-0.211-0.626-0.272-0.947-0.158l-2.168,0.755l-2.369-3.21
		c-0.377-0.511-1.232-0.511-1.609,0l-2.367,3.21l-2.171-0.755c-0.32-0.114-0.679-0.053-0.946,0.158
		c-0.268,0.21-0.41,0.543-0.377,0.882l0.55,5.697l-1.689-2.953C63.461,43.753,63.189,43.57,62.88,43.529z M65.88,52.009
		c0.233,0.408,0.725,0.597,1.171,0.456c0.449-0.143,0.738-0.58,0.692-1.049l-0.847-8.775l1.393,0.484
		c0.413,0.144,0.873,0.002,1.133-0.351l2-2.712l2.002,2.712c0.26,0.353,0.72,0.495,1.134,0.351l1.39-0.484l-0.846,8.774
		c-0.046,0.469,0.243,0.906,0.692,1.049c0.447,0.141,0.938-0.047,1.171-0.457l3.349-5.854l1.099,1.101
		c0.188,0.188,0.442,0.293,0.708,0.293h2.968v2.967c0,0.266,0.105,0.52,0.293,0.707l1.247,1.245L76.459,60.79
		c-0.352,0.287-0.465,0.775-0.275,1.189l1.121,2.453l-5.631-1.464c-0.039-0.01-0.078-0.01-0.117-0.015
		c-0.015-0.002-0.026-0.012-0.041-0.013c-0.011-0.001-0.02,0.004-0.03,0.003c-0.021-0.001-0.042-0.008-0.063-0.008
		c-0.085,0-0.169,0.011-0.252,0.032l-5.631,1.464l1.121-2.453c0.189-0.414,0.076-0.902-0.275-1.189l-10.169-8.322l1.247-1.245
		c0.188-0.188,0.293-0.441,0.293-0.707v-2.967h2.967c0.266,0,0.521-0.105,0.708-0.293l1.1-1.102L65.88,52.009z M22.314,61.829
		c-1.376-1.046-2.996-1.622-4.561-1.622c-1.685,0-3.11,0.654-4.015,1.844c-1.79,2.357-0.856,6.091,2.081,8.321
		c0.881,0.67,2.029,1.103,3.245,1.562c1.252,0.472,2.546,0.96,3.54,1.715c0.742,0.563,1.168,1.171,1.708,1.939
		c0.834,1.188,1.873,2.665,4.458,4.63c1.376,1.046,2.996,1.622,4.562,1.622c1.685,0,3.111-0.654,4.016-1.844
		c0.897-1.181,1.149-2.721,0.708-4.335c-0.415-1.52-1.406-2.935-2.79-3.986c-1.875-1.426-3.68-1.849-5.272-2.223
		c-1.161-0.271-2.163-0.507-2.936-1.094c-0.817-0.621-1.296-1.56-1.851-2.646C24.55,64.423,23.803,62.961,22.314,61.829z
		 M29.538,71.399c1.466,0.344,2.983,0.699,4.519,1.867c1.036,0.787,1.772,1.825,2.071,2.921c0.273,1.001,0.141,1.924-0.372,2.599
		c-0.517,0.68-1.378,1.054-2.423,1.054c-1.131,0-2.321-0.431-3.351-1.214c-2.338-1.777-3.238-3.058-4.032-4.188
		c-0.589-0.839-1.146-1.631-2.135-2.382c-1.226-0.932-2.723-1.496-4.044-1.994c-1.076-0.406-2.092-0.789-2.741-1.282
		c-2.06-1.564-2.822-4.041-1.699-5.52c0.517-0.68,1.377-1.054,2.422-1.054c1.13,0,2.32,0.431,3.351,1.214
		c1.125,0.855,1.707,1.995,2.323,3.201c0.61,1.195,1.242,2.432,2.422,3.328C26.96,70.795,28.212,71.089,29.538,71.399z"/>
</g>
</svg>
