<svg id="Calque_1" data-name="Calque 1" xmlns="http://www.w3.org/2000/svg" viewBox="0 0 81.72 100"><title>09_m_DIET BIO</title><path d="M22.13,62a6.73,6.73,0,0,1,.24,1.87A9.73,9.73,0,0,1,22.31,65c0,.37-.11.71-.19,1a8.15,8.15,0,0,1-.29,1,4,4,0,0,1-.4.77,1.78,1.78,0,0,1-.48.53.93.93,0,0,1-.55.18.83.83,0,0,1-.37-.08,1,1,0,0,1-.32-.2.92.92,0,0,1-.24-.28.58.58,0,0,1-.09-.3.84.84,0,0,1,0-.27,2.72,2.72,0,0,1,.11-.25l.14-.28a2.09,2.09,0,0,0,.14-.3,8.61,8.61,0,0,0,.42-1.16A4.75,4.75,0,0,0,20.42,64a3.41,3.41,0,0,0-.07-.73,2.25,2.25,0,0,0-.22-.6,1.25,1.25,0,0,0-.38-.41,1.14,1.14,0,0,0-1-.06,1.07,1.07,0,0,0-.34.25,1.64,1.64,0,0,0-.26.37,3.43,3.43,0,0,0-.19.44l-.12.34a1.07,1.07,0,0,1-.07.19L17.7,64l-.11.4-.06.22c0,.06,0,.11-.05.16a.78.78,0,0,0-.05.14,1.38,1.38,0,0,0-.06.16l-.25.7a9,9,0,0,1-.52,1.18,3.24,3.24,0,0,1-.61.8,2.32,2.32,0,0,1-.77.46,3.42,3.42,0,0,1-1,.14A2.93,2.93,0,0,1,12.85,68a3,3,0,0,1-1-.9,4.18,4.18,0,0,1-.66-1.41,6.8,6.8,0,0,1-.24-1.88A8,8,0,0,1,11,63a6.61,6.61,0,0,1,.15-.89,5.72,5.72,0,0,1,.25-.86,4.51,4.51,0,0,1,.36-.73,2.11,2.11,0,0,1,.47-.51,1.06,1.06,0,0,1,.59-.19,1,1,0,0,1,.35.07,1.05,1.05,0,0,1,.27.2,1.12,1.12,0,0,1,.18.28,1,1,0,0,1,.06.33.84.84,0,0,1-.1.42c-.12.23-.22.45-.31.66s-.15.4-.21.6a6.18,6.18,0,0,0-.12.62c0,.22,0,.45,0,.71a3.35,3.35,0,0,0,.07.71,2.45,2.45,0,0,0,.2.63,1.2,1.2,0,0,0,.36.44.9.9,0,0,0,1.14-.07,2,2,0,0,0,.43-.63,5.61,5.61,0,0,0,.32-.88c.09-.33.18-.65.28-1a14.2,14.2,0,0,1,.51-1.45,4.18,4.18,0,0,1,.65-1.12,2.58,2.58,0,0,1,.89-.72A2.91,2.91,0,0,1,19,59.4a3.15,3.15,0,0,1,1.42.32,2.9,2.9,0,0,1,1.08.9A4.17,4.17,0,0,1,22.13,62ZM22,50.4a6.72,6.72,0,0,1,0,4.65,4.42,4.42,0,0,1-1.15,1.69,4.83,4.83,0,0,1-1.81,1,7.53,7.53,0,0,1-2.35.35,7.65,7.65,0,0,1-2.3-.33,5.13,5.13,0,0,1-1.82-1,4.79,4.79,0,0,1-1.19-1.68,6.1,6.1,0,0,1-.43-2.36,6,6,0,0,1,.42-2.33,4.43,4.43,0,0,1,1.17-1.69,5.1,5.1,0,0,1,1.81-1,7.51,7.51,0,0,1,2.34-.35A7.41,7.41,0,0,1,19,47.7a4.87,4.87,0,0,1,1.81,1A4.64,4.64,0,0,1,22,50.4Zm-1.53,2.35a2.07,2.07,0,0,0-1-1.86,5.32,5.32,0,0,0-2.82-.61,7.74,7.74,0,0,0-1.61.15,3.69,3.69,0,0,0-1.19.45,2,2,0,0,0-.73.76,2.28,2.28,0,0,0-.26,1.11,2.22,2.22,0,0,0,.26,1.09,2.07,2.07,0,0,0,.73.77,3.69,3.69,0,0,0,1.19.45,8.54,8.54,0,0,0,1.61.14,5.49,5.49,0,0,0,2.82-.59A2.05,2.05,0,0,0,20.42,52.75ZM11.59,40.86c.13.13.29.09.47.16s.37-.17.57-.17h5.92a2.35,2.35,0,0,1,1.42.62,1.92,1.92,0,0,1,.45,1.36,1.76,1.76,0,0,1-.12.66,2.3,2.3,0,0,1-.35.58,2,2,0,0,1-.24.26c-.09.08-.17.17-.25.25a1.56,1.56,0,0,0-.2.27.51.51,0,0,0-.08.29.73.73,0,0,0,.08.36,1.11,1.11,0,0,0,.21.32.9.9,0,0,0,.3.21.8.8,0,0,0,.36.09,1.24,1.24,0,0,0,.59-.18,2.74,2.74,0,0,0,.58-.45,3.33,3.33,0,0,0,.81-1.32,5,5,0,0,0,.25-1.59,5.41,5.41,0,0,0-.24-1.68,3.38,3.38,0,0,0-.72-1.24,3.22,3.22,0,0,0-1.2-.77,4.66,4.66,0,0,0-1.66-.27H12.63a1.56,1.56,0,0,0-.57.11,1.35,1.35,0,0,0-.47.3,1.43,1.43,0,0,0-.31.43,1.21,1.21,0,0,0-.12.53,1.1,1.1,0,0,0,.12.51A.92.92,0,0,0,11.59,40.86Zm-.21-7.44a2.13,2.13,0,0,1-.21-1,2.3,2.3,0,0,1,.16-.92,1.87,1.87,0,0,1,.54-.7,4.15,4.15,0,0,1,1-.58c.41-.19.91-.39,1.5-.62l5.47-2.06.29-.12.29-.11.29-.08a.87.87,0,0,1,.26,0,1.26,1.26,0,0,1,.49.1,1.09,1.09,0,0,1,.36.28A1.31,1.31,0,0,1,22,28a1.57,1.57,0,0,1,.08.49A1.28,1.28,0,0,1,22,29a1,1,0,0,1-.26.38,1.9,1.9,0,0,1-.47.3c-.2.09-.31.19-.59.3l-.83.36v4.26l.83.31a4.35,4.35,0,0,1,.66.28,1.37,1.37,0,0,1,.44.31.88.88,0,0,1,.24.39,1.53,1.53,0,0,1,.07.51,1.51,1.51,0,0,1-.08.48,1.36,1.36,0,0,1-.23.41,1.22,1.22,0,0,1-.36.27,1.15,1.15,0,0,1-.5.1l-.25,0-.29-.09-.3-.11-.28-.11-5.47-2c-.52-.19-1-.37-1.36-.54a4.88,4.88,0,0,1-1-.58A2.08,2.08,0,0,1,11.38,33.42Zm2.07-1,5.14,1.65V30.77l-5.14,1.65Zm46,.62v12L80.06,42.8a1,1,0,0,1,.78.25,1,1,0,0,1,.33.74v5.07c3.53,1.3,5.12,9.9,5.12,27.39V95.94a1,1,0,0,1-.89,1l-27.86,3h-.11a1,1,0,0,1-.38-.08h0L47,95.5a1,1,0,0,1-.6-.91V81l-4.29,1.92h0a.86.86,0,0,1-.39.09H5.57a1,1,0,0,1-1-1V17.71a.14.14,0,0,1,0-.06.86.86,0,0,1,0-.27l0-.08A.84.84,0,0,1,4.85,17l8.24-8.71V1a1,1,0,0,1,1-1h36a1,1,0,0,1,1,1V8.32c1.6,1.9,8.45,12.4,8.45,12.4ZM15.09,7.71h34V2h-34Zm-7.19,9H41.41l6.42-7H14.52ZM6.57,81H40.72V18.71H6.57Zm49.86-1.67c0-22-2.81-25.13-3.85-25.52-4.17,3.47-4.16,17.4-4.16,25v.65h0V93.94l8,3.53V79.31ZM80.21,50.68l-25.1,2.76c2.27,3.34,3.32,11.68,3.32,25.87V97.89l25.86-2.84V76.26C84.29,52.3,81,50.72,80.21,50.68Zm-1-5.77L53.43,47.74v3.88l25.74-2.84ZM57.44,30.14V21.43l-7.36-11.2-7.35,8V80.43l3.7-1.66v0c0-8.5,0-22.59,5-26.6V46.84a1,1,0,0,1,.89-1l5.12-.56V30.14ZM79.09,78.35c0,5.13-2.41,8-6.78,8A6.14,6.14,0,0,1,67,83.86a9.28,9.28,0,0,1-1.47-5.51c0-5.93,3.86-16,6.8-16S79.09,72.42,79.09,78.35ZM72.31,64.42c-1.54,1-5.76,10.28-4.6,16.06.51,2.58,2,3.83,4.6,3.83a4.22,4.22,0,0,0,4.59-3.82C78.06,74.71,73.85,65.44,72.31,64.42Zm.33,7.29c.52,1.13,2.33,8.11.72,10.31a1,1,0,0,0,.21,1.4,1,1,0,0,0,1.4-.21c2.5-3.4-.21-11.91-.62-12.52a1,1,0,0,0-1.41-.32A1,1,0,0,0,72.64,71.71Zm-.35-3.86a1,1,0,0,0-1.39.28c-.3.45-3.68,8.9-1.35,13.64a1,1,0,0,0,.9.56,1,1,0,0,0,.44-.1,1,1,0,0,0,.46-1.34c-1.78-3.63.87-11,1.24-11.7A1,1,0,0,0,72.29,67.85Z" transform="translate(-4.57)"/></svg>