<svg id="Calque_1" data-name="Calque 1" xmlns="http://www.w3.org/2000/svg" viewBox="0 0 96.53 98.39"><title>09_h_BREAKFAST BIO</title><path d="M32.59,22.73a4.85,4.85,0,0,0,2.49-3.26,14.43,14.43,0,0,0,.32-3.28,17.58,17.58,0,0,1,.29-3.35c.58-2.78,1.71-4.46,3.46-5.14a1,1,0,0,1,.72,1.87c-1.07.41-1.8,1.61-2.23,3.68a16.1,16.1,0,0,0-.24,3A16.07,16.07,0,0,1,37,20a6.79,6.79,0,0,1-3.4,4.47,1.06,1.06,0,0,1-.51.14,1,1,0,0,1-.51-1.86Zm-8.13-4.44a1,1,0,0,1,.36-1.37,4.8,4.8,0,0,0,2.48-3.25,13.94,13.94,0,0,0,.32-3.28A19.48,19.48,0,0,1,27.91,7c.58-2.78,1.71-4.45,3.46-5.13a1,1,0,1,1,.72,1.87C31,4.18,30.3,5.38,29.87,7.44a17.1,17.1,0,0,0-.25,3,16,16,0,0,1-.38,3.73,6.8,6.8,0,0,1-3.41,4.48,1,1,0,0,1-.5.13A1,1,0,0,1,24.46,18.29Zm73.79,58.4V76.6a.75.75,0,0,0,0-.16l0-.1a1.08,1.08,0,0,0-.2-.29l0,0a1,1,0,0,0-.25-.17l-.11,0-.13,0L72.3,71,58.49,68.46a6,6,0,0,0-4.13.61,9.94,9.94,0,0,0-4.69-2.28,31.57,31.57,0,0,0-10.94.29c.87-1.37,1.71-2.79,2.46-4.27S42.43,60,43,58.52c.3-.84.59-1.73.89-2.72a9.42,9.42,0,0,0,5.87,2.07,9.54,9.54,0,0,0,0-19.08,9.41,9.41,0,0,0-3.1.54,38.55,38.55,0,0,0-.15-6.73c-.06-.62-.1-1.1-.1-1.4a1,1,0,0,0-.72-.95c-2.69-3-18.21-3.18-21.56-3.18-.95,0-1.87,0-2.78,0-.11-1-.21-2-.3-2.87a49.28,49.28,0,0,0-1.6-9.87c-2-6.76-5.63-13.61-8.75-12.68l-2.94.88c-3.13.94-2.38,8.64-.36,15.4a50.48,50.48,0,0,0,4.09,9.13c.1.18.2.38.29.56-9.59,1-9.6,2.77-9.6,3.54h0a63.48,63.48,0,0,0-.4,7,62.2,62.2,0,0,0,.41,7.1,59.3,59.3,0,0,0,1.18,6.78,57.28,57.28,0,0,0,1.9,6.4A52.25,52.25,0,0,0,7.8,64.45,48.55,48.55,0,0,0,11,69.84a45.59,45.59,0,0,0,3.72,4.79l.07.07a7.28,7.28,0,0,0,2.8,1.5,6.71,6.71,0,0,0-2.24,3.37,4.2,4.2,0,0,0-.05.8h0s0,5.41,0,6.25c0,3.06,4.13,3.82,5.49,4.08A12,12,0,0,0,26,90.31a2.11,2.11,0,0,0,.17.38,4,4,0,0,0,2.62,1.94l.18.05L68.34,100a.55.55,0,0,0,.18,0,1,1,0,0,0,.34-.07l.08,0,.06,0L97.75,84a1,1,0,0,0,.52-.88V76.76A.19.19,0,0,1,98.25,76.69ZM54.91,71.27c.28-.64,1.64-1.13,3.25-.84L71.93,73l22.42,4.24-26,14.34-8.46-1.42c1.72-.62,4.25-1.26,6.31-1.77,7.35-1.84,15.68-3.93,15.68-8.75,0-4.41-15-7.12-27.22-8A.92.92,0,0,0,54.91,71.27Zm-7.39,11.8-1.76-.32c-14.09-2.5-16.19-4.18-16.19-5,0-2.76,6.51-4.48,17-4.48,16.84,0,33.3,4,33.3,6.32,0,3.26-8.19,5.31-14.17,6.81-5.36,1.34-8.46,2.19-9.42,3.66,0,0,0,0-.05.06s0,0,0,0a.89.89,0,0,0-.11.31l0,0a.43.43,0,0,0,0,0,.5.5,0,0,0,0,.12,1.9,1.9,0,0,1-.52,1.37,1.51,1.51,0,0,1-1.05.48c-1,0-1.6-1.19-1.6-3,0-.26,0-.51,0-.75C53,86,52.65,84.05,47.52,83.07Zm-23.43-54c10.66,0,17.93,1.18,19.69,2.13-1.76.94-9,2.13-19.69,2.13l-1.91,0c-.26-1.47-.48-2.88-.64-4.21C22.38,29.09,23.22,29.07,24.09,29.07ZM9.27,17.4C6.92,9.53,7.52,4.72,8.29,4.49l2.94-.88c.77-.23,3.91,3.46,6.26,11.33A48.9,48.9,0,0,1,19,24.43c.11,1.17.24,2.41.39,3.71h0c.18,1.59.42,3.29.74,5.11-1.22,0-2.38-.09-3.48-.15-.84-1.85-1.68-3.54-2.47-5.07h0c-.33-.64-.66-1.27-1-1.87A49.38,49.38,0,0,1,9.27,17.4Zm3.46,12.17c.55,1.07,1.11,2.19,1.66,3.39-5.27-.42-8.79-1.14-10-1.75C5.26,30.79,7.6,30.08,12.73,29.57Zm6.64,45a7.07,7.07,0,0,1-3.23-1.35,44.54,44.54,0,0,1-3.52-4.54,47.87,47.87,0,0,1-3-5.18,50,50,0,0,1-2.47-5.7,56,56,0,0,1-1.84-6.17,58,58,0,0,1-1.14-6.56,60.32,60.32,0,0,1-.39-6.87c0-1.72.1-3.44.24-5.15,3.79,1.69,12.51,2.11,17.35,2.21h0l2.74,0h.54a1.78,1.78,0,0,1,1.37.53c1.3,1.34,1.19,5,1.11,7.34,0,.1,0,.2,0,.3H20.33a1,1,0,0,0-1,1V65a1,1,0,0,0,1,1H35.69a1,1,0,0,0,1-1V44.5a1,1,0,0,0-1-1H29.1a1.93,1.93,0,0,0,0-.24c.08-2.54.19-5.89-1.06-8,5.11-.14,13.1-.64,16.44-2.3a29.38,29.38,0,0,1-.1,7.86,1,1,0,0,0,.4,1,1,1,0,0,0,1.09,0,7.43,7.43,0,0,1,3.84-1.09,7.54,7.54,0,0,1,0,15.08,7.45,7.45,0,0,1-5.64-2.57s0,0-.08-.07l-.12-.09a.76.76,0,0,0-.22-.11l-.06,0h-.08a1,1,0,0,0-.25,0l-.14,0a.9.9,0,0,0-.21.08.71.71,0,0,0-.15.08.53.53,0,0,0-.1.06.24.24,0,0,0-.06.08,1.71,1.71,0,0,0-.11.14.66.66,0,0,0-.09.19s0,.05,0,.08c-.44,1.61-.86,2.93-1.29,4.13-.51,1.41-1.09,2.8-1.69,4.1a47.56,47.56,0,0,1-3,5.18,1,1,0,0,0-.15.49c-6.4,1.48-12.74,4.19-16.73,7.05ZM34.69,45.5V64H21.34V45.5ZM17.29,79.93c.79-4.3,19.8-13.43,32-11.17A7.55,7.55,0,0,1,53,70.59a1,1,0,0,0,0,.28,1.06,1.06,0,0,0,.25.66c-2.41-.15-4.69-.23-6.68-.23-8.67,0-19,1.12-19,6.48,0,3.16,6.54,4.94,17.84,6.94l1.74.32c3.59.68,3.81,1.43,3.78,3.27l-21.4-4-.09,0a2.07,2.07,0,0,1-1.48-1,1,1,0,0,1-.09-.85h0a1,1,0,0,0-.51-1.32,1,1,0,0,0-1.29.46l0,.06c-.34.48-3,1-4.9.66C19.59,82.05,17,81.35,17.29,79.93ZM29.36,90.71a2.06,2.06,0,0,1-1.44-1,1.08,1.08,0,0,1-.09-.88h0a1,1,0,0,0-.52-1.31A1,1,0,0,0,26,88l0,0c-.33.49-2.95,1-4.87.67-1.76-.32-3.85-1-3.85-2.11,0-.42,0-2,0-3.47a11.13,11.13,0,0,0,3.51,1.15A11.86,11.86,0,0,0,26,83.91a3.73,3.73,0,0,0,.16.35,4.09,4.09,0,0,0,2.92,2L51,90.36c.28,3,2,4.17,3.54,4.17A3.52,3.52,0,0,0,57,93.44a3.76,3.76,0,0,0,.91-1.6l9.6,1.62V97.8l-38-7A.42.42,0,0,0,29.36,90.71Zm40.15,6.6V93.2L96.26,78.45v4.11Z" transform="translate(-1.74 -1.61)"/></svg>