<?xml version="1.0" encoding="utf-8"?>
<!-- Generator: Adobe Illustrator 16.0.0, SVG Export Plug-In . SVG Version: 6.00 Build 0)  -->
<!DOCTYPE svg PUBLIC "-//W3C//DTD SVG 1.1//EN" "http://www.w3.org/Graphics/SVG/1.1/DTD/svg11.dtd">
<svg version="1.1" xmlns="http://www.w3.org/2000/svg" xmlns:xlink="http://www.w3.org/1999/xlink" x="0px" y="0px" width="100px"
	 height="100px" viewBox="0 0 100 100" enable-background="new 0 0 100 100" xml:space="preserve">
<g id="Calque_2">
</g>
<g id="v2">
	<path d="M89.392,25.429c0-11.949-9.371-21.636-21.321-21.636c-11.949,0-21.637,9.687-21.637,21.636
		c0,4.871,1.623,9.355,4.338,12.971c-1.723,0.055-3.146,0.147-4.321,0.265c-0.368-4.146-1.826-8.036-4.186-11.048
		c-0.836-1.067-1.815-1.912-2.762-2.729c-0.722-0.623-1.404-1.212-2.017-1.885c-0.292-0.319-0.559-0.641-0.792-0.953
		c-1.621-2.182-1.653-4.654-1.69-7.517c-0.007-0.554-0.015-1.119-0.033-1.694V1.066c0-0.552-0.448-1-1-1h-7.724
		c-0.552,0-1,0.448-1,1v11.772c-0.019,0.575-0.026,1.139-0.034,1.693c-0.037,2.863-0.069,5.336-1.689,7.518
		c-0.233,0.313-0.5,0.634-0.794,0.957c-0.61,0.671-1.292,1.259-2.014,1.883c-0.947,0.817-1.926,1.662-2.762,2.729
		c-2.767,3.532-4.291,8.188-4.291,13.113v53.876c0,3.787,16.282,3.831,16.447,3.831c0.112,0,7.655-0.021,12.486-1.221
		c-0.011,0.063-0.028,0.125-0.028,0.191c0,1.765,4.081,2.659,12.13,2.659s12.131-0.895,12.131-2.659
		c0-1.699-3.795-2.589-11.262-2.653V71.058c1.759-0.146,3.467-0.709,5.083-1.733c1.781-1.131,3.369-2.735,4.719-4.765
		c1.338-2.004,2.386-4.33,3.115-6.914c0.75-2.669,1.13-5.495,1.13-8.399c0-0.766-0.03-1.526-0.083-2.279
		C81.281,45.979,89.392,36.722,89.392,25.429z M75.49,15.358c0.11,0.035,0.188,0.112,0.221,0.208
		c0.001,0.006,0.002,0.009,0.005,0.011c0.006,0.01,0.028,0.037,0.086,0.032c0.022-0.002,0.248-0.206,0.248-0.221
		c0-0.035-0.035-0.043-0.066-0.062c-0.077-0.039-0.128-0.116-0.135-0.204c-0.007-0.086,0.03-0.168,0.1-0.221
		c0.001,0,0.054,0,0.054,0l0.445-0.228c0,0,0-0.026,0-0.029s-0.039-0.034-0.031-0.034c0.001,0-0.025,0-0.025,0
		c0.025,0,0.184-0.077,0.246-0.084c0.019-0.004,0.054,0.055,0.041,0.089c-0.008,0.021-0.03,0.063-0.075,0.09
		c-0.054,0.029-0.186,0.1-0.179,0.164c0.009,0.073,0.031,0.048,0.077,0.079c0.036,0.021-0.054,0.037-0.054,0.072c0,0,0,0,0,0.002
		c0,0.089,0,0.176-0.056,0.253c-0.003,0.002,0.029,0.009,0.029,0.014c0.012,0.058,0.028,0.058,0.232,0.14
		c0.092,0.038,0.202-0.013,0.29,0.042c0.198,0.121,0.35,0.314,0.576,0.396c0.075,0.026,0.327,0.129,0.382,0.319
		c0.102,0.35-0.317,0.415-0.467,0.338c-0.085-0.042-0.124,0.053-0.186,0.082c-0.002,0.002-0.006,0.002-0.008,0.005
		c-0.044,0-0.09-0.01-0.12-0.018c-0.075-0.021-0.385-0.024-0.501-0.072c-0.001,0-0.001,0-0.001,0
		c-0.026-0.014-0.422-0.161-0.45-0.153c-0.127,0.041-0.274-0.053-0.391,0.041c-0.069,0.053-0.299,0.082-0.369,0.134
		c-0.095,0.077-0.248,0.079-0.248,0.101c0,0,0,0.005,0,0.008c0,0.024,0.142,0.045,0.112,0.058c-0.037,0.016-0.021,0.024-0.05,0.024
		c-0.085,0-0.134,0.029-0.218,0.019c-0.074-0.007-0.129,0.019-0.202,0.021c-0.067-0.064-0.186-0.105-0.302-0.145
		c-0.014-0.047-0.067-0.116-0.192-0.116c-0.002,0-0.004,0-0.004,0c-0.007,0-0.012,0.017-0.018,0.024
		c-0.03-0.018-0.063-0.035-0.078-0.057l-0.334-0.129c0-0.002,0-0.005,0-0.005c0-0.007,0.243-0.02,0.249-0.031
		c0.002-0.003,0.026-0.004,0.041-0.007l-0.004,0c-0.018-0.074-0.286-0.183-0.286-0.257c0,0,0,0,0-0.002
		c0-0.042,0.353-0.031,0.37-0.077c0.015-0.05,0.127-0.275,0.123-0.326c-0.001-0.022,0.162-0.419,0.162-0.419
		c0.004,0,0.004,0,0.004,0c0.042,0,0.059,0.13,0.068,0.095c0.022-0.09,0.063-0.088,0.121-0.162c0.017-0.021,0.034-0.024,0.076-0.143
		c0.016-0.045,0.02-0.034,0.088-0.053c0.083-0.024,0.172-0.019,0.259-0.009c0.044,0.006,0.102,0.021,0.167,0.038
		c0.005,0.002,0.01,0.007,0.013,0.012c0.004,0.008,0.001,0.018-0.007,0.023c-0.018,0.01-0.029,0.033-0.025,0.055
		c0.004,0.025,0.025,0.044,0.05,0.044c0.03,0,0.06-0.014,0.083-0.024c0.042-0.021,0.057-0.026,0.091-0.003
		c0.028,0.019,0.042,0.05,0.037,0.083c-0.009,0.071-0.104,0.068-0.103,0.126C75.453,15.332,75.47,15.35,75.49,15.358z
		 M54.673,40.341c4.193,0,7.536,0.242,9.642,0.534c-2.105,0.292-5.448,0.534-9.642,0.534c-4.193,0-7.536-0.242-9.641-0.534
		C47.138,40.583,50.48,40.341,54.673,40.341z M27.248,2.066h5.724v12.16h-5.724V2.066z M19.528,28.851
		c0.716-0.913,1.58-1.659,2.494-2.448c0.736-0.635,1.497-1.291,2.186-2.05c0.338-0.369,0.647-0.742,0.921-1.11
		c1.64-2.208,1.961-4.554,2.046-7.017h5.867c0.086,2.463,0.406,4.81,2.047,7.019c0.274,0.367,0.584,0.74,0.918,1.106
		c0.692,0.761,1.453,1.417,2.188,2.052c0.915,0.789,1.778,1.535,2.494,2.448c2.138,2.729,3.455,6.278,3.776,10.073
		c-3.584,0.601-3.591,1.51-3.591,1.952c0,0.037,0,0.077,0.002,0.12c-0.452,1.638-0.752,3.337-0.924,5.075
		c-2.921,0.45-6.608,0.729-9.699,0.729c-6.637,0-13.503-1.121-14.5-2.03c-0.018-0.086-0.056-0.164-0.094-0.241V40.73
		C15.663,36.251,17.035,32.032,19.528,28.851z M46.375,95.268c0.117-0.207,0.181-0.427,0.181-0.662V67.579
		c0.694,0.662,1.42,1.256,2.19,1.746c1.535,0.973,3.154,1.533,4.82,1.714v23.717C50.556,94.79,48.153,94.96,46.375,95.268z
		 M15.663,46.902c4.296,1.869,14.463,1.898,14.593,1.898c3.033,0,6.622-0.262,9.563-0.688c-0.013,0.378-0.038,0.754-0.038,1.135
		c0,2.902,0.381,5.728,1.132,8.4c0.728,2.584,1.776,4.911,3.113,6.912c0.028,0.043,0.061,0.079,0.089,0.122
		c-2.461,1.013-9.018,1.701-13.86,1.701c-6.638,0-13.503-1.12-14.5-2.029c-0.018-0.086-0.056-0.164-0.094-0.241V46.902z
		 M15.663,94.428V66.484c4.296,1.868,14.463,1.897,14.593,1.897c4.151,0,11.044-0.559,14.316-1.745
		c-0.002,0.027-0.016,0.051-0.016,0.079v27.713c-1.054,0.905-7.859,2.009-14.447,2.009S16.716,95.333,15.663,94.428z M54.697,98.066
		c-4.155,0-7.114-0.325-8.784-0.659c1.528-0.306,4.148-0.601,7.764-0.65c0.163,0.331,0.496,0.563,0.889,0.563
		c0.395,0,0.729-0.234,0.891-0.566c3.75,0.038,6.459,0.339,8.023,0.652C61.812,97.741,58.852,98.066,54.697,98.066z M63.704,63.451
		c-1.195,1.797-2.584,3.205-4.126,4.185c-3.109,1.973-6.65,1.972-9.759,0.001c-1.543-0.981-2.931-2.389-4.127-4.188
		c-1.221-1.828-2.181-3.963-2.852-6.344c-0.047-0.167-0.08-0.34-0.124-0.508c1.76,0.532,5.203,0.973,11.958,0.973
		c6.82,0,10.267-0.45,12.011-0.988c-0.045,0.173-0.079,0.351-0.127,0.522C65.886,59.485,64.926,61.62,63.704,63.451z M45.032,55.035
		c2.105-0.293,5.448-0.535,9.642-0.535c4.194,0,7.537,0.242,9.642,0.535c-2.105,0.292-5.449,0.534-9.642,0.534
		C50.48,55.569,47.138,55.328,45.032,55.035z M67.613,49.247c0,1.514-0.122,3-0.339,4.453c-1.507-0.627-4.908-1.199-12.6-1.199
		c-7.619,0-11.027,0.562-12.554,1.182c-0.217-1.448-0.337-2.928-0.337-4.436c0-2.359,0.284-4.653,0.812-6.846
		c1.722,0.548,5.171,1.009,12.08,1.009c6.972,0,10.418-0.47,12.125-1.024c0.295,1.224,0.509,2.479,0.641,3.762v0.919
		c0.031,0,0.061-0.004,0.091-0.004C67.582,47.784,67.613,48.512,67.613,49.247z M69.213,44.28c-0.184-1.165-0.417-2.313-0.731-3.429
		c-0.002-0.008-0.008-0.013-0.011-0.021c-0.005-0.724-0.284-2.49-13.798-2.49c-0.152,0-0.293,0.001-0.442,0.002
		c-0.047-0.051-0.098-0.1-0.145-0.151c0.092-0.038,0.153-0.064,0.153-0.074c-0.004-0.132-0.032-0.264-0.079-0.389
		c-0.042-0.105-0.09-0.208-0.138-0.312c-0.161-0.351,0.56-0.409,0.761-0.737c0.015-0.031,0.136-0.045,0.281,0.058
		c0.115,0.082,0.283-0.108,0.269-0.177c-0.049-0.214-0.049-0.248-0.022-0.444c0.044-0.332-0.047-1.157-0.085-1.267
		c-0.132-0.378-0.16-0.568-0.162-0.658c-0.001-0.069,0.178-0.119,0.211-0.23c0.065-0.228,0.451-0.645,0.57-0.846
		c0.103-0.176,0.186-0.372,0.16-0.576c-0.056-0.452-1.499-2.104-1.907-2.411c-0.322-0.243-0.555-0.243-0.555-0.243
		c0.019-0.204-0.061-0.405-0.211-0.539c-0.057-0.05-0.099-0.118-0.142-0.188c-0.056-0.093-0.16-0.148-0.268-0.148
		s-0.267,0.055-0.267,0.148c0.135-0.322,0.103-0.338-0.151-0.652c-0.138-0.168-0.155-0.153,0.012-0.463
		c0.024-0.425-0.806-1.775-1.54-2.603c-0.023-0.026-0.058-0.041-0.102-0.033c-0.076-0.07-0.439-1.407-0.519-1.718
		c-0.004-0.017,0-0.033,0.009-0.043c0.063-0.079,0.09-0.18,0.07-0.278c-0.016-0.082-0.047-0.177-0.053-0.259
		c-0.009-0.152-0.151-0.277-0.178-0.258c-0.04,0.029-0.082,0.031-0.119,0.015c-0.038-0.015-0.066-0.05-0.075-0.096
		c-0.031-0.166-0.175-0.284-0.342-0.284c-0.034,0-0.172-0.003-0.298-0.014c0.622-3.97,2.477-7.53,5.161-10.276
		c0.004,0.137,0.006,0.271,0.01,0.271c0.226,0.063,0.21,0.013,0.404-0.223c0.112-0.134,0.317-0.185,0.429-0.224
		c0.114-0.04,0.303-0.058,0.303-0.058c0.108-0.021,0.422,0.049,0.512-0.024c0.077-0.062-0.021-0.083,0.024-0.151
		c0.043-0.063,0.079-0.132,0.108-0.204c0.025-0.061,0.101-0.079,0.156-0.113c0.095-0.058-0.317-0.058-0.335-0.088
		c-0.014-0.022-0.26-0.103-0.279-0.116c0.358,0.013,0.541,0.023,0.632,0.031c0.117-0.012,0.266-0.028,0.277-0.053
		c0.012-0.024,0.372-0.042,0.372-0.048v-0.002c0-0.372-0.687-0.161-0.687-0.161c-0.027-0.054,0.26-0.168,0.335-0.193
		c0.01,0,0.016-0.003,0.035-0.011c0.187-0.074,0.438,0.019,0.438,0.204c0,0.05,0.081,0.089,0.133,0.103
		c0.062,0.016,0.132,0.034,0.197,0.01c0.335-0.125,0.438-0.018,0.716-0.142l0.005-0.002c0.363-0.161,0.381-0.969,0.875-1.41
		c0.048-0.045,0.103-0.084,0.157-0.12c0.091-0.058,0.15-0.145,0.214-0.23c0.029-0.039,0.063-0.078,0.099-0.116
		c0.041-0.042,0.05-0.108,0.018-0.158c-0.031-0.053-0.096-0.079-0.154-0.058c-0.041,0.013-0.12,0.039-0.143,0.003
		C59.37,8.905,59.37,8.89,59.377,8.876c0.018-0.029,0.063-0.087,0.068-0.116c0-0.005-0.044-0.055-0.113-0.129
		c1.599-0.832,3.332-1.444,5.157-1.794c-0.002,0.108-0.019,0.207-0.042,0.214c-0.154,0.053-0.33,0.055-0.459,0.167
		c-0.012,0.01-0.015,0.026-0.008,0.039c0.008,0.014,0.022,0.021,0.037,0.017c0.028-0.009,0.074-0.026,0.188-0.069
		c0.02-0.005,0.043,0.007,0.041,0.029c-0.001,0.009-0.007,0.014-0.013,0.019c-0.057,0.024-0.119,0.034-0.171,0.06
		c-0.011,0.009-0.017,0.019-0.015,0.033c0.005,0.026-0.021,0.082-0.004,0.097c0,0.002,0.002,0.009,0.002,0.009
		c-0.005,0.005-0.552,0.398-0.76,0.398h-0.001c-0.248,0-0.478,0.103-0.545,0.161c-0.07,0.056-0.145,0.101-0.225,0.14
		C62.347,8.235,62.197,8.375,62.1,8.48c-0.05,0.055,0.037,0.072,0.105,0.101c0,0,0.047,0.013-0.025,0.024
		c-0.275,0.037-0.808,0.348-0.879,0.451c-0.015,0.019-0.298,0.045-0.298,0.064c0,0.003,0,0.003,0,0.003
		c0,0.125,0.159,0.137,0.065,0.327c-0.005,0.014,0.145,0.026,0.155,0.038c0.011,0.013,0.236,0.02,0.25,0.046
		c0.02,0.043-0.02,0.077-0.003,0.109c0.005,0.008,0.031,0.015,0.041,0.015c0.025,0.005-0.066,0.106-0.079,0.127
		c-0.024,0.034,0.012,0.125,0.065,0.122c0.053,0,0.087-0.035,0.138-0.09c0,0,0.136-0.077,0.227-0.153
		c0.09-0.073,0.271-0.094,0.338-0.219c0.036-0.069,0.102-0.113,0.156-0.125c0.024-0.005,0.048,0.009,0.055,0.029
		c0.008,0.033,0.424-0.153,0.41-0.224c-0.013-0.069,0.025-0.074,0.068-0.055c0.03,0.012,0.055,0.002,0.075-0.014
		c0.124-0.103,0.314-0.23,0.472-0.19c0.038,0.01,0.078,0.005,0.112-0.016c0.159-0.089,0.175-0.048,0.138-0.031
		c-0.042,0.016-0.157,0.058-0.133,0.095c0.005,0.008,0.017,0.013,0.027,0.008c0.067-0.026,0.138-0.041,0.21-0.043
		c0.102,0,0.25-0.011,0.383-0.083c0.006-0.002,0.012-0.006,0.018-0.006c0.001,0,0.002,0,0.004,0c0.314,0,0.445-0.188,0.511-0.143
		c0.02,0.018,0.032,0.143,0.029,0.143c0.001,0,0.001,0,0.001,0c0.053,0,0.107-0.08,0.168-0.095c0,0,0.05,0.007,0.241,0.005
		c-0.045,0.116,1.943-0.334,3.2-1.378c0.33-0.275,0.696-0.537,1.062-0.767c2.129,0.148,4.161,0.643,6.04,1.437
		c-0.034,0.066-0.115,0.085-0.122,0.105c-0.026,0.069,0.152,0.157,0.205,0.21c0.029,0.03,0.029,0.075,0.002,0.108
		c-0.001,0-0.001-0.001-0.001-0.001c-0.09-0.021-0.184,0-0.252,0.062c-0.066,0.058-0.163,0.098-0.219,0.118
		c-0.033,0.014-0.09,0.033-0.09,0.057c0-0.012-0.063-0.009-0.094,0.002c-0.124,0.044-0.195,0.281-0.17,0.37
		c0.009,0.034,0.004,0.07-0.018,0.101c-0.031,0.036-0.079,0.05-0.124,0.034c-0.026-0.007-0.099,0.055-0.063,0.082
		c0.043,0.032-0.014,0.056-0.058,0.084c-0.021,0.014-0.048,0.019-0.074,0.011c-0.153-0.045-0.144-0.085-0.19,0.034
		c-0.022,0.055-0.053,0.108-0.09,0.156c-0.024,0.031-0.021,0.074,0.006,0.101c0.225,0.216-0.097,0.182-0.213,0.129
		c-0.106-0.048-0.167,0.129,0.027,0.132c0.054,0,0.104,0.021,0.14,0.061c0.099,0.112-0.129,0.074-0.271,0.026
		c-0.12-0.042-0.235-0.105-0.335-0.185c-0.063-0.05-0.087-0.137-0.061-0.211c0.029-0.077,0.102-0.127,0.183-0.125
		c0.117,0.002,0.216-0.084,0.229-0.2c0.014-0.117-0.063-0.223-0.177-0.247c-0.282-0.058-0.595-0.024-0.855-0.142
		c-0.224-0.105-0.41-0.088-0.467-0.161c-0.023-0.035-0.034-0.074-0.029-0.117c-0.12-0.024-0.197-0.036-0.248-0.047
		c-0.05-0.01-0.202,0.014-0.409,0.079c-0.449,0.143-0.875,0.584-0.875,0.584s-0.086,0.118-0.167,0.213
		c-0.076,0.087-0.133,0.177-0.217,0.257c-0.034,0.029-0.191,0.063-0.199,0.108l-0.135-0.002c0.004,0.014,0.054,0.043,0.042,0.087
		c-0.054,0.193-0.139,0.419-0.959,0.824c0,0,0.034,0,0.033,0c-0.241,0.137-0.376,0.346-0.363,0.607
		c0.013,0.261,0.197,0.489,0.447,0.564c0.311,0.095,0.385-0.248,0.737-0.142c0.132,0.04,0.241,0.14,0.287,0.269
		c0.057,0.16,0.136,0.254,0.143,0.46c0.07,0.069,0.277,0.225,0.301,0.12c0.058-0.249,0.4-0.085,0.508-0.294
		c0.092-0.176,0.11-0.362,0.11-0.541V11.73c0-0.208,0.02-0.438-0.023-0.661c-0.021-0.103-0.038-0.259,0.012-0.557
		c0.02-0.117,0.226-0.177,0.28-0.264c0.095-0.148-0.074-0.431,0.162-0.484c0.118-0.026,0.326,0.029,0.354,0.151
		c0.009,0.045-0.004,0.089-0.032,0.124c-0.066,0.087-0.098,0.203-0.158,0.295c-0.121,0.185-0.148,0.415-0.07,0.624
		c0.066,0.177,0.173,0.338,0.344,0.354c0.048,0.002,0.097,0.034,0.138,0.006c0,0,0,0.045,0.001,0.045h0.001l0.244-0.158
		c0.202-0.071,0.42-0.088,0.63-0.088c0.02,0,0.035,0.037,0.041,0.056c0.005,0.02-0.001,0.049-0.018,0.062
		c-0.252,0.225-0.301,0.08-0.566,0.127c-0.091,0.019-0.161,0.094-0.173,0.184c-0.011,0.085,0.029,0.167,0.099,0.208
		c0.013,0.009,0.021,0.025,0.021,0.042c0,0,0,0,0,0.002c0,0.079-0.058,0.151-0.131,0.182c-0.056,0.024-0.119,0.021-0.172-0.002
		c-0.042-0.019-0.092-0.016-0.13,0.01c-0.076,0.05-0.048,0.088-0.064,0.153c-0.023,0.105-0.018,0.217,0.019,0.32
		c0.057,0.168-0.255,0.473-0.382,0.449c-0.257-0.047-0.523-0.173-0.754-0.05c-0.108,0.058-0.243-0.208-0.334-0.208h-0.002
		c-0.06,0-0.002,0.083-0.079,0.035c-0.016-0.01-0.417,0.244-0.435,0.249c-0.018,0.007-0.052,0.046-0.068,0.037
		c-0.016-0.012-0.042,0.012-0.042-0.006v-0.002c0-0.117,0-0.101,0-0.552v-0.002c0-0.045,0.011-0.109,0-0.172
		c-0.015-0.104-0.02-0.201-0.116-0.24c0,0-0.013,0-0.015,0c-0.213,0.221-0.32,0.53-0.281,0.834c0.026,0.341-0.376,0.282-0.5,0.279
		c-0.051-0.002-0.375,0.019-0.375,0.059c0,0.002,0,0.002,0,0.002s0.115,0-0.002,0.01c-0.052,0.005,0.02,0.031-0.011,0.071
		c-0.002,0.005,0.055,0.01,0.055,0.015c0.004,0.03,0.016,0.055-0.011,0.062c-0.092,0.021-0.161,0.065-0.231,0.129
		c-0.163,0.145-0.237,0.209-0.406,0.303c-0.12,0.066-0.221,0.151-0.31,0.254c-0.037,0.043-0.116,0.089-0.303,0.195
		c-0.017,0.011-0.028,0.028-0.033,0.048c-0.009,0.04-0.042,0.072-0.083,0.077c-0.168,0.024-0.215-0.015-0.312-0.079
		c-0.049-0.034-0.087,0.035-0.075,0.079h0.001c0.01,0.042,0.003,0.088-0.022,0.125c-0.025,0.034-0.066,0.055-0.11,0.058
		c-0.115,0.005-0.229-0.018-0.333-0.07c-0.009-0.002-0.02-0.006-0.029,0c-0.168,0.053-0.267,0.252-0.225,0.255
		c0.288,0.033,0.284,0.075,0.399,0.151c0.137,0.088,0.071,0.372,0.279,0.372h0.003c0.026,0,0.047,0.219,0.053,0.246
		c0.004,0.018-0.006,0.042-0.021,0.053c-0.063,0.042-0.104,0.109-0.114,0.184c-0.02,0.14-0.005,0.291-0.099,0.41
		c-0.04,0.05-0.131,0.146-0.237,0.104c-0.114-0.042-0.237-0.069-0.36-0.074c-0.503-0.024-0.799-0.132-0.947-0.206
		c-0.108-0.055-0.241-0.029-0.32,0.063c-0.036,0-0.078,0.002-0.119,0.005c-0.076,0.006-0.127,0.074-0.11,0.148
		c0.04,0.164,0.04,0.331-0.151,0.818c-0.008,0.021-0.019,0.045-0.027,0.064c-0.063,0.116-0.287,0.343-0.231,0.403
		c0.005,0.005,0.014,0.012,0.024,0.012c0.046,0,0.086,0.029,0.104,0.074c0.015,0.036,0.017,0.075,0.006,0.115
		c-0.016,0.063-0.084,0.286-0.057,0.341c0.016,0.031,0.043,0.055,0.077,0.064c0.049,0.013,0.082,0.053,0.124,0.078
		c0.031,0.019,0.134-0.025,0.194-0.053c0.045-0.018,0.073-0.031,0.171,0.085c0.094,0.103,0.021,0.348,0.217,0.353
		c0.053,0,0.083-0.053,0.096-0.082c0.015-0.034,0.015-0.034,0.39-0.116c0.167-0.038,0.329,0.068,0.496,0.015
		c0.128-0.037,0.134-0.206,0.265-0.243c0.087-0.026-0.101,0.024-0.015-0.021c0.046-0.026-0.225-0.166-0.225-0.208c0,0,0,0,0-0.002
		c0-0.065,0.387-0.171,0.357-0.269c-0.015-0.048,0.127-0.061,0.135-0.096c0.008-0.039,0.201-0.11,0.272-0.271
		c0.005-0.014,0.048-0.026,0.058-0.038c0.229-0.208,0.558-0.259,0.82-0.406c0.229-0.132,0.077-0.486,0.348-0.594
		c0.25-0.098,0.44,0.249,0.698,0.101c0.273-0.153,0.615-0.35,0.687-0.352c0.073-0.005,0.141,0.016,0.198,0.04
		c0.085,0.039,0.159,0.103,0.209,0.185c0.248,0.398,0.72,0.568,1.008,0.924c0.043,0.053,0.181,0.182,0.264,0.261
		c0.135,0.127,0.094-0.036,0.094,0.167v0.002c0,0.089,0.241,0.245,0.146,0.285c-0.067,0.029-0.026,0.05-0.025,0.071
		c0.001,0.053-0.022,0.1,0.01,0.153c0.009,0.016,0.053,0.062,0.126,0.026c0.085-0.042,0.059-0.058,0.093-0.127
		c0.085-0.166,0.085-0.176,0.083-0.176c0.029-0.021,0.084-0.002,0.094-0.053c0.022-0.119-0.061-0.158-0.115-0.182
		c-0.035-0.019-0.099-0.048-0.06-0.148c0-0.002,0.002-0.005,0.003-0.007c0,0,0-0.003,0.002-0.003
		c0.033-0.072,0.106-0.099,0.18-0.092c-0.124-0.083-0.256-0.15-0.373-0.217c-0.026-0.015-0.04-0.098-0.042-0.127
		c-0.007-0.058-0.055-0.129-0.113-0.129c-0.143,0.002-0.276-0.084-0.357-0.2l-0.488-0.717c-0.02-0.03-0.038-0.065-0.057-0.097
		c-0.032-0.058-0.003-0.132,0.056-0.153c0.003-0.002,0.007-0.002,0.012-0.005c0.094-0.027,0.195,0.009,0.25,0.091
		c0.026,0.039,0.053,0.087,0.102,0.084c0.06-0.005-0.146,0.013-0.099,0.048l0.573,0.609c0,0.003,0,0.003,0,0.003
		s0.336,0.014,0.444,0.085c0.023,0.015,0.183,0.022,0.21,0.022c0.041-0.002,0.149,0.011,0.181,0.038
		c0.128,0.103,0.243,0.25,0.262,0.413c0.009,0.073,0.031,0.139,0.034,0.187c0.006,0.061,0.045,0.116,0.094,0.15
		c0.008,0.006,0.017,0.014,0.026,0.021c0.021-0.009,0.036-0.016,0.036-0.021v0.049c0.002,0.002,0.007,0.004,0.009,0.007
		c0.004,0.004-0.006,0.007-0.009,0.011v0.184c0,0.003,0.213,0.205,0.232,0.205h0.002c0.029,0,0.058-0.101,0.087-0.098
		c0.091,0.005,0.227,0.077,0.331,0.026c0.01-0.005,0.119-0.09,0.119-0.09l0.001-0.013c0.254-0.117-0.059-0.243-0.07-0.357
		c-0.004-0.042,0.012-0.077,0.04-0.094c0.027-0.019,0.059-0.014,0.094,0.002c0.02,0.008,0.042,0.005,0.06,0.005
		c0.019,0,0.034-0.049,0.04-0.071c0.027-0.133,0.163-0.177,0.298-0.177c0.112,0,0.224,0.029,0.321,0.082
		c0.031,0.019,0.067,0.021,0.103,0.024c0.078,0.155,0.282,0.39,0.107,0.555c-0.002,0.002-0.005,0.075-0.008,0.075
		c0.002,0,0.002,0.037,0.002,0.039c0.11,0.045,0.01,0.141,0.071,0.241c0.203,0.338,0.744,0.465,0.744,0.319c0,0,0,0,0-0.002
		c0-0.077,0.309-0.117,0.386-0.085c0.155,0.059,0.389,0.172,0.565,0.156c0.101-0.01,0.223-0.046,0.282-0.099
		c0.036-0.031,0.058-0.059,0.077-0.085c0.116,0.603,0.827,1.253,0.174,1.791c-0.057,0.048-0.01,0.069-0.08,0.082
		c-0.639,0.114-1.211,0.036-1.853,0.079c-0.37,0.026-0.387,0.093-0.502,0.093c-0.001,0,0.036,0.177,0.036,0.177
		c-0.002,0-0.002,0-0.002,0c-0.127,0-0.151-0.199-0.337-0.242c-0.116-0.025-0.425-0.571-0.847-0.229
		c-0.122,0.098-0.194,0.176-0.19,0.249c0.053,1.055-1.246,0.257-1.342,0.14c-0.148-0.176-0.346-0.319-0.568-0.383
		c-0.243-0.07-0.537-0.172-0.723-0.271c-0.14-0.074-0.311-0.121-0.383-0.123c-0.026-0.006-0.039-0.134,0.041-0.216
		c0.21-0.211,0.336-0.295,0.269-0.408c-0.176-0.294-0.153-0.271-0.153-0.469V18.42c0-0.071-0.202-0.108-0.291-0.103
		c-2.623,0.166-3.218,0.243-3.736,0.49c-0.044,0.021-0.155,0.067-0.301,0.004c-0.112-0.05-0.245-0.057-0.361-0.017
		c-0.17-0.11-0.396-0.1-0.553,0.029l-0.856,0.692c-0.087,0.07-0.163,0.156-0.222,0.25c-0.155,0.242-0.196,0.404-0.192,0.491
		c0.012,0.224-0.824,0.639-1.109,0.709v-0.001h-0.022c0.006,0.002,0.014,0.001,0.02,0.002c-0.057,0.014-0.099,0.019-0.099,0v0.04
		c0,0.077-0.314,0.145-1.265,1.468c-0.521,0.729-0.503,0.729-0.397,0.93c0.057,0.108,0.182,0.33,0.094,0.932
		c-0.005,0.04-0.008,0.079-0.018,0.119c-0.003,0.019-0.007,0.037-0.012,0.056l-0.365,1.215c-0.103,0.337-0.035,0.708,0.181,0.989
		c0.001,0.004,0.002,0.004,0.002,0.006l0.081,0.149c0.013,0.024,0.026,0.05,0.037,0.077c0.078,0.177,0.188,1.17,0.481,1.622
		c0.046,0.071,0.101,0.136,0.161,0.196l0.925,0.909c0.162,0.161,0.486,0.269,0.709,0.312c0.661,0.127,1.362,0.132,2.011,0.377
		c0.031,0.014,0.074,0.029,0.107,0.029c0.752,0.05,1.369-0.573,2.097-0.626c0.172-0.01,0.521,0.101,0.609,0.611
		c0.065,0.379,0.651,0.259,0.927,0.178c0.125-0.037,0.104-0.031,0.224,0.019c0.001,0-0.154,0.002-0.154,0.002v0.002
		c0,0.082,0.238,0.144,0.32,0.138c0.003-0.003,0.083-0.003,0.083-0.003c0.05-0.005,0.428,0.019,0.455,0.059
		c0.151,0.227,0.429,0.375,0.429,0.482v0.002v0.004v0.037c0,0.002,0,0.002,0,0.005c0,0.026-0.308,0.055-0.312,0.082
		c-0.077,0.561-0.178,0.82-0.437,1.028c-0.028,0.023-0.125,0.05-0.14,0.084c0.282,0.576,0.855,0.866,0.855,0.866
		c0.09,0.096,0.601,1.006,0.656,1.408c0.086,0.609,0.077,0.494,0.092,0.521c0.269,0.441,0.028,0.65-0.136,0.734
		c-0.05,0.024-0.077,0.045-0.092,0.072c-0.025,0.046-0.03,0.097-0.061,0.142c-0.027,0.038-0.34,0.948-0.34,1.139
		c0,0.174,0.264,0.341,0.364,0.48l0.638,0.906c0.011,0.015,0.016,0.031,0.027,0.048c0.225,0.281-0.124,0.681,0.077,0.966
		c0.066,0.092,0.225,0.464,0.31,0.523c0.13,0.089,0.681,0.888,0.517,1.022c-0.017,0.013-0.016,0.053-0.007,0.074
		c0.049,0.142,0.716,0.367,0.963,0.264c0.366-0.158,1.134-0.28,1.447-0.278c0.432,0.002,2.515-1.49,2.351-2.005
		c-0.002-0.005-0.004-0.013-0.002-0.02c0,0,0.011,0,0.013,0c0.243-0.29,0.941-0.643,0.941-0.676c0-0.003,0-0.003,0-0.003
		c0-0.204,0.112-0.373,0.113-0.508c0.004-0.362,0.174-0.703,0.466-0.919c0.25-0.185,0.61-0.446,1.144-0.834
		c0.333-0.24,0.499-0.412,0.47-1.449c-0.025-0.954-0.196-1.7-0.252-1.861c-0.081-0.224-0.059-0.266,0.031-0.432
		c0.269-0.494,0.629-0.93,0.886-1.432C81,30.45,81.5,29.98,81.773,29.727c0.012-0.011,0.024-0.021,0.035-0.035
		c0.496-0.581,0.781-1.365,0.96-2.102c0.038-0.156,0.099-0.304,0.145-0.458c0.034-0.116,0.084-0.216,0.146-0.818
		c0.011-0.101-0.046-0.194-0.041-0.295c0.022-0.396-0.114-0.048-0.229,0.01c-0.296,0.14-0.136,0.089-0.266,0.175
		c-0.062,0.037-0.539,0.206-0.597,0.262c-0.067,0.06-0.131,0.132-0.229,0.142c-0.589,0.074-0.692,0.086-0.796-0.008
		c-0.098-0.09-0.161-0.204-0.187-0.335c-0.028-0.137-0.097-0.267-0.203-0.365c-0.563-0.525-1.666-0.866-1.927-2.29
		c-0.04-0.214-1.607-2.48-1.93-2.937c-0.035-0.05-0.047-0.116-0.031-0.177h0.001c0.061,0.153,0.304,0.434,0.452,0.587
		c0.043,0.044,0.103,0.063,0.151,0.026c0.059-0.043,0.02-0.109,0.032-0.318c0.003-0.058,0.089-0.063,0.099-0.005
		c0.021,0.13,0.083,0.249,0.178,0.341c0.208,0.201,0.461,0.573,0.628,0.834c0.102,0.163,0.241,0.291,0.407,0.386
		c0.238,0.134,0.31,0.354,0.479,0.875c0.201,0.617,0.925,0.765,1.191,1.322c0.226,0.47,0.287,1.007,0.573,1.453
		c0.002,0.002,0.005,0.005,0.007,0.007c0.037,0.05,0.099,0.074,0.16,0.061c0.437-0.103,0.944-0.648,1.07-0.747
		c0.264-0.206,0.456-0.362,0.595-0.478c0.191-0.163,0.325-0.381,0.383-0.624c0.047-0.207,0.36-0.386,0.454-0.386
		c0.244-0.002,0.135-0.319,0.236-0.462c0.108-0.147,0.117-0.317,0.242-0.449c0.04-0.045,0.087-0.079,0.14-0.103
		c0.005-0.002,0.009-0.008,0.009-0.017c0.031-0.158-0.07-0.609-0.068-0.768c0-0.04,0.039-0.371,0.078-0.371h0.004
		c0.001,0,0.002,0.304,0.002,0.302c0.087-0.494,0.253-0.758-0.184-0.964c-0.173-0.082-0.381,0.125-0.543-0.015
		c-0.001,0-0.002,0.039-0.004,0.037c-0.088-0.078-0.172-0.087-0.288-0.065c-0.115,0.022-0.228,0.118-0.228,0.224v0.002
		c0,0.093-0.167,0.16-0.268,0.175c-0.162,0.024-0.163,0.017-0.287,0.151c-0.001,0-0.01,0-0.01,0
		c-0.265-0.134-0.224-0.156-1.16-1.551c-0.276-0.414,0.426-0.625,0.436-0.478H81.39c0.116,0.127,0.485,0.628,0.871,0.842
		c0.131,0.074,0.473,0.172,0.545,0.04c0.267-0.489,0.434-0.134,0.47-0.055c0.197,0.417,0.732,0.053,0.855,0.061
		c0.267,0.014,0.236-0.042,1-0.476c0.303-0.172,0.664-0.198,0.988-0.071c0.017,0.006,0.032,0.014,0.048,0.021
		c0.545,1.768,0.521,3.646,0.521,5.589C86.688,35.34,79.796,43.458,69.213,44.28z M65.325,13.388
		c-0.004-0.026-0.007-0.089,0.007-0.125c0.04-0.089,0.133-0.127,0.189-0.201c0.069-0.087,0.057-0.099,0.033-0.118
		c-0.031-0.029-0.024-0.053-0.001-0.082c0.027-0.032,0.062-0.058,0.088-0.093c0.023-0.029,0.026-0.065,0.056-0.089
		c0.04-0.031,0.066-0.029,0.124-0.026c0.046,0.002,0.157-0.198,0.295-0.232c0.132-0.034,0.344,0.219,0.284,0.309
		c-0.013,0.018-0.048,0.024-0.084,0.029c-0.037,0.005-0.059,0.007-0.091,0.103c-0.012,0.036,0.029,0.084-0.018,0.11
		c-0.042,0.021-0.007,0.067-0.021,0.098c-0.028,0.063-0.086,0.142-0.121,0.185c-0.034,0.045-0.136,0.013-0.252,0.045h-0.001
		c-0.084,0.022-0.159,0.07-0.238,0.105C65.488,13.443,65.343,13.48,65.325,13.388z M74.302,16.319
		c-0.004-0.003-0.018-0.002-0.024-0.004c0.068,0.003,0.14,0.006,0.136,0.007c-0.005,0.006-0.044,0.003-0.047-0.003
		C74.367,16.319,74.304,16.319,74.302,16.319z M74.278,16.315c-0.056-0.002-0.107-0.005-0.113-0.007
		C74.202,16.302,74.245,16.303,74.278,16.315z M66.465,12.196c-0.004-0.005-0.006-0.01-0.006-0.018
		c-0.002-0.026,0.023-0.112,0.062-0.119c0,0,0.001,0,0.001-0.003c0.009,0,0.016,0,0.029,0.021c0.002,0.002,0.008,0.005,0.011,0.002
		c0.004,0,0.006,0,0.007-0.002c0.011-0.026,0.015-0.055,0.027-0.082c0.002-0.005,0.002-0.014,0-0.019
		c-0.021,0.01-0.046,0.005-0.061-0.01c-0.016-0.019-0.019-0.043-0.006-0.062c0.011-0.015,0.024-0.031,0.041-0.039
		c0.001-0.002,0.005-0.002,0.005-0.002c0.011-0.006,0.021-0.006,0.031,0c0.016,0.005,0.035,0.005,0.05-0.009
		c0.002,0,0.005-0.002,0.007-0.005c0.053-0.042,0.1-0.089,0.138-0.145c0.02-0.026,0.039-0.045,0.054-0.054
		c0.025-0.007,0.049-0.01,0.074-0.01c0.064,0,0.129,0.007,0.192,0.024c0.025,0.007,0.086,0.034,0.013,0.079
		c-0.032,0.019-0.07,0.029-0.099,0.055c-0.021,0.019-0.023,0.05-0.039,0.072c-0.002,0.005-0.002,0.007,0,0.014
		c0.002,0.005,0.006,0.005,0.012,0.005c0.058-0.003,0.368-0.017,0.3,0.079c-0.031,0.042-0.056,0.089-0.073,0.137
		c-0.043,0.113-0.049,0.243-0.013,0.362c0.01,0.034,0.013,0.068,0.011,0.098c-0.004,0.034-0.013,0.065-0.011,0.099
		c0.004,0.035,0.04,0.059,0.03,0.096c-0.001,0.002,0,0.005,0.002,0.007c0,0.002,0.001,0.002,0.001,0.002
		c0.006-0.002,0.012-0.002,0.016-0.002c0.029,0,0.059,0,0.088-0.002c0.01,0,0.011,0.002,0.018,0.009c0,0,0.069,0.147,0.056,0.166
		c0,0,0,0-0.001,0.002c-0.014,0.021-0.012,0.048,0.006,0.069c0.02,0.02,0.036,0.044,0.04,0.079c0.001,0.013,0.001,0.015-0.068,0.068
		c-0.008,0.005-0.01,0.016-0.008,0.024c0.059,0.031,0.059,0.031,0.094,0.014c0.049-0.026,0.225,0.063,0.232,0.068h0.001
		c0.095,0.053,0.081,0.127,0.078,0.144c-0.012,0.047-0.025,0.07-0.047,0.082c-0.041,0.024-0.08,0.048-0.117,0.074
		c-0.006,0.005-0.017,0.002-0.034-0.008c-0.001,0-0.005-0.003-0.008-0.006c-0.005-0.005-0.01-0.005-0.016-0.005
		c-0.003,0.002-0.008,0.008-0.007,0.011c0.007,0.063,0.044,0.121,0.099,0.152c0,0,0-0.002,0.003,0
		c0.003,0.064-0.153,0.09-0.153,0.09s0,0-0.001,0c-0.053,0-0.1,0.032-0.153,0.024c-0.044-0.009-0.077-0.04-0.123-0.042
		c-0.108,0-0.108,0-0.129-0.013c-0.006-0.006-0.081-0.024-0.107-0.028c-0.074-0.002-0.128,0.048-0.195,0.064
		c-0.061,0.01-0.104-0.045-0.163-0.039c-0.082,0.005-0.11,0.084-0.167,0.125c-0.005,0.002-0.012,0.005-0.018,0.002c0,0,0,0-0.002,0
		c-0.041-0.079-0.118-0.05-0.158-0.022c-0.013,0.007-0.024,0.015-0.034,0.02c-0.014,0.009-0.033,0.005-0.045-0.007
		c-0.011-0.013-0.009-0.034,0.002-0.045c0.022-0.024,0.048-0.048,0.071-0.07c0.07-0.072,0.161-0.114,0.259-0.125
		c0.03-0.005,0.063-0.002,0.095,0c0.058,0.005,0.101-0.024,0.144-0.055c0.009-0.006,0.015-0.019,0.009-0.032
		c-0.004-0.011-0.014-0.019-0.027-0.019c-0.017,0-0.032,0.005-0.048,0.019c-0.004,0.002-0.008,0.005-0.013,0.008
		c-0.019,0.007-0.04,0.007-0.059,0c-0.004,0-0.007-0.002-0.011-0.008c-0.039-0.04-0.089-0.069-0.144-0.085
		c-0.059-0.015-0.112,0.038-0.172,0.008c-0.038-0.018-0.031-0.073-0.023-0.084c0.009-0.01,0.027-0.013,0.055-0.015
		c0.043-0.009,0.181-0.057,0.201-0.079c0.018-0.019,0.058-0.153,0.004-0.151c-0.028,0.002-0.05,0.024-0.078,0.032
		c-0.006,0-0.012,0-0.016-0.005c-0.005-0.002-0.008-0.011-0.006-0.016c0-0.002,0.001-0.005,0.002-0.008V13.15
		c0.018-0.031,0.078-0.016,0.079-0.06c0-0.014-0.009-0.028-0.016-0.035c-0.009-0.01-0.009-0.032-0.002-0.042
		c0.007-0.012,0.022-0.024,0.034-0.024h0.001c0.075,0,0.159,0.018,0.215-0.041c0.056-0.055,0.077-0.127,0.052-0.201
		c-0.001-0.002-0.001-0.005-0.001-0.005c-0.001-0.002-0.001-0.005-0.001-0.007c-0.007-0.029-0.028-0.056-0.054-0.069
		c-0.02-0.007-0.036-0.024-0.046-0.042c0-0.002-0.002-0.002-0.002-0.002c-0.003,0-0.006,0-0.007,0
		c-0.073,0.044-0.075,0.044-0.088-0.011c0-0.002-0.001-0.002-0.002-0.005c-0.002-0.002-0.002-0.002-0.002-0.002
		c-0.02,0.008-0.041-0.002-0.052-0.021c-0.009-0.015-0.005-0.039,0.011-0.053c0.016-0.012,0.037-0.029,0.065-0.05
		c0.046-0.036,0.03-0.086,0.033-0.134c0-0.007-0.004-0.017-0.01-0.021c-0.007-0.005-0.015-0.005-0.022-0.002
		c-0.021,0.005-0.041,0.014-0.06,0.024c-0.025,0.011-0.031,0.016-0.048,0.037c-0.018,0.021-0.032,0.038-0.042,0.05
		c-0.009,0.011-0.023,0.014-0.035,0.006c-0.012-0.009-0.017-0.021-0.01-0.035c0.002-0.005,0.006-0.012,0.011-0.019
		C66.517,12.326,66.513,12.249,66.465,12.196z M70.632,18.279c-0.012,0-0.032-0.002-0.043-0.024
		c-0.008-0.015,0.039-0.161,0.078-0.147c0.026,0.01,0.017,0.02,0.048,0.024c0.032,0.002,0.05-0.035,0.083-0.026
		c0.051,0.007,0.087,0.055,0.142,0.058c0.041,0,0.064-0.04,0.104-0.045c0.029-0.002,0.054,0.017,0.083,0.01
		c0.03-0.007,0.053-0.025,0.079-0.042c0.05-0.029,0.043-0.002,0.101-0.007c0.019-0.004,0.034-0.014,0.052-0.017
		c0.004-0.002,0.007-0.002,0.012-0.002c0.026,0.002,0.035,0.019,0.03,0.05c-0.013,0.065-0.067,0.116-0.075,0.185
		c-0.006,0.045,0.051,0.072,0.037,0.12c-0.037,0.118-0.071,0.125-0.095,0.128c-0.033,0.009-0.056-0.005-0.07-0.01
		c-0.041-0.021-0.07-0.058-0.108-0.082c-0.021-0.014-0.045-0.017-0.067-0.024c-0.067-0.029-0.265-0.166-0.326-0.161
		c-0.021,0-0.04,0.015-0.061,0.013H70.632z M72.046,17.458c-0.066-0.071-0.128-0.146-0.209-0.2c0.018,0.002,0.036-0.006,0.053,0.001
		c0.066,0.026,0.116,0.04,0.14,0.108c0.006,0.014,0.007,0.024,0.007,0.036C72.036,17.427,72.04,17.444,72.046,17.458z
		 M72.046,17.458c0.005,0.005,0.01,0.009,0.015,0.014c-0.003,0-0.012,0-0.013-0.001C72.046,17.469,72.047,17.462,72.046,17.458z
		 M72.355,17.442c0.008-0.013,0.134-0.051,0.197-0.077c0.014,0.009,0.026,0.019,0.036,0.028v0.018
		c-0.011,0.015-0.057,0.028-0.025,0.081c0.015,0.026,0.025,0.113,0.025,0.122V17.8c0,0-0.44,0-0.441,0c0,0,0.008-0.236,0.007-0.239
		c-0.023-0.037-0.064-0.057-0.093-0.089C72.104,17.485,72.338,17.473,72.355,17.442z M70.013,9.775l0.002,0.002h-0.002V9.775z
		 M56.36,11.32c0.02-0.005,0.072-0.01,0.132-0.017C56.725,11.325,56.314,11.331,56.36,11.32z M19.237,39.974
		c0.521-3.699,1.904-7.069,4-9.744c0.341-0.435,0.968-0.512,1.404-0.17c0.435,0.34,0.511,0.969,0.17,1.404
		c-1.878,2.398-3.121,5.438-3.593,8.79c-0.07,0.5-0.499,0.86-0.989,0.86c-0.047,0-0.094-0.003-0.141-0.01
		C19.541,41.026,19.16,40.521,19.237,39.974z"/>
</g>
</svg>
