<?xml version="1.0" encoding="utf-8"?>
<!-- Generator: Adobe Illustrator 16.0.0, SVG Export Plug-In . SVG Version: 6.00 Build 0)  -->
<!DOCTYPE svg PUBLIC "-//W3C//DTD SVG 1.1//EN" "http://www.w3.org/Graphics/SVG/1.1/DTD/svg11.dtd">
<svg version="1.1" xmlns="http://www.w3.org/2000/svg" xmlns:xlink="http://www.w3.org/1999/xlink" x="0px" y="0px" width="100px"
	 height="100px" viewBox="0 0 100 100" enable-background="new 0 0 100 100" xml:space="preserve">
<g id="Calque_2">
</g>
<g id="Calque_1">
	<path d="M22.275,27.917c-1.957,0.188-3.725,1.127-4.976,2.644s-1.837,3.43-1.648,5.386c0.362,3.796,3.51,6.659,7.32,6.659
		c0.235,0,0.472-0.011,0.711-0.034c4.039-0.389,7.009-3.991,6.62-8.032C29.916,30.511,26.39,27.523,22.275,27.917z M23.491,40.581
		c-0.174,0.017-0.348,0.025-0.519,0.025c-0.001,0-0.001,0-0.001,0c-2.774,0-5.065-2.085-5.33-4.85
		c-0.137-1.425,0.29-2.818,1.201-3.923s2.198-1.788,3.624-1.925c0.175-0.017,0.348-0.025,0.52-0.025
		c2.771,0,5.061,2.085,5.326,4.849C28.595,37.674,26.433,40.298,23.491,40.581z M86.597,50.357v-0.5
		c1.419-1.854,2.702-3.796,3.807-5.783c1.174-2.113,2.17-4.303,2.957-6.506c0.815-2.263,1.437-4.59,1.849-6.919
		c0.42-2.396,0.634-4.835,0.634-7.249c0-2.413-0.218-6.096-0.634-8.467c0-0.001-0.001-0.001-0.001-0.002
		C94.88,8.918,77.83,5.674,61.768,5.674c-16.056,0-33.1,3.241-33.439,9.25c0,0.003-0.002,0.005-0.003,0.008
		c-0.351,1.999-0.548,4.733-0.611,6.932c-1.99-0.723-4.003-0.992-6.011-0.8c-7.809,0.75-13.554,7.714-12.806,15.526
		c0.751,7.81,7.722,13.555,15.524,12.806c3.491-0.335,6.736-1.991,9.113-4.608c1.057,1.822,2.258,3.603,3.577,5.305
		c0.739,0.953,1.531,1.881,2.352,2.793c-3.063-0.315-6.274-0.472-8.694-0.518c-0.76-0.014-1.509-0.021-2.244-0.021
		c-7.465,0-16.374,0.576-16.427,3.322c-0.018,0.951,1.089,1.677,2.786,2.231l0.427,3.19l-9.974-1.082
		c-0.59-1.727-1.344-2.865-2.308-2.864c-1.392,0.053-2.156,1.824-2.637,6.112c-0.38,3.389-0.489,7.87-0.309,12.617
		c0.164,4.329,0.961,18.453,4.303,18.453c0.013,0,0.041,0,0.054-0.001c0.986-0.038,1.66-1.274,2.119-3.11l20.05-3.66
		c1.39-0.19,1.976-3.023,2.163-6.524c0.481,0.018,0.953,0.041,1.451,0.05c0.595,0.011,1.202,0.018,1.813,0.018
		c5.22,0,10.672-0.473,10.915-2.424l0.781-4.518c5.169,0.821,10.688,1.253,16.447,1.253c22.328,0,39.819-6.272,39.819-14.28
		C100,56.856,95.241,53.046,86.597,50.357z M63.038,38.72l3.133,7.089c0.16,0.362,0.52,0.596,0.915,0.596h13.462
		c0.396,0,0.755-0.233,0.915-0.596l3.134-7.089v27.919H63.038V38.72z M84.062,34.983l-4.165,9.422H67.737l-4.164-9.422H84.062z
		 M93.239,30.302c-0.392,2.216-0.984,4.433-1.761,6.59c-0.752,2.103-1.702,4.192-2.823,6.21c-0.628,1.128-1.32,2.241-2.059,3.332
		V33.983c0-0.009-0.005-0.017-0.005-0.026c-0.004-0.115-0.025-0.228-0.068-0.336c-0.009-0.023-0.021-0.044-0.032-0.066
		c-0.019-0.039-0.032-0.08-0.057-0.117c-0.031-0.047-0.07-0.086-0.107-0.127c-0.014-0.014-0.023-0.03-0.037-0.043
		c-0.081-0.078-0.174-0.139-0.275-0.186c-0.023-0.011-0.047-0.019-0.071-0.028c-0.11-0.041-0.226-0.07-0.347-0.07H74.849
		c-0.057-2.048-0.322-6.034-1.477-9.013c7.163-0.713,13.616-2.095,17.622-4.097c0.116-0.032,0.222-0.092,0.32-0.164
		c0.905-0.476,1.676-0.985,2.285-1.529c0.16,1.806,0.243,3.752,0.243,5.219C93.843,25.698,93.64,28.021,93.239,30.302z
		 M70.505,20.452c-1.603-0.634-3.412,0.063-5.377,2.04c-1.095,0.029-2.213,0.045-3.36,0.045c-12.023,0-21.179-1.648-26.433-3.639
		c5.866-2.22,15.843-3.61,26.433-3.61c0.002,0,0.003,0,0.003,0c10.591,0,20.565,1.39,26.43,3.61
		c-3.572,1.354-8.95,2.547-15.807,3.173C71.877,21.325,71.258,20.75,70.505,20.452z M69.642,22.285
		c-0.308,0.02-0.611,0.042-0.923,0.059C69.04,22.236,69.352,22.208,69.642,22.285z M61.768,7.674
		c19.489,0,31.456,4.328,31.456,7.431c0,0.839-0.882,1.768-2.544,2.676c-5.84-2.777-16.812-4.494-28.907-4.494c0,0-0.003,0-0.005,0
		c-12.097,0-23.071,1.717-28.911,4.494c-1.662-0.908-2.544-1.837-2.544-2.676C30.313,12.002,42.279,7.674,61.768,7.674z
		 M38.692,48.867c-1.429-1.843-2.712-3.783-3.814-5.765c-0.034-0.061-0.049-0.112-0.065-0.163c-0.049-0.142-0.101-0.283-0.194-0.457
		c-0.162-0.304-0.47-0.502-0.813-0.525c-0.338-0.02-0.675,0.132-0.877,0.411c-2.081,2.87-5.251,4.706-8.697,5.036
		c-6.711,0.65-12.697-4.294-13.343-11.005c-0.643-6.714,4.295-12.7,11.006-13.344c2.116-0.202,4.257,0.203,6.368,1.204
		c0.313,0.147,0.674,0.124,0.963-0.059c0.29-0.184,0.466-0.502,0.466-0.845c0-1.45,0.083-3.381,0.243-5.178
		c0.635,0.566,1.444,1.095,2.398,1.588c0.063,0.034,0.12,0.075,0.188,0.096c6.102,3.061,17.919,4.675,29.248,4.675
		c1.259,0,2.523-0.022,3.786-0.062c0.019,0,0.036,0,0.055-0.001c1.909-0.061,3.812-0.166,5.679-0.316
		c0.936,2.078,1.473,5.524,1.563,8.826H62.038c-0.121,0-0.236,0.029-0.347,0.07c-0.024,0.009-0.048,0.017-0.071,0.028
		c-0.102,0.047-0.194,0.107-0.275,0.186c-0.014,0.013-0.023,0.029-0.037,0.043c-0.037,0.041-0.076,0.08-0.107,0.127
		c-0.024,0.037-0.038,0.078-0.057,0.117c-0.011,0.022-0.023,0.042-0.032,0.065c-0.043,0.108-0.064,0.221-0.068,0.337
		c0,0.009-0.005,0.017-0.005,0.026v26.662c-7.467-0.063-10.741-1.07-12.09-1.874c-0.355-0.26-0.704-0.526-1.05-0.792
		c0.868-0.427,1.39-0.952,1.402-1.601c0.006-0.281-0.071-0.703-0.469-1.116c-0.859-0.893-3.301-1.536-6.259-1.986
		C41.186,51.871,39.876,50.393,38.692,48.867z M28.525,54.347c0.723,0,1.459,0.007,2.207,0.021
		c9.072,0.171,14.436,1.229,16.131,1.962c-0.271,0.105-0.639,0.214-1.084,0.321c-0.014,0.001-0.026,0.008-0.04,0.01
		c-0.12,0.029-0.249,0.057-0.382,0.085c-0.015,0.003-0.029,0.005-0.043,0.009c-2.346,0.496-6.556,0.94-12.446,0.94
		c-0.722,0-1.454-0.007-2.2-0.021c-7.19-0.136-12.043-0.828-14.594-1.476c-0.014-0.004-0.026-0.006-0.04-0.01
		c-0.648-0.166-1.153-0.329-1.498-0.478C16.158,55.08,20.964,54.347,28.525,54.347z M4.349,91.884
		c-0.765-1.687-1.921-7.028-2.266-16.087c-0.345-9.061,0.403-14.475,1.039-16.213c0.766,1.686,1.923,7.028,2.268,16.088
		c0.265,6.963-0.117,11.764-0.597,14.406c-0.012,0.042-0.018,0.083-0.023,0.126C4.632,90.936,4.488,91.503,4.349,91.884z
		 M26.057,85.623L6.964,89.107c0.665-4.563,0.524-10.861,0.424-13.512c-0.101-2.658-0.441-9.007-1.475-13.514l19.329,2.098
		c0.468,0.833,1.306,4.463,1.541,10.678S26.459,84.755,26.057,85.623z M30.262,79.081c-0.487-0.009-0.95-0.031-1.422-0.049
		c0.021-1.409-0.006-2.861-0.059-4.25c-0.215-5.688-0.935-12.433-3.13-12.57l-8.292-0.9l-0.384-2.868
		c4.529,0.957,10.966,1.18,13.655,1.231c0.758,0.014,1.504,0.021,2.237,0.021c3.923,0,8.234-0.163,11.461-0.712l-2.396,13.848
		c-0.002,0.009-0.008,0.016-0.01,0.024s0.002,0.017,0.001,0.025l-0.911,5.266C40.159,78.568,36.477,79.202,30.262,79.081z
		 M60.181,73.41c-5.646,0-11.048-0.422-16.106-1.224l2.234-12.911c0.488,0.381,0.992,0.765,1.534,1.16
		c2.362,1.416,6.813,2.152,13.195,2.206v4.999c0,0.552,0.447,1,1,1h23.559c0.553,0,1-0.448,1-1V52.451
		C93.764,54.782,98,57.984,98,61.129C98,67.06,82.804,73.41,60.181,73.41z"/>
</g>
</svg>
