<?xml version="1.0" encoding="utf-8"?>
<!-- Generator: Adobe Illustrator 16.0.0, SVG Export Plug-In . SVG Version: 6.00 Build 0)  -->
<!DOCTYPE svg PUBLIC "-//W3C//DTD SVG 1.1//EN" "http://www.w3.org/Graphics/SVG/1.1/DTD/svg11.dtd">
<svg version="1.1" xmlns="http://www.w3.org/2000/svg" xmlns:xlink="http://www.w3.org/1999/xlink" x="0px" y="0px" width="100px"
	 height="100px" viewBox="0 0 100 100" enable-background="new 0 0 100 100" xml:space="preserve">
<g id="Calque_2">
</g>
<g id="Calque_1">
	<path d="M99,33.336h-8.122v-5.241h3.777c0.351,0,0.677-0.185,0.857-0.485l4.344-7.241c0.186-0.31,0.19-0.694,0.013-1.008
		c-0.177-0.313-0.51-0.507-0.87-0.507h-8.121v-0.448c0-0.415-0.256-0.787-0.644-0.935c-0.387-0.146-0.827-0.041-1.103,0.27
		l-0.992,1.113h-4.718l0.545-1.684c0.203-0.267,0.203-0.529,0.203-0.783c0-1.017,0-2.169-12.961-3.112
		c-7.783-0.566-18.126-0.879-29.125-0.879s-21.342,0.313-29.124,0.879C0,14.218,0,15.37,0,16.387c0,0.254,0,0.517,0.203,0.783
		l3.961,12.232v11.954c-0.016,0.112-0.017,0.224-0.017,0.335s0.001,0.223,0.017,0.335V82.03c-0.002,0.028-0.017,0.053-0.017,0.082
		c0,1.425,1.424,2.916,11.758,4.169c7.036,0.854,16.331,1.323,26.172,1.323c9.891,0,19.185-0.453,26.168-1.274
		c10.336-1.217,11.761-2.7,11.761-4.122V42.576h2.44l0.009,7.6c0,3.643,2.976,6.605,6.633,6.605c0.284,0,0.555-0.121,0.745-0.333
		l6.423-7.173c0.263-0.294,0.329-0.715,0.168-1.075c-0.161-0.36-0.519-0.592-0.913-0.592c-2.556,0-4.635-2.066-4.635-4.605v-0.427
		h3.778c0.351,0,0.677-0.185,0.857-0.485l4.344-7.24c0.186-0.309,0.19-0.693,0.013-1.008C99.693,33.529,99.36,33.336,99,33.336z
		 M88.878,33.336h-4.443l-0.006-5.241h4.449V33.336z M88.878,35.336l0,5.24h-4.434l-0.006-5.24H88.878z M67.872,38.793
		c-6.996-0.51-16.294-0.79-26.181-0.79c-9.864,0-19.095,0.28-25.992,0.79c-5.098,0.376-7.943,0.789-9.535,1.219v-9.101
		c1.608,0.435,4.508,0.853,9.74,1.233c6.995,0.51,16.292,0.79,26.18,0.79c9.888,0,19.186-0.28,26.181-0.79
		c5.233-0.381,8.133-0.799,9.741-1.233v9.23C76.497,39.666,73.568,39.207,67.872,38.793z M75.94,41.691
		c-4.551,0.825-16.647,1.688-34.25,1.688c-18.15,0-29.631-0.879-33.942-1.688c4.311-0.81,15.792-1.688,33.942-1.688
		C59.293,40.003,71.389,40.866,75.94,41.691z M78.976,26.095h-4.77c-0.552,0-1,0.447-1,1s0.448,1,1,1h4.122l-0.222,0.685
		c-1.875,0.928-15.033,2.155-36.022,2.155c-20.988,0-34.145-1.228-36.02-2.155L2.656,18.255c1.849,0.435,4.982,0.856,10.304,1.244
		c7.785,0.567,18.128,0.88,29.124,0.88s21.34-0.313,29.125-0.88c5.323-0.388,8.457-0.81,10.306-1.244L78.976,26.095z M80.006,29.402
		l0.423-1.308h2l0.006,5.241h-2.429V29.402z M84.427,26.027l4.452-4.997v5.064h-4.452V26.027z M97.234,20.854l-3.145,5.241h-3.211
		l0-5.241H97.234z M86.358,20.854l-3.678,4.128c-0.164,0.184-0.254,0.421-0.253,0.666l0,0.447h-1.35l1.697-5.241H86.358z
		 M42.084,14.396c20.391,0,34.107,1.037,38.702,1.991c-4.596,0.954-18.313,1.992-38.702,1.992c-20.389,0-34.104-1.038-38.7-1.992
		C7.979,15.433,21.694,14.396,42.084,14.396z M42.078,85.604c-21.138,0-34.478-2.11-35.914-3.612V43.371
		c1.591,0.43,4.437,0.843,9.535,1.219c6.897,0.51,16.128,0.79,25.992,0.79c9.887,0,19.185-0.28,26.181-0.79
		c5.696-0.414,8.625-0.873,10.134-1.349v38.831C76.635,83.572,63.587,85.604,42.078,85.604z M80.006,40.576v-5.24h2.432l0.006,5.24
		H80.006z M93.542,49.311l-4.881,5.451c-2.354-0.216-4.204-2.19-4.204-4.587l-0.009-7.599h4.431v0.427
		C88.878,45.962,90.843,48.473,93.542,49.311z M94.089,40.576h-3.211l0-5.24h6.355L94.089,40.576z"/>
</g>
</svg>
