<?xml version="1.0" encoding="utf-8"?>
<!-- Generator: Adobe Illustrator 16.0.0, SVG Export Plug-In . SVG Version: 6.00 Build 0)  -->
<!DOCTYPE svg PUBLIC "-//W3C//DTD SVG 1.1//EN" "http://www.w3.org/Graphics/SVG/1.1/DTD/svg11.dtd">
<svg version="1.1" xmlns="http://www.w3.org/2000/svg" xmlns:xlink="http://www.w3.org/1999/xlink" x="0px" y="0px" width="100px"
	 height="100px" viewBox="0 0 100 100" enable-background="new 0 0 100 100" xml:space="preserve">
<g id="Calque_2">
</g>
<g id="Calque_1">
	<path d="M86.115,11.257c-0.025-0.038-0.049-0.083-0.075-0.12c-0.057-0.081-0.133-0.137-0.206-0.195v-3.32
		c0-0.491-0.356-0.91-0.842-0.988L45.042,0.22c-0.29-0.045-0.585,0.036-0.807,0.226c-0.223,0.19-0.352,0.469-0.352,0.762v3.418
		C33.7,7.603,28.365,18.257,28.365,27.479l-0.613,48.405h-5.967c-0.227,0-0.447,0.077-0.624,0.219l-4.564,3.647h-0.063
		c-0.553,0-1,0.448-1,1v0.026c-0.098,0.239-0.1,0.502,0,0.747v1.805c0,0.103,0.029,0.196,0.059,0.289H6.627
		c-0.218,0-0.429,0.071-0.603,0.202l-4.856,3.664H1.067c-0.553,0-1,0.448-1,1v0.056c-0.076,0.216-0.08,0.446,0,0.667v9.587
		c0,0.553,0.447,1,1,1H17.82c0.485,0,0.87-0.352,0.962-0.811l4.83-3.979c0.23-0.19,0.364-0.473,0.364-0.772v-3.518
		c0.093,0.029,0.187,0.059,0.289,0.059h7.632c0.036,0.092,0.073,0.185,0.139,0.265c0.198,0.243,0.486,0.369,0.777,0.369
		c0.222,0,0.444-0.073,0.63-0.224l3.023-2.458l3.775,4.187c0.019,0.021,0.045,0.03,0.065,0.049c0.146,0.15,0.327,0.268,0.55,0.302
		l6.965,1.084c0.052,0.008,0.104,0.012,0.154,0.012c0.246,0,0.484-0.09,0.67-0.257l3.685-3.324l22.188,3.375
		c0.05,0.007,0.1,0.011,0.15,0.011c0.285,0,0.571-0.024,0.855-0.06c15.899-0.143,24.482-5.528,24.482-10.61V34.017
		C100.008,25.388,96.329,14.468,86.115,11.257z M98.008,34.017v47.731l-7.021-5.359V34.033c0-5.385-0.946-14.314-3.428-20.074
		C95.196,17.605,98.008,26.7,98.008,34.017z M88.987,76.519l-8.31,9.853V32.948c0-12.381,3.092-17.955,4.331-19.691
		c2.885,5.159,3.979,15.261,3.979,20.776V76.519z M45.884,2.381l37.95,6.093v2.251l-37.95-6.092V2.381z M22.136,77.884h8.579
		l-1.478,1.333c-0.156,0.141-0.245,0.331-0.29,0.533h-9.146L22.136,77.884z M48.666,84.863l-8.86-9.821l3.533,0.728l8.817,9.776
		L48.666,84.863z M36.996,74.913l9.738,10.794l-5.678,5.122l-6.773-7.51c-0.005-0.502-0.384-0.9-0.87-0.965l-2.094-2.322
		L36.996,74.913z M6.962,85.618h13.529l-2.526,1.895c-0.049-0.007-0.093-0.029-0.145-0.029H4.489L6.962,85.618z M2.067,89.483h14.67
		c0.025,0.048,0.036,0.102,0.07,0.146c0.003,0.004,0.009,0.005,0.012,0.01v8.153H2.067V89.483z M18.82,96.359v-6.99l3.155-2.367
		v6.757L18.82,96.359z M23.977,88.831v-3.421c0.204-0.338,0.197-0.779-0.055-1.115c-0.004-0.005-0.009-0.007-0.013-0.011
		c-0.139-0.386-0.499-0.666-0.934-0.666h-5.5c0.029-0.093,0.059-0.187,0.059-0.289V81.75h11.885c0.219,0,0.409-0.084,0.574-0.203
		l2.292,2.542v4.683h-8.02C24.163,88.772,24.069,88.802,23.977,88.831z M34.285,87.92v-1.613l0.84,0.931L34.285,87.92z
		 M47.66,92.297l-4.472-0.696l5.258-4.743l4.308,0.844L47.66,92.297z M55.579,87.848c0.023-0.021,0.033-0.051,0.055-0.074
		c0.058-0.063,0.11-0.127,0.151-0.205c0.024-0.046,0.039-0.094,0.056-0.144c0.016-0.044,0.041-0.082,0.05-0.128
		c0.005-0.024-0.003-0.046,0-0.07c0.008-0.068,0.004-0.134-0.001-0.202c-0.006-0.063-0.01-0.125-0.027-0.186
		c-0.016-0.058-0.043-0.111-0.069-0.166c-0.031-0.063-0.063-0.124-0.106-0.179c-0.015-0.019-0.02-0.042-0.035-0.059L44.604,74.187
		c-0.143-0.158-0.332-0.267-0.54-0.31l-6.806-1.402c-0.423-0.09-0.827,0.106-1.042,0.449l-3.284,2.961h-3.18l0.613-48.392
		c0-8.348,5.027-18.454,14.337-21.028c0.008,0.001,0.015,0.006,0.022,0.008l38.292,6.147c-1.602,2.48-4.34,8.458-4.34,20.329v55.988
		c0,1.783-1.589,2.926-3.316,3.171c-0.159,0.001-0.306,0.01-0.467,0.01c-0.069,0-0.13,0.026-0.195,0.04l-20.448-3.111L55.579,87.848
		z M79.623,91.939c0.542-0.674,0.913-1.486,1.021-2.424l9.494-11.258l7.773,5.934C97.117,87.228,91.214,91.096,79.623,91.939z
		 M67.968,60.405c-0.036-0.42-0.333-0.772-0.74-0.88c-0.076-0.02-1.9-0.497-4.16-0.497c-2.655,0-4.78,0.641-6.314,1.906
		c-0.791,0.652-1.387,1.452-1.848,2.309v-4.89c0.698,0.136,1.868,0.314,3.206,0.314h0.001c2.487,0,4.478-0.602,5.917-1.79
		c3.573-2.943,3.085-9.039,3.063-9.297c-0.036-0.42-0.333-0.772-0.74-0.88c-0.071-0.019-1.774-0.463-3.882-0.463
		c-2.488,0-4.481,0.603-5.923,1.79c-0.688,0.567-1.223,1.251-1.642,1.988v-4.328c0.655,0.125,1.72,0.282,2.93,0.282h0.001
		c2.318,0,4.176-0.562,5.524-1.67c3.331-2.748,2.877-8.42,2.855-8.661c-0.036-0.42-0.332-0.771-0.739-0.879
		c-0.066-0.018-1.654-0.434-3.616-0.434c-0.999,0-1.895,0.125-2.718,0.333c0.229-0.721,0.373-1.502,0.373-2.343
		c0-4.55-4.172-8.83-4.35-9.01c-0.335-0.34-0.865-0.396-1.263-0.132c-0.185,0.122-4.513,3.031-4.513,7.71
		c0,0.64,0.089,1.272,0.231,1.891c-2.797-1.55-5.683-1.829-5.85-1.844c-0.536-0.054-1.033,0.358-1.083,0.906
		c-0.021,0.229-0.469,5.655,2.731,9.42c2.235,2.628,5.589,3.671,7.483,4.069v2.408c-0.136-0.184-0.271-0.368-0.421-0.545
		c-3.43-4.039-9.337-4.599-9.587-4.621c-0.535-0.057-1.033,0.357-1.083,0.906c-0.022,0.247-0.504,6.079,2.936,10.126
		c2.448,2.878,6.141,3.986,8.155,4.396v2.837c-0.194-0.276-0.401-0.547-0.625-0.811c-3.672-4.32-9.988-4.918-10.256-4.941
		c-0.536-0.051-1.034,0.358-1.084,0.906c-0.023,0.264-0.539,6.507,3.138,10.833c2.658,3.128,6.696,4.302,8.827,4.722v7.919
		c0,0.552,0.448,1,1.001,1s1-0.448,1-1v-7.568c0.74,0.146,2.014,0.346,3.479,0.346h0.001c2.656,0,4.781-0.641,6.315-1.905
		C68.514,67.197,67.992,60.681,67.968,60.405z M57.818,49.572c1.339-1.103,3.269-1.334,4.651-1.334c1.071,0,2.034,0.134,2.655,0.246
		c0.008,1.531-0.221,5.082-2.368,6.851c-1.335,1.102-3.262,1.333-4.645,1.333h-0.001c-1.071,0-2.035-0.134-2.655-0.246
		C55.45,54.889,55.681,51.332,57.818,49.572z M57.614,37.541c1.218-1.004,2.981-1.215,4.246-1.215c0.956,0,1.819,0.116,2.391,0.218
		c0.003,1.692-0.37,4.733-2.162,6.212c-1.221,1.003-2.986,1.214-4.254,1.214c-0.951,0-1.811-0.115-2.382-0.216
		c0-0.065,0-0.127-0.001-0.198c0.021-1.403,0.306-3.552,1.346-5.08c0.24-0.253,0.485-0.536,0.729-0.846
		C57.559,37.603,57.582,37.567,57.614,37.541z M54.331,25.374c1.062,1.262,3.184,4.136,3.184,6.943c0,1.594-0.705,2.954-1.492,3.981
		c-0.305,0.292-0.58,0.603-0.817,0.937c-0.226,0.229-0.443,0.437-0.63,0.598c-0.223-0.264-0.497-0.612-0.784-1.003
		c-0.241-0.431-0.522-0.851-0.839-1.257c-0.822-1.356-1.562-3.026-1.562-4.687C51.391,28.273,53.286,26.276,54.331,25.374z
		 M46.944,39.963c-1.881-2.214-2.233-5.269-2.278-6.87c1.591,0.32,4.599,1.196,6.5,3.432c0.053,0.062,0.092,0.13,0.142,0.193
		c0.248,0.405,0.499,0.781,0.743,1.123c0.373,0.673,0.652,1.372,0.854,2.061v3.37C51.236,42.871,48.645,41.96,46.944,39.963z
		 M46.272,52.306c-2.09-2.46-2.449-5.864-2.486-7.577c1.706,0.335,5.073,1.284,7.174,3.757c0.988,1.163,1.581,2.535,1.944,3.842
		v3.615C51.099,55.525,48.175,54.542,46.272,52.306z M45.601,65.525c-2.299-2.706-2.662-6.468-2.691-8.289
		c1.813,0.347,5.534,1.361,7.847,4.082c1.109,1.304,1.761,2.852,2.148,4.311v3.862C50.967,69.059,47.707,68.003,45.601,65.525z
		 M63.43,68.791c-1.454,1.198-3.545,1.45-5.045,1.45c-1.193,0-2.264-0.154-2.932-0.277c-0.015-1.622,0.21-5.539,2.571-7.486
		c1.168-0.961,2.864-1.449,5.043-1.449c1.195,0,2.268,0.154,2.936,0.278C66.018,62.928,65.793,66.847,63.43,68.791z"/>
</g>
</svg>
