<?xml version="1.0" encoding="utf-8"?>
<!-- Generator: Adobe Illustrator 16.0.0, SVG Export Plug-In . SVG Version: 6.00 Build 0)  -->
<!DOCTYPE svg PUBLIC "-//W3C//DTD SVG 1.1//EN" "http://www.w3.org/Graphics/SVG/1.1/DTD/svg11.dtd">
<svg version="1.1" xmlns="http://www.w3.org/2000/svg" xmlns:xlink="http://www.w3.org/1999/xlink" x="0px" y="0px" width="100px"
	 height="100px" viewBox="0 0 100 100" enable-background="new 0 0 100 100" xml:space="preserve">
<g id="Calque_2">
</g>
<g id="Calque_1">
	<path d="M25.772,80.098c-0.034,0.529-0.475,0.936-0.997,0.936c-0.021,0-0.044,0-0.065-0.002
		c-13.225-0.851-13.896-11.445-13.896-13.56c0-0.552,0.448-1,1-1c0.552,0,1,0.448,1,1c0,2.532,0.867,10.846,12.024,11.564
		C25.39,79.071,25.808,79.547,25.772,80.098z M94.803,60.695c-0.188,1.977-1.098,3.528-2.559,4.37L32.738,99.364
		C32.003,99.788,31.16,100,30.272,100c-0.853,0-1.747-0.195-2.626-0.587c-1.72-0.766-3.244-2.19-4.292-4.009
		c-1.049-1.819-1.518-3.852-1.319-5.724c0.183-1.714,0.933-3.153,2.087-4.041c-3.921-0.298-7.506-0.796-10.487-1.47
		c-5.01-1.398-8.475-9.507-8.475-19.73c0-11.521,10.374-37.068,16.888-44.413c1.453-1.637,1.453-2.913,0-4.55
		c-0.27-0.304-0.733-0.745-1.271-1.255c-2.711-2.576-7.249-6.888-4.438-10.053c0.189-0.214,0.462-0.336,0.747-0.336h0.001
		c0.285,0,0.558,0.123,0.747,0.336c0.667,0.752,1.4,1.133,2.18,1.134c0.001,0,0.001,0,0.002,0c1.091,0,2.129-0.731,2.737-1.415
		c0.073-0.082,0.162-0.137,0.251-0.188c-0.143-0.343-0.272-0.603-0.377-0.722c-0.332-0.379-0.335-0.952,0-1.329
		C23.636,0.516,25.945,0,27.667,0c0.003,0,0.005,0,0.008,0c1.705,0.001,3.053,0.463,3.794,1.301c0.335,0.378,0.335,0.947,0,1.326
		c-0.271,0.307-0.561,1.071-0.824,2.094c0.056,0.037,0.117,0.061,0.166,0.11c1.795,1.794,1.862,1.727,3.591,0
		c0.013-0.013,0.03-0.017,0.043-0.029c-0.217-1.283-0.468-1.911-0.702-2.175c-0.336-0.378-0.336-0.948,0-1.327
		c0.743-0.838,2.092-1.299,3.799-1.3c0.002,0,0.003,0,0.004,0c1.723,0,4.032,0.516,5.039,1.65c0.336,0.379,0.336,0.95,0,1.329
		C42.48,3.097,42.35,3.356,42.208,3.7c0.089,0.052,0.178,0.107,0.251,0.188c0.607,0.684,1.646,1.415,2.737,1.415
		c0.001,0,0.001,0,0.002,0c0.779-0.001,1.513-0.382,2.179-1.134c0.189-0.214,0.462-0.336,0.748-0.336l0,0
		c0.286,0,0.558,0.122,0.748,0.336c2.812,3.166-1.727,7.477-4.439,10.053c-0.537,0.51-1.001,0.951-1.271,1.255
		c-1.451,1.636-1.451,2.912,0.001,4.549c6.515,7.344,16.889,32.892,16.889,44.413c0,0.152-0.009,0.299-0.011,0.45l24.096-13.888
		c0.729-0.42,1.546-0.634,2.428-0.634c2.559,0,5.261,1.82,6.884,4.638C94.499,56.826,94.98,58.847,94.803,60.695z M40.478,19.564
		c-0.239-0.541-0.356-1.082-0.381-1.624c-3.159,1.359-6.376,2.125-11.566,1.281c0.377,0.192,0.752,0.356,1.125,0.505
		c0.006,0.002,0.012,0.004,0.018,0.006C34.114,21.493,38.267,20.317,40.478,19.564z M30.181,6.973
		c-0.546,3.382-0.709,7.853,0.284,10.481c4.899,0.497,7.576-0.702,10.286-2.007c0.244-0.434,0.533-0.866,0.916-1.297
		c0.327-0.368,0.819-0.836,1.39-1.378c1.701-1.615,4.618-4.387,4.672-6.263c-0.946,0.634-1.854,0.794-2.53,0.795
		c-0.001,0-0.002,0-0.003,0c-1.269,0-2.602-0.57-3.689-1.546c-0.573,1.947-1.114,4.375-1.114,5.558c0,0.552-0.447,1-1,1
		c-0.552,0-1-0.448-1-1c0-1.755,1.094-6.494,2.131-8.719C39.835,2.268,38.711,2,37.546,2c-0.001,0-0.002,0-0.004,0
		c-0.684,0-1.289,0.097-1.728,0.267C36.649,4.251,37,8.327,37,15.56c0,0.552-0.447,1-1,1c-0.552,0-1-0.448-1-1
		c0-3.719-0.104-6.396-0.267-8.33c-0.742,0.597-1.407,0.927-2.096,0.927C31.897,8.157,31.121,7.777,30.181,6.973z M23.546,14.149
		c0.652,0.736,1.079,1.475,1.33,2.215c1.228,0.33,2.353,0.583,3.389,0.77c-1.193-4.61-0.189-11.93,1.131-14.868
		C28.958,2.097,28.354,2,27.673,2c-0.002,0-0.005,0-0.007,0c-1.165,0-2.289,0.268-2.977,0.596c1.037,2.226,2.131,6.965,2.131,8.719
		c0,0.552-0.448,1-1,1c-0.553,0-1-0.448-1-1c0-1.183-0.541-3.611-1.114-5.558c-1.087,0.975-2.42,1.545-3.689,1.545
		c-0.001,0-0.002,0-0.003,0c-0.676,0-1.584-0.161-2.53-0.795c0.055,1.876,2.972,4.648,4.672,6.263
		C22.727,13.313,23.219,13.781,23.546,14.149z M14.126,82.23c3.559,0.804,8.088,1.359,13.058,1.596l30.828-17.769
		c0.02-0.536,0.039-1.073,0.039-1.619c0-10.865-10.159-36.068-16.385-43.085c-0.02-0.022-0.032-0.044-0.052-0.066
		c-0.618,0.217-1.501,0.519-2.579,0.785c2.306,2.826,3.558,5.409,4.314,8.801c0.12,0.539-0.219,1.074-0.758,1.194
		c-0.073,0.016-0.146,0.024-0.219,0.024c-0.458,0-0.871-0.316-0.976-0.782c-0.765-3.429-2.046-5.866-4.628-8.809
		c-0.699,0.089-1.441,0.146-2.218,0.146c-0.176,0-0.354-0.005-0.533-0.011v5.145c0,0.552-0.448,1-1,1c-0.553,0-1-0.448-1-1v-5.338
		c-0.798-0.129-1.615-0.33-2.444-0.614c-1.626,1.89-4.097,6.037-4.906,9.361c-0.111,0.457-0.521,0.763-0.971,0.763
		c-0.078,0-0.158-0.009-0.237-0.028c-0.536-0.131-0.865-0.672-0.735-1.208c0.772-3.171,3.025-7.3,4.926-9.698
		c-0.932-0.473-1.868-1.069-2.797-1.809c-0.255,0.717-0.675,1.433-1.308,2.146C17.32,28.371,7.161,53.574,7.161,64.439
		C7.161,73.473,10.155,81.122,14.126,82.23z M32.28,90.26c-1.239-2.155-3.324-3.602-5.187-3.602c-0.541,0-1.032,0.125-1.461,0.371
		l-0.003,0.002l-0.001,0c-0.893,0.514-1.463,1.53-1.604,2.86c-0.155,1.455,0.223,3.058,1.063,4.514
		c0.838,1.456,2.036,2.585,3.372,3.18c1.221,0.544,2.387,0.561,3.279,0.046l0.005-0.003c0.89-0.516,1.458-1.53,1.599-2.857
		C33.498,93.317,33.12,91.715,32.28,90.26z M91.716,56.004c-1.253-2.175-3.324-3.637-5.152-3.637c-0.526,0-1.007,0.124-1.429,0.366
		L29.13,85.014c1.902,0.656,3.694,2.182,4.884,4.247c1.049,1.818,1.517,3.85,1.318,5.722c-0.023,0.216-0.055,0.427-0.096,0.633
		l56.008-32.282c0.885-0.51,1.441-1.514,1.567-2.828C92.95,59.067,92.561,57.468,91.716,56.004z"/>
</g>
</svg>
