<?xml version="1.0" encoding="utf-8"?>
<!-- Generator: Adobe Illustrator 16.0.0, SVG Export Plug-In . SVG Version: 6.00 Build 0)  -->
<!DOCTYPE svg PUBLIC "-//W3C//DTD SVG 1.1//EN" "http://www.w3.org/Graphics/SVG/1.1/DTD/svg11.dtd">
<svg version="1.1" xmlns="http://www.w3.org/2000/svg" xmlns:xlink="http://www.w3.org/1999/xlink" x="0px" y="0px" width="100px"
	 height="100px" viewBox="0 0 100 100" enable-background="new 0 0 100 100" xml:space="preserve">
<g id="Calque_2">
</g>
<g id="Calque_1">
	<path d="M28.228,25.319c-8.874,0-18.663-1.105-22.647-2.61c-0.517-0.195-0.777-0.772-0.582-1.289s0.771-0.778,1.289-0.583
		c6.865,2.593,29.076,3.556,35.829,0.903c0.513-0.203,1.095,0.05,1.296,0.565c0.202,0.514-0.051,1.095-0.565,1.296
		C39.752,24.818,34.196,25.319,28.228,25.319z M99.555,57.47V99c0,0.552-0.447,1-1,1H27.849c-0.553,0-1-0.448-1-1V87.525
		c-0.41,0.003-0.815,0.008-1.231,0.008c-4.203,0-25.172-0.209-25.172-4.334v-3.784c0-1.122,0.348-2.149,0.884-3.136
		c-0.067-0.135-0.114-0.281-0.114-0.442v-40.43c0-0.184,0.063-0.347,0.15-0.495c-0.558-1.006-0.92-2.054-0.92-3.201v-9.296
		c0-4.644,6.119-6.626,12.036-8.543c3.124-1.012,6.334-2.059,7.735-3.332c-0.089-0.194-0.151-0.399-0.151-0.627V2.987
		c0-2.843,7.456-2.987,8.95-2.987s8.95,0.144,8.95,2.987v6.925c0,0.266-0.083,0.5-0.202,0.721c0.786,0.776,1.585,1.514,2.36,2.226
		c5.39,4.945,10.482,9.63,10.657,27.214c2.647,0.256,5.932,0.951,5.932,2.839v0.824h13.727v-0.824c0-2.844,7.456-2.988,8.951-2.988
		c1.494,0,8.95,0.144,8.95,2.988v0.824h3.611c0.373,0,0.716,0.208,0.888,0.54l6.603,12.733c0.006,0.012,0.005,0.025,0.011,0.037
		c0.028,0.061,0.039,0.127,0.055,0.193c0.016,0.065,0.037,0.127,0.039,0.192C99.548,57.445,99.555,57.457,99.555,57.47z
		 M72.439,49.667c0.519,0.427,2.955,1.158,6.951,1.158c3.995,0,6.432-0.731,6.95-1.158v-4.72c-2.32,0.883-5.955,0.952-6.95,0.952
		c-0.996,0-4.631-0.069-6.951-0.952V49.667z M72.719,42.912c0.864,0.426,3.169,0.987,6.672,0.987s5.807-0.562,6.672-0.987
		c-0.865-0.426-3.169-0.987-6.672-0.987C75.887,41.925,73.583,42.487,72.719,42.912z M56.713,45.737v4.1
		c0,2.844-7.456,2.988-8.95,2.988s-8.95-0.144-8.95-2.988v-4.1H35.06L29.494,56.47H96.91l-5.566-10.733h-3.003v4.1
		c0,2.844-7.456,2.988-8.95,2.988c-1.495,0-8.951-0.144-8.951-2.988v-4.1H56.713z M40.813,49.667
		c0.519,0.427,2.955,1.158,6.95,1.158s6.432-0.731,6.95-1.158v-4.72c-2.32,0.883-5.955,0.952-6.95,0.952s-4.63-0.069-6.95-0.952
		V49.667z M54.435,42.912c-0.679-0.334-2.257-0.748-4.595-0.913c-0.018,0.001-0.032,0.01-0.05,0.01
		c-0.033,0-0.061-0.016-0.093-0.019c-0.601-0.039-1.237-0.066-1.935-0.066c-3.503,0-5.808,0.562-6.672,0.987
		c0.865,0.426,3.169,0.987,6.672,0.987S53.569,43.338,54.435,42.912z M22.065,9.743c0.519,0.426,2.955,1.158,6.95,1.158
		s6.432-0.731,6.95-1.158v-4.72c-2.32,0.884-5.955,0.953-6.95,0.953s-4.63-0.069-6.95-0.953V9.743z M22.344,2.987
		c0.864,0.426,3.169,0.988,6.672,0.988s5.808-0.562,6.672-0.988C34.823,2.562,32.519,2,29.016,2S23.208,2.562,22.344,2.987z
		 M3.215,73.622c0.35-0.417,0.709-0.834,1.078-1.255c2.075-2.372,4.222-4.824,4.222-7.954V46.716c0-3.13-2.146-5.583-4.221-7.954
		c-0.369-0.422-0.729-0.839-1.079-1.256V73.622z M26.849,85.525V57.47c0-0.014,0.007-0.025,0.008-0.039
		c0.002-0.065,0.023-0.127,0.039-0.192c0.016-0.066,0.026-0.133,0.055-0.193c0.006-0.012,0.005-0.025,0.011-0.037l6.603-12.733
		c0.172-0.332,0.515-0.54,0.888-0.54h4.361v-0.824c0-2.844,7.456-2.988,8.95-2.988c0.221,0,0.581,0.004,1.019,0.019
		c-0.188-16.588-4.746-20.781-10.01-25.611c-0.851-0.78-1.729-1.587-2.603-2.459c-2.305,0.958-6.129,1.027-7.153,1.027
		c-1.038,0-4.946-0.072-7.24-1.067c-0.002,0.001-0.002,0.003-0.003,0.004c-1.667,1.667-5.071,2.77-8.675,3.937
		c-4.993,1.618-10.652,3.451-10.652,6.641v9.296c0,1.901,1.629,3.763,3.354,5.733c2.21,2.527,4.716,5.39,4.716,9.271v17.696
		c0,3.881-2.506,6.744-4.716,9.271c-1.725,1.971-3.354,3.832-3.354,5.732v3.601c1.214,1.055,9.907,2.517,23.172,2.517
		C26.032,85.534,26.438,85.528,26.849,85.525z M97.555,58.47H28.849V98h68.706V58.47z M41.373,73.124h5.374v5.373
		c0,0.561,0.454,1.016,1.016,1.016s1.016-0.455,1.016-1.016v-5.373h5.373c0.562,0,1.016-0.455,1.016-1.016s-0.454-1.016-1.016-1.016
		h-5.373v-5.373c0-0.561-0.454-1.016-1.016-1.016s-1.016,0.455-1.016,1.016v5.373h-5.374c-0.562,0-1.016,0.455-1.016,1.016
		S40.812,73.124,41.373,73.124z M73.001,73.124h12.778c0.562,0,1.016-0.455,1.016-1.016s-0.454-1.016-1.016-1.016H73.001
		c-0.562,0-1.016,0.455-1.016,1.016S72.439,73.124,73.001,73.124z"/>
</g>
</svg>
