<?xml version="1.0" encoding="utf-8"?>
<!-- Generator: Adobe Illustrator 16.0.0, SVG Export Plug-In . SVG Version: 6.00 Build 0)  -->
<!DOCTYPE svg PUBLIC "-//W3C//DTD SVG 1.1//EN" "http://www.w3.org/Graphics/SVG/1.1/DTD/svg11.dtd">
<svg version="1.1" xmlns="http://www.w3.org/2000/svg" xmlns:xlink="http://www.w3.org/1999/xlink" x="0px" y="0px" width="100px"
	 height="100px" viewBox="0 0 100 100" enable-background="new 0 0 100 100" xml:space="preserve">
<g id="Calque_2">
</g>
<g id="v2">
	<path d="M73.699,18.727c-0.798,0-1.155-0.682-1.155-1.357v-4.992c0.803-0.485,1.359-1.208,1.359-2.302V3.273
		c0-0.706-0.266-1.343-0.77-1.842c-1.367-1.356-4.155-1.449-6.629-1.428l-0.404,0.002l-0.404-0.002
		c-2.479-0.02-5.262,0.072-6.629,1.428c-0.504,0.5-0.77,1.137-0.77,1.842v6.803c0,1.094,0.557,1.816,1.359,2.302v4.992
		c0,0.675-0.356,1.357-1.154,1.357c-7.223,0-12.451,8.067-12.451,13.506v3.925c-2.359-0.089-4.842-0.138-7.39-0.138
		c-6.398,0-12.418,0.292-16.953,0.824c-6.35,0.745-7.771,1.649-7.85,2.856c-0.001,0.006-0.001,0.013-0.001,0.02
		c-0.001,0.03-0.006,0.06-0.006,0.09c0,0.474,0.186,0.903,0.763,1.293l22.909,28.139v25.256c-5.551,0.063-11.625,0.618-11.625,2.749
		c0,2.275,6.941,2.753,12.764,2.753s12.764-0.478,12.764-2.753c0-2.166-6.279-2.704-11.903-2.751V69.245l6.529-7.927v30.88
		c0,4.743,19.23,4.798,20.049,4.798s20.048-0.055,20.048-4.798V32.233C86.148,26.794,80.921,18.727,73.699,18.727z M60.298,10.076
		V5.898c0.246,0.101,0.521,0.192,0.827,0.272c1.29,0.334,2.794,0.377,3.961,0.377l1.015-0.005l1.015,0.005
		c1.081,0,3.203,0,4.788-0.646v4.175c0,0.383-0.467,1.273-4.788,1.273l-1.015-0.005l-1.015,0.005
		C60.765,11.35,60.298,10.459,60.298,10.076z M60.476,2.851c0.89-0.882,4.021-0.855,5.205-0.848l0.42,0.002l0.42-0.002
		c1.185-0.007,4.316-0.034,5.205,0.848c0.126,0.125,0.178,0.248,0.178,0.422c0,0.383-0.467,1.273-4.788,1.273l-1.015-0.005
		l-1.015,0.005c-0.966,0-2.376-0.032-3.459-0.313c-1.329-0.345-1.329-0.808-1.329-0.96C60.298,3.099,60.35,2.977,60.476,2.851z
		 M48.052,32.233c0-4.526,4.488-11.506,10.451-11.506c1.798,0,3.154-1.443,3.154-3.357v-4.276c1.288,0.253,2.638,0.256,3.429,0.256
		l1.015-0.005l1.015,0.005c0.791,0,2.141-0.002,3.429-0.256v4.276c0,1.914,1.356,3.357,3.155,3.357
		c5.962,0,10.449,6.98,10.449,11.506l0.002,9.653c-0.512,1.03-6.939,2.854-18.05,2.854c-2.151,0-4.234-0.071-6.22-0.209l2.816-3.419
		c0.587-0.393,0.776-0.823,0.776-1.301c0-0.028-0.005-0.055-0.006-0.083c-0.001-0.008-0.001-0.015-0.002-0.023
		c-0.075-1.208-1.493-2.115-7.851-2.86c-2.209-0.259-4.776-0.46-7.563-0.599V32.233z M38.662,38.021
		c3.064,0,5.864,0.066,8.385,0.178c0.001,0,0.003,0.001,0.005,0.001c0.001,0,0.002,0,0.003,0c7.067,0.313,11.885,0.989,13.763,1.611
		c-2.548,0.845-10.496,1.791-22.156,1.791c-11.66,0-19.607-0.946-22.154-1.791C19.055,38.966,27.002,38.021,38.662,38.021z
		 M21.708,42.777c4.534,0.532,10.555,0.824,16.953,0.824s12.419-0.292,16.954-0.824c1.422-0.167,2.584-0.342,3.553-0.526
		l-5.286,6.417c-1.438-0.772-5.226-1.576-15.22-1.576c-10.142,0-13.893,0.827-15.281,1.61l-5.258-6.458
		C19.097,42.432,20.27,42.609,21.708,42.777z M38.527,67.308l-12.6-15.476c2.306,0.455,6.189,0.8,12.734,0.8
		c6.417,0,10.271-0.332,12.592-0.773L38.527,67.308z M26.261,49.862c2.368-0.404,6.712-0.769,12.401-0.769
		s10.033,0.365,12.401,0.769c-2.368,0.405-6.712,0.77-12.401,0.77S28.628,50.267,26.261,49.862z M38.662,98
		c-4.631,0-7.853-0.38-9.565-0.754c1.577-0.345,4.452-0.691,8.514-0.744c0.156,0.351,0.504,0.597,0.912,0.597
		c0.409,0,0.759-0.247,0.914-0.6c4.208,0.04,7.177,0.395,8.79,0.747C46.514,97.62,43.292,98,38.662,98z M58.333,46.41
		c2.448,0.216,5.054,0.33,7.768,0.33c0.655,0,13.112-0.038,18.05-2.489l0.005,25.27c-0.489,1.029-6.921,2.86-18.055,2.86
		c-11.074,0-17.5-1.812-18.049-2.844V58.891L58.333,46.41z M66.101,94.996c-11.15,0-17.589-1.837-18.049-2.798V71.893
		c4.939,2.45,17.394,2.488,18.049,2.488s13.12-0.038,18.055-2.491l0.004,20.242C83.688,93.159,77.251,94.996,66.101,94.996z"/>
</g>
</svg>
