<?xml version="1.0" encoding="utf-8"?>
<!-- Generator: Adobe Illustrator 16.0.0, SVG Export Plug-In . SVG Version: 6.00 Build 0)  -->
<!DOCTYPE svg PUBLIC "-//W3C//DTD SVG 1.1//EN" "http://www.w3.org/Graphics/SVG/1.1/DTD/svg11.dtd">
<svg version="1.1" xmlns="http://www.w3.org/2000/svg" xmlns:xlink="http://www.w3.org/1999/xlink" x="0px" y="0px" width="100px"
	 height="100px" viewBox="0 0 100 100" enable-background="new 0 0 100 100" xml:space="preserve">
<g id="Calque_1">
</g>
<g id="Calque_2">
	<path d="M81.867,7.513l1.263-6.317c0.059-0.293-0.018-0.598-0.207-0.83C82.732,0.134,82.449,0,82.149,0H42.928
		c-0.3,0-0.583,0.134-0.773,0.366c-0.189,0.231-0.266,0.536-0.207,0.83l1.264,6.318l4.337,44.787
		c-2.788-0.302-5.769-0.451-8.688-0.451c-0.472,0-0.929,0.011-1.391,0.018c-0.397-2-0.788-3.95-1.162-5.814
		c-0.755-3.766-1.418-7.074-1.928-9.747l1.399-0.208c1.081-0.161,1.966-0.829,2.491-1.88c0.454-0.91,0.607-2.063,0.432-3.248
		l-1.382-9.272c-0.388-2.608-2.185-4.365-4.291-4.053c-0.276,0.042-0.539,0.118-0.787,0.223l-3.999,0.596
		c-2.029,0.303-3.426,2.694-3.049,5.222l1.329,8.919c0.001,0.003,0.002,0.007,0.002,0.011c0.395,2.651,0.944,8.226,1.58,14.681
		c0.165,1.68,0.338,3.433,0.517,5.223c-3.709,0.525-10.088,1.816-11.479,4.549c-0.179,0.181-0.292,0.424-0.292,0.696v0.167
		c0,0.047,0.012,0.093,0.015,0.14c-0.002,0.034-0.015,0.064-0.015,0.099c0,0.162,0.047,0.309,0.115,0.444
		c0.026,0.085,0.045,0.172,0.081,0.256l6.891,35.33C24.075,97.969,31.553,100,38.592,100c7.287,0,14.821-2.2,14.97-5.887l0.231-1.15
		c2.305,0.406,5.436,0.635,8.801,0.635c4.823,0,12.916-0.389,12.916-2.992V74.023c0-0.109-0.029-0.208-0.062-0.307L81.867,7.513z
		 M80.93,2l-0.873,4.366H45.021L44.147,2H80.93z M45.303,8.366h34.473l-6.332,65.306c-0.003,0.033,0.01,0.062,0.01,0.094
		c-0.942,0.493-4.706,1.281-10.859,1.281c-1.79,0-3.54-0.076-5.146-0.215l3.17-15.727c0.166-0.341,0.25-0.695,0.25-1.053v-0.286
		c0-0.164-0.051-0.313-0.121-0.45c-0.785-2.378-5.371-3.939-11.166-4.762L45.303,8.366z M52.084,91.318
		c-2.007-1.661-5.795-2.71-9.71-3.117c0.335-3.478,0.309-7.169-0.088-9.832c-0.64-4.291-1.492-9.156-2.42-14.125
		c7.035-0.083,14.418-1.027,18.278-2.989L52.084,91.318z M36.469,88.706c-0.008-0.019-0.014-0.039-0.023-0.057
		c-1.138-2.734-2.224-6.071-2.661-9.012c-0.7-4.7-1.358-10.149-1.966-15.686c1.893,0.168,3.907,0.268,6.013,0.293
		c0.95,5.075,1.826,10.052,2.477,14.421c0.839,5.62-0.157,13.338-1.072,15.178C38.567,93.137,37.499,91.17,36.469,88.706z
		 M38.859,53.851c12.494,0,19.488,2.582,19.963,4.043l-0.1,0.495c-1.143,1.571-7.842,3.776-19.232,3.856
		c-0.532-2.81-1.082-5.631-1.626-8.382C38.196,53.859,38.521,53.851,38.859,53.851z M34.346,46.447
		c0.979,4.889,2.074,10.357,3.106,15.789c-2.107-0.036-4.063-0.148-5.854-0.321c-0.547-5.103-1.05-10.211-1.503-14.813
		c-0.415-4.214-0.776-7.875-1.086-10.688c0.498,0.274,1.024,0.433,1.55,0.433c0.14,0,0.279-0.01,0.418-0.031l1.423-0.212
		C32.913,39.298,33.582,42.638,34.346,46.447z M35.341,21.994l1.382,9.272c0.116,0.782,0.03,1.514-0.242,2.059
		c-0.232,0.464-0.567,0.732-0.997,0.796c-0.951,0.14-1.799-0.89-2.019-2.369l-1.382-9.272c-0.117-0.782-0.031-1.513,0.242-2.059
		c0.144-0.286,0.33-0.489,0.55-0.624l0.464-0.069c0.103-0.015,0.191-0.059,0.28-0.102C34.43,19.709,35.145,20.674,35.341,21.994z
		 M28.537,20.443l1.741-0.259c-0.245,0.78-0.311,1.674-0.174,2.59l1.382,9.271c0.146,0.989,0.506,1.844,0.998,2.521l-1.803,0.269
		c-0.38,0.063-0.842-0.155-1.252-0.584c-0.479-0.5-0.815-1.203-0.926-1.93c-0.001-0.004-0.001-0.008-0.002-0.012
		c0-0.001-0.001-0.003-0.002-0.004l-1.328-8.915C26.966,22.011,27.63,20.579,28.537,20.443z M18.958,58.219l-0.049-0.251
		c0.394-0.831,3.094-2.488,9.911-3.455c0.237,2.354,0.484,4.761,0.741,7.173C23.484,60.894,19.707,59.416,18.958,58.219z
		 M29.783,63.74c0.623,5.706,1.3,11.341,2.022,16.192c0.353,2.366,1.223,5.424,2.348,8.341c-3.376,0.415-6.859,1.36-8.761,2.942
		l-5.872-30.108C21.784,62.291,25.376,63.208,29.783,63.74z M38.592,98c-7.726,0-12.656-2.313-12.656-3.905
		c0-0.042-0.007-0.083-0.012-0.125c0.001-0.021,0.012-0.039,0.012-0.06c0-1.199,3.128-3.098,9.001-3.712
		c0.002,0.003,0.003,0.007,0.005,0.011c2.311,5.292,3.644,5.857,4.34,5.857c0.108,0,0.202-0.014,0.281-0.025
		c0.55-0.082,1.793-0.273,2.58-5.85c6.073,0.622,9.421,2.6,9.421,3.813C51.563,95.612,46.116,98,38.592,98z M73.51,90.319
		c-0.856,0.492-4.566,1.279-10.916,1.279c-3.186,0-6.229-0.22-8.405-0.597l2.862-14.198c1.724,0.157,3.613,0.243,5.543,0.243
		c2.736,0,8.027-0.146,10.916-1.187V90.319z"/>
</g>
</svg>
