<svg id="Calque_1" data-name="Calque 1" xmlns="http://www.w3.org/2000/svg" viewBox="0 0 300 300"><defs><style>.cls-1{fill:#1d1d1b;}.cls-2{fill:none;stroke:#000;stroke-miterlimit:10;stroke-width:5px;}</style></defs><title>picto_midi_pyrennee</title><path class="cls-1" d="M150,6A144,144,0,0,1,251.82,251.82,144,144,0,1,1,48.18,48.18,143,143,0,0,1,150,6m0-6A150,150,0,1,0,300,150,150,150,0,0,0,150,0Z"/><path class="cls-2" d="M82.17,117.35a5.9,5.9,0,1,0-5.87-6A6,6,0,0,0,82.17,117.35Z"/><path class="cls-2" d="M111.53,88a5.84,5.84,0,1,0-6-5.84A5.78,5.78,0,0,0,111.53,88Z"/><path class="cls-2" d="M64.41,144.2a5.84,5.84,0,1,0-.12,11.68,5.84,5.84,0,1,0,.12-11.68Z"/><path class="cls-2" d="M188.5,88a5.81,5.81,0,1,0-5.74-5.8A5.7,5.7,0,0,0,188.5,88Z"/><path class="cls-2" d="M150,70.22a5.87,5.87,0,0,0,5.84-5.85A5.82,5.82,0,1,0,150,70.22Z"/><path class="cls-2" d="M82.16,182.81A5.81,5.81,0,1,0,88,188.62,5.77,5.77,0,0,0,82.16,182.81Z"/><path class="cls-2" d="M217.92,105.58a5.87,5.87,0,0,0-.14,11.73,5.87,5.87,0,1,0,.14-11.73Z"/><path class="cls-2" d="M111.5,212.05a5.86,5.86,0,0,0,0,11.72,5.86,5.86,0,0,0,0-11.72Z"/><path class="cls-2" d="M188.53,212.07a5.85,5.85,0,0,0,0,11.69,5.85,5.85,0,0,0,0-11.69Z"/><path class="cls-2" d="M235.72,144.23a5.91,5.91,0,0,0-5.9,5.78,6,6,0,0,0,5.77,5.83,5.86,5.86,0,0,0,5.93-5.76A5.8,5.8,0,0,0,235.72,144.23Z"/><path class="cls-2" d="M150.08,229.87a5.84,5.84,0,0,0-5.85,5.84,5.79,5.79,0,0,0,11.58,0A5.86,5.86,0,0,0,150.08,229.87Z"/><path class="cls-2" d="M217.91,182.83a5.79,5.79,0,0,0-.12,11.57,5.79,5.79,0,1,0,.12-11.57Z"/><path class="cls-2" d="M209,179.14a85.84,85.84,0,0,0-23.85-14.2,95.61,95.61,0,0,0-26.79-6.47c2.14,18.88,8.53,35.74,20.72,50.63a32.72,32.72,0,0,0-15.45,2.6,31.43,31.43,0,0,0-11.73,8.85,2.91,2.91,0,0,0-.55.23c-1,.6-1.32.51-1.32.51a3.56,3.56,0,0,1-2.21-1.37.62.62,0,0,0-.54-.21c-7.24-6.91-15.52-11.25-26.39-10.64a87.42,87.42,0,0,0,14.19-23.84,96.78,96.78,0,0,0,6.52-26.86c-18.89,2.11-35.75,8.49-50.6,20.67.64-11.37-4.18-19.91-11.7-27.45,0-.1-.06-.2-.12-.3-.61-1-.51-1.31-.51-1.31a3.57,3.57,0,0,1,1.36-2.21s0,0,0,0c7.73-6.94,11.41-15.66,11-26.58,14.89,12.15,31.74,18.52,50.61,20.55-2.09-18.89-8.44-35.76-20.56-50.58,11.4.54,20-4.37,27.52-12,1-.61,1.32-.51,1.32-.51A3.57,3.57,0,0,1,152.21,80s.06,0,.09,0c7,7.86,15.86,11.4,26.64,11.1-12.13,14.85-18.52,31.7-20.58,50.56,18.9-2.12,35.79-8.52,50.67-20.7-.64,11.41,4.21,20,11.79,27.57,0,0,0,0,0,.06.6,1,.51,1.32.51,1.32a3.54,3.54,0,0,1-1.36,2.2.61.61,0,0,0-.18.41C212.17,159.54,208.6,168.26,209,179.14Z"/></svg>