<?xml version="1.0" encoding="utf-8"?>
<!-- Generator: Adobe Illustrator 16.0.0, SVG Export Plug-In . SVG Version: 6.00 Build 0)  -->
<!DOCTYPE svg PUBLIC "-//W3C//DTD SVG 1.1//EN" "http://www.w3.org/Graphics/SVG/1.1/DTD/svg11.dtd">
<svg version="1.1" xmlns="http://www.w3.org/2000/svg" xmlns:xlink="http://www.w3.org/1999/xlink" x="0px" y="0px" width="100px"
	 height="100px" viewBox="0 0 100 100" enable-background="new 0 0 100 100" xml:space="preserve">
<g id="Calque_2">
</g>
<g id="v2">
	<path d="M40.786,89.577c0.006-0.011,0.006-0.023,0.012-0.034c0.556-0.971,0.994-2.024,1.279-3.152
		c0.814-3.234,0.271-6.494-1.257-9.189c-0.015-0.033-0.016-0.069-0.034-0.101c-0.014-0.023-0.036-0.036-0.051-0.057
		c-1.632-2.788-4.332-4.948-7.704-5.799c-1.001-0.252-2.027-0.38-3.051-0.381l0,0l0,0c-0.003,0-0.006,0-0.009,0
		c-4.531,0-8.586,2.441-10.773,6.215c-0.006,0.009-0.015,0.014-0.021,0.023c-0.005,0.008-0.004,0.017-0.009,0.025
		c-0.558,0.973-0.999,2.03-1.284,3.161c-0.568,2.256-0.498,4.615,0.203,6.822c0.268,0.841,0.637,1.626,1.059,2.373
		c0.014,0.031,0.014,0.064,0.031,0.094c0.019,0.032,0.045,0.056,0.065,0.085c1.67,2.849,4.391,4.941,7.685,5.772
		c1.001,0.252,2.026,0.38,3.05,0.381c0.001,0,0.002,0,0.002,0c0.002,0,0.002,0,0.002,0c0.002,0,0.004,0,0.006,0h0.001
		c4.52,0,8.566-2.429,10.758-6.186C40.759,89.61,40.775,89.597,40.786,89.577z M19.994,86.502c-0.589-1.852-0.647-3.832-0.17-5.726
		c0.157-0.622,0.371-1.217,0.629-1.784l7.528,4.347l-7.527,4.346C20.28,87.302,20.124,86.91,19.994,86.502z M40.138,85.901
		c-0.157,0.622-0.371,1.216-0.629,1.783l-7.527-4.346l7.519-4.341C40.456,81.089,40.741,83.504,40.138,85.901z M38.499,77.266
		l-7.519,4.341v-8.681c0.524,0.051,1.047,0.128,1.562,0.258C35.046,73.816,37.106,75.31,38.499,77.266z M28.98,72.913v8.693
		l-7.524-4.345C23.19,74.825,25.914,73.203,28.98,72.913z M21.464,89.411l7.517-4.34v8.681c-0.525-0.051-1.049-0.128-1.563-0.258
		C24.957,92.873,22.883,91.408,21.464,89.411z M30.98,93.765V85.07l7.525,4.345C36.771,91.853,34.047,93.475,30.98,93.765z
		 M77.752,68.994c1.773-1.126,3.355-2.724,4.702-4.746c1.33-1.993,2.374-4.311,3.102-6.888c0.748-2.658,1.127-5.473,1.127-8.367
		c0-2.896-0.379-5.709-1.127-8.364c-0.002-0.007-0.008-0.012-0.01-0.02c-0.006-0.722-0.283-2.484-13.748-2.484
		c-3.579,0-6.22,0.125-8.178,0.322c-0.34-4.315-1.64-7.962-3.889-10.833c-0.85-1.083-1.771-1.946-2.663-2.78
		c-0.64-0.599-1.244-1.164-1.835-1.814c-0.253-0.277-0.513-0.597-0.775-0.952c-1.903-2.559-2.155-5.7-2.282-9.538V1
		c0-0.552-0.447-1-1-1h-7.693c-0.553,0-1,0.448-1,1v13.164c-0.003,0.109-0.006,0.224-0.009,0.332
		c-0.064,2.96-0.115,5.299-1.805,7.572c-0.254,0.34-0.511,0.662-0.777,0.953c-0.605,0.667-1.277,1.251-1.989,1.87
		c-0.938,0.815-1.907,1.659-2.741,2.724c-2.72,3.471-4.218,8.111-4.218,13.064v26.029c-0.325-0.019-0.65-0.03-0.976-0.03
		c-7.634,0-14.271,5.175-16.142,12.586c-0.759,3.015-0.665,6.165,0.272,9.109c1.763,5.54,6.176,9.696,11.806,11.117
		c1.341,0.338,2.716,0.51,4.087,0.51c0,0,0.001,0,0.002,0c4.429,0,8.516-1.751,11.537-4.662c1.978,0.167,4.019,0.262,5.799,0.262
		c0.164,0,16.387-0.043,16.387-3.82V67.261c0.69,0.657,1.411,1.247,2.176,1.733c1.528,0.97,3.14,1.527,4.8,1.708V94.32
		c-7.267,0.082-10.957,0.97-10.957,2.645c0,1.76,4.066,2.653,12.087,2.653c8.02,0,12.086-0.893,12.086-2.653
		c0-1.695-3.78-2.583-11.216-2.646V70.721C74.443,70.575,76.144,70.014,77.752,68.994z M71.798,52.229
		c-7.58,0-10.977,0.559-12.503,1.176c-0.215-1.441-0.335-2.914-0.335-4.413c0-2.348,0.282-4.631,0.808-6.815
		c1.719,0.546,5.156,1.005,12.03,1.005c6.937,0,10.37-0.468,12.073-1.02c0.528,2.187,0.812,4.475,0.812,6.83
		c0,1.507-0.121,2.985-0.338,4.431C82.84,52.799,79.45,52.229,71.798,52.229z M81.373,54.758c-2.099,0.29-5.418,0.528-9.575,0.528
		c-4.158,0-7.477-0.238-9.575-0.528c2.099-0.29,5.417-0.528,9.575-0.528S79.274,54.468,81.373,54.758z M32.943,46.884
		c4.349,1.811,14.29,1.837,14.418,1.837c3.058,0,6.682-0.268,9.631-0.701c-0.01,0.324-0.032,0.646-0.032,0.972
		c0,2.89,0.379,5.705,1.127,8.368c0.728,2.578,1.771,4.896,3.103,6.887c0.048,0.072,0.102,0.134,0.15,0.205
		c-2.293,1.052-9.029,1.774-13.979,1.774c-6.574,0-13.372-1.104-14.418-2.006V46.884z M81.373,40.653
		c-2.099,0.29-5.417,0.528-9.575,0.528s-7.477-0.238-9.576-0.528c2.099-0.29,5.418-0.528,9.576-0.528S79.274,40.364,81.373,40.653z
		 M50.176,2v12.104h-5.691c0.007-0.288,0.013-0.573,0.022-0.87c0.002-0.051-0.019-0.096-0.024-0.146V2H50.176z M36.735,28.848
		c0.717-0.914,1.573-1.659,2.479-2.448c0.724-0.629,1.472-1.28,2.155-2.031c0.286-0.313,0.582-0.675,0.903-1.107
		c1.724-2.318,2.05-4.617,2.152-7.158h5.972c0.274,2.639,0.883,5.043,2.454,7.156c0.302,0.408,0.605,0.78,0.902,1.106
		c0.645,0.709,1.308,1.33,1.948,1.929c0.875,0.818,1.7,1.591,2.455,2.553c2.019,2.577,3.183,5.896,3.479,9.856
		c-3.58,0.599-3.587,1.508-3.587,1.949c0,0.036,0,0.076,0.002,0.118c-0.463,1.681-0.768,3.426-0.935,5.209
		c-2.925,0.457-6.646,0.74-9.756,0.74c-6.574,0-13.371-1.104-14.418-2.007v-4.035C32.943,36.171,34.29,31.969,36.735,28.848z
		 M29.991,98c-1.206,0-2.417-0.151-3.598-0.449c-4.954-1.25-8.838-4.908-10.389-9.784c-0.825-2.59-0.907-5.361-0.239-8.014
		c1.646-6.521,7.486-11.075,14.202-11.075c1.207,0,2.417,0.151,3.599,0.449c7.837,1.977,12.604,9.961,10.628,17.798
		C42.548,93.446,36.708,98,29.993,98C29.992,98,29.992,98,29.991,98z M47.329,93.6c-1.274,0-2.689-0.052-4.116-0.143
		c1.341-1.755,2.354-3.794,2.921-6.043c2.245-8.906-3.173-17.98-12.078-20.227c-0.368-0.093-0.739-0.17-1.112-0.238v-0.561
		c4.349,1.811,14.29,1.837,14.418,1.837c4.176,0,11.135-0.567,14.354-1.773v25.149C60.662,92.501,53.886,93.6,47.329,93.6z
		 M62.853,63.137c-1.214-1.818-2.17-3.944-2.84-6.319c-0.046-0.165-0.078-0.334-0.121-0.5c1.756,0.529,5.187,0.968,11.906,0.968
		c6.783,0,10.216-0.447,11.957-0.983c-0.044,0.17-0.077,0.345-0.125,0.514c-0.67,2.375-1.625,4.501-2.84,6.321
		c-1.191,1.79-2.574,3.191-4.109,4.167c-3.098,1.963-6.622,1.962-9.718,0C65.429,66.331,64.046,64.928,62.853,63.137z
		 M71.821,97.617c-4.122,0-7.063-0.321-8.729-0.653c1.523-0.303,4.127-0.595,7.712-0.643c0.163,0.329,0.495,0.561,0.888,0.561
		c0.394,0,0.727-0.233,0.89-0.563c3.718,0.037,6.409,0.335,7.969,0.646C78.884,97.296,75.943,97.617,71.821,97.617z"/>
</g>
</svg>
