<svg id="Calque_1" data-name="Calque 1" xmlns="http://www.w3.org/2000/svg" viewBox="0 0 300 300"><defs><style>.cls-1{fill:#1d1d1b;}</style></defs><title>picto_mayenne</title><path class="cls-1" d="M150,6.25A144,144,0,0,1,251.82,252.07,144,144,0,1,1,48.18,48.43,143,143,0,0,1,150,6.25m0-6a150,150,0,1,0,150,150A150,150,0,0,0,150,.25Z" transform="translate(0 -0.25)"/><path d="M151.65,231.88a27.68,27.68,0,0,1-8.16-1.22c-1.06-.33-2.1-.72-3.11-1.1-2.61-1-5.08-1.91-7.41-1.61a16.88,16.88,0,0,0-3.51,1.05,24.47,24.47,0,0,1-3.42,1.12c-7.18,1.67-13.79-2.25-19.54-7.12a7.66,7.66,0,0,1-1.37,1.55,12.19,12.19,0,0,1-11.36,2.08,38.39,38.39,0,0,1-6.34-3.07,28.1,28.1,0,0,0-6.63-3A21.82,21.82,0,0,0,77,220c-3-.23-6.32-.49-9.48-3.54-5.86-5.65-1.58-13.24,1.86-19.34a49,49,0,0,0,2.89-5.63l.91-2.28A115.24,115.24,0,0,0,77.81,176a2.5,2.5,0,0,1,2.08-1.85,20.81,20.81,0,0,1,5.83.24,27.76,27.76,0,0,0,3.14.31c1.88,0,4.08-.74,4.42-2.11a6.56,6.56,0,0,0-.38-2.82L78.56,116.16a2.51,2.51,0,0,1,2.86-3.11,2.48,2.48,0,0,0,1.94-.56,2.52,2.52,0,0,0,1-1.74,2.56,2.56,0,0,1,.88-1.74,2.52,2.52,0,0,1,1.86-.58c1.2.1,2.41-1.41,2.67-2.8.37-1.92-.23-4.07-.86-6.35L88.85,99a144.11,144.11,0,0,1-4.54-24.73c-.24-2.58.48-6.17,2.64-7.92a4.54,4.54,0,0,1,4.33-.83,6.72,6.72,0,0,1,3.45,3,9.37,9.37,0,0,0,.57.79,3.38,3.38,0,0,0,5.18-1c.1-.28.18-.59.26-.9.35-1.37.89-3.44,3-4.43,3.87-1.86,6,2,7,3.86.2.38.43.79.66,1.17l2-2a2.51,2.51,0,0,1,3.25-.24l18.18,13.46a5,5,0,0,0,1.66,1A.56.56,0,0,0,137,80c.88-.85,1.4-3.43,1.17-5.75a2.47,2.47,0,0,1,.7-2,4.66,4.66,0,0,1,3.4-1.41h0A7.19,7.19,0,0,1,147.18,73c.51.5.93,1,1.35,1.52a6.63,6.63,0,0,0,1.81,1.75c1.78.85,4.34-1.38,7-3.94a38.62,38.62,0,0,1,25.36-10.53,2.56,2.56,0,0,1,1.88.79,2.5,2.5,0,0,1,.67,1.93,4.07,4.07,0,0,0,7,3.28,4.2,4.2,0,0,0,1.34-3,2.5,2.5,0,0,1,3-2.48l5.57,1.07a24,24,0,0,0,2.32-4.85,2.38,2.38,0,0,1,.24-.51,6.49,6.49,0,0,1,6.5-3,10.14,10.14,0,0,1,8.14,6.38c1.26,3.66.68,7.29.11,10.8-.18,1.15-.36,2.25-.46,3.32-.16,1.63.07,2.26.29,2.5.51.55,1.91.11,4-.62,2.55-.9,5.73-2,8.65-.4,3.16,1.76,3.75,5.65,4,7.52.51,3.35,1.21,8-.72,12a9.77,9.77,0,0,1-6.5,5.16,7.68,7.68,0,0,1-3.12.09,58.71,58.71,0,0,0-2.26,29.37,2.5,2.5,0,0,1-1.41,2.71,35.2,35.2,0,0,0-13.19,10.63c3.38,6,3.86,13.21,4.26,19.08a2.56,2.56,0,0,1-.69,1.9,2.5,2.5,0,0,1-1.87.77c-3.29-.08-6.7-.16-9.55,1.07-2.23,1-4.41,3.29-4.08,5.72.2,1.49,1.31,2.95,2.48,4.5,1.46,1.94,3.13,4.14,3.45,7a2.5,2.5,0,0,1-.28,1.47c-1.5,2.76-4.7,4.3-9,4.33-.61,0-1.23,0-1.85,0a12,12,0,0,0-4.93.49,2.81,2.81,0,0,0-1.5,1.8c-.1.42,0,.55.06.59a4.67,4.67,0,0,0,1.29.74,9.64,9.64,0,0,1,2.45,1.45c3,2.59,2.59,7.21.52,10a12.63,12.63,0,0,1-3.74,3.25,19.77,19.77,0,0,1,4.08,5.87c1.52,3.6,1.53,8.64-1.9,11.8-4,3.65-10.1,2.85-16.68-2.08A28.85,28.85,0,0,1,151.65,231.88Zm-17.74-9a23.39,23.39,0,0,1,8.23,2c1,.37,1.91.72,2.84,1a23.86,23.86,0,0,0,24.19-6.69,2.51,2.51,0,0,1,3.49-.23c1.37,1.18,8.39,6.88,11.87,3.67,1.55-1.43,1.52-4.19.68-6.17-1.08-2.53-3.29-4.63-5.42-6.66a2.5,2.5,0,0,1,.66-4.08c1.83-.85,3.89-1.81,5-3.31.78-1.06.89-2.67.22-3.25a6.09,6.09,0,0,0-1.25-.68,8.33,8.33,0,0,1-3-2,5.53,5.53,0,0,1-1.16-5,7.84,7.84,0,0,1,4.39-5.29,16,16,0,0,1,7.06-.89l1.68,0a6.73,6.73,0,0,0,4.17-1.12,14.55,14.55,0,0,0-2.27-3.67c-1.44-1.9-3.07-4.05-3.45-6.84-.67-4.91,3-9.24,7.05-11a22.37,22.37,0,0,1,8.92-1.52c-.42-5.34-1.19-11-4.16-15.44a2.5,2.5,0,0,1,0-2.81,40.3,40.3,0,0,1,14.43-12.78,63.79,63.79,0,0,1,3.72-32.63,2.49,2.49,0,0,1,3.89-1,2.17,2.17,0,0,0,1.89.31,4.84,4.84,0,0,0,3.1-2.46c1.17-2.44.83-5.54.29-9.06h0c-.25-1.65-.63-3.4-1.52-3.89s-2.79.11-4.56.74c-2.77,1-6.56,2.31-9.33-.72-1.8-2-1.77-4.57-1.59-6.37.12-1.23.32-2.45.51-3.63.48-3,.94-5.9.09-8.37a5.11,5.11,0,0,0-4-3,1.61,1.61,0,0,0-1.56.46,28.75,28.75,0,0,1-3.78,7.14,2.51,2.51,0,0,1-2.49,1l-4.72-.91a9.47,9.47,0,0,1-2.35,3.64,8.8,8.8,0,0,1-13.1-.51,9.49,9.49,0,0,1-2.1-3.92,33.49,33.49,0,0,0-19.72,9c-3,2.89-7.59,7.25-12.63,4.83a10.5,10.5,0,0,1-3.5-3.07c-.35-.43-.69-.83-1-1.16a3.18,3.18,0,0,0-.47-.37c-.12,2.66-.87,5.62-2.72,7.43a5.58,5.58,0,0,1-4.68,1.55,8.55,8.55,0,0,1-4-1.9L115.34,71.05l-2.29,2.28a2.51,2.51,0,0,1-3,.4c-1.82-1-2.88-3-3.73-4.54-.17-.32-.39-.72-.6-1.07,0,.17-.09.34-.13.49-.12.44-.23.89-.38,1.3a8.31,8.31,0,0,1-13.71,2.55c-.34-.39-.62-.81-.88-1.17a9.15,9.15,0,0,0-.67-.9,5.93,5.93,0,0,0-.65,3.38,139.39,139.39,0,0,0,4.38,23.88l.08.29c.72,2.61,1.54,5.56,1,8.63a8.48,8.48,0,0,1-5.83,6.67,7.8,7.8,0,0,1-2.44,3.2,8.23,8.23,0,0,1-2.29,1.24l13.59,50.75a10.48,10.48,0,0,1,.4,5.31c-1,4.16-5.57,6-9.36,5.91a31.07,31.07,0,0,1-3.72-.36,28.11,28.11,0,0,0-2.89-.3c-1.22,4.16-2.81,8.17-4.36,12.07l-.9,2.28a52.77,52.77,0,0,1-3.19,6.25c-3.51,6.23-5.6,10.52-2.74,13.29,1.87,1.8,3.77,1.94,6.4,2.14a26.84,26.84,0,0,1,4.69.67,32.43,32.43,0,0,1,7.82,3.52,34.77,34.77,0,0,0,5.53,2.7,7.19,7.19,0,0,0,6.43-1.13,1.88,1.88,0,0,0,.78-1.92,2.5,2.5,0,0,1,4.16-2.32c5.74,5.37,11.91,10.15,18.13,8.71a21.89,21.89,0,0,0,2.77-.92,20.27,20.27,0,0,1,4.65-1.34A12.3,12.3,0,0,1,133.91,222.89Zm-5.86-44.5c-5,0-12.63-2.5-15.17-5.8-2.86-3.74-4.79-9.9-2.64-15.26a4.57,4.57,0,0,1,3.22-2.62c2.92-.84,7.66-.12,9.94,1.53a4.23,4.23,0,0,1,1.56,4.63,2.54,2.54,0,0,0,.33,2.23c1.19,1.88,1.91,2.05,1.91,2.05.49-.23,2.19-3,2.25-9.25,0-1.29.12-2.59.22-3.84.34-4.09.44-6.8-1-8.2-2.75,0-3.69.77-4,1.1a1.22,1.22,0,0,0-.3.74,2.5,2.5,0,0,1-3.25,2.81c-.31,0-.89,0-1.33.07-3,.19-8.51.55-9-3.72a2.55,2.55,0,0,1,.09-1c1-3.24,1.09-14.93.61-20.14-.29-3.58-.26-7.94.32-9.53,1-2.92,4.9-2.61,8.31-2.34.72.06,1.4.11,1.82.11a4.23,4.23,0,0,0,.61-.11c.4-.08.82-.16,1.26-.21.12,0,11.8-1.14,16.95.72,3.7,1.25,2.92,4.86,2.58,6.4a10.24,10.24,0,0,0-.31,2.13,3.36,3.36,0,0,1-1,3.85,2.51,2.51,0,0,1-1.84.75h-.13c-3.7-.07-10.1-.2-14.71-.24-.14,1.88-.21,4.58-.19,6.71l.1-.06c2-1.11,3.92-1.82,9.53-.92a11.62,11.62,0,0,1,6.46,4.19c4.82,5.4,4.64,20.93,3.76,26.21-.15.89-.27,1.71-.39,2.49-.89,6-1.48,10-8.5,12.94a30.68,30.68,0,0,1-6.23,1.47l-.3.05h-.12A11.12,11.12,0,0,1,128.05,178.39Zm-13.29-18.87c-1.14,3.3.15,7.5,2.09,10,1.39,1.82,8.3,4.23,12,3.81l.25,0a24.69,24.69,0,0,0,5-1.08l.1,0c4.48-1.89,4.71-3.41,5.55-9.09.12-.79.24-1.64.39-2.56v0c1-6.07.25-18.92-2.58-22.09a7.2,7.2,0,0,0-3.48-2.54c-4.37-.7-5.25-.23-6.37.38a11.35,11.35,0,0,1-4.55,1.47,2.5,2.5,0,0,1-2.77-2.14c-.28-2.09-.23-10.87.41-13.48a2.49,2.49,0,0,1,2.42-1.91c3.91,0,10.35.12,14.86.21a16,16,0,0,1,.41-2.75c.06-.24.12-.52.16-.77-3.39-.92-10.82-.67-14.29-.32-.25,0-.5.09-.74.14a7.88,7.88,0,0,1-1.64.21c-.62,0-1.4-.06-2.22-.13s-2.36-.18-3.31-.14a41.84,41.84,0,0,0,.06,6.61c.37,4,.51,14.94-.44,20.37a24.58,24.58,0,0,0,3.47,0l.31,0a6.14,6.14,0,0,1,1.12-1.88c1.72-2,4.64-2.94,8.7-2.82a2.48,2.48,0,0,1,1.29.4c4.57,3,4.13,8.4,3.74,13.2-.1,1.22-.2,2.38-.21,3.49-.07,7.72-2.3,13-6,14-1.51.44-4.48.47-7.42-4.17a7.45,7.45,0,0,1-1-5.75A9.48,9.48,0,0,0,114.76,159.52Zm5.74.78h0ZM120.23,148Zm0,0h0ZM143,121Zm21.14,57.1a15.77,15.77,0,0,1-5.18-.79c-.69-.23-1.39-.41-2.06-.58-2.27-.56-4.85-1.2-6.71-4.36-2.79-4.61-3.09-12-3.09-15a2.53,2.53,0,0,1,.66-1.69c3.19-3.46,10.34-1.74,12.45-1.13a2.5,2.5,0,0,1,1.8,2.59,21.15,21.15,0,0,0,.56,6.52,6.88,6.88,0,0,0,2,.64,11.51,11.51,0,0,0,3.11-5.7c.31-2.67-.14-6.24-1.88-8a4.65,4.65,0,0,0-4-1.18,2.52,2.52,0,0,1-1.74-.5c-4.58-3.46-2.67-8.43-2-10.14.94-2.65,3.65-2.8,5.11-2.88a6.62,6.62,0,0,0,1.2-.13c1.39-.8,2.39-4.4,2.3-8.53a18,18,0,0,0-.18-2.56,2.51,2.51,0,0,0-1.19-.62,2.54,2.54,0,0,0-1.81.18,10.11,10.11,0,0,0-1,2c-.19.47-.37.92-.55,1.29,0,.09.06.2.08.3a4.07,4.07,0,0,1-.62,4,2.54,2.54,0,0,1-1.67.89c-9.23,1-10.91-.56-11.46-1.06a3,3,0,0,1-1-2.27c0-5.11,3.2-13,7.49-15.8,6.47-4.17,16.1-3.49,21.49,1.51,4.67,4.41,6.07,11.85,5.39,17.28-.57,3.67-.81,4.84-2.62,8l-.08.13a7.35,7.35,0,0,1-1.93,1.71l-.54.39c.47.56,1.12,1.24,1.58,1.72a13.78,13.78,0,0,1,3.2,4.25c1.26,3.69,1,10.07.57,13.26,0,0,0,0,0,.06-.88,6.17-3.34,10.26-8.22,13.66A17.39,17.39,0,0,1,164.17,178.06Zm-12-19.34c.13,3.87.8,8.45,2.37,11.05.77,1.31,1.53,1.55,3.62,2.07.74.19,1.58.4,2.48.71,3.18,1.11,8.14.3,10.15-1.11,3.11-2.16,5.33-4.73,6.13-10.24.43-3.66.43-8.77-.33-11a16.5,16.5,0,0,0-2.1-2.45c-1.84-1.93-3.44-3.6-3.44-5.56s1.59-3,3.12-4.07c.23-.17.55-.39.74-.54,1.22-2.14,1.35-2.74,1.84-5.89.49-4-.49-9.77-3.85-12.94s-10.3-4.22-15.34-1c-2.19,1.45-4.58,6.35-5.12,10.15a33.41,33.41,0,0,0,4.6,0,4.47,4.47,0,0,1,.47-2.57c.14-.28.27-.63.43-1,.59-1.49,1.33-3.34,2.83-4.32a7.41,7.41,0,0,1,5.77-.86,7,7,0,0,1,4.39,3c.52.86.79,2.53.79,5,.06,3-.28,10.32-4.89,13a7.46,7.46,0,0,1-3.34.74c-.26,0-.6,0-.86.06-.72,2-.53,2.89-.12,3.43h.07a9.27,9.27,0,0,1,6.84,2.72c3.08,3.16,3.7,8.35,3.25,12.16-.51,3.49-3.59,9.11-6.82,9.91-2.12.56-6.46-.86-7.52-2.84h0c-1-1.81-1.27-5-1.31-7.39A13.46,13.46,0,0,0,152.15,158.72Zm12.33,5.61Zm0,0Zm2.09-39.56Z" transform="translate(0 -0.25)"/></svg>