<svg id="Calque_1" data-name="Calque 1" xmlns="http://www.w3.org/2000/svg" viewBox="0 0 100 98.96"><title>09_a_FRESH PRODUCTS BIO</title><path d="M60.23,27H27a.61.61,0,0,0-.13,0c-.33-2.23-.53-4.25-.72-6.14A45.56,45.56,0,0,0,24.72,12C23.4,7.64,20.05-.39,16.74.6l-2.64.79c-1.36.41-2,2.13-1.95,5.1a34.56,34.56,0,0,0,1.57,8.83,45,45,0,0,0,3.66,8.2c.93,1.76,1.92,3.64,2.9,5.8L1.65,36.82c-1.54.62-1.73,1.41-1.63,2S.6,40,2.22,40H4.53l8.06,42.35C13,84.53,15.35,86,17.34,86H28a1,1,0,0,0,.25,0L31.4,98.72a1,1,0,0,0,1,.76h9.31a1,1,0,0,0,.88-.52l4.7-8.62h3.35L55.2,99a1,1,0,0,0,.88.53h9.31a1,1,0,0,0,.88-.52L71,90.34H74.6L79.19,99a1,1,0,0,0,.88.53h9.31a1,1,0,0,0,1-.76L96,76.23h3a1,1,0,0,0,0-2H94.69C94.34,66.32,90,60,84.68,60a7.15,7.15,0,0,0-3.3.86c-1.84-4.21-5-6.78-8.37-6.78s-6.62,2.64-8.45,7a6.82,6.82,0,0,0-7.24,0c-.13-.31-.27-.62-.42-.92l2.92-27.94c.75-.36.53-.22,2.26-1.08S64.66,27,60.23,27ZM92.69,74.23h-16c.23-5,2.14-9.17,4.8-11.08l.11-.09a5.46,5.46,0,0,1,3.09-1C88.91,62,92.38,67.43,92.69,74.23ZM73,56.12c2.68,0,5.2,2.26,6.7,5.94-2.84,2.47-4.8,7-5,12.17H71c-.22-5-2.06-9.38-4.73-11.9C67.7,58.49,70.26,56.12,73,56.12ZM64.35,63.3a.31.31,0,0,0,.11.09c2.5,2,4.27,6.07,4.49,10.84h-16c.22-4.76,2-8.81,4.47-10.82l.13-.11a5.23,5.23,0,0,1,6.81,0ZM50.94,74.23H47.2C47,69,45,64.53,42.18,62.06a13.92,13.92,0,0,1,1.2-2.31,1.14,1.14,0,0,0,.31-.47c1.44-2,3.27-3.16,5.18-3.16,2.76,0,5.32,2.37,6.8,6.21C53,64.85,51.16,69.21,50.94,74.23ZM26.38,56.81a1.26,1.26,0,0,0,.28,0,1,1,0,0,0,1-.72,7.6,7.6,0,0,0,.24-1.31c3.12-.11,5.44.5,6.9,1.81A5.57,5.57,0,0,1,36.5,60.1c-3.73.39-6.89,3.87-8.39,8.76a12.46,12.46,0,0,1-1.5.1h0a11.2,11.2,0,0,1-7.92-3,6.5,6.5,0,0,1-2.06-4.64,6.18,6.18,0,0,1,1.79-4.64c1.54-1.41,4.05-2,7.46-1.82a4.17,4.17,0,0,1-.14.72A1,1,0,0,0,26.38,56.81ZM29.82,70a.43.43,0,0,0,0-.05C31.07,65.32,33.91,62,37.2,62a5.36,5.36,0,0,1,3.09,1,.83.83,0,0,0,.15.11c2.65,1.93,4.54,6.11,4.77,11.06h-16A20.53,20.53,0,0,1,29.82,70ZM55.17,57.45a8.24,8.24,0,0,0-6.3-3.33,7.65,7.65,0,0,0-5,2l.71-16.85a17.34,17.34,0,0,0,2-.77l11.11-5.28Zm3.31-26.81-12.73,6A14.32,14.32,0,0,1,40.83,38H29.48L29,36.31A67.08,67.08,0,0,1,27.2,29H61a.22.22,0,0,1,.18.37M15.63,14.87C13.66,8.29,14,4,14.68,3.55L17.3,3h0c.85,0,3.53,3.29,5.49,9.84a41.34,41.34,0,0,1,1.36,8.24A75.5,75.5,0,0,0,27,36.89L27.38,38H25.61l-.18-.61a75,75,0,0,0-6.28-14.75A43.38,43.38,0,0,1,15.63,14.87Zm5.46,16.28a67.62,67.62,0,0,1,2.42,6.78l0,.07H4.07ZM17.34,84a2.94,2.94,0,0,1-2.79-2l-8-42H40.83a9.3,9.3,0,0,0,1.75-.2l-.8,18.74a16,16,0,0,0-1.27,2.36,7.51,7.51,0,0,0-2-.71,7.69,7.69,0,0,0-2.44-5c-1.85-1.66-4.62-2.43-8.25-2.32a12.61,12.61,0,0,0-.22-1.5,8.83,8.83,0,0,0,3.18.67h0a5.51,5.51,0,0,0,1.93-.33c2.89-1.07,4.1-4.62,4.15-4.77a1,1,0,0,0-.43-1.18,9.59,9.59,0,0,0-4.34-1.23,5.51,5.51,0,0,0-1.93.33,7.22,7.22,0,0,0-3.58,3.48,7,7,0,0,0-.69-1.1,2.35,2.35,0,0,0-2-1.07,1,1,0,0,0-1,1.06,1,1,0,0,0,1,.93c.57.21,1.58,2.47,1.84,4.74-3.92-.2-6.89.58-8.82,2.35a8,8,0,0,0-2.44,6.11,8.58,8.58,0,0,0,2.65,6.06A13.19,13.19,0,0,0,26.57,71h0c.33,0,.65,0,1,0a22,22,0,0,0-.39,3.31H21.94a1,1,0,1,0,0,2h3.9L27.76,84ZM28.28,49.42a5.45,5.45,0,0,1,2.61-2.73,3.41,3.41,0,0,1,1.23-.21,6.94,6.94,0,0,1,2.53.57A5.5,5.5,0,0,1,32,49.79a3.69,3.69,0,0,1-1.23.2A6.7,6.7,0,0,1,28.28,49.42ZM88.6,97.48H80.67l-4.59-8.62a1,1,0,0,0-.88-.52H70.37a1,1,0,0,0-.87.52l-4.7,8.62H56.68l-4.59-8.61a1,1,0,0,0-.88-.53H46.67a1,1,0,0,0-.88.52l-4.71,8.62H33.16L27.9,76.23H94Z" transform="translate(0 -0.52)"/></svg>