<?xml version="1.0" encoding="utf-8"?>
<!-- Generator: Adobe Illustrator 16.0.0, SVG Export Plug-In . SVG Version: 6.00 Build 0)  -->
<!DOCTYPE svg PUBLIC "-//W3C//DTD SVG 1.1//EN" "http://www.w3.org/Graphics/SVG/1.1/DTD/svg11.dtd">
<svg version="1.1" xmlns="http://www.w3.org/2000/svg" xmlns:xlink="http://www.w3.org/1999/xlink" x="0px" y="0px" width="100px"
	 height="100px" viewBox="0 0 100 100" enable-background="new 0 0 100 100" xml:space="preserve">
<g id="Calque_2">
</g>
<g id="Calque_1">
	<path d="M92.099,66.444c-4.353-2.011-9.041-2.246-13.221-2.41c-0.155-2.491-0.621-4.953-1.705-7.22
		c-2.108-4.387-9.55-6.344-14.548-6.021c0.313-1.062,0.529-2.159,0.565-3.286c0.095-3.143-1.361-4.546-3.048-6.17
		c-0.242-0.233-0.493-0.474-0.75-0.731c-0.248-0.248-0.482-0.492-0.709-0.727c-1.186-1.232-2.303-2.405-4.162-2.865
		c-0.156-0.04-0.332-0.061-0.499-0.089c-0.146-0.024-0.279-0.059-0.434-0.075c-0.343-0.036-0.707-0.052-1.101-0.041
		c-1.123,0.036-2.22,0.253-3.281,0.566c0.322-4.999-1.639-12.442-6.023-14.546c-2.266-1.085-4.728-1.551-7.218-1.706
		c-0.163-4.178-0.396-8.864-2.408-13.219c-1.922-4.159-6.247-8.211-11.674-7.886c-4.657,0.286-9.161,3.862-11.475,9.109
		C8.424,13.633,8.187,18.635,8,23.08c-1.717,0.379-3.311,1.017-4.661,2.222c-2.304,2.063-3.396,5.308-3.337,9.92
		c0.094,7.31,2.437,16.336,5.726,22.176c-1.466,0.877-2.87,1.96-3.908,3.423c-2.258,3.185-2.385,7.817-0.326,11.803
		c1.863,3.605,5.222,6.87,8.47,10.027c1.321,1.285,2.57,2.499,3.651,3.676c0.01,0.011,0.023,0.014,0.033,0.024
		c0.011,0.011,0.015,0.025,0.026,0.036c1.178,1.082,2.393,2.331,3.678,3.653c3.157,3.248,6.422,6.606,10.027,8.468
		c1.887,0.976,3.919,1.461,5.875,1.461c2.171,0,4.248-0.598,5.925-1.784c1.466-1.041,2.549-2.445,3.425-3.91
		c5.847,3.292,14.874,5.634,22.176,5.723c0.12,0.001,0.24,0.002,0.359,0.002c4.42,0,7.55-1.096,9.558-3.344
		c1.204-1.346,1.843-2.938,2.223-4.655c4.44-0.185,9.439-0.423,13.954-2.41c5.247-2.315,8.822-6.819,9.108-11.476
		C100.308,72.72,96.257,68.365,92.099,66.444z M12.239,9.934c1.651-3.745,5.312-7.646,9.767-7.919c4.49-0.254,8.1,3.186,9.735,6.729
		c1.829,3.957,2.058,8.195,2.221,12.317c-2.049-0.006-4.087,0.144-6.022,0.289l-15.836,1.193c-0.705,0.052-1.4,0.116-2.087,0.199
		C10.201,18.41,10.462,13.968,12.239,9.934z M2.002,35.196c-0.051-4.001,0.823-6.75,2.669-8.403
		c1.914-1.706,4.679-2.041,7.583-2.257l15.835-1.193c4.678-0.35,9.979-0.747,14.23,1.29c3.692,1.772,5.404,9.192,4.808,13.479
		c-0.895,0.363-1.76,0.761-2.584,1.143L9.277,55.583c-0.573,0.265-1.18,0.549-1.796,0.855C4.335,50.869,2.092,42.215,2.002,35.196z
		 M38.022,96.552c-3.141,2.22-7.2,1.485-9.725,0.178c-3.317-1.713-6.467-4.953-9.513-8.085c-1.295-1.332-2.519-2.589-3.728-3.703
		c-1.112-1.208-2.369-2.432-3.701-3.726c-3.133-3.046-6.373-6.196-8.086-9.511c-1.307-2.527-2.043-6.592,0.18-9.728
		c1.577-2.223,4.399-3.53,6.667-4.58l35.267-16.328c2.206-1.022,4.708-2.182,7.166-2.26c0.276-0.007,0.53,0.002,0.771,0.023
		c0.219,0.021,0.425,0.054,0.618,0.099c0.003,0,0.007,0.001,0.01,0.001c1.223,0.291,2.005,1.063,3.093,2.163
		c0.301,0.303,0.614,0.62,0.956,0.944c0,0,0.001,0,0.001,0.001c0.259,0.258,0.513,0.503,0.757,0.738
		c1.562,1.504,2.505,2.412,2.437,4.667c-0.08,2.471-1.238,4.969-2.261,7.173c-5.045,10.9-10.095,21.803-15.143,32.704l-1.187,2.56
		C41.555,92.149,40.252,94.97,38.022,96.552z M73.205,95.324c-1.654,1.852-4.401,2.731-8.401,2.674
		c-7.012-0.085-15.665-2.328-21.241-5.479c0.307-0.616,0.59-1.223,0.854-1.796l1.186-2.56c5.049-10.9,10.099-21.803,15.143-32.703
		c0.383-0.825,0.78-1.689,1.144-2.585c4.278-0.602,11.705,1.109,13.48,4.804c2.033,4.25,1.639,9.551,1.291,14.227l-1.195,15.841
		C75.247,90.651,74.91,93.417,73.205,95.324z M97.985,77.994c-0.274,4.455-4.175,8.116-7.918,9.767
		c-4.034,1.775-8.651,2.046-12.809,2.224c0.083-0.686,0.147-1.382,0.2-2.087l1.195-15.841c0.145-1.935,0.293-3.972,0.287-6.018
		c4.124,0.164,8.364,0.395,12.318,2.221C94.801,69.896,98.255,73.541,97.985,77.994z M20.773,58.381
		c0.217,0.508-0.02,1.096-0.528,1.312c-5.212,2.222-9.714,4.14-10.126,6.76c-0.308,1.953,1.525,4.625,5.604,8.168
		c0.417,0.362,0.462,0.994,0.1,1.411c-0.197,0.228-0.476,0.344-0.755,0.344c-0.233,0-0.467-0.081-0.655-0.245
		c-4.771-4.144-6.705-7.224-6.27-9.989c0.585-3.714,5.321-5.733,11.318-8.289C19.966,57.637,20.557,57.873,20.773,58.381z
		 M94.918,78.499c0,0.552-0.447,1-1,1s-1-0.448-1-1c0-2.484-4.64-6.757-8.006-7.374c-0.544-0.099-0.903-0.62-0.804-1.164
		c0.099-0.543,0.621-0.902,1.163-0.803C89.306,69.896,94.918,74.741,94.918,78.499z M13.351,16.503c0-2.935,3.351-11.42,9.746-11.42
		c0.553,0,1,0.448,1,1s-0.447,1-1,1c-4.914,0-7.746,7.149-7.746,9.42c0,0.552-0.447,1-1,1S13.351,17.056,13.351,16.503z
		 M31.774,25.966c0-0.552,0.447-1,1-1c6.92,0,10.145,6.055,10.145,10.147c0,0.552-0.447,1-1,1s-1-0.448-1-1
		c0-2.552-2.051-8.147-8.145-8.147C32.222,26.966,31.774,26.519,31.774,25.966z M74.82,65.631c0,0.552-0.447,1-1,1s-1-0.448-1-1
		c0-4.929-2.717-7.815-8.074-8.581c-0.547-0.078-0.927-0.584-0.849-1.131s0.583-0.924,1.132-0.849
		C73.548,56.287,74.82,62.209,74.82,65.631z"/>
</g>
</svg>
