<?xml version="1.0" encoding="utf-8"?>
<!-- Generator: Adobe Illustrator 16.0.0, SVG Export Plug-In . SVG Version: 6.00 Build 0)  -->
<!DOCTYPE svg PUBLIC "-//W3C//DTD SVG 1.1//EN" "http://www.w3.org/Graphics/SVG/1.1/DTD/svg11.dtd">
<svg version="1.1" xmlns="http://www.w3.org/2000/svg" xmlns:xlink="http://www.w3.org/1999/xlink" x="0px" y="0px" width="100px"
	 height="100px" viewBox="0 0 100 100" enable-background="new 0 0 100 100" xml:space="preserve">
<g id="Calque_1">
</g>
<g id="Calque_2">
	<path d="M25.301,57.263c0.26-0.436,0.822-0.577,1.258-0.315c0.436,0.257,0.578,0.821,0.318,1.256
		c-0.26,0.438-0.824,0.578-1.26,0.319C25.186,58.261,25.041,57.695,25.301,57.263z M29.141,52.61
		c0.438,0.259,1.002,0.116,1.262-0.317s0.115-0.999-0.316-1.258c-0.436-0.261-1-0.122-1.26,0.318
		C28.568,51.786,28.707,52.354,29.141,52.61z M23.351,64.115c0.26-0.436,0.116-1-0.319-1.258c-0.433-0.262-0.997-0.119-1.26,0.32
		c-0.257,0.432-0.113,0.996,0.322,1.256C22.526,64.691,23.086,64.549,23.351,64.115z M20.65,53.418
		c-0.438-0.262-1.003-0.118-1.261,0.32c-0.26,0.436-0.118,0.994,0.317,1.252c0.436,0.263,1,0.118,1.258-0.316
		C21.226,54.242,21.084,53.676,20.65,53.418z M23.234,49.086c0.437,0.255,0.999,0.114,1.26-0.317
		c0.26-0.439,0.115-0.999-0.316-1.263c-0.436-0.257-0.999-0.113-1.26,0.318C22.658,48.261,22.802,48.824,23.234,49.086z
		 M17.121,59.329c-0.435-0.26-1-0.118-1.257,0.315c-0.26,0.436-0.116,1.001,0.319,1.26c0.432,0.259,0.997,0.121,1.255-0.319
		C17.695,60.152,17.555,59.586,17.121,59.329z M14.739,49.89c-0.435-0.259-0.999-0.116-1.259,0.32
		c-0.26,0.433-0.116,0.997,0.317,1.26c0.433,0.256,0.997,0.114,1.26-0.319C15.315,50.714,15.174,50.151,14.739,49.89z M18.264,43.98
		c-0.435-0.26-0.996-0.117-1.254,0.316c-0.265,0.439-0.118,1,0.314,1.26c0.435,0.26,0.998,0.119,1.259-0.318
		C18.843,44.803,18.7,44.24,18.264,43.98z M11.21,55.8c-0.434-0.26-0.996-0.121-1.259,0.319c-0.257,0.435-0.113,0.998,0.319,1.256
		c0.435,0.261,0.997,0.12,1.258-0.314C11.789,56.624,11.645,56.063,11.21,55.8z M8.828,46.365c-0.437-0.26-0.997-0.119-1.258,0.316
		c-0.26,0.435-0.119,0.999,0.317,1.259c0.436,0.26,0.999,0.116,1.26-0.318C9.405,47.186,9.262,46.622,8.828,46.365z M59.395,76.539
		c-0.434-0.262-0.996-0.119-1.258,0.316c-0.26,0.439-0.117,1.004,0.318,1.258c0.435,0.266,0.996,0.121,1.256-0.316
		C59.971,77.363,59.827,76.799,59.395,76.539z M61.661,70.947c-0.257,0.439-0.116,1.004,0.32,1.258
		c0.437,0.262,0.997,0.119,1.257-0.316c0.261-0.434,0.121-0.998-0.316-1.26C62.486,70.373,61.924,70.516,61.661,70.947z
		 M55.866,82.453c-0.436-0.26-1-0.115-1.257,0.316c-0.259,0.434-0.119,1,0.314,1.262c0.436,0.256,1.002,0.117,1.26-0.322
		C56.444,83.277,56.301,82.709,55.866,82.453z M64.364,81.645c0.436,0.262,0.996,0.121,1.256-0.32
		c0.264-0.43,0.119-0.994-0.316-1.258c-0.434-0.254-0.998-0.113-1.26,0.32C63.784,80.82,63.931,81.387,64.364,81.645z
		 M67.893,75.732c0.438,0.26,0.998,0.117,1.256-0.316c0.258-0.436,0.119-0.998-0.314-1.258c-0.436-0.262-1.002-0.119-1.258,0.318
		C67.313,74.912,67.458,75.475,67.893,75.732z M61.78,85.977c-0.438-0.26-1-0.113-1.26,0.322s-0.116,0.994,0.316,1.258
		c0.436,0.256,1,0.115,1.261-0.318C62.355,86.803,62.211,86.238,61.78,85.977z M70.275,85.172c0.436,0.26,1,0.117,1.26-0.318
		c0.256-0.434,0.115-0.998-0.318-1.258c-0.432-0.26-1.002-0.117-1.26,0.316C69.697,84.352,69.842,84.914,70.275,85.172z
		 M73.804,79.262c0.432,0.26,0.996,0.117,1.254-0.316c0.26-0.436,0.119-1-0.314-1.26c-0.436-0.258-1-0.119-1.258,0.316
		C73.226,78.438,73.366,79.002,73.804,79.262z M66.749,91.086c0.434,0.256,0.999,0.115,1.259-0.32
		c0.262-0.438,0.115-1.002-0.32-1.258c-0.433-0.264-0.997-0.117-1.257,0.314C66.171,90.258,66.312,90.824,66.749,91.086z
		 M76.185,88.699c0.436,0.262,0.998,0.119,1.258-0.316c0.258-0.439,0.117-0.998-0.316-1.26c-0.434-0.26-0.998-0.119-1.26,0.318
		C75.606,87.877,75.749,88.441,76.185,88.699z M88.808,31.065l-17.083,4.826c-0.002,0-0.002,0.001-0.002,0.001
		c-0.002,0-0.002,0-0.002,0l-26.634,7.521c-0.003,0.001-0.006,0.004-0.009,0.005c-0.005,0.001-0.01,0.001-0.014,0.002l-8.81,2.487
		l41.26,24.626c3.526,2.102,6.018,5.451,7.023,9.43c0.998,3.953,0.406,8.057-1.664,11.564c-0.012,0.023-0.025,0.047-0.039,0.07
		c-2.759,4.623-7.818,7.494-13.204,7.494c-2.761,0-5.479-0.752-7.861-2.176l-15.234-9.092c-0.005-0.002-0.011-0.004-0.016-0.006
		c-0.004-0.002-0.005-0.006-0.009-0.008L22.772,73.645c-0.009-0.006-0.019-0.008-0.027-0.012c-0.006-0.004-0.009-0.01-0.015-0.014
		L7.496,64.527c-3.523-2.1-6.018-5.447-7.022-9.428c-0.995-3.94-0.409-8.031,1.648-11.531c0.016-0.038,0.034-0.074,0.056-0.109
		c1.609-2.694,4.007-4.787,6.791-6.068c-2.137-8.078,2.599-16.438,10.667-18.718L80.459,1.495c3.948-1.118,8.097-0.627,11.677,1.377
		c3.564,1.995,6.143,5.253,7.268,9.177c0.006,0.019,0.012,0.037,0.018,0.056C101.719,20.259,96.96,28.764,88.808,31.065z
		 M70.217,34.239L62.953,8.517l-24.722,6.982l7.265,25.722L70.217,34.239z M8.521,62.811l14.394,8.59l13.694-22.953L22.22,39.859
		c-2.072-1.235-4.434-1.888-6.832-1.888c-4.652,0-9.024,2.457-11.437,6.421c-0.016,0.035-0.034,0.069-0.054,0.103
		c-1.831,3.063-2.358,6.655-1.484,10.116C3.286,58.072,5.456,60.983,8.521,62.811z M38.326,49.473L24.631,72.424l22.057,13.162
		l13.695-22.949L38.326,49.473z M76.489,72.25l-14.388-8.588L48.404,86.611l14.391,8.588c2.071,1.238,4.435,1.893,6.836,1.893
		c4.659,0,9.038-2.471,11.449-6.455c0.012-0.023,0.023-0.045,0.037-0.066c1.829-3.064,2.354-6.658,1.481-10.117
		C81.727,76.992,79.557,74.078,76.489,72.25z M33.893,44.499l9.679-2.735l-7.264-25.722l-16.129,4.556
		c-6.947,1.964-11.05,9.11-9.326,16.071c1.454-0.451,2.979-0.696,4.535-0.696c2.758,0,5.476,0.749,7.857,2.17L33.893,44.499z
		 M97.509,12.698c-0.006-0.017-0.01-0.034-0.016-0.052c-0.971-3.435-3.219-6.286-6.334-8.029c-3.115-1.742-6.723-2.169-10.157-1.198
		L64.876,7.974l7.265,25.723l16.124-4.556C95.339,27.145,99.478,19.776,97.509,12.698z M35.575,29.184
		c-0.488,0.137-0.772,0.643-0.634,1.131c0.136,0.486,0.646,0.769,1.134,0.636c0.485-0.139,0.77-0.646,0.631-1.135
		C36.57,29.326,36.062,29.044,35.575,29.184z M33.705,22.561c-0.489,0.136-0.776,0.642-0.634,1.134
		c0.137,0.486,0.644,0.772,1.129,0.633c0.49-0.139,0.774-0.646,0.635-1.135C34.7,22.705,34.19,22.424,33.705,22.561z M38.577,36.439
		c-0.137-0.487-0.646-0.769-1.132-0.632c-0.488,0.137-0.771,0.642-0.633,1.134c0.137,0.484,0.644,0.768,1.134,0.631
		C38.432,37.435,38.714,36.93,38.577,36.439z M28.951,31.051c-0.49,0.139-0.774,0.647-0.634,1.137
		c0.139,0.488,0.643,0.768,1.13,0.632c0.488-0.136,0.772-0.648,0.634-1.132C29.944,31.2,29.436,30.913,28.951,31.051z M27.08,24.43
		c-0.486,0.139-0.768,0.646-0.633,1.134c0.139,0.486,0.645,0.77,1.133,0.639c0.484-0.146,0.769-0.65,0.635-1.136
		C28.072,24.576,27.566,24.295,27.08,24.43z M30.82,37.677c-0.486,0.139-0.773,0.646-0.635,1.13
		c0.139,0.488,0.647,0.773,1.134,0.635c0.487-0.136,0.774-0.641,0.631-1.133C31.814,37.825,31.305,37.539,30.82,37.677z
		 M22.327,32.921c-0.486,0.14-0.771,0.648-0.632,1.137c0.137,0.486,0.644,0.769,1.133,0.635c0.483-0.138,0.771-0.646,0.633-1.135
		C23.322,33.07,22.817,32.787,22.327,32.921z M20.457,26.3c-0.489,0.139-0.771,0.644-0.634,1.131
		c0.137,0.492,0.646,0.771,1.133,0.636c0.487-0.139,0.773-0.644,0.633-1.132C21.451,26.446,20.945,26.163,20.457,26.3z
		 M15.703,30.994c-0.486,0.139-0.77,0.643-0.631,1.131c0.137,0.488,0.645,0.773,1.13,0.635c0.49-0.139,0.771-0.646,0.635-1.133
		C16.698,31.138,16.19,30.854,15.703,30.994z M72.375,18.789c-0.49,0.136-0.773,0.644-0.635,1.131
		c0.139,0.488,0.646,0.775,1.133,0.635c0.489-0.134,0.772-0.643,0.63-1.132C73.368,18.938,72.861,18.652,72.375,18.789z
		 M70.502,12.167c-0.484,0.14-0.768,0.644-0.635,1.132c0.141,0.489,0.648,0.773,1.135,0.633c0.488-0.138,0.771-0.644,0.631-1.131
		C71.498,12.313,70.992,12.028,70.502,12.167z M74.245,25.415c-0.488,0.137-0.773,0.645-0.635,1.131
		c0.137,0.485,0.646,0.771,1.135,0.638c0.486-0.141,0.771-0.647,0.631-1.136C75.239,25.562,74.729,25.276,74.245,25.415z
		 M78.995,16.921c-0.484,0.139-0.768,0.644-0.631,1.133c0.135,0.485,0.645,0.77,1.132,0.633c0.49-0.138,0.771-0.643,0.631-1.133
		C79.996,17.067,79.484,16.782,78.995,16.921z M77.126,10.296c-0.488,0.136-0.775,0.646-0.633,1.132
		c0.137,0.489,0.646,0.772,1.131,0.634c0.49-0.138,0.771-0.645,0.635-1.13C78.118,10.444,77.612,10.158,77.126,10.296z
		 M80.869,23.542c-0.488,0.139-0.77,0.646-0.633,1.137c0.137,0.486,0.645,0.768,1.135,0.633c0.481-0.142,0.769-0.647,0.63-1.134
		C81.864,23.692,81.355,23.408,80.869,23.542z M85.622,15.049c-0.486,0.135-0.773,0.647-0.635,1.135s0.646,0.771,1.133,0.631
		c0.486-0.135,0.771-0.644,0.633-1.132C86.616,15.196,86.108,14.911,85.622,15.049z M83.751,8.426
		c-0.486,0.14-0.771,0.645-0.633,1.13c0.137,0.489,0.643,0.774,1.133,0.636c0.486-0.136,0.77-0.644,0.631-1.131
		C84.745,8.573,84.237,8.288,83.751,8.426z M87.493,21.677c-0.49,0.133-0.773,0.643-0.635,1.13c0.137,0.487,0.646,0.773,1.135,0.634
		c0.486-0.139,0.771-0.645,0.633-1.134C88.487,21.816,87.979,21.533,87.493,21.677z M92.247,13.177
		c-0.489,0.139-0.772,0.646-0.636,1.136c0.137,0.487,0.647,0.77,1.134,0.631c0.488-0.136,0.771-0.644,0.633-1.131
		C93.239,13.326,92.733,13.043,92.247,13.177z"/>
</g>
</svg>
