<?xml version="1.0" encoding="utf-8"?>
<!-- Generator: Adobe Illustrator 16.0.0, SVG Export Plug-In . SVG Version: 6.00 Build 0)  -->
<!DOCTYPE svg PUBLIC "-//W3C//DTD SVG 1.1//EN" "http://www.w3.org/Graphics/SVG/1.1/DTD/svg11.dtd">
<svg version="1.1" xmlns="http://www.w3.org/2000/svg" xmlns:xlink="http://www.w3.org/1999/xlink" x="0px" y="0px" width="100px"
	 height="100px" viewBox="0 0 100 100" enable-background="new 0 0 100 100" xml:space="preserve">
<g id="Calque_2">
</g>
<g id="Calque_1">
	<path d="M94.073,48.884c0.57-0.312,1.247-0.424,1.563-0.424c1.76,0,4.365-1.125,4.365-3.538c0-2.41-2.603-3.536-4.363-3.539
		c0,0-0.001,0-0.001,0c-0.522,0-2.366-0.369-2.366-1.539c0-1.171,1.844-1.54,2.366-1.54c1.76,0,4.365-1.125,4.365-3.54
		c0-2.413-2.604-3.537-4.365-3.537c-0.521,0-2.365-0.369-2.365-1.539c0-0.291,0.083-0.723,0.803-1.115
		c0.57-0.312,1.247-0.424,1.563-0.424c0.597,0,1.615-0.175,2.519-0.667c1.19-0.648,1.846-1.668,1.845-2.871
		c0-0.833-0.317-1.589-0.917-2.188c-1.07-1.068-2.715-1.349-3.44-1.349c-0.002,0-0.005,0-0.007,0
		c-20.829,0-27.95,6.586-33.672,11.878c-3.603,3.332-6.448,5.964-11.963,5.964c-5.516,0-8.362-2.632-11.964-5.964
		C32.313,27.66,25.192,21.073,4.367,21.073c-0.002,0-0.005,0-0.007,0c-0.728,0-2.372,0.281-3.442,1.349
		c-0.601,0.599-0.917,1.357-0.917,2.188C0,25.813,0.656,26.833,1.846,27.482c0.904,0.492,1.922,0.667,2.518,0.667
		c0.522,0.001,2.367,0.372,2.367,1.54c0,1.171-1.844,1.54-2.365,1.54c0,0-0.001,0-0.002,0c-0.726,0-2.376,0.282-3.447,1.352
		C0.317,33.179,0,33.935,0,34.766c0,2.414,2.604,3.539,4.365,3.539c0.521,0,2.365,0.369,2.365,1.54c0,1.17-1.844,1.539-2.365,1.539
		c-0.597,0-1.615,0.175-2.52,0.668C0.655,42.7,0,43.719,0,44.921c0,2.41,2.604,3.537,4.366,3.54c0.001,0,0.001,0,0.002,0
		c0.511,0,1.508,0.243,2.031,0.766C6.625,49.452,6.73,49.698,6.73,50S6.625,50.548,6.4,50.773c-0.523,0.523-1.521,0.766-2.034,0.766
		c-0.001,0-0.001,0-0.002,0C2.604,51.542,0,52.668,0,55.077c0,0.833,0.317,1.589,0.917,2.188c1.071,1.069,2.719,1.351,3.445,1.351
		c0,0,0.001,0,0.001,0c0.522,0.001,2.367,0.372,2.367,1.54c0,1.17-1.844,1.539-2.365,1.539c-1.76,0-4.365,1.125-4.365,3.54
		c0,0.833,0.317,1.589,0.918,2.189c1.071,1.067,2.715,1.349,3.442,1.349c0.001,0,0.003,0,0.004,0c0.521,0,2.365,0.369,2.365,1.54
		c0,0.185,0,0.677-0.802,1.115c-0.57,0.311-1.247,0.423-1.563,0.423c-0.597,0-1.615,0.175-2.52,0.668
		C0.655,73.167,0,74.187,0,75.389c0,0.833,0.317,1.59,0.917,2.189c1.07,1.067,2.715,1.349,3.439,1.349c0.002,0,0.005,0,0.007,0
		c20.828,0,27.949-6.587,33.671-11.879c3.603-3.333,6.449-5.964,11.964-5.964c5.515,0,8.361,2.632,11.963,5.964
		c5.722,5.292,12.843,11.879,33.669,11.879c0.002,0,0.004,0,0.007,0c0.728,0,2.373-0.281,3.443-1.349
		C99.683,76.979,100,76.222,100,75.39c0-2.414-2.604-3.539-4.363-3.539c-0.522-0.001-2.367-0.372-2.367-1.54
		c0-1.17,1.844-1.539,2.365-1.539c1.76,0,4.365-1.125,4.365-3.539c0-2.412-2.604-3.538-4.366-3.54c0,0-0.001,0-0.001,0
		c-0.511,0-1.51-0.243-2.033-0.767c-0.225-0.225-0.33-0.47-0.33-0.771c0-1.17,1.844-1.539,2.365-1.539c0,0,0.001,0,0.001,0
		c1.76-0.003,4.364-1.13,4.363-3.54c0-2.413-2.604-3.537-4.365-3.537c-0.315,0-0.992-0.113-1.563-0.424
		C93.27,50.677,93.27,50.186,93.27,50v0v0C93.27,49.709,93.353,49.277,94.073,48.884z M95.635,53.54
		c0.521,0,2.365,0.368,2.365,1.538c0,1.168-1.844,1.539-2.366,1.54h0c-1.76,0.001-4.363,1.125-4.363,3.538
		c0,0.832,0.316,1.588,0.916,2.187c1.071,1.07,2.722,1.352,3.446,1.352c0.001,0,0.002,0,0.003,0c0.521,0,2.366,0.371,2.366,1.54
		c0,1.17-1.843,1.539-2.365,1.539c-1.76,0-4.365,1.125-4.365,3.538c0,2.411,2.604,3.538,4.365,3.541
		c0.521,0,2.365,0.369,2.365,1.539c0,0.302-0.105,0.547-0.33,0.772c-0.524,0.522-1.518,0.765-2.031,0.765c-0.001,0-0.002,0-0.004,0
		c-20.045,0-26.848-6.292-32.314-11.348c-3.768-3.485-7.023-6.496-13.321-6.496c-6.298,0-9.553,3.01-13.322,6.496
		c-5.466,5.056-12.269,11.348-32.316,11.348c-0.539,0.003-1.507-0.241-2.032-0.765C2.105,75.938,2,75.692,2,75.389
		c0-0.291,0.083-0.723,0.803-1.116c0.57-0.311,1.246-0.424,1.562-0.424c0.598,0,1.616-0.175,2.52-0.667
		c1.19-0.648,1.846-1.668,1.845-2.872c0-2.414-2.605-3.539-4.365-3.539c-0.003,0-0.005,0-0.007,0c-0.51,0-1.503-0.242-2.027-0.765
		C2.105,65.782,2,65.536,2,65.234c0-1.171,1.843-1.54,2.365-1.54c1.76,0,4.365-1.125,4.365-3.539c0-2.41-2.604-3.537-4.364-3.54
		H4.365c-0.001,0-0.003,0-0.004,0c-0.511,0-1.507-0.243-2.031-0.766C2.104,55.625,2,55.379,2,55.077
		c0-1.167,1.844-1.538,2.363-1.539c0.001,0,0.003,0,0.004,0c0.727,0,2.375-0.282,3.445-1.35C8.413,51.589,8.73,50.833,8.73,50v0v0
		c0-0.833-0.317-1.589-0.917-2.188c-1.07-1.068-2.719-1.35-3.442-1.35c-0.001,0-0.003,0-0.004,0C3.844,46.46,2,46.09,2,44.921
		c0-0.185,0-0.676,0.803-1.114c0.571-0.311,1.247-0.424,1.562-0.424c1.76,0,4.365-1.125,4.365-3.539c0-2.415-2.605-3.54-4.365-3.54
		C3.843,36.305,2,35.936,2,34.766c0-0.302,0.104-0.547,0.33-0.771c0.523-0.523,1.521-0.767,2.033-0.767c0.001,0,0.001,0,0.002,0
		c1.76,0,4.365-1.125,4.365-3.539c0-2.411-2.604-3.538-4.365-3.541c-0.315,0-0.992-0.113-1.562-0.423
		c-0.802-0.437-0.801-0.928-0.801-1.115c0-0.302,0.104-0.548,0.33-0.773c0.523-0.522,1.517-0.764,2.029-0.764
		c0.001,0,0.002,0,0.004,0c20.044,0,26.847,6.292,32.313,11.347c3.769,3.485,7.023,6.496,13.322,6.496
		c6.298,0,9.553-3.01,13.321-6.496c5.466-5.055,12.269-11.347,32.316-11.347c0.001,0,0.003,0,0.004,0
		c0.51,0,1.504,0.242,2.028,0.765c0.225,0.225,0.33,0.47,0.33,0.773c0,0.185,0,0.677-0.802,1.115
		c-0.57,0.311-1.247,0.423-1.562,0.423c-0.597,0-1.616,0.175-2.52,0.668c-1.19,0.649-1.846,1.669-1.845,2.872
		c0,2.414,2.605,3.538,4.365,3.538c0.521,0,2.365,0.368,2.365,1.537c0,1.171-1.843,1.54-2.365,1.54c-1.761,0-4.366,1.125-4.366,3.54
		c0.001,2.413,2.604,3.537,4.364,3.538h0C96.156,43.384,98,43.754,98,44.921c0,1.17-1.843,1.539-2.365,1.539
		c-0.597,0-1.616,0.175-2.52,0.668c-1.19,0.649-1.845,1.668-1.845,2.871v0v0v0v0c0,1.202,0.655,2.221,1.845,2.87
		C94.02,53.365,95.038,53.54,95.635,53.54z M51,50c0,0.589,2.1,2.583,8.59,4.992c5.425,2.013,11.277,3.313,14.91,3.313
		c0.552,0,1,0.448,1,1s-0.448,1-1,1c-3.851,0-9.977-1.35-15.606-3.438c-3.344-1.241-7.158-2.963-8.914-4.846
		c-3.93,4.143-18.293,8.284-24.48,8.284c-0.552,0-1-0.448-1-1s0.448-1,1-1C34.165,58.305,49,52.179,49,50
		c0-2.18-14.835-8.307-23.5-8.307c-0.552,0-1-0.448-1-1s0.448-1,1-1c6.188,0,20.552,4.143,24.481,8.285
		c1.755-1.882,5.57-3.604,8.914-4.845c5.629-2.089,11.755-3.438,15.606-3.438c0.552,0,1,0.448,1,1s-0.448,1-1,1
		c-3.633,0-9.485,1.301-14.91,3.313C53.1,47.417,51,49.411,51,50z"/>
</g>
</svg>
