<?xml version="1.0" encoding="utf-8"?>
<!-- Generator: Adobe Illustrator 16.0.0, SVG Export Plug-In . SVG Version: 6.00 Build 0)  -->
<!DOCTYPE svg PUBLIC "-//W3C//DTD SVG 1.1//EN" "http://www.w3.org/Graphics/SVG/1.1/DTD/svg11.dtd">
<svg version="1.1" xmlns="http://www.w3.org/2000/svg" xmlns:xlink="http://www.w3.org/1999/xlink" x="0px" y="0px" width="100px"
	 height="100px" viewBox="0 0 100 100" enable-background="new 0 0 100 100" xml:space="preserve">
<g id="Calque_1">
</g>
<g id="Calque_2">
	<path d="M72.84,12.407v3.984c0,0.552-0.448,1-1,1s-1-0.448-1-1v-3.984c0-0.552,0.448-1,1-1S72.84,11.855,72.84,12.407z
		 M89.665,3.685V90.12c0,3.43-5.234,5.168-15.557,5.168c-2.179,0-4.166-0.088-5.937-0.254c-0.78,0.844-1.624,1.605-2.536,2.26
		c-0.462,0.869-2.203,1.487-7.363,2.019C53.978,99.756,48.275,100,42.216,100s-11.762-0.244-16.057-0.687
		c-5.161-0.532-6.901-1.15-7.363-2.019c-5.305-3.809-8.459-11.006-8.459-19.343c0-8.299,3.248-15.718,8.488-19.476
		c0.381-0.67,1.408-1.063,2.912-1.375v-1.675c0-1.15,1.021-1.84,6.603-2.416c3.711-0.382,8.64-0.593,13.877-0.593
		s10.165,0.211,13.876,0.593c0.949,0.098,1.756,0.199,2.458,0.306l0.017-49.632v0C58.57,0.178,71.52,0,74.116,0
		S89.665,0.178,89.665,3.685z M87.665,5.711c-3.739,1.556-11.589,1.658-13.548,1.658c-1.959,0-9.812-0.102-13.549-1.658
		l-0.005,16.197c0.729,0.661,5.357,1.857,13.555,1.857c8.18,0,12.804-1.19,13.548-1.853V5.711z M60.817,3.685
		c1.255,0.677,5.774,1.685,13.299,1.685c7.524,0,12.043-1.008,13.298-1.685C86.16,3.008,81.641,2,74.116,2
		C66.591,2,62.072,3.008,60.817,3.685z M60.695,57.935v-0.826c-0.999,0.273-2.464,0.511-4.603,0.731
		c-3.712,0.382-8.641,0.593-13.876,0.593c-5.236,0-10.164-0.211-13.877-0.593c-2.139-0.221-3.604-0.458-4.603-0.731v0.82
		c0,0.485-0.349,0.901-0.827,0.985c-0.387,0.068-0.715,0.134-0.992,0.197c2.999,0.654,10.193,1.32,20.299,1.32
		c10.093,0,17.283-0.665,20.287-1.318c-0.274-0.061-0.599-0.125-0.981-0.193C61.043,58.835,60.695,58.42,60.695,57.935z
		 M25.371,55.426c2.879,0.516,8.807,1.008,16.845,1.008c8.038,0,13.965-0.492,16.844-1.008c-2.878-0.517-8.806-1.008-16.844-1.008
		C34.177,54.417,28.25,54.909,25.371,55.426z M13.921,68.608c1.864,1,12.17,2.285,28.294,2.285c16.124,0,26.43-1.284,28.293-2.285
		c-1.247-3.421-3.184-6.276-5.641-8.189c-0.937,0.489-2.818,0.935-6.596,1.324c-4.295,0.443-9.998,0.687-16.057,0.687
		c-6.06,0-11.762-0.244-16.057-0.687c-3.778-0.389-5.66-0.835-6.597-1.324C17.105,62.332,15.168,65.187,13.921,68.608z
		 M72.095,77.951c0-2.609-0.346-5.114-0.979-7.424c-1.284,0.526-3.656,1.023-8.018,1.473c-5.583,0.576-12.999,0.893-20.881,0.893
		S26.917,72.576,21.333,72c-4.362-0.45-6.734-0.947-8.018-1.473c-0.633,2.31-0.979,4.815-0.979,7.424
		c0,7.711,3.02,14.569,7.881,17.897c0.152,0.104,0.27,0.246,0.344,0.409C21.891,97.009,29.887,98,42.216,98
		c12.328,0,20.324-0.991,21.653-1.742c0.075-0.163,0.192-0.305,0.344-0.409C69.075,92.521,72.095,85.663,72.095,77.951z
		 M87.665,90.12V24.107c-3.739,1.556-11.589,1.658-13.548,1.658c-1.96,0-9.82-0.102-13.556-1.661l-0.01,29.601
		c1.728,0.447,2.144,0.992,2.144,1.722v1.68c1.541,0.317,2.55,0.703,2.919,1.375c5.236,3.76,8.48,11.175,8.48,19.47
		c0,5.908-1.59,11.236-4.4,15.199c1.36,0.09,2.832,0.139,4.414,0.139C83.473,93.289,87.665,91.697,87.665,90.12z"/>
</g>
</svg>
