<?xml version="1.0" encoding="utf-8"?>
<!-- Generator: Adobe Illustrator 16.0.0, SVG Export Plug-In . SVG Version: 6.00 Build 0)  -->
<!DOCTYPE svg PUBLIC "-//W3C//DTD SVG 1.1//EN" "http://www.w3.org/Graphics/SVG/1.1/DTD/svg11.dtd">
<svg version="1.1" xmlns="http://www.w3.org/2000/svg" xmlns:xlink="http://www.w3.org/1999/xlink" x="0px" y="0px" width="100px"
	 height="100px" viewBox="0 0 100 100" enable-background="new 0 0 100 100" xml:space="preserve">
<g id="Calque_2">
</g>
<g id="Calque_1">
	<path d="M92.096,10.842C86.722,4.556,79.222,0.739,70.978,0.096c-12.141-0.945-23.21,5.283-29.046,15.113L35.772,2.286
		c-0.051-0.107-0.125-0.193-0.205-0.272c-0.024-0.132-0.051-0.265-0.111-0.391c-1.114-2.337-8.18,0.008-14.27,2.567l-0.638-1.336
		l0,0c0,0,0,0,0,0l0,0c0,0,0,0,0,0c-0.213-0.447-0.726-0.979-1.959-0.979c-1.05,0-2.464,0.386-3.879,1.061
		c-2.206,1.053-4.509,2.857-3.743,4.48c0,0.001,0,0.002,0.001,0.003l0.638,1.337c-5.8,3.106-12.041,7.098-10.991,9.438
		c0.004,0.01,0.003,0.02,0.007,0.029l31.025,65.105c0.32,0.673,1.146,0.949,2.287,0.949c4.121,0,12.335-3.599,15.681-5.146
		c0.262,0.082,0.533,0.134,0.808,0.178c-0.81,0.963-1.357,2.261-1.466,3.713c-0.237,3.168,1.68,5.905,4.274,6.102l0.327,0.024
		c-0.61,0.961-1.028,2.24-1.134,3.684c-0.246,3.273,1.128,5.863,3.201,6.024l15.246,1.139c0.061,0.005,0.123,0.007,0.184,0.007
		c1.974,0,3.641-2.355,3.876-5.48c0.109-1.461-0.105-2.783-0.559-3.816l0.314,0.023c0.098,0.008,0.196,0.011,0.293,0.011h0
		c2.489,0,4.614-2.375,4.838-5.405c0.108-1.448-0.237-2.802-0.887-3.868c2.96-0.042,5.44-2.363,5.662-5.33
		c0.191-2.59-1.369-4.913-3.674-5.803c0.674-0.828,1.106-1.846,1.192-2.943l0.178-2.304c0.996-3.126,3.359-5.646,6.091-8.561
		c1.177-1.256,2.395-2.555,3.638-4.033c3.444-4.101,6.174-10.499,7.131-16.736c0.037-0.258,0.073-0.519,0.104-0.764l0.051-0.377
		c0.048-0.417,0.095-0.829,0.122-1.236C100.073,25.131,97.469,17.129,92.096,10.842z M34.528,4.323l6.228,13.068
		c-1.196,2.443-2.086,5.07-2.608,7.841c-2.737,1.786-6.316,3.758-10.15,5.584c-8.829,4.208-15.249,5.9-16.526,5.519L3.278,19.144
		c4.768-0.222,14.185-4.573,16.46-5.658c4.458-2.125,8.521-4.406,11.443-6.424C32.712,6.004,33.801,5.11,34.528,4.323z
		 M19.595,5.498l0.18,0.377c0,0.001,0,0.003,0.001,0.004c0.001,0.002,0.003,0.003,0.003,0.005l0.546,1.145
		c-0.21,0.371-1.12,1.229-2.714,1.99c-1.595,0.759-2.833,0.926-3.254,0.856l-0.734-1.54c0.942-0.123,2.058-0.468,3.184-1.004
		C17.918,6.803,18.903,6.152,19.595,5.498z M15.571,4.74c1.199-0.572,2.205-0.814,2.818-0.859c-0.414,0.434-1.23,1.068-2.443,1.645
		c-1.199,0.572-2.203,0.814-2.818,0.86C13.543,5.953,14.359,5.318,15.571,4.74z M12.469,10.563l0.165,0.346
		c0.222,0.466,0.742,0.978,1.958,0.978c0.195,0,0.409-0.013,0.642-0.042c0.955-0.118,2.104-0.48,3.237-1.019
		c2.209-1.053,4.514-2.858,3.742-4.483l-0.164-0.344c6.495-2.714,10.114-3.42,11.36-3.393c-1.082,1.477-6.299,5.151-14.531,9.075
		c-8.233,3.923-14.358,5.665-16.202,5.57C3.426,16.257,6.265,13.899,12.469,10.563z M33.378,82.309L12.397,38.28
		c4.769-0.22,14.185-4.573,16.46-5.657c3.263-1.555,6.35-3.217,8.918-4.791c-0.025,0.246-0.057,0.49-0.077,0.738
		c-0.03,0.419-0.056,0.842-0.061,1.184c-0.008,0.087-0.01,0.172-0.011,0.257l-0.019,0.983c-0.02,6.285,1.686,13.026,4.451,17.592
		c1,1.658,2.002,3.133,2.972,4.561c2.244,3.302,4.185,6.158,4.681,9.4l-0.18,2.29c-0.088,1.124,0.191,2.219,0.75,3.153
		c-2.511,0.474-4.479,2.6-4.676,5.228c-0.115,1.54,0.377,3.032,1.385,4.2c0.154,0.178,0.333,0.324,0.504,0.48
		C39.297,81.579,34.414,82.587,33.378,82.309z M72.938,94.37c-0.17,2.249-1.21,3.63-1.882,3.63l-15.277-1.14
		c-0.669-0.052-1.531-1.59-1.359-3.881c0.164-2.211,1.219-3.623,1.914-3.626l15.26,1.142C72.259,90.562,73.107,92.091,72.938,94.37z
		 M77.825,85.183c-0.149,2.027-1.523,3.664-2.989,3.55l-3.065-0.229c-0.014-0.001-0.027-0.005-0.041-0.006l-15.245-1.138
		c-0.003,0-0.005,0-0.008,0l-3.094-0.231c-1.495-0.113-2.585-1.889-2.43-3.958c0.147-1.959,1.421-3.553,2.84-3.553
		c0.049,0,0.098,0.002,0.148,0.006l17.142,1.282l4.32,0.324C76.894,81.347,77.979,83.117,77.825,85.183z M82.6,75.986
		c-0.154,2.049-1.966,3.621-4.034,3.475l-3.002-0.226c-0.006,0-0.011-0.002-0.017-0.002l-4.776-0.357l-19.702-1.478
		c-0.997-0.072-1.906-0.529-2.561-1.287c-0.659-0.764-0.98-1.738-0.905-2.744c0.146-1.952,1.79-3.481,3.742-3.481
		c0.096,0,0.192,0.004,0.29,0.011l27.496,2.058C81.196,72.108,82.752,73.917,82.6,75.986z M97.433,33.234
		c-0.025,0.388-0.069,0.766-0.114,1.156l-0.045,0.333c-0.032,0.252-0.067,0.503-0.104,0.768c-0.899,5.856-3.459,11.878-6.68,15.714
		c-1.209,1.437-2.407,2.715-3.566,3.951c-2.932,3.128-5.464,5.828-6.576,9.444c-0.022,0.07-0.036,0.144-0.042,0.217l-0.187,2.416
		c-0.088,1.125-0.749,2.121-1.735,2.66L52.95,67.989c-0.97-0.673-1.516-1.812-1.423-2.996l0.189-2.402
		c0.006-0.073,0.003-0.146-0.007-0.22c-0.535-3.745-2.614-6.806-5.022-10.349c-0.955-1.406-1.942-2.858-2.915-4.472
		c-2.587-4.271-4.182-10.612-4.163-16.544l0.009-0.735c0.006-0.078,0.008-0.153,0.009-0.229l0.008-0.177
		c0.008-0.378,0.032-0.767,0.06-1.146C40.943,12.791,54.911,0.84,70.822,2.09c7.711,0.602,14.727,4.171,19.753,10.052
		C95.602,18.022,98.038,25.508,97.433,33.234z M94.01,31.132c0.077,0.547-0.305,1.052-0.852,1.129
		c-0.047,0.007-0.094,0.01-0.14,0.01c-0.491,0-0.919-0.361-0.989-0.861c-1.362-9.729-7.773-18.292-16.73-22.347
		c-0.503-0.228-0.726-0.82-0.499-1.324c0.228-0.504,0.821-0.727,1.324-0.499C85.701,11.577,92.554,20.731,94.01,31.132z
		 M29.578,19.48c0.093,0.199,0.134,0.39,0.122,0.573c-0.013,0.181-0.065,0.352-0.156,0.507c-0.093,0.157-0.219,0.297-0.375,0.424
		c-0.157,0.124-0.333,0.23-0.524,0.323l-3.089,1.474l1.427,2.989c0.074,0.154,0.134,0.328,0.183,0.514
		c0.049,0.189,0.068,0.374,0.056,0.556c-0.014,0.184-0.071,0.355-0.18,0.52c-0.108,0.164-0.274,0.299-0.503,0.408
		c-0.396,0.189-0.75,0.191-1.062,0.004c-0.31-0.185-0.566-0.49-0.768-0.918l-1.426-2.992l-3.079,1.47
		c-0.161,0.075-0.338,0.138-0.525,0.188c-0.19,0.051-0.373,0.069-0.556,0.055c-0.184-0.01-0.355-0.069-0.519-0.174
		c-0.16-0.103-0.295-0.268-0.405-0.497c-0.091-0.193-0.131-0.376-0.12-0.552c0.01-0.179,0.062-0.34,0.149-0.498
		c0.087-0.155,0.209-0.295,0.364-0.424c0.157-0.127,0.338-0.241,0.544-0.34l3.078-1.467l-1.43-3.002
		c-0.073-0.154-0.137-0.325-0.189-0.513c-0.053-0.185-0.074-0.37-0.061-0.55c0.012-0.184,0.07-0.359,0.177-0.527
		c0.106-0.167,0.275-0.305,0.512-0.419c0.206-0.099,0.398-0.143,0.58-0.129c0.185,0.013,0.355,0.068,0.512,0.162
		c0.158,0.098,0.3,0.223,0.425,0.383c0.125,0.155,0.231,0.325,0.318,0.508l1.43,3.004l3.091-1.472
		c0.152-0.074,0.324-0.135,0.514-0.185c0.189-0.051,0.374-0.066,0.556-0.055c0.185,0.013,0.356,0.069,0.522,0.171
		C29.337,19.1,29.472,19.26,29.578,19.48z"/>
</g>
</svg>
