<?xml version="1.0" encoding="utf-8"?>
<!-- Generator: Adobe Illustrator 16.0.0, SVG Export Plug-In . SVG Version: 6.00 Build 0)  -->
<!DOCTYPE svg PUBLIC "-//W3C//DTD SVG 1.1//EN" "http://www.w3.org/Graphics/SVG/1.1/DTD/svg11.dtd">
<svg version="1.1" xmlns="http://www.w3.org/2000/svg" xmlns:xlink="http://www.w3.org/1999/xlink" x="0px" y="0px" width="100px"
	 height="100px" viewBox="0 0 100 100" enable-background="new 0 0 100 100" xml:space="preserve">
<g id="Titres">
</g>
<g id="Calque_1">
	<path d="M71.771,28.768c-0.009-0.567-0.018-1.802-0.026-3.044c-0.009-1.327-0.019-2.655-0.028-3.172
		c-0.08-4.426-1.64-7.104-4.279-7.346c-2.473-0.219-4.015,1.778-5.382,3.545c-1.071,1.385-2.083,2.692-3.38,3.015
		c-0.445,0.109-0.95,0.101-1.483,0.097l-0.404-0.004c-5.081,0.001-8.752,0.002-11.797,5.361c-0.046,0.086-0.984,1.934-0.681,4.275
		c-7.178,3.041-12.99,7.859-16.302,13.897c-1.002,1.829-2.539,2.921-4.11,2.921c-0.729,0-1.438-0.229-2.108-0.679l-1.431-0.963
		c-6.905-4.651-13.427-9.044-19.007-11.146c-0.279-0.106-0.591-0.081-0.85,0.068c-0.259,0.147-0.438,0.404-0.489,0.698
		c-0.228,1.329,4.091,14.287,8.065,18.999c0.354,0.421,0.702,0.775,1.045,1.065c-0.344,0.291-0.692,0.646-1.046,1.065
		c-3.974,4.713-8.292,17.667-8.064,18.995c0.052,0.306,0.242,0.567,0.514,0.714c0.272,0.145,0.596,0.158,0.878,0.031
		c5.243-2.335,11.437-6.816,17.993-11.563l1.811-1.31c0.706-0.51,1.457-0.768,2.232-0.768c1.641,0,3.217,1.17,4.216,3.13
		c5.624,11.031,19.326,18.158,34.909,18.158c6.832,0,13.236-1.404,18.755-3.844c0.129-0.03,0.255-0.077,0.369-0.161
		c10.957-4.97,18.313-14.067,18.313-24.449C100.004,43.076,87.978,31.894,71.771,28.768z M46.745,28.179
		c2.355-4.144,4.78-4.318,10.042-4.319l0.379,0.003c0.608,0.009,1.294,0.017,1.988-0.154c1.975-0.49,3.307-2.214,4.483-3.733
		c1.397-1.806,2.333-2.903,3.617-2.776c2.199,0.201,2.441,4.176,2.462,5.39c0.01,0.515,0.019,1.832,0.028,3.149
		c0.007,1.021,0.014,2.039,0.021,2.691c-2.331-0.347-4.736-0.533-7.198-0.533c-5.785,0-11.334,1.006-16.313,2.833
		C46.21,29.284,46.746,28.179,46.745,28.179z M62.567,82.811c-14.61,0-27.923-6.858-33.127-17.066
		c-1.348-2.644-3.59-4.222-5.999-4.222c-1.188,0-2.364,0.396-3.403,1.146l-1.812,1.311c-5.724,4.144-11.167,8.082-15.846,10.493
		c1.41-4.915,6.312-17.116,9.08-17.116c0.552,0,1-0.447,1-1s-0.448-1.001-1-1.001c-2.795,0-7.767-12.443-9.12-17.261
		c4.999,2.22,10.798,6.125,16.9,10.236l1.433,0.964c0.992,0.666,2.107,1.019,3.224,1.019c2.313,0,4.506-1.48,5.864-3.959
		c5.484-9.998,18.362-16.459,32.806-16.459c5.387,0,10.493,0.906,15.069,2.519c-3.014,7.611-5.504,35.297,1.945,47.141
		C74.528,81.628,68.73,82.811,62.567,82.811z M81.439,78.731c-7.246-10.992-4.796-38.594-1.934-45.611
		c11.012,4.494,18.499,13.225,18.499,23.236C98.004,65.768,91.382,74.04,81.439,78.731z M87.913,50.865
		c0,1.49-1.209,2.699-2.701,2.699c-1.491,0-2.702-1.209-2.702-2.699c0-1.493,1.211-2.702,2.702-2.702
		C86.704,48.163,87.913,49.372,87.913,50.865z M64.819,53.94c-0.058,0.511-0.491,0.888-0.992,0.888
		c-0.038,0-0.076-0.002-0.114-0.007l-10.316-1.169c-0.548-0.062-0.943-0.557-0.881-1.105c0.063-0.549,0.559-0.951,1.107-0.881
		l10.316,1.169C64.487,52.896,64.881,53.392,64.819,53.94z M64.811,58.549c0.095,0.544-0.269,1.063-0.813,1.158l-10.316,1.807
		c-0.058,0.01-0.116,0.015-0.173,0.015c-0.477,0-0.899-0.342-0.984-0.827c-0.095-0.544,0.269-1.063,0.813-1.158l10.316-1.807
		C64.196,57.645,64.715,58.006,64.811,58.549z M51.867,45.345c-1.384-0.164-2.446,0.585-2.862,1.991
		c-0.856,2.884-0.866,8.769-0.866,9.018s0.01,6.136,0.866,9.02c0.379,1.279,1.289,2.013,2.497,2.013c0,0,0,0,0,0
		c0.119,0,0.24-0.007,0.364-0.021c3.465-0.399,17.498-3.843,19.088-5.875c1.579-2.015,1.579-8.253,0-10.27
		C69.363,49.187,55.331,45.744,51.867,45.345z M69.39,60.245c-1.117,1.188-13.537,4.645-17.753,5.132
		c-0.227,0.024-0.499,0.156-0.714-0.572c-0.773-2.606-0.783-8.394-0.783-8.451s0.009-5.84,0.783-8.449
		c0.173-0.581,0.408-0.581,0.58-0.581c0.044,0,0.089,0.003,0.135,0.008c4.214,0.487,16.635,3.943,17.743,5.121
		C70.38,53.729,70.38,58.98,69.39,60.245z M25.237,53.669c0,0.553-0.448,1-1,1c-3.367,0-9.165-1.731-11.315-3.882
		c-0.391-0.391-0.391-1.023,0-1.414s1.023-0.391,1.414,0c1.745,1.744,6.99,3.296,9.901,3.296
		C24.79,52.669,25.237,53.116,25.237,53.669z M25.237,57.498c0,0.553-0.448,1-1,1c-2.911,0-8.157,1.552-9.901,3.296
		c-0.195,0.195-0.451,0.293-0.707,0.293s-0.512-0.098-0.707-0.293c-0.391-0.391-0.391-1.023,0-1.414
		c2.151-2.15,7.949-3.882,11.315-3.882C24.79,56.498,25.237,56.945,25.237,57.498z M51.339,77.063
		c-0.148,0.406-0.531,0.658-0.94,0.658c-0.114,0-0.229-0.02-0.342-0.061c-9.851-3.582-13.766-8.792-15.647-11.297
		c-0.186-0.248-0.355-0.473-0.511-0.671c-0.341-0.435-0.266-1.063,0.169-1.404c0.434-0.343,1.062-0.267,1.404,0.168
		c0.163,0.208,0.341,0.444,0.537,0.705c1.901,2.531,5.439,7.24,14.731,10.619C51.26,75.969,51.527,76.542,51.339,77.063z"/>
</g>
</svg>
