<?xml version="1.0" encoding="utf-8"?>
<!-- Generator: Adobe Illustrator 16.0.0, SVG Export Plug-In . SVG Version: 6.00 Build 0)  -->
<!DOCTYPE svg PUBLIC "-//W3C//DTD SVG 1.1//EN" "http://www.w3.org/Graphics/SVG/1.1/DTD/svg11.dtd">
<svg version="1.1" xmlns="http://www.w3.org/2000/svg" xmlns:xlink="http://www.w3.org/1999/xlink" x="0px" y="0px" width="100px"
	 height="100px" viewBox="0 0 100 100" enable-background="new 0 0 100 100" xml:space="preserve">
<g id="Calque_2">
</g>
<g id="v2">
	<path d="M77.405,84.139c0.47-3.836,0.556-7.765,0.556-15.104c0-9.004-0.776-15.534-1.894-20.889
		c0.001-0.026,0.009-0.051,0.009-0.077c0-0.163-0.048-0.311-0.118-0.447c-0.957-4.427-2.145-8.055-3.317-11.622
		c-2.407-7.326-4.679-14.275-4.806-27.581h0.139c0.552,0,1-0.448,1-1s-0.448-1-1-1h-0.284V1c0-0.552-0.448-1-1-1H56.419
		c-0.552,0-1,0.448-1,1v5.418h-0.284c-0.552,0-1,0.448-1,1s0.448,1,1,1h0.726c-0.082,8.529-1.042,14.452-2.359,19.525
		C51.653,21.356,48.256,15.397,45.537,12c0.199-0.183,0.328-0.439,0.328-0.73c0-0.552-0.448-1-1-1h-0.284V3.567c0-0.552-0.448-1-1-1
		H33.31c-0.552,0-1,0.448-1,1v6.702h-0.283c-0.552,0-1,0.448-1,1c0,0.29,0.127,0.545,0.324,0.728
		c-4.283,5.276-9.312,15.669-9.312,24.945v49.1c0,7.563,4.499,10.948,8.957,10.948h15.193c1.102,0,2.18-0.219,3.171-0.636
		c1.138,2.148,2.728,3.645,5.038,3.645c3.294,0,4.421-1.627,5.244-2.815c0.648-0.936,1.005-1.451,2.206-1.451
		s1.558,0.516,2.207,1.451c0.823,1.188,1.95,2.815,5.244,2.815c4.621,0,6.361-5.986,7.361-11.201
		c0.319-1.664,0.56-3.146,0.743-4.641c0-0.004,0.002-0.007,0.003-0.011C77.406,84.145,77.405,84.142,77.405,84.139z M24.039,42.33
		c4.347,1.792,14.279,1.818,14.407,1.818c2.866,0,6.948-0.25,10.34-0.798c-0.37,1.351-0.722,2.766-1.048,4.273
		c-0.068,0.136-0.116,0.283-0.116,0.445c0,0.026,0.007,0.051,0.008,0.077c-0.688,3.291-1.243,7.035-1.57,11.52
		c-2.488,0.282-5.266,0.454-7.614,0.454c-6.556,0-13.341-1.086-14.407-1.976V42.33z M47.735,69.034
		c0-7.998,0.625-14.006,1.557-18.972c3.454,1.722,11.162,1.787,12.263,1.787c0.465,0,9.119-0.027,12.841-1.838
		c0.937,4.976,1.565,10.998,1.565,19.023c0,7.155-0.082,11.014-0.526,14.726c-0.92,0.909-7.501,2.032-13.88,2.032
		c-6.75,0-12.531-1.185-13.29-2.008C47.817,80.063,47.735,76.203,47.735,69.034z M73.992,48.005
		c-0.972,0.777-6.065,1.844-12.437,1.844c-6.212,0-10.966-1.039-11.855-1.819c0.938-4.345,2.105-7.906,3.255-11.406
		c0.482-1.468,0.959-2.921,1.416-4.41c0.002-0.007,0.004-0.013,0.006-0.021c1.242-4.054,2.326-8.396,2.946-14.058
		c1.244,0.493,2.954,0.698,4.525,0.698c1.572,0,3.282-0.205,4.526-0.698c0.848,7.752,2.57,13.02,4.368,18.489
		C71.89,40.118,73.054,43.671,73.992,48.005z M65.836,8.418c0.019,2.036,0.084,3.933,0.195,5.7
		c-1.205-0.402-2.752-0.571-4.183-0.571s-2.977,0.169-4.182,0.571c0.11-1.767,0.176-3.664,0.195-5.7H65.836z M65.863,16.19
		c-0.637,0.294-2.032,0.643-4.015,0.643c-1.982,0-3.377-0.349-4.014-0.643c0.637-0.293,2.032-0.643,4.014-0.643
		C63.831,15.547,65.227,15.896,65.863,16.19z M34.31,4.567h8.271v5.702H34.31V4.567z M33.756,12.27h9.383
		c3.097,3.373,7.723,11.259,9.231,19.641c-0.426,1.378-0.868,2.728-1.316,4.089c-0.557,1.696-1.117,3.409-1.656,5.21
		c-2.983,0.556-7.365,0.938-10.954,0.938c-6.556,0-13.341-1.086-14.407-1.976v-3.229C24.039,27.61,29.64,16.726,33.756,12.27z
		 M46.188,94.991H30.995c-3.209,0-6.957-2.344-6.957-8.948V60.301c4.347,1.792,14.279,1.818,14.407,1.818
		c2.309,0,5.018-0.162,7.487-0.428c-0.124,2.262-0.198,4.685-0.198,7.344c0,7.339,0.086,11.267,0.557,15.105
		c0,0.002-0.001,0.005,0,0.007c0,0.003,0.002,0.006,0.002,0.009c0.184,1.495,0.424,2.977,0.744,4.642
		c0.368,1.917,0.837,3.937,1.511,5.727C47.811,94.83,47.01,94.991,46.188,94.991z M69.298,98c-2.246,0-2.843-0.862-3.6-1.954
		c-0.714-1.03-1.602-2.312-3.851-2.312s-3.137,1.282-3.85,2.312C57.242,97.138,56.645,98,54.398,98
		c-2.396,0-4.161-3.133-5.396-9.578c-0.153-0.798-0.287-1.552-0.405-2.288c4.243,1.632,12.846,1.658,12.958,1.658
		c0.118,0,9.185-0.061,13.555-1.714c-0.121,0.754-0.257,1.525-0.414,2.344C73.46,94.867,71.694,98,69.298,98z M64.83,30.57
		c0.19,0.18,0.29,0.44,0.29,0.7c0,0.27-0.1,0.52-0.29,0.71c-0.18,0.19-0.44,0.29-0.71,0.29c-0.26,0-0.52-0.1-0.7-0.29
		c-0.19-0.19-0.3-0.44-0.3-0.71c0-0.26,0.11-0.52,0.3-0.7C63.78,30.2,64.46,30.19,64.83,30.57z M58.16,32.38
		c0.19,0.19,0.3,0.45,0.3,0.71c0,0.26-0.11,0.52-0.3,0.71c-0.18,0.19-0.44,0.29-0.7,0.29c-0.27,0-0.52-0.1-0.71-0.29
		s-0.29-0.44-0.29-0.71c0-0.26,0.1-0.52,0.29-0.71C57.12,32.01,57.79,32.01,58.16,32.38z M62.58,38.37c0.19,0.19,0.3,0.45,0.3,0.71
		c0,0.27-0.11,0.53-0.3,0.71c-0.18,0.19-0.44,0.29-0.7,0.29c-0.27,0-0.53-0.1-0.71-0.29c-0.19-0.19-0.29-0.44-0.29-0.71
		c0-0.26,0.1-0.52,0.29-0.71C61.54,38,62.21,38.01,62.58,38.37z M56.88,44.07c0.19,0.19,0.29,0.44,0.29,0.71
		c0,0.26-0.1,0.52-0.29,0.71c-0.19,0.18-0.45,0.29-0.71,0.29c-0.26,0-0.52-0.11-0.7-0.29c-0.19-0.19-0.3-0.45-0.3-0.71
		c0-0.27,0.11-0.52,0.3-0.71C55.84,43.7,56.51,43.7,56.88,44.07z M54.88,91.85c0.19,0.19,0.29,0.45,0.29,0.71
		c0,0.26-0.1,0.52-0.29,0.71c-0.18,0.19-0.44,0.29-0.71,0.29c-0.26,0-0.52-0.1-0.71-0.29c-0.18-0.19-0.29-0.45-0.29-0.71
		c0-0.26,0.11-0.52,0.29-0.7C53.84,91.48,54.51,91.48,54.88,91.85z M61.89,90.47c0.19,0.19,0.3,0.45,0.3,0.71
		c0,0.26-0.11,0.52-0.3,0.7c-0.18,0.19-0.44,0.3-0.7,0.3c-0.27,0-0.53-0.11-0.71-0.29c-0.19-0.19-0.29-0.45-0.29-0.71
		c0-0.27,0.1-0.52,0.29-0.71C60.85,90.1,61.52,90.1,61.89,90.47z M67.19,42.19c0-0.27,0.11-0.53,0.29-0.71
		c0.37-0.38,1.05-0.37,1.42,0c0.18,0.18,0.29,0.44,0.29,0.71c0,0.26-0.11,0.52-0.3,0.7c-0.18,0.19-0.44,0.29-0.7,0.29
		c-0.26,0-0.52-0.1-0.71-0.29C67.3,42.71,67.19,42.45,67.19,42.19z M62.58,22.89c0.19,0.19,0.3,0.45,0.3,0.71
		c0,0.27-0.11,0.53-0.3,0.71c-0.18,0.19-0.44,0.29-0.7,0.29c-0.27,0-0.52-0.1-0.71-0.29c-0.19-0.18-0.29-0.44-0.29-0.71
		c0-0.26,0.1-0.52,0.29-0.7C61.54,22.52,62.21,22.53,62.58,22.89z M69.96,91.96c0.19,0.19,0.3,0.45,0.3,0.71
		c0,0.26-0.11,0.52-0.3,0.71c-0.18,0.18-0.44,0.29-0.7,0.29c-0.27,0-0.52-0.11-0.71-0.29c-0.18-0.19-0.29-0.45-0.29-0.71
		c0-0.26,0.11-0.52,0.29-0.71C68.92,91.59,69.59,91.59,69.96,91.96z"/>
</g>
</svg>
