<?xml version="1.0" encoding="utf-8"?>
<!-- Generator: Adobe Illustrator 16.0.0, SVG Export Plug-In . SVG Version: 6.00 Build 0)  -->
<!DOCTYPE svg PUBLIC "-//W3C//DTD SVG 1.1//EN" "http://www.w3.org/Graphics/SVG/1.1/DTD/svg11.dtd">
<svg version="1.1" xmlns="http://www.w3.org/2000/svg" xmlns:xlink="http://www.w3.org/1999/xlink" x="0px" y="0px" width="100px"
	 height="100px" viewBox="0 0 100 100" enable-background="new 0 0 100 100" xml:space="preserve">
<g id="Calque_2">
</g>
<g id="Calque_1">
	<path d="M99,38.009c-0.201,0-0.377,0.074-0.533,0.176L59.912,23.15c-0.288-0.113-0.613-0.085-0.878,0.074L38.06,35.82l-0.001,0
		l-7.208,4.234c-0.319,0.102-0.55,0.35-0.631,0.676c-0.02,0.064-0.033,0.129-0.04,0.197c0,0.012-0.006,0.021-0.006,0.032
		c-0.1,0.318-1.034,1.14-2.088,1.549l-0.184-0.078c-0.29-0.123-0.622-0.101-0.894,0.059l-8.884,5.201
		c-0.319,0.102-0.551,0.35-0.631,0.676c-0.021,0.064-0.033,0.129-0.04,0.197c0,0.012-0.007,0.021-0.007,0.033
		c-0.1,0.318-1.034,1.14-2.088,1.55l-0.183-0.077c-0.29-0.123-0.622-0.102-0.894,0.059l-8.884,5.2
		c-0.319,0.102-0.551,0.35-0.631,0.676c-0.021,0.064-0.033,0.129-0.04,0.197c0,0.012-0.007,0.021-0.007,0.033
		c-0.166,0.531-1.892,1.721-2.899,1.752l-0.146-0.057c-0.513-0.199-1.094,0.054-1.295,0.568c-0.016,0.042-0.012,0.084-0.022,0.126
		C0.144,58.805,0,59.068,0,59.373v8.396c0,0.412,0.253,0.782,0.637,0.932l19.854,7.731c0.294,0.116,0.626,0.084,0.895-0.084
		l12.576-7.892l18.447,8.071c0.183,0.232,0.454,0.391,0.773,0.391c0.354,0,0.65-0.194,0.828-0.472l45.5-26.944
		c0.304-0.18,0.49-0.507,0.49-0.86v-9.632C100,38.457,99.552,38.009,99,38.009z M59.643,25.192l37.089,14.463l-19.727,11.78
		c4.902-7.009,2.116-10.969-1.082-14.166c-0.391-0.391-1.023-0.391-1.414,0c-5.695,5.695-20.832,2.304-29.877,0.277
		c-1.58-0.354-2.943-0.659-4.09-0.883L59.643,25.192z M28.51,58.164c0.648,0.575,1.634,1.096,2.689,1.455l-9.66,6.063
		c-0.352-0.645-0.704-2.039-0.825-2.956L28.51,58.164z M41.042,50.643c0.468,0.692,1.197,1.433,2.104,1.958l-4.849,2.838
		c-0.038,0.022-0.066,0.053-0.1,0.079c-0.027,0.021-0.055,0.04-0.08,0.063c-0.074,0.07-0.138,0.148-0.188,0.237
		c-0.002,0.005-0.007,0.009-0.01,0.014c-0.051,0.095-0.081,0.2-0.099,0.308c-0.002,0.012-0.009,0.021-0.011,0.033
		c-0.337,0.541-2.21,1.577-3.399,1.865c-0.372-0.789-0.79-2.125-0.947-2.96L41.042,50.643z M39.222,57.563l12.522,5.275
		c-0.024,0.827-0.032,1.626,0.019,2.344l-14.914-5.954C37.776,58.781,38.665,58.199,39.222,57.563z M46.006,53.244
		c0.092-0.034,0.171-0.087,0.248-0.145l1.697-0.994l11.654,4.909l-6.919,4.05l-11.654-4.909L46.006,53.244z M52.022,49.958
		l12.467,5.252c0.01,0.959,0.057,1.887,0.192,2.683c-0.993-0.326-1.689-0.923-1.862-1.2c-0.004-0.021-0.017-0.038-0.021-0.059
		c-0.018-0.073-0.043-0.142-0.076-0.208c-0.015-0.031-0.029-0.061-0.047-0.09c-0.045-0.071-0.1-0.134-0.161-0.192
		c-0.015-0.014-0.026-0.031-0.042-0.044c-0.074-0.062-0.156-0.114-0.248-0.152l-11.438-4.818
		C51.273,50.784,51.707,50.386,52.022,49.958z M68.719,51.713l-3.28,1.727l-11.561-4.871l3.394-1.768L68.719,51.713z M53.776,65.306
		c-0.052-0.58-0.064-1.4-0.031-2.476c0.001-0.025,0.001-0.044,0.002-0.069l7.775-4.551c0.457,0.5,1.114,0.975,1.91,1.33
		L53.776,65.306z M66.654,57.616c-0.082-0.49-0.148-1.275-0.163-2.47l3.739-1.968l0.751,1.854L66.654,57.616z M71.713,51.509
		c0.01-0.397-0.214-0.779-0.602-0.945L46.522,40.013c9.156,2.01,22.33,4.437,28.651-0.657c2.611,2.707,4.958,6.282-2.588,14.308
		L71.713,51.509z M54.897,45.783l-3.649,1.901c-0.332,0.094-0.577,0.341-0.663,0.673c-0.021,0.063-0.032,0.128-0.04,0.195
		c-0.001,0.015-0.009,0.027-0.009,0.043c-0.1,0.318-1.034,1.14-2.087,1.55l-0.184-0.077c-0.29-0.123-0.621-0.102-0.894,0.059
		l-1.128,0.66c-0.077-0.626-0.135-1.641-0.126-3.278l5.7-3.048L54.897,45.783z M22.363,67.527l10.728-6.733v5.848l-10.728,6.732
		V67.527z M35.09,60.679l17.092,6.823v6.743L35.09,66.767V60.679z M54.182,67.393l17.09-10.206v6.712L54.182,74.02V67.393z
		 M37.648,38.381l11.816,5.071l-4.395,2.35l-11.679-4.92L37.648,38.381z M31.659,42.322l12.459,5.249
		c-0.006,1.324,0.022,2.444,0.13,3.335c-0.965-0.536-1.657-1.452-1.785-1.787c-0.002-0.021-0.014-0.038-0.018-0.059
		c-0.015-0.084-0.039-0.164-0.074-0.24c-0.015-0.032-0.03-0.062-0.048-0.092c-0.042-0.069-0.091-0.131-0.147-0.189
		c-0.02-0.021-0.036-0.043-0.058-0.062c-0.077-0.066-0.163-0.124-0.26-0.165l-0.023-0.01l-0.001,0l-11.412-4.809
		C30.91,43.148,31.343,42.75,31.659,42.322z M27.587,44.468l11.654,4.911l-6.92,4.05l-11.653-4.91L27.587,44.468z M18.932,49.958
		l12.535,5.281c0.118,0.736,0.379,1.702,0.7,2.588c-1.168-0.359-2.18-0.96-2.473-1.27c-0.001-0.004-0.005-0.008-0.006-0.012
		c-0.032-0.093-0.076-0.181-0.133-0.26c-0.009-0.014-0.023-0.023-0.033-0.036c-0.05-0.063-0.105-0.122-0.17-0.171
		c-0.029-0.022-0.063-0.037-0.094-0.056c-0.042-0.025-0.079-0.056-0.125-0.075l-11.438-4.818
		C18.183,50.784,18.616,50.386,18.932,49.958z M14.86,52.105l11.654,4.909l-6.92,4.05L7.941,56.156L14.86,52.105z M6.209,57.596
		l12.511,5.271c0.064,0.534,0.187,1.188,0.36,1.848L4.54,59.044C5.204,58.64,5.808,58.137,6.209,57.596z M2,60.201l17.876,6.971
		c-0.027,0.221,0.004,0.45,0.131,0.653c0.091,0.146,0.215,0.257,0.355,0.336v6.075L2,67.085V60.201z M73.272,62.714v-6.722
		L98,41.226v6.845L73.272,62.714z"/>
</g>
</svg>
