<?xml version="1.0" encoding="utf-8"?>
<!-- Generator: Adobe Illustrator 16.0.0, SVG Export Plug-In . SVG Version: 6.00 Build 0)  -->
<!DOCTYPE svg PUBLIC "-//W3C//DTD SVG 1.1//EN" "http://www.w3.org/Graphics/SVG/1.1/DTD/svg11.dtd">
<svg version="1.1" xmlns="http://www.w3.org/2000/svg" xmlns:xlink="http://www.w3.org/1999/xlink" x="0px" y="0px" width="100px"
	 height="100px" viewBox="0 0 100 100" enable-background="new 0 0 100 100" xml:space="preserve">
<g id="Calque_2">
</g>
<g id="Calque_1">
	<path d="M100,36.891c0-5.486-4.462-9.949-9.947-9.949c-1.193,0-2.357,0.219-3.478,0.652c-0.187-9.024-7.586-16.309-16.654-16.309
		c-4.544,0-8.862,1.874-11.997,5.135c-2.645-1.399-5.654-2.199-8.848-2.199c-2.702,0-5.269,0.578-7.598,1.6
		c-3.1-2.92-7.122-4.536-11.401-4.536c-9.068,0-16.467,7.284-16.653,16.309c-1.121-0.433-2.285-0.651-3.478-0.651
		C4.462,26.942,0,31.405,0,36.891c0,4.375,2.843,8.091,6.776,9.419l4.421,26.213c0.054,0.324,0.264,0.6,0.562,0.739
		c4.485,2.1,11.42,2.785,14.402,2.989l1.373,8.14c0.054,0.324,0.264,0.6,0.562,0.739c5.258,2.462,14.562,3.584,20.981,3.584
		s15.723-1.122,20.98-3.584c0.297-0.14,0.507-0.416,0.562-0.739l1.356-8.04c5.146-0.197,12.031-1.105,16.267-3.089
		c0.297-0.14,0.507-0.416,0.562-0.739l4.421-26.213C97.157,44.983,100,41.267,100,36.891z M61.873,22.071
		c0.195,0.397,0.466,0.734,0.798,0.994c2.12,2.834,3.392,6.338,3.392,10.141c0,0.467-0.034,0.927-0.072,1.384
		c-0.031,0.373,0.149,0.731,0.466,0.93c0.316,0.198,0.718,0.203,1.04,0.013c1.488-0.881,3.071-1.327,4.705-1.327
		c5.116,0,9.278,4.163,9.278,9.279c0,5.116-4.162,9.277-9.278,9.277c-4.389,0-8.211-3.116-9.089-7.409
		c-0.075-0.366-0.347-0.659-0.706-0.761c-0.09-0.026-0.183-0.039-0.274-0.039c-0.271,0-0.535,0.11-0.726,0.313
		c-3.251,3.435-7.63,5.327-12.33,5.327c-4.702,0-9.081-1.892-12.33-5.326c-0.257-0.271-0.644-0.376-1.001-0.274
		c-0.359,0.102-0.63,0.396-0.705,0.761c-0.878,4.293-4.701,7.409-9.09,7.409c-5.116,0-9.277-4.162-9.277-9.277
		c0-5.116,4.162-9.279,9.277-9.279c1.634,0,3.216,0.446,4.703,1.327c0.32,0.19,0.721,0.186,1.039-0.012
		c0.317-0.197,0.498-0.555,0.468-0.927c-0.036-0.458-0.07-0.919-0.07-1.388c0-9.366,7.62-16.986,16.986-16.986
		C54.182,16.221,58.757,18.495,61.873,22.071z M2,36.891c0-4.383,3.565-7.949,7.947-7.949c1.398,0,2.754,0.383,4.031,1.138
		c0.322,0.191,0.724,0.185,1.04-0.014c0.317-0.199,0.497-0.558,0.465-0.93c-0.033-0.394-0.063-0.791-0.063-1.194
		c0-8.082,6.575-14.657,14.657-14.657c3.524,0,6.852,1.244,9.501,3.509c-5.613,3.261-9.422,9.3-9.487,16.23
		c-1.331-0.543-2.717-0.817-4.14-0.817c-0.928,0-1.826,0.125-2.689,0.337c0.004-0.126-0.013-0.256-0.059-0.382
		c-0.192-0.528-0.777-0.799-1.303-0.606c-0.526,0.193-0.797,0.777-0.606,1.304c0.04,0.108,0.104,0.197,0.173,0.282
		c-3.94,1.715-6.712,5.616-6.784,10.164c-0.039,0.021-0.083,0.027-0.119,0.054c-1.352,0.967-2.948,1.479-4.617,1.479
		C5.565,44.837,2,41.273,2,36.891z M13.081,71.663L8.883,46.778c0.35,0.038,0.704,0.059,1.063,0.059
		c1.747,0,3.427-0.454,4.922-1.309c0.751,4.08,3.7,7.395,7.573,8.667l3.376,20.021C20.666,73.838,16.017,72.913,13.081,71.663z
		 M68.735,83.533c-2.842,1.228-6.798,2.08-10.786,2.592l1.12-27.558c0.022-0.552-0.407-1.017-0.958-1.04
		c-0.553-0.019-1.018,0.407-1.04,0.958l-1.132,27.866c-2.426,0.243-4.796,0.364-6.862,0.364s-4.436-0.121-6.862-0.364l-1.133-27.866
		c-0.022-0.552-0.497-0.981-1.04-0.958c-0.552,0.022-0.981,0.488-0.958,1.04l1.121,27.558c-3.988-0.512-7.945-1.364-10.787-2.592
		l-4.869-28.867c0.461,0.058,0.927,0.097,1.402,0.097c4.746,0,8.946-2.998,10.568-7.333c3.472,3.084,7.871,4.764,12.558,4.764
		c4.685,0,9.083-1.68,12.557-4.765c1.622,4.336,5.822,7.334,10.568,7.334c0.476,0,0.942-0.039,1.403-0.097L68.735,83.533z
		 M86.919,71.664c-3.889,1.664-9.902,2.457-14.604,2.667l3.396-20.135c4.254-1.398,7.391-5.261,7.726-9.893
		c1.807,1.607,4.158,2.534,6.616,2.534c0.359,0,0.713-0.021,1.063-0.059L86.919,71.664z M90.053,44.837
		c-2.547,0-4.959-1.235-6.452-3.304c-0.093-0.13-0.215-0.221-0.348-0.291c-0.729-3.596-3.176-6.569-6.442-8.04
		c0.404-0.481,0.553-1.155,0.321-1.788c-0.345-0.942-1.388-1.427-2.33-1.083c-0.824,0.302-1.297,1.14-1.172,1.975
		c-0.469-0.06-0.944-0.101-1.43-0.101c-1.422,0-2.809,0.274-4.14,0.817c-0.033-3.469-1.018-6.708-2.681-9.498
		c0.019-0.006,0.037-0.007,0.055-0.014c1.494-0.546,2.262-2.201,1.715-3.695c-0.546-1.495-2.202-2.262-3.695-1.717
		c-0.643,0.236-1.14,0.683-1.466,1.227c-0.722-0.672-1.484-1.299-2.303-1.854c2.729-2.667,6.391-4.188,10.235-4.188
		c8.083,0,14.658,6.575,14.658,14.657c0,0.405-0.03,0.803-0.061,1.198c-0.029,0.372,0.151,0.729,0.468,0.927
		c0.318,0.198,0.718,0.203,1.039,0.012c1.275-0.754,2.631-1.137,4.029-1.137c4.382,0,7.947,3.566,7.947,7.949
		C98,41.273,94.435,44.837,90.053,44.837z M93.888,37.125c0.193,0.527-0.078,1.11-0.604,1.303c-0.528,0.194-1.111-0.077-1.305-0.604
		c-0.191-0.527,0.08-1.112,0.605-1.304C93.11,36.327,93.695,36.598,93.888,37.125z M78.705,20.456
		c0.193,0.528-0.078,1.112-0.605,1.304c-0.528,0.194-1.111-0.077-1.305-0.605c-0.192-0.526,0.079-1.111,0.605-1.304
		C77.928,19.659,78.512,19.928,78.705,20.456z M61.138,32.86c-0.191-0.526,0.08-1.11,0.606-1.304
		c0.526-0.193,1.11,0.078,1.302,0.606c0.194,0.526-0.077,1.11-0.604,1.303C61.915,33.658,61.332,33.388,61.138,32.86z
		 M21.896,21.796c-0.544-1.496,0.223-3.148,1.716-3.697c1.493-0.545,3.149,0.222,3.695,1.717c0.547,1.494-0.221,3.148-1.715,3.695
		C24.099,24.059,22.442,23.29,21.896,21.796z M36.777,37.326c0.941-0.344,1.984,0.139,2.33,1.082
		c0.344,0.941-0.14,1.984-1.081,2.329c-0.942,0.346-1.986-0.139-2.331-1.081C35.351,38.714,35.835,37.669,36.777,37.326z
		 M9.569,40.997c-0.942,0.345-1.986-0.139-2.33-1.082c-0.344-0.941,0.14-1.985,1.081-2.33c0.942-0.344,1.984,0.139,2.329,1.082
		C10.995,39.609,10.511,40.652,9.569,40.997z M52.26,23.871c0.627-1.716,2.529-2.598,4.245-1.971
		c1.715,0.628,2.597,2.528,1.971,4.246c-0.627,1.716-2.53,2.599-4.246,1.97C52.514,27.488,51.631,25.587,52.26,23.871z
		 M46.116,34.411c0.396-1.083,1.594-1.64,2.676-1.243c1.082,0.396,1.637,1.594,1.242,2.676c-0.396,1.083-1.595,1.639-2.677,1.242
		C46.277,36.691,45.721,35.493,46.116,34.411z M71.394,45.525c0.396-1.082,1.594-1.638,2.676-1.242
		c1.08,0.396,1.637,1.593,1.242,2.676c-0.396,1.082-1.595,1.638-2.677,1.242C71.554,47.806,70.998,46.608,71.394,45.525z
		 M23.74,44.557c-0.222,0.606-0.893,0.917-1.5,0.695c-0.604-0.222-0.916-0.892-0.694-1.498c0.222-0.606,0.892-0.918,1.498-0.697
		C23.648,43.28,23.959,43.952,23.74,44.557z M38.987,24.608c0.222-0.606,0.892-0.918,1.497-0.697
		c0.605,0.222,0.917,0.894,0.696,1.499c-0.222,0.606-0.893,0.917-1.5,0.695C39.076,25.883,38.765,25.212,38.987,24.608z
		 M52.129,42.586c0.221-0.604,0.892-0.917,1.496-0.695c0.605,0.222,0.917,0.892,0.697,1.498c-0.222,0.606-0.893,0.918-1.5,0.696
		C52.217,43.863,51.907,43.192,52.129,42.586z"/>
</g>
</svg>
