<?xml version="1.0" encoding="utf-8"?>
<!-- Generator: Adobe Illustrator 16.0.0, SVG Export Plug-In . SVG Version: 6.00 Build 0)  -->
<!DOCTYPE svg PUBLIC "-//W3C//DTD SVG 1.1//EN" "http://www.w3.org/Graphics/SVG/1.1/DTD/svg11.dtd">
<svg version="1.1" xmlns="http://www.w3.org/2000/svg" xmlns:xlink="http://www.w3.org/1999/xlink" x="0px" y="0px" width="100px"
	 height="100px" viewBox="0 0 100 100" enable-background="new 0 0 100 100" xml:space="preserve">
<g id="Calque_2">
</g>
<g id="v2">
	<path d="M91.267,54.604c-0.001-0.001-0.002-0.003-0.003-0.004c-0.031-0.041-0.052-0.088-0.089-0.124
		c-2.386-3.54-18.631-3.652-20.615-3.652c-0.788,0-3.827,0.018-7.353,0.261V37.171c0-0.037-0.02-0.069-0.024-0.105
		c-0.01-0.089-0.025-0.174-0.059-0.258c-0.02-0.051-0.046-0.095-0.074-0.142c-0.043-0.073-0.095-0.137-0.157-0.198
		c-0.023-0.022-0.034-0.055-0.06-0.075c-0.021-0.018-0.05-0.02-0.073-0.035c-0.028-0.02-0.046-0.048-0.077-0.064l-16.773-9.117
		l-1.987-16.013c-0.002-0.02-0.015-0.035-0.019-0.055c0.008-0.093,0.026-0.179,0.026-0.277V3.462c0-0.761-0.284-1.444-0.82-1.976
		c-1.42-1.408-4.26-1.501-6.81-1.483l-0.438,0.002l-0.438-0.002c-2.554-0.024-5.39,0.075-6.81,1.483
		c-0.536,0.532-0.82,1.215-0.82,1.976v7.369c0,0.163,0.021,0.312,0.043,0.46l-2.38,15.882L9.037,36.297
		c-0.028,0.016-0.044,0.042-0.069,0.059c-0.021,0.015-0.048,0.017-0.068,0.033c-0.027,0.021-0.039,0.055-0.063,0.079
		c-0.062,0.061-0.114,0.125-0.158,0.199c-0.028,0.047-0.053,0.092-0.073,0.143c-0.033,0.083-0.049,0.168-0.059,0.257
		c-0.004,0.036-0.024,0.067-0.024,0.104v53.417c0,0.451,0.302,0.846,0.737,0.965l25.7,7.008c0.085,0.023,0.172,0.034,0.259,0.034
		c0.001,0,0.002,0.001,0.003,0.001h0h0c0,0,0.001,0,0.002,0c0.07-0.001,0.141-0.008,0.211-0.023l14.207-3.104v0.334
		c0,3.788,14.628,4.197,20.917,4.197c2.141,0,20.917-0.129,20.917-4.583v-8.995V86.03V55.19
		C91.478,54.967,91.39,54.771,91.267,54.604z M89.478,86.03v0.287c-0.753,0.907-6.903,2.526-18.917,2.526
		c-12.017,0-18.162-1.578-18.917-2.464v-4.204V67.851c4.89,2.293,17.207,2.377,18.917,2.377s14.027-0.084,18.917-2.377V86.03z
		 M51.741,65.666c1.092-0.945,7.375-2.562,18.819-2.562c11.445,0,17.729,1.616,18.819,2.562c-1.091,0.945-7.374,2.562-18.819,2.562
		C59.116,68.228,52.833,66.611,51.741,65.666z M70.56,61.104c-1.71,0-14.027,0.084-18.917,2.377v-5.975
		c5.099,2.406,18.23,2.44,18.917,2.44c1.709,0,14.021-0.082,18.917-2.37v5.904C84.587,61.188,72.271,61.104,70.56,61.104z
		 M89.366,55.386c-1.083,0.944-7.351,2.562-18.806,2.562c-10.815,0-17.509-1.581-18.763-2.601c1.211-0.95,7.469-2.522,18.763-2.522
		C82.013,52.824,88.281,54.44,89.366,55.386z M49.945,54.477c-0.037,0.036-0.058,0.083-0.089,0.124
		c-0.001,0.001-0.002,0.003-0.003,0.004c-0.124,0.166-0.211,0.362-0.211,0.586V78.77l-13.42,2.933V53.279l24.985-5.458v3.423
		C56.346,51.688,51.208,52.603,49.945,54.477z M26.028,29.146c1.716,1.617,6.438,1.966,8.617,2.038l-0.362,10.64l-21.996-5.045
		L26.028,29.146z M45.338,29.14l14.033,7.628L36.285,41.81l0.361-10.624C38.797,31.119,43.61,30.778,45.338,29.14z M34.223,51.223
		l-23.7-5.36v-7.436l23.7,5.435V51.223z M36.223,43.871l24.985-5.457v7.36l-24.985,5.458V43.871z M10.522,47.914l23.7,5.36v28.418
		l-23.7-5.359V47.914z M30.026,2.906c0.947-0.94,4.056-0.918,5.385-0.903l0.454,0.002l0.455-0.002
		c1.325-0.012,4.438-0.037,5.385,0.903c0.16,0.159,0.229,0.325,0.229,0.556c0,0.667-0.865,1.463-4.987,1.463l-1.081-0.006
		l-1.081,0.006c-1.007,0-2.476-0.035-3.589-0.339c-1.397-0.381-1.397-0.921-1.397-1.124C29.797,3.231,29.866,3.065,30.026,2.906z
		 M29.797,10.831V6.213c0.258,0.112,0.547,0.214,0.872,0.303C32,6.879,33.567,6.925,34.784,6.925l1.081-0.006l1.081,0.006
		c1.125,0,3.349,0,4.987-0.708v4.613c0,0.667-0.865,1.463-4.987,1.463l-1.081-0.006l-1.081,0.006
		C30.663,12.294,29.797,11.499,29.797,10.831z M29.537,13.463c1.654,0.83,4.061,0.831,5.247,0.831l1.081-0.006l1.081,0.006
		c1.187,0,3.595-0.001,5.25-0.832l1.77,14.264c-0.516,0.536-3.365,1.479-8.286,1.479c-4.688,0-7.726-0.911-8.28-1.474L29.537,13.463
		z M10.522,78.383l23.7,5.359v12.544l-23.7-6.462V78.383z M36.223,96.354V83.748l13.42-2.932v1.359v4.311v6.936L36.223,96.354z
		 M70.56,98c-11.632,0-18.084-1.359-18.917-2.309v-7.059c4.45,2.019,15.079,2.211,18.917,2.211c2.764,0,14.242-0.136,18.917-2.275
		v6.749C88.737,96.251,82.419,98,70.56,98z M63.968,71.876c-0.24-0.108-0.515-0.121-0.765-0.03c-0.249,0.092-0.451,0.278-0.563,0.52
		L58.333,81.7c-0.231,0.501-0.012,1.096,0.489,1.327l9.333,4.308c0.132,0.061,0.275,0.092,0.419,0.092
		c0.117,0,0.234-0.021,0.346-0.062c0.249-0.092,0.451-0.278,0.563-0.52l3.273-7.093l0.563,5.582
		c0.052,0.515,0.487,0.899,0.994,0.899c0.033,0,0.067-0.002,0.101-0.005L84.641,85.2c0.264-0.026,0.506-0.157,0.674-0.362
		s0.247-0.469,0.221-0.733l-1.03-10.229c-0.027-0.264-0.157-0.506-0.362-0.674c-0.206-0.168-0.473-0.244-0.733-0.221l-10.228,1.03
		c-0.55,0.056-0.95,0.546-0.895,1.096l0.064,0.639L63.968,71.876z M68.086,85.1l-7.518-3.47l3.469-7.519l7.518,3.47L68.086,85.1z
		 M82.616,75.07l0.83,8.24l-8.238,0.829l-0.83-8.239L82.616,75.07z"/>
</g>
</svg>
