<?xml version="1.0" encoding="utf-8"?>
<!-- Generator: Adobe Illustrator 16.0.0, SVG Export Plug-In . SVG Version: 6.00 Build 0)  -->
<!DOCTYPE svg PUBLIC "-//W3C//DTD SVG 1.1//EN" "http://www.w3.org/Graphics/SVG/1.1/DTD/svg11.dtd">
<svg version="1.1" xmlns="http://www.w3.org/2000/svg" xmlns:xlink="http://www.w3.org/1999/xlink" x="0px" y="0px" width="100px"
	 height="100px" viewBox="0 0 100 100" enable-background="new 0 0 100 100" xml:space="preserve">
<g id="Calque_2">
</g>
<g id="Calque_1">
	<path d="M86.266,69.271c3.614-4.603,4.926-9.928,3.9-15.826c-1.695-9.748-9.427-18.208-13.191-20.571
		c-0.123-0.077-0.255-0.121-0.39-0.14c2.009-2.957,3.147-6.292,3.147-9.819c0-2.49-0.571-4.881-1.609-7.114
		c2.087-1.901,3.161-4.355,3.023-6.913c-0.139-2.572-1.483-4.913-3.784-6.592C72.92-0.949,66.097-0.695,61.863,2.777
		C58.227,1.603,54.216,0.947,50,0.947s-8.226,0.656-11.863,1.83c-4.234-3.472-11.057-3.725-15.499-0.481
		c-2.302,1.679-3.646,4.021-3.785,6.592c-0.138,2.558,0.936,5.013,3.023,6.914c-1.038,2.233-1.609,4.625-1.609,7.114
		c0,3.528,1.138,6.862,3.147,9.819c-0.135,0.019-0.268,0.063-0.391,0.14c-3.88,2.437-11.755,11.115-13.271,21.058
		c-0.92,6.035,0.625,11.446,4.59,16.084c0.133,0.155,0.308,0.24,0.491,0.293c-1.239,4.453-0.784,10.875,2.904,20.144
		c2.309,5.807,7.839,9.557,14.087,9.557c1.917,0,3.801-0.362,5.598-1.076c0.947-0.377,1.842-0.842,2.678-1.384
		c3.282,0.254,6.804,0.386,10.486,0.386c3.669,0,7.169-0.131,10.419-0.381c0.833,0.54,1.727,1.003,2.671,1.379
		c1.796,0.714,3.68,1.076,5.598,1.076h0c6.248,0,11.777-3.75,14.087-9.556c3.924-9.863,4.188-16.505,2.645-20.978
		C86.101,69.418,86.195,69.362,86.266,69.271z M75.912,34.568c3.5,2.199,10.696,10.093,12.284,19.22
		c0.881,5.067-0.171,9.652-3.083,13.655c-1.605-2.911-4.1-4.643-6.655-5.66c-1.036-0.412-2.067-0.686-3.087-0.849
		c-0.444-7.932-2.749-14.936-6.848-20.852c2.798-1.652,5.187-3.667,7.03-5.951C75.63,34.303,75.74,34.461,75.912,34.568z
		 M55.199,79.247c-1.292,3.251-1.419,6.768-0.397,10.064c-2.694,0.301-5.791,0.3-8.499-0.006c1.021-3.295,0.894-6.81-0.398-10.059
		c-3.188-8.017-6.909-13.433-11.11-16.236c2.275-6.031,8.622-10.176,15.778-10.176c7.127,0,13.486,4.141,15.771,10.153
		C62.128,65.785,58.395,71.209,55.199,79.247z M68.099,61.975c-2.67-6.613-9.694-11.141-17.527-11.141
		c-7.862,0-14.874,4.527-17.537,11.157c-1.703-0.816-3.477-1.233-5.324-1.233c-0.354,0-0.711,0.023-1.07,0.056
		c0.457-7.626,2.621-14.114,6.596-19.766c4.776,2.418,10.548,3.837,16.763,3.837s11.987-1.418,16.763-3.837
		c3.964,5.637,6.126,12.107,6.592,19.712C71.533,60.766,69.781,61.174,68.099,61.975z M76.183,3.912
		c1.807,1.319,2.86,3.124,2.966,5.084c0.097,1.793-0.619,3.536-2.01,4.963c-2.681-4.417-7.273-8.068-13.003-10.366
		C67.703,1.374,72.776,1.423,76.183,3.912z M20.852,8.996c0.106-1.96,1.159-3.765,2.966-5.084c3.406-2.488,8.479-2.538,12.047-0.319
		c-5.73,2.298-10.322,5.949-13.003,10.366C21.471,12.532,20.755,10.789,20.852,8.996z M50,2.947
		c15.291,0,27.731,8.958,27.731,19.968S65.291,42.884,50,42.884s-27.731-8.958-27.731-19.969S34.709,2.947,50,2.947z M11.731,54.234
		c1.401-9.19,8.861-17.47,12.357-19.666c0.171-0.107,0.282-0.266,0.361-0.437c1.842,2.284,4.23,4.299,7.029,5.951
		c-4.141,5.975-6.451,13.055-6.864,21.081c-0.654,0.162-1.31,0.358-1.968,0.621c-2.8,1.115-5.532,3.084-7.096,6.528
		C12.227,64.226,10.93,59.496,11.731,54.234z M36.685,97.074c-1.561,0.621-3.196,0.936-4.859,0.936
		c-5.424,0-10.225-3.256-12.229-8.296c-3.849-9.674-6.316-22.049,3.788-26.07c1.476-0.587,2.931-0.885,4.326-0.885
		c1.736,0,3.425,0.483,5.061,1.401c0.122,0.153,0.275,0.284,0.477,0.346c0.055,0.017,0.109,0.018,0.164,0.024
		c3.959,2.533,7.569,7.751,10.634,15.455c1.298,3.266,1.248,6.842-0.143,10.069C42.514,93.283,39.95,95.775,36.685,97.074z
		 M42.411,95.703c1.305-1.273,2.366-2.793,3.151-4.493c1.589,0.209,3.259,0.335,5.011,0.335c1.743,0,3.398-0.124,4.97-0.33
		c0.786,1.7,1.847,3.22,3.153,4.493c-2.574,0.15-5.291,0.227-8.108,0.227C47.798,95.935,45.016,95.855,42.411,95.703z
		 M81.506,89.714c-2.005,5.04-6.805,8.296-12.229,8.296c-1.664,0-3.298-0.314-4.859-0.936c-3.265-1.299-5.829-3.791-7.219-7.02
		c-1.391-3.228-1.441-6.804-0.142-10.069c4.482-11.27,10.13-17.227,16.334-17.227c1.394,0,2.85,0.298,4.325,0.884
		C87.822,67.665,85.355,80.04,81.506,89.714z M50.573,41.07c6.241,0,18.387-4.662,18.387-13.208c0-6.763-3.953-8.614-18.387-8.614
		S32.187,21.1,32.187,27.862C32.187,36.408,44.333,41.07,50.573,41.07z M44.289,21.416c0.461,3.617,3.015,5.759,5.285,6.258v4.963
		c-3.491-0.269-6.276-1.912-6.276-3.831c0-0.552-0.448-1-1-1s-1,0.448-1,1c0,3.243,3.95,5.787,9.034,5.867
		c0.08,0.021,0.157,0.049,0.243,0.049s0.163-0.028,0.243-0.049c5.084-0.08,9.034-2.625,9.034-5.867c0-0.552-0.448-1-1-1
		c-0.553,0-1,0.448-1,1c0,1.919-2.786,3.562-6.275,3.831v-4.963c2.27-0.499,4.823-2.641,5.284-6.258
		c9.013,0.566,10.102,2.604,10.102,6.447c0,6.953-10.609,11.208-16.386,11.208c-5.777,0-16.386-4.255-16.386-11.208
		C34.188,24.02,35.276,21.982,44.289,21.416z M61.449,17.594c1.985,0,3.6-1.615,3.6-3.6s-1.615-3.6-3.6-3.6s-3.6,1.615-3.6,3.6
		S59.464,17.594,61.449,17.594z M61.449,12.395c0.882,0,1.599,0.717,1.599,1.599c0,0.882-0.717,1.6-1.599,1.6
		c-0.882,0-1.6-0.717-1.6-1.6C59.85,13.112,60.567,12.395,61.449,12.395z M39.697,17.594c1.985,0,3.6-1.615,3.6-3.6
		s-1.615-3.6-3.6-3.6s-3.6,1.615-3.6,3.6S37.712,17.594,39.697,17.594z M39.697,12.395c0.882,0,1.599,0.717,1.599,1.599
		c0,0.882-0.717,1.6-1.599,1.6c-0.882,0-1.6-0.717-1.6-1.6C38.098,13.112,38.815,12.395,39.697,12.395z M72.003,79.222
		c-1.927-0.894-3.973-1.366-5.916-1.366c-3.385,0-6.067,1.426-7.175,3.815c-0.899,1.94-0.664,4.235,0.663,6.463
		c1.254,2.106,3.359,3.923,5.926,5.111c1.927,0.894,3.974,1.366,5.917,1.366c3.385,0,6.067-1.427,7.174-3.816
		c0.899-1.939,0.664-4.233-0.664-6.462C76.675,82.228,74.57,80.412,72.003,79.222z M76.778,89.953
		c-0.771,1.665-2.774,2.658-5.359,2.658c-1.655,0-3.41-0.408-5.076-1.181c-2.205-1.022-3.998-2.557-5.048-4.32
		c-0.979-1.644-1.18-3.275-0.567-4.598c0.772-1.664,2.776-2.657,5.36-2.657c1.654,0,3.409,0.408,5.075,1.181
		c2.206,1.023,3.998,2.558,5.049,4.32C77.189,87,77.391,88.632,76.778,89.953z M67.756,76.381c2.21,0,4.008-1.821,4.008-4.06
		c0-2.239-1.798-4.06-4.008-4.06c-2.209,0-4.007,1.82-4.007,4.06C63.75,74.56,65.547,76.381,67.756,76.381z M67.756,70.262
		c1.107,0,2.008,0.924,2.008,2.06s-0.9,2.06-2.008,2.06c-1.106,0-2.007-0.924-2.007-2.06S66.65,70.262,67.756,70.262z
		 M76.645,73.322c2.21,0,4.009-1.822,4.009-4.061c0-2.239-1.798-4.06-4.009-4.06c-2.209,0-4.007,1.82-4.007,4.06
		C72.637,71.5,74.435,73.322,76.645,73.322z M76.645,67.203c1.107,0,2.008,0.924,2.008,2.059c0,1.136-0.901,2.06-2.008,2.06
		c-1.106,0-2.007-0.924-2.007-2.06C74.638,68.127,75.538,67.203,76.645,67.203z M75.646,78.306c0,2.238,1.797,4.061,4.007,4.061
		c2.21,0,4.008-1.822,4.008-4.061c0-2.239-1.798-4.06-4.008-4.06C77.443,74.246,75.646,76.066,75.646,78.306z M81.66,78.306
		c0,1.136-0.9,2.06-2.008,2.06c-1.106,0-2.007-0.924-2.007-2.06c0-1.135,0.9-2.06,2.007-2.06
		C80.76,76.246,81.66,77.171,81.66,78.306z M42.19,81.671c-1.108-2.39-3.791-3.815-7.175-3.815c-1.943,0-3.989,0.473-5.916,1.366
		c-5.425,2.516-8.381,7.708-6.589,11.573c1.107,2.39,3.79,3.816,7.175,3.816c1.943,0,3.989-0.473,5.917-1.366
		c2.567-1.188,4.671-3.005,5.926-5.111C42.854,85.906,43.089,83.611,42.19,81.671z M39.809,87.11
		c-1.051,1.764-2.843,3.298-5.048,4.32c-1.667,0.772-3.421,1.181-5.076,1.181c-2.585,0-4.589-0.993-5.36-2.658
		c-1.328-2.864,1.191-6.865,5.617-8.917c1.665-0.772,3.42-1.181,5.074-1.181c2.585,0,4.588,0.993,5.36,2.657
		C40.988,83.835,40.787,85.468,39.809,87.11z M33.347,76.381c2.209,0,4.007-1.821,4.007-4.06c0-2.239-1.798-4.06-4.007-4.06
		c-2.21,0-4.008,1.82-4.008,4.06C29.338,74.56,31.136,76.381,33.347,76.381z M33.347,70.262c1.107,0,2.007,0.924,2.007,2.06
		s-0.9,2.06-2.007,2.06s-2.008-0.924-2.008-2.06S32.24,70.262,33.347,70.262z M24.459,73.322c2.209,0,4.007-1.822,4.007-4.061
		c0-2.239-1.798-4.06-4.007-4.06c-2.21,0-4.009,1.82-4.009,4.06C20.45,71.5,22.249,73.322,24.459,73.322z M24.459,67.203
		c1.106,0,2.006,0.924,2.006,2.059c0,1.136-0.9,2.06-2.006,2.06c-1.107,0-2.008-0.924-2.008-2.06
		C22.451,68.127,23.352,67.203,24.459,67.203z M25.458,78.306c0-2.239-1.798-4.06-4.007-4.06c-2.21,0-4.008,1.82-4.008,4.06
		c0,2.238,1.798,4.061,4.008,4.061C23.66,82.366,25.458,80.544,25.458,78.306z M21.451,80.365c-1.107,0-2.008-0.924-2.008-2.06
		c0-1.135,0.901-2.06,2.008-2.06s2.007,0.925,2.007,2.06C23.458,79.441,22.558,80.365,21.451,80.365z"/>
</g>
</svg>
