<svg id="Calque_1" data-name="Calque 1" xmlns="http://www.w3.org/2000/svg" viewBox="0 0 300 300"><defs><style>.cls-1{fill:#1d1d1b;}</style></defs><title>picto_normandie</title><path class="cls-1" d="M150,6A144,144,0,0,1,251.82,251.82,144,144,0,1,1,48.18,48.18,143,143,0,0,1,150,6m0-6A150,150,0,1,0,300,150,150,150,0,0,0,150,0Z"/><path d="M141.63,252.44a2.5,2.5,0,0,1-1.08-4.76c34-16.27,72.34-52.38,76.09-93.22,1.77-19.33,1.64-43.59,1.51-67.05,0-5.2-.05-10.38-.06-15.47H72.29a2.5,2.5,0,0,1,0-5h148.3a2.5,2.5,0,0,1,2.5,2.5c0,5.88,0,11.89.06,17.94.13,23.58.26,48-1.53,67.54-3.93,42.78-43.66,80.41-78.92,97.27A2.43,2.43,0,0,1,141.63,252.44Z"/><path d="M142.77,254.64a2.5,2.5,0,0,1-1.18-4.71c60-32.29,76.07-78.6,76.07-100.86,0-17.87,1-78.81,1-79.43a2.5,2.5,0,0,1,4.26-1.73l8,7.93a2.47,2.47,0,0,1,.74,1.77c0,6.19,0,12.2.08,18.06.13,21.62.26,42-1.69,61.47-4.28,42.71-47.73,80.37-86.29,97.29A2.49,2.49,0,0,1,142.77,254.64Zm80.8-179.06c-.25,15.79-.91,59-.91,73.49,0,14-6,37.14-24.22,60.59,14.34-15.58,24.72-33.79,26.65-53s1.8-38.53,1.66-60.94c0-5.54-.07-11.21-.08-17Z"/><path d="M145.63,144.69a5.08,5.08,0,0,1-4.91-3.51,6,6,0,0,1-.3-3.63,1.66,1.66,0,0,0-.48.24,2.68,2.68,0,0,0-.94,2.11,1.5,1.5,0,0,1-1.69,1.61,4.78,4.78,0,0,1-4-5,4.71,4.71,0,0,1,1.64-3.6,7.72,7.72,0,0,1,3.77-1.7,1,1,0,0,0-.65-.68,3.22,3.22,0,0,0-1.1-.13,1.5,1.5,0,0,1-2.47-1.59A6.05,6.05,0,0,1,140,125a5.27,5.27,0,0,1,4.29,1.86,4.48,4.48,0,0,1,.88,2,1.46,1.46,0,0,0,.64-.78,1.76,1.76,0,0,0-.06-1.42c-.53-1-1-1.86-1.29-2.34a.67.67,0,0,0-.15-.14,4.9,4.9,0,0,1-2.08-3.84,4.37,4.37,0,0,1,1.66-3.59s.08-.06.08-.07a5.29,5.29,0,0,0,1.18-1.21,12.77,12.77,0,0,0-6.51,4c-2.85,3.61-6.9,5.71-9.58,7.1-.69.36-1.3.67-1.8,1a3.94,3.94,0,0,0-1.73,1.94,6.76,6.76,0,0,1-1.7,2.27,5.8,5.8,0,0,1-4.23,1.52,1.49,1.49,0,0,1-1.22-2s0,0,0-.07l-.56.08a37.7,37.7,0,0,1-6.39.56,2.21,2.21,0,0,0-1.22.21,2.7,2.7,0,0,0,.33,1.22,4.78,4.78,0,0,1-.1,4.26,4.88,4.88,0,0,1-3.69,2.36,1.5,1.5,0,0,1-1.29-.44,1.48,1.48,0,0,1-.4-1.31c.24-1.38.09-3.19-.47-3.47a.64.64,0,0,0-.16-.06,5.33,5.33,0,0,0-.85,2.63,2.5,2.5,0,0,0,.07,1.33,1.53,1.53,0,0,1,.49,1.16,1.49,1.49,0,0,1-.77,1.25,4.69,4.69,0,0,1-5.63-.64,5.78,5.78,0,0,1-.84-6.52A2.1,2.1,0,0,0,95.27,137a1.51,1.51,0,0,1-1.74,1.89c-.32-.07-3.11-.69-4.13-3-.64-1.45-.41-3.12.7-4.94A6.94,6.94,0,0,1,93.72,128a1.89,1.89,0,0,0,1.1-1,1.38,1.38,0,0,0,0-1.13,2.39,2.39,0,0,0-2.66-1.63,1.5,1.5,0,0,1-1.46-.78,1.52,1.52,0,0,1,.15-1.65,6.26,6.26,0,0,1,6.44-1.88,5.67,5.67,0,0,1,4.35,5.19,17.15,17.15,0,0,0,5.18-2.86,1.7,1.7,0,0,0,.5-2.18,3.72,3.72,0,0,0-.89-1.13l-.67-.53c-1.39-1.13-2.82-2.29-4.78-1.83a17.34,17.34,0,0,1-6.52.2,1.5,1.5,0,0,1,0-3c.89-.18,2.82-.89,3.11-1.92a3.22,3.22,0,0,0,.11-.6c-1.32,1.14-3.57,2.85-5.85,2.26a4.52,4.52,0,0,1-3-3.2,1.51,1.51,0,0,1,1-2,4.74,4.74,0,0,0,3.3-3.5.52.52,0,0,0,0-.11,3.78,3.78,0,0,0-1.82.7c-.73.49-1.06,1-1.07,1.33a1.5,1.5,0,0,1-2.7.85,6.1,6.1,0,0,1,.85-8.46,4.42,4.42,0,0,1,2.67-1,5.18,5.18,0,0,0-1.66-1.39,1.49,1.49,0,0,1,0-2.65c1.66-.92,5.42-1.9,7.75.93.29.35.54.67.75,1V96l-.23-2.3a1.5,1.5,0,0,1,2.12-1.51,7.55,7.55,0,0,1,4,5.57,9.92,9.92,0,0,1-1.8,6.75,7.62,7.62,0,0,0,4.78,2.43,1.7,1.7,0,0,0,1.82-1.11,4.26,4.26,0,0,1-3.17-2.55,1.52,1.52,0,0,1,.11-1.36,1.5,1.5,0,0,1,1.16-.71,2.9,2.9,0,0,0,2.62-2.67l0-.36a17.57,17.57,0,0,1,1.13-5,11.79,11.79,0,0,1-1.86-3.73,1.51,1.51,0,0,1,.17-1.17,1.54,1.54,0,0,1,1-.68c1.36-.28,3.91-.25,5.41,1.41a11.33,11.33,0,0,1,3.33-.44,12.75,12.75,0,0,1,3.42.44,9.71,9.71,0,0,1,5.15-1.52,1.5,1.5,0,0,1,1.56,2A14.52,14.52,0,0,1,127.36,92a1.76,1.76,0,0,0-.06,1.6,12.62,12.62,0,0,1,.92,5c0,1.93.9,2.12,2.39,2.21l.34,0a1.49,1.49,0,0,1,1,2.44,8.55,8.55,0,0,1-2.49,2.06,1.66,1.66,0,0,0,1.39.43c5.59-.81,24-3.46,25.58-3.75,1.94-.36,5.36,1.33,6.74,2.08a1.71,1.71,0,0,0,1.48.06c2.48-1.07,5.45-2,8.67-1.25,4.55,1.14,8.2.84,9.46,0,.37-.26.39-.47.4-.57a4.12,4.12,0,0,0-1-3.12c-1.33-1.61-3.87-2.67-7.15-3A60.66,60.66,0,0,0,148,99l-.84.27c-6.21,2.06-12.06,3.74-15.33,1.68a4.55,4.55,0,0,1-2.1-3.43A8.44,8.44,0,0,1,134,89.08a1.33,1.33,0,0,0,.51-1.15c0-.94.48-4,5.72-4.23a23.75,23.75,0,0,1,4.63.31c1.82.27,2.31.28,2.87-.22.11-.09.22-.2.31-.29a1.87,1.87,0,0,1,2.3-.57c1.1.65.77,1.9.55,2.74a13.41,13.41,0,0,1-7.61,8.17,6.32,6.32,0,0,1-4.9.24,4,4,0,0,1-.92-.56c-.75.47-1.54,1.14-1.56,1.79a.87.87,0,0,0,0,.34s.63.5,3.61-.3c1.21-.33,2.45-.7,3.79-1.1A118.35,118.35,0,0,1,158,90.7a69.15,69.15,0,0,1,18.66-.42l.35,0c2.5.24,8.36,2.26,11.17,6a7.82,7.82,0,0,1,1.51,6.39,8.51,8.51,0,0,1-3.79,5.87c-3.67,2.33-9,1.67-12.76.71a4.24,4.24,0,0,0-.83-.14,1.53,1.53,0,0,0-1.44.76,1.82,1.82,0,0,0,0,1.9c1.43,2.33,3,3.6,6.47,2.76a4.56,4.56,0,0,1,4.08,1A6.12,6.12,0,0,0,183.9,117c3.06.74,3.48,2.44,3.62,4,0,.14,0,.29,0,.44A4.61,4.61,0,0,1,187,124l0,0c1.92.14,4.85.44,6.32,2.41a4.59,4.59,0,0,1,.64,3.89,1.5,1.5,0,0,1-.89,1,1.48,1.48,0,0,1-1.37-.12,3.78,3.78,0,0,0-3.44-.22l.16.12a5.72,5.72,0,0,1,2.27,7.34,5.35,5.35,0,0,1-4.29,2.85,1.47,1.47,0,0,1-1.36-.47,1.49,1.49,0,0,1-.33-1.4s.57-2.37-.57-2.84a1.3,1.3,0,0,0-1.24,0c-.94.53-1.7,2.22-2.06,4.52a1.5,1.5,0,0,1-1.8,1.24,5.77,5.77,0,0,1-3.55-2.44,4,4,0,0,1-.54-1.94,1.54,1.54,0,0,1-.45.57,1.5,1.5,0,0,1-1.81,0c-.27-.19-2.62-1.94-2.66-4.55a5.29,5.29,0,0,1,2.43-4.3,18.88,18.88,0,0,1,2.36-1.54,1.69,1.69,0,0,0-.51-3.16l-.39,0c-2.47-.3-5.16-.38-7.53-.45a34.13,34.13,0,0,1-6.27-.49,4.66,4.66,0,0,1,.11,5.24,4.39,4.39,0,0,0-.54,1.3,12,12,0,0,1-4.45,6.3,5.42,5.42,0,0,1-.37,3,6,6,0,0,1-3.86,3.14,1.51,1.51,0,0,1-1.32-.18,1.55,1.55,0,0,1-.65-1.16,7.37,7.37,0,0,0-.9-3.37,4.49,4.49,0,0,0-1.35,2.06c-.27.77.59,1.49.6,1.5a1.49,1.49,0,0,1,.53,1.5,1.51,1.51,0,0,1-1.12,1.14A4.93,4.93,0,0,1,145.63,144.69ZM141,134.47a6,6,0,0,1,2.6.59,1.5,1.5,0,0,1,0,2.66c-.09.07-.78.64-.12,2.42a2.88,2.88,0,0,0,.13.31,4.27,4.27,0,0,1,.22-1c.54-1.54,1.77-3.52,3.46-4a2.69,2.69,0,0,1,2.51.51,6.09,6.09,0,0,1,1.78,3.36,1.87,1.87,0,0,0,.41-.58,2.53,2.53,0,0,0,0-1.85,1.52,1.52,0,0,1,.54-1.81,9.38,9.38,0,0,0,4.11-5.22,7.68,7.68,0,0,1,1-2.23,1.75,1.75,0,0,0-.54-2.29c-.41-.31-.85-.58-1.27-.84a7.11,7.11,0,0,1-2.53-2.2,2.49,2.49,0,0,1-.15-2.36c.75-1.57,3.07-2,3.76-2.14a1.48,1.48,0,0,1,1.55.79,9.28,9.28,0,0,0,2,2.51c.59.33,3.56.41,5.94.49s5.19.15,7.8.46l.5.07a4.69,4.69,0,0,1,1.45,8.77,14.54,14.54,0,0,0-1.94,1.27,4.87,4.87,0,0,0-.94.93,7.31,7.31,0,0,1,1.16-1c3-2.09,5.49-.85,6.39.1a1.5,1.5,0,0,1-1,2.53s-1.14.24-1.87,2.5a1.42,1.42,0,0,0,0,1.23,1.46,1.46,0,0,0,.21.28,7.41,7.41,0,0,1,3.13-4.7,4.27,4.27,0,0,1,3.85-.2,4.21,4.21,0,0,1,2.54,3.62,1.41,1.41,0,0,0,.18-.29,3.21,3.21,0,0,0-.25-2.66,4.29,4.29,0,0,0-1.07-.93c-.83-.6-1.88-1.35-1.84-2.64a3,3,0,0,1,1.6-2.32,6,6,0,0,1,3.86-.91,11.21,11.21,0,0,0-3.78-.73l-.58,0h0a2.36,2.36,0,0,1-2-1.1c-.62-1.07-.1-2.21.32-3.12a5.82,5.82,0,0,0,.37-.95,2.71,2.71,0,0,1-.06-.49c-.09-.92-.11-1.06-1.34-1.36a9,9,0,0,1-3.76-2,1.58,1.58,0,0,0-1.39-.4c-5.62,1.37-8.25-1.68-9.74-4.09a4.82,4.82,0,0,1,0-5,4.47,4.47,0,0,1,4.2-2.2,7.37,7.37,0,0,1,1.37.22c4.56,1.16,8.26,1,10.42-.33a5.6,5.6,0,0,0,2.45-3.91,4.89,4.89,0,0,0-1-4,12.27,12.27,0,0,0-4.65-3.45,10,10,0,0,1,3.44,2.59,7.14,7.14,0,0,1,1.65,5.32,3.74,3.74,0,0,1-1.66,2.73c-2.7,1.9-8.11,1.47-11.92.51-2.35-.58-4.63.18-6.75,1.1a4.7,4.7,0,0,1-4.09-.18c-2.68-1.45-4.4-1.82-4.78-1.77-1.63.29-18.51,2.73-25.69,3.77a4.69,4.69,0,0,1-5.15-3.23c-.17-.54-.24-.84-.24-.84a1.51,1.51,0,0,1,1.18-1.86,4.77,4.77,0,0,1-1.87-4.21,9.6,9.6,0,0,0-.67-3.8,4.81,4.81,0,0,1,0-3.9,2.43,2.43,0,0,0-1.13.69,1.49,1.49,0,0,1-1.71.45,8.69,8.69,0,0,0-3.24-.55,7.41,7.41,0,0,0-3.27.63,1.5,1.5,0,0,1-1.21.06,1.58,1.58,0,0,1-.86-.86,1.29,1.29,0,0,0-.76-.74q.25.42.57.84c.14.18.27.33.39.46a1.49,1.49,0,0,1,.19,1.79,12.61,12.61,0,0,0-1.22,4.84l0,.36a5.78,5.78,0,0,1-2.23,4.06h.15a1.46,1.46,0,0,1,1.31.45,1.48,1.48,0,0,1,.39,1.33l-.3,1.46a4.7,4.7,0,0,1-5.23,3.72A10.61,10.61,0,0,1,99,105.55c-.65-.91-.1-1.78.34-2.49.67-1.06,1.8-2.85,1.48-4.86,0-.16-.06-.32-.09-.47-.33,1.68-1.17,2.83-2.31,3a1.83,1.83,0,0,1-2.21-1.42A6.72,6.72,0,0,0,94.8,97a2.15,2.15,0,0,0-1.47-.78,10.55,10.55,0,0,1,1.85,3.37,1.5,1.5,0,0,1-.38,1.49,1.52,1.52,0,0,1-1.49.38c-1-.31-2.53-.39-2.94,0a3.11,3.11,0,0,0-1.1,1.8,8.14,8.14,0,0,1,1.41-.87c1.74-.81,3.4-.81,4.45,0a2.92,2.92,0,0,1,.94,3.07,7.39,7.39,0,0,1-3.73,5.07.65.65,0,0,0,.22.11c.67.17,1.86-.5,3.54-2l.41-.36a2.33,2.33,0,0,1,2.78-.13c1.24.81,1.69,2.59,1.15,4.52a4.1,4.1,0,0,1-.44,1l.28-.06c3.4-.8,5.78,1.14,7.36,2.42l.6.48a6.65,6.65,0,0,1,1.67,2,4.67,4.67,0,0,1-1.33,6.09c-2.74,2-6.45,4.19-8.54,3.32a2,2,0,0,1-1.26-1.58q0-.19-.06-.45c-.18-1.5-.46-2.69-2.19-3.13l-.2,0a6.14,6.14,0,0,1,1.22,1.85,4.32,4.32,0,0,1,0,3.52,4.9,4.9,0,0,1-2.83,2.67,4,4,0,0,0-2.09,1.66,2.74,2.74,0,0,0-.52,2.18l0,0a4.18,4.18,0,0,1,.49-1.32c1-1.69,2.89-2.33,4.26-2.67,1.63-.41,2.77-.16,3.37.76.36.54.76,1.73-.63,3.58a2.79,2.79,0,0,0,.25,3.24,1.08,1.08,0,0,0,.67.34,6.6,6.6,0,0,1,0-1.77c.23-1.75.84-4,2.49-4.9a3,3,0,0,1,2.84,0,3.41,3.41,0,0,1,1.46,1.4,3.61,3.61,0,0,1,.31-3c.68-1,1.93-1.55,3.72-1.55a34.1,34.1,0,0,0,6-.53l.63-.09a2.84,2.84,0,0,1,2.84.89,2.47,2.47,0,0,1,.43.77,4.8,4.8,0,0,0,.61-.42,3.9,3.9,0,0,0,1-1.35,6.81,6.81,0,0,1,2.86-3.14c.54-.32,1.2-.67,2-1.06,2.6-1.34,6.16-3.18,8.6-6.28,3.7-4.7,10.33-5.52,10.61-5.55a1.54,1.54,0,0,1,1.24.43,2.36,2.36,0,0,1,.57,1.86,6.73,6.73,0,0,1-2.9,4.74,1.42,1.42,0,0,0-.57,1.2,1.89,1.89,0,0,0,.8,1.46,3.57,3.57,0,0,1,.92.94,25.12,25.12,0,0,1,1.48,2.67,4.77,4.77,0,0,1,.19,3.83,4.51,4.51,0,0,1-2.58,2.61,6.56,6.56,0,0,1-2.46.47,1.5,1.5,0,0,1-1.41-1.86,1.94,1.94,0,0,0-.24-1.69,2.48,2.48,0,0,0-2.07-.71c1.78,1,2.17,3.32,2.09,4.66a1.51,1.51,0,0,1-1.68,1.4,5.13,5.13,0,0,0-3.3,1,1.7,1.7,0,0,0-.64,1.36,2.74,2.74,0,0,0,.18,1,5.17,5.17,0,0,1,1.69-2.16A4.76,4.76,0,0,1,141,134.47Zm-37.56,3.95Zm0,0Zm0,0Zm0,0h0Zm72.26-3.51c-1.08,1-.88,1.79-.82,2a.7.7,0,0,1,.06.19c.05-.24.11-.49.19-.75A10.42,10.42,0,0,1,175.71,134.9Zm-77.4-1.41Zm38.94-3.55h0Zm0,0Zm48.81-6-.07,1.5.13-1.48Zm-29.84-2.84a7.19,7.19,0,0,0,.62.45l-.38-.54ZM133.08,94.28a5.16,5.16,0,0,0-.43,2.9,1.55,1.55,0,0,0,.73,1.27c.93.59,2.58.59,4.46.29a5,5,0,0,1-3.75-.75,3.22,3.22,0,0,1-1.16-2.79A3.41,3.41,0,0,1,133.08,94.28ZM171,92.89c1.49.08,2.92.2,4.33.33a17.55,17.55,0,0,1,5.09,1.17,15,15,0,0,0-3.74-1.09l-.36,0C175.15,93.15,173.31,93,171,92.89Zm-33-2.8a1.24,1.24,0,0,1,.53.12,1.35,1.35,0,0,1,.75.88c.16.3,1,.71,2.95,0a10.32,10.32,0,0,0,4.67-3.87,12.65,12.65,0,0,1-2.43-.2,20.82,20.82,0,0,0-4.08-.29c-1.36.06-2.83.43-2.84,1.3a4.61,4.61,0,0,1-.73,2.48l.5-.23A1.81,1.81,0,0,1,138,90.09Z"/><path d="M145.63,214.51a5.06,5.06,0,0,1-4.91-3.5,6,6,0,0,1-.3-3.64,1.7,1.7,0,0,0-.48.25,2.56,2.56,0,0,0-.93,2.12,1.53,1.53,0,0,1-.48,1.2,1.49,1.49,0,0,1-1.22.4,4.8,4.8,0,0,1-4-5,4.73,4.73,0,0,1,1.64-3.61A7.7,7.7,0,0,1,138.7,201a1,1,0,0,0-.65-.68,3.22,3.22,0,0,0-1.1-.13,1.52,1.52,0,0,1-1.65.33,1.49,1.49,0,0,1-.82-1.92,6,6,0,0,1,5.48-3.77,5.27,5.27,0,0,1,4.29,1.86,4.44,4.44,0,0,1,.88,2,1.61,1.61,0,0,0,.65-.78,1.8,1.8,0,0,0-.07-1.42c-.53-1.05-1-1.86-1.29-2.34a1.06,1.06,0,0,0-.15-.15,4.88,4.88,0,0,1-2.08-3.83,4.37,4.37,0,0,1,1.66-3.59l.1-.08a5.36,5.36,0,0,0,1.16-1.21,12.83,12.83,0,0,0-6.51,4c-2.85,3.61-6.9,5.71-9.58,7.1-.69.35-1.3.67-1.8,1a3.94,3.94,0,0,0-1.73,1.94,6.76,6.76,0,0,1-1.7,2.27,5.77,5.77,0,0,1-4.23,1.51,1.48,1.48,0,0,1-1.1-.71,1.52,1.52,0,0,1-.12-1.3.64.64,0,0,0,0-.07l-.57.09a37.64,37.64,0,0,1-6.38.55,2.21,2.21,0,0,0-1.22.21,2.7,2.7,0,0,0,.33,1.23,4.78,4.78,0,0,1-.1,4.26,4.88,4.88,0,0,1-3.69,2.36,1.51,1.51,0,0,1-1.29-.45,1.46,1.46,0,0,1-.4-1.3c.24-1.38.09-3.2-.47-3.47a.35.35,0,0,0-.16-.06,5.21,5.21,0,0,0-.85,2.62,2.49,2.49,0,0,0,.07,1.33,1.55,1.55,0,0,1,.49,1.17,1.5,1.5,0,0,1-.77,1.25,4.69,4.69,0,0,1-5.63-.64,5.78,5.78,0,0,1-.84-6.52,2.1,2.1,0,0,0-1.61,3.17,1.5,1.5,0,0,1-.34,1.43,1.47,1.47,0,0,1-1.4.45c-.32-.06-3.11-.69-4.13-3-.64-1.46-.41-3.12.7-4.94a6.91,6.91,0,0,1,3.62-2.93,1.91,1.91,0,0,0,1.1-1,1.38,1.38,0,0,0,0-1.13A2.38,2.38,0,0,0,92.15,194a1.54,1.54,0,0,1-1.46-.79,1.51,1.51,0,0,1,.15-1.64,6.26,6.26,0,0,1,6.44-1.88,5.67,5.67,0,0,1,4.35,5.19,17.28,17.28,0,0,0,5.18-2.87,1.68,1.68,0,0,0,.5-2.17,3.72,3.72,0,0,0-.89-1.13l-.67-.53c-1.38-1.13-2.82-2.29-4.78-1.83a17,17,0,0,1-6.52.19,1.5,1.5,0,0,1,0-2.94c.89-.18,2.82-.9,3.11-1.92a3.22,3.22,0,0,0,.11-.6c-1.32,1.13-3.57,2.84-5.85,2.26a4.52,4.52,0,0,1-3-3.2,1.51,1.51,0,0,1,1-2,4.76,4.76,0,0,0,3.3-3.5.52.52,0,0,0,0-.11,3.74,3.74,0,0,0-1.82.69c-.73.5-1.06,1-1.07,1.34a1.5,1.5,0,0,1-2.7.85A6.11,6.11,0,0,1,88.4,169a4.41,4.41,0,0,1,2.67-1,5.05,5.05,0,0,0-1.66-1.39,1.5,1.5,0,0,1,0-2.66c1.66-.91,5.42-1.89,7.75.93.29.36.54.68.75,1v-.12l-.23-2.3A1.51,1.51,0,0,1,99.75,162a7.6,7.6,0,0,1,4,5.58,9.92,9.92,0,0,1-1.8,6.75,7.56,7.56,0,0,0,4.78,2.42,1.69,1.69,0,0,0,1.82-1.1,4.28,4.28,0,0,1-3.17-2.55,1.52,1.52,0,0,1,.11-1.36,1.47,1.47,0,0,1,1.16-.71,2.91,2.91,0,0,0,2.62-2.68l0-.35a17.63,17.63,0,0,1,1.13-5.06,11.79,11.79,0,0,1-1.86-3.72,1.49,1.49,0,0,1,1.14-1.85c1.36-.28,3.91-.25,5.41,1.41a11.33,11.33,0,0,1,3.33-.44,12.75,12.75,0,0,1,3.42.44,9.79,9.79,0,0,1,5.15-1.53,1.5,1.5,0,0,1,1.56,1.95,14.77,14.77,0,0,1-1.25,2.66,1.74,1.74,0,0,0-.06,1.59,12.64,12.64,0,0,1,.92,5c0,1.93.9,2.12,2.39,2.21l.34,0a1.5,1.5,0,0,1,1,2.45,8.56,8.56,0,0,1-2.49,2,1.7,1.7,0,0,0,1.39.44c11.51-1.66,24.28-3.52,25.58-3.76,2-.36,5.37,1.34,6.74,2.09a1.74,1.74,0,0,0,1.48.06c2.48-1.07,5.45-2.06,8.67-1.25,4.55,1.14,8.2.83,9.47-.06a.73.73,0,0,0,.39-.57,4.1,4.1,0,0,0-1-3.11c-1.33-1.61-3.87-2.67-7.15-3A61,61,0,0,0,148,168.86l-.84.28c-6.21,2.06-12.06,3.74-15.33,1.68a4.56,4.56,0,0,1-2.1-3.43A8.47,8.47,0,0,1,134,158.9a1.3,1.3,0,0,0,.51-1.14c0-.94.48-4,5.72-4.24a23.63,23.63,0,0,1,4.63.32c1.82.26,2.3.28,2.87-.22l.31-.29a1.86,1.86,0,0,1,2.3-.57c1.1.64.77,1.9.55,2.73a13.39,13.39,0,0,1-7.61,8.18,6.36,6.36,0,0,1-4.9.24,4,4,0,0,1-.92-.56c-.75.46-1.54,1.14-1.56,1.79a.87.87,0,0,0,0,.34s.63.49,3.61-.31c1.21-.32,2.46-.69,3.8-1.09A117.41,117.41,0,0,1,158,160.52a69,69,0,0,1,18.66-.41l.35,0c2.5.24,8.36,2.25,11.17,6a7.8,7.8,0,0,1,1.51,6.39,8.51,8.51,0,0,1-3.79,5.87c-3.66,2.33-9,1.67-12.76.7a4.92,4.92,0,0,0-.83-.13,1.56,1.56,0,0,0-1.44.76,1.82,1.82,0,0,0,0,1.9c1.43,2.33,3,3.6,6.47,2.75a4.57,4.57,0,0,1,4.08,1.06,6.11,6.11,0,0,0,2.48,1.35c3.06.74,3.48,2.45,3.62,4,0,.14,0,.29,0,.43a4.65,4.65,0,0,1-.61,2.54l0,.05c1.91.14,4.84.44,6.31,2.41a4.59,4.59,0,0,1,.64,3.89,1.52,1.52,0,0,1-.89,1.05,1.48,1.48,0,0,1-1.37-.12,3.74,3.74,0,0,0-3.44-.22l.16.12a5.71,5.71,0,0,1,2.27,7.33,5.35,5.35,0,0,1-4.29,2.86,1.49,1.49,0,0,1-1.69-1.88s.57-2.37-.57-2.83a1.31,1.31,0,0,0-1.24,0c-.94.53-1.7,2.22-2.06,4.53a1.46,1.46,0,0,1-.63,1,1.51,1.51,0,0,1-1.17.24,5.77,5.77,0,0,1-3.55-2.44,4.07,4.07,0,0,1-.54-2,1.59,1.59,0,0,1-.46.61,1.5,1.5,0,0,1-1.8,0c-.27-.19-2.62-1.94-2.66-4.54a5.27,5.27,0,0,1,2.43-4.3,17.82,17.82,0,0,1,2.36-1.54,1.69,1.69,0,0,0-.51-3.16l-.38-.05c-2.48-.3-5.17-.38-7.54-.45a35.06,35.06,0,0,1-6.27-.49,4.66,4.66,0,0,1,.11,5.24,4.27,4.27,0,0,0-.54,1.3,12,12,0,0,1-4.45,6.3,5.39,5.39,0,0,1-.37,3,6.05,6.05,0,0,1-3.86,3.15,1.48,1.48,0,0,1-1.32-.19,1.52,1.52,0,0,1-.65-1.16,7.32,7.32,0,0,0-.9-3.36,4.43,4.43,0,0,0-1.35,2.06c-.27.76.59,1.49.6,1.5a1.5,1.5,0,0,1-.59,2.63A4.4,4.4,0,0,1,145.63,214.51ZM141,204.29a6,6,0,0,1,2.6.6,1.49,1.49,0,0,1,.83,1.31,1.47,1.47,0,0,1-.79,1.34c-.09.07-.78.65-.12,2.42a2.37,2.37,0,0,0,.13.32,4.16,4.16,0,0,1,.22-1c.54-1.55,1.77-3.52,3.46-4a2.72,2.72,0,0,1,2.51.52,6.06,6.06,0,0,1,1.78,3.36,2,2,0,0,0,.42-.61,2.64,2.64,0,0,0,0-1.8,1.5,1.5,0,0,1,.53-1.83,9.38,9.38,0,0,0,4.11-5.22,7.44,7.44,0,0,1,1-2.23,1.75,1.75,0,0,0-.54-2.29c-.41-.31-.85-.58-1.27-.85a6.92,6.92,0,0,1-2.53-2.2,2.49,2.49,0,0,1-.15-2.36c.75-1.56,3.07-2,3.76-2.13a1.48,1.48,0,0,1,1.55.78,9.45,9.45,0,0,0,2,2.52c.59.32,3.56.41,5.94.48s5.19.16,7.8.47l.5.07a4.69,4.69,0,0,1,1.45,8.77,13.61,13.61,0,0,0-1.94,1.27,4.6,4.6,0,0,0-.94.93,7.31,7.31,0,0,1,1.16-1c3-2.1,5.49-.85,6.39.1a1.5,1.5,0,0,1-1,2.53s-1.14.24-1.87,2.5a1.46,1.46,0,0,0,0,1.24,2.47,2.47,0,0,0,.21.27,7.46,7.46,0,0,1,3.13-4.71,4.3,4.3,0,0,1,3.85-.19,4.21,4.21,0,0,1,2.54,3.62,1.75,1.75,0,0,0,.18-.29,3.21,3.21,0,0,0-.25-2.66,4.3,4.3,0,0,0-1.07-.94c-.83-.6-1.88-1.35-1.84-2.64a3,3,0,0,1,1.6-2.31,5.89,5.89,0,0,1,3.86-.91,10.75,10.75,0,0,0-3.78-.73l-.58-.05a2.35,2.35,0,0,1-2-1.09c-.62-1.07-.1-2.21.32-3.13a5.76,5.76,0,0,0,.37-.94,2.84,2.84,0,0,1-.06-.5c-.09-.91-.11-1.05-1.34-1.35a8.89,8.89,0,0,1-3.76-2,1.58,1.58,0,0,0-1.39-.39c-5.63,1.37-8.25-1.68-9.74-4.1a4.8,4.8,0,0,1,0-5,4.48,4.48,0,0,1,4.2-2.21,7.4,7.4,0,0,1,1.37.23c4.56,1.15,8.26,1,10.42-.33a5.62,5.62,0,0,0,2.45-3.91,4.89,4.89,0,0,0-1-4,12.33,12.33,0,0,0-4.66-3.46,9.9,9.9,0,0,1,3.45,2.6,7.14,7.14,0,0,1,1.65,5.32,3.74,3.74,0,0,1-1.66,2.73c-2.7,1.9-8.11,1.46-11.92.51-2.35-.59-4.63.18-6.75,1.09a4.67,4.67,0,0,1-4.09-.18c-2.68-1.44-4.4-1.81-4.79-1.76-1.68.3-20.08,3-25.68,3.76a4.67,4.67,0,0,1-5.15-3.23c-.16-.53-.24-.84-.24-.84a1.48,1.48,0,0,1,.35-1.39,1.44,1.44,0,0,1,.83-.46,4.77,4.77,0,0,1-1.87-4.21,9.66,9.66,0,0,0-.67-3.81,4.81,4.81,0,0,1,0-3.9,2.52,2.52,0,0,0-1.13.7,1.5,1.5,0,0,1-1.71.44,8.91,8.91,0,0,0-3.24-.54,7.35,7.35,0,0,0-3.27.63,1.46,1.46,0,0,1-1.21,0,1.53,1.53,0,0,1-.86-.85,1.28,1.28,0,0,0-.75-.73,9.32,9.32,0,0,0,.56.83l.39.46a1.49,1.49,0,0,1,.19,1.79,12.61,12.61,0,0,0-1.22,4.84l0,.36a5.8,5.8,0,0,1-2.23,4.06l.15,0a1.51,1.51,0,0,1,1.7,1.79l-.3,1.46a4.71,4.71,0,0,1-5.23,3.72A10.63,10.63,0,0,1,99,175.38c-.65-.91-.1-1.79.34-2.49.67-1.07,1.8-2.85,1.48-4.86,0-.16-.06-.32-.09-.47-.33,1.67-1.17,2.82-2.31,3a1.85,1.85,0,0,1-2.21-1.42,6.82,6.82,0,0,0-1.39-2.32,2.18,2.18,0,0,0-1.47-.77,10.55,10.55,0,0,1,1.85,3.37,1.5,1.5,0,0,1-1.87,1.86c-1-.31-2.53-.38-2.94,0a3.12,3.12,0,0,0-1.1,1.79,7.51,7.51,0,0,1,1.41-.86c1.74-.81,3.4-.81,4.45,0a2.93,2.93,0,0,1,.94,3.07,7.41,7.41,0,0,1-3.73,5.08.62.62,0,0,0,.22.1c.67.18,1.86-.49,3.54-2l.41-.35a2.33,2.33,0,0,1,2.78-.14c1.24.82,1.69,2.6,1.15,4.52a4.17,4.17,0,0,1-.44,1l.28-.06c3.39-.8,5.78,1.14,7.36,2.42l.6.48a6.53,6.53,0,0,1,1.67,2,4.67,4.67,0,0,1-1.33,6.09c-2.74,2-6.45,4.19-8.54,3.32a2,2,0,0,1-1.26-1.59c0-.13,0-.28-.06-.44-.18-1.51-.46-2.69-2.19-3.13l-.2,0a6.14,6.14,0,0,1,1.22,1.85,4.32,4.32,0,0,1,0,3.52,4.89,4.89,0,0,1-2.84,2.67,3.93,3.93,0,0,0-2.08,1.66,2.67,2.67,0,0,0-.51,2.19v0a4.22,4.22,0,0,1,.49-1.31,6.46,6.46,0,0,1,4.26-2.68c1.63-.41,2.77-.15,3.37.77.36.54.76,1.73-.63,3.58a2.79,2.79,0,0,0,.25,3.24,1.2,1.2,0,0,0,.67.34,6.6,6.6,0,0,1,0-1.77c.23-1.76.84-4,2.49-4.91a3,3,0,0,1,2.84,0,3.43,3.43,0,0,1,1.46,1.41,3.64,3.64,0,0,1,.31-3c.68-1,1.93-1.55,3.72-1.55a33.91,33.91,0,0,0,5.93-.52L118,198a2.84,2.84,0,0,1,2.84.88,2.51,2.51,0,0,1,.43.78,4.06,4.06,0,0,0,.61-.43,3.81,3.81,0,0,0,1-1.35,6.84,6.84,0,0,1,2.86-3.13c.54-.32,1.21-.67,2-1.06,2.59-1.34,6.15-3.18,8.59-6.28,3.7-4.7,10.33-5.52,10.61-5.55a1.47,1.47,0,0,1,1.24.43,2.36,2.36,0,0,1,.57,1.86,6.75,6.75,0,0,1-2.9,4.74,1.42,1.42,0,0,0-.57,1.19,1.9,1.9,0,0,0,.8,1.47,3.43,3.43,0,0,1,.92.94,25.81,25.81,0,0,1,1.48,2.66,4.78,4.78,0,0,1,.19,3.83,4.53,4.53,0,0,1-2.58,2.62,6.56,6.56,0,0,1-2.46.47,1.5,1.5,0,0,1-1.15-.6,1.47,1.47,0,0,1-.26-1.27,2,2,0,0,0-.24-1.69,2.51,2.51,0,0,0-2.07-.7c1.78,1.05,2.17,3.32,2.09,4.66a1.51,1.51,0,0,1-.54,1.06,1.48,1.48,0,0,1-1.14.34,5.11,5.11,0,0,0-3.3,1.05,1.69,1.69,0,0,0-.64,1.36,2.74,2.74,0,0,0,.18,1,5.11,5.11,0,0,1,1.69-2.16A4.77,4.77,0,0,1,141,204.29Zm-37.56,4Zm0,0Zm0,0h0Zm0,0Zm72.26-3.51c-1.16,1-.84,1.91-.84,1.92a1.13,1.13,0,0,1,.08.24,6,6,0,0,1,.19-.76A10.42,10.42,0,0,1,175.71,204.73Zm-77.4-1.41Zm89.33-2.09ZM118.75,201Zm18.5-1.22Zm0,0Zm19-8.85c.17.14.39.29.62.45l-.38-.54Zm-23.15-26.81a5.25,5.25,0,0,0-.42,2.9,1.55,1.55,0,0,0,.73,1.27c.93.59,2.58.58,4.45.29a5,5,0,0,1-3.74-.75,3.23,3.23,0,0,1-1.16-2.8A3.84,3.84,0,0,1,133.07,164.11Zm37.92-1.4c1.5.08,2.94.2,4.36.34a17.7,17.7,0,0,1,5.11,1.17,15.18,15.18,0,0,0-3.76-1.09l-.35,0C175.15,163,173.3,162.8,171,162.71Zm-33-2.79a1.11,1.11,0,0,1,.53.12,1.32,1.32,0,0,1,.75.88c.16.29,1,.71,2.95,0a10.36,10.36,0,0,0,4.67-3.86,13.58,13.58,0,0,1-2.43-.2,20.07,20.07,0,0,0-4.08-.29c-1.36.06-2.83.42-2.84,1.29a4.61,4.61,0,0,1-.73,2.48,5.2,5.2,0,0,1,.5-.22A1.81,1.81,0,0,1,138,159.92Z"/></svg>