<svg id="Calque_1" data-name="Calque 1" xmlns="http://www.w3.org/2000/svg" viewBox="0 0 300 300"><defs><style>.cls-1{fill:#1d1d1b;}.cls-2{fill:none;stroke:#000;stroke-linejoin:round;stroke-width:5px;}</style></defs><title>picto_champagne_ardennes</title><path class="cls-1" d="M150,6A144,144,0,0,1,251.82,251.82,144,144,0,1,1,48.18,48.18,143,143,0,0,1,150,6m0-6A150,150,0,1,0,300,150,150,150,0,0,0,150,0Z"/><path class="cls-2" d="M250.4,158.76c-1.55.09-2.39-1.19-3.21-1.73,0,0-2.69-2.48-3.4-4.57-.77-2.29-3.73-4.33-6.87-5.84a14.65,14.65,0,0,1-7.39-10.91s-1.18-13.28-12.1-15.25a7.19,7.19,0,0,1-4.15-2.82c-1.42-1.92-5.23-3.79-7.22-4.82a1.61,1.61,0,0,0-2.52,1.42,39.18,39.18,0,0,0,.13,4.06s-5.85-4.35-5.68-3.92c1.25,3.18-2-1-1.6-.08s-.29,1.34-.74,1.42L193,114.41l.34.52-4.46-1.55-1.11-.17-5-1.29.94.78s-4.88-.69-7-.69,2.07.6,2.07.6l-2.92.26-3.78-1.12,2.15,1.2-3.35-.6.43,1.2-2.23-2.06,1,2.15-1.63-.17-3.43-.43,1.89,1.11-2.32-.08a5.3,5.3,0,0,1,.66.48l-.91,0-1.64-.18.32.25c-.63,0-1.14.11-1.43.16l-.31.06-1.15-.21.53.29c-2.09.24-6.09.51-7.47,1.41-.71.46-3.55,1.77-6.56,3.13a44.7,44.7,0,0,1-17,3.9c-3.41.1-6.63.22-7.11.31-1.06.19-5,.48-6.09.87s-16.12,7.15-16.8,8-6.37,1.83-7.34,1.16-.58-3.39-.58-4.35.29-7.15-.19-9.08a28.52,28.52,0,0,0-6.18-10c-3.1-3.09-2.81-4-2.81-4s-1.25-5-3.28-6.86A24.67,24.67,0,0,1,81.37,104a14.24,14.24,0,0,1,.2,2s-4.74-8.21-7-9.47a64,64,0,0,1,3.29,5.8l-4.25-4.06s4.34,6.18,5.79,7.15.77,1.64.77,1.64l-1.54-1.16-6.09-4.73s2.51,2.51,3.38,3.57,2.9,2.32,3.38,3,2.9,2.13,2.8,3-6.85-4.64-6.85-4.64,6.47,6.09,7.43,6.28S84.46,115,85,115.69s2.6,2.61,2.89,4.54l-1.16-1.06s1.26,2,.68,1.64a3.7,3.7,0,0,0-1.35-.48s.77,2,.87,2.61.19,2.8.19,2.8l-1.45-2.61,1,3.29.19,3.18a10.74,10.74,0,0,1-1.54-2.7,11,11,0,0,0,.29,2.51H83.21l1.35.87-1.74.38,2.61,1s-2.7-.39-4,1l2.41.29a6.18,6.18,0,0,0-3.28,1.43l4.4.73s-3.67.49-4.32,1.63l2.69.33s-2.37,1.14-2.61,2.12l2.77.33s-2.69,1.54-2.69,3.34l2.28.24-2.2,1.39,1.72.24-1.88,1,1.14.66a8.35,8.35,0,0,0-2.28,3.58l1.55.09a17.18,17.18,0,0,1-.49,2,6.57,6.57,0,0,0-1,1.88c-.08.65-.16,2.45-.16,2.45l1.79-.74a4.21,4.21,0,0,1-2.53,2.2l2.2.49.82,1.23s-2.28.16-2.77,1l1.06,1.15.08.89-2.2-.24s2.61,2,2.2,2H78.88l-.32,1.55s-1,.13-1.24.5a2.53,2.53,0,0,0-1.08,0c-.7-.64-2.24-1.66-3.23.62,0,0-2.2.65-2.61.16a4,4,0,0,0,0,2.94s-.57,1.3-2.28-.33l.11,1.18a5.32,5.32,0,0,0-4.94,2.45s-4.51,6.47-5.32,8.82c0,0-3.24,5.65-7.86,6a1.19,1.19,0,0,0,1,1.14c-.84-.09-3.12-.2-3.5,1-.22.67-.58,2.35,0,2.82l10.53-1.76s1.06-.35,3.12-2.82c.9-1.08,1.19-3.4,3.24-4.59.73-.43,5.14-.18.46,3.41-2.59,2-8.1,3.29-10.06,8.35,0,0,5.9.49,8,0,2.37-.56,7-.56,8.91-6.82.69-2.24,3.07-3.77,13.45-2,0,0,12.27,1.75,24.45-7.26l-.5,1.6,2.85-2.2s4.65-1.47,5.14-3a1.85,1.85,0,0,1-.08,2.61,3.89,3.89,0,0,0,2-3.1l1,.08-.25,1.55,2-1.63.9.25-1.63,2,1.87-.81-.49,1.79,2.53-2.2.57.25-1.79,3L126.1,177l.57.08-1.79,3.75,2.94-2.85,1.06.24-1.06,3.92,2.93-2.94-1.3,3.43,1.79-1.72s-1.22,2.94-.65,4.57c0,0,1.3-5.22,4.08-6.44a29.93,29.93,0,0,0-.33,8.07s1.14-6,2.77-7.42l.66.08-1.64,2.69,4.73-3.83h1.64l-2.45,2.94,5.3-3-1.71,2.77,4.73-3.67s-3.51,3.67-3.75,6.36c0,0,3.26-5.22,5.13-5.79,0,0-3.83,4.57-3.75,6.2,0,0,3-4.32,6.28-6,0,0-2.69,3-2.77,4.89,0,0,4.32-5.38,6.61-5.87l-5.22,5.71,5.79-5.22-3.51,5.62,4.57-4.24-2.94,5.55,5.55-7.67,1.14-.08-3.75,6.36,5.7-6.44.41.08-2.93,4.41s4.24-4.49,5.13-4.9c0,0-2.61,2.94-2.61,5,0,0,2.83-3.68,4.16-4.16a11.76,11.76,0,0,1,4-.66l.68.5,3.48.75c1.63,3.22,7.44,8.59,7.44,8.59.11,1.17.1,2.16.1,2.16l.77-2.32c-.15,2.24,0,7.81,0,7.81a18.38,18.38,0,0,1,1.63-3.08c-1.16,4.19-.69,14.24-.69,14.24a5.78,5.78,0,0,0,1.38-3.36,3.36,3.36,0,0,0,4,3.33,14.51,14.51,0,0,1-.62-5.41,80.38,80.38,0,0,1,1.85-9.13c.47.93.55,4.87.55,4.87l1-7.65c.69.31.85,2.94.85,2.94a31.69,31.69,0,0,0,.69-4.41,8.8,8.8,0,0,1,.86,2.69l.77-6.55c.69.38.77,3.17.77,3.17a32.82,32.82,0,0,0,.59-3.61c.17.39.34.47.63-.39,0,0,7.62-.9,7.66-1.14.16-.76,4.57-.44,4.64-.46a5.11,5.11,0,0,1,1.7-.18c2.67-.56,6,.87,8.24,1.78,1.44.58,10.12,4.21,11.73,4.89a1.73,1.73,0,0,1-.95-2.14c1.94,1.63,5.63,1.73,5.58-1.18-1.41-.08-6.55-2.3-11.63-5.84,0,0-2.12-3.23-2.39-3.84A1.25,1.25,0,0,0,222,173a44.67,44.67,0,0,1-6.15-2.91,14.23,14.23,0,0,0-2.93-.9c-.74,0-.65-.81-1.31-.81s-.4-1.23-1.47-1.47-1.79-1.63-1.79-1.63,2.69-.25,3.67-.25,1.31.66.57,1.06l2.37-.73-.9,1.39s2.55-.82,3.42-1,3.09-.27,3.09-.27l-.38.47a3.37,3.37,0,0,1,1.52.39,14.53,14.53,0,0,1,4.64-.14c4,.66,5.65,2.25,8.86,2,0,0,7.1-.78,8.54-.82.85,0-1.19-2.56-4-4.92l1.4-.7s4.57,2.85,4.26,4.18c0,0,1.62-1.08,2-1.41a5.14,5.14,0,0,1,3.09-2.15c.27-.07,1.72-.54,1.72-1.63C252.25,159.29,252,158.65,250.4,158.76Zm-67.85,24.82A5.94,5.94,0,0,1,183,185,8.72,8.72,0,0,1,182.55,183.58ZM239,161.82a17.06,17.06,0,0,0-5.36-3.06s5.2.16,5.36,2.48Z"/></svg>