<svg id="Calque_1" data-name="Calque 1" xmlns="http://www.w3.org/2000/svg" viewBox="0 0 84.43 93.41"><title>09_k_HEALTH BEAUTY BIO</title><path d="M67.3,58.68a10.55,10.55,0,0,1,3.18-5.59,1,1,0,0,0-.71-1.71c-4.37,0-9,2-12.72,4.31.72-2,.78-3.53-.13-4.42l-4.73-4.65a2.5,2.5,0,0,0-1.84-.68c-2.16,0-6,2-10.6,5.48v-4a1,1,0,0,0-1-1l-.13,0V23.33a1,1,0,0,0-1-1,1,1,0,0,0-.41.1V14.61c0-4.43-2.91-8-6.49-8h-.07l-.2,0-.18.07-.08,0-.08.07-.1.07-.57.56c-2.44,2.42-5.21,5.17-5.21,9.17v5.82a1,1,0,0,0-1.42.9v23.1l-.13,0a1,1,0,0,0-1,1V68.07a108.05,108.05,0,0,0-10,12.53C8,86.11,6.94,89.52,8.48,91.05l4.73,4.64a2.47,2.47,0,0,0,1.83.67c1.87,0,4.7-1.32,8.56-4,2-1.35,4.08-3,6.29-4.84v5.65c0,5.38,20.39,6.81,31.16,6.81s31.17-1.43,31.17-6.81V65.36C92.22,60.15,73.29,58.93,67.3,58.68Zm22.92,6.68c0,.48-.9,1.09-2.65,1.72-3-2.62-8.89-4-17-4a3,3,0,0,1-3.08-1.85,3.09,3.09,0,0,1-.17-.54C82.56,61.31,90.22,64,90.22,65.36ZM67.42,53.59a10.56,10.56,0,0,0-2.19,6v.05A6,6,0,0,0,65.67,62a5,5,0,0,0,4.93,3.08c6.69,0,11.66.94,14.57,2.73-4.8,1.25-13,2.36-24.12,2.36-4.6,0-9.14-.21-13.25-.6a80.91,80.91,0,0,0,7.4-10.09A28.18,28.18,0,0,1,67.42,53.59ZM24.81,25a24.88,24.88,0,0,0,5.91.52,24.78,24.78,0,0,0,5.9-.52V47.23a21.89,21.89,0,0,1-5.9.6,21.93,21.93,0,0,1-5.91-.6ZM35.21,14.6v8.6a29,29,0,0,1-4.49.3,29,29,0,0,1-4.49-.3V17.56c2.81-.22,5-1.39,6.07-3.31a6.14,6.14,0,0,0,.26-5.11A6.33,6.33,0,0,1,35.21,14.6ZM30.46,9.26a4.49,4.49,0,0,1,.09,4,5.23,5.23,0,0,1-4.23,2.27C26.75,13.08,28.58,11.13,30.46,9.26ZM23.68,48.89c.95.5,2.91.94,7,.94s6.09-.44,7-.94V53A137.11,137.11,0,0,0,25.49,64.06l-1.81,1.88v-17ZM13.29,81.72A117.5,117.5,0,0,1,26.92,65.47C38.11,54.09,47.35,48,50.35,48a.78.78,0,0,1,.44.09C52,49.19,47,58.75,33.76,72.2,22.57,83.58,13.33,89.72,10.33,89.72a.68.68,0,0,1-.44-.1C9.6,89.34,9.6,87.27,13.29,81.72Zm9.18,9c-5.49,3.79-7.57,3.82-7.86,3.53l-2.84-2.79c4.78-1.31,14-8.28,23.42-17.88,6.12-6.22,16-17.6,17.49-23.7l2.84,2.79c1.16,1.14-3.8,10.71-17,24.16A118.36,118.36,0,0,1,22.47,90.74ZM61.05,98c-18.86,0-29.16-3.17-29.16-4.8V85.83c2.62-2.29,5.33-4.84,8-7.58,1.86-1.9,4.08-4.28,6.3-6.84a140.56,140.56,0,0,0,14.83.75c7.62,0,20-.71,26.64-3h0A13.92,13.92,0,0,0,90.22,68V93.2C90.22,94.83,79.92,98,61.05,98ZM54.13,64a1,1,0,0,1,2,0c0,1.08,3,2.48,6.29,2.48a1,1,0,1,1,0,2C59.08,68.43,54.13,67,54.13,64Z" transform="translate(-7.79 -6.59)"/></svg>