<?xml version="1.0" encoding="utf-8"?>
<!-- Generator: Adobe Illustrator 16.0.0, SVG Export Plug-In . SVG Version: 6.00 Build 0)  -->
<!DOCTYPE svg PUBLIC "-//W3C//DTD SVG 1.1//EN" "http://www.w3.org/Graphics/SVG/1.1/DTD/svg11.dtd">
<svg version="1.1" xmlns="http://www.w3.org/2000/svg" xmlns:xlink="http://www.w3.org/1999/xlink" x="0px" y="0px" width="100px"
	 height="100px" viewBox="0 0 100 100" enable-background="new 0 0 100 100" xml:space="preserve">
<g id="Calque_2">
</g>
<g id="Calque_1">
	<path d="M65.813,8.135c-18.852,0-34.188,9.271-34.188,20.667v8.556c0,1.171,0.165,2.338,0.482,3.484
		C14.047,42.538,0.169,52.122,0.169,63.654c0,3.316,1.019,6.381,3.094,9.333C1.342,74.002,0,76.678,0,79.908
		c0,3.317,1.574,5.83,4.551,7.266c6.684,3.224,20.029,4.674,33.291,4.674c14.365,0,28.63-1.702,34.217-4.693
		c3.037-1.624,4.514-3.994,4.514-7.247c0-3.613-1.676-6.541-3.966-7.218c1.919-2.857,2.897-5.916,2.897-9.119
		c0-2.133-0.488-4.197-1.383-6.159C89.2,55.149,100,46.851,100,37.357v-8.556C100,17.406,84.664,8.135,65.813,8.135z M65.813,10.135
		C83.562,10.135,98,18.509,98,28.802c0,9.647-11.668,19.752-31.208,20.08c-6.56-4.811-16.265-7.967-27.171-8.279
		c-3.861-3.42-5.996-7.596-5.996-11.801C33.625,18.509,48.064,10.135,65.813,10.135z M33.625,37.357v-1.008
		c0.805,1.482,1.844,2.907,3.103,4.243c-0.865,0.016-1.725,0.044-2.574,0.095C33.809,39.593,33.625,38.477,33.625,37.357z
		 M74.572,79.908c0,2.514-1.066,4.206-3.457,5.484C60.94,90.839,18.638,91.75,5.42,85.373C3.119,84.263,2,82.476,2,79.908
		c0-2.598,1.153-4.898,2.557-5.298c5.702,5.743,25.757,6.202,31.913,6.202c0.001,0,0.001,0,0.003,0
		c13.926,0,30.473-1.988,34.768-6.34c0.108,0.041,0.224,0.07,0.347,0.07C73.177,74.542,74.572,77.05,74.572,79.908z M70.017,72.85
		c-2.724,3.399-17.144,5.963-33.543,5.963c-0.001,0-0.003,0-0.004,0c-15.592,0-27.547-2.277-30.665-5.812
		c-0.059-0.088-0.125-0.165-0.208-0.23c-2.304-2.902-3.427-5.885-3.427-9.117c0-11.623,16-21.079,35.667-21.079
		c11.277,0,21.342,3.101,27.883,7.926c0.112,0.143,0.254,0.256,0.428,0.32c2.394,1.837,4.28,3.913,5.544,6.155
		c0.034,0.087,0.08,0.163,0.135,0.235c1.087,2.007,1.678,4.144,1.678,6.36C73.504,66.887,72.363,69.921,70.017,72.85z M98,37.357
		c0,8.632-10.425,16.211-24.877,18.173c-1.03-1.679-2.371-3.266-3.982-4.734C84.196,49.977,94.029,43.685,98,36.328V37.357z
		 M65.813,32.148c5.449,0,11.241-1.826,11.241-5.208s-5.792-5.208-11.241-5.208c-5.451,0-11.244,1.825-11.244,5.208
		S60.362,32.148,65.813,32.148z M65.813,23.732c5.642,0,9.241,1.9,9.241,3.208s-3.6,3.208-9.241,3.208
		c-5.643,0-9.244-1.9-9.244-3.208S60.171,23.732,65.813,23.732z M76.38,34.5c0.189,0.18,0.29,0.44,0.29,0.71
		c0,0.26-0.101,0.52-0.29,0.7c-0.19,0.19-0.44,0.3-0.71,0.3c-0.26,0-0.521-0.11-0.71-0.3c-0.18-0.18-0.29-0.44-0.29-0.7
		c0-0.27,0.11-0.53,0.3-0.71C75.33,34.13,76.01,34.13,76.38,34.5z M62.12,35.92c0.189,0.19,0.29,0.45,0.29,0.71
		c0,0.27-0.101,0.52-0.29,0.71c-0.181,0.19-0.44,0.29-0.71,0.29c-0.261,0-0.521-0.1-0.71-0.29c-0.181-0.18-0.29-0.44-0.29-0.71
		c0-0.26,0.109-0.52,0.29-0.7C61.069,35.55,61.75,35.55,62.12,35.92z M70.47,39.8c0.19,0.18,0.3,0.44,0.3,0.71
		c0,0.26-0.109,0.52-0.3,0.7c-0.18,0.19-0.439,0.3-0.7,0.3c-0.27,0-0.52-0.11-0.71-0.3c-0.189-0.18-0.29-0.44-0.29-0.7
		c0-0.27,0.101-0.53,0.29-0.71C69.43,39.43,70.1,39.42,70.47,39.8z M41.08,32.78c0-0.26,0.11-0.52,0.29-0.7
		c0.38-0.38,1.04-0.38,1.42,0c0.18,0.18,0.29,0.44,0.29,0.7c0,0.27-0.11,0.52-0.29,0.71c-0.19,0.19-0.45,0.29-0.71,0.29
		c-0.26,0-0.52-0.1-0.71-0.29C41.19,33.3,41.08,33.05,41.08,32.78z M86.41,36.7c-0.19-0.19-0.301-0.45-0.301-0.71
		c0-0.26,0.11-0.52,0.301-0.71c0.37-0.37,1.04-0.37,1.409,0.01c0.19,0.18,0.301,0.44,0.301,0.7c0,0.27-0.11,0.52-0.301,0.71
		c-0.18,0.18-0.439,0.29-0.71,0.29C86.85,36.99,86.59,36.88,86.41,36.7z M56.819,17.24c-0.189-0.19-0.289-0.44-0.289-0.71
		c0-0.26,0.1-0.52,0.289-0.71c0.381-0.37,1.04-0.36,1.41,0c0.19,0.19,0.301,0.45,0.301,0.71c0,0.26-0.11,0.52-0.301,0.71
		c-0.18,0.19-0.439,0.29-0.699,0.29C57.26,17.53,57.01,17.43,56.819,17.24z M83.2,28.56c-0.19-0.19-0.29-0.44-0.29-0.71
		c0-0.26,0.1-0.52,0.29-0.71c0.38-0.37,1.04-0.37,1.409,0c0.19,0.19,0.301,0.45,0.301,0.71c0,0.27-0.11,0.52-0.301,0.71
		c-0.18,0.18-0.439,0.29-0.699,0.29C83.64,28.85,83.39,28.74,83.2,28.56z M91.189,25.06c-0.189-0.19-0.29-0.45-0.29-0.71
		c0-0.27,0.101-0.52,0.29-0.71c0.37-0.37,1.04-0.37,1.41,0c0.19,0.19,0.3,0.45,0.3,0.71c0,0.26-0.109,0.52-0.3,0.71
		c-0.18,0.18-0.439,0.29-0.7,0.29C91.63,25.35,91.37,25.24,91.189,25.06z M79.85,21.42c-0.18-0.19-0.29-0.45-0.29-0.71
		c0-0.26,0.11-0.52,0.29-0.71c0.38-0.37,1.05-0.37,1.42,0c0.19,0.19,0.29,0.44,0.29,0.71c0,0.26-0.1,0.52-0.29,0.71
		c-0.189,0.18-0.439,0.29-0.71,0.29C80.3,21.71,80.04,21.6,79.85,21.42z M72.859,16.17c-0.189-0.19-0.29-0.44-0.29-0.71
		c0-0.26,0.101-0.52,0.29-0.7c0.381-0.38,1.04-0.38,1.41-0.01c0.19,0.19,0.3,0.45,0.3,0.71c0,0.27-0.109,0.52-0.3,0.71
		c-0.18,0.19-0.439,0.29-0.7,0.29C73.3,16.46,73.05,16.36,72.859,16.17z M65.1,18.9c-0.18-0.18-0.29-0.43-0.29-0.7
		s0.11-0.52,0.3-0.71c0.36-0.37,1.03-0.37,1.41,0c0.19,0.19,0.29,0.45,0.29,0.71c0,0.26-0.1,0.52-0.29,0.71
		c-0.189,0.18-0.439,0.29-0.71,0.29C65.55,19.2,65.29,19.09,65.1,18.9z M46.84,18.91c-0.19-0.19-0.29-0.45-0.29-0.71
		c0-0.26,0.1-0.52,0.29-0.71c0.37-0.37,1.04-0.37,1.41,0c0.19,0.19,0.3,0.45,0.3,0.71c0,0.26-0.11,0.52-0.3,0.71
		c-0.18,0.18-0.44,0.29-0.7,0.29C47.28,19.2,47.02,19.09,46.84,18.91z M49.13,25.79c-0.19-0.19-0.3-0.45-0.3-0.71
		c0-0.26,0.11-0.52,0.3-0.71c0.37-0.37,1.04-0.37,1.41,0c0.19,0.19,0.29,0.45,0.29,0.71c0,0.26-0.1,0.52-0.29,0.71
		c-0.19,0.18-0.44,0.29-0.71,0.29C49.57,26.08,49.31,25.97,49.13,25.79z M39.57,25.79c-0.19-0.19-0.3-0.45-0.3-0.71
		c0-0.26,0.11-0.52,0.3-0.71c0.37-0.37,1.03-0.37,1.41,0c0.19,0.19,0.29,0.45,0.29,0.71c0,0.26-0.1,0.52-0.29,0.71
		c-0.19,0.18-0.45,0.29-0.71,0.29C40.01,26.08,39.75,25.97,39.57,25.79z M50.22,33.68c0.37-0.37,1.04-0.37,1.41,0
		c0.189,0.18,0.3,0.44,0.3,0.7c0,0.27-0.11,0.53-0.3,0.71c-0.18,0.19-0.44,0.3-0.7,0.3c-0.27,0-0.53-0.11-0.71-0.3
		c-0.19-0.18-0.3-0.44-0.3-0.71C49.92,34.12,50.03,33.86,50.22,33.68z M65.55,61.09c0.19,0.19,0.3,0.44,0.3,0.71
		c0,0.26-0.109,0.52-0.3,0.7c-0.18,0.19-0.44,0.3-0.7,0.3c-0.27,0-0.53-0.11-0.71-0.3c-0.189-0.18-0.29-0.44-0.29-0.7
		c0-0.27,0.101-0.52,0.29-0.71C64.51,60.72,65.18,60.71,65.55,61.09z M14.07,64.58c0.19,0.19,0.29,0.44,0.29,0.71
		c0,0.26-0.1,0.52-0.29,0.7c-0.18,0.19-0.44,0.3-0.7,0.3c-0.27,0-0.53-0.11-0.71-0.3c-0.19-0.18-0.3-0.44-0.3-0.7
		c0-0.27,0.11-0.52,0.3-0.71C13.03,64.21,13.7,64.21,14.07,64.58z M19.08,53.61c0.19,0.18,0.3,0.44,0.3,0.7
		c0,0.27-0.11,0.53-0.3,0.71c-0.18,0.19-0.44,0.3-0.7,0.3c-0.26,0-0.52-0.11-0.71-0.3c-0.18-0.18-0.29-0.44-0.29-0.71
		c0-0.26,0.11-0.52,0.29-0.7C18.04,53.24,18.71,53.24,19.08,53.61z M31.01,56.25c0.18,0.18,0.29,0.44,0.29,0.7
		c0,0.27-0.11,0.52-0.29,0.71c-0.19,0.19-0.45,0.29-0.71,0.29c-0.26,0-0.52-0.1-0.71-0.29c-0.18-0.19-0.29-0.44-0.29-0.71
		c0-0.26,0.11-0.52,0.29-0.7C29.96,55.87,30.63,55.87,31.01,56.25z M36.68,50.88c-0.26,0-0.52-0.1-0.71-0.29
		c-0.18-0.18-0.29-0.44-0.29-0.71c0-0.26,0.11-0.52,0.29-0.7c0.37-0.37,1.04-0.38,1.42,0c0.18,0.18,0.29,0.44,0.29,0.7
		c0,0.27-0.11,0.52-0.29,0.71C37.2,50.78,36.94,50.88,36.68,50.88z M26.35,67.11c0.18,0.19,0.29,0.44,0.29,0.71
		c0,0.26-0.11,0.52-0.29,0.71c-0.19,0.18-0.45,0.29-0.71,0.29c-0.26,0-0.52-0.11-0.71-0.29c-0.19-0.19-0.29-0.45-0.29-0.71
		c0-0.27,0.1-0.52,0.29-0.71C25.31,66.73,25.98,66.74,26.35,67.11z M38.39,64.58c0.19,0.19,0.29,0.44,0.29,0.71
		c0,0.26-0.1,0.52-0.29,0.7c-0.19,0.19-0.44,0.3-0.71,0.3c-0.26,0-0.52-0.11-0.71-0.3c-0.18-0.18-0.29-0.44-0.29-0.7
		c0-0.27,0.11-0.53,0.29-0.71C37.35,64.21,38.02,64.21,38.39,64.58z M54.64,64.58c0.18,0.19,0.29,0.44,0.29,0.71
		c0,0.26-0.11,0.52-0.29,0.7c-0.189,0.19-0.45,0.3-0.71,0.3c-0.27,0-0.53-0.11-0.71-0.3c-0.189-0.18-0.29-0.44-0.29-0.7
		c0-0.27,0.101-0.53,0.29-0.71C53.58,64.21,54.27,64.21,54.64,64.58z M47.36,57.22c0.18,0.19,0.29,0.45,0.29,0.71
		c0,0.26-0.11,0.52-0.29,0.71c-0.19,0.18-0.45,0.29-0.71,0.29c-0.26,0-0.52-0.11-0.71-0.29c-0.18-0.19-0.29-0.45-0.29-0.71
		c0-0.26,0.11-0.52,0.3-0.71C46.31,56.85,46.98,56.85,47.36,57.22z M54.64,52.17c0.18,0.18,0.29,0.44,0.29,0.7
		c0,0.27-0.11,0.52-0.29,0.71c-0.189,0.18-0.45,0.29-0.71,0.29c-0.27,0-0.53-0.11-0.71-0.29c-0.18-0.18-0.29-0.44-0.29-0.71
		c0-0.26,0.101-0.52,0.29-0.7C53.59,51.79,54.26,51.79,54.64,52.17z"/>
</g>
</svg>
