<?xml version="1.0" encoding="utf-8"?>
<!-- Generator: Adobe Illustrator 16.0.0, SVG Export Plug-In . SVG Version: 6.00 Build 0)  -->
<!DOCTYPE svg PUBLIC "-//W3C//DTD SVG 1.1//EN" "http://www.w3.org/Graphics/SVG/1.1/DTD/svg11.dtd">
<svg version="1.1" xmlns="http://www.w3.org/2000/svg" xmlns:xlink="http://www.w3.org/1999/xlink" x="0px" y="0px" width="100px"
	 height="100px" viewBox="0 0 100 100" enable-background="new 0 0 100 100" xml:space="preserve">
<g id="Calque_2">
</g>
<g id="Calque_1">
	<path d="M85.725,13.318V6.856c0-0.501-0.371-0.925-0.868-0.991L40.672,0.009c-0.285-0.037-0.574,0.049-0.791,0.239
		C39.664,0.438,39.54,0.712,39.54,1v6.75c-1.605,1.13-6.447,5.333-6.745,14.756c-1.356-0.586-2.849-0.914-4.418-0.914H12.77
		c-0.553,0-1,0.448-1,1v1.142H8.911c-1.44,0-2.486,1.661-2.486,3.948s1.046,3.948,2.486,3.948h2.858v1.143c0,0.552,0.447,1,1,1
		h1.901c-0.172,4.245-1.344,11.006-2.452,11.528c-0.553,0-1,0.448-1,1s0.447,1,1,1c3.833,0,7.693-8.742,8.125-13.528h2.909
		c-0.154,2.219-0.814,4.157-1.754,6.91c-2.527,7.404-6.758,19.797-6.758,56.102c0,2.903,9.886,3.216,14.136,3.216
		c4.251,0,14.138-0.313,14.138-3.216c0-3.541-0.041-6.847-0.116-9.951l29.479,4.227c0.047,0.007,0.094,0.01,0.142,0.01
		c0.063,0,0.124-0.005,0.187-0.007c0.013,0,0.023,0.007,0.036,0.007c19.331,0,20.833-7.262,20.833-9.487V32.951
		C93.575,24.406,92.634,14.697,85.725,13.318z M41.54,2.141l42.185,5.591v5.272L41.54,7.412V2.141z M8.996,29.646
		c-0.168-0.095-0.571-0.794-0.571-1.965c0-1.171,0.403-1.871,0.486-1.948h2.858v3.9L8.996,29.646z M13.77,23.591h14.607
		c4.724,0,8.621,3.587,9.122,8.181H13.77V23.591z M15.735,41.414c0.603-2.887,0.835-6.067,0.918-7.642h1.685
		C18.115,36.141,17.014,39.089,15.735,41.414z M28.877,98c-7.183,0-11.28-0.911-12.136-1.466c0.02-35.78,4.169-47.936,6.65-55.206
		c0.976-2.858,1.708-5.016,1.863-7.556h7.246c0.155,2.54,0.888,4.697,1.863,7.556c2.481,7.27,6.631,19.427,6.65,55.206
		C40.159,97.089,36.061,98,28.877,98z M36.257,40.682c-0.939-2.752-1.6-4.691-1.754-6.91h4.053c0.553,0,1-0.448,1-1
		c0-3.808-1.916-7.172-4.831-9.192c0.012-0.061,0.037-0.118,0.037-0.183c0-9.436,4.83-13.273,6.008-14.07l40.84,5.415
		c-2.162,2.065-5.413,6.499-5.413,14.512v57.088c0,1.686-1.823,2.702-3.608,2.728l-29.745-4.265
		C42.029,57.606,38.483,47.204,36.257,40.682z M91.575,81.583c0,3.043-3.837,6.532-14.254,7.32c0.542-0.705,0.875-1.563,0.875-2.561
		V29.253c0-9.526,4.922-13.345,6.04-14.09c5.068,0.186,7.339,5.685,7.339,17.787V81.583z M68.364,43.252
		c0.813-0.224,1.917-0.84,2.556-2.506c0.639-1.664,0.228-2.854-0.23-3.56c-0.851-1.313-2.672-2.221-5.4-2.729
		c2.406-1.343,3.837-2.776,4.229-4.282c0.213-0.816,0.23-2.08-0.893-3.466c-1.121-1.384-2.353-1.627-3.199-1.58
		c-1.563,0.081-3.261,1.204-5.063,3.312c0.04-2.756-0.486-4.712-1.594-5.805c-0.601-0.592-1.681-1.24-3.448-0.959
		c-1.759,0.28-2.584,1.231-2.967,1.979c-0.711,1.392-0.587,3.423,0.338,6.042c-2.368-1.414-4.324-1.936-5.825-1.523
		c-0.813,0.224-1.915,0.84-2.554,2.506c-0.638,1.665-0.226,2.855,0.232,3.562c0.852,1.313,2.673,2.222,5.4,2.728
		c-2.406,1.343-3.837,2.775-4.23,4.281c-0.213,0.816-0.231,2.08,0.892,3.466c1.044,1.289,2.188,1.585,3.019,1.585
		c0.062,0,0.121-0.001,0.18-0.004c1.433-0.074,2.98-1.029,4.618-2.813c-0.46,4.56-0.797,11.863-0.841,18.225
		c-0.182-0.152-0.364-0.303-0.564-0.455c-0.448-0.338-0.923-1.199-1.304-1.891c-0.113-0.206-0.224-0.406-0.331-0.592
		c-0.563-0.97-1.381-1.807-2.363-2.42c-0.91-0.57-1.823-0.879-2.705-1.178l-0.371-0.126c-0.763-0.264-1.563-0.566-2.288-1.104
		c-0.096-0.083-0.194-0.16-0.295-0.231c-0.437-0.312-1.042-0.221-1.371,0.204c-0.328,0.425-0.262,1.033,0.15,1.378
		c0.081,0.068,0.163,0.134,0.246,0.197c0.534,0.486,1.026,1.413,1.465,2.76c0.09,0.275,0.175,0.554,0.26,0.833
		c0.34,1.106,0.689,2.251,1.314,3.275c0.802,1.309,1.948,2.222,3.146,2.504c1.735,0.417,2.918-0.629,3.795-1.568
		c0.468,0.397,0.854,0.812,1.217,1.255c0.003,0.299,0.006,0.592,0.01,0.883c-0.009,0.075-0.005,0.146,0.003,0.221
		c0.048,3.142,0.193,5.768,0.463,7.283c0.086,0.484,0.508,0.825,0.983,0.825c0.058,0,0.117-0.005,0.176-0.016
		c0.544-0.097,0.906-0.616,0.81-1.16c-0.256-1.438-0.388-3.896-0.43-6.833c0.525-1.042,1.205-1.992,2.177-3.008l0.179,0.071
		c2.175,0.875,4.641,1.866,7.294,0.725c1.791-0.77,3.239-2.352,3.874-4.23c0.524-1.552,0.485-3.146,0.447-4.688
		c-0.009-0.386-0.019-0.772-0.019-1.156c0-1.91,0.347-3.269,1.057-4.136c0.109-0.111,0.216-0.225,0.32-0.343
		c0.356-0.4,0.334-1.01-0.052-1.383c-0.384-0.374-0.994-0.376-1.384-0.007c-0.128,0.122-0.25,0.25-0.366,0.386
		c-1.055,1.052-2.422,1.825-3.64,2.474l-0.592,0.313c-1.367,0.719-2.781,1.462-4.024,2.509c-1.354,1.138-2.3,2.496-2.736,3.928
		c-0.085,0.281-0.167,0.581-0.251,0.891c-0.296,1.093-0.632,2.332-1.282,2.987c-0.372,0.375-0.703,0.742-1.012,1.106
		c0.033-4.568,0.224-9.688,0.484-13.879c0.124,0.168,0.247,0.338,0.39,0.479c0.501,0.495,1.34,1.027,2.629,1.027
		c0.255,0,0.528-0.021,0.82-0.067c1.759-0.279,2.584-1.231,2.966-1.98c0.712-1.394,0.589-3.424-0.335-6.038
		c1.834,1.096,3.424,1.659,4.742,1.659C67.667,43.391,68.026,43.345,68.364,43.252z M49.033,62.917
		c-0.663-0.157-1.392-0.771-1.9-1.601c-0.492-0.808-0.791-1.784-1.107-2.817c-0.089-0.29-0.178-0.579-0.271-0.866
		c-0.069-0.211-0.139-0.414-0.211-0.608l0.13,0.044c0.81,0.274,1.574,0.533,2.287,0.98c0.494,0.308,1.188,0.858,1.693,1.728
		c0.101,0.174,0.204,0.361,0.31,0.553c0.288,0.522,0.598,1.084,0.959,1.58C50.15,62.735,49.689,63.072,49.033,62.917z M59.813,58.62
		c0.078-0.289,0.154-0.57,0.234-0.832c0.407-1.34,1.372-2.359,2.11-2.979c1.077-0.908,2.335-1.569,3.667-2.27l0.602-0.317
		c0.405-0.216,0.826-0.445,1.251-0.694c-0.085,0.595-0.127,1.24-0.127,1.938c0,0.4,0.01,0.802,0.02,1.205
		c0.035,1.431,0.068,2.782-0.343,3.999c-0.456,1.35-1.491,2.484-2.77,3.033c-1.804,0.776-3.519,0.155-5.472-0.628
		C59.361,60.289,59.596,59.422,59.813,58.62z M54.597,36.208c-0.133-0.806,0.058-1.615,0.534-2.279
		c0.478-0.664,1.185-1.102,1.992-1.233c0.168-0.028,0.335-0.041,0.5-0.041c1.503,0,2.77,1.08,3.014,2.568
		c0.132,0.804-0.058,1.612-0.533,2.275c-0.478,0.665-1.186,1.104-1.995,1.236C56.41,39.014,54.866,37.858,54.597,36.208z
		 M65.53,27.126c0.348-0.016,0.9,0.05,1.542,0.842c0.647,0.799,0.602,1.354,0.511,1.702c-0.327,1.256-2.259,2.711-5.331,4.054
		c-0.378-0.888-0.992-1.629-1.765-2.164C62.416,28.804,64.229,27.194,65.53,27.126z M54.137,24.566
		c0.161-0.315,0.492-0.753,1.5-0.914c1.012-0.163,1.473,0.155,1.729,0.408c0.923,0.912,1.218,3.313,0.846,6.646
		c-0.195-0.023-0.388-0.053-0.589-0.053c-0.274,0-0.552,0.022-0.823,0.067c-0.475,0.078-0.918,0.24-1.341,0.44
		C54.034,28.103,53.546,25.725,54.137,24.566z M46.225,33.155c-0.193-0.298-0.408-0.804-0.043-1.757
		c0.368-0.96,0.871-1.198,1.218-1.293c0.753-0.207,2.533-0.111,6.175,2.581c-0.021,0.027-0.047,0.048-0.067,0.076
		c-0.546,0.759-0.847,1.636-0.919,2.544C49.234,35.013,46.934,34.248,46.225,33.155z M49.704,44.301
		c-0.354,0.023-0.898-0.049-1.541-0.842c-0.647-0.799-0.602-1.354-0.511-1.702c0.327-1.256,2.259-2.709,5.33-4.052
		c0.378,0.888,0.992,1.629,1.765,2.163C52.815,42.625,51.002,44.234,49.704,44.301z M61.097,46.861
		c-0.161,0.316-0.492,0.754-1.499,0.914c-1.014,0.162-1.475-0.156-1.729-0.408c-0.924-0.912-1.219-3.313-0.847-6.646
		c0.194,0.023,0.387,0.053,0.587,0.053c0.274,0,0.552-0.022,0.823-0.067c0.476-0.078,0.92-0.241,1.344-0.441
		C61.201,43.321,61.689,45.7,61.097,46.861z M61.663,38.737c0.021-0.026,0.045-0.046,0.064-0.073
		c0.545-0.758,0.846-1.635,0.918-2.542c3.356,0.293,5.658,1.059,6.366,2.151c0.192,0.297,0.406,0.803,0.041,1.756
		c-0.368,0.961-0.872,1.199-1.219,1.294C66.585,41.664,64.361,40.724,61.663,38.737z"/>
</g>
</svg>
