<?xml version="1.0" encoding="utf-8"?>
<!-- Generator: Adobe Illustrator 16.0.0, SVG Export Plug-In . SVG Version: 6.00 Build 0)  -->
<!DOCTYPE svg PUBLIC "-//W3C//DTD SVG 1.1//EN" "http://www.w3.org/Graphics/SVG/1.1/DTD/svg11.dtd">
<svg version="1.1" xmlns="http://www.w3.org/2000/svg" xmlns:xlink="http://www.w3.org/1999/xlink" x="0px" y="0px" width="100px"
	 height="100px" viewBox="0 0 100 100" enable-background="new 0 0 100 100" xml:space="preserve">
<g id="Titres">
</g>
<g id="Calque_1">
	<path d="M80.394,24.168c-2.726,0-5.372,0.552-7.869,1.643c-0.698,0.309-1.412,0.551-2.13,0.763
		c-0.974-1.957-2.538-8.764-0.715-10.584c0.188-0.188,0.293-0.442,0.293-0.708c0-0.265-0.105-0.52-0.293-0.707
		c-2.677-2.677-5.678-3.976-7.462-3.237c-0.938,0.388-1.475,1.279-1.475,2.445c0,0.351,0.019,0.813,0.04,1.354
		c0.104,2.617,0.299,7.489-1.485,9.346c-0.439,0.457-0.988,0.684-1.666,0.708c-2.044-0.66-4.244-1.019-6.39-1.019
		c-2.68,0-5.454,0.532-7.808,1.498c-0.896,0.366-1.775,0.82-2.627,1.332c-2.093-4.068-6.271-6.724-10.984-6.724
		c-1.213,0-2.419,0.181-3.599,0.527l-1.562-4.728c0.116,0.045,0.238,0.073,0.362,0.073c0.089,0,0.179-0.012,0.267-0.036l8.424-2.336
		c3.848-0.908,5.932-6.046,6.832-9.028l0.279-0.925c0.105-0.349,0.012-0.728-0.243-0.988c-0.255-0.26-0.633-0.361-0.982-0.265
		l-8.427,2.337c-3.849,0.909-5.93,6.045-6.828,9.026l-0.188,0.621l-0.683-2.068c-0.173-0.524-0.739-0.809-1.263-0.636
		c-0.524,0.173-0.809,0.739-0.636,1.263l0.868,2.627c-2.167-2.672-5.636-5.995-9.511-5.995c-0.318,0-0.637,0.023-0.91,0.064
		L0.891,11.03c-0.354,0.039-0.661,0.263-0.805,0.588c-0.145,0.326-0.105,0.704,0.104,0.992l0.681,0.941
		c1.978,2.73,5.975,7.31,10.526,7.31c0.315,0,0.631-0.022,0.901-0.063l11.137-1.217c0.089-0.01,0.176-0.032,0.258-0.064l0.662,2.003
		c-3.024,1.412-5.482,3.933-6.813,7.063c-1.453,3.415-1.474,7.125-0.039,10.489l26.859,55.612c0.782,1.715,2.437,2.781,4.318,2.781
		c0.595,0,1.184-0.109,1.75-0.325c2.365-0.899,3.748-3.434,3.222-5.874L51.026,77.59c3.794,1.694,8.479,2.475,14.838,2.475
		c8.902,0,17.447-3.628,24.059-10.215C96.045,63.74,100,53.496,100,43.751C100,32.953,91.204,24.168,80.394,24.168z M31.672,6.845
		l6.7-1.858c-1.3,3.852-3.185,6.388-5.153,6.853l-6.698,1.857C27.819,9.846,29.704,7.311,31.672,6.845z M12.044,18.815
		c-0.215,0.031-0.431,0.046-0.647,0.046c-2.576,0-5.681-2.19-8.572-6.031l9.456-1.036c0.217-0.032,0.435-0.048,0.654-0.048
		c2.574,0,5.679,2.192,8.57,6.034L12.044,18.815z M60.739,25.869c2.375-2.472,2.167-7.693,2.042-10.812
		c-0.021-0.509-0.038-0.944-0.038-1.274c0-0.498,0.168-0.567,0.24-0.597c0.643-0.266,2.512,0.284,4.663,2.216
		c-1.007,1.799-0.877,4.569-0.546,6.729c0.255,1.667,0.742,3.562,1.32,4.898c-2.845,0.486-5.682,0.226-8.111-0.793
		C60.455,26.118,60.605,26.008,60.739,25.869z M58.149,28.26c0.179-0.178,0.265-0.408,0.28-0.642
		c0.202,0.085,0.405,0.168,0.602,0.26c3.371,1.571,7.344,1.821,11.252,0.804c0.026-0.008,0.052-0.01,0.077-0.021
		c0.546-0.145,1.09-0.31,1.632-0.505c1.196,1.167,3.561,3.353,5.66,4.576c-0.864,0.219-1.928,0.316-3.069,0.342
		c-2.148-0.004-4.126-0.485-4.81-1.168c-0.188-0.188-0.441-0.293-0.707-0.293c-0.265,0-0.52,0.105-0.707,0.292
		c-1.209,1.208-2.705,3.357-3.716,5.516c-1.092-2.178-2.229-4.264-3.482-5.516c-0.188-0.187-0.442-0.292-0.707-0.292
		c-0.266,0-0.521,0.105-0.708,0.293c-0.682,0.683-2.659,1.164-4.808,1.168c-1.063-0.016-2.01-0.102-2.828-0.285
		C53.964,31.866,56.174,30.235,58.149,28.26z M51.69,91.666c0.324,1.504-0.523,3.054-1.973,3.605
		c-1.387,0.526-2.935-0.096-3.547-1.437L32.969,66.5c1.923-0.143,5.612-0.522,7.665-1.421c0.506-0.221,0.737-0.811,0.515-1.317
		c-0.221-0.506-0.811-0.736-1.317-0.515c-1.676,0.733-5.123,1.157-7.801,1.311L19.566,38.75c0.347,0.03,0.699,0.053,1.069,0.053
		c3.563,0,8.057-1.322,10.515-2.477c0.5-0.235,0.715-0.831,0.48-1.331c-0.235-0.5-0.832-0.714-1.331-0.48
		c-3.325,1.563-8.711,2.767-11.512,2.101c-0.6-2.372-0.411-4.89,0.593-7.251c1.247-2.931,3.639-5.25,6.563-6.364
		c1.263-0.48,2.568-0.724,3.879-0.724c4.81,0,8.962,3.303,10.088,7.988l2.917,15.204c-3.042,1.706-5.98,2.708-8.956,3.039
		c-0.549,0.061-0.944,0.555-0.883,1.104c0.057,0.512,0.49,0.89,0.992,0.89c0.037,0,0.074-0.002,0.112-0.006
		c3.056-0.339,6.056-1.311,9.132-2.957l4.994,26.032c-1.455,1.06-2.909,1.879-3.521,1.967c-0.547,0.078-0.927,0.584-0.848,1.131
		c0.071,0.499,0.499,0.858,0.988,0.858c0.047,0,0.095-0.003,0.143-0.01c1.002-0.144,2.438-0.985,3.522-1.708
		c0.025,0.204,0.107,0.39,0.249,0.545L51.69,91.666z M88.511,68.433c-6.233,6.211-14.276,9.632-22.655,9.632
		c-6.821,0-11.572-0.919-15.302-2.938l-8.688-45.282c-0.081-0.335-0.175-0.663-0.281-0.985c0.841-0.523,1.716-0.974,2.607-1.337
		c2.121-0.87,4.625-1.349,7.051-1.349c1.798,0,3.635,0.28,5.363,0.795c-3.317,3.275-6.324,4.646-7.208,4.646
		c-0.404,0-0.769,0.244-0.924,0.618c-0.155,0.374-0.069,0.804,0.217,1.09c1.637,1.636,5.19,1.76,6.252,1.754
		c0.891-0.001,3.581-0.098,5.364-1.115c1.09,1.391,2.17,3.582,3.22,5.71l0.338,0.686c0.17,0.343,0.519,0.556,0.896,0.556
		c0.03,0,0.062-0.001,0.093-0.004c0.411-0.038,0.758-0.326,0.87-0.724c0.575-2.041,2.141-4.653,3.475-6.232
		c1.784,1.026,4.487,1.123,5.381,1.124c0.009,0,0.018,0,0.026,0c1.086,0,4.604-0.132,6.225-1.754
		c0.286-0.286,0.372-0.716,0.217-1.09s-0.52-0.617-0.924-0.617c-0.646,0-2.815-1.188-6.061-4.248
		c2.023-0.78,4.146-1.197,6.331-1.197C90.102,26.168,98,34.056,98,43.751C98,52.992,94.275,62.68,88.511,68.433z"/>
</g>
</svg>
