<svg id="Calque_1" data-name="Calque 1" xmlns="http://www.w3.org/2000/svg" viewBox="0 0 300 300"><defs><style>.cls-1{fill:#1d1d1b;}</style></defs><title>picto_aude</title><path class="cls-1" d="M150,6A144,144,0,0,1,251.82,251.82,144,144,0,1,1,48.18,48.18,143,143,0,0,1,150,6m0-6A150,150,0,1,0,300,150,150,150,0,0,0,150,0Z"/><path d="M172.92,242.64c-9.41,0-18.08-4.13-23.07-10.94-5.57,7.62-15.75,11.87-26.43,10.76-11.7-1.22-20.82-8.51-23.8-19a2.51,2.51,0,0,1,.83-2.62,2.48,2.48,0,0,1,2.73-.27c5.25,2.74,10.61,2.76,15.08,0,5.63-3.41,9.13-10.54,9.13-18.6V172.14H97.54c-8.06,0-15.19,3.5-18.6,9.13-2.71,4.48-2.69,9.83,0,15.08a2.5,2.5,0,0,1-2.9,3.56c-10.51-3-17.8-12.09-19-23.8-1.11-10.67,3.15-20.86,10.77-26.43-7.62-5.57-11.88-15.76-10.77-26.43,1.22-11.7,8.51-20.82,19-23.8A2.5,2.5,0,0,1,79,103c-2.74,5.25-2.76,10.61,0,15.08,3.41,5.63,10.54,9.13,18.6,9.13h29.85V97.37c0-8.07-3.5-15.19-9.13-18.6-4.47-2.71-9.83-2.69-15.08,0a2.5,2.5,0,0,1-3.56-2.9c3-10.51,12.1-17.8,23.8-19,10.68-1.11,20.86,3.15,26.43,10.77,5.57-7.62,15.76-11.88,26.43-10.77,11.71,1.22,20.83,8.51,23.81,19a2.51,2.51,0,0,1-3.57,2.9c-5.25-2.75-10.6-2.76-15.07,0-5.64,3.41-9.14,10.53-9.14,18.6v29.85h29.86c8.06,0,15.19-3.5,18.6-9.13,2.71-4.47,2.69-9.83-.05-15.08a2.49,2.49,0,0,1,2.89-3.56c10.52,3,17.8,12.1,19,23.8,1.11,10.67-3.14,20.86-10.76,26.43,7.62,5.57,11.87,15.76,10.76,26.43-1.22,11.71-8.5,20.83-19,23.8a2.49,2.49,0,0,1-2.89-3.56c2.74-5.25,2.76-10.6.05-15.08-3.41-5.63-10.54-9.13-18.6-9.13H172.31V202c0,8.06,3.5,15.19,9.14,18.6,4.47,2.71,9.82,2.69,15.07,0a2.5,2.5,0,0,1,3.57,2.89c-3,10.51-12.1,17.8-23.81,19A31.66,31.66,0,0,1,172.92,242.64Zm-66.33-15.52c3.46,5.8,9.63,9.57,17.35,10.37,9.93,1,19.28-3.38,23.28-11l.41-.8a2.51,2.51,0,0,1,4.45,0l.41.8c4,7.61,13.34,12,23.27,11,7.73-.81,13.9-4.57,17.36-10.37a18.82,18.82,0,0,1-14.27-2.24c-7.11-4.32-11.54-13.08-11.54-22.88V169.64a2.5,2.5,0,0,1,2.5-2.5h32.36c9.8,0,18.56,4.42,22.88,11.54a18.81,18.81,0,0,1,2.24,14.26c5.8-3.45,9.57-9.63,10.37-17.35,1-9.93-3.38-19.28-11-23.27h0l-.79-.41a2.5,2.5,0,0,1,0-4.45l.8-.41c7.61-4,12-13.35,11-23.28-.8-7.72-4.57-13.89-10.37-17.35a18.81,18.81,0,0,1-2.24,14.26c-4.32,7.12-13.08,11.54-22.88,11.54H169.81a2.5,2.5,0,0,1-2.5-2.5V97.37c0-9.8,4.43-18.57,11.54-22.88a18.87,18.87,0,0,1,14.27-2.25c-3.46-5.8-9.63-9.56-17.36-10.36-9.92-1-19.28,3.38-23.27,11l-.41.8a2.5,2.5,0,0,1-4.45,0l-.41-.8c-4-7.6-13.34-12-23.28-11-7.72.8-13.89,4.56-17.35,10.36a18.85,18.85,0,0,1,14.26,2.25c7.12,4.31,11.54,13.08,11.54,22.88v32.35a2.5,2.5,0,0,1-2.5,2.5H97.54c-9.8,0-18.57-4.42-22.88-11.54a18.85,18.85,0,0,1-2.25-14.26c-5.8,3.46-9.56,9.63-10.36,17.35-1,9.93,3.38,19.28,11,23.27l.81.42a2.5,2.5,0,0,1,0,4.45l-.8.41c-7.6,4-12,13.34-11,23.27.8,7.72,4.56,13.9,10.36,17.35a18.85,18.85,0,0,1,2.25-14.26c4.31-7.12,13.08-11.54,22.88-11.54h32.35a2.5,2.5,0,0,1,2.5,2.5V202c0,9.8-4.42,18.56-11.54,22.88A18.85,18.85,0,0,1,106.59,227.12Z"/></svg>