<?xml version="1.0" encoding="utf-8"?>
<!-- Generator: Adobe Illustrator 16.0.0, SVG Export Plug-In . SVG Version: 6.00 Build 0)  -->
<!DOCTYPE svg PUBLIC "-//W3C//DTD SVG 1.1//EN" "http://www.w3.org/Graphics/SVG/1.1/DTD/svg11.dtd">
<svg version="1.1" xmlns="http://www.w3.org/2000/svg" xmlns:xlink="http://www.w3.org/1999/xlink" x="0px" y="0px" width="100px"
	 height="100px" viewBox="0 0 100 100" enable-background="new 0 0 100 100" xml:space="preserve">
<g id="Calque_2">
</g>
<g id="Calque_1">
	<path d="M99.982,9.274c0.007-0.054,0.01-0.108,0.013-0.161c0-0.004,0.001-0.019,0.001-0.02s0-0.002,0-0.003
		C99.997,9.064,100,9.038,100,9.012c0-1.021,0-2.922-15.253-4.437C75.46,3.652,63.12,3.145,50,3.145S24.54,3.652,15.253,4.575
		C0,6.09,0,7.991,0,9.012c0,0.025,0.003,0.052,0.004,0.077c0,0.001,0,0.002,0,0.004c0,0.002,0.001,0.017,0.001,0.021
		c0.002,0.053,0.006,0.106,0.013,0.16c0.151,1.911,1.508,19.428,1.508,32.737c0,0.002,0.001,0.004,0.001,0.006
		c0,0.02-0.002,0.038-0.002,0.058c0,9.553,5.858,23.077,14.923,34.454c10.188,12.786,22.319,20.162,33.345,20.312
		c0.024,0.002,0.045,0.014,0.07,0.014c0.045,0,0.091-0.005,0.136-0.006c0.045,0,0.091,0.006,0.136,0.006
		c0.025,0,0.045-0.012,0.07-0.014c11.026-0.149,23.158-7.526,33.345-20.312c9.065-11.377,14.923-24.901,14.923-34.454
		c0-0.02-0.002-0.038-0.002-0.058c0-0.002,0.001-0.004,0.001-0.006C98.474,28.703,99.831,11.183,99.982,9.274z M50,5.145
		c27.912,0,45.083,2.17,47.772,3.862c-1.891,1.125-11.554,2.924-32.018,3.617c-9.953,0.335-20.875,0.342-30.908,0.021
		C13.977,11.967,4.138,10.148,2.228,9.007C4.916,7.314,22.087,5.145,50,5.145z M64.348,90.764
		c-4.651,2.542-9.506,4.057-14.348,4.085c-4.842-0.028-9.696-1.543-14.348-4.085c0-0.004,0.002-0.007,0.002-0.012V82.31
		c0-28.895-7.166-45.009-15.711-50.304l14.713-0.039c0.551-0.001,0.998-0.449,0.998-1V14.668c4.663,0.14,9.48,0.214,14.345,0.214
		c4.879,0,9.691-0.075,14.345-0.216v16.301c0,0.551,0.446,0.999,0.998,1l14.713,0.039C71.511,37.3,64.345,53.415,64.345,82.31v8.443
		C64.345,90.757,64.348,90.76,64.348,90.764z M2.166,11.154c1.501,0.581,4.021,1.168,8.247,1.737
		c5.912,0.796,13.938,1.384,23.242,1.71v15.367L12.01,30.026c-0.034,0-0.063,0.016-0.097,0.02c-3.393,0.101-6.027,1.234-7.816,3.398
		c-0.25,0.303-0.478,0.63-0.692,0.969C3.135,25.024,2.478,15.386,2.166,11.154z M3.525,42.076c0-3.187,0.711-5.662,2.113-7.357
		c1.478-1.787,3.752-2.692,6.761-2.692c0.002,0,0.003-0.001,0.005-0.001l0.962-0.002c0,0,0,0,0,0
		c9.771,0,20.288,15.736,20.288,50.287v7.292C17.042,79.354,3.525,56.424,3.525,42.076z M66.345,89.602V82.31
		c0-34.55,10.517-50.287,20.288-50.287c0,0,0,0,0,0l0.962,0.002c0.002,0,0.003,0.001,0.005,0.001c3.009,0,5.283,0.906,6.761,2.692
		c1.402,1.695,2.113,4.17,2.113,7.357C96.475,56.424,82.958,79.354,66.345,89.602z M95.903,33.444
		c-1.789-2.164-4.423-3.298-7.816-3.398c-0.034-0.003-0.063-0.02-0.097-0.02l-21.645-0.058V14.603
		c9.411-0.33,17.508-0.929,23.427-1.736c4.114-0.562,6.583-1.14,8.062-1.712c-0.312,4.231-0.969,13.87-1.239,23.259
		C96.38,34.074,96.153,33.748,95.903,33.444z M62.518,84.262c0,3.375-5.381,5.92-12.518,5.92c-7.136,0-12.517-2.545-12.517-5.92
		c0-0.552,0.448-1,1-1s1,0.448,1,1c0,1.851,4.498,3.92,10.517,3.92s10.518-2.069,10.518-3.92c0-0.552,0.448-1,1-1
		S62.518,83.709,62.518,84.262z M66.146,43.254c0-2.396-1.95-4.345-4.346-4.345c-0.063,0-0.126,0.011-0.189,0.014
		c-1.228-5.055-5.627-8.87-10.968-9.216c0.106-0.162,0.183-0.345,0.18-0.553l-0.026-2.648c-0.05-2.933-2.459-5.298-5.441-5.259
		c-1.244,0.021-2.407,0.527-3.274,1.425c-0.867,0.897-1.332,2.078-1.311,3.323c0.02,1.098,0.465,2.124,1.254,2.888
		c0.397,0.383,1.029,0.375,1.414-0.022c0.384-0.396,0.374-1.03-0.022-1.414c-0.406-0.394-0.636-0.922-0.646-1.486
		c-0.012-0.711,0.254-1.385,0.75-1.898c0.496-0.513,1.159-0.803,1.863-0.814c1.847,0.015,3.381,1.457,3.413,3.296l0.026,2.637
		c0.003,0.2,0.079,0.375,0.182,0.529c-5.31,0.373-9.676,4.176-10.9,9.208c-2.351,0.052-4.25,1.972-4.25,4.335
		c0,2.396,1.949,4.346,4.345,4.346c0.336,0,0.666-0.038,0.987-0.112c2.043,3.804,6.059,6.397,10.67,6.397
		c4.641,0,8.674-2.627,10.706-6.469c0.4,0.119,0.816,0.184,1.238,0.184C64.197,47.6,66.146,45.65,66.146,43.254z M38.199,45.6
		c-1.293,0-2.345-1.052-2.345-2.346c0-1.151,0.842-2.099,1.937-2.294c-0.019,0.271-0.042,0.541-0.042,0.817
		c0,1.33,0.224,2.606,0.621,3.804C38.313,45.584,38.258,45.6,38.199,45.6z M49.856,51.885c-5.573,0-10.107-4.534-10.107-10.108
		c0-5.574,4.534-10.109,10.107-10.109c5.574,0,10.108,4.535,10.108,10.109C59.965,47.351,55.43,51.885,49.856,51.885z M61.801,45.6
		c-0.15,0-0.296-0.032-0.442-0.06c0.389-1.186,0.606-2.449,0.606-3.764c0-0.289-0.023-0.571-0.043-0.855
		c1.237,0.064,2.225,1.081,2.225,2.333C64.146,44.548,63.094,45.6,61.801,45.6z M46.411,43.293c-0.952,0-1.725-0.773-1.725-1.725
		s0.773-1.723,1.725-1.723c0.95,0,1.723,0.771,1.723,1.723S47.36,43.293,46.411,43.293z M55.508,41.568
		c0,0.952-0.771,1.725-1.723,1.725s-1.723-0.773-1.723-1.725s0.771-1.723,1.723-1.723S55.508,40.616,55.508,41.568z M52.873,45.529
		c0.39,0.391,0.39,1.024-0.001,1.415c-0.721,0.72-1.67,1.079-2.628,1.079c-0.986,0-1.979-0.381-2.738-1.14
		c-0.391-0.39-0.391-1.023,0-1.414c0.39-0.391,1.023-0.391,1.414,0c0.716,0.716,1.855,0.743,2.539,0.06
		C51.849,45.139,52.482,45.138,52.873,45.529z M7.653,22.249c0-0.552,0.448-1,1-1h20.574c0.552,0,1,0.448,1,1s-0.448,1-1,1H8.653
		C8.101,23.249,7.653,22.801,7.653,22.249z M92.347,22.249c0,0.552-0.448,1-1,1H70.773c-0.552,0-1-0.448-1-1s0.448-1,1-1h20.574
		C91.899,21.249,92.347,21.696,92.347,22.249z"/>
</g>
</svg>
