<?xml version="1.0" encoding="utf-8"?>
<!-- Generator: Adobe Illustrator 16.0.0, SVG Export Plug-In . SVG Version: 6.00 Build 0)  -->
<!DOCTYPE svg PUBLIC "-//W3C//DTD SVG 1.1//EN" "http://www.w3.org/Graphics/SVG/1.1/DTD/svg11.dtd">
<svg version="1.1" xmlns="http://www.w3.org/2000/svg" xmlns:xlink="http://www.w3.org/1999/xlink" x="0px" y="0px" width="100px"
	 height="100px" viewBox="0 0 100 100" enable-background="new 0 0 100 100" xml:space="preserve">
<g id="Calque_2">
</g>
<g id="Calque_1">
	<path d="M9.729,81.725c-0.159,0.096-0.336,0.141-0.51,0.141c-0.331,0-0.654-0.166-0.84-0.468c-0.282-0.461-0.143-1.062,0.316-1.347
		c0.097-0.06,2.416-1.473,6.24-1.112c3.552,0.334,6.308,0.907,6.424,0.932c0.531,0.111,0.872,0.632,0.761,1.164
		c-0.112,0.532-0.633,0.873-1.165,0.761c-0.027-0.005-2.769-0.575-6.203-0.898C11.622,80.604,9.748,81.713,9.729,81.725z
		 M21.549,84.248c0.037,0,0.03,0,0.032,0c0.542,0,0.981-0.438,0.982-0.98c0.002-0.543-0.437-0.984-0.979-0.986
		c-0.034,0-2.771-0.005-6.305,0.18c-3.984,0.211-5.576,2.457-5.642,2.552C9.329,85.46,9.442,86.072,9.89,86.38
		c0.17,0.118,0.364,0.174,0.557,0.174c0.313,0,0.62-0.148,0.811-0.425c0.011-0.016,1.146-1.545,4.126-1.704
		C18.665,84.253,21.246,84.248,21.549,84.248z M22.099,84.881c0,0-1.144,0.093-3.512,0.312c-2.76,0.255-3.834,1.821-3.947,1.999
		c-0.288,0.451-0.156,1.04,0.288,1.337c0.165,0.11,0.353,0.163,0.539,0.163c0.315,0,0.626-0.15,0.819-0.426
		c0.026-0.039,0.683-0.949,2.481-1.115c2.35-0.218,3.485-0.31,3.489-0.31c0.541-0.044,0.944-0.519,0.9-1.06
		C23.113,85.242,22.637,84.841,22.099,84.881z M24.032,74.612c-0.876,0-1.583,0.682-1.583,1.528c0,0.843,0.707,1.529,1.583,1.529
		c0.871,0,1.58-0.686,1.58-1.529C25.612,75.294,24.903,74.612,24.032,74.612z M49.064,78.938c-3.552,0.334-6.308,0.907-6.424,0.932
		c-0.531,0.111-0.872,0.632-0.761,1.164c0.112,0.533,0.638,0.873,1.165,0.761c0.027-0.005,2.769-0.575,6.203-0.898
		c3.107-0.286,4.976,0.8,5.022,0.828c0.161,0.098,0.338,0.145,0.514,0.145c0.328,0,0.649-0.164,0.835-0.464
		c0.287-0.461,0.146-1.068-0.315-1.354C55.207,79.991,52.882,78.582,49.064,78.938z M48.721,82.461
		c-3.532-0.186-6.269-0.179-6.304-0.18c-0.543,0.001-0.982,0.443-0.98,0.986c0.001,0.542,0.441,0.98,0.983,0.98
		c0.001,0,0.002,0,0.003,0c0.021,0.002,2.714-0.005,6.194,0.177c2.949,0.157,4.077,1.634,4.136,1.713
		c0.19,0.271,0.494,0.416,0.804,0.416c0.192,0,0.387-0.056,0.557-0.174c0.447-0.308,0.561-0.92,0.252-1.367
		C54.3,84.918,52.708,82.673,48.721,82.461z M45.416,85.193c-2.369-0.219-3.514-0.312-3.514-0.312
		c-0.53-0.041-1.015,0.36-1.06,0.901c-0.044,0.541,0.359,1.016,0.901,1.06c0.004,0,1.141,0.092,3.49,0.31
		c1.798,0.166,2.454,1.076,2.47,1.098c0.187,0.294,0.505,0.454,0.829,0.454c0.181,0,0.364-0.05,0.528-0.154
		c0.458-0.292,0.592-0.9,0.3-1.358C49.248,87.014,48.173,85.449,45.416,85.193z M41.552,76.14c0-0.846-0.707-1.528-1.581-1.528
		c-0.873,0-1.582,0.682-1.582,1.528c0,0.843,0.709,1.529,1.582,1.529C40.845,77.669,41.552,76.983,41.552,76.14z M99.575,25.324
		v0.437c0.008,5.495,0.027,20.09-9.328,29.458c-5.604,5.61-13.647,8.454-23.914,8.454c-2.019,0-5.697-0.606-7.721-1.604
		c-0.556,0.434-1.145,0.837-1.769,1.201c4.613,3.326,7.415,8.67,7.415,14.323c0,9.778-8.211,17.734-18.303,17.734
		c-2.492,0-4.905-0.497-7.188-1.443c-0.207,0.103-0.42,0.188-0.641,0.264v4.864c0,0.552-0.447,1-1,1h-5.127h-5.128
		c-0.553,0-0.999-0.448-0.999-1v-4.864c-0.221-0.076-0.435-0.162-0.642-0.264c-2.283,0.947-4.695,1.444-7.188,1.444
		c-10.093,0-18.303-7.956-18.303-17.734c0-5.653,2.803-10.997,7.415-14.323c-4.675-2.728-7.513-7.518-7.513-12.862
		c0-8.349,7.009-15.142,15.623-15.142c7.03,0,13.07,4.423,14.99,10.843c0.577-0.026,1.155-0.052,1.752-0.052
		c0.591,0,1.162,0.026,1.733,0.052c0.406-1.358,0.99-2.629,1.736-3.786c-3.293-4.352-4.743-13.064-5.232-20.069
		c-5.837-0.11-10.596-1.469-12.815-3.69c-0.381-0.38-0.381-0.998,0-1.378c3.366-3.367,9.98-4.324,13.078-4.462
		c1.739-7.28,8.218-12.711,15.941-12.711c9.051,0,16.415,7.448,16.415,16.603c0,2.632,0.826,3.657,2.949,3.657
		c9.191,0,17.623,3.358,23.129,9.211c0.011,0.011,0.014,0.026,0.023,0.038c0.571,0.512,1.226,0.751,2,0.699
		c2.405-0.16,5.297-2.902,6.797-5.399c0.227-0.376,0.674-0.554,1.096-0.438C99.282,24.501,99.575,24.886,99.575,25.324z
		 M30.131,20.292c-0.063-1.333-0.096-2.583-0.096-3.677c0-0.65,0.047-1.289,0.119-1.92c-2.643,0.175-7.563,0.94-10.519,3.156
		C21.45,19.069,24.928,20.176,30.131,20.292z M8.487,61.759c0.487-1.728,1.127-3.325,1.925-4.781
		c-2.173-1.528-3.464-3.935-3.464-6.569c0-4.485,3.759-8.134,8.378-8.134c3.358,0,6.385,2.005,7.688,4.956
		c1.632-0.467,3.386-0.786,5.243-0.973c-1.805-5.367-6.988-9.024-12.989-9.024c-7.53,0-13.657,5.911-13.657,13.175
		C1.61,55.165,4.219,59.418,8.487,61.759z M21.146,47.841c-1.033-2.153-3.307-3.601-5.82-3.601c-3.536,0-6.412,2.767-6.412,6.168
		c0,1.945,0.938,3.731,2.524,4.894C13.761,51.896,17.028,49.377,21.146,47.841z M27.873,98.013h3.128v-4.79
		c-0.864,0.708-1.94,1.151-3.128,1.21V98.013z M33.618,87.343c0.044-0.044,0.093-0.083,0.144-0.119
		c1.179-0.802,3.43-3.71,3.543-4.702c-1.949-0.275-3.715-0.409-5.195-0.409h-0.217c-1.503,0-3.3,0.139-5.198,0.401
		c0.103,0.983,2.363,3.905,3.544,4.71c0.051,0.035,0.099,0.074,0.143,0.118c0.146,0.141,0.645,0.522,1.129,0.522h0.981
		C33.064,87.865,33.613,87.348,33.618,87.343z M36.129,98.013v-3.58c-1.188-0.059-2.265-0.502-3.128-1.21v4.79H36.129z
		 M54.395,64.021c-0.284-0.166-0.455-0.461-0.478-0.784c-2.714-11.392-11.63-14.641-19.492-15.152
		c-0.061-0.003-0.119,0.008-0.18-0.006c-0.003-0.001-0.006-0.003-0.009-0.004c-0.755-0.045-1.499-0.067-2.227-0.067
		c-0.734,0-1.486,0.022-2.247,0.068c-0.003,0-0.004,0.002-0.007,0.003c-0.05,0.012-0.098,0.001-0.146,0.005
		c-7.891,0.509-16.85,3.771-19.534,15.256c-0.041,0.235-0.168,0.442-0.356,0.593c-0.004,0.003-0.007,0.006-0.011,0.009
		c-0.034,0.026-0.063,0.058-0.102,0.08c-4.872,2.843-7.898,8.043-7.898,13.573c0,8.694,7.328,15.768,16.337,15.768
		c1.86,0,3.672-0.311,5.406-0.901c-0.761-0.931-1.235-2.102-1.235-3.395c0-0.552,0.446-1,0.999-1s1,0.448,1,1
		c0,1.871,1.522,3.395,3.394,3.395c1.631,0,2.994-1.158,3.318-2.694c-0.942-0.187-1.643-0.761-1.869-0.97
		c-1.088-0.802-4.792-4.641-4.277-6.859c0.174-0.747,0.76-1.245,1.607-1.366c2.003-0.278,3.904-0.425,5.505-0.425l0.112,0l0.104,0
		c1.623,0,3.474,0.143,5.499,0.424c0.853,0.122,1.439,0.621,1.612,1.368c0.492,2.123-3.094,5.994-4.278,6.859
		c-0.229,0.21-0.929,0.783-1.867,0.969c0.323,1.536,1.688,2.694,3.318,2.694c1.871,0,3.395-1.523,3.395-3.395
		c0-0.552,0.447-1,0.999-1c0.553,0,1,0.448,1,1c0,1.292-0.477,2.464-1.237,3.395c1.735,0.59,3.546,0.9,5.406,0.9
		c9.009,0,16.337-7.074,16.337-15.768C62.293,72.063,59.266,66.863,54.395,64.021z M55.086,50.408c0-3.401-2.876-6.168-6.412-6.168
		c-2.51,0-4.782,1.444-5.817,3.594c4.122,1.535,7.393,4.053,9.717,7.46C54.153,54.132,55.086,52.349,55.086,50.408z M62.391,50.408
		c0-7.265-6.127-13.175-13.658-13.175c-6.001,0-11.183,3.657-12.986,9.022c1.856,0.186,3.611,0.503,5.242,0.97
		c1.305-2.949,4.33-4.951,7.686-4.951c4.62,0,8.379,3.649,8.379,8.134c0,2.629-1.287,5.032-3.451,6.562
		c0.798,1.456,1.439,3.053,1.927,4.78C59.787,59.407,62.391,55.158,62.391,50.408z M64.357,50.408c0,0.547-0.037,1.086-0.096,1.62
		c0.873,0.285,2.856,0.772,6.305,0.783c0.017,0,0.033,0,0.049,0c4.672,0,9.58-2.113,13.139-5.66c2.42-2.414,3.963-5.267,4.466-8.204
		c-4.558,2.535-9.704-1.238-14.699-4.899c-6.62-4.854-12.873-9.437-19.099-3.212c-1.323,1.323-2.301,2.933-2.908,4.686
		C58.805,36.798,64.357,42.98,64.357,50.408z M97.608,28.292c-1.805,2.02-4.186,3.72-6.511,3.875
		c-1.558,0.102-2.924-0.503-3.971-1.744c-5.086-5.14-12.998-8.2-21.312-8.2c-3.251,0-4.899-1.886-4.899-5.607
		c0-8.08-6.488-14.654-14.465-14.654S31.986,8.536,31.986,16.616c0,6.162,1.008,18.613,4.71,24.09
		c2.884-3.363,7.227-5.439,12.036-5.439c0.263,0,0.52,0.026,0.779,0.038c0.685-2.199,1.893-4.209,3.531-5.848
		c7.411-7.41,14.965-1.869,21.631,3.019c6.352,4.657,10.463,7.226,14.013,3.676c0.279-0.279,0.701-0.36,1.063-0.211
		c0.364,0.151,0.603,0.506,0.603,0.9c0,4.183-1.855,8.335-5.222,11.691c-3.916,3.903-9.338,6.229-14.515,6.229
		c-0.019,0-0.036,0-0.055,0c-3.361-0.011-5.488-0.455-6.643-0.799c-0.624,2.514-1.901,4.8-3.713,6.672
		c1.79,0.652,4.593,1.09,6.128,1.09c9.729,0,17.312-2.652,22.534-7.883C96.486,46.212,97.483,34.662,97.608,28.292z M41.126,10.805
		c0,1.389-1.131,2.519-2.521,2.519s-2.52-1.13-2.52-2.519c0-1.389,1.13-2.519,2.52-2.519S41.126,9.416,41.126,10.805z
		 M39.176,10.805c0-0.313-0.256-0.569-0.57-0.569s-0.569,0.255-0.569,0.569s0.255,0.569,0.569,0.569S39.176,11.119,39.176,10.805z"
		/>
</g>
</svg>
