<?xml version="1.0" encoding="utf-8"?>
<!-- Generator: Adobe Illustrator 16.0.0, SVG Export Plug-In . SVG Version: 6.00 Build 0)  -->
<!DOCTYPE svg PUBLIC "-//W3C//DTD SVG 1.1//EN" "http://www.w3.org/Graphics/SVG/1.1/DTD/svg11.dtd">
<svg version="1.1" xmlns="http://www.w3.org/2000/svg" xmlns:xlink="http://www.w3.org/1999/xlink" x="0px" y="0px" width="100px"
	 height="100px" viewBox="0 0 100 100" enable-background="new 0 0 100 100" xml:space="preserve">
<g id="Calque_2">
</g>
<g id="Calque_1">
	<path d="M88.709,31.913c2.226-3.574,6.367-10.227,7.473-15.906c1.739-8.929-2.861-14.827-8.073-15.843
		C82.9-0.855,76.422,2.889,74.684,11.819c-1.108,5.685,0.238,13.41,0.96,17.562c0.164,0.937,0.295,1.692,0.359,2.198
		c0.272,2.181,0.477,4.348,0.339,7.117c-1.268-0.051-2.555-0.069-3.838-0.05l-0.181-0.905c-0.11-0.548-0.258-1.279-0.433-2.132
		c-0.004-0.04,0.007-0.077-0.002-0.117c-0.008-0.035-0.031-0.062-0.042-0.095c-0.885-4.31-2.458-11.833-3.878-18.619
		C66.54,9.944,65.189,3.489,64.814,1.617C64.759,1.34,64.589,1.1,64.347,0.955c-0.242-0.145-0.535-0.181-0.805-0.098l-4.84,1.478
		c-0.081,0.025-0.159,0.06-0.231,0.104c-3.737,2.293-5.451,7.825-4.263,13.765c0.391,1.956,1.511,3.995,2.697,6.152
		c2.361,4.296,5.024,9.148,2.73,14.761l-2.225,0.485c-0.551,0.12-0.901,0.665-0.781,1.216c0.005,0.023,0.02,0.041,0.026,0.063
		c0.086,0.702,0.197,1.489,0.324,2.32c-0.216-0.073-0.454-0.086-0.682,0.005c-4.174,1.639-5.05,3.548-5.05,4.862v7.054v39.435
		c0,4.834,11.473,7.443,22.267,7.443c10.795,0,22.268-2.608,22.268-7.443V46.069c0-3.859-6.941-5.718-10.97-6.474
		c0.844-2.273,1.762-4.025,2.736-5.77C87.796,33.377,88.204,32.724,88.709,31.913z M76.19,40.69
		c-0.186,1.854-0.517,3.973-1.059,6.505c-0.156,0.731-0.319,1.45-0.485,2.168l-1.743-8.721C74.007,40.633,75.104,40.648,76.19,40.69
		z M60.64,50.168c-0.002-0.068,0.008-0.134-0.009-0.202c-0.368-1.468-1.396-6.922-1.891-10.562l0.989-0.216
		c0.225-0.047,0.481-0.102,0.822-0.179c0,0,0.001-0.001,0.001-0.001l9.566-2.085c0.093,0.457,0.177,0.872,0.245,1.208l2.672,13.372
		C68.056,51.471,63.868,50.94,60.64,50.168z M58.658,21.394c-1.11-2.02-2.158-3.927-2.489-5.581
		c-1.012-5.064,0.291-9.704,3.244-11.604l3.661-1.118c0.546,2.663,1.713,8.241,2.938,14.096c1.328,6.348,2.789,13.334,3.696,17.733
		l-7.785,1.697C63.737,30.67,60.951,25.566,58.658,21.394z M57.027,43.069c0.087-0.034,0.155-0.092,0.226-0.146
		c0.419,2.537,0.915,5.151,1.24,6.659c-3.379-1.067-5.247-2.397-5.247-3.513C53.246,45.12,54.66,43.999,57.027,43.069z M73.513,98
		c-12.556,0-20.267-3.17-20.267-5.443V53.123v-3.825c3.751,2.755,12.198,4.213,20.267,4.213c0.465,0,0.932-0.007,1.398-0.016
		c0.003,0,0.006,0.001,0.009,0.001s0.006-0.001,0.009-0.001c2.076-0.043,4.155-0.182,6.156-0.414
		c0.034-0.005,0.069-0.002,0.102-0.012c5.307-0.622,10.04-1.896,12.594-3.771v43.259C93.781,94.83,86.07,98,73.513,98z
		 M93.781,46.069c0,1.694-4.29,3.885-11.672,4.892c0.119-0.753,0.244-1.523,0.385-2.331c0.506-2.886,1.064-5.186,1.666-7.12
		C90.475,42.646,93.781,44.63,93.781,46.069z M85.8,32.851c-2.05,3.67-3.861,7.366-5.277,15.434
		c-0.178,1.021-0.333,1.984-0.475,2.919c-1.21,0.119-2.5,0.202-3.846,0.253c0.311-1.275,0.608-2.545,0.885-3.843
		c1.714-8.001,1.422-12.108,0.9-16.284c-0.066-0.528-0.203-1.316-0.373-2.293c-0.701-4.024-2.005-11.513-0.968-16.836
		c1.491-7.654,6.82-10.905,11.08-10.075c4.26,0.831,7.983,5.843,6.493,13.499c-1.036,5.317-5.051,11.767-7.208,15.231
		C86.484,31.702,86.06,32.385,85.8,32.851z M87.298,4.334c-0.306-0.06-0.619-0.09-0.931-0.09c-3.439,0-6.622,3.522-7.567,8.376
		c-1.045,5.373,1.049,10.149,4.768,10.873c0.304,0.059,0.616,0.089,0.927,0.089h0c3.442,0,6.626-3.523,7.571-8.378
		c0.485-2.486,0.297-4.963-0.527-6.974C90.655,6.078,89.148,4.694,87.298,4.334z M90.103,14.823
		c-0.794,4.08-3.626,7.194-6.154,6.708c-2.53-0.493-3.99-4.398-3.187-8.528c0.738-3.791,3.2-6.759,5.604-6.759
		c0.184,0,0.369,0.018,0.549,0.053c1.168,0.228,2.152,1.184,2.771,2.694C90.367,10.644,90.514,12.715,90.103,14.823z M62.603,58.499
		c0.19,0.19,0.3,0.45,0.3,0.71c0,0.26-0.11,0.52-0.3,0.71c-0.18,0.18-0.44,0.29-0.7,0.29c-0.27,0-0.52-0.11-0.71-0.29
		c-0.19-0.19-0.29-0.45-0.29-0.71c0-0.26,0.1-0.52,0.29-0.71C61.563,58.128,62.232,58.128,62.603,58.499z M87.253,58.499
		c0.18,0.19,0.29,0.45,0.29,0.71c0,0.26-0.11,0.52-0.29,0.71c-0.19,0.18-0.45,0.29-0.71,0.29c-0.26,0-0.52-0.11-0.71-0.29
		c-0.19-0.19-0.29-0.45-0.29-0.71c0-0.26,0.1-0.52,0.29-0.71C86.203,58.128,86.873,58.128,87.253,58.499z M74.923,59.789
		c0.19,0.19,0.3,0.45,0.3,0.71c0,0.26-0.11,0.52-0.3,0.71c-0.18,0.18-0.44,0.29-0.7,0.29c-0.27,0-0.52-0.11-0.71-0.29
		c-0.19-0.19-0.29-0.45-0.29-0.71c0-0.26,0.1-0.52,0.29-0.71C73.893,59.419,74.553,59.419,74.923,59.789z M62.603,72.979
		c0.19,0.19,0.3,0.44,0.3,0.71c0,0.26-0.11,0.521-0.3,0.71c-0.18,0.18-0.44,0.29-0.7,0.29c-0.27,0-0.53-0.11-0.71-0.29
		c-0.19-0.19-0.29-0.451-0.29-0.71c0-0.27,0.1-0.52,0.29-0.71C61.563,72.609,62.232,72.609,62.603,72.979z M87.253,72.979
		c0.18,0.19,0.29,0.44,0.29,0.71c0,0.26-0.11,0.521-0.29,0.7c-0.19,0.19-0.45,0.3-0.71,0.3c-0.27,0-0.52-0.11-0.71-0.29
		c-0.19-0.19-0.29-0.451-0.29-0.71c0-0.27,0.1-0.52,0.29-0.71C86.203,72.609,86.873,72.609,87.253,72.979z M74.923,74.27
		c0.19,0.19,0.3,0.44,0.3,0.71c0,0.26-0.11,0.52-0.3,0.71c-0.18,0.18-0.44,0.29-0.7,0.29c-0.27,0-0.52-0.11-0.71-0.29
		c-0.19-0.19-0.29-0.45-0.29-0.71c0-0.27,0.1-0.53,0.29-0.71C73.883,73.899,74.563,73.899,74.923,74.27z M62.603,87.459
		c0.19,0.19,0.3,0.44,0.3,0.71c0,0.26-0.11,0.52-0.3,0.7c-0.18,0.19-0.44,0.3-0.7,0.3c-0.27,0-0.53-0.11-0.71-0.3
		c-0.19-0.18-0.29-0.44-0.29-0.7c0-0.27,0.1-0.52,0.29-0.71C61.563,87.089,62.232,87.089,62.603,87.459z M87.253,87.459
		c0.18,0.18,0.29,0.44,0.29,0.71c0,0.26-0.11,0.52-0.3,0.71c-0.18,0.18-0.44,0.29-0.7,0.29c-0.27,0-0.53-0.11-0.71-0.3
		c-0.18-0.18-0.29-0.44-0.29-0.7c0-0.27,0.11-0.53,0.29-0.71C86.203,87.089,86.883,87.089,87.253,87.459z M74.933,88.75
		c0.18,0.19,0.29,0.44,0.29,0.71c0,0.26-0.11,0.521-0.3,0.7c-0.18,0.19-0.44,0.3-0.7,0.3c-0.27,0-0.52-0.11-0.71-0.3
		c-0.19-0.18-0.29-0.44-0.29-0.7c0-0.27,0.1-0.52,0.29-0.71C73.883,88.379,74.553,88.379,74.933,88.75z M27.243,36.822h4.86
		c0.552,0,1,0.448,1,1s-0.448,1-1,1h-4.86c-0.552,0-1-0.448-1-1S26.691,36.822,27.243,36.822z M33.104,48.352c0,0.552-0.448,1-1,1
		h-4.86c-0.552,0-1-0.448-1-1s0.448-1,1-1h4.86C32.656,47.352,33.104,47.799,33.104,48.352z M33.104,58.881c0,0.552-0.448,1-1,1
		h-4.86c-0.552,0-1-0.448-1-1s0.448-1,1-1h4.86C32.656,57.881,33.104,58.329,33.104,58.881z M33.104,69.41c0,0.552-0.448,1-1,1
		h-4.86c-0.552,0-1-0.448-1-1s0.448-1,1-1h4.86C32.656,68.41,33.104,68.858,33.104,69.41z M33.104,79.94c0,0.552-0.448,1-1,1h-4.86
		c-0.552,0-1-0.448-1-1s0.448-1,1-1h4.86C32.656,78.94,33.104,79.388,33.104,79.94z M29.674,13.647
		c-7.523,0-14.292,1.32-17.739,3.452l-7.73,1.987c0,0-0.001,0-0.002,0L4.19,19.09c-0.011,0.003-0.018,0.011-0.029,0.014
		c-0.104,0.03-0.2,0.078-0.29,0.14c-0.035,0.024-0.063,0.053-0.094,0.081c-0.034,0.03-0.073,0.053-0.103,0.088
		c-0.021,0.026-0.032,0.057-0.051,0.084c-0.025,0.037-0.047,0.072-0.067,0.112c-0.037,0.072-0.062,0.146-0.08,0.225
		c-0.009,0.038-0.021,0.072-0.026,0.111c-0.014,0.119-0.011,0.24,0.019,0.358c0,0.001,0,0.002,0,0.004
		c0.002,0.01,0.01,0.017,0.013,0.027c0.026,0.089,0.059,0.177,0.11,0.258l6.448,10.206l2.816,57.585
		c0,4.381,6.286,6.996,16.816,6.996c10.528,0,16.814-2.615,16.813-6.945l3.434-67.524c0.008-0.088,0.012-0.178,0.012-0.267
		C49.934,16.05,39.742,13.647,29.674,13.647z M44.489,88.384c0,2.487-4.581,4.996-14.814,4.996c-10.235,0-14.816-2.509-14.817-5.045
		l-2.83-57.897c-0.009-0.172-0.062-0.339-0.154-0.485L6.975,22.2l8.522,3.554c3.762,1.215,8.796,1.885,14.177,1.885
		c7.174,0,14.542-1.253,18.089-3.679L44.489,88.384z M29.674,25.638c-5.103,0-10.046-0.651-13.484-1.759l-8.612-3.595l5.007-1.287
		c0.103-0.027,0.201-0.07,0.291-0.127c3.051-1.958,9.645-3.224,16.799-3.224c11.305,0,18.249,2.906,18.258,4.991l-0.006,0.117
		C47.673,22.802,40.638,25.638,29.674,25.638z"/>
</g>
</svg>
