<?xml version="1.0" encoding="utf-8"?>
<!-- Generator: Adobe Illustrator 16.0.0, SVG Export Plug-In . SVG Version: 6.00 Build 0)  -->
<!DOCTYPE svg PUBLIC "-//W3C//DTD SVG 1.1//EN" "http://www.w3.org/Graphics/SVG/1.1/DTD/svg11.dtd">
<svg version="1.1" xmlns="http://www.w3.org/2000/svg" xmlns:xlink="http://www.w3.org/1999/xlink" x="0px" y="0px" width="100px"
	 height="100px" viewBox="0 0 100 100" enable-background="new 0 0 100 100" xml:space="preserve">
<g id="Calque_2">
</g>
<g id="v2">
	<path d="M68.967,69.324c1.781-1.132,3.369-2.735,4.72-4.765c1.336-2.001,2.384-4.327,3.114-6.914
		c0.75-2.67,1.131-5.496,1.131-8.399c0-2.904-0.381-5.729-1.131-8.395c-0.002-0.008-0.009-0.014-0.011-0.021
		c-0.006-0.725-0.29-2.489-13.798-2.489c-3.602,0-6.256,0.126-8.223,0.324c-0.368-4.146-1.826-8.036-4.186-11.048
		c-0.835-1.066-1.814-1.911-2.761-2.728c-0.723-0.624-1.405-1.212-2.018-1.886c-0.289-0.316-0.556-0.637-0.792-0.953
		c-1.474-1.984-1.677-4.207-1.742-6.734c0.003-0.031,0.018-0.058,0.018-0.09V1.066c0-0.552-0.448-1-1-1h-7.723c-0.552,0-1,0.448-1,1
		v14.16c0,0.033,0.016,0.06,0.019,0.091c-0.065,2.527-0.269,4.75-1.741,6.731c-0.236,0.316-0.502,0.638-0.795,0.958
		c-0.61,0.671-1.292,1.26-2.015,1.883c-0.947,0.817-1.926,1.661-2.762,2.728c-2.767,3.532-4.291,8.189-4.291,13.113v53.876
		c0,3.787,16.282,3.831,16.447,3.831c0.112,0,7.656-0.021,12.486-1.222c-0.011,0.063-0.028,0.125-0.028,0.191
		c0,1.765,4.081,2.659,12.13,2.659s12.13-0.895,12.13-2.659c0-1.699-3.795-2.589-11.261-2.653V71.058
		C65.645,70.911,67.353,70.349,68.967,69.324z M54.693,95.269c0.117-0.207,0.181-0.427,0.181-0.662V67.579
		c0.694,0.662,1.421,1.256,2.19,1.746c1.534,0.974,3.153,1.533,4.82,1.714v23.717C58.874,94.79,56.471,94.96,54.693,95.269z
		 M23.981,46.902c4.296,1.869,14.463,1.898,14.593,1.898c3.033,0,6.622-0.262,9.563-0.688c-0.013,0.378-0.038,0.754-0.038,1.135
		c0,2.904,0.381,5.729,1.132,8.4c0.729,2.586,1.777,4.912,3.113,6.912c0.028,0.043,0.061,0.079,0.089,0.122
		c-2.46,1.013-9.017,1.701-13.859,1.701c-6.638,0-13.503-1.12-14.5-2.029c-0.018-0.086-0.056-0.164-0.094-0.241V46.902z
		 M62.992,43.41c6.972,0,10.418-0.47,12.124-1.024c0.53,2.198,0.815,4.496,0.815,6.861c0,1.514-0.121,3-0.34,4.453
		c-1.507-0.627-4.908-1.199-12.6-1.199c-7.619,0-11.027,0.562-12.555,1.182c-0.217-1.448-0.337-2.928-0.337-4.436
		c0-2.36,0.284-4.654,0.812-6.846C52.635,42.948,56.083,43.41,62.992,43.41z M72.634,55.035c-2.105,0.292-5.448,0.534-9.642,0.534
		s-7.536-0.242-9.642-0.534c2.105-0.293,5.447-0.535,9.642-0.535C67.186,54.5,70.528,54.742,72.634,55.035z M72.021,63.451
		c-1.194,1.796-2.583,3.205-4.127,4.185c-3.107,1.972-6.65,1.972-9.758,0c-1.543-0.98-2.931-2.388-4.128-4.187
		c-1.221-1.827-2.181-3.961-2.852-6.345c-0.047-0.167-0.079-0.34-0.123-0.508c1.76,0.532,5.203,0.973,11.958,0.973
		c6.819,0,10.266-0.45,12.01-0.988c-0.045,0.173-0.079,0.351-0.127,0.522C74.203,59.487,73.243,61.622,72.021,63.451z
		 M72.634,40.875c-2.105,0.292-5.448,0.534-9.642,0.534s-7.536-0.242-9.642-0.534c2.105-0.292,5.448-0.534,9.642-0.534
		S70.528,40.583,72.634,40.875z M41.289,2.066v10.411c-0.05,0.125-0.078,0.261-0.073,0.404c0.015,0.456,0.023,0.902,0.031,1.345
		h-5.639c0.008-0.443,0.016-0.89,0.031-1.345c0.005-0.144-0.023-0.279-0.074-0.404V2.066H41.289z M27.846,28.851
		c0.716-0.913,1.58-1.658,2.494-2.447c0.736-0.635,1.497-1.292,2.187-2.05c0.335-0.366,0.645-0.739,0.921-1.11
		c1.638-2.204,1.995-4.552,2.103-7.017h5.754c0.108,2.464,0.465,4.813,2.104,7.019c0.277,0.371,0.587,0.744,0.918,1.106
		c0.692,0.761,1.453,1.418,2.189,2.053c0.915,0.789,1.778,1.534,2.494,2.447c2.138,2.729,3.455,6.279,3.776,10.073
		c-3.584,0.601-3.591,1.51-3.591,1.952c0,0.037,0,0.077,0.002,0.12c-0.452,1.637-0.752,3.337-0.924,5.075
		c-2.921,0.45-6.608,0.729-9.699,0.729c-6.637,0-13.503-1.121-14.5-2.03c-0.018-0.086-0.056-0.164-0.094-0.241V40.73
		C23.981,36.251,25.354,32.032,27.846,28.851z M23.981,94.428V66.484c4.296,1.868,14.463,1.897,14.593,1.897
		c4.151,0,11.044-0.559,14.315-1.746c-0.002,0.028-0.016,0.051-0.016,0.08v27.713c-1.054,0.905-7.858,2.009-14.446,2.009
		S25.035,95.333,23.981,94.428z M63.016,98.066c-4.155,0-7.114-0.325-8.783-0.659c1.527-0.306,4.146-0.601,7.763-0.65
		c0.163,0.331,0.496,0.563,0.89,0.563c0.395,0,0.729-0.234,0.892-0.566c3.749,0.038,6.458,0.339,8.022,0.652
		C70.129,97.741,67.17,98.066,63.016,98.066z M58.52,63.25c0.09,0.1,0.15,0.23,0.15,0.36c0,0.12-0.061,0.25-0.15,0.35
		c-0.1,0.09-0.22,0.14-0.359,0.14c-0.12,0-0.25-0.05-0.351-0.14c-0.09-0.09-0.14-0.22-0.14-0.35c0-0.14,0.05-0.27,0.14-0.36
		C58,63.06,58.33,63.06,58.52,63.25z M41.62,41.48c-0.1-0.1-0.15-0.23-0.15-0.36c0-0.13,0.05-0.26,0.14-0.35
		c0.2-0.19,0.52-0.19,0.71-0.01c0.09,0.1,0.15,0.23,0.15,0.36c0,0.13-0.06,0.26-0.15,0.36c-0.1,0.09-0.22,0.14-0.35,0.14
		S41.71,41.57,41.62,41.48z M34.94,43.17c-0.1-0.09-0.15-0.21-0.15-0.35s0.06-0.27,0.15-0.36c0.18-0.18,0.52-0.18,0.7,0.01
		c0.1,0.09,0.15,0.22,0.15,0.35s-0.05,0.26-0.14,0.35c-0.1,0.1-0.23,0.15-0.36,0.15C35.16,43.32,35.03,43.27,34.94,43.17z
		 M45.8,38.35c-0.09-0.09-0.15-0.22-0.15-0.36c0-0.13,0.05-0.25,0.15-0.35c0.2-0.19,0.51-0.18,0.7,0c0.1,0.09,0.15,0.22,0.15,0.35
		c0,0.14-0.05,0.27-0.15,0.36c-0.09,0.09-0.22,0.14-0.35,0.14S45.89,38.44,45.8,38.35z M37.43,35.83c-0.09-0.09-0.15-0.22-0.15-0.35
		c0-0.13,0.06-0.26,0.15-0.35c0.18-0.19,0.51-0.19,0.7-0.01c0.1,0.1,0.16,0.23,0.16,0.36c0,0.13-0.06,0.26-0.15,0.35
		c-0.1,0.1-0.22,0.15-0.36,0.15C37.65,35.98,37.52,35.93,37.43,35.83z M44.08,30.76c-0.09-0.1-0.14-0.23-0.14-0.35
		c0-0.13,0.05-0.26,0.14-0.35c0.19-0.2,0.52-0.2,0.71-0.01c0.09,0.1,0.14,0.23,0.14,0.36c0,0.12-0.05,0.25-0.14,0.35
		c-0.09,0.09-0.22,0.15-0.35,0.15C44.3,30.91,44.17,30.85,44.08,30.76z M38.08,23.39c-0.1-0.1-0.15-0.23-0.15-0.36
		s0.05-0.26,0.14-0.35c0.19-0.19,0.52-0.19,0.71-0.01c0.1,0.1,0.15,0.23,0.15,0.36s-0.05,0.26-0.15,0.35
		c-0.1,0.1-0.22,0.15-0.35,0.15C38.3,23.53,38.17,23.48,38.08,23.39z M37.43,28.82c-0.09-0.09-0.15-0.22-0.15-0.35
		s0.06-0.26,0.15-0.35c0.17-0.18,0.52-0.19,0.71,0c0.09,0.09,0.15,0.22,0.15,0.35s-0.06,0.26-0.15,0.36
		c-0.1,0.09-0.22,0.14-0.36,0.14C37.65,28.97,37.52,28.92,37.43,28.82z M31.69,31.03c-0.09-0.09-0.14-0.22-0.14-0.36
		c0-0.13,0.05-0.26,0.14-0.35c0.19-0.19,0.53-0.19,0.71,0c0.09,0.1,0.14,0.22,0.14,0.35s-0.05,0.26-0.14,0.36
		c-0.09,0.09-0.22,0.14-0.36,0.14C31.91,31.17,31.78,31.12,31.69,31.03z M30.25,36.55c-0.1-0.09-0.15-0.22-0.15-0.35
		c0-0.14,0.05-0.26,0.14-0.36c0.19-0.18,0.53-0.18,0.71,0c0.09,0.1,0.15,0.23,0.15,0.36s-0.06,0.26-0.15,0.35
		c-0.1,0.1-0.22,0.15-0.35,0.15C30.47,36.7,30.34,36.65,30.25,36.55z M26.76,42.13c-0.1-0.1-0.15-0.22-0.15-0.35
		c0-0.14,0.05-0.27,0.15-0.36c0.19-0.19,0.51-0.18,0.7,0c0.1,0.1,0.15,0.23,0.15,0.36c0,0.12-0.05,0.25-0.14,0.34
		c-0.1,0.1-0.23,0.16-0.36,0.16S26.85,42.22,26.76,42.13z M49.94,71.08c0.09,0.1,0.14,0.22,0.14,0.35c0,0.13-0.05,0.26-0.14,0.35
		c-0.1,0.1-0.22,0.15-0.36,0.15c-0.13,0-0.26-0.05-0.35-0.14c-0.09-0.1-0.15-0.23-0.15-0.36c0-0.13,0.05-0.25,0.15-0.35
		C49.41,70.89,49.75,70.89,49.94,71.08z M41.61,72.43c-0.09-0.09-0.14-0.22-0.14-0.35c0-0.14,0.05-0.26,0.14-0.36
		c0.19-0.18,0.52-0.18,0.71,0c0.1,0.1,0.15,0.22,0.15,0.36c0,0.13-0.06,0.26-0.15,0.35c-0.1,0.1-0.22,0.15-0.35,0.15
		S41.71,72.52,41.61,72.43z M36.74,77.84c0.1,0.09,0.15,0.22,0.15,0.35s-0.05,0.26-0.15,0.36c-0.09,0.09-0.22,0.14-0.35,0.14
		c-0.13,0-0.26-0.05-0.36-0.15c-0.09-0.09-0.14-0.22-0.14-0.35s0.05-0.26,0.14-0.35C36.22,77.65,36.55,77.65,36.74,77.84z
		 M48.76,77.84c0.09,0.09,0.14,0.22,0.14,0.35s-0.05,0.26-0.14,0.36c-0.1,0.09-0.22,0.14-0.36,0.14c-0.13,0-0.25-0.05-0.35-0.14
		c-0.09-0.1-0.15-0.22-0.15-0.36c0-0.13,0.06-0.26,0.15-0.35C48.24,77.65,48.57,77.65,48.76,77.84z M47.14,83.73
		c0.1,0.1,0.16,0.23,0.16,0.36c0,0.14-0.06,0.27-0.16,0.36c-0.08,0.09-0.21,0.14-0.35,0.14c-0.13,0-0.26-0.05-0.35-0.15
		c-0.09-0.08-0.15-0.21-0.15-0.35c0-0.13,0.06-0.26,0.15-0.35C46.62,83.56,46.95,83.55,47.14,83.73z M33.42,72.26
		c0.09,0.1,0.15,0.22,0.15,0.35c0,0.14-0.06,0.27-0.15,0.36c-0.1,0.09-0.22,0.14-0.36,0.14c-0.12,0-0.25-0.05-0.35-0.14
		c-0.09-0.1-0.15-0.23-0.15-0.36s0.06-0.25,0.15-0.35C32.9,72.07,33.23,72.07,33.42,72.26z M26.77,69.77
		c0.09,0.1,0.14,0.22,0.14,0.35c0,0.13-0.05,0.26-0.14,0.35c-0.1,0.1-0.23,0.15-0.36,0.15c-0.13,0-0.25-0.05-0.35-0.14
		c-0.09-0.1-0.15-0.23-0.15-0.36c0-0.13,0.06-0.26,0.15-0.35C26.25,69.58,26.58,69.58,26.77,69.77z M30.09,78.27
		c0.1,0.1,0.15,0.22,0.15,0.35c0,0.13-0.05,0.26-0.14,0.35c-0.11,0.1-0.23,0.15-0.36,0.15s-0.26-0.05-0.35-0.14
		c-0.1-0.1-0.15-0.23-0.15-0.36c0-0.13,0.05-0.26,0.14-0.35C29.57,78.08,29.91,78.08,30.09,78.27z M28.9,85.13
		c0.1,0.1,0.15,0.23,0.15,0.36s-0.06,0.25-0.15,0.35c-0.1,0.09-0.23,0.15-0.35,0.15c-0.13,0-0.26-0.06-0.35-0.15
		c-0.1-0.09-0.15-0.22-0.15-0.35c0-0.14,0.05-0.26,0.14-0.36C28.38,84.95,28.71,84.95,28.9,85.13z M36.74,85.13
		c0.1,0.1,0.15,0.22,0.15,0.36c0,0.13-0.05,0.26-0.15,0.35s-0.22,0.15-0.35,0.15c-0.13,0-0.26-0.06-0.35-0.15
		c-0.1-0.1-0.15-0.22-0.15-0.35s0.05-0.26,0.14-0.36C36.23,84.94,36.55,84.94,36.74,85.13z M42.32,87.49
		c0.1,0.1,0.15,0.22,0.15,0.36c0,0.13-0.06,0.26-0.15,0.35c-0.09,0.09-0.22,0.15-0.35,0.15s-0.26-0.06-0.36-0.15
		c-0.09-0.09-0.14-0.22-0.14-0.35c0-0.14,0.05-0.26,0.14-0.36C41.8,87.3,42.13,87.3,42.32,87.49z M48.52,90.71
		c0.1,0.09,0.15,0.22,0.15,0.35c0,0.13-0.05,0.26-0.14,0.36c-0.1,0.09-0.23,0.14-0.36,0.14s-0.26-0.05-0.35-0.14
		c-0.1-0.1-0.15-0.22-0.15-0.36c0-0.13,0.05-0.26,0.15-0.35C47.99,90.53,48.34,90.52,48.52,90.71z M35.14,91.25
		c0.09,0.09,0.14,0.22,0.14,0.35c0,0.14-0.05,0.27-0.15,0.36c-0.09,0.09-0.21,0.14-0.35,0.14c-0.13,0-0.26-0.05-0.35-0.15
		c-0.1-0.08-0.15-0.21-0.15-0.35c0-0.13,0.05-0.26,0.15-0.35C34.61,91.06,34.95,91.06,35.14,91.25z M28.37,91.99
		c0.1,0.1,0.15,0.23,0.15,0.36c0,0.13-0.05,0.26-0.14,0.35c-0.1,0.1-0.22,0.15-0.36,0.15c-0.13,0-0.26-0.05-0.35-0.15
		c-0.1-0.09-0.15-0.22-0.15-0.35c0-0.13,0.06-0.26,0.15-0.35C27.86,91.81,28.19,91.81,28.37,91.99z M42.75,78.26
		c0.1,0.11,0.15,0.23,0.15,0.36c0,0.13-0.05,0.26-0.14,0.35c-0.1,0.1-0.23,0.15-0.36,0.15s-0.25-0.05-0.35-0.14
		c-0.1-0.1-0.15-0.23-0.15-0.36c0-0.13,0.05-0.25,0.14-0.35C42.25,78.08,42.56,78.08,42.75,78.26z M69.35,59.81
		c0.101,0.11,0.15,0.23,0.15,0.36s-0.05,0.26-0.15,0.35c-0.09,0.1-0.22,0.15-0.35,0.15s-0.26-0.05-0.351-0.15
		c-0.1-0.09-0.149-0.22-0.149-0.35s0.05-0.25,0.14-0.35C68.85,59.62,69.16,59.63,69.35,59.81z M65.92,64.2
		c0.09,0.09,0.149,0.22,0.149,0.35s-0.06,0.26-0.14,0.35c-0.11,0.1-0.229,0.15-0.36,0.15c-0.13,0-0.26-0.05-0.35-0.14
		c-0.1-0.1-0.15-0.23-0.15-0.36c0-0.14,0.051-0.27,0.15-0.36C65.399,64.01,65.729,64.01,65.92,64.2z M63.229,60.24
		c0.101,0.1,0.16,0.23,0.16,0.36c0,0.13-0.06,0.26-0.149,0.35c-0.101,0.1-0.221,0.15-0.36,0.15c-0.13,0-0.26-0.05-0.35-0.15
		c-0.091-0.09-0.141-0.22-0.141-0.35c0-0.13,0.05-0.26,0.141-0.35C62.729,60.06,63.05,60.06,63.229,60.24z M55.939,59.17
		c0.101,0.1,0.15,0.23,0.15,0.36s-0.05,0.25-0.14,0.35c-0.11,0.1-0.23,0.15-0.36,0.15s-0.26-0.06-0.35-0.15
		c-0.101-0.09-0.15-0.22-0.15-0.35c0-0.14,0.05-0.27,0.15-0.36C55.41,58.99,55.75,58.98,55.939,59.17z"/>
</g>
</svg>
