<?xml version="1.0" encoding="utf-8"?>
<!-- Generator: Adobe Illustrator 16.0.0, SVG Export Plug-In . SVG Version: 6.00 Build 0)  -->
<!DOCTYPE svg PUBLIC "-//W3C//DTD SVG 1.1//EN" "http://www.w3.org/Graphics/SVG/1.1/DTD/svg11.dtd">
<svg version="1.1" xmlns="http://www.w3.org/2000/svg" xmlns:xlink="http://www.w3.org/1999/xlink" x="0px" y="0px" width="100px"
	 height="100px" viewBox="0 0 100 100" enable-background="new 0 0 100 100" xml:space="preserve">
<g id="Calque_2">
</g>
<g id="Calque_1">
	<path d="M80.84,76.228c-0.011,0-0.021,0.002-0.031,0.002c-1.138-4.412-5.14-7.687-9.903-7.687c-4.771,0-8.777,3.283-9.908,7.706
		c-1.985,0.113-3.569,1.748-3.569,3.76c0,2.087,1.696,3.784,3.782,3.784c0.243,0,0.485-0.037,0.726-0.084
		c1.744,3.162,5.109,5.311,8.97,5.311c3.876,0,7.255-2.165,8.993-5.35c0.306,0.078,0.621,0.123,0.941,0.123
		c2.084,0,3.779-1.697,3.779-3.784C84.619,77.924,82.924,76.228,80.84,76.228z M59.428,80.009c0-0.793,0.554-1.457,1.263-1.688
		c-0.007,0.153-0.023,0.305-0.023,0.46c0,1.045,0.159,2.053,0.451,3.002C60.179,81.734,59.428,80.961,59.428,80.009z M70.905,87.02
		c-4.543,0-8.238-3.695-8.238-8.238s3.695-8.238,8.238-8.238s8.238,3.695,8.238,8.238S75.448,87.02,70.905,87.02z M80.84,81.793
		c-0.05,0-0.096-0.016-0.145-0.02c0.29-0.947,0.448-1.951,0.448-2.992c0-0.178-0.018-0.351-0.026-0.525
		c0.849,0.134,1.502,0.865,1.502,1.753C82.619,80.992,81.821,81.793,80.84,81.793z M68.039,80.041c-0.793,0-1.435-0.641-1.435-1.434
		c0-0.791,0.642-1.433,1.435-1.433c0.79,0,1.432,0.642,1.432,1.433C69.471,79.4,68.829,80.041,68.039,80.041z M75.604,78.607
		c0,0.793-0.639,1.434-1.432,1.434c-0.791,0-1.432-0.641-1.432-1.434c0-0.791,0.641-1.433,1.432-1.433
		C74.965,77.175,75.604,77.816,75.604,78.607z M73.531,81.783c0.391,0.391,0.391,1.023,0,1.414
		c-0.632,0.632-1.465,0.947-2.305,0.947c-0.862,0-1.731-0.333-2.396-0.997c-0.391-0.391-0.391-1.023,0-1.414s1.023-0.391,1.414,0
		c0.531,0.531,1.371,0.551,1.872,0.05C72.508,81.393,73.141,81.393,73.531,81.783z M100,79.124c0-0.025-0.013-0.048-0.015-0.072
		V54.756c0-0.477-0.054-0.945-0.134-1.409c0.001-0.057,0.009-0.112,0.009-0.17c0-0.182-0.062-0.343-0.146-0.489
		c-1.056-4.141-5.153-7.501-9.91-7.92v-4.356c0.036-0.17,0.077-0.339,0.077-0.517c0-3.311-6.336-5.133-12.662-5.791
		c0.886-2.178,1.78-4.115,2.626-5.932c1.484-3.184,2.766-5.934,3.538-9.073c0.867-3.511,1.304-6.936,1.229-9.643
		c-0.087-3.192-0.87-4.993-2.326-5.353l-2.905-0.716c-0.397-0.097-1.033-0.119-1.796,0.34c-2.168,1.309-4.639,6.302-6.147,12.425
		c-0.775,3.146-0.922,6.182-1.092,9.696c-0.117,2.419-0.248,5.018-0.595,7.962c-2.286,0.046-4.555,0.22-6.672,0.518v-8.249
		c0-0.017-0.009-0.03-0.01-0.046c-0.004-0.093-0.024-0.181-0.054-0.268c-0.01-0.03-0.013-0.063-0.025-0.092
		c-0.049-0.109-0.115-0.21-0.2-0.296c-0.016-0.017-0.037-0.024-0.054-0.04c-0.064-0.057-0.131-0.114-0.211-0.154l-15.322-7.635
		c-0.139-0.068-0.292-0.104-0.446-0.104H22.587L16.813,0.938c-0.09-0.255-0.277-0.463-0.522-0.576
		c-0.244-0.114-0.525-0.125-0.776-0.028L0.646,5.973c-0.517,0.195-0.776,0.772-0.58,1.289c0.195,0.517,0.776,0.779,1.289,0.58
		l13.909-5.274l5.204,14.877H7.313c-0.464,0-0.867,0.319-0.974,0.771c-0.04,0.168-0.021,0.334,0.022,0.492v54.468
		c0,0.399,0.237,0.761,0.604,0.918l14.748,6.352c0.125,0.055,0.26,0.082,0.396,0.082h21.155v6.26
		c0,7.259,12.458,12.945,28.361,12.945c15.902,0,28.359-5.687,28.359-12.945v-7.389C99.989,79.306,100,79.216,100,79.124z
		 M97.985,79.355c-0.31,5.83-12.251,10.714-26.361,10.714c-14.074,0-25.989-4.857-26.359-10.668V57.898
		c4.035,4.857,14.179,8.225,26.359,8.225c12.183,0,22.328-3.368,26.361-8.229V79.355z M43.729,44.423
		C43.729,44.424,43.729,44.424,43.729,44.423c0.061,0.012,0.119,0.017,0.177,0.017c0.012,0,0.021-0.006,0.033-0.006
		c0.891,0.028,1.788-0.128,2.599-0.481c1.36-0.594,3.441-1.191,5.635-0.698v1.518c-4.525,0.44-8.061,3.844-8.77,8.326
		c-0.002,0.027-0.016,0.051-0.016,0.079c0,0.009,0.001,0.018,0.001,0.026c-0.074,0.506-0.123,1.022-0.123,1.553v8.857
		c-0.104,0.024-0.208,0.055-0.304,0.114c-0.354,0.22-1.019,0.482-2.174,0.482c-3.347,0-8.469-5.912-9.851-10.325
		c-0.806-2.574-0.596-5.412,0.55-7.404c0.955-1.661,2.502-2.746,4.599-3.225c2.201-0.499,4.288,0.103,5.653,0.697
		C42.365,44.227,43.043,44.378,43.729,44.423z M97.842,53.464c-0.38,5.807-12.227,10.659-26.218,10.659
		c-14.117,0-26.055-4.939-26.229-10.816c0.655-3.788,3.833-6.583,7.777-6.583c0.553,0,1-0.447,1-1v-2.944
		c3.271,2.119,10.082,3.219,16.853,3.219c6.722,0,13.483-1.085,16.78-3.174v2.899c0,0.553,0.447,1,1,1
		C92.721,46.724,97.042,49.531,97.842,53.464z M87.861,39.796c-0.027,0.091-0.057,0.182-0.057,0.282v0.112
		c-0.634,1.324-5.34,3.336-13.789,3.732c0.753-3.012,1.587-5.585,2.447-7.88C83.714,36.717,87.657,38.594,87.861,39.796z
		 M73.38,16.631c1.886-7.651,4.757-11.416,5.522-11.302l2.906,0.716c0.738,0.229,1.524,4.918-0.366,12.575
		c-0.727,2.95-1.97,5.618-3.409,8.708c-1.981,4.253-4.228,9.074-6.023,16.357c-0.027,0.112-0.046,0.188-0.061,0.239
		c-0.008,0.017-0.012,0.042-0.019,0.06c-0.303,0.004-0.595,0.014-0.906,0.014c-0.396,0-0.771-0.011-1.155-0.018
		c0.061-0.19,0.125-0.425,0.21-0.772c1.782-7.274,2.039-12.581,2.265-17.263C72.509,22.534,72.651,19.589,73.38,16.631z
		 M68.136,42.733c-0.146,0.601-0.212,0.771-0.312,1.03c-0.018,0.046-0.036,0.095-0.057,0.146
		c-8.937-0.459-13.603-2.732-13.603-4.016c0-1.346,5.267-3.838,15.323-4.077C69.181,37.924,68.756,40.204,68.136,42.733z
		 M52.165,39.895c0,0.043,0.017,0.082,0.019,0.125c-0.001,0.021-0.012,0.038-0.012,0.059v1.149
		c-2.554-0.452-4.892,0.218-6.435,0.892c-0.23,0.101-0.472,0.171-0.718,0.226c0.048-1.472-0.325-2.701-1.128-3.657
		c-1.139-1.357-3.088-2.075-5.636-2.075c-0.553,0-1,0.447-1,1s0.447,1,1,1c1.352,0,3.16,0.236,4.104,1.36
		c0.473,0.564,0.693,1.336,0.665,2.3c-0.165-0.047-0.332-0.085-0.488-0.152c-1.638-0.717-4.164-1.438-6.897-0.813
		c-2.625,0.599-4.661,2.043-5.888,4.178c-1.436,2.498-1.706,5.861-0.724,8.998c1.478,4.723,7.066,11.728,11.759,11.728
		c0.946,0,1.773-0.143,2.478-0.417v12.733H23.631V27.079H61.08v7.573C55.956,35.618,52.165,37.384,52.165,39.895z M21.167,19.444
		l1.116,3.191c0.145,0.412,0.531,0.67,0.944,0.67c0.109,0,0.221-0.018,0.33-0.056c0.521-0.183,0.796-0.753,0.614-1.274l-0.886-2.531
		h23.236l11.309,5.635H22.866l-11.306-5.635H21.167z M8.361,20.084l13.27,6.613v51.534l-13.27-5.715V20.084z M97.985,86.786
		c0,5.933-12.071,10.945-26.359,10.945c-14.289,0-26.361-5.013-26.361-10.945v-2.787c4.141,4.774,14.248,8.07,26.359,8.07
		c12.114,0,22.223-3.298,26.361-8.074V86.786z"/>
</g>
</svg>
