<?xml version="1.0" encoding="utf-8"?>
<!-- Generator: Adobe Illustrator 16.0.0, SVG Export Plug-In . SVG Version: 6.00 Build 0)  -->
<!DOCTYPE svg PUBLIC "-//W3C//DTD SVG 1.1//EN" "http://www.w3.org/Graphics/SVG/1.1/DTD/svg11.dtd">
<svg version="1.1" xmlns="http://www.w3.org/2000/svg" xmlns:xlink="http://www.w3.org/1999/xlink" x="0px" y="0px" width="100px"
	 height="100px" viewBox="0 0 100 100" enable-background="new 0 0 100 100" xml:space="preserve">
<g id="Calque_2">
</g>
<g id="Calque_1">
	<path d="M68.194,26.192c-4.6,0.702-11.163,1.104-18.008,1.104c-6.844,0-13.407-0.403-18.007-1.104
		c-0.547-0.083-0.922-0.594-0.838-1.14c0.083-0.545,0.584-0.924,1.14-0.838c4.504,0.688,10.957,1.082,17.705,1.082
		s13.202-0.395,17.707-1.082c0.547-0.086,1.056,0.292,1.139,0.838C69.116,25.598,68.741,26.108,68.194,26.192z M90.945,92.179
		l0.525,2.531c0.06,0.29-0.012,0.592-0.195,0.824c-0.184,0.232-0.46,0.371-0.756,0.379l-13.643,0.383c-0.01,0-0.02,0-0.028,0
		c-0.473,0-0.882-0.331-0.979-0.795l-0.43-2.058c-0.009,0-0.018,0.002-0.025,0.002c-1.442,0-2.685-0.691-3.633-2.036
		c-0.08-0.113-0.156-0.236-0.232-0.359c-4.645,0.734-11.237,1.156-18.291,1.156h-4.444c-0.638,0-1.26-0.009-1.885-0.015v1.204
		c0,0.35-0.183,0.673-0.481,0.855l-9.235,5.605c-0.027,0.017-0.057,0.023-0.085,0.037c-0.03,0.015-0.06,0.027-0.091,0.039
		C36.926,99.972,36.811,100,36.695,100h-0.001l0,0H9.086c-0.553,0-1-0.448-1-1V88.761c0-0.04,0.019-0.074,0.022-0.112
		c0.008-0.069,0.019-0.134,0.04-0.2c0.021-0.062,0.048-0.116,0.079-0.171s0.063-0.106,0.104-0.155
		c0.046-0.053,0.097-0.096,0.151-0.139c0.031-0.024,0.05-0.057,0.084-0.077l9.233-5.605c0.156-0.095,0.336-0.145,0.519-0.145h4.849
		c0.166-0.254,0.359-0.494,0.577-0.716c0.033-2.427,0.971-4.481,1.968-6.652c1.104-2.403,2.244-4.888,2.244-8.16V49.002
		c0-3.274-1.142-5.759-2.245-8.163c-1.015-2.21-1.973-4.297-1.973-6.783v-9.258c0-4.629,6.096-6.604,11.991-8.514
		c3.207-1.039,6.522-2.113,7.843-3.434c0.012-0.012,0.027-0.016,0.04-0.026c-0.408-0.365-0.647-0.803-0.647-1.326V4.792
		c0-0.552,0.447-1,1-1c1.419,0,3.949-2.119,4.115-2.84C48.081,0.399,48.524,0,49.077,0h2.115c0.553,0,1,0.448,1,1
		c0.162,0.672,2.691,2.792,4.111,2.792c0.553,0,1,0.448,1,1v6.708c0,0.503-0.226,0.927-0.607,1.284
		c0.033,0.025,0.073,0.038,0.104,0.068c1.321,1.32,4.637,2.395,7.844,3.434c5.896,1.91,11.992,3.885,11.992,8.514v9.258
		c0,2.486-0.959,4.573-1.975,6.783c-1.104,2.404-2.246,4.889-2.246,8.163v6.212l9.607-0.227c0.478-0.039,0.903,0.323,1.002,0.795
		l0.466,2.234c2.579,0.689,3.559,5.378,4.062,7.796l4.054,19.45C92.396,89.058,91.468,91.288,90.945,92.179z M82.639,59.951
		c-0.149,0.03-0.295,0.02-0.434-0.014l-9.66,0.228c0.89,0.939,1.74,2.311,2.156,4.31l4.365,20.938
		c0.554,2.654-0.033,4.604-0.741,5.885l10.999-0.307c0.348-0.664,0.944-2.334,0.323-5.319l-4.053-19.449
		C84.398,60.484,83.25,59.826,82.639,59.951z M81.237,57.007l-9.817,0.231c-0.002,0-0.003,0.001-0.005,0.001l-0.003-0.001
		l-1.469,0.035l0.199,0.948l11.292-0.266L81.237,57.007z M50.135,12.351c2.955,0,4.779-0.629,5.169-0.993V6.879
		c-1.416,0.538-3.372,0.761-5.169,0.761s-3.753-0.223-5.169-0.761v4.479C45.355,11.722,47.18,12.351,50.135,12.351z M46.165,5.168
		c0.896,0.253,2.23,0.472,3.97,0.472s3.074-0.219,3.97-0.472C52.599,4.43,51.104,3.155,50.486,2h-0.703
		C49.166,3.155,47.671,4.43,46.165,5.168z M27.932,81.776c-1.839,0-3.345,1.093-3.434,2.461c0.315,0.24,1.509,0.615,3.435,0.615
		s3.119-0.375,3.435-0.615C31.278,82.869,29.771,81.776,27.932,81.776z M12.66,87.761h23.755l5.939-3.605h-8.996
		c0.004,0.07,0.013,0.138,0.013,0.208c0,2.308-4.163,2.487-5.438,2.487s-5.438-0.18-5.438-2.487c0-0.07,0.009-0.139,0.013-0.208
		h-3.908L12.66,87.761z M35.694,89.761H10.086V98h25.608V89.761z M44.93,84.933l-7.235,4.392v7.899l7.235-4.392V84.933z
		 M70.645,89.166c-0.348-0.934-0.653-2.04-0.928-3.359l-3.745-17.958c-0.453-2.173-1.594-7.682,2.199-9.284l-0.431-2.058
		c-0.062-0.291,0.011-0.594,0.195-0.826c0.185-0.233,0.463-0.372,0.76-0.378l1.72-0.041v-6.259c0-3.711,1.29-6.52,2.429-8.998
		c0.962-2.092,1.792-3.9,1.792-5.948v-9.258c0-3.175-5.636-5-10.608-6.611c-3.59-1.163-6.98-2.261-8.642-3.922
		c-0.169-0.169-0.251-0.386-0.273-0.607c-1.398,0.488-3.261,0.692-4.978,0.692c-1.677,0-3.494-0.193-4.881-0.657
		c-0.029,0.208-0.106,0.412-0.267,0.572c-1.66,1.661-5.051,2.759-8.641,3.922c-4.972,1.611-10.607,3.437-10.607,6.611v9.258
		c0,2.049,0.83,3.856,1.791,5.949c1.138,2.478,2.427,5.286,2.427,8.997v17.625c0,3.709-1.289,6.518-2.427,8.995
		c-0.729,1.586-1.38,3.008-1.653,4.496c0.635-0.22,1.328-0.343,2.055-0.343c2.051,0,3.839,0.963,4.766,2.38H45.93
		c0.041,0,0.076,0.019,0.117,0.023c0.066,0.008,0.13,0.018,0.193,0.039c0.063,0.021,0.118,0.048,0.174,0.08
		c0.055,0.031,0.105,0.063,0.154,0.104c0.054,0.045,0.097,0.096,0.14,0.151c0.023,0.03,0.056,0.049,0.076,0.083
		c0.013,0.021,0.013,0.044,0.023,0.065c0.031,0.06,0.05,0.124,0.069,0.19c0.018,0.065,0.034,0.128,0.039,0.194
		c0.002,0.024,0.014,0.045,0.014,0.069v7.035c0.625,0.006,1.246,0.015,1.885,0.015h4.444C59.917,90.207,66.141,89.828,70.645,89.166
		z M75.785,91.414c0.515-0.512,2.006-2.323,1.324-5.593l-4.366-20.938c-0.683-3.278-2.778-4.339-3.454-4.602
		c-1.37,0.387-2.503,1.674-1.36,7.16l3.745,17.958c0.476,2.281,1.045,3.87,1.742,4.857C74.07,91.185,74.814,91.544,75.785,91.414z
		 M89.27,93.947l-0.197-0.948l-11.614,0.324l0.198,0.951L89.27,93.947z"/>
</g>
</svg>
