<?xml version="1.0" encoding="utf-8"?>
<!-- Generator: Adobe Illustrator 16.0.0, SVG Export Plug-In . SVG Version: 6.00 Build 0)  -->
<!DOCTYPE svg PUBLIC "-//W3C//DTD SVG 1.1//EN" "http://www.w3.org/Graphics/SVG/1.1/DTD/svg11.dtd">
<svg version="1.1" xmlns="http://www.w3.org/2000/svg" xmlns:xlink="http://www.w3.org/1999/xlink" x="0px" y="0px" width="100px"
	 height="100px" viewBox="0 0 100 100" enable-background="new 0 0 100 100" xml:space="preserve">
<g id="Titres">
</g>
<g id="Calque_1">
	<path d="M99.994,79.048c0-0.293-0.021-0.578-0.053-0.858c-1.024-16.396-30.98-24.414-46.313-25.585l5.182-22.146
		c0.106-0.267,0.166-0.541,0.166-0.823c0-0.041-0.014-0.079-0.016-0.119c-0.003-0.028-0.005-0.056-0.011-0.083
		c-0.123-1.378-1.494-2.536-4.179-3.521l2.335-11.684c0.097-0.483-0.173-0.964-0.636-1.134l-6.228-2.288
		c-0.266-0.098-0.563-0.077-0.815,0.056c-0.251,0.134-0.434,0.369-0.501,0.646l-1.533,6.307c-0.033,0.135-0.036,0.269-0.015,0.398
		l-2.063-0.107l0.864-9.351c0.025-0.269-0.06-0.536-0.235-0.741c-0.175-0.205-0.425-0.331-0.695-0.349l-6.312-0.418
		c-0.537-0.025-1.019,0.373-1.063,0.918l-1.099,13.689l-1.083-0.033L35.338,5.33c-0.012-0.544-0.456-0.979-1-0.979h-7.007
		c-0.266,0-0.521,0.106-0.708,0.294c-0.188,0.188-0.292,0.443-0.292,0.709l0.029,8.86l-3.184-0.096L22.248,7.14
		c-0.071-0.532-0.561-0.91-1.081-0.864L14.87,6.845c-0.269,0.024-0.517,0.156-0.687,0.366s-0.248,0.479-0.217,0.747l1.339,11.412
		l-2.45,0.199l-0.84-7.215c-0.033-0.285-0.188-0.542-0.423-0.706c-0.236-0.164-0.53-0.216-0.811-0.149l-6.092,1.509
		c-0.492,0.122-0.815,0.593-0.751,1.096l1.409,11.156c-3.306,1.011-5.175,2.471-5.319,4.166c-0.007,0.033-0.01,0.064-0.014,0.098
		C0.014,29.562,0,29.598,0,29.636c0,0.282,0.059,0.556,0.166,0.823l12.236,52.294L1.036,92.689C0.841,92.821,0.7,93.01,0.635,93.242
		C0.613,93.311,0.6,93.378,0.593,93.45c-0.001,0.019-0.011,0.036-0.011,0.055v5.161c0,0.291,0.127,0.567,0.347,0.757
		c0.183,0.158,0.415,0.243,0.653,0.243c0.049,0,0.098-0.003,0.147-0.011l97.418-14.516c0.49-0.073,0.853-0.495,0.853-0.99
		L99.994,79.048z M96.55,73.354c-1.287-0.585-2.82-0.741-4.455-0.426c-1.978,0.378-4.149,1.548-5.807,3.129
		c-0.504,0.481-0.926,0.972-1.278,1.463c-5.55-12.089-35.534-16.044-47.52-16.106c0.249-0.641,0.684-1.426,1.377-2.264
		c1.168-1.414,4.592-4.702,11.131-4.702C60.198,54.448,89.705,60.206,96.55,73.354z M56.961,29.583l-0.061,0.26
		c-0.235,0.396-1.116,1.073-3.276,1.801l0.749-3.748C56.343,28.659,56.9,29.316,56.961,29.583z M49.335,18.289l1.269-5.218
		l4.372,1.606l-2.281,11.418c-0.027,0.051-0.066,0.094-0.084,0.151c-0.046,0.145-0.051,0.291-0.032,0.433l-1.118,5.592
		c-0.332,0.083-0.678,0.167-1.049,0.249l0.68-13.113c0.014-0.265-0.078-0.524-0.256-0.721c-0.178-0.197-0.426-0.315-0.691-0.329
		l-0.822-0.042C49.326,18.305,49.333,18.299,49.335,18.289z M44.636,20.075l4.406,0.228l-0.654,12.621
		c-0.683,0.124-1.399,0.247-2.188,0.364c-0.49,0.073-0.853,0.494-0.853,0.989c0,1.121-0.63,2.187-1.713,3.141L44.636,20.075z
		 M39.788,9.31l4.303,0.285l-0.787,8.519c-0.335,0.145-0.585,0.464-0.607,0.854l-1.149,19.859c-0.639,0.338-1.343,0.65-2.106,0.931
		l0.504-16.807c0.017-0.552-0.417-1.013-0.97-1.029l-0.201-0.006L39.788,9.31z M32.853,41.208l0.653-17.45l4.411,0.133
		l-0.495,16.495C36.013,40.761,34.478,41.043,32.853,41.208z M28.334,6.351h5.024l0.331,15.412l-1.117-0.034
		c-0.525-0.025-1.008,0.413-1.029,0.962l-0.698,18.658c-0.449,0.018-0.9,0.032-1.357,0.032c-0.042,0-0.084-0.003-0.126-0.003
		l0.339-26.079c0.007-0.546-0.424-0.996-0.97-1.013l-0.371-0.011L28.334,6.351z M22.911,40.708l0.372-24.585l4.406,0.132
		l-0.326,25.05C25.8,41.207,24.305,41.002,22.911,40.708z M16.073,8.745l4.319-0.391l0.905,6.796l-0.379,25.06
		c-0.21-0.062-0.413-0.127-0.616-0.194l-1.898-19.909c-0.052-0.544-0.527-0.951-1.077-0.902l-0.026,0.002L16.073,8.745z
		 M13.056,33.382l-0.955-11.746l4.405-0.358l1.71,17.936c-2.818-1.29-4.588-3.041-4.588-4.938
		C13.629,33.883,13.396,33.545,13.056,33.382z M10.162,13.713l0.702,6.034c-0.507,0.084-0.879,0.533-0.837,1.055l0.992,12.2
		c-1.022-0.178-1.932-0.363-2.746-0.55L6.035,14.736L10.162,13.713z M5.603,27.271l0.585,4.638
		c-2.775-0.826-3.849-1.623-4.113-2.066L2.014,29.58C2.076,29.055,3.077,28.097,5.603,27.271z M2.754,32.742
		c1.954,0.962,4.937,1.766,8.952,2.404c0.795,4.466,7.668,7.895,16.489,8.204c0.048,0.008,0.091,0.03,0.141,0.03
		c0.004,0,0.009,0,0.014,0c0.042,0,0.079-0.019,0.12-0.024c0.339,0.009,0.675,0.024,1.02,0.024c3.208,0,6.183-0.418,8.759-1.144
		c0.041,0.006,0.076,0.026,0.119,0.028c0.263,0.012,0.511-0.09,0.699-0.262c1.431-0.456,2.714-1.015,3.826-1.654
		c0,0,0-0.001,0.001-0.001c2.433-1.4,4.021-3.195,4.378-5.201c4.015-0.638,6.998-1.442,8.952-2.404l-4.619,19.742
		c-0.56-0.022-1.102-0.036-1.604-0.036c-7.389,0-11.324,3.795-12.672,5.428c-1.408,1.703-2.178,3.542-2.097,4.924L14.107,81.263
		L2.754,32.742z M37.568,63.412c13.643,0.091,44.874,5.104,46.283,17.293L4.779,92.074L37.568,63.412z M2.582,97.506V94.41
		l82.46-11.856c0.493-0.071,0.858-0.493,0.858-0.99c0-0.14-0.024-0.273-0.03-0.412c0.032-0.133,0.04-0.273,0.012-0.416
		c-0.15-0.786,0.551-2.054,1.786-3.231c1.391-1.327,3.187-2.304,4.804-2.613c1.634-0.314,3.092-0.027,4.104,0.81
		c0.927,0.766,1.417,1.923,1.417,3.348l0.005,4.239L2.582,97.506z M45.915,68.36c-1.356-1.092-3.384-1.745-5.424-1.745
		c-1.019,0-1.988,0.17-2.804,0.492c-1.398,0.552-2.265,1.495-2.441,2.655c-0.177,1.161,0.371,2.319,1.541,3.261
		c1.357,1.092,3.386,1.744,5.428,1.744c1.018,0,1.986-0.17,2.801-0.491c1.398-0.552,2.265-1.496,2.441-2.657
		S47.084,69.302,45.915,68.36z M44.281,72.417c-0.583,0.23-1.298,0.352-2.067,0.352c-1.576,0-3.176-0.499-4.174-1.302
		c-0.583-0.47-0.882-0.981-0.818-1.402c0.064-0.421,0.501-0.82,1.199-1.096c0.584-0.23,1.3-0.353,2.069-0.353
		c1.575,0,3.172,0.499,4.17,1.303c0.584,0.47,0.882,0.98,0.818,1.402S44.978,72.142,44.281,72.417z M31.055,77.087
		c-2.675-0.366-6.087,1.084-7.688,3.186c-0.911,1.196-1.165,2.452-0.715,3.537c0.45,1.084,1.517,1.792,3.007,1.993
		c0.28,0.038,0.569,0.056,0.864,0.056c2.521,0,5.391-1.363,6.824-3.243c0.91-1.194,1.164-2.449,0.715-3.534
		C33.612,77.996,32.544,77.288,31.055,77.087z M31.757,81.403c-1.182,1.549-3.825,2.686-5.833,2.417
		c-0.742-0.1-1.262-0.383-1.425-0.776c-0.164-0.394,0.003-0.962,0.458-1.559c1.066-1.399,3.313-2.455,5.225-2.455
		c0.206,0,0.408,0.013,0.605,0.04c0.743,0.1,1.264,0.383,1.427,0.777C32.377,80.24,32.21,80.808,31.757,81.403z M65.454,72.064
		c-1.02-0.36-2.17-0.543-3.42-0.543c-2.948,0-5.966,1.029-7.878,2.686c-1.506,1.308-2.18,2.853-1.895,4.35
		c0.285,1.496,1.476,2.685,3.355,3.347c1.02,0.359,2.169,0.541,3.418,0.541c2.95,0,5.97-1.029,7.882-2.685
		c1.506-1.305,2.179-2.849,1.895-4.345C68.527,73.917,67.334,72.727,65.454,72.064z M65.606,78.249
		c-1.541,1.334-4.12,2.196-6.572,2.196c-1.007,0-1.959-0.148-2.753-0.427c-1.162-0.41-1.911-1.079-2.055-1.834
		c-0.144-0.757,0.309-1.656,1.241-2.465c1.54-1.335,4.118-2.197,6.568-2.197c1.007,0,1.96,0.148,2.754,0.429
		c1.164,0.411,1.914,1.081,2.057,1.837S66.538,77.441,65.606,78.249z M64.74,15.38c-0.143-0.534,0.174-1.082,0.707-1.225
		l5.188-1.389l-3.866-2.232c-0.479-0.276-0.642-0.888-0.366-1.366s0.887-0.644,1.366-0.366l3.868,2.233l-1.386-5.176
		c-0.143-0.534,0.174-1.082,0.707-1.225c0.535-0.144,1.082,0.173,1.225,0.707l1.904,7.107l6.626,3.826V8.626l-5.212-5.214
		c-0.391-0.391-0.391-1.024,0-1.414c0.391-0.391,1.023-0.391,1.414,0l3.798,3.799V1.334c0-0.552,0.448-1,1-1s1,0.448,1,1v4.467
		l3.79-3.79c0.391-0.391,1.023-0.391,1.414,0s0.391,1.024,0,1.414l-5.204,5.203v7.642l6.621-3.822l1.903-7.107
		c0.143-0.533,0.688-0.853,1.225-0.707c0.533,0.143,0.85,0.691,0.707,1.225l-1.386,5.176l3.867-2.233
		c0.479-0.277,1.09-0.112,1.366,0.366c0.276,0.479,0.112,1.09-0.366,1.366l-3.865,2.231l5.188,1.389
		c0.533,0.143,0.85,0.691,0.707,1.225c-0.12,0.447-0.523,0.742-0.965,0.742c-0.085,0-0.172-0.011-0.259-0.035l-7.12-1.906
		l-6.625,3.825l6.628,3.827l7.107-1.905c0.533-0.143,1.082,0.174,1.225,0.707s-0.173,1.082-0.707,1.225l-5.176,1.387l3.867,2.232
		c0.479,0.276,0.642,0.888,0.366,1.366c-0.186,0.321-0.521,0.5-0.867,0.5c-0.169,0-0.341-0.043-0.499-0.134l-3.865-2.231
		l1.392,5.188c0.143,0.534-0.173,1.082-0.707,1.225c-0.087,0.023-0.174,0.035-0.26,0.035c-0.441,0-0.846-0.295-0.965-0.741
		l-1.91-7.121l-6.625-3.825v7.654l5.204,5.204c0.391,0.391,0.391,1.023,0,1.414c-0.195,0.195-0.451,0.293-0.707,0.293
		s-0.512-0.098-0.707-0.293l-3.79-3.79v4.465c0,0.552-0.448,1-1,1s-1-0.448-1-1v-4.462l-3.798,3.798
		c-0.195,0.195-0.451,0.293-0.707,0.293s-0.512-0.098-0.707-0.293c-0.391-0.39-0.391-1.023,0-1.414l5.212-5.213v-7.66l-6.632,3.829
		l-1.909,7.119c-0.12,0.447-0.524,0.742-0.965,0.742c-0.085,0-0.173-0.011-0.259-0.035c-0.534-0.143-0.85-0.691-0.707-1.225
		l1.391-5.187l-3.865,2.232c-0.158,0.091-0.33,0.134-0.499,0.134c-0.346,0-0.682-0.179-0.867-0.5
		c-0.276-0.479-0.112-1.09,0.366-1.366l3.868-2.233l-5.175-1.387c-0.534-0.143-0.85-0.691-0.707-1.225s0.692-0.852,1.225-0.707
		l7.107,1.905l6.626-3.826l-6.623-3.824l-7.121,1.907c-0.087,0.023-0.174,0.035-0.259,0.035C65.264,16.122,64.86,15.827,64.74,15.38
		z"/>
</g>
</svg>
