<?xml version="1.0" encoding="utf-8"?>
<!-- Generator: Adobe Illustrator 16.0.0, SVG Export Plug-In . SVG Version: 6.00 Build 0)  -->
<!DOCTYPE svg PUBLIC "-//W3C//DTD SVG 1.1//EN" "http://www.w3.org/Graphics/SVG/1.1/DTD/svg11.dtd">
<svg version="1.1" xmlns="http://www.w3.org/2000/svg" xmlns:xlink="http://www.w3.org/1999/xlink" x="0px" y="0px" width="100px"
	 height="100px" viewBox="0 0 100 100" enable-background="new 0 0 100 100" xml:space="preserve">
<g id="Calque_2">
</g>
<g id="Calque_1">
	<path d="M58.313,82.253c0,1.463-1.186,2.647-2.648,2.647c-1.464,0-2.65-1.185-2.65-2.647c0-1.464,1.187-2.649,2.65-2.649
		C57.127,79.604,58.313,80.789,58.313,82.253z M44.877,79.604c-1.463,0-2.65,1.186-2.65,2.649c0,1.463,1.188,2.647,2.65,2.647
		c1.462,0,2.646-1.185,2.646-2.647C47.524,80.789,46.34,79.604,44.877,79.604z M99.334,26.796c0,0.127-0.024,0.252-0.071,0.369
		c-0.871,2.19-3.231,3.83-6.476,4.499c-1.015,0.209-2.039,0.311-3.044,0.311c-3.367,0.001-6.542-1.137-8.584-3.18
		c-0.463-0.461-0.861-1.468-1.472-3.072c-0.259-0.682-0.639-1.679-0.846-2.038c-3.307,1.023-3.785,9.911-3.785,19.475
		c0,11.684,1.451,17.424,2.616,22.036c0.761,3.013,1.419,5.615,1.419,9.006c0,0.436-0.282,0.796-0.669,0.934
		c-0.851,1.025-2,3.452-3.215,6.029c-3.107,6.592-6.945,14.704-12.25,15.413C61.687,98.919,55.659,100,50.001,100
		c-4.255,0-11.058-0.692-12.792-3.117c-5.383-0.567-9.264-8.873-12.399-15.612c-1.118-2.402-2.18-4.68-3.008-5.846
		c-0.365-0.082-0.644-0.354-0.736-0.715c-0.092-0.151-0.159-0.318-0.159-0.509c0-0.17,0.053-0.322,0.128-0.463
		c0.087-3.038,0.696-5.485,1.4-8.276c1.165-4.612,2.614-10.352,2.614-22.036c0-9.771-0.506-18.816-4.009-19.511
		c-0.214,0.455-0.514,1.241-0.731,1.813c-0.609,1.601-1.006,2.605-1.468,3.067c-2.653,2.653-7.22,3.775-11.629,2.869
		c-3.245-0.67-5.604-2.31-6.475-4.499c-0.047-0.117-0.071-0.242-0.071-0.369C0.666,9.204,17.792,0,34.708,0
		c0.056,0,0.109,0.013,0.164,0.022c0.017,0.003,0.034,0.003,0.051,0.007c0.016,0.003,0.032,0.002,0.047,0.006
		c5.672,1.537,18.384,3.268,30.052,0.002c0.014-0.004,0.028-0.003,0.042-0.006c0.027-0.007,0.055-0.007,0.083-0.012
		C65.195,0.013,65.242,0,65.291,0C82.208,0,99.334,9.204,99.334,26.796z M36.11,2.368c1.922,5.945,7.521,10.116,13.891,10.116
		c6.357,0,11.944-4.157,13.876-10.086C51.909,5.29,40.434,3.329,36.11,2.368z M36.767,94.773
		c-0.199-11.944-4.449-18.471-12.655-19.433c0.753,1.309,1.571,3.064,2.511,5.086C29.25,86.073,32.774,93.628,36.767,94.773z
		 M75.881,75.342c-8.133,0.956-12.377,7.386-12.641,19.142c4.003-1.136,7.529-8.596,10.158-14.172
		C74.328,78.34,75.136,76.627,75.881,75.342z M97.333,26.593C97.203,10.71,81.668,2.284,66.068,2.013
		c-1.869,7.271-8.486,12.472-16.066,12.472c-7.584,0-14.203-5.2-16.07-12.472c-15.6,0.271-31.134,8.697-31.264,24.58
		c0.674,1.452,2.506,2.608,4.949,3.112c3.086,0.638,7.32,0.166,9.811-2.324c0.21-0.255,0.712-1.575,1.013-2.364
		c0.853-2.241,1.206-3.169,2.167-3.169c5.389,0,6.443,7.912,6.443,21.578c0,11.933-1.483,17.807-2.675,22.526
		c-0.657,2.604-1.193,4.733-1.325,7.301c10.293,0.531,15.738,8.231,15.738,22.392l0,0C38.937,96.286,42.613,98,50.001,98
		c7.382,0,11.056-1.712,11.211-2.363c0.002-14.21,5.489-21.912,15.856-22.39c-0.108-2.684-0.656-4.872-1.335-7.562
		c-1.193-4.72-2.677-10.594-2.677-22.526c0-13.666,1.055-21.577,6.445-21.577c0.547,0,0.989,0.44,0.997,0.985
		c0.32,0.511,0.625,1.306,1.058,2.443c0.301,0.791,0.805,2.114,1.028,2.383c2.478,2.477,6.708,2.949,9.798,2.312
		C94.827,29.201,96.659,28.045,97.333,26.593z M67.822,45.408c0,2.589-2.105,4.695-4.693,4.695c-0.486,0-0.964-0.083-1.421-0.228
		c-2.212,4.251-6.652,7.166-11.767,7.166c-5.081,0-9.498-2.876-11.725-7.082c-0.371,0.093-0.753,0.144-1.145,0.144
		c-2.588,0-4.693-2.106-4.693-4.695c0-2.579,2.094-4.678,4.671-4.69c1.331-5.605,6.217-9.833,12.14-10.168
		c-0.173-0.178-0.283-0.417-0.286-0.685l-0.027-2.907c-0.036-2.087-1.746-3.74-3.874-3.742c-1.673,0.029-3.017,1.421-2.989,3.102
		c0.011,0.649,0.276,1.26,0.747,1.716c0.396,0.385,0.406,1.018,0.021,1.414c-0.385,0.397-1.018,0.406-1.414,0.021
		c-0.853-0.828-1.333-1.935-1.354-3.118c-0.046-2.782,2.179-5.086,4.96-5.135c3.166-0.04,5.846,2.523,5.902,5.704l0.027,2.926
		c0.002,0.272-0.105,0.519-0.28,0.7c5.961,0.306,10.888,4.555,12.217,10.191c0.096-0.006,0.192-0.021,0.289-0.021
		C65.717,40.716,67.822,42.821,67.822,45.408z M37.403,48.065c-0.462-1.347-0.725-2.785-0.725-4.287c0-0.344,0.026-0.682,0.052-1.02
		c-1.294,0.178-2.352,1.287-2.353,2.649c0,1.486,1.208,2.695,2.693,2.695C37.185,48.104,37.293,48.079,37.403,48.065z
		 M61.205,43.778c0-6.213-5.053-11.267-11.264-11.267c-6.21,0-11.262,5.054-11.262,11.267c0,6.211,5.052,11.264,11.262,11.264
		C56.152,55.042,61.205,49.989,61.205,43.778z M65.822,45.408c0-1.477-1.196-2.678-2.671-2.69c0.028,0.352,0.054,0.703,0.054,1.061
		c0,1.484-0.256,2.906-0.708,4.24c0.206,0.049,0.417,0.085,0.631,0.085C64.614,48.104,65.822,46.895,65.822,45.408z M48.038,43.547
		c0-1.05-0.852-1.901-1.901-1.901c-1.051,0-1.905,0.852-1.905,1.901c0,1.052,0.854,1.906,1.905,1.906
		C47.187,45.453,48.038,44.599,48.038,43.547z M54.278,41.646c-1.049,0-1.9,0.852-1.9,1.901c0,1.052,0.852,1.906,1.9,1.906
		c1.053,0,1.902-0.854,1.902-1.906C56.18,42.497,55.331,41.646,54.278,41.646z M51.782,47.993c-0.793,0.796-2.116,0.768-2.949-0.066
		c-0.392-0.39-1.024-0.391-1.414,0.002c-0.39,0.391-0.39,1.023,0.001,1.414c0.818,0.816,1.888,1.227,2.95,1.227
		c1.03,0,2.053-0.387,2.828-1.162c0.39-0.392,0.39-1.024-0.001-1.415C52.805,47.603,52.172,47.602,51.782,47.993z"/>
</g>
</svg>
