<?xml version="1.0" encoding="utf-8"?>
<!-- Generator: Adobe Illustrator 16.0.0, SVG Export Plug-In . SVG Version: 6.00 Build 0)  -->
<!DOCTYPE svg PUBLIC "-//W3C//DTD SVG 1.1//EN" "http://www.w3.org/Graphics/SVG/1.1/DTD/svg11.dtd">
<svg version="1.1" xmlns="http://www.w3.org/2000/svg" xmlns:xlink="http://www.w3.org/1999/xlink" x="0px" y="0px" width="100px"
	 height="100px" viewBox="0 0 100 100" enable-background="new 0 0 100 100" xml:space="preserve">
<g id="Titres">
</g>
<g id="Calque_1">
	<path d="M99.997,63.414c0-0.294-0.021-0.58-0.053-0.862c-1.117-17.915-36.605-25.891-50.236-25.891
		c-7.43,0-11.387,3.817-12.743,5.458c-1.416,1.713-2.191,3.563-2.108,4.953L0.461,77.138c-0.198,0.131-0.341,0.323-0.406,0.559
		c-0.021,0.067-0.035,0.134-0.042,0.205c-0.001,0.02-0.011,0.036-0.011,0.056v5.192c0,0.291,0.127,0.567,0.347,0.757
		c0.183,0.158,0.415,0.243,0.653,0.243c0.049,0,0.098-0.003,0.147-0.011l98-14.603c0.49-0.073,0.853-0.495,0.853-0.99L99.997,63.414
		z M38.506,43.393c1.176-1.423,4.621-4.732,11.202-4.732c10.266,0,39.968,5.797,46.843,19.036c-1.296-0.595-2.844-0.753-4.493-0.435
		c-1.989,0.381-4.171,1.558-5.839,3.147c-0.51,0.486-0.936,0.983-1.292,1.48C79.357,49.72,49.171,45.74,37.118,45.68
		C37.368,45.032,37.806,44.24,38.506,43.393z M37.202,47.678c13.726,0.091,45.157,5.137,46.567,17.408L4.199,76.526L37.202,47.678z
		 M2.002,81.988v-3.125l82.958-11.928c0.493-0.071,0.858-0.493,0.858-0.99c0-0.142-0.024-0.276-0.03-0.416
		c0.032-0.133,0.04-0.274,0.012-0.417c-0.152-0.792,0.554-2.07,1.798-3.256c1.401-1.335,3.208-2.318,4.836-2.63
		c1.646-0.317,3.115-0.026,4.134,0.816c0.935,0.772,1.428,1.938,1.428,3.373l0.004,4.27L2.002,81.988z M45.597,52.667
		c-1.363-1.098-3.402-1.754-5.454-1.754c-1.024,0-1.999,0.171-2.818,0.495c-1.404,0.554-2.275,1.501-2.452,2.667
		c-0.177,1.166,0.373,2.329,1.549,3.275c1.364,1.097,3.404,1.752,5.455,1.752c1.022,0,1.996-0.17,2.815-0.493
		c1.404-0.554,2.275-1.501,2.453-2.667S46.772,53.612,45.597,52.667z M43.958,56.748c-0.587,0.232-1.307,0.354-2.082,0.354
		c-1.586,0-3.196-0.502-4.202-1.31c-0.589-0.474-0.889-0.991-0.825-1.417c0.065-0.426,0.505-0.83,1.209-1.107
		c0.588-0.232,1.309-0.355,2.084-0.355c1.585,0,3.194,0.503,4.199,1.313c0.589,0.474,0.89,0.99,0.825,1.416
		C45.103,56.067,44.661,56.47,43.958,56.748z M30.651,61.446c-2.692-0.363-6.12,1.091-7.729,3.203
		c-0.915,1.201-1.169,2.462-0.718,3.551c0.452,1.089,1.524,1.8,3.021,2.001c0.282,0.038,0.573,0.056,0.869,0.056
		c2.534,0,5.419-1.371,6.859-3.26c0.915-1.2,1.169-2.46,0.718-3.55C33.22,62.359,32.147,61.648,30.651,61.446z M31.362,65.786
		c-1.19,1.56-3.851,2.71-5.872,2.434c-0.75-0.101-1.274-0.387-1.439-0.785s0.003-0.972,0.461-1.573
		c1.074-1.409,3.336-2.472,5.262-2.472c0.208,0,0.411,0.013,0.609,0.04c0.75,0.101,1.275,0.387,1.44,0.785
		C31.988,64.612,31.82,65.185,31.362,65.786z M65.254,56.394c-1.025-0.362-2.183-0.546-3.438-0.546
		c-2.964,0-5.999,1.035-7.922,2.701c-1.514,1.314-2.189,2.866-1.903,4.37c0.286,1.503,1.483,2.697,3.372,3.363
		c1.024,0.361,2.181,0.544,3.436,0.544c2.966,0,6.002-1.034,7.925-2.7c1.513-1.312,2.189-2.863,1.904-4.366
		C68.342,58.255,67.144,57.06,65.254,56.394z M65.413,62.614c-1.551,1.343-4.147,2.21-6.615,2.21c-1.014,0-1.972-0.148-2.771-0.43
		c-1.172-0.413-1.927-1.087-2.072-1.85c-0.146-0.764,0.31-1.669,1.25-2.485c1.551-1.343,4.146-2.211,6.611-2.211
		c1.014,0,1.973,0.149,2.772,0.432c1.173,0.414,1.929,1.089,2.074,1.853S66.352,61.8,65.413,62.614z M8.673,44.931
		c-2.019-3.85-1.844-8.722,0.448-12.413c0.896-1.453,2.062-2.672,3.189-3.852c0.477-0.499,0.954-0.997,1.409-1.513
		c1.762-1.995,2.641-3.784,2.686-5.468c0.05-1.751-1.197-3.762-2.939-3.835c-0.552-0.023-0.98-0.489-0.957-1.041
		c0.023-0.551,0.511-0.968,1.041-0.957c3,0.125,4.933,3.146,4.854,5.888c-0.058,2.171-1.1,4.375-3.185,6.737
		c-0.473,0.535-0.968,1.054-1.463,1.571c-1.104,1.155-2.147,2.246-2.934,3.521c-1.926,3.104-2.074,7.197-0.377,10.432
		c0.256,0.489,0.068,1.094-0.421,1.351c-0.148,0.078-0.307,0.114-0.463,0.114C9.2,45.467,8.853,45.272,8.673,44.931z M21.521,49.086
		c-1.955-3.441-1.632-8.042,0.786-11.188c0.389-0.505,0.816-0.962,1.23-1.405c0.532-0.568,1.034-1.104,1.42-1.702
		c0.897-1.397,1.146-3.244,0.646-4.818c-0.167-0.526,0.125-1.088,0.651-1.255c0.526-0.165,1.089,0.125,1.255,0.651
		c0.684,2.158,0.358,4.59-0.871,6.506c-0.486,0.75-1.073,1.377-1.642,1.984c-0.398,0.426-0.775,0.829-1.105,1.257
		c-1.941,2.526-2.201,6.22-0.632,8.981c0.272,0.48,0.104,1.091-0.375,1.364c-0.156,0.088-0.326,0.13-0.493,0.13
		C22.043,49.592,21.705,49.41,21.521,49.086z"/>
</g>
</svg>
