<svg id="Calque_1" data-name="Calque 1" xmlns="http://www.w3.org/2000/svg" viewBox="0 0 300 300"><defs><style>.cls-1{fill:#1d1d1b;}</style></defs><title>picto_anjou</title><path class="cls-1" d="M150,6.25A144,144,0,0,1,251.82,252.07,144,144,0,1,1,48.18,48.43,143,143,0,0,1,150,6.25m0-6a150,150,0,1,0,150,150A150,150,0,0,0,150,.25Z" transform="translate(0 -0.25)"/><path d="M141.76,253.21a2.5,2.5,0,0,1-1.08-4.76C176,231.54,215.85,194,219.75,151.57c1.84-20.08,1.7-45.28,1.57-69.64,0-5.43-.06-10.84-.06-16.16H69.75a2.5,2.5,0,0,1,0-5h154a2.5,2.5,0,0,1,2.5,2.5c0,6.11,0,12.36.07,18.64.13,24.48.27,49.79-1.59,70.12-4.07,44.38-45.31,83.43-81.9,100.93A2.4,2.4,0,0,1,141.76,253.21Z" transform="translate(0 -0.25)"/><path d="M143,255.5a2.5,2.5,0,0,1-1.19-4.7c62.4-33.56,79.05-81.69,79.05-104.83,0-18.56,1-81.84,1-82.48a2.5,2.5,0,0,1,4.26-1.73L234.43,70a2.52,2.52,0,0,1,.74,1.78c0,6.43,0,12.67.08,18.75.14,22.45.27,43.65-1.75,63.82C229.05,198.66,184,237.73,144,255.29A2.56,2.56,0,0,1,143,255.5ZM226.76,69.44c-.26,16.2-.95,61.37-.95,76.53,0,14.93-6.52,39.72-26.56,64.67,15.72-16.57,27.2-36.11,29.27-56.8,2-19.91,1.87-40,1.73-63.29,0-5.76-.08-11.67-.08-17.74Z" transform="translate(0 -0.25)"/><path d="M96.1,158.86h0a1.49,1.49,0,0,1-1.28-.71,36.43,36.43,0,0,1-3.86-10c-2,2.17-4.78,3.14-7.27,2.33a6.19,6.19,0,0,1-3.85-2.89,4.78,4.78,0,0,1,0-3.89,1.5,1.5,0,0,1,2.88.78,1,1,0,0,0,.47,1.13,1.7,1.7,0,0,0,2-.53,9.91,9.91,0,0,0,2.64-4.77l-.73-.27a4,4,0,0,1-2.26-4.94,3.86,3.86,0,0,1,2-2.35,3.47,3.47,0,0,1,.61-.23c-1.33-4.14-4.14-7.26-6.89-7.39-2.55-.13-4.38.57-5.28,2a5.58,5.58,0,0,0,.14,5.42,3.6,3.6,0,0,0,2.88,2h0a1.5,1.5,0,0,1,.5,2.92,9.74,9.74,0,0,1-4.66.19c-5.45-1-10-4.88-11.21-9.77-1.15-4.5.55-9,4.68-12.29s8.7-4.33,13.16-2.9a16.89,16.89,0,0,1,7.22,4.81,24.86,24.86,0,0,1-2.42-8v-.11c0-13.26,9.24-27.71,9.33-27.85A1.54,1.54,0,0,1,96.12,81a1.51,1.51,0,0,1,1.25.7c.38.6,9.31,14.83,9.31,27.82a.41.41,0,0,1,0,.11,24.37,24.37,0,0,1-2.42,8,16.92,16.92,0,0,1,7.23-4.81c4.45-1.43,9-.43,13.15,2.9s5.84,7.79,4.68,12.29c-1.25,4.89-5.75,8.81-11.2,9.77a9.72,9.72,0,0,1-4.66-.19,1.51,1.51,0,0,1-1-1.68,1.47,1.47,0,0,1,1.49-1.24,3.63,3.63,0,0,0,2.9-2,5.6,5.6,0,0,0,.15-5.42c-.91-1.46-2.73-2.16-5.28-2-2.75.13-5.56,3.25-6.89,7.39a3.37,3.37,0,0,1,.6.23,3.86,3.86,0,0,1,2,2.35,4,4,0,0,1-2.26,4.94c-.23.09-.47.18-.73.26a10,10,0,0,0,2.64,4.78,1.7,1.7,0,0,0,2,.53,1,1,0,0,0,.48-1.13,1.5,1.5,0,0,1,2.88-.78,4.82,4.82,0,0,1,0,3.89,6.21,6.21,0,0,1-3.82,2.88l-.49-1.42.46,1.43c-2.49.81-5.22-.16-7.28-2.33a37,37,0,0,1-3.85,10A1.52,1.52,0,0,1,96.1,158.86Zm-2.21-11.33a35.46,35.46,0,0,0,2.21,6.52,36.31,36.31,0,0,0,2.2-6.52,47.12,47.12,0,0,1-1.51-7.19,1.53,1.53,0,0,1,.31-1.13,1.55,1.55,0,0,1,1-.55l.46-.06.37-.06a1.5,1.5,0,0,1,1.66,1.19,21.15,21.15,0,0,0,1.14,3.82,7.2,7.2,0,0,0,3.3,3.83.93.93,0,0,1-.14-.14,13.37,13.37,0,0,1-3.72-7.72,1.5,1.5,0,0,1,1.07-1.65c.67-.19,1.25-.38,1.79-.59a1,1,0,0,0,.46-1.26.89.89,0,0,0-.41-.54.45.45,0,0,0-.39,0l-.26.08a1.56,1.56,0,0,1-1.53-.25,1.48,1.48,0,0,1-.54-1.41c1.25-6.45,5.62-11.49,10.17-11.72,4.93-.25,7.11,2,8,3.45a8.46,8.46,0,0,1-.08,8.47l-.15.25a10.65,10.65,0,0,0,7.09-7.11c.86-3.36-.44-6.63-3.65-9.21s-6.92-3.49-10.37-2.39c-5,1.61-9.43,7.17-11.49,14.5a18.48,18.48,0,0,0-.7,5.07,1.51,1.51,0,0,1-1.31,1.47l-.24,0-.54.07a1.48,1.48,0,0,1-1.15-.39,1.51,1.51,0,0,1-.49-1.11c0-7.65,2.54-13.28,4.55-17.8,1.32-3,2.47-5.56,2.66-8,0-9.42-5.13-19.65-7.58-24-2.44,4.37-7.56,14.67-7.58,24,.19,2.49,1.33,5.07,2.66,8,2,4.52,4.51,10.15,4.54,17.8a1.46,1.46,0,0,1-.48,1.11,1.51,1.51,0,0,1-1.16.39l-.54-.07-.24,0A1.5,1.5,0,0,1,92,135.2a19.28,19.28,0,0,0-.7-5.07c-2.07-7.33-6.47-12.89-11.5-14.5-3.45-1.1-7-.28-10.36,2.39s-4.51,5.85-3.65,9.21a10.61,10.61,0,0,0,7.09,7.11l-.15-.25a8.46,8.46,0,0,1-.08-8.47c.86-1.4,3-3.7,8-3.45,4.54.23,8.92,5.27,10.17,11.72a1.5,1.5,0,0,1-.5,1.42,1.52,1.52,0,0,1-1.49.27l-.34-.11a.44.44,0,0,0-.39,0,.9.9,0,0,0-.42.54,1,1,0,0,0,.46,1.26c.54.21,1.13.4,1.8.59A1.51,1.51,0,0,1,91,139.52a13.43,13.43,0,0,1-3.72,7.72l-.13.13a7.2,7.2,0,0,0,3.29-3.82,21.16,21.16,0,0,0,1.13-3.82,1.51,1.51,0,0,1,1.67-1.19l.36.06c.16,0,.31.05.47.06a1.5,1.5,0,0,1,1.35,1.68A48.15,48.15,0,0,1,93.89,147.53Z" transform="translate(0 -0.25)"/><path d="M176.51,158.86h0a1.49,1.49,0,0,1-1.28-.71,36.23,36.23,0,0,1-3.85-10c-2.06,2.17-4.8,3.14-7.29,2.33a6.24,6.24,0,0,1-3.84-2.89,4.78,4.78,0,0,1,0-3.89,1.5,1.5,0,0,1,2.88.78,1,1,0,0,0,.47,1.13,1.7,1.7,0,0,0,2-.53,9.91,9.91,0,0,0,2.64-4.77l-.73-.27a4,4,0,0,1-2.26-4.94,3.86,3.86,0,0,1,2-2.35,3.47,3.47,0,0,1,.61-.23c-1.33-4.14-4.14-7.26-6.89-7.39-2.55-.14-4.38.57-5.28,2a5.58,5.58,0,0,0,.14,5.42,3.6,3.6,0,0,0,2.88,2h0a1.5,1.5,0,0,1,.5,2.92,9.74,9.74,0,0,1-4.66.19c-5.45-1-9.95-4.88-11.21-9.77-1.15-4.5.55-9,4.68-12.29s8.7-4.33,13.16-2.9a17,17,0,0,1,7.22,4.81,24.86,24.86,0,0,1-2.42-8v-.11c0-13,8.93-27.22,9.31-27.82a1.51,1.51,0,0,1,1.25-.7,1.54,1.54,0,0,1,1.26.67c.1.14,9.34,14.59,9.34,27.85a.41.41,0,0,1,0,.11,24.86,24.86,0,0,1-2.42,8,17,17,0,0,1,7.23-4.81c4.46-1.43,9-.43,13.15,2.9h0c4.13,3.31,5.84,7.79,4.68,12.29-1.25,4.89-5.76,8.81-11.2,9.77a10,10,0,0,1-4.66-.19,1.5,1.5,0,0,1,.49-2.92h0a3.58,3.58,0,0,0,2.87-2,5.6,5.6,0,0,0,.15-5.42c-.91-1.46-2.75-2.17-5.28-2-2.75.13-5.56,3.25-6.89,7.39a3.37,3.37,0,0,1,.6.23,3.86,3.86,0,0,1,2,2.35,4,4,0,0,1-2.26,4.94c-.23.09-.47.18-.73.26a10,10,0,0,0,2.64,4.78,1.7,1.7,0,0,0,1.95.53,1,1,0,0,0,.48-1.13,1.49,1.49,0,0,1,1.09-1.69,1.51,1.51,0,0,1,1.79.91,4.82,4.82,0,0,1,0,3.89,6.21,6.21,0,0,1-3.82,2.88c-2.51.81-5.25-.15-7.31-2.32a37,37,0,0,1-3.85,10A1.52,1.52,0,0,1,176.51,158.86Zm-2.21-11.33a36,36,0,0,0,2.2,6.52,35.46,35.46,0,0,0,2.21-6.52,47.12,47.12,0,0,1-1.51-7.19,1.49,1.49,0,0,1,.31-1.13,1.55,1.55,0,0,1,1-.55l.46-.06.37-.06a1.51,1.51,0,0,1,1.66,1.19,21.15,21.15,0,0,0,1.14,3.82,7.2,7.2,0,0,0,3.3,3.83l-.15-.14a13.42,13.42,0,0,1-3.71-7.72,1.5,1.5,0,0,1,1.07-1.65c.67-.19,1.25-.39,1.79-.59a1,1,0,0,0,.46-1.26.89.89,0,0,0-.41-.54.45.45,0,0,0-.39,0l-.27.09a1.59,1.59,0,0,1-1.53-.26,1.48,1.48,0,0,1-.53-1.41c1.25-6.45,5.62-11.49,10.17-11.72,4.92-.25,7.11,2,8,3.45a8.46,8.46,0,0,1-.08,8.47l-.15.25a10.65,10.65,0,0,0,7.09-7.11c.86-3.36-.44-6.63-3.65-9.21s-6.92-3.49-10.37-2.39c-5,1.61-9.43,7.17-11.49,14.5a18.48,18.48,0,0,0-.7,5.07,1.51,1.51,0,0,1-1.31,1.47l-.23,0-.54.07a1.51,1.51,0,0,1-1.65-1.5c0-7.65,2.54-13.28,4.54-17.8,1.33-3,2.48-5.56,2.67-8,0-9.34-5.15-19.64-7.59-24-2.44,4.38-7.55,14.63-7.57,24,.19,2.49,1.33,5.07,2.66,8,2,4.52,4.51,10.15,4.54,17.8a1.46,1.46,0,0,1-.48,1.11,1.51,1.51,0,0,1-1.16.39l-.54-.07-.24,0a1.5,1.5,0,0,1-1.3-1.47,19.28,19.28,0,0,0-.7-5.07c-2.07-7.33-6.47-12.89-11.5-14.5-3.45-1.1-7-.28-10.36,2.39s-4.51,5.85-3.65,9.21a10.61,10.61,0,0,0,7.09,7.11l-.15-.25a8.46,8.46,0,0,1-.08-8.47c.86-1.4,3.05-3.7,8-3.45,4.54.23,8.92,5.27,10.17,11.72a1.5,1.5,0,0,1-.5,1.42,1.52,1.52,0,0,1-1.49.27l-.34-.11a.48.48,0,0,0-.39,0,.9.9,0,0,0-.42.54,1,1,0,0,0,.46,1.26c.54.21,1.13.4,1.8.59a1.51,1.51,0,0,1,1.07,1.65,13.43,13.43,0,0,1-3.72,7.72l-.13.13a7.2,7.2,0,0,0,3.29-3.82,22,22,0,0,0,1.13-3.82,1.52,1.52,0,0,1,1.67-1.19l.36.06c.16,0,.31.05.47.06a1.5,1.5,0,0,1,1.35,1.68A48.41,48.41,0,0,1,174.3,147.53Z" transform="translate(0 -0.25)"/><path d="M135.39,227.46h0a1.52,1.52,0,0,1-1.28-.71,37,37,0,0,1-3.85-10c-2,2.17-4.79,3.13-7.28,2.33a6.2,6.2,0,0,1-3.84-2.89,4.78,4.78,0,0,1,0-3.89,1.5,1.5,0,0,1,2.88.78,1,1,0,0,0,.47,1.13,1.7,1.7,0,0,0,2-.53,10,10,0,0,0,2.64-4.78l-.73-.26a4,4,0,0,1-2.26-4.94,3.86,3.86,0,0,1,2-2.35,3.69,3.69,0,0,1,.6-.23c-1.32-4.14-4.14-7.26-6.89-7.4-2.54-.12-4.37.58-5.27,2a5.58,5.58,0,0,0,.14,5.42,3.58,3.58,0,0,0,2.87,2h0a1.5,1.5,0,0,1,.5,2.92,10,10,0,0,1-4.66.18c-5.45-1-10-4.87-11.21-9.76-1.15-4.5.55-9,4.68-12.29s8.7-4.33,13.16-2.9a16.89,16.89,0,0,1,7.22,4.81,24.86,24.86,0,0,1-2.42-8v-.11c0-13,8.93-27.22,9.31-27.82a1.48,1.48,0,0,1,1.26-.7h0a1.49,1.49,0,0,1,1.27.69c.38.6,9.32,14.81,9.32,27.83,0,0,0,.07,0,.11a24.86,24.86,0,0,1-2.42,8,16.89,16.89,0,0,1,7.22-4.81c4.46-1.43,9-.43,13.16,2.9h0c4.13,3.31,5.83,7.79,4.68,12.29-1.25,4.89-5.76,8.81-11.21,9.76a9.81,9.81,0,0,1-4.66-.18,1.52,1.52,0,0,1-1-1.68,1.5,1.5,0,0,1,1.48-1.24h0a3.58,3.58,0,0,0,2.87-2,5.58,5.58,0,0,0,.14-5.42c-.9-1.46-2.73-2.16-5.27-2-2.75.14-5.57,3.26-6.89,7.4a3.69,3.69,0,0,1,.6.23,3.86,3.86,0,0,1,2,2.35,4,4,0,0,1-2.26,4.94l-.73.26a10,10,0,0,0,2.64,4.78,1.7,1.7,0,0,0,2,.53,1,1,0,0,0,.47-1.13,1.5,1.5,0,0,1,2.89-.78,4.82,4.82,0,0,1,0,3.89,6.17,6.17,0,0,1-3.81,2.88c-2.51.81-5.25-.15-7.31-2.32a36.43,36.43,0,0,1-3.86,10A1.49,1.49,0,0,1,135.39,227.46Zm-2.2-11.33a35.46,35.46,0,0,0,2.21,6.52,36.31,36.31,0,0,0,2.2-6.52,47.12,47.12,0,0,1-1.51-7.19,1.49,1.49,0,0,1,.31-1.13,1.55,1.55,0,0,1,1-.55c.15,0,.3,0,.45-.06l.38-.06a1.5,1.5,0,0,1,1.66,1.19,21.15,21.15,0,0,0,1.14,3.82,7.2,7.2,0,0,0,3.3,3.83l-.15-.14a13.42,13.42,0,0,1-3.71-7.72,1.5,1.5,0,0,1,1.07-1.65c.66-.19,1.25-.39,1.79-.59a1,1,0,0,0,.46-1.26.93.93,0,0,0-.41-.54.45.45,0,0,0-.39,0l-.27.09a1.59,1.59,0,0,1-1.53-.26,1.51,1.51,0,0,1-.54-1.41C142,196,146.32,191,150.87,190.77c4.94-.25,7.11,2,8,3.45a8.46,8.46,0,0,1-.08,8.47l-.15.25a10.63,10.63,0,0,0,7.08-7.11c.87-3.36-.43-6.63-3.64-9.21s-6.92-3.49-10.37-2.39c-5,1.61-9.43,7.17-11.5,14.5a19.28,19.28,0,0,0-.7,5.07,1.49,1.49,0,0,1-1.3,1.47l-.23,0-.55.07a1.51,1.51,0,0,1-1.64-1.5c0-7.65,2.54-13.28,4.54-17.8,1.33-3,2.48-5.56,2.67-8.05,0-9.3-5.15-19.62-7.59-24-2.45,4.38-7.55,14.62-7.57,24,.18,2.49,1.33,5.07,2.66,8.05,2,4.52,4.5,10.15,4.54,17.8a1.51,1.51,0,0,1-.48,1.11,1.48,1.48,0,0,1-1.16.39l-.55-.07-.23,0a1.49,1.49,0,0,1-1.3-1.47,19.28,19.28,0,0,0-.7-5.07c-2.07-7.33-6.47-12.89-11.5-14.5-3.45-1.1-7-.28-10.36,2.39s-4.51,5.85-3.65,9.21a10.61,10.61,0,0,0,7.08,7.11l-.15-.25a8.44,8.44,0,0,1-.07-8.47c.86-1.4,3-3.71,8-3.45,4.54.23,8.91,5.27,10.17,11.72a1.5,1.5,0,0,1-2,1.69l-.35-.12a.5.5,0,0,0-.38,0,.9.9,0,0,0-.42.54,1,1,0,0,0,.46,1.26c.54.2,1.13.4,1.79.59a1.5,1.5,0,0,1,1.07,1.65,13.36,13.36,0,0,1-3.71,7.72l-.14.13a7.12,7.12,0,0,0,3.29-3.82,21.15,21.15,0,0,0,1.14-3.82,1.51,1.51,0,0,1,1.66-1.19l.38.06c.15,0,.3.05.46.06a1.5,1.5,0,0,1,1.35,1.68A48.41,48.41,0,0,1,133.19,216.13Z" transform="translate(0 -0.25)"/></svg>