<?xml version="1.0" encoding="utf-8"?>
<!-- Generator: Adobe Illustrator 16.0.0, SVG Export Plug-In . SVG Version: 6.00 Build 0)  -->
<!DOCTYPE svg PUBLIC "-//W3C//DTD SVG 1.1//EN" "http://www.w3.org/Graphics/SVG/1.1/DTD/svg11.dtd">
<svg version="1.1" xmlns="http://www.w3.org/2000/svg" xmlns:xlink="http://www.w3.org/1999/xlink" x="0px" y="0px" width="100px"
	 height="100px" viewBox="0 0 100 100" enable-background="new 0 0 100 100" xml:space="preserve">
<g id="Calque_2">
</g>
<g id="Calque_1">
	<path d="M58.313,82.25c0,1.463-1.186,2.648-2.647,2.648c-1.464,0-2.65-1.186-2.65-2.648c0-1.463,1.187-2.649,2.65-2.649
		C57.127,79.602,58.313,80.787,58.313,82.25z M44.877,79.602c-1.462,0-2.649,1.186-2.649,2.649c0,1.463,1.188,2.648,2.649,2.648
		c1.463,0,2.647-1.186,2.647-2.648C47.524,80.787,46.34,79.602,44.877,79.602z M99.333,29.309c0,0.126-0.024,0.252-0.07,0.37
		c-0.871,2.189-3.231,3.829-6.478,4.499c-1.015,0.209-2.038,0.311-3.044,0.311c-3.367,0-6.542-1.137-8.583-3.179
		c-0.463-0.462-0.86-1.468-1.47-3.07c-0.261-0.684-0.643-1.687-0.849-2.043c-0.013-0.009-0.022-0.021-0.035-0.03
		c-2.851,0.558-3.749,4.859-3.749,16.995c0,11.683,1.451,17.423,2.617,22.035c0.761,3.013,1.419,5.615,1.419,9.005
		c0,0.435-0.281,0.796-0.67,0.933c-0.852,1.026-2,3.453-3.215,6.031c-3.107,6.591-6.945,14.703-12.249,15.413
		C61.689,98.919,55.659,100,50.001,100c-5.404,0-11.143-0.987-12.755-3.116c-5.402-0.533-9.293-8.861-12.437-15.616
		c-1.117-2.402-2.18-4.68-3.007-5.845c-0.366-0.083-0.645-0.354-0.736-0.715c-0.092-0.151-0.159-0.319-0.159-0.509
		c0-0.17,0.053-0.322,0.128-0.462c0.087-3.038,0.695-5.484,1.4-8.275c1.165-4.612,2.614-10.352,2.614-22.036
		c0-12.477-0.95-16.67-3.994-17.03c-0.215,0.45-0.524,1.261-0.746,1.844c-0.609,1.601-1.006,2.606-1.467,3.068
		c-2.653,2.652-7.217,3.778-11.63,2.869c-3.244-0.669-5.604-2.309-6.476-4.498c-0.046-0.118-0.07-0.243-0.07-0.37
		C0.667,11.206,18.337,0,34.708,0c0.051,0,0.102,0.012,0.152,0.02c0.023,0.004,0.047,0.004,0.071,0.009
		c0.012,0.003,0.025,0.002,0.038,0.005c5.672,1.538,18.384,3.267,30.051,0.002c0.015-0.004,0.029-0.003,0.044-0.006
		c0.027-0.007,0.055-0.007,0.082-0.012C65.194,0.013,65.242,0,65.29,0C81.662,0,99.333,11.206,99.333,29.309z M36.11,2.369
		c1.923,5.945,7.521,10.115,13.891,10.115c6.357,0,11.944-4.157,13.877-10.085C51.906,5.289,40.433,3.329,36.11,2.369z
		 M19.512,25.065c0.004-0.151,0.032-0.302,0.108-0.444c1.928-3.594-0.359-13.882-2.415-18.1C8.925,11.084,2.749,18.906,2.668,29.105
		c0.674,1.452,2.506,2.608,4.949,3.113c3.085,0.636,7.318,0.166,9.811-2.324c0.21-0.254,0.712-1.576,1.013-2.365
		C18.879,26.375,19.187,25.575,19.512,25.065z M36.768,94.771c-0.2-11.944-4.45-18.47-12.654-19.433
		c0.752,1.308,1.569,3.064,2.51,5.085C29.251,86.071,32.774,93.625,36.768,94.771z M61.212,95.637
		c0.001-8.346,1.895-14.448,5.552-18.166c-0.091-1.774-6.478-4.316-16.456-4.316c-10.05,0-16.464,2.58-16.464,4.355
		c0,0.178-0.059,0.335-0.14,0.48c3.347,3.756,5.084,9.674,5.084,17.654C38.938,96.287,42.614,98,50.001,98
		C57.382,98,61.057,96.289,61.212,95.637z M75.881,75.339c-8.134,0.957-12.378,7.386-12.642,19.143
		c4.004-1.135,7.529-8.596,10.158-14.172C74.327,78.337,75.136,76.625,75.881,75.339z M78.124,24.268
		c-1.462-5.113,1.062-14.839,2.897-18.665c-4.658-2.232-9.856-3.472-14.956-3.587c-1.868,7.27-8.484,12.467-16.064,12.467
		c-7.582,0-14.2-5.198-16.068-12.467C28.834,2.131,23.638,3.371,18.98,5.602c1.861,3.879,4.439,13.837,2.84,18.889
		c4.836,1.001,5.229,8.256,5.229,18.935c0,11.933-1.483,17.806-2.675,22.526c-0.658,2.603-1.193,4.732-1.325,7.299
		c3.619,0.187,6.651,1.241,9.044,3.173c1.471-3.46,9.876-5.268,18.214-5.268c8.069,0,16.219,1.689,18.069,4.934
		c2.343-1.73,5.248-2.686,8.692-2.844c-0.107-2.685-0.656-4.872-1.336-7.562c-1.193-4.719-2.678-10.593-2.678-22.525
		C73.056,32.604,73.445,25.401,78.124,24.268z M97.332,29.105c-0.081-10.198-6.257-18.019-14.536-22.583
		c-2.054,4.22-4.341,14.505-2.414,18.098c0.007,0.013,0.006,0.028,0.013,0.042c0.029,0.061,0.042,0.127,0.059,0.194
		c0.017,0.065,0.036,0.127,0.039,0.192c0,0.011,0.006,0.021,0.006,0.032c0.321,0.51,0.626,1.307,1.06,2.446
		c0.301,0.79,0.804,2.112,1.027,2.381c2.476,2.477,6.707,2.946,9.797,2.311C94.825,31.714,96.657,30.558,97.332,29.105z
		 M67.821,46.664c0,2.588-2.105,4.694-4.692,4.694c-0.486,0-0.963-0.083-1.421-0.228c-2.212,4.251-6.651,7.167-11.767,7.167
		c-5.081,0-9.499-2.876-11.725-7.082c-0.371,0.093-0.754,0.144-1.146,0.144c-2.588,0-4.693-2.106-4.693-4.694
		c0-2.577,2.123-4.671,4.67-4.686c1.328-5.607,6.217-9.837,12.141-10.173c-0.172-0.177-0.282-0.416-0.285-0.682
		c-0.002-0.146-0.004-0.774-0.007-1.312l-0.021-1.597c-0.037-2.089-1.759-3.759-3.874-3.743c-1.673,0.029-3.017,1.42-2.988,3.101
		c0.011,0.65,0.276,1.259,0.746,1.715c0.397,0.384,0.407,1.017,0.023,1.414c-0.385,0.396-1.017,0.407-1.414,0.022
		c-0.854-0.826-1.335-1.934-1.355-3.118c-0.046-2.783,2.179-5.086,4.96-5.135c3.249-0.026,5.847,2.523,5.902,5.705l0.021,1.627
		c0.003,0.531,0.005,1.152,0.007,1.295c0.003,0.272-0.104,0.52-0.279,0.703c5.961,0.306,10.887,4.554,12.216,10.19
		c0.097-0.006,0.192-0.021,0.289-0.021C65.716,41.971,67.821,44.076,67.821,46.664z M37.403,49.32
		c-0.462-1.347-0.725-2.786-0.725-4.287c0-0.346,0.025-0.685,0.052-1.024c-1.334,0.165-2.353,1.286-2.353,2.655
		c0,1.486,1.208,2.694,2.693,2.694C37.185,49.358,37.293,49.334,37.403,49.32z M61.205,45.033c0-6.212-5.053-11.266-11.264-11.266
		c-6.21,0-11.263,5.054-11.263,11.266c0,6.211,5.053,11.264,11.263,11.264C56.152,56.297,61.205,51.244,61.205,45.033z
		 M65.821,46.664c0-1.477-1.196-2.678-2.67-2.69c0.028,0.351,0.054,0.702,0.054,1.06c0,1.484-0.256,2.907-0.707,4.24
		c0.205,0.05,0.416,0.085,0.631,0.085C64.613,49.358,65.821,48.15,65.821,46.664z M48.038,44.803c0-1.05-0.852-1.902-1.9-1.902
		c-1.052,0-1.905,0.852-1.905,1.902c0,1.051,0.854,1.906,1.905,1.906C47.187,46.708,48.038,45.854,48.038,44.803z M54.278,42.901
		c-1.049,0-1.9,0.852-1.9,1.902c0,1.051,0.852,1.906,1.9,1.906c1.053,0,1.902-0.855,1.902-1.906
		C56.181,43.752,55.331,42.901,54.278,42.901z M51.782,49.249c-0.796,0.796-2.117,0.765-2.949-0.067
		c-0.391-0.39-1.024-0.391-1.415,0.001c-0.39,0.391-0.39,1.024,0.001,1.414c0.818,0.817,1.889,1.228,2.951,1.228
		c1.029,0,2.052-0.386,2.826-1.162c0.391-0.391,0.391-1.024,0-1.415C52.806,48.859,52.173,48.858,51.782,49.249z"/>
</g>
</svg>
