<?xml version="1.0" encoding="utf-8"?>
<!-- Generator: Adobe Illustrator 16.0.0, SVG Export Plug-In . SVG Version: 6.00 Build 0)  -->
<!DOCTYPE svg PUBLIC "-//W3C//DTD SVG 1.1//EN" "http://www.w3.org/Graphics/SVG/1.1/DTD/svg11.dtd">
<svg version="1.1" xmlns="http://www.w3.org/2000/svg" xmlns:xlink="http://www.w3.org/1999/xlink" x="0px" y="0px" width="100px"
	 height="100px" viewBox="0 0 100 100" enable-background="new 0 0 100 100" xml:space="preserve">
<g id="Calque_1">
</g>
<g id="Calque_2">
	<path d="M95.89,89.325c-0.325-1.507-1.73-2.64-3.958-3.189l-5.142-1.27c0.195-0.438,0.321-0.869,0.37-1.292
		c0.004-0.039,0.007-0.077,0.007-0.116v-3.731c0.074-0.761-0.109-1.347-0.293-1.723c-0.677-1.386-2.313-2.148-4.608-2.148h-6.398
		l-11.127-75c-0.021-0.137-0.067-0.262-0.136-0.373c-0.203-0.334-0.593-0.532-1-0.469l0,0h0l-0.138,0.021l-5.671,0.837
		c-0.005,0-0.009,0.004-0.014,0.004L43.926,2.928c-0.546,0.081-0.924,0.59-0.843,1.136c0.074,0.497,0.5,0.854,0.988,0.854
		c0.049,0,0.098-0.004,0.148-0.011L57.1,2.998l0.566,3.827l-12.884,1.91c-0.546,0.081-0.923,0.59-0.842,1.136
		c0.074,0.497,0.5,0.854,0.988,0.854c0.049,0,0.099-0.004,0.147-0.011l12.884-1.91l0.567,3.829l-12.882,1.909
		c-0.546,0.081-0.924,0.59-0.843,1.136c0.074,0.497,0.5,0.854,0.988,0.854c0.049,0,0.098-0.004,0.148-0.011l12.882-1.909
		l0.567,3.828l-12.882,1.91c-0.546,0.082-0.923,0.59-0.842,1.136c0.074,0.497,0.5,0.854,0.988,0.854
		c0.049,0,0.099-0.004,0.148-0.011l12.881-1.91l0.567,3.83l-12.885,1.906c-0.546,0.081-0.923,0.589-0.843,1.136
		c0.074,0.497,0.5,0.854,0.988,0.854c0.049,0,0.098-0.004,0.148-0.011l12.885-1.906l0.567,3.829l-12.884,1.909
		c-0.546,0.081-0.924,0.59-0.843,1.136c0.074,0.497,0.5,0.854,0.988,0.854c0.049,0,0.098-0.004,0.148-0.011l12.883-1.909
		l0.567,3.828l-12.881,1.908c-0.546,0.081-0.924,0.59-0.843,1.136c0.074,0.497,0.5,0.854,0.988,0.854
		c0.049,0,0.098-0.004,0.148-0.011l12.881-1.908l0.567,3.828l-12.882,1.91c-0.546,0.081-0.924,0.59-0.843,1.136
		c0.074,0.497,0.5,0.854,0.988,0.854c0.049,0,0.099-0.004,0.148-0.011l12.882-1.91l0.567,3.831l-12.883,1.905
		c-0.546,0.081-0.923,0.589-0.843,1.136c0.073,0.496,0.5,0.854,0.988,0.854c0.049,0,0.098-0.004,0.148-0.011l12.883-1.905
		l0.12,0.807l0.45,3.02l-12.887,1.909c-0.546,0.081-0.924,0.59-0.843,1.136c0.074,0.497,0.5,0.854,0.988,0.854
		c0.049,0,0.098-0.004,0.148-0.011l12.888-1.909l0.571,3.828l-12.89,1.908c-0.546,0.081-0.924,0.59-0.843,1.136
		c0.074,0.497,0.5,0.854,0.988,0.854c0.049,0,0.098-0.004,0.148-0.011l12.892-1.908l0.57,3.826l-12.896,1.911
		c-0.546,0.081-0.924,0.59-0.843,1.136c0.074,0.497,0.5,0.854,0.988,0.854c0.049,0,0.098-0.004,0.148-0.011l12.897-1.911
		l0.571,3.832l-12.901,1.908c-0.546,0.081-0.923,0.589-0.843,1.136c0.073,0.496,0.5,0.854,0.988,0.854
		c0.049,0,0.098-0.004,0.148-0.011l12.903-1.908l0.473,3.172H50.304l-21.933-5.417c-0.948-0.234-2-0.353-3.126-0.353
		c-3.464,0-7.125,1.121-9.327,2.857c-1.229,0.97-1.754,1.91-1.955,2.696c-0.006,0.019-0.02,0.032-0.024,0.052L13.8,76.249
		c-3.381,0.803-6.735,2.764-8.496,5.024c-0.963,1.237-1.246,2.277-1.251,3.088c-0.001,0.02-0.011,0.036-0.011,0.056V88.2
		c0.006,1.617,1.297,3.507,4.918,3.507h39.423l32.142,7.938c0.979,0.242,2.048,0.357,3.151,0.357c3.362,0,7.027-1.067,9.303-2.86
		c0.918-0.723,1.541-1.509,1.853-2.337c0.014-0.037,0.025-0.074,0.035-0.113l0.893-3.619C96.015,90.35,95.978,89.735,95.89,89.325z
		 M84.201,84.227c0.346-0.284,0.672-0.574,0.966-0.872v0.039c-0.043,0.298-0.174,0.631-0.37,0.98L84.201,84.227z M66.076,49.97
		l-0.265-1.792c0-0.001,0-0.002,0-0.002c0-0.002-0.001-0.003-0.001-0.004l-2.577-17.409c0-0.004,0.001-0.007,0-0.011
		s-0.003-0.007-0.004-0.011l-1.716-11.594c-0.001-0.004,0.001-0.008,0-0.013s-0.004-0.008-0.004-0.012l-0.857-5.79
		c0-0.001,0-0.003,0-0.003c0-0.002-0.001-0.004-0.001-0.004l-0.859-5.803V7.521c0,0,0-0.001,0-0.002l-0.713-4.814l3.83-0.567
		l10.938,73.718h-3.913L66.076,49.97z M69.071,77.855h5.933h7.261c1.446,0,2.497,0.384,2.811,1.026
		c0.277,0.566,0.01,1.438-0.733,2.392c-0.635,0.815-1.567,1.611-2.689,2.324l-23.253-5.742H69.071z M17.155,74.514
		c1.842-1.452,5.093-2.428,8.089-2.428c0.965,0,1.856,0.099,2.647,0.294l63.561,15.697c1.404,0.347,2.333,0.972,2.483,1.67
		c0.133,0.616-0.335,1.399-1.285,2.147c-1.845,1.452-5.097,2.429-8.092,2.429c-0.964,0-1.854-0.099-2.644-0.294L18.35,78.332
		c-1.403-0.347-2.331-0.971-2.481-1.669C15.735,76.047,16.205,75.263,17.155,74.514z M6.882,82.502
		c1.307-1.678,3.787-3.213,6.369-4.031l-0.221,0.895c-0.381,1.571,0.42,3.716,3.935,4.582l7.987,1.973H8.96
		c-1.446,0-2.497-0.383-2.811-1.025C5.873,84.328,6.14,83.456,6.882,82.502z M8.96,89.707c-1.408,0-2.915-0.397-2.918-1.511v-0.835
		c0.782,0.366,1.767,0.559,2.918,0.559h24.09l7.236,1.787H8.96z M91.741,95.57c-2.505,1.974-7.424,2.949-10.737,2.134L17.444,82.006
		c-1.367-0.337-2.734-1.084-2.472-2.166l0.2-0.809c0.671,0.543,1.581,0.965,2.699,1.242l63.564,15.697
		c0.946,0.234,1.997,0.353,3.123,0.353l0,0c3.011,0,6.17-0.85,8.392-2.211l-0.009,0.036C92.752,94.609,92.339,95.1,91.741,95.57z"/>
</g>
</svg>
