<svg id="Calque_1" data-name="Calque 1" xmlns="http://www.w3.org/2000/svg" viewBox="0 0 300 300"><defs><style>.cls-1{fill:#1d1d1b;}</style></defs><title>picto_lyon</title><path class="cls-1" d="M150,6A144,144,0,0,1,251.82,251.82,144,144,0,1,1,48.18,48.18,143,143,0,0,1,150,6m0-6A150,150,0,1,0,300,150,150,150,0,0,0,150,0Z"/><path d="M171.78,206.14H159.56a2.51,2.51,0,0,1-2.4-3.2,4.91,4.91,0,0,0,.14-2,3.39,3.39,0,0,1-2.58-1.29c-.93-1.25-.81-2.9-.24-5.72.84-4.12,2.22-16.12,2.87-22-9.89,1.18-21-1.65-27.93-4.8-.51,2.55-2.56,11.38-7.07,15.57-2,1.84-3,3.7-3,5.25a3.3,3.3,0,0,0,1.33,2.49c.93.78,1.83,1.58,2.67,2.33,1,.92,2.39,2.13,3.13,2.65l.73-.26a12.17,12.17,0,0,1,4.69-1.09,8.6,8.6,0,0,1,5.59,3.18,5.2,5.2,0,0,1,1,4.27c-.26,1.18-1,4.74-13.53,3.26-1.51.25-4.36.46-6.08-1.1a20.39,20.39,0,0,1-1.66-1.85,26.1,26.1,0,0,0-5-5c-1-.71-2.09-1.4-3.08-2-2.79-1.82-4.41-2.9-5.33-4a3.65,3.65,0,0,1-.82-3.81,5.91,5.91,0,0,0,.24-1.9,28.19,28.19,0,0,0-1.65-6.44c-11.26,5.19-14,8.66-14.6,12.23a23,23,0,0,0-.37,4.36,10,10,0,0,1,5-1.11,7.54,7.54,0,0,1,5.9,4.32,4.72,4.72,0,0,1-.3,4.9c-1.41,1.91-4.9,2.44-10.38,1.57-2.31.26-8.13.5-9.3-3.51-.74-2.53-4.22-14.35-5-16.85l0-.13c-1.12-3.79-.25-5,3.33-7.23,2.34-1.49,14.6-18.25,17.62-25.15.49-1.13,1.35-3,2.54-5.19-2.42,1.5-4.72,3.12-7,4.71-9.27,6.52-18.85,13.27-34.51,10.14a5.6,5.6,0,0,1-3.76-.29,10.63,10.63,0,0,1-8-4.83c-2.11-3.35-2.34-7.93-.62-12.23a2.5,2.5,0,0,1,4.78,1.34c-.37,2.24,1.87,3.66,5.32,5.56,1.92,1.07,3.76,2.08,4.78,3.55,12.86.82,18.09-3.82,24.66-9.65,5.74-5.1,12.24-10.88,24.79-13.57l.34-.07a21.64,21.64,0,0,1,8.77-3.23l.1,0c8-1.42,35.91-3.59,45.23-.19,5.8-1.73,7.55-3.51,7.9-3.92l0,0,0,0,0-.07a16,16,0,0,1,5.77-6c.28-5,4.07-8.57,5.56-9.79A19.38,19.38,0,0,1,190,99.7c2.35-3.39,8.49-5,10.49-5.49,4.15-.95,18.48-3.24,28.91,7.2a2.48,2.48,0,0,1,.73,1.8,11,11,0,0,1,5.35,7.71l.4.19c5.11,2.32,9.71,4.7,9.83,8.35a6.92,6.92,0,0,1-1.78,5.28,7.7,7.7,0,0,1-4.56,5c0,.16,0,.32,0,.46a12.53,12.53,0,0,1-.17,3.8c-.54,2.26-1.63,3.71-3.24,4.32-2.57,1-5.11-.77-5.95-1.35l-.16-.12c.2,1.06.29,1.82.32,2a2.53,2.53,0,0,1-.66,2c1.7,4.55,2.49,10.08-3.15,14a2.55,2.55,0,0,1-1.93.39,21.23,21.23,0,0,1-4.78,15.4,2.51,2.51,0,0,1-3.06.66,2.41,2.41,0,0,1-.5-.33,28.08,28.08,0,0,1-1.92,3.5,9,9,0,0,1-3.85,3.64A41.11,41.11,0,0,1,217,192.32c.74,1.81,2.34,3.2,3.76,3.26H221l.21-.19a6.42,6.42,0,0,1,4.59-1.81,7.1,7.1,0,0,1,6.31,3.72,5.67,5.67,0,0,1,.18,5.83c-.75,1.17-2,3.14-19.18.61a2.51,2.51,0,0,1-2-1.68,6.11,6.11,0,0,0-3.6-3.45,4.43,4.43,0,0,1-3.63-1.78,4.08,4.08,0,0,1-.77-3c-1.09-2.16-6.42-9.51-11.11-15.58l-.09-.11a12,12,0,0,1-5.16-1,2.5,2.5,0,0,1-1.43-2.44,1.85,1.85,0,0,1,.07-.41,7.38,7.38,0,0,1-3.21-1.72,2.5,2.5,0,0,1-.71-2.32l.34-1.6c-4,4-12.35,22-13.41,25.4a7.42,7.42,0,0,0-.43,1.93c1.77-.6,4.63-1.49,7.3.85,2.43,2.12,3.35,4.38,2.61,6.37S175.05,206.14,171.78,206.14Zm-3.61-5h3.61c.27,0,.51,0,.71,0a7.44,7.44,0,0,0-.56-.54c-.46-.4-.75-.43-2.52.17C169,200.87,168.61,201,168.17,201.14Zm-5.83,0h2.36a2.56,2.56,0,0,1-.88-.88c-.19-.32-1.82-3.24-.21-7.8.79-2.54,8.2-19.7,13.73-26.35a17,17,0,0,0-3.21-2,2.51,2.51,0,0,1-1.32-2.87,2.49,2.49,0,0,1,2.53-1.87c5.82.26,9.68,2.74,11.5,7.37a2.5,2.5,0,0,1,.12,1.43l-.27,1.25a3.58,3.58,0,0,0,2.82-.9,2.5,2.5,0,0,1,4,1.88,6.82,6.82,0,0,1-.47,2.59,17.91,17.91,0,0,0,5.18-1.34,2.5,2.5,0,0,1,2.76,4.1,16,16,0,0,1-3,2.13c8.4,11,10.09,14.22,10.16,15.74a10.82,10.82,0,0,1,7,5.32l1.2.16a10.83,10.83,0,0,1-4-5.14c0-.08-.05-.16-.08-.25-2-7.65-5.67-13.27-8.19-14.86a2.49,2.49,0,0,1-.52-3.78,72.16,72.16,0,0,0,4.84-6.57A2.5,2.5,0,0,1,212,168c1.54-3.57,2.8-7.89,2.38-9.89a2.51,2.51,0,0,1,4-2.5,5.33,5.33,0,0,1,1.21,1.34,22.55,22.55,0,0,0-3.86-11.84,2.51,2.51,0,0,1,.22-3.19,2.48,2.48,0,0,1,3.16-.37,26.18,26.18,0,0,1,6.65,6.1c.3-1.88-.52-4.48-2.47-8.62a2.51,2.51,0,0,1,.68-3,2.18,2.18,0,0,1,.54-.33,14.46,14.46,0,0,0-2.5-5.53l0,0a2.5,2.5,0,0,1,3.64-3.43c.13.12.77.67,3.66,3a2.78,2.78,0,0,1,.48.49h0a15.21,15.21,0,0,0,3.15,2.72,5.35,5.35,0,0,0,1.25.7,4.54,4.54,0,0,0,.23-.71,8.38,8.38,0,0,0,0-2.31c-.09-1.4-.33-5.11,3.29-5.49.38,0,1.13-.87,1.35-1.38a3.77,3.77,0,0,1,1.08-2.18,2,2,0,0,0,.6-1.74c-.35-.61-1.86-1.81-6.9-4.1-2-.91-3.22-1.45-3.22-3.18a5.83,5.83,0,0,0-3-5,1.87,1.87,0,0,0-2.18.08,2.5,2.5,0,0,1-3.64-3.32,8.58,8.58,0,0,1,1.4-1.63C215.44,97.14,206,98.27,203,98.81c-5.44,1-8.53,3-8.9,3.84a2.48,2.48,0,0,1-2.22,1.67c-1.32.45-5.89,3.1-7.3,6.55a2.38,2.38,0,0,1-.88,1.1s-4.46,3.25-4,7.37a2.5,2.5,0,0,1-1.57,2.61,10.82,10.82,0,0,0-4.8,4.5c-.56,1.13-2.88,4.23-11.87,6.74a2.52,2.52,0,0,1-1.75-.15c-6.06-2.91-32.63-1.64-43.11.21l-.12,0a16.63,16.63,0,0,0-7.23,2.7,2.46,2.46,0,0,1-.91.39l-.79.17a41.19,41.19,0,0,0-18.77,9.16,67.61,67.61,0,0,1,12.12-7,2.5,2.5,0,0,1,3.21,3.42,23,23,0,0,0-1.22,2.85,2.61,2.61,0,0,1-.26.53A64,64,0,0,0,98,154.11c-2.92,6.67-15.69,25-19.56,27.4-.33.2-1,.6-1.37.89l.19.67,0,.14c.72,2.42,4,13.54,4.87,16.57a3.44,3.44,0,0,0,.88.21l-.21-.23c-1.36-1.6-1.64-4.85-.84-9.65,1-6,5.46-10.27,16.24-15.38a22.29,22.29,0,0,1-.81-4.8,2.5,2.5,0,0,1,3.32-2.52,5.21,5.21,0,0,1,2.52,2.4c1.06,1.65,4.91,11.47,4.91,15.34a11.36,11.36,0,0,1-.3,2.78,46.22,46.22,0,0,0,3.94,2.74c1,.67,2.1,1.37,3.18,2.11a31,31,0,0,1,6,5.92c.4.49.82,1,1.07,1.24a6.27,6.27,0,0,0,2,0,30.92,30.92,0,0,1-4.12-3.34c-.81-.72-1.67-1.49-2.56-2.24a8.21,8.21,0,0,1-3.11-6.19c-.07-3,1.52-6.17,4.6-9,2.87-2.67,4.74-9.09,5.46-12.37a15,15,0,0,1-2-4.7,2.52,2.52,0,0,1,1.35-2.84,2.49,2.49,0,0,1,3,.72c1.6,2.05,18.75,9.8,32.82,6.63a2.49,2.49,0,0,1,3,2.7c-.08.81-2.13,20-3.3,25.72-.11.55-.19,1-.24,1.31a4.36,4.36,0,0,1,1.43.83A5.49,5.49,0,0,1,162.34,201.14Zm-74.25-1a21.51,21.51,0,0,0,4.65.18,2.52,2.52,0,0,0-1.59-1.11,6.56,6.56,0,0,0-3,.89Zm40.32,0a26.17,26.17,0,0,0,4.75-.13,4,4,0,0,0-1.66-.86,14.87,14.87,0,0,0-2.57.8Zm-34.95,0Zm130.12-.28a37.53,37.53,0,0,0,4.22.08,2.71,2.71,0,0,0-.43-.65,1.77,1.77,0,0,0-1.45-.7,1.55,1.55,0,0,0-1.38.51A7.31,7.31,0,0,1,223.58,199.85ZM122,199.92Zm4.8-4.22Zm94.17-.12Zm-13.83-2Zm-3.85-.79ZM47,154.08a5.59,5.59,0,0,0,4.2,2.43c-.48-.29-1-.57-1.43-.81C49,155.23,48,154.7,47,154.08Zm121.73-29.76Zm75.29-.36h0Zm-5,0Zm0-.36Zm1.68-3.77ZM192,104.27Z"/></svg>