<svg id="Calque_1" data-name="Calque 1" xmlns="http://www.w3.org/2000/svg" viewBox="0 0 300 300"><defs><style>.cls-1{fill:#1d1d1b;}</style></defs><title>picto_drome</title><path class="cls-1" d="M150,6A144,144,0,0,1,251.82,251.82,144,144,0,1,1,48.18,48.18,143,143,0,0,1,150,6m0-6A150,150,0,1,0,300,150,150,150,0,0,0,150,0Z"/><path d="M84.44,172.35a1.61,1.61,0,0,1-.48-.08,1.52,1.52,0,0,1-1-1.56,8.94,8.94,0,0,1,1.38-4.15,10.17,10.17,0,0,1,3.29-3.1,16.2,16.2,0,0,1,7.87-2.08,22.52,22.52,0,0,1,2.86.06l.89.05.19,0c.38.07.77.12,1.16.18a19.17,19.17,0,0,1,2.48.46,29.89,29.89,0,0,1,7,2.5,1.5,1.5,0,0,1-.61,2.84c-2,.08-4,0-5.9-.09l-2.49-.09c-1.83-.07-3.56-.12-5.27,0a18.79,18.79,0,0,0-5.88.92,8.08,8.08,0,0,0-4.17,3.45A1.48,1.48,0,0,1,84.44,172.35Z"/><path d="M49.87,159.39a3,3,0,0,1-.5,0,2.6,2.6,0,0,1-2-1.88c-.21-.84-.37-1.45,2.61-7,1.89-3.54,4.33-7.65,6.87-11.56,5.18-8,13.25-19.07,22.22-26.39,16.11-13.16,38.33-23.14,47.53-21.4a2.37,2.37,0,0,1,.65.22l3,1.49a2.5,2.5,0,0,1-1.36,4.73c-10.12-1-27.95,6.63-36.4,12.26-7.18,4.79-20,18.4-26.59,27.37a95,95,0,0,0-6.14,9.32c-1.62,2.74-3.46,5.83-7.26,11.15A3.4,3.4,0,0,1,49.87,159.39Z"/><path d="M102.48,213.86c-11,0-24.22-2.37-36-11.05-13.77-10.19-19.18-19.37-17-28.91.84-3.67,4-5.51,6.81-7.13,2.33-1.34,4.53-2.62,5.78-4.79.18-.32.34-.65.49-1l-.83.2-3,.7c-5.23,1.28-8.46,3.09-10.17,5.7a3.8,3.8,0,0,1-7-2.64c1.61-10.63,3.83-22.85,9.87-33.43a68.54,68.54,0,0,1,10.74-14c3.7-3.94,7.8-7.53,11.77-11l.78-.69c8.15-7,17.83-14.73,29.84-18.39a45.46,45.46,0,0,1,18.26-1.68,29.75,29.75,0,0,1,9.39,2.33,16.08,16.08,0,0,1,5,3.41,12.7,12.7,0,0,1,3.13,1,2.53,2.53,0,0,1,1.41,1.85s.15.9.36,2.23l1.73-.08A100.31,100.31,0,0,1,175.83,91,88.45,88.45,0,0,1,208.3,97c11.23,4.48,20.56,10.63,27.78,18.3a40.7,40.7,0,0,1,5.27,7,35.3,35.3,0,0,1,1.8,3.82,20.83,20.83,0,0,0,1.54,3.21,12.11,12.11,0,0,0,4.37,4.37,9.33,9.33,0,0,0,5.64,1.15l.13,0a3.11,3.11,0,0,1,2.31.65,3.06,3.06,0,0,1,1.17,2.08,3.15,3.15,0,0,1-.93,2.64c-2.46,2.33-5.28,3.13-7.78,3.84l-.65.18a52.33,52.33,0,0,1-8.32,1.32,70.25,70.25,0,0,1-16.42-.52,47.95,47.95,0,0,1-22.79-9l-.27-.18-6.49-4.2c-7.24-4.43-16.92-10.19-27-15.2-4.15-2.09-9-4.49-14-6.5l-.42-.17c-2.29-.91-4.45-1.76-6.69-2.43-1-.28-2-.56-3-.76.25,1.17,1.26,4.59,2,7.16l.08.27c15.23-4.09,32.05,7.64,38.69,21.87,9.94,21.31,7.66,41.62-6.27,55.74-15.6,15.8-39.9,15.42-40.93,15.39a2.48,2.48,0,0,1-2.2-1.44,33.32,33.32,0,0,1-10.31,5.22A79.84,79.84,0,0,1,102.48,213.86ZM68.69,157a2.6,2.6,0,0,1,0,1.11l-.11.44a22.33,22.33,0,0,1-2.13,5.92c-1.92,3.34-4.94,5.09-7.61,6.63s-4.1,2.44-4.43,3.9c-1.67,7.37,3.13,14.93,15.11,23.79,21.31,15.76,48.4,8.74,53.62,7.17a28.47,28.47,0,0,0,13.31-8.65,58.06,58.06,0,0,1-9.87,3.3,90.7,90.7,0,0,1-25.2,2,71.76,71.76,0,0,1-12.63-1.77l-.11,0a66.12,66.12,0,0,1-12.07-4.28,52.24,52.24,0,0,1-10.79-7.1c-2.8-2.47-6.24-5.87-8.22-10.41a2.51,2.51,0,0,1,0-1.92,2.47,2.47,0,0,1,1.33-1.38l.4-.17a2.5,2.5,0,0,1,3.21,1.13c1.81,3.44,5,6.12,7.29,7.84A45.69,45.69,0,0,0,79.48,190a57.53,57.53,0,0,0,10.8,3.17,65.34,65.34,0,0,0,11.24.95l2.88,0,2.85-.23c1.7-.1,3.36-.33,5.12-.56l.63-.09c1.58-.16,3.12-.39,4.61-.62l1.23-.19c1.64-.21,3.18-.47,4.81-.74l1-.17a66.71,66.71,0,0,0,10.84-2.67l.44-.18a21.48,21.48,0,0,0,4.16-2l.08-.06a7.39,7.39,0,0,0,2-1.77c.82-6.69-1.64-13.57-7.11-19.93-13.88-16.11-38.1-16.6-51.3-15.45a2.41,2.41,0,0,1-.6,0,2.66,2.66,0,0,1-.56.12c-1.85.18-3.67.41-5.39.66-5.86.88-7.11,3.3-8,5.9A2.64,2.64,0,0,1,68.69,157Zm80.56,36.72-.11.27a28.72,28.72,0,0,1-4.41,7.43c8-1.08,20.68-4.22,29.7-13.36,12.37-12.54,14.3-30.8,5.3-50.11-5.85-12.53-21.36-23.29-34.26-18.72l-.4.16-.26.1a2.51,2.51,0,0,1-2-.09,2.45,2.45,0,0,1-1.29-1.54l-.81-2.74c-1.63-5.5-2.25-7.67-2.28-8.7q0-.84-.21-2.4c0-.06,0-.13,0-.19a1.1,1.1,0,0,1,0-.18c-.11-.9-.24-1.87-.37-2.82,0,.1-.06.2-.1.3v.22a2.51,2.51,0,0,1-1,2.08,6.42,6.42,0,0,1,1.74,5.1,2.45,2.45,0,0,1,.49,1.09l.18,1c.38,2.1.59,3.21.64,3.81.48,5.52-1.64,7.52-3.51,8.22a2.63,2.63,0,0,1-.88.16c-4.81,0-12.83,2.76-16.26,5-4.55,3-8.94,8.79-11.19,12.25,6.94,1.17,14.49,4,22.5,8.57C135,151.23,140.93,156,144,161.59c4.17,7.61,5.6,13.84,6,18.55,7.57-14,3.83-26.46,2.09-32.26l-.24-.79A44.38,44.38,0,0,0,145.55,135c-1.88-2.4-3.71-4.61-5.44-6.57a2.5,2.5,0,0,1-.56-2.21,2.45,2.45,0,0,1,1.45-1.74c.86-.37,1.74-.74,2.48-1a2.48,2.48,0,0,1,2.52.41,74.68,74.68,0,0,1,9.66,9.5C167.7,147.92,167.05,178.47,149.25,193.72ZM117.14,93.34a39.41,39.41,0,0,0-10.35,1.41c-10.89,3-20.65,10.09-27.94,15.89a137.74,137.74,0,0,0-12.33,11A57.45,57.45,0,0,0,57,134.52c-3.42,6.66-5,13.83-6.4,22.14a39.09,39.09,0,0,1,6.45-2c1.69-.39,3.38-.71,5-1,1-.18,2-.36,2.88-.55,1.38-3.32,4.16-6.81,11.47-7.91,1.56-.23,3.19-.44,4.85-.61.29-.25.58-.5.85-.76a123.82,123.82,0,0,0,8.59-9.41l1.14-1.33c1.75-2.21,3.56-4.57,5.31-6.86,4.5-5.87,9.16-11.94,14.39-17.52,4.17-4.29,8-8,13.5-10.33a14.15,14.15,0,0,1,5.26-1.12,9.21,9.21,0,0,1,1.28.06c-2.42-2.51-6.9-3.39-9.58-3.69A38.43,38.43,0,0,0,117.14,93.34ZM156.08,144c.21.58.4,1.14.55,1.66l.23.77c.3,1,.68,2.27,1.06,3.74A39.93,39.93,0,0,0,156.08,144Zm-63.67,0a83.8,83.8,0,0,1,20.91,2.49,45,45,0,0,0-9.54-1.93l-.27,0a2.56,2.56,0,0,1-2-2c-.11-.59-.39-2,4.55-8.57,2.37-3.17,6.07-7.53,10.25-10.32a42.65,42.65,0,0,1,18.23-5.87,6.11,6.11,0,0,0,.21-3c0-.4-.32-2-.58-3.34l0-.21a3.93,3.93,0,0,1-.65-3.6,4.34,4.34,0,0,0-1.75-2.07l-.11-.08c-.75-.58-2.16-.58-3.76,0-4.13,1.58-8.12,5-11.54,8a141,141,0,0,0-10.54,11c-1.81,2.09-3.61,4.33-5.35,6.49-1.46,1.81-3,3.69-4.5,5.51-.83,1-1.65,1.95-2.46,2.93-1.27,1.51-2.57,3.06-3.9,4.59C90.49,144.05,91.44,144,92.41,144Zm56.74-42.24a69.9,69.9,0,0,1,6.76,2c4.71,1.66,9.57,3.64,14.84,6.07a232.84,232.84,0,0,1,28,15.4c2.13,1.38,4.42,2.9,6.66,4.6l.31.24a46.12,46.12,0,0,0,5.74,3.95,44.16,44.16,0,0,0,13.78,4.86,56.46,56.46,0,0,0,14.85.66c1.7-.17,3.26-.39,4.72-.67a18.29,18.29,0,0,1-6-5.76,28.84,28.84,0,0,1-2.44-4.47A25,25,0,0,0,235,126a33.18,33.18,0,0,0-4.46-5.54c-6.5-6.6-15-12-25.21-15.93a87.81,87.81,0,0,0-29.65-5.78A102.62,102.62,0,0,0,149.15,101.79Zm-15.66,6Zm0-.16Zm3.52-5.52,0,0,0,0Zm.66-1.12Zm-.4-2.33a3.46,3.46,0,0,1,.22.31l-.37-2.34h0a3,3,0,0,1,.11.54C137.26,97.64,137.29,98.14,137.3,98.62Zm-32.9,87.24a42.56,42.56,0,0,1-13-2,21.13,21.13,0,0,1-8.93-5.05,11.57,11.57,0,0,1-3.36-10.51c1.16-5,6-8,10.36-8.74a36.8,36.8,0,0,1,8.75-.23c6.29-.29,12.27,2,17.29,4.35a21.54,21.54,0,0,1,6.74,4.33,9.5,9.5,0,0,1,2.73,8.75c-.9,3.58-4.17,6.24-9.44,7.67A42.76,42.76,0,0,1,104.4,185.86Zm-9.91-21.72a24.24,24.24,0,0,0-4.19.32c-2.61.46-5.72,2.21-6.36,4.94A6.68,6.68,0,0,0,86,175.28a16.39,16.39,0,0,0,6.89,3.79,37.84,37.84,0,0,0,21.3.5c2-.53,5.33-1.76,5.91-4.06a4.65,4.65,0,0,0-1.48-4,17.35,17.35,0,0,0-5.25-3.27c-4.51-2.09-9.82-4.18-15.1-3.88h-.42A31.76,31.76,0,0,0,94.49,164.14Z"/><path d="M241.37,141.49c-10.39,0-25.86-13.34-38.68-24.41l-3.6-3.1c-13-11.08-40.49-10.23-45-9.61l-.33,0c-5.57,0-7.88,0-8-2.7s2-2.84,6.77-3.28c10.91-1,29,1.15,40.28,4.83,7.56,2.47,18.49,11.78,25.72,18,2,1.66,3.63,3.09,4.58,3.81h0c14.57,10.92,21.78,10.45,21.84,10.45a2.48,2.48,0,0,1,2.64,1.6,2.52,2.52,0,0,1-1,3A9.2,9.2,0,0,1,241.37,141.49Z"/></svg>