<?xml version="1.0" encoding="utf-8"?>
<!-- Generator: Adobe Illustrator 16.0.0, SVG Export Plug-In . SVG Version: 6.00 Build 0)  -->
<!DOCTYPE svg PUBLIC "-//W3C//DTD SVG 1.1//EN" "http://www.w3.org/Graphics/SVG/1.1/DTD/svg11.dtd">
<svg version="1.1" xmlns="http://www.w3.org/2000/svg" xmlns:xlink="http://www.w3.org/1999/xlink" x="0px" y="0px" width="100px"
	 height="100px" viewBox="0 0 100 100" enable-background="new 0 0 100 100" xml:space="preserve">
<g id="Calque_2">
</g>
<g id="v2">
	<path d="M68.931,69.311c1.777-1.129,3.363-2.729,4.712-4.756c1.335-2.002,2.381-4.324,3.108-6.903
		c0.749-2.665,1.129-5.486,1.129-8.385c0-2.901-0.38-5.721-1.129-8.381c-0.002-0.008-0.008-0.013-0.011-0.021
		c-0.006-0.724-0.29-2.486-13.775-2.486c-3.502,0-6.111,0.119-8.059,0.308c-0.308-4.354-1.647-8.075-3.923-10.982
		c-0.847-1.08-1.766-1.93-2.654-2.751c-0.646-0.598-1.257-1.162-1.854-1.819l-0.188-0.204c-0.2-0.215-0.396-0.425-0.589-0.685
		c-1.913-2.573-2.162-5.667-2.288-9.442v-6.95h0.285c0.552,0,1-0.448,1-1s-0.448-1-1-1h-0.285V1c0-0.552-0.448-1-1-1h-7.71
		c-0.552,0-1,0.448-1,1v2.855h-0.285c-0.552,0-1,0.448-1,1s0.448,1,1,1h0.285v7.656c-0.003,0.137-0.007,0.274-0.01,0.411
		c-0.063,3.049-0.124,5.928-1.81,8.196c-0.271,0.365-0.525,0.677-0.778,0.954c-0.608,0.669-1.282,1.255-1.996,1.876
		c-0.938,0.816-1.909,1.661-2.744,2.726c-2.726,3.481-4.228,8.13-4.228,13.092v53.782c0,3.782,16.256,3.826,16.42,3.826
		c0.11,0,7.519-0.022,12.345-1.191c-0.008,0.054-0.024,0.106-0.024,0.161c0,1.763,4.075,2.656,12.111,2.656
		c8.037,0,12.111-0.894,12.111-2.656c0-1.688-3.75-2.578-11.129-2.649V71.033C65.687,70.872,67.353,70.312,68.931,69.311z
		 M62.965,40.379c4.177,0,7.509,0.24,9.611,0.531c-2.103,0.292-5.434,0.531-9.611,0.531s-7.509-0.24-9.611-0.531
		C55.456,40.62,58.788,40.379,62.965,40.379z M31.582,30.282c0.341-0.435,0.97-0.511,1.404-0.17c0.435,0.34,0.511,0.969,0.17,1.404
		c-1.875,2.394-3.115,5.427-3.587,8.774c-0.07,0.5-0.499,0.86-0.989,0.86c-0.047,0-0.094-0.003-0.141-0.01
		c-0.547-0.077-0.928-0.583-0.851-1.13C28.109,36.316,29.49,32.952,31.582,30.282z M38.589,66.37
		c-6.592,0-13.406-1.106-14.453-2.011V46.981c4.356,1.815,14.325,1.842,14.453,1.842c3.045,0,6.612-0.26,9.545-0.686
		c-0.013,0.376-0.037,0.75-0.037,1.13c0,2.897,0.38,5.719,1.13,8.386c0.727,2.58,1.773,4.902,3.108,6.9
		c0.03,0.045,0.063,0.083,0.093,0.127C50.391,65.506,44.414,66.37,38.589,66.37z M71.748,97.344C70.08,97.677,67.129,98,62.988,98
		c-4.14,0-7.091-0.323-8.759-0.656c1.558-0.312,4.248-0.61,7.966-0.649c0.183,0.234,0.455,0.394,0.775,0.394s0.593-0.16,0.775-0.395
		C67.483,96.731,70.186,97.031,71.748,97.344z M54.805,95.186c0.109-0.2,0.171-0.412,0.171-0.638V67.674
		c0.659,0.616,1.344,1.176,2.071,1.638c1.567,0.993,3.221,1.553,4.924,1.719v23.664C58.984,94.725,56.589,94.888,54.805,95.186z
		 M62.965,53.514c-5.968,0-10.966,0.492-12.369,1.155c-0.325-1.751-0.499-3.557-0.499-5.402c0-2.355,0.283-4.644,0.81-6.833
		c1.72,0.547,5.164,1.007,12.058,1.007c6.957,0,10.397-0.469,12.102-1.022c0.529,2.192,0.813,4.486,0.813,6.848
		c0,1.852-0.175,3.665-0.501,5.422C74.036,54.016,68.995,53.514,62.965,53.514z"/>
</g>
</svg>
