<?xml version="1.0" encoding="utf-8"?>
<!-- Generator: Adobe Illustrator 16.0.0, SVG Export Plug-In . SVG Version: 6.00 Build 0)  -->
<!DOCTYPE svg PUBLIC "-//W3C//DTD SVG 1.1//EN" "http://www.w3.org/Graphics/SVG/1.1/DTD/svg11.dtd">
<svg version="1.1" xmlns="http://www.w3.org/2000/svg" xmlns:xlink="http://www.w3.org/1999/xlink" x="0px" y="0px" width="100px"
	 height="100px" viewBox="0 0 100 100" enable-background="new 0 0 100 100" xml:space="preserve">
<g id="Calque_2">
</g>
<g id="Calque_1">
	<path d="M99.665,53.476L60.397,18.537c-0.097-0.086-0.208-0.148-0.328-0.191l-2.842-4.335c-0.185-0.282-0.499-0.452-0.836-0.452
		c-20.759,0-46.426,4.896-56.206,18.636C0.064,32.365,0,32.567,0,32.775v37.978c0,0.495,0.362,0.916,0.853,0.989l4.608,0.688
		c0.05,0.007,0.1,0.011,0.148,0.011c0.097,0,0.188-0.024,0.277-0.05c0.039,0.011,0.073,0.033,0.114,0.039l92.729,14
		c0.05,0.007,0.1,0.011,0.149,0.011c0.237,0,0.47-0.085,0.652-0.242c0.221-0.19,0.348-0.466,0.348-0.758V54.7
		c0.008-0.015,0.016-0.029,0.022-0.044C100.095,54.253,99.998,53.772,99.665,53.476z M82.804,41.15l12.93,11.505l-10.756-1.823
		c-0.137-2.363-1.433-6.984-2.678-9.578C82.47,41.219,82.639,41.185,82.804,41.15z M82.946,50.487l-6.629-1.124
		c-0.026-1.819-0.593-4.913-1.646-6.987c1.98-0.211,3.861-0.456,5.578-0.742C81.456,43.778,82.693,48.295,82.946,50.487z
		 M80.93,39.483c-11.562,2.128-31.676,2.291-40.755,1.242c0.429-1.481,0.724-2.969,0.893-4.439
		c3.038,0.349,7.553,0.554,12.558,0.554c7.601,0,16.291-0.47,22.527-1.608L80.93,39.483z M74.309,49.023l-6.335-1.074
		c-0.035-1.344-0.441-3.354-1.339-4.936c1.99-0.111,3.949-0.251,5.839-0.421C73.517,43.993,74.207,47.191,74.309,49.023z
		 M65.962,47.608l-26.6-4.509c0.059-0.147,0.122-0.293,0.178-0.44c3.563,0.441,8.947,0.688,14.925,0.688
		c3.18,0,6.521-0.07,9.829-0.216c0.015,0.017,0.02,0.039,0.035,0.056C65.279,44.176,65.841,46.25,65.962,47.608z M74.236,33.527
		C64.056,35.1,48.202,35.102,41.22,34.293c0.064-1.516,0.008-2.997-0.153-4.416c2.449,0.269,6.022,0.425,9.965,0.425
		c6.115,0,13.099-0.379,18.13-1.291L74.236,33.527z M67.239,27.302c-8.357,1.232-21.127,1.2-26.479,0.521
		c-0.293-1.532-0.707-2.958-1.209-4.247c2.47,0.238,5.962,0.373,9.779,0.373c4.459,0,9.336-0.184,13.473-0.595L67.239,27.302z
		 M60.751,21.528c-6.018,0.479-13.122,0.525-18.131,0.265c6.367-0.996,12.36-1.481,16.733-1.508L60.751,21.528z M5.15,40.894v12.074
		c-0.002,0.012-0.011,0.022-0.013,0.035c-0.013,0.087,0.004,0.169,0.013,0.253v4.863C5.148,58.13,5.14,58.14,5.138,58.152
		c-0.013,0.087,0.004,0.169,0.013,0.253v11.956L2,69.891V35.202l3.354,3.628C5.225,39.499,5.15,40.185,5.15,40.894z M2.358,32.644
		c9.675-12.469,34.58-16.999,53.494-17.083l1.807,2.756c-14.488,0.421-45.962,5.099-51.622,18.306L2.358,32.644z M32.067,23.891
		c1.639-0.403,3.297-0.767,4.954-1.1c2.331,4.638,3.352,12.705,0.316,19.965L32.35,41.91C34.77,35.582,34.084,28.204,32.067,23.891z
		 M25.03,25.909c1.641-0.545,3.335-1.051,5.065-1.513c1.616,3.18,2.995,10.429,0.229,17.171l-5.048-0.855
		C27.476,34.953,26.614,29.354,25.03,25.909z M18.981,28.247c1.313-0.596,2.705-1.152,4.147-1.676
		c1.501,3.112,2.331,8.38,0.126,13.798l-4.5-0.763C19.916,35.908,20.003,31.858,18.981,28.247z M16.759,39.267L7.751,37.74
		c1.332-3.408,4.79-6.261,9.395-8.608C17.987,32.374,17.849,35.981,16.759,39.267z M81.34,68.608l-4.532-0.682l3.61-2.585
		l4.531,0.682L81.34,68.608z M87.787,66.45l4.531,0.682l-3.61,2.586l-4.53-0.682L87.787,66.45z M73.97,67.499l-4.529-0.681
		l3.61-2.586l4.529,0.682L73.97,67.499z M66.603,66.391l-4.531-0.682l3.61-2.586l4.531,0.682L66.603,66.391z M59.233,65.282
		L54.701,64.6l3.61-2.585l4.532,0.682L59.233,65.282z M51.863,64.173l-4.53-0.682l3.61-2.585l4.53,0.682L51.863,64.173z
		 M44.495,63.064l-4.53-0.682l3.609-2.585l4.531,0.682L44.495,63.064z M37.127,61.955l-4.53-0.682l3.609-2.585l4.53,0.682
		L37.127,61.955z M29.758,60.846l-4.531-0.682l3.61-2.585l4.531,0.682L29.758,60.846z M22.389,59.737l-4.53-0.682l3.609-2.585
		l4.53,0.682L22.389,59.737z M15.021,58.628l-4.532-0.682l3.609-2.585l4.532,0.682L15.021,58.628z M7.65,57.52l-0.5-0.075v-3.128
		l4.109,0.619L7.65,57.52z M97.879,84.278L7.15,70.581V59.466l0.563,0.084c0.055,0.01,0.106,0.039,0.162,0.039
		c0.016,0,0.03-0.006,0.046-0.007l7.231,1.088c0.034,0.003,0.064,0.023,0.099,0.023c0.01,0,0.019-0.004,0.028-0.004l7.308,1.1
		c0.013,0.001,0.024,0.009,0.038,0.009c0.004,0,0.007-0.001,0.011-0.001l75.243,11.322V84.278z M97.879,71.097l-6.333-0.953
		l3.611-2.585l2.722,0.41V71.097z M97.879,65.946l-2.596-0.391c-0.125-0.045-0.252-0.064-0.385-0.058l-7.016-1.056
		c-0.108-0.036-0.217-0.052-0.331-0.049l-7.066-1.063c-0.093-0.028-0.184-0.042-0.28-0.042l-7.124-1.072
		c-0.071-0.019-0.14-0.029-0.213-0.032l-7.187-1.082c-0.054-0.013-0.105-0.02-0.16-0.024l-7.239-1.089
		c-0.036-0.008-0.07-0.012-0.107-0.016l-7.288-1.097c-0.021-0.004-0.039-0.006-0.059-0.009l-7.342-1.105c-0.002,0-0.003,0-0.005,0
		L7.15,52.294v-11.4c0-0.41,0.029-0.815,0.086-1.212l9.705,1.645c0.037,0.021,0.065,0.052,0.105,0.067
		c0.118,0.046,0.241,0.068,0.361,0.068c0.061,0,0.118-0.016,0.177-0.026l5.824,0.987c0.009,0.005,0.015,0.013,0.023,0.018
		c0.135,0.062,0.276,0.091,0.416,0.091c0.037,0,0.072-0.011,0.109-0.016l6.76,1.146c0.072,0.016,0.144,0.047,0.215,0.047
		c0.012,0,0.022-0.004,0.033-0.005l66.913,11.343V65.946z"/>
</g>
</svg>
