<?xml version="1.0" encoding="utf-8"?>
<!-- Generator: Adobe Illustrator 16.0.0, SVG Export Plug-In . SVG Version: 6.00 Build 0)  -->
<!DOCTYPE svg PUBLIC "-//W3C//DTD SVG 1.1//EN" "http://www.w3.org/Graphics/SVG/1.1/DTD/svg11.dtd">
<svg version="1.1" xmlns="http://www.w3.org/2000/svg" xmlns:xlink="http://www.w3.org/1999/xlink" x="0px" y="0px" width="100px"
	 height="100px" viewBox="0 0 100 100" enable-background="new 0 0 100 100" xml:space="preserve">
<g id="Calque_2">
</g>
<g id="Calque_1">
	<path d="M81.676,60.399c1.386,2.427,0.382,5.882-2.236,7.7c-0.372,0.259-0.764,0.477-1.161,0.645
		c-0.127,0.054-0.259,0.079-0.389,0.079c-0.39,0-0.762-0.23-0.923-0.612c-0.214-0.509,0.024-1.096,0.533-1.31
		c0.27-0.113,0.537-0.262,0.797-0.443c1.761-1.223,2.512-3.543,1.642-5.068c-0.352-0.619-0.916-1.03-1.634-1.193
		c-0.949-0.217-2.031,0.039-2.972,0.694c-0.572,0.398-1.059,0.922-1.406,1.516c-0.28,0.477-0.892,0.637-1.369,0.357
		c-0.477-0.279-0.636-0.892-0.357-1.368c0.494-0.842,1.182-1.585,1.99-2.147c1.4-0.975,3.062-1.341,4.556-1.003
		C80.009,58.531,81.049,59.296,81.676,60.399z M97.108,93.953c-1.322,1.071-3.013,1.614-5.028,1.614
		c-5.597,0-13.314-4.264-20.896-11.198c-0.317,2.174-1.574,4.137-3.668,5.686c-3.483,2.578-9.004,3.937-15.396,3.937
		c-3.037,0-6.269-0.306-9.575-0.935c-13.054-2.48-27.136-5.619-29.014-11.511c-0.001-0.003,0-0.006-0.001-0.009L6.482,58.977
		c-0.137-0.366-0.248-0.744-0.334-1.131c-0.16-0.036-0.315-0.077-0.485-0.125l-0.119-0.033c-3.566-0.989-6.02-4.408-5.472-7.622
		c0.248-1.463,1.084-2.713,2.352-3.518c1.488-0.945,3.433-1.185,5.336-0.655c0.946,0.264,1.84,0.716,2.625,1.302
		c2.454-1.984,5.863-3.52,10.083-4.49c-0.687-1.042-1.358-2.01-2-2.928c-1.552-2.218-2.891-4.134-3.903-6.424
		c-1.131-2.558-1.921-5.11-2.228-7.186c-0.375-2.541,0.023-4.089,1.184-4.602l2.102-0.927c2.738-1.215,6.324,4.905,8.006,8.711
		c1.014,2.296,1.531,4.583,2.129,7.23c0.357,1.582,0.744,3.27,1.271,5.122c5.516-0.464,11.641-0.106,17.79,1.062
		c1.214,0.23,2.398,0.459,3.569,0.689c0.224-2.655,1.143-4.772,2.827-6.137c1.322-1.071,3.015-1.614,5.028-1.614
		c7.787,0,19.683,8.225,29.603,20.466C98.71,72.047,103.658,88.644,97.108,93.953z M9.377,60.049
		c3.951,5.264,15.665,7.919,30.897,10.813c6.919,1.315,13.628,1.574,19.54,0.783c-4.3-5.85-7.5-11.68-9.413-16.894
		c-1.924-0.39-3.907-0.777-5.957-1.166c-4.471-0.85-8.833-1.235-13.02-1.205c1.675,2.703,3.457,4.405,5.08,5.951
		c0.575,0.548,1.132,1.079,1.661,1.628c0.066,0.067,0.104,0.148,0.146,0.227c1.052-0.247,2.109-0.539,3.182-0.925
		c0.517-0.186,1.093,0.082,1.279,0.603c0.188,0.52-0.082,1.092-0.602,1.28c-3.146,1.134-6.271,1.701-9.353,1.701
		c-3.088,0-6.13-0.569-9.107-1.708c-0.516-0.197-0.773-0.775-0.576-1.292c0.197-0.516,0.773-0.773,1.291-0.577
		c0.862,0.33,1.727,0.591,2.591,0.818c-0.034-2.023-0.269-4.432-1.332-7.387C17.743,53.614,11.876,56.261,9.377,60.049z
		 M27.618,43.662c0.528,1.632,1.183,3.396,2.036,5.338c0.215,0.488,0.436,0.946,0.658,1.387c4.646-0.117,9.517,0.285,14.505,1.233
		c1.661,0.315,3.27,0.63,4.849,0.945c-0.79-2.571-1.238-4.958-1.32-7.082c-1.276-0.251-2.574-0.501-3.901-0.754
		C38.629,43.624,32.849,43.265,27.618,43.662z M20.106,38.632c0.893,1.277,1.839,2.64,2.813,4.187
		c0.004,0.006,0.008,0.012,0.012,0.019c1.277,2.035,2.604,4.398,3.927,7.395c0.134,0.306,0.243,0.595,0.361,0.891
		c0.012,0.021,0.017,0.044,0.026,0.065c1.52,3.826,1.767,6.847,1.78,9.314c0,0.007-0.004,0.013-0.004,0.02
		c2.295,0.393,4.609,0.418,6.961,0.096c-0.285-0.278-0.561-0.557-0.857-0.84c-2.349-2.237-5.012-4.773-7.301-9.974
		c-2.321-5.279-3.223-9.266-4.018-12.783c-0.575-2.546-1.072-4.744-2.01-6.863c-2.208-5.003-4.714-7.654-5.438-7.672l-2.031,0.91
		c-0.414,0.508-0.145,4.146,2.066,9.149C17.327,34.658,18.615,36.5,20.106,38.632z M21.613,44.506
		C13.481,46.209,8.521,49.977,7.98,54.914c-0.126,1.151-0.003,2.207,0.342,3.184c3.014-3.784,8.787-6.342,16.583-7.321
		C23.803,48.313,22.694,46.274,21.613,44.506z M5.929,55.706c0.005-0.33,0.024-0.666,0.063-1.01
		c0.249-2.279,1.245-4.338,2.896-6.116c-0.512-0.333-1.074-0.595-1.663-0.759c-1.357-0.377-2.716-0.226-3.729,0.417
		c-0.795,0.505-1.297,1.253-1.451,2.164C1.671,52.591,3.407,54.934,5.929,55.706z M69.238,83.888
		c0.004-0.037,0.024-0.066,0.032-0.102c0.007-0.033,0-0.065,0.011-0.098l0.275-0.85c-2.414-2.337-4.799-4.926-7.078-7.739
		c-0.439-0.543-0.869-1.086-1.29-1.63c-2.622,0.414-5.399,0.629-8.294,0.629c-4.155,0-8.537-0.425-12.993-1.272
		c-13.485-2.562-24.349-4.986-29.915-9.341l5.454,17.457c1.681,5.247,19.104,8.558,27.478,10.148
		c9.586,1.823,18.775,0.785,23.407-2.645C68.069,87.156,69.049,85.623,69.238,83.888z M84.289,57.427
		c-9.41-11.614-20.943-19.725-28.047-19.725c-1.544,0-2.813,0.393-3.769,1.167c-5.489,4.45-0.197,20.465,11.56,34.972
		c9.409,11.613,20.942,19.724,28.047,19.724c1.545,0,2.813-0.393,3.769-1.167C101.339,87.95,96.045,71.935,84.289,57.427z
		 M31.846,33.639c0.156,0,0.315-0.037,0.464-0.114c0.488-0.257,0.678-0.861,0.421-1.351c-1.669-3.182-1.524-7.208,0.371-10.261
		c0.773-1.254,1.8-2.328,2.886-3.464c0.489-0.511,0.978-1.022,1.444-1.551c2.057-2.33,3.084-4.504,3.142-6.646
		c0.076-2.708-1.832-5.692-4.797-5.817c-0.553-0.014-1.019,0.405-1.041,0.958c-0.023,0.552,0.405,1.018,0.957,1.041
		c1.708,0.072,2.93,2.045,2.881,3.763c-0.044,1.655-0.908,3.415-2.642,5.377c-0.449,0.509-0.919,1.001-1.39,1.493
		c-1.11,1.161-2.259,2.362-3.142,3.794c-2.261,3.64-2.434,8.446-0.441,12.243C31.138,33.444,31.485,33.639,31.846,33.639z
		 M44.485,37.703c0.167,0,0.337-0.042,0.493-0.13c0.479-0.273,0.648-0.883,0.375-1.363c-1.542-2.717-1.286-6.348,0.623-8.832
		c0.325-0.422,0.696-0.819,1.09-1.24c0.559-0.598,1.138-1.215,1.616-1.955c1.213-1.892,1.535-4.292,0.859-6.422
		c-0.167-0.525-0.727-0.818-1.256-0.651c-0.526,0.167-0.817,0.729-0.65,1.255c0.497,1.569,0.26,3.34-0.634,4.733
		c-0.38,0.586-0.874,1.113-1.397,1.672c-0.408,0.437-0.83,0.888-1.214,1.387c-2.385,3.104-2.704,7.642-0.775,11.038
		C43.799,37.521,44.137,37.703,44.485,37.703z M63.944,83.782c-1.362,0.876-8.92,5.067-23.823,1.559
		c-0.537-0.13-1.077,0.206-1.203,0.744c-0.126,0.538,0.207,1.076,0.744,1.202c4.394,1.035,8.199,1.422,11.434,1.422
		c8.317,0,12.863-2.559,13.931-3.245c0.464-0.299,0.599-0.917,0.3-1.382C65.029,83.619,64.41,83.484,63.944,83.782z M73.459,51.51
		c0.38-0.401,0.361-1.034-0.039-1.414c-8.206-7.76-14.466-9.689-17.587-8.913c-1.231,0.308-2.101,1.044-2.447,2.074
		c-0.176,0.524,0.106,1.091,0.631,1.267c0.524,0.175,1.091-0.106,1.267-0.63c0.124-0.371,0.472-0.63,1.034-0.77
		c2.682-0.672,8.59,1.675,15.728,8.426c0.193,0.183,0.44,0.273,0.688,0.273C72.997,51.823,73.263,51.718,73.459,51.51z"/>
</g>
</svg>
