<?xml version="1.0" encoding="utf-8"?>
<!-- Generator: Adobe Illustrator 16.0.0, SVG Export Plug-In . SVG Version: 6.00 Build 0)  -->
<!DOCTYPE svg PUBLIC "-//W3C//DTD SVG 1.1//EN" "http://www.w3.org/Graphics/SVG/1.1/DTD/svg11.dtd">
<svg version="1.1" xmlns="http://www.w3.org/2000/svg" xmlns:xlink="http://www.w3.org/1999/xlink" x="0px" y="0px" width="100px"
	 height="100px" viewBox="0 0 100 100" enable-background="new 0 0 100 100" xml:space="preserve">
<g id="Calque_2">
</g>
<g id="Calque_1">
	<path d="M100,62.398c0-0.953-0.011-3.448-17.464-4.772c0.058-0.18,0.105-0.354,0.168-0.538c1.519-4.436,3.103-7.259,4.501-9.749
		c1.082-1.927,2.016-3.591,2.701-5.596c0.313-0.913,2.979-8.96,0.416-10.377l-1.554-0.859c-0.414-0.229-0.906-0.253-1.387-0.069
		c-1.778,0.684-3.607,4.422-4.727,7.692c-0.685,2.003-1.006,4.004-1.378,6.322c-0.481,3.001-1.027,6.403-2.539,10.842
		c-0.253,0.741-0.509,1.416-0.766,2.044c-3.207-0.167-6.56-0.265-10.006-0.296V9.791l4.906-7.359
		c0.204-0.307,0.224-0.701,0.05-1.026s-0.513-0.528-0.882-0.528H20.029c-0.345,0-0.667,0.178-0.849,0.472l-2.865,4.603H1
		c-0.347,0-0.668,0.18-0.851,0.474c-0.182,0.295-0.199,0.663-0.044,0.973l3.7,7.4v69.538c0,0.552,0.448,1,1,1h32.983
		c0.1,0,0.191-0.03,0.282-0.057c2.04,2.294,4.559,4.132,7.598,5.529v2.852c0,0.319,0.152,0.619,0.41,0.808
		c4.052,2.958,11.202,4.655,19.619,4.655c8.699,0,15.666-1.59,19.618-4.476c0.258-0.188,0.41-0.488,0.41-0.808v-3.06
		C95.575,86.224,100,77.072,100,62.398z M97.869,62.406c-1.207,0.969-7.029,2.164-16.394,2.837c-0.032-1.582,0.028-3.433,0.523-5.65
		C93.02,60.412,96.991,61.771,97.869,62.406z M83.252,44.768c0.357-2.227,0.666-4.15,1.296-5.991
		c1.328-3.881,2.835-6.012,3.442-6.415l1.283,0.709c0.334,0.642,0.202,3.752-1.26,8.025c-0.626,1.832-1.519,3.422-2.553,5.264
		c-1.439,2.565-3.072,5.472-4.649,10.082c-1.264,3.714-1.387,6.599-1.335,8.934c-1.322,0.08-2.705,0.15-4.15,0.208
		c1.337-1.68,2.795-3.589,4.188-6.763c0.005-0.01,0.008-0.02,0.013-0.03c0.374-0.854,0.743-1.795,1.104-2.853
		C82.198,51.338,82.758,47.848,83.252,44.768z M73.544,64.611l-0.335,0.428l-0.614,0.636c-2.192,0.061-4.503,0.095-6.932,0.095
		c-18.57,0-30.463-1.937-32.214-3.372c1.753-1.436,13.646-3.371,32.214-3.371c3.943,0,7.771,0.094,11.423,0.271
		C75.916,61.633,74.717,63.141,73.544,64.611z M57.266,13.221l-1.366-2.733h6.831L57.266,13.221z M65.663,57.027
		c-0.963,0-3.979,0.012-7.845,0.136V15.181l8.148-4.075v45.923C65.865,57.029,65.766,57.027,65.663,57.027z M20.584,2.877h49.588
		l-3.741,5.611H55.549c-0.21,0-0.394,0.08-0.555,0.19l-1.087-2.174c-0.17-0.339-0.516-0.553-0.895-0.553H18.671L20.584,2.877z
		 M16.398,7.952c0.267,0.12,0.555,0.114,0.81,0h35.187l2.806,5.611H5.424L2.618,7.952H16.398z M5.806,83.337V15.563h50.013v41.672
		c-10.227,0.408-24.49,1.612-24.49,5.163c0,8.977,1.66,15.883,5.201,20.939H5.806z M83.727,93.317
		c-3.651,2.423-10.173,3.806-18.028,3.806c-7.599,0-14.277-1.483-18.029-3.984v-1.51c4.827,1.798,10.787,2.661,17.994,2.661
		c7.241,0,13.225-0.871,18.063-2.687V93.317z M65.663,92.29c-22.196,0-31.688-8.091-32.301-27.798
		c6.927,3.171,29.335,3.278,32.301,3.278c0.917,0,3.701-0.011,7.304-0.119c0.021,0.001,0.043,0.012,0.064,0.012
		c0.029,0,0.056-0.014,0.085-0.017c8.049-0.246,20.094-0.978,24.85-3.155C97.354,84.199,87.86,92.29,65.663,92.29z M36.779,56.16
		c0.311-0.371,0.311-0.912,0-1.283c-0.182-0.218-4.522-5.329-10.065-5.329c-0.77,0-1.514,0.106-2.229,0.277l2.973-2.973
		c1.404,1.4,4.712,4.208,8.688,4.208c5.182,0,9.242-4.779,9.412-4.982c0.311-0.372,0.311-0.913,0-1.284
		c-0.17-0.204-4.231-4.981-9.412-4.981c-0.635,0-1.252,0.073-1.848,0.2l2.587-2.587c1.339,1.321,4.386,3.859,8.035,3.859
		c4.826,0,8.6-4.444,8.758-4.633c0.311-0.371,0.312-0.912,0.001-1.283c-0.117-0.14-2.23-2.626-5.286-3.897
		c0.672-0.377,1.318-0.829,1.893-1.404c3.41-3.41,2.938-9.222,2.917-9.468c-0.043-0.482-0.426-0.864-0.907-0.908
		c0,0-0.354-0.032-0.94-0.032c-2.085,0-5.966,0.383-8.531,2.947c-0.574,0.574-1.029,1.218-1.404,1.889
		c-1.273-3.052-3.755-5.163-3.896-5.28c-0.371-0.311-0.912-0.311-1.284,0c-0.189,0.158-4.632,3.934-4.632,8.759
		c0,3.65,2.541,6.698,3.861,8.036l-2.59,2.59c0.127-0.597,0.201-1.215,0.201-1.851c-0.001-5.18-4.778-9.242-4.981-9.413
		c-0.371-0.312-0.913-0.311-1.284,0c-0.204,0.17-4.983,4.229-4.983,9.413c0,3.976,2.809,7.285,4.209,8.689l-2.973,2.973
		c0.172-0.717,0.278-1.461,0.278-2.232c0.001-5.538-5.111-9.88-5.329-10.063c-0.371-0.311-0.912-0.311-1.283,0
		c-0.218,0.182-5.332,4.524-5.333,10.062c0.001,4.301,3.081,7.873,4.559,9.341L9.93,61.551c-0.391,0.391-0.391,1.023,0,1.414
		c0.195,0.195,0.451,0.293,0.707,0.293s0.512-0.098,0.707-0.293l6.032-6.032c1.469,1.479,5.041,4.557,9.342,4.557
		C32.255,61.49,36.597,56.377,36.779,56.16z M43.419,45.438c-1.2,1.192-4.042,3.623-7.273,3.623c-3.217,0-6.069-2.433-7.272-3.624
		c1.199-1.192,4.042-3.625,7.272-3.625C39.363,41.813,42.215,44.246,43.419,45.438z M44.92,32.732c2.902,0,5.483,2.167,6.617,3.279
		c-1.13,1.112-3.703,3.274-6.617,3.274c-2.901,0-5.483-2.163-6.618-3.275c0.934-0.916,2.855-2.526,5.123-3.074
		c0.431-0.042,0.882-0.103,1.354-0.191C44.827,32.743,44.873,32.732,44.92,32.732z M44.24,24.02
		c2.074-2.074,5.496-2.348,6.997-2.361c-0.014,1.584-0.304,4.935-2.363,6.994c-1.227,1.227-2.916,1.817-4.408,2.105
		c-0.491,0.028-0.972,0.094-1.436,0.202c-0.442,0.039-0.846,0.059-1.154,0.062c0.002-0.316,0.022-0.716,0.059-1.149
		c0.111-0.477,0.179-0.971,0.206-1.476C42.429,26.906,43.02,25.24,44.24,24.02z M33.61,27.975c0-2.901,2.165-5.483,3.276-6.617
		c1.112,1.13,3.276,3.703,3.277,6.616c0,0.062-0.014,0.12-0.016,0.181c-0.086,0.464-0.147,0.906-0.189,1.319
		c-0.549,2.266-2.16,4.186-3.074,5.119C35.772,33.463,33.61,30.888,33.61,27.975z M23.834,36.75c0-3.219,2.434-6.07,3.625-7.273
		c1.192,1.2,3.622,4.044,3.623,7.273c0,3.216-2.435,6.068-3.627,7.272C26.264,42.821,23.834,39.978,23.834,36.75z M13.404,46.178
		c0-3.534,2.705-6.655,3.974-7.925c1.269,1.27,3.971,4.391,3.97,7.925c0,3.535-2.705,6.655-3.974,7.924
		C16.106,52.836,13.405,49.724,13.404,46.178z M26.718,59.49c-3.534,0-6.656-2.704-7.926-3.973l0.061-0.061
		c1.301-1.29,4.37-3.908,7.869-3.908c3.532,0,6.651,2.702,7.92,3.97C33.373,56.787,30.252,59.49,26.718,59.49z"/>
</g>
</svg>
