<?xml version="1.0" encoding="utf-8"?>
<!-- Generator: Adobe Illustrator 16.0.0, SVG Export Plug-In . SVG Version: 6.00 Build 0)  -->
<!DOCTYPE svg PUBLIC "-//W3C//DTD SVG 1.1//EN" "http://www.w3.org/Graphics/SVG/1.1/DTD/svg11.dtd">
<svg version="1.1" xmlns="http://www.w3.org/2000/svg" xmlns:xlink="http://www.w3.org/1999/xlink" x="0px" y="0px" width="100px"
	 height="100px" viewBox="0 0 100 100" enable-background="new 0 0 100 100" xml:space="preserve">
<g id="Calque_2">
</g>
<g id="Calque_1">
	<path d="M98.456,54.116L82.106,47.49c1.463-3.482,2.961-6.329,4.347-8.96c1.76-3.341,3.281-6.227,4.276-9.554
		c1.115-3.722,1.764-7.374,1.826-10.28c0.073-3.398-0.656-5.35-2.166-5.801l-3.083-0.922c-3.248-0.975-7.004,6.189-9.116,13.252
		c-0.996,3.326-1.31,6.571-1.673,10.329c-0.295,3.05-0.617,6.355-1.35,10.206c-0.021-0.001-0.038-0.012-0.058-0.012H64.408V19.908
		c0-0.123-0.016-0.258-0.024-0.387c0.005-0.045,0.024-0.088,0.024-0.134c0-0.082-0.028-0.155-0.047-0.231
		c-0.45-3.965-4.286-10.136-10.354-10.615V3.633c0.191-0.22,0.255-0.469,0.255-0.755c0-0.381-0.118-0.695-0.496-0.963
		c-0.184-0.222-0.45-0.371-0.76-0.371c-0.005,0-0.01,0.003-0.016,0.003c-1.002-0.333-2.746-0.586-5.734-0.821
		c-3.947-0.31-9.19-0.481-14.765-0.481c-5.573,0-10.817,0.171-14.764,0.481c-3.208,0.252-4.976,0.527-5.937,0.897
		c-0.12-0.051-0.251-0.079-0.389-0.079c-0.552,0-1,0.448-1,1v6.227C4.708,9.552,0.681,15.219,0.085,18.99
		c-0.053,0.122-0.084,0.255-0.084,0.397c0,0.051,0.021,0.1,0.027,0.15C0.02,19.66,0.001,19.79,0.001,19.908v65.846
		c0,4.742,26.826,4.982,32.203,4.982c6.187,0,12.118-0.23,17.245-0.663c0.4,1.61,1.606,3.29,2.975,4.045l7.474,4.151
		c1.514,0.833,3.936,1.485,5.515,1.485h18.804c1.939,0,3.787-1.589,4.118-3.53l7.188-39.374h2.376c0.658,0,1.883,0,2.081-1.024
		C100.176,54.805,99.054,54.355,98.456,54.116z M94.943,54.851H79.446c0.616-2.007,1.256-3.83,1.91-5.507L94.943,54.851z
		 M78.508,35.747c0.354-3.653,0.659-6.809,1.599-9.948c2.478-8.286,5.83-12.159,6.628-11.91l3.083,0.922
		c0.162,0.048,0.803,0.884,0.739,3.842c-0.059,2.732-0.678,6.195-1.743,9.75c-0.939,3.141-2.417,5.946-4.129,9.195
		c-1.479,2.806-3.081,5.848-4.642,9.639c-0.121,0.102-0.227,0.222-0.291,0.379c-0.064,0.158-0.072,0.319-0.055,0.478
		c-0.803,2.018-1.592,4.242-2.343,6.751c0,0.002,0,0.005,0,0.007h-2.418l0.223-0.663C77.47,46.461,78.021,40.769,78.508,35.747z
		 M73.252,53.581l-0.414,1.23c-0.004,0.013-0.001,0.026-0.005,0.039h-9.87c-1.267,0-3.288-0.438-4.413-0.955l-13.344-6.147h2.005
		c0.001,0,0.001,0,0.002,0s0.002,0,0.003,0h27.539C74.36,49.566,73.877,51.493,73.252,53.581z M34.563,39.583
		c1.407-0.615,3.562-1.24,5.841-0.718c4.6,1.049,5.619,4.646,5.795,6.884h-2.493c-1.645,0-2.007,0.841-2.086,1.203
		c-0.081,0.367-0.103,1.297,1.434,2.007l2.572,1.185c-1.552,4.521-6.688,10.368-10.074,10.368c-1.167,0-1.81-0.259-2.146-0.478
		c-0.746-0.482-1.75-0.492-2.496-0.026c-0.371,0.229-1.063,0.504-2.257,0.504c-3.456,0-8.75-6.104-10.177-10.659
		c-0.833-2.663-0.614-5.596,0.569-7.653c0.988-1.718,2.588-2.84,4.757-3.335c2.278-0.521,4.434,0.103,5.841,0.718
		C31.184,40.256,33.023,40.255,34.563,39.583z M48.207,45.749c-0.276-4.564-2.97-7.833-7.359-8.834
		c-2.806-0.64-5.402,0.101-7.085,0.835c-0.313,0.137-0.646,0.219-0.985,0.273c0.66-4.607-0.438-7.485-1.362-9.258
		c-0.254-0.49-0.858-0.682-1.349-0.425c-0.49,0.255-0.68,0.859-0.425,1.349c0.801,1.54,1.756,4.056,1.142,8.169
		c-0.114-0.038-0.232-0.06-0.342-0.107c-1.682-0.734-4.276-1.476-7.085-0.835c-2.696,0.616-4.787,2.098-6.046,4.289
		c-1.474,2.564-1.752,6.021-0.744,9.247c1.522,4.857,7.268,12.062,12.085,12.062c1.336,0,2.45-0.271,3.313-0.806
		c0.086-0.054,0.264-0.051,0.352,0.007c0.816,0.53,1.904,0.799,3.234,0.799c3.735,0,8.017-4.324,10.466-8.531l1.74,18.618
		c-4.711,0.35-10.057,0.535-15.553,0.535c-17.635,0-28.904-1.832-30.203-3.136V21.389c6.31,2.81,25.716,2.979,30.203,2.979
		c4.487,0,23.895-0.169,30.204-2.979v24.359H48.207z M12.434,8.977c-0.01-0.01-0.022-0.016-0.032-0.025V4.33
		c1.046,0.275,2.708,0.495,5.326,0.701c3.948,0.311,9.191,0.482,14.764,0.482c5.574,0,10.817-0.171,14.765-0.482
		c2.184-0.172,3.698-0.354,4.75-0.569v4.507c-1.742,0.52-8.981,1.157-19.803,1.157C21.439,10.125,14.224,9.495,12.434,8.977z
		 M32.492,2.245c7.26,0,12.905,0.288,16.355,0.634c-3.45,0.347-9.094,0.634-16.355,0.634c-7.26,0-12.905-0.288-16.354-0.634
		C19.587,2.532,25.232,2.245,32.492,2.245z M11.358,10.703c0.935,0.393,2.723,0.679,6.065,0.941
		c3.957,0.311,9.206,0.481,14.781,0.481c5.576,0,10.825-0.171,14.781-0.481c3.88-0.305,5.667-0.641,6.452-1.14
		c5.202,0.126,8.495,5.706,8.92,8.771c-1.497,1.301-12.709,3.093-30.154,3.093c-17.398,0-28.597-1.783-30.141-3.083
		C2.552,16.414,6.125,10.952,11.358,10.703z M2.001,85.6V72.155c6.31,2.809,25.716,2.979,30.203,2.979
		c5.56,0,10.97-0.188,15.739-0.543l1.261,13.495c-5.054,0.425-10.898,0.65-17,0.65C14.57,88.736,3.3,86.903,2.001,85.6z
		 M53.392,92.368c-1.003-0.554-1.975-2.048-2.078-3.201l-0.023-0.246c0-0.005,0.002-0.009,0.001-0.014s-0.003-0.009-0.004-0.014
		l-3.529-37.768l9.955,4.586c0.486,0.224,1.087,0.429,1.727,0.603l2.216,40.574c-0.286-0.117-0.559-0.24-0.792-0.369L53.392,92.368z
		 M86.364,95.877c-0.17,1-1.174,1.878-2.148,1.878H65.412c-0.48,0-1.085-0.085-1.717-0.227L61.467,56.73
		c0.534,0.074,1.047,0.12,1.496,0.12h30.525L86.364,95.877z M74.088,68.894c-8.306,0-9.202,5.445-9.202,7.786
		c0,4.866,4.908,8.826,10.958,8.826c0,0,0.02,0,0.02,0c6.032,0,10.939-3.959,10.939-8.826c0-2.341-0.896-7.786-9.202-7.786
		c-0.232,0-0.487,0.022-0.729,0.031c0.009-1.202,0.1-3.535,1.113-3.824c0.531-0.151,0.838-0.705,0.687-1.235
		c-0.151-0.531-0.705-0.835-1.236-0.688c-0.786,0.225-1.329,0.721-1.706,1.349c-0.604-1.03-1.612-2.302-3.106-2.857
		c-0.545-0.202-1.144-0.306-1.778-0.306c-2.054,0-3.895,1.082-3.972,1.128c-0.404,0.24-0.586,0.73-0.437,1.176
		c0.046,0.139,1.159,3.389,3.818,4.378c0.545,0.202,1.144,0.305,1.778,0.305c1.104,0,2.136-0.311,2.876-0.606
		c-0.027,0.429-0.035,0.833-0.037,1.184C74.611,68.917,74.337,68.894,74.088,68.894z M70.95,66.17
		c-1.111-0.413-1.861-1.551-2.264-2.335c0.835-0.338,2.265-0.656,3.24-0.291c1.11,0.413,1.862,1.549,2.267,2.335
		C73.354,66.216,71.924,66.53,70.95,66.17z M84.803,76.68c0,3.764-4.011,6.826-8.94,6.826v1l-0.037-1c-4.93,0-8.94-3.063-8.94-6.826
		c0-2.64,1.25-5.786,7.202-5.786c0.528,0,1.091,0.025,1.672,0.074c0.017,0.002,0.034-0.001,0.052,0c0.011,0,0.023,0.004,0.034,0.004
		c0.008,0,0.015-0.004,0.023-0.004c0.021-0.001,0.041,0.002,0.061,0c0.581-0.049,1.144-0.074,1.671-0.074
		C83.554,70.894,84.803,74.04,84.803,76.68z"/>
</g>
</svg>
