<?xml version="1.0" encoding="utf-8"?>
<!-- Generator: Adobe Illustrator 16.0.0, SVG Export Plug-In . SVG Version: 6.00 Build 0)  -->
<!DOCTYPE svg PUBLIC "-//W3C//DTD SVG 1.1//EN" "http://www.w3.org/Graphics/SVG/1.1/DTD/svg11.dtd">
<svg version="1.1" xmlns="http://www.w3.org/2000/svg" xmlns:xlink="http://www.w3.org/1999/xlink" x="0px" y="0px" width="100px"
	 height="100px" viewBox="0 0 100 100" enable-background="new 0 0 100 100" xml:space="preserve">
<g id="Calque_2">
</g>
<g id="v2">
	<path d="M27.581,40.01c0.52-3.693,1.901-7.057,3.993-9.728c0.34-0.434,0.969-0.512,1.404-0.17c0.435,0.34,0.511,0.969,0.17,1.404
		c-1.875,2.394-3.115,5.428-3.586,8.774c-0.07,0.5-0.499,0.86-0.989,0.86c-0.047,0-0.094-0.003-0.141-0.01
		C27.884,41.063,27.503,40.557,27.581,40.01z M63.963,71.033v23.661c7.379,0.072,11.128,0.961,11.128,2.649
		c0,1.763-4.075,2.656-12.111,2.656c-8.037,0-12.111-0.894-12.111-2.656c0-0.055,0.016-0.107,0.024-0.161
		c-4.827,1.169-12.235,1.191-12.345,1.191c-0.164,0-16.419-0.044-16.419-3.826V40.766c0-4.962,1.501-9.612,4.227-13.092
		c0.835-1.065,1.806-1.91,2.745-2.727c0.713-0.621,1.387-1.207,1.996-1.876c0.266-0.292,0.524-0.613,0.778-0.955
		c1.689-2.272,1.745-4.893,1.81-7.928c0.003-0.127,0.007-0.259,0.01-0.387V1c0-0.552,0.448-1,1-1h7.709c0.552,0,1,0.448,1,1v11.543
		c0.128,3.853,0.379,7.006,2.288,9.573c0.254,0.342,0.513,0.663,0.778,0.955c0.592,0.651,1.198,1.218,1.839,1.818
		c0.893,0.835,1.817,1.699,2.667,2.785c2.282,2.912,3.591,6.62,3.911,11.015c1.949-0.189,4.561-0.309,8.071-0.309
		c13.492,0,13.77,1.764,13.775,2.487c0.002,0.007,0.008,0.012,0.01,0.02c0.75,2.661,1.129,5.48,1.129,8.381
		c0,2.899-0.38,5.72-1.129,8.385c-0.727,2.579-1.773,4.9-3.108,6.903c-1.349,2.027-2.935,3.627-4.712,4.756
		C67.345,70.312,65.679,70.871,63.963,71.033z M61.963,94.694V71.031c-1.703-0.167-3.357-0.726-4.924-1.719
		c-0.727-0.462-1.412-1.022-2.071-1.638v26.875c0,0.226-0.062,0.438-0.171,0.638C56.581,94.888,58.976,94.725,61.963,94.694z
		 M24.128,64.359c1.049,0.905,7.862,2.011,14.453,2.011c4.833,0,11.375-0.687,13.833-1.697c-0.028-0.042-0.06-0.078-0.087-0.12
		c-1.335-1.999-2.381-4.321-3.108-6.9c-0.75-2.667-1.13-5.488-1.13-8.386c0-0.38,0.024-0.754,0.037-1.131
		c-2.936,0.425-6.518,0.687-9.544,0.687c-0.128,0-10.097-0.027-14.453-1.842V64.359z M50.898,42.435
		c-0.526,2.188-0.81,4.478-0.81,6.833c0,1.504,0.12,2.981,0.336,4.426c1.526-0.619,4.929-1.179,12.531-1.179
		c7.674,0,11.071,0.571,12.576,1.196c0.218-1.45,0.339-2.933,0.339-4.443c0-2.361-0.284-4.655-0.813-6.847
		c-1.705,0.553-5.146,1.022-12.102,1.022C56.063,43.442,52.619,42.981,50.898,42.435z M62.957,54.514
		c-4.177,0-7.509,0.24-9.611,0.532c2.103,0.291,5.435,0.531,9.611,0.531c4.177,0,7.509-0.24,9.612-0.531
		C70.466,54.754,67.134,54.514,62.957,54.514z M74.817,57.11c0.048-0.17,0.082-0.347,0.126-0.519
		c-1.743,0.537-5.183,0.986-11.987,0.986c-6.739,0-10.177-0.44-11.935-0.971c0.043,0.167,0.076,0.339,0.123,0.505
		c0.67,2.377,1.628,4.508,2.847,6.333c1.194,1.795,2.58,3.2,4.119,4.179c3.104,1.967,6.637,1.968,9.74-0.001
		c1.54-0.978,2.926-2.383,4.119-4.177C73.19,61.617,74.147,59.486,74.817,57.11z M62.957,40.379c-4.177,0-7.509,0.24-9.611,0.531
		c2.103,0.292,5.434,0.531,9.611,0.531c4.178,0,7.509-0.24,9.612-0.531C70.466,40.62,67.134,40.379,62.957,40.379z M35.693,2v10.737
		c0.005,0.049,0.025,0.092,0.024,0.143c-0.011,0.319-0.017,0.632-0.024,0.946v0.309h5.709V2H35.693z M24.128,40.766v4.045
		c1.049,0.906,7.862,2.012,14.453,2.012c3.084,0,6.763-0.279,9.68-0.728c0.171-1.734,0.47-3.431,0.922-5.065
		c-0.002-0.042-0.002-0.083-0.002-0.119c0-0.447,0.006-1.373,3.72-1.972C52.624,34.9,51.45,31.523,49.4,28.907
		c-0.755-0.963-1.583-1.738-2.459-2.558c-0.642-0.601-1.306-1.222-1.953-1.933c-0.294-0.324-0.599-0.696-0.904-1.107
		c-1.575-2.118-2.184-4.528-2.459-7.174h-6.002c-0.118,2.534-0.485,4.943-2.143,7.175c-0.312,0.419-0.607,0.781-0.904,1.107
		c-0.687,0.756-1.437,1.408-2.163,2.04c-0.908,0.79-1.766,1.536-2.483,2.451C25.479,32.037,24.128,36.248,24.128,40.766z
		 M38.548,96.374c6.574,0,13.366-1.102,14.42-2.004V66.592c-3.226,1.209-10.201,1.778-14.386,1.778
		c-0.128,0-10.097-0.027-14.453-1.841v27.841C25.182,95.272,31.974,96.374,38.548,96.374z M71.74,97.344
		c-1.563-0.313-4.264-0.612-8.001-0.649c-0.183,0.234-0.455,0.395-0.775,0.395s-0.592-0.16-0.775-0.394
		c-3.719,0.039-6.409,0.337-7.967,0.649C55.889,97.677,58.84,98,62.98,98C67.121,98,70.072,97.677,71.74,97.344z"/>
</g>
</svg>
