<?xml version="1.0" encoding="utf-8"?>
<!-- Generator: Adobe Illustrator 16.0.0, SVG Export Plug-In . SVG Version: 6.00 Build 0)  -->
<!DOCTYPE svg PUBLIC "-//W3C//DTD SVG 1.1//EN" "http://www.w3.org/Graphics/SVG/1.1/DTD/svg11.dtd">
<svg version="1.1" xmlns="http://www.w3.org/2000/svg" xmlns:xlink="http://www.w3.org/1999/xlink" x="0px" y="0px" width="100px"
	 height="100px" viewBox="0 0 100 100" enable-background="new 0 0 100 100" xml:space="preserve">
<g id="Calque_1">
</g>
<g id="Calque_2">
	<path d="M76.805,72.882h-8.813V58.433c0-1.01-0.967-1.729-2.941-2.191V35.404c0-1.473-2.317-1.888-4.212-1.982V16.725
		c0.042-0.031,0.092-0.05,0.129-0.087l1.867-1.867c0.391-0.391,0.391-1.023,0-1.414l-1.159-1.159l1.159-1.159
		c0.188-0.188,0.293-0.441,0.293-0.707s-0.105-0.52-0.293-0.707l-1.159-1.159l1.159-1.159c0.188-0.188,0.293-0.441,0.293-0.707
		s-0.105-0.52-0.293-0.707l-1.159-1.159l1.159-1.159c0.188-0.188,0.293-0.441,0.293-0.707s-0.105-0.52-0.293-0.707l-1.867-1.866
		C60.781,0.105,60.526,0,60.261,0h-0.844c-0.265,0-0.52,0.105-0.707,0.293l-1.866,1.866c-0.391,0.391-0.391,1.023,0,1.414
		l1.159,1.159l-1.159,1.159c-0.391,0.391-0.391,1.023,0,1.414l1.159,1.159l-1.159,1.159c-0.391,0.391-0.391,1.023,0,1.414
		l1.159,1.159l-1.159,1.159c-0.391,0.391-0.391,1.023,0,1.414l1.866,1.867c0.038,0.037,0.087,0.056,0.129,0.086v16.698
		c-1.893,0.095-4.209,0.51-4.209,1.982v20.835c-1.998,0.463-2.941,1.168-2.941,2.193v14.449h-11.37V69.27c0-0.553-0.448-1-1-1
		c-0.09,0-0.17,0.029-0.253,0.051V42.587c0-0.553-0.448-1-1-1c-0.211,0-0.403,0.069-0.564,0.181V32.92
		c0-4.841-3.179-8.779-7.086-8.779c-0.025,0-0.048,0.013-0.072,0.015c-0.066,0.005-0.128,0.021-0.193,0.038
		c-0.064,0.019-0.125,0.038-0.185,0.068c-0.024,0.013-0.052,0.014-0.076,0.028c-0.034,0.021-0.053,0.055-0.084,0.078
		c-0.031,0.024-0.069,0.037-0.097,0.065l-0.633,0.629c-2.693,2.666-5.745,5.688-5.745,10.079v6.627
		c-0.162-0.112-0.354-0.182-0.565-0.182c-0.552,0-1,0.447-1,1V68.32c-0.083-0.021-0.163-0.051-0.252-0.051c-0.552,0-1,0.447-1,1
		v28.243c0,2.056,5.385,2.487,9.902,2.487c4.518,0,9.904-0.432,9.904-2.487v-8.328h11.37v6c0,2.488,6.238,2.682,8.15,2.682
		c1.913,0,8.153-0.193,8.153-2.682v-6h8.813c2.489,0,2.682-6.24,2.682-8.153C79.487,79.119,79.293,72.882,76.805,72.882z
		 M55.263,58.146c1.044,0.746,3.158,0.887,4.576,0.887s3.532-0.141,4.577-0.886c0.536,0.117,0.926,0.239,1.192,0.345
		c-0.875,0.471-2.931,1.133-5.77,1.133c-2.839,0-4.894-0.662-5.768-1.134C54.337,58.386,54.727,58.264,55.263,58.146z M56.63,37.094
		c1.035,0.256,2.274,0.316,3.209,0.316c0.936,0,2.176-0.061,3.212-0.316v19.542c-0.477,0.175-1.61,0.397-3.212,0.397
		c-1.601,0-2.733-0.223-3.209-0.396V37.094z M59.839,35.396c0.125,0,0.24,0.004,0.359,0.007c-0.119,0.003-0.235,0.007-0.359,0.007
		c-0.125,0-0.241-0.004-0.36-0.007C59.598,35.4,59.714,35.396,59.839,35.396z M23.765,44.261c1.443,0.416,3.664,0.625,6.65,0.625
		c2.987,0,5.208-0.209,6.651-0.625v24.887c-0.757,0.288-3.063,0.695-6.651,0.695c-3.588,0-5.893-0.407-6.65-0.695V44.261z
		 M35.501,32.92v9.617c-1.175,0.189-2.881,0.349-5.086,0.349c-2.205,0-3.91-0.159-5.084-0.349v-6.442
		c3.133-0.227,5.564-1.511,6.741-3.622c0.948-1.701,0.996-3.736,0.18-5.873C34.151,27.584,35.501,30.045,35.501,32.92z M30.163,26.8
		c0.809,1.771,0.88,3.41,0.161,4.699c-0.814,1.461-2.575,2.378-4.909,2.593C25.846,31.203,27.991,28.956,30.163,26.8z
		 M38.319,97.139C37.519,97.486,34.794,98,30.415,98c-4.378,0-7.102-0.514-7.902-0.86V70.694c1.198,0.762,3.836,1.148,7.902,1.148
		c4.067,0,6.707-0.387,7.904-1.149V97.139z M40.319,87.185V74.882h11.37v12.303H40.319z M65.992,94.943
		c-0.566,0.36-2.699,0.923-6.153,0.923c-3.453,0-5.584-0.563-6.15-0.923V60.531c1.714,0.739,4.208,1.094,6.15,1.094
		c1.943,0,4.438-0.354,6.153-1.094V94.943z M76.564,87.185h-8.572V74.882h8.573c0.36,0.564,0.922,2.695,0.922,6.149
		C77.487,84.487,76.925,86.62,76.564,87.185z"/>
</g>
</svg>
