<?xml version="1.0" encoding="utf-8"?>
<!-- Generator: Adobe Illustrator 16.0.0, SVG Export Plug-In . SVG Version: 6.00 Build 0)  -->
<!DOCTYPE svg PUBLIC "-//W3C//DTD SVG 1.1//EN" "http://www.w3.org/Graphics/SVG/1.1/DTD/svg11.dtd">
<svg version="1.1" xmlns="http://www.w3.org/2000/svg" xmlns:xlink="http://www.w3.org/1999/xlink" x="0px" y="0px" width="100px"
	 height="100px" viewBox="0 0 100 100" enable-background="new 0 0 100 100" xml:space="preserve">
<g id="Calque_2">
</g>
<g id="Calque_1">
	<path d="M17.863,28.42c0.09-0.545,0.603-0.916,1.148-0.825c6.004,0.983,16.43,1.481,30.988,1.481
		c14.558,0,24.984-0.498,30.99-1.481c0.545-0.087,1.059,0.28,1.148,0.825c0.089,0.545-0.281,1.059-0.826,1.148
		c-6.111,1-16.646,1.507-31.313,1.507c-14.667,0-25.201-0.507-31.311-1.507C18.144,29.479,17.774,28.965,17.863,28.42z
		 M97.607,77.268V88.68c0,0.552-0.447,1-1,1h-4.576V96.5c0,2.042-3.578,2.767-6.642,2.767c-3.064,0-6.644-0.725-6.644-2.767V89.68
		H21.255V96.5c0,2.042-3.578,2.767-6.642,2.767c-3.065,0-6.645-0.725-6.645-2.767V89.68H3.394c-0.553,0-1-0.448-1-1V77.268
		C0.759,76.324,0,73.08,0,70.023c0-3.641,12.643-47.687,14.084-52.697c0.063-0.218,0.195-0.4,0.369-0.528V1.733c0-0.552,0.447-1,1-1
		H84.98c0.553,0,1,0.448,1,1v15.813C87.688,23.487,100,66.43,100,70.023C100,73.079,99.241,76.323,97.607,77.268z M14.791,22.114
		c0.625-0.224,1.412-0.444,2.39-0.657c-0.197-0.44-0.304-0.895-0.304-1.354c0-0.532,0.125-1.032,0.356-1.502h-1.436
		C15.471,19.741,15.134,20.916,14.791,22.114z M82.767,18.602c0.231,0.47,0.356,0.97,0.356,1.502c0,0.465-0.104,0.917-0.3,1.354
		c0.976,0.212,1.763,0.432,2.387,0.656c-0.343-1.198-0.68-2.373-1.007-3.512H82.767z M67.868,15.588
		c-7.012,0-12.374,2.036-13.149,4.027c13.336,0.111,21.291,0.694,26.019,1.455c0.256-0.331,0.386-0.655,0.386-0.966
		C81.123,17.972,75.454,15.588,67.868,15.588z M52.968,18.602h-5.934c0.156,0.317,0.244,0.654,0.298,1
		c0.873-0.004,1.75-0.008,2.668-0.008s1.796,0.004,2.67,0.008C52.724,19.256,52.812,18.919,52.968,18.602z M32.132,15.588
		c-7.586,0-13.255,2.384-13.255,4.516c0,0.312,0.131,0.635,0.387,0.966c4.728-0.761,12.684-1.344,26.02-1.455
		C44.508,17.624,39.145,15.588,32.132,15.588z M3.32,63.863c0.025-0.002,0.047-0.015,0.073-0.015h93.214
		c0.025,0,0.047,0.013,0.072,0.015c-2.166-8.672-6.625-24.729-10.524-38.434c-0.254-0.172-0.434-0.443-0.447-0.77
		c-0.313-0.535-3.335-2.851-31.719-3.051c-0.02,0.007-0.035,0.022-0.056,0.027c-0.188,0.048-0.372,0.023-0.546-0.032
		c-1.095-0.006-2.217-0.011-3.388-0.011c-32.521,0-35.459,2.571-35.718,3.086c0,0.346-0.185,0.623-0.449,0.793
		C9.937,39.168,5.483,55.2,3.32,63.863z M16.453,2.733v13.869h2.65c2.857-1.973,8.043-3.014,13.028-3.014
		c4.986,0,10.173,1.042,13.031,3.014h9.676c2.857-1.973,8.044-3.014,13.029-3.014s10.171,1.042,13.028,3.014h3.084V2.733H16.453z
		 M19.255,89.68H9.969v6.68c0.376,0.336,2.022,0.908,4.645,0.908c2.621,0,4.267-0.571,4.642-0.908V89.68z M90.031,89.68h-9.285v6.68
		c0.376,0.336,2.021,0.908,4.644,0.908c2.621,0,4.266-0.571,4.642-0.908V89.68z M95.607,77.549H4.394V87.68h4.575h11.286h59.491
		h11.285h4.576V77.549z M98,70.023c0-0.495-0.321-2.043-0.874-4.341c-0.153,0.096-0.324,0.166-0.519,0.166H3.394
		c-0.195,0-0.366-0.07-0.52-0.167C2.321,67.979,2,69.528,2,70.023c0,3.5,1.02,5.389,1.412,5.526h93.195
		C96.975,75.425,98,73.533,98,70.023z"/>
</g>
</svg>
