<svg id="Calque_1" data-name="Calque 1" xmlns="http://www.w3.org/2000/svg" viewBox="0 0 300 300"><defs><style>.cls-1{fill:#1d1d1b;}</style></defs><title>picto_lorraine</title><path class="cls-1" d="M150,6A144,144,0,0,1,251.82,251.82,144,144,0,1,1,48.18,48.18,143,143,0,0,1,150,6m0-6A150,150,0,1,0,300,150,150,150,0,0,0,150,0Z"/><path d="M108.15,229.64a48.17,48.17,0,0,1-9.72-.81c-4.63-1-6.63-2.64-9.64-5.14A80.36,80.36,0,0,0,80,217.23C67.63,209.38,54.8,188,55.82,159.71c1-27.72,17.49-50.3,41.06-56.2,16.69-4.17,33.54,6.23,34.25,6.68a2.5,2.5,0,0,1,.75,3.5,14.47,14.47,0,0,1,8.09-1.41c16,2.43,27.47,8.89,34,19.19,8,12.7,8.48,31.21,1.32,55-10.34,34.34-37.12,40.75-48.16,41.91A187.34,187.34,0,0,1,108.15,229.64Zm-3.06-122.1a28.91,28.91,0,0,0-7,.82c-21.39,5.35-36.37,26.06-37.28,51.53C59.81,188,73.33,207.08,82.67,213a84.82,84.82,0,0,1,9.3,6.82c2.8,2.31,4.07,3.37,7.51,4.1,6.44,1.38,17.87.44,27.12-.53a49.47,49.47,0,0,0,36.39-22A48.84,48.84,0,0,1,151.41,212c-9.9,6.44-26.58,12.11-39.85,9.32a2.5,2.5,0,0,1,.21-4.93c13.17-1.6,31.25-7.1,42.64-24.2,7.23-10.88,10.36-23.94,13.38-36.58a2.5,2.5,0,0,1,2.38-1.92h.05a2.52,2.52,0,0,1,2.41,1.82,48.55,48.55,0,0,1,1.8,12.47c2.13-14.17.57-25.5-4.69-33.82-5.71-9-16-14.71-30.52-16.92h0c-7-1-18.9,9.89-31.82,29.28a2.5,2.5,0,0,1-4.39-2.36c6.87-16.32,12.42-26.35,21.35-31.87C120,110.25,112.79,107.54,105.09,107.54Zm64.28,62.15c-2.45,8.71-5.67,17.53-10.8,25.25a56,56,0,0,1-18.06,17.18,55.9,55.9,0,0,0,8.18-4.33h0C161.2,199.65,169,184.66,169.37,169.69Zm-42.2-53.26a26.62,26.62,0,0,0-5.43,4.44A50.68,50.68,0,0,1,127.17,116.43ZM72.39,181A4.41,4.41,0,0,1,70,180.3a7.29,7.29,0,0,1-3-5c-2.55-16.28-3-35,13.5-50.62a77.19,77.19,0,0,1,15.08-10.47,4.12,4.12,0,0,1,5,.9,3.68,3.68,0,0,1,.37,4.54c-9.25,14-17.74,28.33-20,48.74a14.74,14.74,0,0,1-3.83,8.88l-.19.36a5.55,5.55,0,0,1-3.22,3.12A4.19,4.19,0,0,1,72.39,181ZM77,177.4Zm17.24-56.64A70,70,0,0,0,84,128.35C72.07,139.63,68.59,153,72,174.56a3.46,3.46,0,0,0,.37,1.06l.13-.24a5.93,5.93,0,0,1,1-1.49,9.76,9.76,0,0,0,2.5-6C78.14,148.24,85.67,134.15,94.26,120.76Zm2.49-3.83h0Z"/><path d="M235.77,194.92h-.06a2.51,2.51,0,0,1-2.35-1.82c-4-14.25-15.46-22.56-27.6-31.35l-3.08-2.24c-12.89-9.43-28.93-21.17-31.7-39.39,0-.37-.1-.75-.16-1.12-.25-1.83-.48-3.56-1.33-4.73a10.7,10.7,0,0,0-3.31-2.51l-15-8.72a7.27,7.27,0,0,0-2.8-1.18c-2-.1-3.7,2.78-5.16,5.46-2.8,5.12-6.58,7.37-10.38,6.17a2.5,2.5,0,0,1-1.55-3.35c.31-.75.63-1.48.93-2.21,3-6.94,5.29-12.42,3.71-19.81A25.65,25.65,0,0,0,134.75,85c-1.63-4-3.65-9-.3-11.43,2.07-1.49,6.7-3.29,10.09-2.44a4.76,4.76,0,0,1,3.27,2.52c.89,1.82,1.45,5.38,2.2,10.62.31,2.21.64,4.51.9,5.45,2.31,8.4,12.89,12.32,21.74,12.4a104.58,104.58,0,0,0,11.81-.8c6-.64,12.3-1.31,18.56-.35,20.3,3.09,33.67,22,37.92,39.46h0c4.55,18.68,3.79,33-2.8,52.78A2.5,2.5,0,0,1,235.77,194.92Zm-23.45-42c7.49,6.08,13.5,13.53,19,21.19a22.48,22.48,0,0,0-3.16-6.33,407.27,407.27,0,0,0-31.31-38.33c-.72-.78-1.75-2-3-3.65-2.5-3.09-10.12-12.5-12.57-12.82-.43,0-.46.09-.52.18-1.4,2.29,1.51,11.45,3.56,15.35,3.93,7.48,11.06,12.38,18.61,17.57,3.15,2.16,6.41,4.4,9.41,6.84Zm13.76-1.81.38.53c3.48,4.76,7.25,9.92,9.64,16.8a53.09,53.09,0,0,0-.77-8.56A80.54,80.54,0,0,0,217,121.73c-2.32-2.68-5.48-6-9.44-8-5.05-2.57-13.91-5.17-18.94-4.89a101,101,0,0,0,9,8.6,101.2,101.2,0,0,1,9.85,9.53C214.13,134.76,220.35,143.19,226.08,151.13Zm-37.71-9.73c5.35,5.36,11.63,9.95,17.26,14.07l3.07,2.23c2.37,1.72,4.72,3.42,7,5.16a71.86,71.86,0,0,0-6.54-6h0c-2.84-2.32-6-4.5-9.08-6.6A113.11,113.11,0,0,1,188.37,141.4Zm12-35.72a62.44,62.44,0,0,1,9.46,3.56c4.73,2.41,8.34,6.2,10.95,9.23a86,86,0,0,1,16.65,29.39c-.38-2-.83-4.1-1.35-6.25h0c-3.85-15.79-15.8-33-33.82-35.7C201.63,105.81,201,105.74,200.37,105.68Zm-24.39,14a31.82,31.82,0,0,0,3,9.09A51.73,51.73,0,0,1,176,119.72Zm-8.53-13,1.24.72a14.8,14.8,0,0,1,4.86,3.9,12.2,12.2,0,0,1,1.94,5.06,9.94,9.94,0,0,1,1-5.83,5.4,5.4,0,0,1,4.81-2.57h.05a4.44,4.44,0,0,1,.62,0,2.51,2.51,0,0,1,0-1,2.7,2.7,0,0,1,.12-.43,89.29,89.29,0,0,1-9.44.52A39.36,39.36,0,0,1,167.45,106.72ZM137.62,77.46c-.07,1.14,1.16,4.16,1.77,5.66a26.89,26.89,0,0,1,1.39,3.95c1.44,6.76.16,12.26-1.87,17.63,1.71-3.11,4.53-8,9.63-7.83l.39,0a17.54,17.54,0,0,1-2.84-5.84c-.34-1.25-.66-3.49-1-6.07-.44-3-1.09-7.57-1.68-9C142.46,75.63,139.37,76.34,137.62,77.46Z"/></svg>