<?xml version="1.0" encoding="utf-8"?>
<!-- Generator: Adobe Illustrator 16.0.0, SVG Export Plug-In . SVG Version: 6.00 Build 0)  -->
<!DOCTYPE svg PUBLIC "-//W3C//DTD SVG 1.1//EN" "http://www.w3.org/Graphics/SVG/1.1/DTD/svg11.dtd">
<svg version="1.1" xmlns="http://www.w3.org/2000/svg" xmlns:xlink="http://www.w3.org/1999/xlink" x="0px" y="0px" width="100px"
	 height="100px" viewBox="0 0 100 100" enable-background="new 0 0 100 100" xml:space="preserve">
<g id="Calque_2">
</g>
<g id="Calque_1">
	<path d="M27.92,11.287c2.042,0,8.708-0.2,8.708-2.773c0-2.572-6.665-2.772-8.708-2.772c-2.043,0-8.708,0.2-8.708,2.772
		C19.212,11.087,25.877,11.287,27.92,11.287z M27.92,7.742c3.062,0,5.199,0.414,6.201,0.772c-1.002,0.359-3.139,0.773-6.201,0.773
		c-3.07,0-5.21-0.416-6.209-0.776C22.701,8.15,24.814,7.742,27.92,7.742z M67.223,50.391c0,2.639,6.393,2.773,7.674,2.773
		s7.673-0.134,7.673-2.773c0-2.64-6.392-2.773-7.673-2.773S67.223,47.751,67.223,50.391z M74.896,51.164
		c-2.674,0-4.519-0.423-5.326-0.773c0.808-0.35,2.652-0.773,5.326-0.773s4.518,0.424,5.325,0.773
		C79.415,50.74,77.571,51.164,74.896,51.164z M78.505,42.026V8.514c0-0.404-0.244-0.769-0.617-0.924
		c-0.374-0.154-0.804-0.07-1.09,0.217c-4.51,4.509-9.104,6.717-13.619,6.542c-4.745-0.176-9.447-2.91-13.978-8.119
		C46.569,2.168,37.004,0,27.92,0C17.26,0,5.93,2.984,5.93,8.514V88.25c0,3.264,4.098,5.99,11.243,7.479
		c0.069,0.014,0.138,0.021,0.205,0.021c0.192,0,0.369-0.066,0.525-0.165c2.719,2.723,6.213,4.396,9.993,4.415
		c0.001,0,0.052,0,0.054,0c1.58,0,3.128-0.314,4.6-0.888c0.016,0,0.029,0.007,0.045,0.007c0.085,0,0.171-0.011,0.257-0.034
		l16.816-4.464c4.741-1.306,8.304-3.379,10.693-6.188c3.58,1.816,8.893,2.892,14.536,2.892c10.751,0,19.174-3.74,19.174-8.514
		v-32.42C94.07,46.166,87.472,42.757,78.505,42.026z M92.07,50.391c0,3.081-7.053,6.514-17.174,6.514
		c-10.122,0-17.175-3.433-17.175-6.514s7.053-6.514,17.175-6.514C85.017,43.876,92.07,47.31,92.07,50.391z M63.105,16.348
		c4.518,0.171,9.017-1.69,13.4-5.527v31.09c-0.531-0.019-1.064-0.035-1.608-0.035c-9.594,0-17.314,2.98-18.871,7.014
		c-0.187,0.182-0.304,0.434-0.304,0.714v11.759c-1.946-1.399-3.952-2.13-5.811-2.132V9.888C54.154,14.004,58.58,16.18,63.105,16.348
		z M27.92,2C38.227,2,45.8,4.627,47.534,7.348c0.001,0.002,0.002,0.004,0.003,0.005c0.246,0.387,0.374,0.777,0.374,1.161
		c0,3.081-8.21,6.514-19.991,6.514S7.93,11.595,7.93,8.514S16.14,2,27.92,2z M7.93,88.25V12.228c3.717,3.139,12.039,4.8,19.991,4.8
		c3.499,0,7.068-0.324,10.287-0.951c-0.014,0.066-0.04,0.127-0.04,0.198v1c0,0.552,0.448,1,1,1s1-0.448,1-1v-1
		c0-0.22-0.085-0.414-0.207-0.579c3.341-0.805,6.173-1.967,7.95-3.468v47.117c0,0.055,0.023,0.103,0.031,0.155l-7.775,1.82v-0.045
		c0-0.552-0.448-1-1-1s-1,0.448-1,1v0.514l-13.713,3.211c-0.195,0.039-0.387,0.088-0.58,0.136l-0.436,0.102
		c-0.029,0.007-0.051,0.027-0.079,0.036c-2.23,0.652-4.313,1.905-6.061,3.705c-3.272,3.369-5.063,8.24-4.913,13.362
		c0.118,4.188,1.487,8.04,3.666,11.074C11.137,92.161,7.93,90.158,7.93,88.25z M27.905,98c-7.089-0.035-13.281-7.232-13.52-15.718
		c-0.134-4.586,1.451-8.928,4.348-11.911c1.636-1.685,3.603-2.813,5.713-3.316l0.362-0.084c0.699-0.142,1.412-0.219,2.134-0.219
		c7.09,0.035,13.282,7.233,13.52,15.72c0.135,4.583-1.449,8.922-4.346,11.905C33.847,96.713,30.947,98,27.95,98H27.905z
		 M49.146,92.691l-11.594,3.078c3.271-3.368,5.06-8.236,4.91-13.355c-0.022-0.793-0.104-1.568-0.213-2.334l0.203-0.049
		c0.537-0.129,0.868-0.668,0.739-1.206s-0.668-0.869-1.206-0.739l-0.115,0.028c-1.472-6.043-5.571-10.863-10.725-12.627
		l17.558-4.111c1.78-0.465,3.937,0.158,6.066,1.756c3.129,2.348,5.589,6.265,6.642,10.29l-0.951,0.229
		c-0.537,0.129-0.868,0.669-0.738,1.206c0.11,0.458,0.52,0.766,0.971,0.766c0.078,0,0.156-0.009,0.235-0.028l0.88-0.212
		c0.083,0.587,0.14,1.171,0.156,1.748c0.105,3.564-0.667,6.547-2.329,8.978c-0.233,0.068-0.445,0.214-0.581,0.439
		c-0.095,0.158-0.125,0.33-0.126,0.502C56.798,89.609,53.549,91.478,49.146,92.691z M84.407,88.17
		c-0.058-0.497-0.465-0.888-0.978-0.888c-0.552,0-1,0.448-1,1v0.341c-2.23,0.438-4.76,0.702-7.533,0.702
		c-5.189,0-10.043-0.932-13.337-2.519c1.703-2.688,2.514-5.933,2.401-9.733c-0.141-5.065-2.586-10.442-6.255-14.039
		c0.002-0.027,0.016-0.051,0.016-0.079v-8.738c3.107,2.799,9.545,4.687,17.175,4.687c2.691,0,5.237-0.234,7.541-0.661
		c0,0.013-0.008,0.025-0.008,0.039v1c0,0.552,0.448,1,1,1s1-0.448,1-1v-1c0-0.163-0.048-0.31-0.117-0.446
		c3.357-0.824,6.055-2.084,7.758-3.619v28.594C92.07,84.787,89.158,86.903,84.407,88.17z M38.167,42.274v-1c0-0.552,0.448-1,1-1
		s1,0.448,1,1v1c0,0.552-0.448,1-1,1S38.167,42.827,38.167,42.274z M38.167,32.274v-1c0-0.552,0.448-1,1-1s1,0.448,1,1v1
		c0,0.552-0.448,1-1,1S38.167,32.827,38.167,32.274z M38.167,37.274v-1c0-0.552,0.448-1,1-1s1,0.448,1,1v1c0,0.552-0.448,1-1,1
		S38.167,37.827,38.167,37.274z M38.167,27.274v-1c0-0.552,0.448-1,1-1s1,0.448,1,1v1c0,0.552-0.448,1-1,1
		S38.167,27.827,38.167,27.274z M38.167,57.274v-1c0-0.552,0.448-1,1-1s1,0.448,1,1v1c0,0.552-0.448,1-1,1
		S38.167,57.827,38.167,57.274z M38.167,22.274v-1c0-0.552,0.448-1,1-1s1,0.448,1,1v1c0,0.552-0.448,1-1,1
		S38.167,22.827,38.167,22.274z M38.167,47.274v-1c0-0.552,0.448-1,1-1s1,0.448,1,1v1c0,0.552-0.448,1-1,1
		S38.167,47.827,38.167,47.274z M38.167,52.274v-1c0-0.552,0.448-1,1-1s1,0.448,1,1v1c0,0.552-0.448,1-1,1
		S38.167,52.827,38.167,52.274z M84.429,68.282v1c0,0.552-0.448,1-1,1s-1-0.448-1-1v-1c0-0.552,0.448-1,1-1
		S84.429,67.73,84.429,68.282z M84.429,63.282v1c0,0.552-0.448,1-1,1s-1-0.448-1-1v-1c0-0.552,0.448-1,1-1
		S84.429,62.73,84.429,63.282z M84.429,83.282v1c0,0.552-0.448,1-1,1s-1-0.448-1-1v-1c0-0.552,0.448-1,1-1
		S84.429,82.73,84.429,83.282z M84.429,78.282v1c0,0.552-0.448,1-1,1s-1-0.448-1-1v-1c0-0.552,0.448-1,1-1
		S84.429,77.73,84.429,78.282z M84.429,73.282v1c0,0.552-0.448,1-1,1s-1-0.448-1-1v-1c0-0.552,0.448-1,1-1
		S84.429,72.73,84.429,73.282z M27.248,75.94c-1.34,0-2.626,0.563-3.62,1.586c-1.196,1.232-1.851,3.003-1.797,4.857
		c0.099,3.533,2.677,6.417,5.745,6.429c0.001,0,0.022,0,0.024,0c1.339,0,2.624-0.563,3.617-1.585
		c1.196-1.231,1.851-3.001,1.797-4.857C32.915,78.839,30.338,75.954,27.248,75.94z M29.783,85.834
		c-0.613,0.631-1.388,0.979-2.182,0.979h-0.016c-1.967-0.008-3.687-2.062-3.755-4.486c-0.039-1.319,0.411-2.561,1.233-3.407
		c0.614-0.632,1.39-0.98,2.2-0.98c1.965,0.009,3.684,2.064,3.753,4.488C31.054,83.747,30.604,84.989,29.783,85.834z M52.913,76.49
		c0.129,0.537-0.202,1.077-0.739,1.206l-0.972,0.233c-0.079,0.019-0.157,0.028-0.234,0.028c-0.452,0-0.861-0.308-0.971-0.767
		c-0.129-0.537,0.202-1.077,0.739-1.206l0.972-0.233C52.244,75.623,52.784,75.953,52.913,76.49z M57.774,75.323
		c0.129,0.537-0.202,1.077-0.739,1.206l-0.972,0.233c-0.079,0.019-0.157,0.028-0.234,0.028c-0.452,0-0.861-0.308-0.971-0.767
		c-0.129-0.537,0.202-1.077,0.739-1.206l0.972-0.233C57.104,74.455,57.646,74.786,57.774,75.323z M48.051,77.658
		c0.129,0.537-0.202,1.077-0.739,1.206l-0.972,0.233c-0.079,0.019-0.157,0.028-0.234,0.028c-0.452,0-0.861-0.308-0.971-0.767
		c-0.129-0.537,0.202-1.077,0.739-1.206l0.972-0.233C47.381,76.792,47.922,77.121,48.051,77.658z"/>
</g>
</svg>
