<svg id="Calque_1" data-name="Calque 1" xmlns="http://www.w3.org/2000/svg" viewBox="0 0 300 300"><defs><style>.cls-1{fill:#1d1d1b;}</style></defs><title>picto_franche_comte</title><path class="cls-1" d="M150,6A144,144,0,0,1,251.82,251.82,144,144,0,1,1,48.18,48.18,143,143,0,0,1,150,6m0-6A150,150,0,1,0,300,150,150,150,0,0,0,150,0Z"/><path d="M231.19,73.41v73.46c0,49.6-41.75,87.82-80.93,104.27-39.19-16.45-80.94-54.67-80.94-104.27V73.41H231.19m0-5H69.32a5,5,0,0,0-5,5v73.46c0,23.87,9.33,47.32,27,67.83a156.49,156.49,0,0,0,57,41.05,5,5,0,0,0,3.87,0,156.41,156.41,0,0,0,57-41.05c17.65-20.51,27-44,27-67.83V73.41a5,5,0,0,0-5-5Z"/><path d="M116,176.09a1,1,0,0,1-.48-.12l-.13-.07a1.1,1.1,0,0,1-.56-1.29A1,1,0,0,1,116,174a1.5,1.5,0,0,1,.61.34,1,1,0,0,1,.16,1.32A1,1,0,0,1,116,176.09Zm-.31-.65-.35.4a.6.6,0,0,0,.22.1Z"/><path d="M172.26,216.07c-1.55,0-2.47-1.11-3.16-2.22a3.94,3.94,0,0,1-.34-3.67,2,2,0,0,1-1.74.35l-.2-.08a3.05,3.05,0,0,0-.7,2.78,1,1,0,0,1-.32,1,1,1,0,0,1-1,.2c-1.6-.54-2-2-2.29-3.32a4.18,4.18,0,0,1,2.43-4.53,2.11,2.11,0,0,1-1.27-.52,3.45,3.45,0,0,0-1.4,2,1,1,0,0,1-.71.71,1,1,0,0,1-1-.26c-1.19-1.19-1-2.68-.58-4a4,4,0,0,1,3.44-2.93,1.48,1.48,0,0,1,.3-.26,2.87,2.87,0,0,1,2.51-.13c.75.28,1.7.48,3.59-.86,1.33-.93,1.37-1.38,1.62-3.92.08-.75.17-1.65.31-2.74.63-4.75-6.39-7.53-7.2-7.83a9.4,9.4,0,0,1-1.2-.56,1.55,1.55,0,0,1,0,.21c.47,3.17.37,6.11-5.91,7.19-3.52.6-5.8,2.44-6.42,3.9a1,1,0,0,0-.12.78,1,1,0,0,1-.24,1.37,1,1,0,0,1-1.37-.19,3.42,3.42,0,0,1-.77-2.87c.5-2.63,4.1-4.7,7-6.37a16.43,16.43,0,0,0,2.7-1.75,2.24,2.24,0,0,0,.09-2.15,4.13,4.13,0,0,1-.54.58,2.66,2.66,0,0,1-3.15.21,2.08,2.08,0,0,1-1.23-2,1.28,1.28,0,0,1,1.15-1c.16-.11.4-1,.06-2.42l-.11-.44c-.37-1.53-.66-2.73.17-4,.7-1.06.55-1.29.48-1.4l-.1-.15a4.36,4.36,0,0,1-.38-.59c-3.86-.64-6.52-.19-7.88,1.34-2.95,3.29-4.37,7.09-3.85,7.95a8,8,0,0,0,.91,1.17c.86,1,1.92,2.15,1.47,4.17-.1.47-.22.9-.32,1.28s-.19.72-.25,1a1,1,0,0,1,.83.95,2.91,2.91,0,0,1-1.1,2.74,3.79,3.79,0,0,1-3.51.06c.24,1.4.93,1.7,1,1.71a1,1,0,0,1,.64.85,1,1,0,0,1-.44.94c-1.34.83-3.19,1.1-4.12-.29a3.68,3.68,0,0,1-.38-.77,4.05,4.05,0,0,1-.58.59,9.22,9.22,0,0,1-1.1.74l-.26.16c.36.44.88,1.19.33,1.89s-1.72.29-3-.33a3.29,3.29,0,0,1-.46-.28,4,4,0,0,1-.34,2.46c-.57,1.23-1.38,2.5-3,2.61a1,1,0,0,1-.9-.44,1,1,0,0,1-.07-1,3.8,3.8,0,0,0,.34-2.18,1.62,1.62,0,0,1-.41.06,1.81,1.81,0,0,1-1.38-.66,1.93,1.93,0,0,1-.44-1.79l-.06,0c-1.45-.55-2.73-.93-3.59,0-3.23,3.59-4.23,3.45-4.61,3.4a1.19,1.19,0,0,1-.92-.61,3.09,3.09,0,0,0-1.28,2.57,1,1,0,0,1-.52.85,1,1,0,0,1-1,0c-1.44-.86-1.57-2.36-1.51-3.72a4,4,0,0,1,2.56-3.64,1.36,1.36,0,0,1,.33-.53,1.75,1.75,0,0,1,.48-.32,3.38,3.38,0,0,1-1.38-.12,1.31,1.31,0,0,1-.9-.81A1.42,1.42,0,0,1,114,196a3.25,3.25,0,0,0-2.32,1.35,1,1,0,0,1-.92.39,1,1,0,0,1-.8-.6c-.66-1.54.11-2.84,1-3.91a4,4,0,0,1,4.43-1.4,1.5,1.5,0,0,1,.91-.08,2.1,2.1,0,0,1-.8-1,1.27,1.27,0,0,1,0-.61,3.1,3.1,0,0,0-2.82.26,1,1,0,0,1-1.5-.86c0-1.68,1.21-2.58,2.4-3.23a4,4,0,0,1,4.64.46,1.62,1.62,0,0,1,.76,0,2.8,2.8,0,0,1,1.31.89,4.73,4.73,0,0,0,2.62,1.53c2.18.42,6,.21,7-2.16a13.65,13.65,0,0,0,1-4.44c-1.27.72-3,1.32-4.41.31-.55-.4-1.16-.84-1-1.6a1.36,1.36,0,0,1,1.13-1,2.59,2.59,0,0,0,1.6-1.05,10.46,10.46,0,0,1-6.43,1.56,6.52,6.52,0,0,1-5.54-3.56,5.24,5.24,0,0,1,.24-5.27c1.4-2.06,1.06-3.13.84-3.35a1,1,0,0,1-.15-1.32,1,1,0,0,1,1.28-.31,3.77,3.77,0,0,1,2,2.31,5.66,5.66,0,0,1-.38,2.54c-.34,1.22-.91,3.28-.28,3.8a4,4,0,0,0,3.24.41,9.28,9.28,0,0,0,4.75-2.4,12.81,12.81,0,0,0,.46-1.24c.66-2,1.41-4.27,6.59-6.61,2.12-1,3.74-1.54,4.92-2,2.25-.8,2.92-1.08,3.6-2.23a12.28,12.28,0,0,0,.67-1.58,16,16,0,0,1,1.38-3,21.14,21.14,0,0,1-3.32-2.63c-.28.36-.57.7-.85,1-2.07,2.24-2.45,2.5-3.71,2.95-.35.13-.79.29-1.45.6a1.87,1.87,0,0,0-1.2,1.26,1.6,1.6,0,0,0,.27,1.17,1,1,0,0,1,.18,1.13,1,1,0,0,1-1,.57c-2.05-.19-2.77-1.65-3-3.12a4.7,4.7,0,0,1-1,.79c-1.21.74-2.33,1.12-5.14,1.12a1,1,0,0,1-1-1,1,1,0,0,1,.15-.57l-.61,0,.14.39a1,1,0,0,1-.09.84,2.1,2.1,0,0,1-.56.6,3.65,3.65,0,0,1,0,.59,3.77,3.77,0,0,1-2.1,3.5,4.68,4.68,0,0,1-2.25.68,2.56,2.56,0,0,1-1-.18,1,1,0,0,1-.15-1.79,3.34,3.34,0,0,0,1.55-1.85,1.73,1.73,0,0,1-1-.71,2.51,2.51,0,0,1-.23-2.08,17.35,17.35,0,0,0-2.66-.13c-1.07,0-1.18.25-1.48.92a3,3,0,0,1-1.72,1.85,3.5,3.5,0,0,1-2.88.1,2.3,2.3,0,0,1-.47-.35,3.13,3.13,0,0,0-1.79,2.16,1,1,0,0,1-.7.71,1,1,0,0,1-1-.26c-1.19-1.19-1-2.68-.57-4a4,4,0,0,1,2.74-2.78l0-.09.09-.15a2.22,2.22,0,0,1-1.18-.27,1.53,1.53,0,0,1-.79-1,1.66,1.66,0,0,1,.08-1,3.44,3.44,0,0,0-2.23.81,1,1,0,0,1-1,.16,1,1,0,0,1-.64-.77c-.27-1.66.78-2.73,1.85-3.57a3.92,3.92,0,0,1,4-.62,2.34,2.34,0,0,1,2.1.25,1.85,1.85,0,0,1-.21-.45,2.36,2.36,0,0,1,0-1.47,3.56,3.56,0,0,0-2.43,0,1,1,0,0,1-1.3-1.14c.33-1.65,1.7-2.29,3-2.69a4,4,0,0,1,4,.89c1.63-.6,2.93,1.79,3.17,2.27s.19.38,1.38.77l.3.1a6.9,6.9,0,0,0,5.72-.95,11.88,11.88,0,0,0,2.91-2.22,3.81,3.81,0,0,1-2.6-2.28,1,1,0,0,1,1.35-1.15c1.06.43,1.68.68,2.27.51a15.52,15.52,0,0,1-3.25-2.37c-1.4-1.47-2.1-2.09-2.66-2.59a21.36,21.36,0,0,1-2.07-2.09,1.87,1.87,0,0,0-1.55-.79,1.57,1.57,0,0,0-1,.58,1,1,0,0,1-1,.5,1,1,0,0,1-.82-.78c-.38-1.95,1-3.22,2.61-4.07a5.9,5.9,0,0,1-.88-.32c-1.46-.65-2.34-2-3.14-4.71a1,1,0,0,1,.64-1.23,1.08,1.08,0,0,1,.59,0c-.05-.2-.11-.4-.15-.59l-.34.24a1,1,0,0,1-.82.16,2.6,2.6,0,0,1-.74-.37,4,4,0,0,1-1.78.38,3.65,3.65,0,0,1-2.72-1.21,4.13,4.13,0,0,1-1.4-2.71c0-.06,0-.14,0-.22a1,1,0,0,1,1.67-.66,3.41,3.41,0,0,0,2.16,1h.06a1.77,1.77,0,0,1,.41-1.13,2.47,2.47,0,0,1,1.93-.81,17.12,17.12,0,0,0-.63-2.59c-.3-1-.57-1.06-1.3-1.16a3,3,0,0,1-2.25-1.13,3.45,3.45,0,0,1-.91-2.73,1.74,1.74,0,0,1,.21-.55,3.13,3.13,0,0,0-2.59-1.1,1,1,0,0,1-.87-.49,1,1,0,0,1,0-1c.8-1.48,2.3-1.68,3.65-1.68a4,4,0,0,1,3.43,1.86h.1l.17,0a2.34,2.34,0,0,1-.07-1.21,1.54,1.54,0,0,1,.71-1,1.73,1.73,0,0,1,1-.21,3.42,3.42,0,0,0-1.41-1.91,1,1,0,0,1,.13-1.72c1.51-.73,2.85,0,4,.76a4,4,0,0,1,1.71,3.61,2.36,2.36,0,0,1,.35,2.09,2.11,2.11,0,0,1,1.8-.7,3.59,3.59,0,0,0-.64-2.34,1,1,0,0,1-.09-1,1,1,0,0,1,.82-.57c1.67-.16,2.67,1,3.42,2.1a4,4,0,0,1,.28,4.1c1,1.4-.89,3.31-1.29,3.68s-.31.29-.35,1.55v.31c0,.45.43.82,1.6,1.68a25.34,25.34,0,0,1,2.22,1.78,9.35,9.35,0,0,1,1.92,2.54,5.35,5.35,0,0,0,3.25,2.85,15.75,15.75,0,0,1,4.89,3.17c.21-.13.42-.27.61-.41a15.72,15.72,0,0,1,1.75-1.08,4.85,4.85,0,0,1,1.39-.47,4.15,4.15,0,0,1-1-2.87,10,10,0,0,1-7-.31c-1.87-.89-3-2-3.39-3.16a2.52,2.52,0,0,1,.13-2,1,1,0,0,1,1.87.49h0s.21,1.37,3.31,2,6.51-1.49,9.37-3.49a8.71,8.71,0,0,1,2.76-1.38c-1.23-.34-3.35.46-4.67,1.41-2,1.45-3.85,1.51-6,1.44a2.48,2.48,0,0,1-1.78-.82,5.61,5.61,0,0,1-1.17-3.22,1.59,1.59,0,0,1-.83-.32,1.19,1.19,0,0,1-.46-1c-.27-.81.1-1.08,1.87-2.34a8.67,8.67,0,0,1,4.38-1.65c.51-.75,1.76-2.06,4.72-3.47.28-.14.56-.27.86-.39a10.18,10.18,0,0,0-1-1.64l-3-3.94a1,1,0,0,1-.11-1,1,1,0,0,1,.88-.57c.47,0,2.89,0,3.69,1.42l.1.19a2.2,2.2,0,0,1,2,0l.43.3a1.14,1.14,0,0,1,.27.31,1.09,1.09,0,0,1,.47-.23,1,1,0,0,1,.84.22,1,1,0,0,1,.35-.92,5.41,5.41,0,0,1,1.72-1,3.92,3.92,0,0,1,1.34-2.55,1.41,1.41,0,0,1,1.66,0,3.85,3.85,0,0,1,1.34,2.55,5.49,5.49,0,0,1,1.72,1,1,1,0,0,1,.35.92,1,1,0,0,1,.85-.22,1.11,1.11,0,0,1,.46.23,1.14,1.14,0,0,1,.27-.31l.43-.3a2.2,2.2,0,0,1,2,0l.1-.19c.8-1.42,3.21-1.43,3.69-1.42a1,1,0,0,1,.87.57,1,1,0,0,1-.1,1l-3,3.94a11.56,11.56,0,0,0-1.47,2.85l0,.08c2.34,1.06,4.14,1.38,4.63,1.17a1,1,0,0,1,1.05,1.67,5,5,0,0,1-2.78,1.27,4.35,4.35,0,0,1,1.1,1.42c.74,1.61,2.71,2,3.52,2a1,1,0,0,1,.56,1.75l-.12.1a3.55,3.55,0,0,1-2.85,1.08,5.21,5.21,0,0,1,.5,1.16c.88,2.87,1.79,3.44,3,3.48a1,1,0,0,1,.89.59,1,1,0,0,1-.15,1,6.29,6.29,0,0,1-2.51,1.93,5.22,5.22,0,0,1,.1,3.28c-.38,1.36.25,4,1.35,5.55.48.68.82.86.91.86a1,1,0,0,1,.64,1.69c-1.79,1.89-4,2.55-5.86,1.79a3,3,0,0,1-.52,1.42,4.45,4.45,0,0,0-.26,3.63,3.58,3.58,0,0,0,2.45,2.33,1,1,0,0,1,.17,1.83,6.32,6.32,0,0,1-2.3.56,31.34,31.34,0,0,0,2.67,4.12c.61.86,1.27,1.79,2,2.81a20.09,20.09,0,0,1,3,5.86c.18.53.35,1.08.67,1.81,1,2.24,4.28,2.49,6.86,2.31a.72.72,0,0,0,.66-.4c.75-1.43-.29-6.13-3.72-12-4.13-7.09-3.87-11.68-2-17.23,1.14-3.42,5.27-7.23,8.91-10.58,2.29-2.11,4.46-4.11,5.23-5.45,1-1.7,2.87-5.89-.92-8.09-2.39-1.38-4.86-1.08-6,.73a2.14,2.14,0,0,0-.32,1.9,2.31,2.31,0,0,0,1.68,1.28c1.6.46,2.48-2.44,2.49-2.47a1,1,0,0,1,1.89-.09,6,6,0,0,1-1,5.86,3.9,3.9,0,0,1-4.11,1.36c0,.44.06,1,.06,1.48,0,2.22-1,4-3.42,6.09-2.71,2.35-7.72,2-7.93,1.94a1,1,0,0,1,0-2h0s1.29-.25,3.43-2.45c1.79-1.85,1.15-4.26-.14-8.34l-.34-1.1a7.27,7.27,0,0,1,.69-6.24,3,3,0,0,1-1.15-.61,3.61,3.61,0,0,1-1.12-3.21c.11-1.72,1.88-2.67,3.45-3.5a11,11,0,0,0,1.46-.87c.39-.29.45-.42.45-.43a10.83,10.83,0,0,0-1.21-1.39,1,1,0,0,1-.07-1.31,1,1,0,0,1,1.28-.26c1.81,1,2.9,2.41,3,3.88a3.75,3.75,0,0,1-1.27,3l0,0c2.74-1.58,6.48-1.5,11.12.25,5.92,2.24,6.81,9.89,5.55,14.61-1,3.55-4.64,7.91-8.24,11.51a21.29,21.29,0,0,1,4-2c4.51-1.68,4.12-3.25,3.64-5.25l-.15-.64a1,1,0,0,1,.39-1,1,1,0,0,1,1.08-.07,4.67,4.67,0,0,1,1.75,2.8,10.71,10.71,0,0,1-.64,7.7,6.69,6.69,0,0,1-2.62,2.25l-.18.11a1,1,0,0,1,.34.21,8.15,8.15,0,0,1,2.19,5.64c.08,3-2.61,4.66-5.72,6.59-.7.43-1.43.89-2.17,1.38a7.18,7.18,0,0,0-2.58,3.29c.18-.2.38-.4.58-.61a4.52,4.52,0,0,1,5.35-.92,4.92,4.92,0,0,1,2.67,5.24c-.33,2.19-1.85,4.25-3.2,6.06a14.47,14.47,0,0,0-1.79,2.79,1.77,1.77,0,0,0-.06,1.52,2.66,2.66,0,0,0,1.94.68,1,1,0,0,1,.64,1.78,4,4,0,0,1-5.57-.75,3.33,3.33,0,0,1-.79-2.84,6.7,6.7,0,0,1-2.71,3,3.05,3.05,0,0,1,.5.93,5.12,5.12,0,0,1-.75,4,1.08,1.08,0,0,1-1.13.19,1.07,1.07,0,0,1-.63-1,3.85,3.85,0,0,0-1.77-1.19,1.13,1.13,0,0,0-.45,0,16.39,16.39,0,0,1-3,.44,8.2,8.2,0,0,1-3.25-.33c0,.8.06,1.77.13,2.65.11,1.44,2.82,4.3,4,5a2.7,2.7,0,0,0,2.6,0,3,3,0,0,1,2.9-1,3.34,3.34,0,0,1,1.91,2.39,1,1,0,0,1-.89,1.22,4.86,4.86,0,0,0-1.41.33h.07l.16,0c.8.16,1.18,1.1,1.34,1.65a3.27,3.27,0,0,1-.77,3.37,1.29,1.29,0,0,0-.29.33,10.87,10.87,0,0,0,.69,1.12c.26.39.56.86.91,1.43,0,0,.49.6,2.62.25a1,1,0,0,1,.86.29,1,1,0,0,1,.28.87c-.24,1.48-.88,2.39-1.89,2.7a2.77,2.77,0,0,1-1.73-.06,3.68,3.68,0,0,1-1,1.87l.39.27c.54.37,1.28.88,1,1.73s-1.35.93-2.06.95a4.07,4.07,0,0,1-2.47-.62c-.1.18-.22.38-.35.59a1.86,1.86,0,0,1,1.7,1.08,1.43,1.43,0,0,1,0,1,4,4,0,0,1,1.52,4.13c-.28,1.33-.79,2.75-2.4,3.23a1,1,0,0,1-1.26-1.19,3.36,3.36,0,0,0-.33-2.51,1.31,1.31,0,0,1-.89.31,2.27,2.27,0,0,1-1.09-.33,7.27,7.27,0,0,1-2.65,1.61l-.48.22c0,.15.09.36.14.52a4.67,4.67,0,0,1,.3,1.81,2.08,2.08,0,0,1-.86,1.7,2.18,2.18,0,0,1-1.41.38,3.35,3.35,0,0,0,.5,2.6,1,1,0,0,1-.78,1.55Zm-1.51-6.7a1.09,1.09,0,0,1,.19.39,1,1,0,0,1-.12.76,2,2,0,0,0-.19,1.94,3.91,3.91,0,0,1,.76-2.22,1,1,0,0,1,1.08-.38,1.1,1.1,0,0,0,.53,0,1.61,1.61,0,0,1,0-.19,3.31,3.31,0,0,0-.22-1.1,6.45,6.45,0,0,1-.19-.76l-.05,0A7.52,7.52,0,0,0,170.75,209.37Zm-3.64-2.29a1.17,1.17,0,0,1,0,.32,1,1,0,0,1-.66.68c-.35.11-2,.71-1.94,2.27a3.9,3.9,0,0,1,1.76-1.91l.18-.11a1.06,1.06,0,0,1,.87-.07,1.11,1.11,0,0,1,.39.24h0A.88.88,0,0,0,168,208a2.94,2.94,0,0,1,.85-1.33,7.31,7.31,0,0,1-1.21.3,3.48,3.48,0,0,0-.48.1Zm5.45-3.15a1,1,0,0,1,.24,0,1,1,0,0,1,.69.59,3.48,3.48,0,0,1,.23,1.15l.51-.23a9.24,9.24,0,0,0,1.88-1l.07-.61a1,1,0,0,1,.68-.84,1,1,0,0,1,1,.27,4.15,4.15,0,0,0,.49.45,1,1,0,0,1,.56-.55,1,1,0,0,1,.88.09l.24.14a3.94,3.94,0,0,1,1.69,2,2.3,2.3,0,0,0-1.45-2.17,1,1,0,0,1-.53-.72,1,1,0,0,1,.09-.62h-1.25a1,1,0,0,1-.83-1.55s1-1.43,1.33-2.12a7.74,7.74,0,0,0,.53-1.87,1,1,0,0,1,2,.32,1.25,1.25,0,0,0,.18.89,1.38,1.38,0,0,1-.1-.4,1.44,1.44,0,0,1,.39-1.15c1-1,.88-1.19.67-1.6a6.93,6.93,0,0,0-.81-1.23,1,1,0,0,1,0-1.41,1,1,0,0,1,.67-.29l-.47-.73c-.93-1.42-1.67-2.54-.1-4,.48-.44.28-1.29.11-1.65A2.44,2.44,0,0,1,180.3,184a1.6,1.6,0,0,1,.13-1.51,1.88,1.88,0,0,1,.16-.23,4.94,4.94,0,0,1-4.1-.35c-1.13-.68-4.8-4-5-6.59-.16-2-.16-4.43-.16-4.53a1,1,0,0,1,1.75-.66s.92.91,3.37.71a14,14,0,0,0,2.69-.38,2.92,2.92,0,0,1,1.13-.1,5.22,5.22,0,0,1,2.23,1.05,1.08,1.08,0,0,0-.05-.46,1.09,1.09,0,0,0-.73-.72,1,1,0,0,1-.14-1.91s3.25-1.35,3.25-3.43c0-2.94,1-6.83,3.16-8.41.82-.59,2.52-1.09,3.58-.27.58.45,1.12,1.4.36,3.31a16.11,16.11,0,0,1-.94,1.92,11.87,11.87,0,0,0,2.42-4.62,3,3,0,0,0-1.58-3.15,2.53,2.53,0,0,0-3,.52,19.55,19.55,0,0,0-3,3.64,1,1,0,0,1-1.89-.46c0-.24,0-6.06,4.32-8.91.76-.51,1.51-1,2.22-1.42,3-1.86,4.82-3.08,4.78-4.84a8.17,8.17,0,0,0-.21-1.6,7.62,7.62,0,0,1-2,1.7,19,19,0,0,1-3.68,1.75,8.53,8.53,0,0,0-3.94,2.51c-.45.5-.81.93-1.11,1.31a1,1,0,0,1-1.64-1.13c1.78-2.95,2.95-4.77,3.48-5.43a26.87,26.87,0,0,1,7.68-6.82,5.52,5.52,0,0,0,1.93-1.53h0a7.45,7.45,0,0,0,.81-3.55,9.19,9.19,0,0,1-4.44,2.87,20.68,20.68,0,0,0-9.45,7.37,45,45,0,0,0-2.85,5,1,1,0,0,1-1.9-.52c0-.26.64-6.32,3.41-8.74,3.29-2.86,11.07-10,12.38-14.94,1.07-4,.44-10.43-4.31-12.23-4.06-1.53-7.22-1.66-9.42-.39a5.71,5.71,0,0,0-1.52,1.13.93.93,0,0,1-1.12.42,2.45,2.45,0,0,1-.42-.16.82.82,0,0,1,.23.32,1,1,0,0,1-.3,1.22,5.26,5.26,0,0,0-1.5,5.77l.34,1.09c1.27,4,2.37,7.53-.34,10.33-.27.28-.54.54-.79.77a5.94,5.94,0,0,0,2.57-1.17c2.26-2,2.73-3.25,2.73-4.58a19.06,19.06,0,0,0-.23-2.9,1,1,0,0,1,.45-1,1,1,0,0,1,1.11,0c.19.13,2,1.26,3.18-.22a4.21,4.21,0,0,0,.44-.66,3.11,3.11,0,0,1-2.85.56,4.27,4.27,0,0,1-3-2.49,4.1,4.1,0,0,1,.49-3.7c1.76-2.76,5.33-3.33,8.7-1.38,3.66,2.12,4.29,6.27,1.66,10.82-.93,1.61-3.1,3.61-5.61,5.92-3.47,3.19-7.4,6.81-8.37,9.74-1.71,5.12-1.92,9.13,1.85,15.59,2.69,4.62,5.29,11,3.76,13.94a2.73,2.73,0,0,1-2.29,1.47c-5.83.43-8-1.68-8.83-3.51a20.83,20.83,0,0,1-.74-2,18.3,18.3,0,0,0-2.81-5.38c-.67-1-1.31-1.91-1.92-2.75A23.32,23.32,0,0,1,161.4,149a1,1,0,0,1,.15-.93,1,1,0,0,1,.86-.39,4.52,4.52,0,0,0,.51,0,5.84,5.84,0,0,1-1.29-2.1,6.46,6.46,0,0,1,.5-5.41c.3-.45.23-1.07-.23-1.84a1,1,0,0,1-.13-.66l0-.14a1,1,0,0,1,.66-.8,1,1,0,0,1,1,.21,7.47,7.47,0,0,0,1.29.94,2.74,2.74,0,0,0,3-.32,5.24,5.24,0,0,1-.75-.89c-1.28-1.85-2.24-5.06-1.64-7.23a2.9,2.9,0,0,0-.61-2.92,1,1,0,0,1,1.06-1.62,1.53,1.53,0,0,0,1.09-.28c-1.58-.84-2.35-2.63-2.89-4.38a5.65,5.65,0,0,0-3.25-3.22,1,1,0,0,1-1-.46,1,1,0,0,1,.27-1.34,1.13,1.13,0,0,1,.21-.12c1-.5,2.15,0,3.15.55a5.12,5.12,0,0,1-.87-1.29,6,6,0,0,0-2.52-2c-.64-.35-1.37-.74-1.14-1.58a1.12,1.12,0,0,1,1.12-.78c-.69-.29-1.22-.55-1.47-.68a1,1,0,0,1-.36-1.48,2.45,2.45,0,0,0,.24-.38l.11-.28c.11-.27.26-.67.47-1.13a2.4,2.4,0,0,1-2-.65,2.93,2.93,0,0,1-.52-.73,2.63,2.63,0,0,1-2.59.67c-1.29-.41-1.71-1.11-1.83-1.62l0-.13,0,.13c-.12.51-.54,1.21-1.83,1.62a2.63,2.63,0,0,1-2.59-.67,2.93,2.93,0,0,1-.52.73,2.38,2.38,0,0,1-2,.65l.34.81a1,1,0,0,1,0,.77,1,1,0,0,1-.55.53c-.59.23-1.15.47-1.67.72-3.4,1.62-4.05,3-4.05,3a1.09,1.09,0,0,1-.79.61l-.42,0a6.76,6.76,0,0,0-3.54,1.3L134,114l0,0a1,1,0,0,1,.36.8c0,1,.25,3,1,3.08,2,.06,3.3,0,4.82-1.07,2.07-1.49,6.08-3,8-.66a13.33,13.33,0,0,1,.9,1.19,1,1,0,0,1,0,1.08,1,1,0,0,1-1,.45,4.34,4.34,0,0,0-3.19.82,6.88,6.88,0,0,1,4.07-.28,1,1,0,0,1,.74,1.28,4.24,4.24,0,0,1-.84,1.47l-.35.43a7.49,7.49,0,0,1-2.94,2.59c1,0,2.44-.15,3-.7a35.63,35.63,0,0,0,3-3.93,1,1,0,0,1,1.82.68c-.07.62-.48,3.77-1.27,5a9.21,9.21,0,0,1-7.24,4,15.83,15.83,0,0,1-3.24-.33,2.77,2.77,0,0,0-2.23.16,14.38,14.38,0,0,0-1.52,1c-.43.29-.88.59-1.35.88a1,1,0,0,1-1.23-.16,14.11,14.11,0,0,0-4.79-3.28,7.23,7.23,0,0,1-4.25-3.72,7.44,7.44,0,0,0-1.52-2,21.89,21.89,0,0,0-2.06-1.64c-1.33-1-2.47-1.82-2.42-3.37v-.31c.05-1.35.07-2.09,1-2.94a4,4,0,0,0,.9-1.18l-.15-.14a1,1,0,0,1-.17-1.33,2.09,2.09,0,0,0,.31-2.25,4,4,0,0,1-.51,2,1,1,0,0,1-1.17.46,1.19,1.19,0,0,0-.66,0,3.52,3.52,0,0,0,.29,1.2,1.76,1.76,0,0,1-.18,2,11.75,11.75,0,0,0-.52,2.21,1,1,0,0,1-1.7.56,5.92,5.92,0,0,1-1.46-3.17c-.06-.44-.13-.82-.19-1.15a4,4,0,0,1,0-2.45,4.06,4.06,0,0,0,.3-1.12,1,1,0,0,1-.2-.15,1,1,0,0,1-.3-1,2.06,2.06,0,0,0-.53-2.17,4,4,0,0,1,.13,2.52,1,1,0,0,1-1.25.69l-.26-.07c.12.22.29.48.44.7a9.18,9.18,0,0,1,.79,1.36,22.49,22.49,0,0,1,1,4.48,1,1,0,0,1-.86,1.12,2.41,2.41,0,0,1-1.12-.16l.06.2c.77,2.63,1,3.85.33,4.64a1.55,1.55,0,0,1-1.44.52,1.22,1.22,0,0,0-.46,0l0,0a1,1,0,0,1,.14.83,1.12,1.12,0,0,1-.11.25,1,1,0,0,1,.88.38l1-.72a1,1,0,0,1,1-.11,1,1,0,0,1,.59.78,17.35,17.35,0,0,0,.43,2,2.32,2.32,0,0,0,.46.92,1.06,1.06,0,0,1,.3.86,1,1,0,0,1-.49.76,4.31,4.31,0,0,1-.91.36,2.94,2.94,0,0,0,1.42,1.68,5.37,5.37,0,0,0,3.1.29,3.14,3.14,0,0,1,2,.15,1.13,1.13,0,0,1,.58,1c-.08.78-.72,1-1.89,1.36a18.61,18.61,0,0,0-2.84,1.09,4,4,0,0,1,2.47,1.45,17.93,17.93,0,0,0,1.91,1.92c.58.53,1.31,1.17,2.77,2.7a17.25,17.25,0,0,0,4.1,2.75,1,1,0,0,1,.52.71,1,1,0,0,1-.26.85,5.63,5.63,0,0,1-1.21,1,1,1,0,0,1,.19,1.42,13.52,13.52,0,0,1-4.44,3.86,8.76,8.76,0,0,1-7.38,1.14l-.3-.1c-1.28-.42-2-.65-2.54-1.77a4.25,4.25,0,0,0-.87-1.2l-.18.1a1,1,0,0,1-1.33-.21,2.06,2.06,0,0,0-2.06-.93,4,4,0,0,1,1.76,1.06,1,1,0,0,1,.11,1.25,1.23,1.23,0,0,0-.23.62,4,4,0,0,0,1.23.06,1.78,1.78,0,0,1,1.88.73,10.58,10.58,0,0,0,2,1.12,1,1,0,0,1,0,1.79,5.82,5.82,0,0,1-3.44.51l-1.16-.14a3.93,3.93,0,0,1-2.34-.73,4.21,4.21,0,0,0-1-.61,1.56,1.56,0,0,1-.2.16,1,1,0,0,1-1,0,2.05,2.05,0,0,0-2.23-.11,4,4,0,0,1,2.46.59,1,1,0,0,1,.31,1.39c0,.06-.1.14-.15.23.25-.05.54-.14.8-.22a8.36,8.36,0,0,1,1.53-.37,22.31,22.31,0,0,1,4.57.32,1,1,0,0,1,.83,1.14,2.56,2.56,0,0,1-.46,1h.2c2.74,0,4,.14,4.55,1a1.57,1.57,0,0,1,.09,1.52,1,1,0,0,0-.1.45H120a1,1,0,0,1,.84.1.7.7,0,0,1,.2.18,1,1,0,0,1,.62-.74l-.41-1.17a1,1,0,0,1,1.09-1.32,17.39,17.39,0,0,0,2,.15,2.39,2.39,0,0,0,1-.17,1,1,0,0,1,.91-.05,1,1,0,0,1,.59.68,3.79,3.79,0,0,1,.09,1,4.81,4.81,0,0,0,2.21-.73,3.52,3.52,0,0,0,1.41-1.83,3.87,3.87,0,0,1,.75-1.26,1.06,1.06,0,0,1,1.22-.25c.71.32.66,1,.6,1.81,0,.52-.05,1,0,1.37a4.05,4.05,0,0,1,2-1.75,15.07,15.07,0,0,1,1.63-.67c.84-.3,1-.36,2.91-2.42a17.31,17.31,0,0,0,1.42-1.78,1,1,0,0,1,.77-.42,1,1,0,0,1,.8.34,18,18,0,0,0,4.09,3.39l.56.35a1,1,0,0,1,.46.72,1.07,1.07,0,0,1-.27.82,9.89,9.89,0,0,0-1.7,3.24,14.07,14.07,0,0,1-.82,1.88c-1.07,1.83-2.34,2.28-4.64,3.11-1.22.43-2.73,1-4.78,1.9-4.38,2-4.93,3.65-5.51,5.42-.16.46-.32.94-.54,1.43-.56,1.25-3.29,2.87-5.85,3.47a6,6,0,0,1-5.14-.68,4.73,4.73,0,0,0,3.27,1.55,8.39,8.39,0,0,0,7.87-3.92,1,1,0,0,1,1.88.47,10.07,10.07,0,0,1-1.6,4.72,4.63,4.63,0,0,1-1,1.14,7.84,7.84,0,0,0,2.18-1.35,1,1,0,0,1,1.66.68,18.05,18.05,0,0,1-1.13,7.25c-1.62,3.74-6.77,3.82-9.27,3.33a6.66,6.66,0,0,1-3.65-2.07l-.18-.17a1.11,1.11,0,0,1-.37.15,1,1,0,0,1-.91-.31,2.34,2.34,0,0,0-2.55-.83,4,4,0,0,1,2.39,1.05l.27.25a1,1,0,0,1,.33.83,1,1,0,0,1,0,.24,4.59,4.59,0,0,0,1.74.58,10.55,10.55,0,0,1,3,.72,1,1,0,0,1,.6.73,1,1,0,0,1-.27.9,4.88,4.88,0,0,1-1,.7,4.57,4.57,0,0,1,1.23.39,1.52,1.52,0,0,1,.89.95,1.22,1.22,0,0,1-.22,1,2.18,2.18,0,0,1-.21.26,7.13,7.13,0,0,1,3.61.64l.17.06a1.63,1.63,0,0,1,1.2,2,1,1,0,0,1,.64-.21,1,1,0,0,1,.76.38,4,4,0,0,1,.82,1.87,2.05,2.05,0,0,0-.54-2,1,1,0,0,1-.24-.77.77.77,0,0,1,.07-.26,7.83,7.83,0,0,0-.84-.18,1,1,0,0,1,.12-2s2.08,0,3.16-.08a2.35,2.35,0,0,0,1.23-.45,1,1,0,0,1,1.48,1.28,9,9,0,0,0,.78-.53,5.83,5.83,0,0,0,1.25-2.93,1,1,0,0,1,1.07-.84,1,1,0,0,1,.74.43c0-.6.22-1,.74-1.13a1.2,1.2,0,0,1,1.38.64,1.69,1.69,0,0,0,.25.32c1.52.65,2,.4,2.11.34a.55.55,0,0,0,.18-.3,1.77,1.77,0,0,1-.46-.4c-.56-.74-.31-1.67,0-2.86.09-.36.2-.76.3-1.19.21-1-.18-1.47-1-2.42a10,10,0,0,1-1.14-1.46c-1.43-2.38,1.52-7.46,4.08-10.31,1.92-2.15,5.36-2.79,10.24-1.89a1,1,0,0,1,.75.64,2.76,2.76,0,0,0,.39.68l.13.19c1,1.45-.05,3-.48,3.62-.33.49-.23,1,.11,2.4l.11.45c.19.78.53,2.73-.31,4a1.94,1.94,0,0,1-.26.31h0a.49.49,0,0,0,.43-.12,1.59,1.59,0,0,0,.6-1.62,1,1,0,0,1,.53-1.19,1,1,0,0,1,1.24.32c.32.45,3.07,4.52.89,6.9a12.24,12.24,0,0,1-2.64,1.83h0c4.87-.84,4.63-2.47,4.27-4.93a7,7,0,0,0-1.2-3.1,1,1,0,0,1,1.56-1.25,9.53,9.53,0,0,0,3.49,2.54c4.3,1.62,9.11,5.19,8.48,10-.15,1.07-.23,1.94-.31,2.68-.26,2.68-.38,3.9-2.45,5.36-.25.17-.49.33-.72.47l.09,0a1,1,0,0,1,1.13,1.07,3.35,3.35,0,0,1-.53,1.45l.91-.75A1,1,0,0,1,172.56,203.93ZM165,203a1,1,0,0,1-.85.55,2.17,2.17,0,0,0-2.06,1.21,4,4,0,0,1,2.43-.94,1,1,0,0,1,.9.45.78.78,0,0,1,.11.2,12.16,12.16,0,0,1,1.49-1,4.83,4.83,0,0,1-1.44-.33A1.32,1.32,0,0,0,165,203Zm11.09,1.63Zm-58.55-5.76a.7.7,0,0,1,0,.14,1,1,0,0,1-.68.66,2.22,2.22,0,0,0-1.85,1.71,4,4,0,0,1,2.14-1.5l.62-.19a1,1,0,0,1,.84.11,1.06,1.06,0,0,1,.34.36,19.5,19.5,0,0,0,1.84-1.73,3.7,3.7,0,0,1-.78.19l-1.12.11C118.46,198.71,117.92,198.76,117.54,198.82Zm.71,1.73Zm16.15-.28Zm-7.73-1.05Zm-5.86-3.34a3.55,3.55,0,0,0-1.37.27c-.62.26-1.16.47-1.65.62l.9-.08c.35,0,.71-.06,1-.11a3.74,3.74,0,0,0,1.46-.68ZM114,194a3.84,3.84,0,0,1,1.34.24l.14.05a1.09,1.09,0,0,1,.66.62,1.21,1.21,0,0,1,0,.18,10,10,0,0,0,2.29-.72,15.32,15.32,0,0,1-2.37-.57l-.13.07a1,1,0,0,1-.77,0,2.19,2.19,0,0,0-2.48.32A3.8,3.8,0,0,1,114,194Zm68.38-12.91a.76.76,0,0,0-.25.08Zm-.52-7.59Zm8.42-15.84a2.65,2.65,0,0,0-1.11.37c-1.31.95-2.33,3.94-2.33,6.79,0,.13,0,.27,0,.4a20.4,20.4,0,0,1,1.84-3.76,24.32,24.32,0,0,0,1.42-2.75c.31-.77.22-1,.22-1Zm-80.58,2a.63.63,0,0,1-.08.23,1,1,0,0,1-.81.55,2.09,2.09,0,0,0-1.92,1.21,4,4,0,0,1,2.44-.95,1,1,0,0,1,1,.69,2.29,2.29,0,0,0,1.17-.22c.29-.11.38-.28.61-.79a5,5,0,0,1,.5-.92l-1.24.07C110.88,159.55,110.19,159.59,109.68,159.65Zm-.3-1Zm2.85-5.21h.07l1,.12-.15-.16h-.19C112.73,153.41,112.5,153.43,112.23,153.42Zm81.18-16.32a25,25,0,0,0-5.67,5.4l.93-.37a16.52,16.52,0,0,0,3.32-1.58c1.5-.94,1.8-1.66,1.85-2a.85.85,0,0,0-.18-.66A1,1,0,0,1,193.41,137.1Zm-50.1-9a12.37,12.37,0,0,0,1.75.11,6.59,6.59,0,0,0,4.28-1.69,10,10,0,0,1-4.35.7.74.74,0,0,0-.65.24A3.61,3.61,0,0,1,143.31,128.1Zm-2.24-2.92a1.87,1.87,0,0,0,.4,1.16s.14.12.45.07a1.93,1.93,0,0,0,1.14-.48,2.72,2.72,0,0,1,.88-.55l-1-.08C142.39,125.25,141.58,125.18,141.07,125.18Zm1.91-1.89.13,0c.56,0,1.09.1,1.46.1.83,0,1.42-.67,2.56-2.06l.08-.09a4.19,4.19,0,0,0-2.26.79A19.54,19.54,0,0,1,143,123.29ZM110,113.56a2.21,2.21,0,0,0,.54,1.06c.18.24.38.28.93.36a4.82,4.82,0,0,1,1,.22c-.13-.35-.28-.76-.42-1.17s-.39-1.12-.59-1.58a1.14,1.14,0,0,1-.26,0,1,1,0,0,1-.75-.62,2.08,2.08,0,0,0-1.7-1.5,4,4,0,0,1,1.6,2.08A1,1,0,0,1,110,113.56Zm8.17-.42v.07c.05.28.1.6.16,1l.11-.19a1.34,1.34,0,0,0-.07-.18A6.55,6.55,0,0,1,118.2,113.14Zm-5.8-1.28h0Zm65.4-7.5a14.19,14.19,0,0,1-1.52.88c-1,.53-2.36,1.26-2.4,1.87a1.81,1.81,0,0,0,.41,1.55,2.35,2.35,0,0,0,1.76.24,1.15,1.15,0,0,1,.49,0,2,2,0,0,1-1-1.35c-.15-.85.33-1.67,1.41-2.45A5.15,5.15,0,0,0,177.8,104.36Zm-31.92-1.12h0c-.34.14-.84.49-.82.72s0,.12.1.14a.42.42,0,0,0,.39-.07A2.07,2.07,0,0,0,145.88,103.24Zm12.05,0a2.06,2.06,0,0,0,.36.8.45.45,0,0,0,.39.07c.06,0,.08,0,.1-.14s-.48-.58-.83-.72Zm-9.77-.72c.36.52.91,1.09,1.28,1a3.08,3.08,0,0,0,.43-.18l0,0a4.23,4.23,0,0,0-1.44-.65Zm5.79.79a3.08,3.08,0,0,0,.43.18c.37.12.92-.45,1.27-1l-.22.1a4.23,4.23,0,0,0-1.44.65Zm-.1-.08Zm-2.56-1.33a2.3,2.3,0,0,1,.62,1.18,2.3,2.3,0,0,1,.62-1.18,1.1,1.1,0,0,1-.34-.84,4.6,4.6,0,0,0-.28-1.63,4.65,4.65,0,0,0-.28,1.63A1.1,1.1,0,0,1,151.29,101.9Zm.23-3Zm.78,0Z"/><path d="M89.67,162.87H83.1a2.5,2.5,0,0,1-2.5-2.5v-32a2.5,2.5,0,0,1,2.5-2.5h6.57a2.5,2.5,0,0,1,2.5,2.5v32A2.5,2.5,0,0,1,89.67,162.87Zm-4.07-5h1.57v-27H85.6Z"/><path d="M103.75,105.69H97.19a2.49,2.49,0,0,1-2.5-2.5V71.24a2.49,2.49,0,0,1,2.5-2.5h6.56a2.5,2.5,0,0,1,2.5,2.5v32A2.5,2.5,0,0,1,103.75,105.69Zm-4.06-5h1.56V73.74H99.69Z"/><path d="M219,162.87h-6.57a2.5,2.5,0,0,1-2.5-2.5v-32a2.5,2.5,0,0,1,2.5-2.5H219a2.5,2.5,0,0,1,2.5,2.5v32A2.5,2.5,0,0,1,219,162.87Zm-4.07-5h1.57v-27H215Z"/><path d="M203.39,105.69h-6.56a2.5,2.5,0,0,1-2.5-2.5V71.24a2.5,2.5,0,0,1,2.5-2.5h6.56a2.5,2.5,0,0,1,2.5,2.5v32A2.5,2.5,0,0,1,203.39,105.69Zm-4.06-5h1.56V73.74h-1.56Z"/><path d="M103.75,219.53H97.19a2.49,2.49,0,0,1-2.5-2.5V185.08a2.49,2.49,0,0,1,2.5-2.5h6.56a2.5,2.5,0,0,1,2.5,2.5V217A2.5,2.5,0,0,1,103.75,219.53Zm-4.06-5h1.56V187.58H99.69Z"/><path d="M203.39,219.53h-6.56a2.5,2.5,0,0,1-2.5-2.5V185.08a2.5,2.5,0,0,1,2.5-2.5h6.56a2.5,2.5,0,0,1,2.5,2.5V217A2.5,2.5,0,0,1,203.39,219.53Zm-4.06-5h1.56V187.58h-1.56Z"/></svg>