<svg id="Calque_1" data-name="Calque 1" xmlns="http://www.w3.org/2000/svg" viewBox="0 0 300 300"><defs><style>.cls-1{fill:#1d1d1b;}</style></defs><title>picto_liousin</title><path class="cls-1" d="M150,6A144,144,0,0,1,251.82,251.82,144,144,0,1,1,48.18,48.18,143,143,0,0,1,150,6m0-6A150,150,0,1,0,300,150,150,150,0,0,0,150,0Z"/><path class="cls-1" d="M209.72,171.72a2.5,2.5,0,0,1-1.26-4.66c.67-.39,1.25-.75,1.7-1.05l-.73-2.62a2.5,2.5,0,0,1,.32-2.06,2.53,2.53,0,0,1,1.76-1.1,35.24,35.24,0,0,0,15-5.94l-3.12-3.08a2.5,2.5,0,0,1,1.88-4.28c3.82.19,11.19-4.23,16.3-8L240,137.64a2.5,2.5,0,0,1-.77-2.67,2.47,2.47,0,0,1,2.17-1.73c7.68-.64,19.6-9.55,28.61-18.05l-23.94-10.91a2.51,2.51,0,0,1-1.33-3.09l.36-1a83.89,83.89,0,0,0-10.29-2.25c-4.27-.74-6.38-1.14-7.6-2.08-2.43-1.87-1.19-5,0-7a127.6,127.6,0,0,0-13.7,1,4,4,0,0,1-3.11-1,4,4,0,0,1-1.35-3l0-4.74-7.7,3.44a2.5,2.5,0,0,1-2.87-.6,2.53,2.53,0,0,1-.52-2.5c-1.62.88-3.41,1.89-5,2.84a2.5,2.5,0,0,1-3.42-3.41l.35-.64c-2.28,1.45-5.19,3.47-7.72,5.34a2.5,2.5,0,0,1-3.81-2.92l.22-.58c-2.14,1.64-4.66,3.63-7,5.48a2.5,2.5,0,0,1-4.06-2.16c0-.24,0-.49,0-.74-2,1.34-4.8,3.44-7.22,5.35a2.49,2.49,0,0,1-4-2c-2,1.42-4.67,3.23-8.16,5.21a2.79,2.79,0,0,1-2.63.12c-1.54-.73-1.81-2.33-2.09-4,0-.12,0-.26-.07-.42-9.32,6.87-24,20.8-33.43,30.94a2.5,2.5,0,1,1-3.66-3.4c10-10.72,25.83-25.8,35.6-32.63a3.71,3.71,0,0,1,3.67-.56c1.71.71,2.29,2.47,2.62,4.16,2.56-1.58,4.56-3,6.12-4.09,3-2.14,4.54-3.21,6.38-2.49a2.93,2.93,0,0,1,1.59,1.47c6.16-4.5,7-4.13,8.12-3.68a3.14,3.14,0,0,1,1.82,2.09c8.85-7,9.59-7,10.56-6.89A2.6,2.6,0,0,1,184.75,75a2.8,2.8,0,0,1,.4,2.25c6.81-4.56,8.09-4.13,9-3.83a3.08,3.08,0,0,1,1.91,1.84,3.52,3.52,0,0,1,.23,1.36c4.89-2.63,5.65-2.61,6.2-2.6a2.66,2.66,0,0,1,2.29,1.37,2.53,2.53,0,0,1,.35,2l3.25-1.45A4,4,0,0,1,214,79.49l0,5.15a102.74,102.74,0,0,1,15.21-.79,4,4,0,0,1,3,6.21,16.09,16.09,0,0,0-1.18,2c1.14.29,3,.61,4.56.88,4.16.73,9.33,1.63,13.54,3.35a2.5,2.5,0,0,1,1.42,3.13l-.42,1.21,23.22,10.59a4,4,0,0,1,1.13,6.5c-5.16,5-17.05,15.66-27.5,19.28l.12.1a2.5,2.5,0,0,1,0,3.86c-1.15.92-9.52,7.54-16.83,10l.56.55a4,4,0,0,1-.39,6A40.55,40.55,0,0,1,215,164.7l.18.66a4,4,0,0,1-1.58,4.37c-.82.57-1.7,1.12-2.61,1.65A2.51,2.51,0,0,1,209.72,171.72Zm21.11-78.8Z"/><path class="cls-1" d="M255.43,114.42l-4.28.19-4.26.38c-2.83.27-5.67.59-8.49.94-5.64.7-11.28,1.49-16.91,2.31-11.25,1.69-22.48,3.45-33.68,5.39s-22.39,4-33.55,6.19-22.26,4.63-33.35,7.49A200.19,200.19,0,0,1,153.37,126c11.08-3,22.3-5.37,33.59-7.32s22.67-3.41,34.1-4.32c5.71-.49,11.44-.76,17.18-.88,1.43,0,2.87,0,4.31,0s2.86,0,4.3.1l4.3.25C252.59,114.05,254,114.22,255.43,114.42Z"/><path class="cls-1" d="M217.94,101.35c-.24.51-.49.89-.71,1.32s-.42.84-.62,1.25-.4.83-.62,1.21-.41.81-.63,1.19a44.94,44.94,0,0,1-2.81,4.53,34.79,34.79,0,0,1-3.43,4.2,22,22,0,0,1-4.51,3.68,16.36,16.36,0,0,1,1.18-5.78,23.2,23.2,0,0,1,2.68-5,21.07,21.07,0,0,1,3.93-4.2c.39-.3.79-.6,1.2-.87s.88-.52,1.33-.75A7.33,7.33,0,0,1,217.94,101.35Z"/><path class="cls-1" d="M196.48,95.28c-.61,1.28-1.12,2.39-1.59,3.6l-1.49,3.51c-1,2.31-2.11,4.58-3.31,6.82a68,68,0,0,1-4,6.55,34.57,34.57,0,0,1-5.13,6.07A31.68,31.68,0,0,1,182.6,114a44.28,44.28,0,0,1,3.09-7.18,38,38,0,0,1,4.4-6.54c.42-.51.87-1,1.35-1.49a16.43,16.43,0,0,1,1.49-1.39,12,12,0,0,1,1.67-1.23A8.37,8.37,0,0,1,196.48,95.28Z"/><path class="cls-1" d="M171.94,93.22l-.27,1.09-.17,1.1c-.12.7-.19,1.46-.31,2.17-.21,1.44-.45,2.87-.71,4.3q-.79,4.26-2,8.44a82.58,82.58,0,0,1-2.8,8.25,45,45,0,0,1-4.06,8,39.35,39.35,0,0,1,.26-9,59.81,59.81,0,0,1,1.79-8.61,54,54,0,0,1,3-8.29,33.73,33.73,0,0,1,2.14-4,17,17,0,0,1,1.35-1.87L171,94A11.56,11.56,0,0,1,171.94,93.22Z"/><path class="cls-1" d="M147,97.22a6.14,6.14,0,0,1,1,2,18.13,18.13,0,0,1,.65,2.1,32.73,32.73,0,0,1,.74,4.26,38.47,38.47,0,0,1-.07,8.58,30.82,30.82,0,0,1-2.19,8.44,18,18,0,0,1-2.25,3.89,8.44,8.44,0,0,1-3.53,2.83,15.83,15.83,0,0,0,1.32-3.91c.29-1.3.5-2.6.69-3.91.37-2.62.67-5.27,1-7.94s.68-5.36,1.11-8.07c.23-1.36.46-2.72.73-4.09S146.87,98.65,147,97.22Z"/><path class="cls-1" d="M132.64,107.05a21.57,21.57,0,0,1,.94,8.19,32.8,32.8,0,0,1-1.57,8,35.57,35.57,0,0,1-3.39,7.36,24.41,24.41,0,0,1-5.3,6.25A60.74,60.74,0,0,1,125,129c.69-2.5,1.44-4.93,2.24-7.34s1.6-4.8,2.48-7.21S131.45,109.62,132.64,107.05Z"/><path class="cls-1" d="M235.71,130.5c-.84-.11-1.61-.06-2.36-.14a17.89,17.89,0,0,1-6.25-1.66,18.24,18.24,0,0,1-3.67-2.26,12.93,12.93,0,0,1-3.13-3.53,12,12,0,0,1,4.74-.06,16.49,16.49,0,0,1,4.17,1.32,15.75,15.75,0,0,1,3.7,2.38,12.84,12.84,0,0,1,1.62,1.67,11.18,11.18,0,0,1,.71,1c.1.19.21.38.3.58A2,2,0,0,1,235.71,130.5Z"/><path class="cls-1" d="M221.32,143.44a30.8,30.8,0,0,1-7.44-1.53,49.31,49.31,0,0,1-6.8-2.8,48.72,48.72,0,0,1-6.32-3.76,30.13,30.13,0,0,1-5.68-5,30.33,30.33,0,0,1,7.44,1.53,48.1,48.1,0,0,1,6.8,2.8,50.55,50.55,0,0,1,6.31,3.77A30.79,30.79,0,0,1,221.32,143.44Z"/><path class="cls-1" d="M196.24,150.1a32.19,32.19,0,0,1-5.85-4.34,60.39,60.39,0,0,1-4.85-5c-1.52-1.75-2.91-3.59-4.25-5.46l-1-1.41c-.32-.49-.65-1-1-1.44a22.68,22.68,0,0,0-2.13-2.88,5.7,5.7,0,0,1,1.92.29c.32.09.62.2.94.31l.86.4a16.17,16.17,0,0,1,1.64.92c.52.34,1.06.68,1.53,1a32.13,32.13,0,0,1,5.25,5,37.74,37.74,0,0,1,4.12,5.84A25.4,25.4,0,0,1,196.24,150.1Z"/><path class="cls-1" d="M182.1,157.73a68.29,68.29,0,0,1-6.87-5.72q-3.19-3-6.08-6.25c-1.94-2.15-3.78-4.38-5.55-6.68-.89-1.15-1.75-2.31-2.61-3.5s-1.68-2.38-2.69-3.56c.37.07.75.17,1.15.27s.72.27,1.09.42a18.28,18.28,0,0,1,2.08,1,34,34,0,0,1,3.76,2.56,51.64,51.64,0,0,1,6.49,6.13,54,54,0,0,1,5.38,7.09A31.21,31.21,0,0,1,182.1,157.73Z"/><path class="cls-1" d="M154.88,151.7a21.26,21.26,0,0,1-4.87-2.53,30.38,30.38,0,0,1-4-3.24,29.55,29.55,0,0,1-3.35-3.86,24,24,0,0,1-2.69-4.76,13.14,13.14,0,0,1,5.31,1.82,21.22,21.22,0,0,1,4.22,3.22,21.48,21.48,0,0,1,3.32,4.13A14.16,14.16,0,0,1,154.88,151.7Z"/><path class="cls-1" d="M138,151.51a24.77,24.77,0,0,1-4.12-1.39,17.16,17.16,0,0,1-3.41-2,16.88,16.88,0,0,1-2.9-2.78,12.42,12.42,0,0,1-2.19-3.91,10.79,10.79,0,0,1,4.47.7,14.17,14.17,0,0,1,3.64,2,13.62,13.62,0,0,1,2.93,3,10.79,10.79,0,0,1,1.09,2A5.87,5.87,0,0,1,138,151.51Z"/><path class="cls-1" d="M87.25,209.43a152.25,152.25,0,0,1-16.79-1.06c-9.94-1.13-27.69-6.72-34.27-13.31-6.58-5-11.06-14.74-11.94-21.41-2.08-17.71,2.9-32.15,16.14-46.87,6.62-7.35,15.16-10.86,21.39-13.42l1.73-.72c4.94-2.18,8.71-5.32,8.92-7.46.1-1-.62-2-2.13-3.06a2.49,2.49,0,0,1,1.56-4.53c1.67.07,4.63,2,5.81,3.26.37.39.74.81,1.13,1.23,2.76,3,5.88,6.41,9.49,7.84a60.8,60.8,0,0,1,17.7,10c12.5,9.86,21.44,20.43,26.56,31.41a2.51,2.51,0,0,1-1,3.23c-1.26.72-2.54,1.51-3.91,2.42a2.57,2.57,0,0,1-.78.34,2.85,2.85,0,0,1-.61.59,64,64,0,0,0-8.46,7,2.6,2.6,0,0,1-1.07.63,2.6,2.6,0,0,1-.6,1.09c-15.14,16.24-14.87,34.12-14.42,39.21a2.49,2.49,0,0,1-2.08,2.68A75,75,0,0,1,87.25,209.43Zm-30-9.17A76.12,76.12,0,0,0,71,203.4c10.4,1.17,18.79,1.34,25.53.5,0-1,0-2.19,0-3.52l-.69.6a2.5,2.5,0,0,1-3.55-.37l-2-2.46a2.52,2.52,0,0,1,.43-3.54c6.13-4.72,8.24-18,8.19-27.9h0c-.63-16.73-3.64-28.91-10.38-42-.62-1.14-1.15-2.11-1.64-3,6.89,22.94,8.87,64.6.46,77.86a2.5,2.5,0,0,1-3.49.75l-2.63-1.74a2.5,2.5,0,0,1-.68-3.5c3.51-5.13,5.28-20.37,5.41-29.56v-.63c0-2.51.08-5.63-.09-10.37-.23-9.72-2.12-25.13-5.29-35.06,0,23.1-.65,57.66-1.91,77.75a2.5,2.5,0,0,1-.86,1.74,2.45,2.45,0,0,1-1.85.59l-3.14-.27a2.49,2.49,0,0,1-2.27-2.74c1.91-19.14,4-55,4.77-77.83-2.54,7.06-4.91,17.11-6.31,36.65-1.23,17.22-1.36,27,1.06,43A2.5,2.5,0,0,1,68,201.24l-3.12.43a2.51,2.51,0,0,1-1.87-.5,2.47,2.47,0,0,1-.95-1.69c-.07-.6-.14-1.2-.2-1.79a1.89,1.89,0,0,1-.11.25,2.47,2.47,0,0,1-1.44,1.27l-3,1ZM51,198c1.14.47,2.33.92,3.53,1.34a2.73,2.73,0,0,1-.38-.74q-.36-1.18-.69-2.31a2.62,2.62,0,0,1-.93.88Zm-6.28-2.94.44.24c-.07-.15-.14-.3-.22-.44A2.09,2.09,0,0,1,44.74,195.06Zm12.7-18.73a67.05,67.05,0,0,0,4.21,19c-1.45-15-.94-26.41,2-48.73,1.76-11.19,2.95-18.27,5.35-25.4-3.9,5.65-5.56,10.77-7.76,19.05-.31,1.12-1.24,5.22-1.67,7.68A132.18,132.18,0,0,0,57.44,176.33Zm3.32-52.05c-4,4.36-6.35,9-9.19,16.08-2.63,7-4.18,14.4-5,23.93-.52,10.57-.17,16.09,5.51,26.8a68.43,68.43,0,0,1-1.89-21.55,150.65,150.65,0,0,1,3.11-22.86c.56-2.65,1.69-6.92,2.06-8.13A81.25,81.25,0,0,1,60.76,124.28Zm-25,49.25a30.74,30.74,0,0,0,5.88,13.55c-2.76-8-3.12-15.08-1.84-25.59,1.77-13.55,4.91-22.85,11.61-34.31a30.18,30.18,0,0,0-2.92,3,59.73,59.73,0,0,0-12.8,32.25A46,46,0,0,0,35.8,173.53ZM95,124.89c6.57,12.62,9.9,25.23,11.05,41.52v.24c0,1.11.08,2.72,0,4.66a60.7,60.7,0,0,1,5.61-7.24,74,74,0,0,0-13-34.23C97.29,127.92,96.07,126.29,95,124.89Zm9.81,3.76a75.9,75.9,0,0,1,12.94,29.52c1.32-1.13,2.7-2.23,4.13-3.28-.32-.89-.65-1.75-1-2.57A74.82,74.82,0,0,0,105,128.91ZM75.65,109.91a2.47,2.47,0,0,1,.64.19,2.48,2.48,0,0,1,1.84-.81h0a2.89,2.89,0,0,1,.78.13c-.68-.64-1.32-1.3-1.94-2A9.89,9.89,0,0,1,75.65,109.91Z"/><path class="cls-1" d="M73,127.64a2.47,2.47,0,0,1-1.67-.64,3.79,3.79,0,0,1-1.1-1.8,6.24,6.24,0,0,1-.77.61,2.5,2.5,0,0,1-3.87-2.33,8.48,8.48,0,0,1,.13-.88,15,15,0,0,1-1.36,1.08,2.49,2.49,0,0,1-3-.11,2.46,2.46,0,0,1-.82-1.26,2.51,2.51,0,0,1-1.66-.74,2.54,2.54,0,0,1-.51-.76,21.63,21.63,0,0,1-2.35.61,2.5,2.5,0,0,1-1.63-4.67c2.87-1.5,5.88-3,8.42-4.11,4-1.67,8.71-4.9,9.33-7.2a1.41,1.41,0,0,0-.33-1.35,10.4,10.4,0,0,0-1-1c-1.43-1-2.7-1.74-6.17-1.92a2.51,2.51,0,0,1-1.08-4.69,6.51,6.51,0,0,1,1.71-.62,6.4,6.4,0,0,1-.26-3,2.5,2.5,0,0,1,4.71-.63,13.62,13.62,0,0,0,4.14,4.65l.52.41a20.63,20.63,0,0,1,3.36,3.11c2.84,3.14,7.12,7.84,11.29,9.48a50.49,50.49,0,0,1,5.45,2.59l1.52.8a2.5,2.5,0,0,1-.22,4.55,2.5,2.5,0,0,1-2.35,1.73l0,.14a2.5,2.5,0,0,1-3.78,2.65c-.39-.25-.78-.53-1.16-.83A2.56,2.56,0,0,1,87,123.09a2.51,2.51,0,0,1-2.75-.55c-.12-.12-.23-.24-.35-.38a2.51,2.51,0,0,1-3.73,1.29,11.89,11.89,0,0,1-.77,1.76,2.49,2.49,0,0,1-4,.53v0a2.54,2.54,0,0,1-1.7,1.78A2.62,2.62,0,0,1,73,127.64Zm0-14.19.35,0a2.49,2.49,0,0,1,1.42.72,2.5,2.5,0,0,1,2.92-.93,3,3,0,0,1,.59.31,2.56,2.56,0,0,1,1.18-.44,3,3,0,0,1,.42,0,2.5,2.5,0,0,1,1.72-1.4,2.39,2.39,0,0,1,.53-.06,47.65,47.65,0,0,1-5.28-4.76c-.78,2.67-3.18,5-5.66,6.73a2.43,2.43,0,0,1,.34.3A2.51,2.51,0,0,1,73,113.45Z"/><path class="cls-1" d="M83.23,211.26a130.68,130.68,0,0,1-14.53-.88c-9.39-1.06-28.74-6.89-33.12-16.13a2.51,2.51,0,0,1,.71-3c3.27-2.58,8.8-.75,13.24.72,1,.32,1.87.62,2.42.74,5,1.17,12.63,1.35,19.36.46a63.46,63.46,0,0,1,12.63.14,79.24,79.24,0,0,0,8.81.36,37.44,37.44,0,0,0,6.72-.92c4.06-.78,8.25-1.6,12.17-.57l.18.05c2,.69,7.28,2.52,7.27,6.77a2.5,2.5,0,0,1-.82,1.83C110.64,207.75,98.89,211.26,83.23,211.26ZM42.59,195.15c5.5,4.81,17.62,9.24,26.67,10.26,20.38,2.31,35.22-.06,44.14-7a14.52,14.52,0,0,0-3.12-1.42c-2.8-.7-6.39,0-9.86.67a41.76,41.76,0,0,1-7.56,1,84,84,0,0,1-9.31-.38,60.24,60.24,0,0,0-11.6-.16c-7.37,1-15.47.77-21.13-.54-.77-.18-1.74-.5-2.86-.87A52,52,0,0,0,42.59,195.15Z"/><path class="cls-1" d="M110.3,179a2.54,2.54,0,0,1-1.16-.28,2.51,2.51,0,0,1-1.34-2.22,2.55,2.55,0,0,1,.29-1.16c.4-.75.82-1.5,1.25-2.24h0a2.5,2.5,0,0,1,4.31,2.53h0q-.6,1-1.14,2A2.5,2.5,0,0,1,110.3,179Z"/><path class="cls-1" d="M124.69,161.49a2.5,2.5,0,0,1-1.6-4.43h0l1.06-.85.53-.42h0a2.5,2.5,0,1,1,3,4l-.5.39-1,.78A2.52,2.52,0,0,1,124.69,161.49Z"/><path class="cls-1" d="M137,153.6a2.5,2.5,0,0,1-1.09-4.75l1.25-.59,1.27-.56a2.5,2.5,0,1,1,2,4.58h0c-.39.16-.78.33-1.16.51l-1.17.54A2.49,2.49,0,0,1,137,153.6Z"/><path class="cls-1" d="M106.67,187.75a2.42,2.42,0,0,1-.74-.11,2.5,2.5,0,0,1-1.76-2.39,2.76,2.76,0,0,1,.11-.74l.27-.84a2.5,2.5,0,0,1,4.88.78,2.47,2.47,0,0,1-.13.79l-.24.75A2.5,2.5,0,0,1,106.67,187.75Z"/><path class="cls-1" d="M211.68,188.55a2.5,2.5,0,0,1-2.45-2,3.4,3.4,0,0,0-.07-.34c-.1-.55-.22-1.09-.35-1.64a2.5,2.5,0,0,1,4.86-1.16c.15.61.28,1.22.4,1.83,0,.12.05.24.07.36h0a2.53,2.53,0,0,1-2.46,3Z"/><path class="cls-1" d="M157.13,147.59a2.5,2.5,0,0,1-.31-5l1.74-.19a2.5,2.5,0,0,1,2.72,2.25,1.93,1.93,0,0,1,0,.24A2.5,2.5,0,0,1,159,147.4l-1.59.17A1.67,1.67,0,0,1,157.13,147.59Z"/><path class="cls-1" d="M155.34,147.85a2.51,2.51,0,0,1-2.47-2.11,2.69,2.69,0,0,1,0-.4,2.5,2.5,0,0,1,2.11-2.46c.58-.1,1.17-.18,1.75-.25h0a2.5,2.5,0,1,1,.63,5c-.53.06-1.06.14-1.6.23A2.56,2.56,0,0,1,155.34,147.85Z"/><path class="cls-1" d="M116.38,169.84a2.53,2.53,0,0,1-1.58-.55,2.51,2.51,0,0,1-.36-3.52c.42-.52.86-1,1.3-1.55a2.5,2.5,0,0,1,4.39,1.64,2.44,2.44,0,0,1-.62,1.64c-.4.47-.8.94-1.19,1.42h0A2.49,2.49,0,0,1,116.38,169.84Z"/><path class="cls-1" d="M111.47,220.7a2.5,2.5,0,0,1-2.07-1.1c-.39-.57-.77-1.17-1.14-1.78a2.5,2.5,0,0,1,4.28-2.58c.32.53.65,1,1,1.56a2.48,2.48,0,0,1,.43,1.4,2.5,2.5,0,0,1-2.5,2.5Z"/><path class="cls-1" d="M110.25,218.78a2.5,2.5,0,0,1-2.15-1.23c-.31-.53-.62-1.07-.92-1.63a2.5,2.5,0,0,1,4.4-2.38c.27.5.54,1,.82,1.46a2.51,2.51,0,0,1-2.15,3.78Z"/><path class="cls-1" d="M137.1,232.78c-13.14,0-21.57-4.15-27.67-13.13a2.51,2.51,0,0,1,0-2.79,32.08,32.08,0,0,1-4.22-5.06,2.42,2.42,0,0,1-.21-.39l-.28-.62a32.47,32.47,0,0,1-2.5-11.86,2.48,2.48,0,0,1,1.22-2.22c-.25-.41-.49-.83-.74-1.26a2.5,2.5,0,0,1-.31-1.47,44.42,44.42,0,0,1,1.31-7.39,2.51,2.51,0,0,1,1.13-1.51,2.47,2.47,0,0,1-.11-1.87,53.64,53.64,0,0,1,3.33-7.76,2.45,2.45,0,0,1,1-1,2.47,2.47,0,0,1,.35-1.43,58.57,58.57,0,0,1,4.82-7,2.5,2.5,0,0,1,1.21-.82,2.49,2.49,0,0,1,.6-1.33,61.47,61.47,0,0,1,6.64-6.46,2.5,2.5,0,0,1,1.46-.58,2.51,2.51,0,0,1,.88-1.29,63.4,63.4,0,0,1,9.92-6.18,2.48,2.48,0,0,1,1.65-.22l.45.1a2.53,2.53,0,0,1,1.39-1.53,70.23,70.23,0,0,1,14.34-4.43c.7-.14,1.4-.26,2.1-.37a2.49,2.49,0,0,1,1.47.21l.5.24a2.47,2.47,0,0,1,1.71-.92,51.68,51.68,0,0,1,13.36.44l.17,0c.79.13,1.57.29,2.34.46l.08,0,.11,0h0a48.68,48.68,0,0,1,20.77,10.45l.11.08h0v0a55.61,55.61,0,0,1,11.29,13.17l0,0c.55.89,1.06,1.77,1.53,2.61a.93.93,0,0,0,0,.1,55.35,55.35,0,0,1,5.26,13.52,2.57,2.57,0,0,1,0,1.17,2.43,2.43,0,0,1,.47,1.06,42.45,42.45,0,0,1,.64,4.71h0c.93,11.9-11.37,24.19-32.9,32.9a142.87,142.87,0,0,1-30.32,8.26A91.3,91.3,0,0,1,137.1,232.78Zm-27.63-23.6c5.25,7.68,13.27,11.82,26.76,13.82,7.46.92,12.62,1.55,26.79-1.21l-3.8-.1a148.4,148.4,0,0,1-15.22-.94c-5.68-.5-20.58-4.25-29.85-9.87a33.54,33.54,0,0,1-5.6-4.06c.23.68.48,1.35.76,2ZM169.55,221a2.58,2.58,0,0,1,1,.93c3.27-1,6.43-2.13,9.44-3.35,16-6.47,26.61-15,29.21-23.16a88.61,88.61,0,0,1-9.93,12.17,2.5,2.5,0,0,1-4.22-2.4,2.55,2.55,0,0,1-1.71-.35,2.49,2.49,0,0,1-1.17-2,2.42,2.42,0,0,1-1.16-.07,2.51,2.51,0,0,1-1.63-1.54,2.51,2.51,0,0,1-2.64,2,2.45,2.45,0,0,1-1.28-.46,2.58,2.58,0,0,1-1.16.66,2.5,2.5,0,0,1-3-1.76c-.85-3.06-1.6-6-2.33-8.91-3.12-12.32-5.81-23-13.92-35-3.41-4.89-6.57-8-10.14-9.84l-1.14.21a67.22,67.22,0,0,0-7.66,2c10.83,6,21.8,21,26.71,33.24,1.55,3.72,2.43,6,3.2,8,.93,2.4,1.74,4.47,3.46,8.42a2.5,2.5,0,0,1-4.54,2.09c-1.92-4-2.8-6-3.83-8.42-.83-1.93-1.78-4.12-3.48-7.83-5.6-12.59-17.59-27.27-29.69-31-.48-.15-1-.28-1.5-.41-1.73.9-3.41,1.89-5,2.94,17.15,9.43,31.37,27.61,43.14,44.43a2.5,2.5,0,0,1-3,3.75,2.48,2.48,0,0,1-.47,2.64,2.52,2.52,0,0,1-1.74.81,2.5,2.5,0,0,1-1.19,3.89,2.5,2.5,0,0,1,1.07,2.8A2.46,2.46,0,0,1,168,217a2.49,2.49,0,0,1,1.56,4Zm-62.12-27.33c4.83,8.17,9.93,11.59,18.68,15.63,13.6,5.84,23.8,6.49,34.6,7.18l3.47.22c-3.24-.81-5.66-1.32-7.83-1.77-6.18-1.29-10.27-2.14-24.46-8-12.85-5.42-19.54-9.79-24.31-14.41Zm2.45-10.08c7.43,9.52,16.56,13.92,30.57,20.17a88.49,88.49,0,0,0,17,5.86c1.95.49,4.09,1,6.91,1.83-35.43-20.33-42.1-24.47-53-31.25C110.77,181.3,110.31,182.43,109.88,183.58ZM115,173.51c14.13,9.55,19.39,13.06,49.92,32.29-15-13.17-26.56-22.32-34.27-27.24A102.85,102.85,0,0,0,117,170.68C116.26,171.61,115.6,172.55,115,173.51Zm7-8.64c16.68,9.48,30.85,22.28,47.15,37.84A246.42,246.42,0,0,0,149.52,180c-8.66-9-16.34-14.59-24.71-17.87C123.83,163,122.87,163.94,122,164.87Zm85.26,14.41a83.28,83.28,0,0,1-7.55,19.92,62,62,0,0,0,9-15.41C208.23,182.29,207.76,180.78,207.21,179.28Zm-24.69-27.89a68.81,68.81,0,0,1,3.53,8.76.49.49,0,0,1,0,.11l.06.22c2.4,8.24,5.11,17.56,3.47,38.15,3.63-13.53,4-23.16,1.52-36.34a31.58,31.58,0,0,0-2.42-7.29A44.45,44.45,0,0,0,182.52,151.39Zm15.56,12.17c.36,2.74.56,5.53.72,8.24a.49.49,0,0,1,0,.12,80.59,80.59,0,0,1-2.71,22.46,73.91,73.91,0,0,0,6.06-25.27A51.48,51.48,0,0,0,198.08,163.56ZM165.5,147.22c10.78,11,15.2,29.85,19.12,46.8,0-11.44-1.27-29.4-9-40.83a23.76,23.76,0,0,0-4.93-5.46A44.49,44.49,0,0,0,165.5,147.22Z"/><path class="cls-1" d="M106.13,189.63a2.8,2.8,0,0,1-.64-.08,2.51,2.51,0,0,1-1.86-2.42,2.39,2.39,0,0,1,.08-.64c.05-.2.11-.4.17-.59l.06-.23a2.5,2.5,0,0,1,4.91.68,2.24,2.24,0,0,1-.1.68l-.07.25-.13.49A2.51,2.51,0,0,1,106.13,189.63Z"/><path class="cls-1" d="M109.22,216.93a2.5,2.5,0,0,1-2.21-1.32c-.34-.63-.67-1.28-1-1.94a2.55,2.55,0,0,1-.25-1.09,2.5,2.5,0,0,1,4.75-1.09q.44.9.9,1.77a2.44,2.44,0,0,1,.29,1.17,2.49,2.49,0,0,1-2.49,2.5Z"/><path class="cls-1" d="M104.7,201.19a2.49,2.49,0,0,1-2.49-2.44c0-.33,0-.66,0-1s0-.73,0-1.1a2.5,2.5,0,0,1,5,.07v.06c0,.33,0,.65,0,1s0,.58,0,.87v.07a2.49,2.49,0,0,1-2.43,2.5Z"/><path class="cls-1" d="M108.18,214.88a2.52,2.52,0,0,1-2.26-1.42c-.29-.61-.57-1.23-.85-1.87a2.42,2.42,0,0,1-.22-1,2.5,2.5,0,0,1,4.79-1c.26.59.52,1.16.79,1.73a2.44,2.44,0,0,1,.25,1.08,2.51,2.51,0,0,1-1.42,2.25A2.47,2.47,0,0,1,108.18,214.88Z"/><path class="cls-1" d="M104.74,198.59h-.11a2.5,2.5,0,0,1-2.39-2.5V196c0-.56.06-1.11.1-1.67a2.5,2.5,0,0,1,5,.21v.21c0,.49-.08,1-.1,1.47A2.5,2.5,0,0,1,104.74,198.59Z"/><path class="cls-1" d="M202.44,234.54c-5.94,0-10.35-1.95-12.46-3.79-1-.84-1.81-1.67-2.62-2.46-2.84-2.79-4.33-4.11-7.22-3.78a38.11,38.11,0,0,0-6.26,1.57c-3.59,1.11-7.3,2.24-10.53,1.81a2.5,2.5,0,0,1-.5-4.83c.3-.11.61-.21.93-.31a2.5,2.5,0,0,1,1-3.91l-.69-.19-.43-.13a2.49,2.49,0,0,1-1.77-2.82,2.52,2.52,0,0,1,2.6-2.08c2.41.14,4.33.19,5.85.2a28.13,28.13,0,0,1-2.8-2.86,2.49,2.49,0,0,1,2.61-4,17.78,17.78,0,0,1,3.51,1.47,9.82,9.82,0,0,1-.35-3.44,2.49,2.49,0,0,1,4.72-.91c.2.4.41.78.61,1.13a51.58,51.58,0,0,1,.36-6.31,2.5,2.5,0,0,1,4.58-1.08,15,15,0,0,1,1.92,4.6,35.32,35.32,0,0,1,1.44-3.5,2.47,2.47,0,0,1,2.7-1.35,2.5,2.5,0,0,1,2,2.25l0,.4c.66-1,1.3-1.85,1.9-2.59a2.5,2.5,0,0,1,4.36,2.18c-.24,1-.58,2.19-1,3.46a15.68,15.68,0,0,0,1.62-1.88,2.5,2.5,0,0,1,4.39.66,2.5,2.5,0,0,1,3.09,3.27c-2.56,6.77-6.56,9.56-11.62,13.1l-1.58,1.11c-1.27.9-1.34,1.35-1.34,1.37s.1.51.65,1.18c.82.88,6.94.47,13.09-3.42a2.5,2.5,0,0,1,3.53,3.32c-1.19,2.15-4.05,4.55-7.19,6.09,1.32.58,2.68,1.1,3.76,1.47a2.5,2.5,0,0,1-.6,4.86C204,234.5,203.2,234.54,202.44,234.54ZM181,219.46a10.27,10.27,0,0,1,5.55,1.6,4,4,0,0,1,0-.77c.23-1.77,1.35-3.34,3.41-4.8l1.61-1.13.69-.49,0-.06a2.56,2.56,0,0,1-.29-.63,2.52,2.52,0,0,1-1.84-.57,2.56,2.56,0,0,1-.53-.61c-.15.18-.31.36-.47.53a2.48,2.48,0,0,1-2.76.61h0a2.51,2.51,0,0,1-2.13.75,2.6,2.6,0,0,1-1.13-.44l-.11.07a2,2,0,0,1-.4.24,2.44,2.44,0,0,1-.2,1.35,2.49,2.49,0,0,1-2.48,1.47,5,5,0,0,1-.66-.08,2.48,2.48,0,0,1-1.1,1.37,2.13,2.13,0,0,1,.13.43,2.53,2.53,0,0,1-.17,1.47c.49-.09,1-.17,1.46-.22A11.77,11.77,0,0,1,181,219.46Z"/></svg>