<svg id="Calque_1" data-name="Calque 1" xmlns="http://www.w3.org/2000/svg" viewBox="0 0 300 300"><defs><style>.cls-1{fill:#1d1d1b;}.cls-2{fill:none;stroke:#000;stroke-linejoin:round;stroke-width:3px;}</style></defs><title>picto_cote_azur</title><path class="cls-1" d="M150,6A144,144,0,0,1,251.82,251.82,144,144,0,1,1,48.18,48.18,143,143,0,0,1,150,6m0-6A150,150,0,1,0,300,150,150,150,0,0,0,150,0Z"/><path d="M181.89,240.64h0c-3.15,0-6.3,0-9.45,0l-6.77-.05c-2.79,0-5.6-.1-8.31-.2-4.46-.15-9.08-.31-13.58-.08-3.49.17-7,0-10.34-.09-2.82-.11-5.73-.21-8.55-.14a6.13,6.13,0,0,1-1.25-.09,3.61,3.61,0,0,1-2.85-1.82,2.93,2.93,0,0,1-.34-1.39,3.62,3.62,0,0,1-2.61-1.5,2.88,2.88,0,0,1-.34-2.31,3.51,3.51,0,0,1,3.31-2.48,2.46,2.46,0,0,1,.49-1.73,11.25,11.25,0,0,1,8.39-4.69,4.13,4.13,0,0,1-.15-.5,2.5,2.5,0,0,1,2.87-3.08l.35.06a.69.69,0,0,1,0-.13,5.4,5.4,0,0,1,1.06-5.21c-.66-3.2-1.41-7-.67-10.78l-.59-.45a2.49,2.49,0,0,1-.16-3.85l.4-.35a14,14,0,0,1-.22-6.55,94.64,94.64,0,0,1-.16-11.3,2.41,2.41,0,0,1,.23-.94l.83-1.77a7.81,7.81,0,0,1-.11-4.38l0-.1a2.47,2.47,0,0,1,.55-3,1.83,1.83,0,0,1,.31-.24,4.18,4.18,0,0,1,.35-2.29l0,0a3.15,3.15,0,0,1,.25-3.85,2.46,2.46,0,0,1,1-.7l.73-3.79a3,3,0,0,1,.08-.32l1.54-4.65c0-.07-.07-.19-.11-.28a4.79,4.79,0,0,1-.41-2.4,5.53,5.53,0,0,1,1-2.54,2.92,2.92,0,0,0,.22-.36c.21-1,.49-2.09.76-3.12.65-2.44,1.27-4.75,1-6.94q-.09-.62-.18-1l-.11-.16,0,0-.08-.11-.47-.68a9.4,9.4,0,0,1-.86-1.08c.19,1,.4,2,.64,3.23l.05.23a2.53,2.53,0,0,1-1.6,2.87,2.65,2.65,0,0,1-1.78,0l-.1,0-.21-.09a2.9,2.9,0,0,1-.38-.24,2,2,0,0,1-.18-.15,1.79,1.79,0,0,1-.26-.23l-.06-.06a2.51,2.51,0,0,1-.95,2.24c-1.56,1.22-2.77.31-4.1-.93.49,1.5.66,2.93-.79,3.89a2.48,2.48,0,0,1-1.58.51,2.35,2.35,0,0,1-1,1.35,2.38,2.38,0,0,1-1.88.58,4,4,0,0,1-.09.48,2.48,2.48,0,0,1-1.34,1.64,2.54,2.54,0,0,1-1.38.23,2.51,2.51,0,0,1-.76,2c-1,1-2.09,1-4,.25a2.68,2.68,0,0,1,.57,3.07,2.4,2.4,0,0,1-.34.55,2.37,2.37,0,0,1-1.59.92,2.63,2.63,0,0,1-.52,1.75,2.68,2.68,0,0,1-2.06,1.07,2.67,2.67,0,0,1-.49,2.22,2.5,2.5,0,0,1-1.66.93,2.25,2.25,0,0,1,0,.58,2.5,2.5,0,0,1-2,2.15H109a2.52,2.52,0,0,1-.54,1.73,3.41,3.41,0,0,1-1.82,1.14,2.7,2.7,0,0,1-.6,1.84l-1,1.27-.92,1.12-.06.08c-.5.61-1,1.22-1.52,1.82l-.74.85-.08.09c-.29.33-.57.64-.84.92A2.5,2.5,0,0,1,96.6,178a39.12,39.12,0,0,1-1.12-7.13,51.53,51.53,0,0,1,0-7,55.26,55.26,0,0,1,2.7-13.9,49.84,49.84,0,0,1,6.71-13.26,43.76,43.76,0,0,1,9.74-9.93,2.71,2.71,0,0,1-.49,0,2.39,2.39,0,0,1-1.45-.55,2.48,2.48,0,0,1-1.59.44c-1.72,0-2.35-1.14-2.68-2.54-.55,1.8-1.15,3.11-3.1,2.8a2.48,2.48,0,0,1-1.78-1.21c-.33,1.51-.89,2-2,2.29a2.49,2.49,0,0,1-3-1.7c-.31-1-.64-2.06-1-3.09-.22,1.74-.38,3.51-.43,5a2.5,2.5,0,0,1-1.44,2.19,2.68,2.68,0,0,1-2.45-.08,3,3,0,0,1-1.21-1.2c-.07.48-.13,1-.18,1.49a2.5,2.5,0,0,1-2.44,2.25,2.6,2.6,0,0,1-1.36-.28c-.06.36-.13.71-.19,1.06a2.51,2.51,0,0,1-1.15,1.68,2.67,2.67,0,0,1-2.57.14,2.88,2.88,0,0,1-.79-.56c-.15.67-.3,1.35-.45,2a2.49,2.49,0,0,1-1.17,1.61,2.65,2.65,0,0,1-2.25.18,1.87,1.87,0,0,1-.35-.17,3.16,3.16,0,0,1-.39-.28l-.06-.05-.13.4,0,0v0c-.06.18-.12.33-.17.48l0,0-.19.5h0l0,.06c-.07.18-.14.35-.21.5h0l0,.07c-.06.12-.12.24-.18.34l-.09.15a2.91,2.91,0,0,1-.25.39l0,.06-.08.1a3.1,3.1,0,0,1-.71.65A2.51,2.51,0,0,1,72.65,140c0-.1,0-.2,0-.3a30.22,30.22,0,0,1,.8-7.25,42.3,42.3,0,0,1,2.21-7A43.57,43.57,0,0,1,83.53,113a39.78,39.78,0,0,1,12.39-9.25,36.64,36.64,0,0,1,7.52-2.63,35.54,35.54,0,0,1,4.58-.75,2.5,2.5,0,0,1-1.48-2.65c.15-1.11.31-2.24.46-3.36-.88,1.42-1.72,2.88-2.37,4.17a2.5,2.5,0,0,1-2.37,1.39,2.73,2.73,0,0,1-2.08-1.16,3,3,0,0,1-.56-1.65c-.22.35-.45.72-.67,1.1a2.63,2.63,0,0,1-4.31.14c-.17.24-.33.48-.5.71a2.51,2.51,0,0,1-1.85,1.05,2.69,2.69,0,0,1-2.31-1,2.79,2.79,0,0,1-.47-.88L88.39,99.7a2.48,2.48,0,0,1-1.73,1,2.63,2.63,0,0,1-2.35-1.06A2.67,2.67,0,0,1,84,99c-1.65,1.71-2.46,2.23-3.46,2.34a2.5,2.5,0,0,1-2.28-1,2.47,2.47,0,0,1-.3-2.46c.14-.35.3-.7.47-1l.1-.2c.15-.32.28-.56.41-.81l.16-.29c.13-.24.26-.47.4-.7l.11-.19c.65-1.05,1.35-2.07,2.18-3.18a39.39,39.39,0,0,1,2.72-3.14l.05,0c.33-.35.67-.7,1-1s.72-.69,1.1-1,1-.89,1.55-1.32l.44-.35,1.2-.92.49-.35c.42-.3.86-.6,1.29-.88l.41-.27c.57-.36,1.13-.71,1.71-1l.06,0a38.9,38.9,0,0,1,5.1-2.43,36.8,36.8,0,0,1,14.9-2.52,35.57,35.57,0,0,1,7.79,1.2,36.51,36.51,0,0,1,7.38,2.9,39.46,39.46,0,0,1,10.63,8.21,45.27,45.27,0,0,1,3.58-9.8,42.72,42.72,0,0,1,4.43-7,40.55,40.55,0,0,1,5.67-5.89,38.75,38.75,0,0,1,13.43-7.43,37.57,37.57,0,0,1,14-1.64,34.31,34.31,0,0,1,4.76.68l.76.17c.41.1.84.2,1.27.32a25.31,25.31,0,0,1,6.64,2.83,2.5,2.5,0,0,1,0,4.23c-.93.58-2.07.62-4.32.26A3,3,0,0,1,190,66a2.67,2.67,0,0,1-1.2,2.23,2.52,2.52,0,0,1-2,.3l-1.89-.52a2.79,2.79,0,0,1,.24,1.23,2.72,2.72,0,0,1-1.19,2.16,2.51,2.51,0,0,1-2.18.3l-.87-.28a2.29,2.29,0,0,1-.38,1.63,2.55,2.55,0,0,1-.37.48,36.22,36.22,0,0,1,12.07.16,37.26,37.26,0,0,1,13.12,5.11,36.13,36.13,0,0,1,5.53,4.26,33.56,33.56,0,0,1,2.53,2.66.64.64,0,0,1,.1.13c.19.22.39.46.58.72l.11.13s.07.09.08.11c.16.21.32.43.47.65l.2.29c.2.3.4.61.6.94a2.5,2.5,0,0,1-2,3.78,3.09,3.09,0,0,1-.74,0l-.25-.06-.29-.09-.15-.06a1.51,1.51,0,0,1-.29-.13,2.66,2.66,0,0,1-.38-.19l-.12-.06-.66-.41-.34-.24-.06,0,0,0L210,91l-.09-.06-.15-.11a1.7,1.7,0,0,1-.06.31,2.51,2.51,0,0,1-.57,1.05h0l0,0-.07.06h0a2.67,2.67,0,0,1-1.5.74,2.52,2.52,0,0,1-2-.66c-.42-.4-.85-.81-1.29-1.21a2.7,2.7,0,0,1-.33,1.08,2.74,2.74,0,0,1-2,1.39,2.53,2.53,0,0,1-2.09-.73l-.55-.56a2.32,2.32,0,0,1-1.06,1.17,2.49,2.49,0,0,1-3.27-.54L194,92a3.31,3.31,0,0,1-.27,1.94,2.71,2.71,0,0,1-1.8,1.47,2.49,2.49,0,0,1-2.66-1,48,48,0,0,0-3-3.78l1,3.62a2.5,2.5,0,0,1-.89,2.67,38.39,38.39,0,0,1,13.31,2.9,43.08,43.08,0,0,1,12.06,7.55,46.66,46.66,0,0,1,4.84,4.9,50.94,50.94,0,0,1,4.05,5.48,50.38,50.38,0,0,1,3.28,6h0a39,39,0,0,1,2.4,6.75,2.54,2.54,0,0,1-.66,2.36,2.49,2.49,0,0,1-2.36.66c-1-.25-2.35-.63-4-1.18h0l-1.87-.62-.71-.23-.14,0-.57-.18a2.76,2.76,0,0,1-1.47-1.16,3.27,3.27,0,0,1-2,0,2.54,2.54,0,0,1-1.32-1.07,2.51,2.51,0,0,1-2.79-.73,2.71,2.71,0,0,1-.28-.41,2.54,2.54,0,0,1-1.78.06,2.66,2.66,0,0,1-1.56-1.49,2.53,2.53,0,0,1-2.17.14,2.59,2.59,0,0,1-1.32-1.1,2.58,2.58,0,0,1-2.37-.28,2.43,2.43,0,0,1-1.12-2.46c-1.19,1.46-2,1.9-3.27,1.66a2.48,2.48,0,0,1-1.66-1.14,2.56,2.56,0,0,1-1.29.5,2.49,2.49,0,0,1-2-.76l-.15-.17a2.16,2.16,0,0,1-1.36.51l.34.27a45.31,45.31,0,0,1,9.72,10.63,49.39,49.39,0,0,1,3.43,6.09,51.71,51.71,0,0,1,4.23,13.17,41,41,0,0,1,.66,7.22,2.5,2.5,0,0,1-3.73,2.15c-1-.55-2.13-1.29-3-1.88l-.35-.24-.06,0h0l-.78-.52,0,0-.07,0-1.6-1.09-.56-.38a2.75,2.75,0,0,1-1.12-1.54,3.35,3.35,0,0,1-2-.56,2.61,2.61,0,0,1-1-1.42,2.52,2.52,0,0,1-2.66-1.95,2.53,2.53,0,0,1-1.75-.43,2.66,2.66,0,0,1-1.1-1.89,2.48,2.48,0,0,1-2.14-.44,2.58,2.58,0,0,1-1-1.45,2.35,2.35,0,0,1-1.69-.43,2.63,2.63,0,0,1-.53-.47,2.54,2.54,0,0,1-.39-2.77c-1.52,1.11-2.47,1.35-3.64.77a2.53,2.53,0,0,1-1.29-1.58,2.5,2.5,0,0,1-3.11-1.12c0-.08-.09-.17-.12-.25a2.7,2.7,0,0,1-3.12-.95,2.54,2.54,0,0,1-1.68,0c-1.59-.44-1.9-1.75-1.87-3.18l-.4.62c.21.73.4,1.42.58,2.07.63,2.25,1.17,4.18,1.95,6.4a2.51,2.51,0,0,1,.13,1,2.5,2.5,0,0,1,1.54,1.28,9.86,9.86,0,0,1,.74,4.66v.06h0l.16.21a7.54,7.54,0,0,1,1.47,3.65,2.46,2.46,0,0,1-.35,1.63,2.48,2.48,0,0,1,.45.35h0a2.67,2.67,0,0,1,1.89,2.11,3.64,3.64,0,0,1-.72,2.62,23.93,23.93,0,0,1,1.09,5.08,2.54,2.54,0,0,1-.48,1.67h0a2.31,2.31,0,0,1,.5.62,2.51,2.51,0,0,1,.23,1.95,6.41,6.41,0,0,0,.33,1c.07.19.15.38.22.56a5.75,5.75,0,0,1,.24,3.42,4.78,4.78,0,0,1,.44,1.22,2.5,2.5,0,0,1-.41,2,2.57,2.57,0,0,1-1.06.85,1.92,1.92,0,0,1,.32.26,5.23,5.23,0,0,1,1.94,2.83c.64,2.87.54,4.34-.4,5.34v.18a4.16,4.16,0,0,1-1.44,3.59,2.49,2.49,0,0,1,1.17,1.3,4.31,4.31,0,0,1-.2,3.58,6.17,6.17,0,0,1-.12,1.55,3.92,3.92,0,0,1,.87,2,3.43,3.43,0,0,1-.87,2.56,2.48,2.48,0,0,1-1.18.77,2.31,2.31,0,0,1,0,.64,17.89,17.89,0,0,0-.06,4.16c0,.44.06.88.08,1.34,0,.21,0,.53.06,1,.07,1,.17,2.5.23,4.16a3.46,3.46,0,0,1,3.21,2.17,2.89,2.89,0,0,1,.12,1.28,11.53,11.53,0,0,1,3,.05l.2,0c1,.15,3.15.44,3.92,2.44a3.08,3.08,0,0,1-.07,2.42,3.87,3.87,0,0,1-2.49,1.9l-.29.1-.31.14.77.24c.86.31,2.67,1,3,2.79a3.16,3.16,0,0,1,.05.67,6,6,0,0,1,3.71,2.27,2.49,2.49,0,0,1,.35,2.18,2.45,2.45,0,0,1-1.51,1.61A19.19,19.19,0,0,1,181.89,240.64Zm-33.27-5.49c3,0,6,.1,8.89.2,2.68.09,5.45.18,8.16.19l6.79.05c2.52,0,5,0,7.56,0a2.63,2.63,0,0,1,0-1.12l-.85-.07-.51-.05a4,4,0,0,1-3.31-1.74,3.43,3.43,0,0,1-.15-3.22,4.72,4.72,0,0,1,.48-.92l-.25.09c-.43.14-.87.33-1.49.6l-.82.35a2.5,2.5,0,0,1-3.42-2.81c0-.19.06-.32.09-.46a2.61,2.61,0,0,1,.34-.93,19.81,19.81,0,0,1,1.24-1.79,3.51,3.51,0,0,1-.4-.27,2.52,2.52,0,0,1-.95-1.93c0-2.29-.18-4.54-.27-5.88,0-.46-.05-.82-.06-1,0-.44-.05-.86-.08-1.27s-.06-1.08-.08-1.62c-1.07.27-2.07.51-2.47.57-1.67.26-3.38-.82-5.7-3.59a2.56,2.56,0,0,1-.56-1.9,2.5,2.5,0,0,1,1-1.71c1.49-1.11,5.63-1.59,8.72-1.76a2.57,2.57,0,0,1,.32-1,3.14,3.14,0,0,1-.25-.44c-5.74.85-14.31,1.18-17.13-.36a2.5,2.5,0,0,1,.72-4.65c3-.58,6.52-1.57,9.94-2.52,2.69-.75,5.27-1.47,7.31-1.91a4.2,4.2,0,0,1,.77-2.75c0-.26-.09-.56-.15-.89-1,0-2.31-.09-4.21-.2l-3.93-.21c-3.62-.18-4.11-1.45-4.34-2.06a2.75,2.75,0,0,1,.14-2.23c.67-1.28,2.11-1.72,3.78-2.14l.23-.06c.28-.07.7-.2,1.21-.36,1.33-.41,3.21-1,5.08-1.45a2.54,2.54,0,0,1,.74-1.37q0-.09-.06-.21l-.18-.44a14.15,14.15,0,0,1-.47-1.36c-1.84.48-3.71,1-4.27,1-1.68.25-3.38-.82-5.69-3.59a2.5,2.5,0,0,1,.42-3.61c1.53-1.14,5.67-1.59,8.61-1.75-.21-.79-.47-1.66-.79-2.56a1.66,1.66,0,0,1-.06-.21,30.38,30.38,0,0,1-8,.11c-.53-.1-3.22-1.28-3.94-2.42a2.67,2.67,0,0,1-.14-2.65c.74-1.49,2.33-1.61,3.48-1.7l.55,0a46.73,46.73,0,0,1,5.93-1.65l-.18-.37a5,5,0,0,1-.34-2.09c0-.13,0-.25,0-.37a19.47,19.47,0,0,1-11.32-1.08,2.5,2.5,0,0,1,0-4.57c.85-.38,2.58-.94,8.3-2-.4-1.3-.75-2.56-1.13-3.93l-.87-3.07a18.92,18.92,0,0,0-2.4-4.8,2.52,2.52,0,0,1-.28-2.09l.42-1.34c-.19,0-.38,0-.59.07a2.5,2.5,0,0,1-2.35-1.65,8.85,8.85,0,0,1-.45-1.77l-.21-.3a2.52,2.52,0,0,1,0-2.48c.53-.95,1.4-2.53,3.25-2.3,1.46.18,2,1,2.27,2.52.07-.2.14-.39.21-.55a3,3,0,0,1,.23-.44,3.4,3.4,0,0,1,.26-.5,3,3,0,0,1,.4-.47,2.53,2.53,0,0,1,3.08-.28c1,.62,1.3,1,1.56,5.77l1.59-2.76a2.62,2.62,0,0,1,3-1.22,2.29,2.29,0,0,1,1.64,1.79,2.18,2.18,0,0,1,2.21-.21c1.75.58,1.86,2.11,1.68,3.54a5.14,5.14,0,0,1,2.52-1.5,3.21,3.21,0,0,1,2.51.49c1.42,1,1.28,2.23.64,3.6a2,2,0,0,1,2.58-.21,2.53,2.53,0,0,1,1.33,1.55,2.61,2.61,0,0,1,.13.84,2.39,2.39,0,0,1,1.68.34c1.93,1.09,1.84,3.07,1,5.35,1.64-.75,2.67-.86,3.72-.12a2.66,2.66,0,0,1,1.06,1.86,2.53,2.53,0,0,1-.12,1.07,2.36,2.36,0,0,1,1.57.5,2.7,2.7,0,0,1,1.11,2.09,2.57,2.57,0,0,1,0,.48,2.51,2.51,0,0,1,2,1.33,2.48,2.48,0,0,1,.28,1.24,2.44,2.44,0,0,1,1.09.42,2.58,2.58,0,0,1,1.07,1.85l.06,0c-.27-1.15-.59-2.28-1-3.41a47.1,47.1,0,0,0-2.3-5.81A45.37,45.37,0,0,0,193.9,137a40.31,40.31,0,0,0-8.64-9.46,35.28,35.28,0,0,0-7.06-4.32l-.11,0a32.09,32.09,0,0,0-4-1.49,2.2,2.2,0,0,0-1.37-.37,32.75,32.75,0,0,0-4.29-.79,2.46,2.46,0,0,1-1.15-.42,2.54,2.54,0,0,1-1.22.27c-.48,0-1,0-1.44,0a2.51,2.51,0,0,1-2.43-3.21l.36-1.17c.2-.67.43-1.44.46-1.68a2.55,2.55,0,0,1,2.37-2.66,2.25,2.25,0,0,1,1.78.53c.84-3.81,1.6-4.12,2.86-4.3,1.46-.24,2.21.45,2.86,1.86a4.69,4.69,0,0,1,.65-2.38,2.52,2.52,0,0,1,2.8-1c1.17.35,1.56.62,3,5.13.45-1.56.8-2.81.9-3.19a2.63,2.63,0,0,1,2.65-1.93,2.33,2.33,0,0,1,2,1.31,2.31,2.31,0,0,1,2-.86c1.85.08,2.37,1.54,2.56,2.93a5.33,5.33,0,0,1,2.08-2.15,3.24,3.24,0,0,1,2.51-.19c1.63.55,1.85,1.74,1.6,3.19a2,2,0,0,1,2.34-.83,2.56,2.56,0,0,1,1.73,1.16,2.65,2.65,0,0,1,.33.71,2.28,2.28,0,0,1,1.66-.11c2.17.52,2.6,2.41,2.38,4.78,1.38-1.14,2.31-1.49,3.49-1.07a2.59,2.59,0,0,1,1.55,1.54,2.72,2.72,0,0,1,.17,1,2.36,2.36,0,0,1,1.57.08,2.65,2.65,0,0,1,1.64,1.72c0,.14.07.28.1.42a2.51,2.51,0,0,1,2.22.79,2.41,2.41,0,0,1,.58,1.06,2.72,2.72,0,0,1,1.13.12,2.56,2.56,0,0,1,1.51,1.48h.15c-.55-1-1.14-2.06-1.78-3a44.09,44.09,0,0,0-3.64-4.93,41.65,41.65,0,0,0-4.32-4.39,38.09,38.09,0,0,0-10.68-6.67,33.41,33.41,0,0,0-13-2.55,31.36,31.36,0,0,0-6.81.8,33,33,0,0,0-4.14,1.27,1.66,1.66,0,0,1-.42.12,2.31,2.31,0,0,1-.35.18c-.55.22-1.08.45-1.61.71l-.38.19-.28.14a2.44,2.44,0,0,1-1,.26,2.47,2.47,0,0,1-.77.7c-.8.47-1.58,1-2.3,1.46a2.58,2.58,0,0,1-.92.39,2.45,2.45,0,0,1-.64.76,32.06,32.06,0,0,0-2.44,2.09,2.53,2.53,0,0,1-1.94.66,2.51,2.51,0,0,1-.59,2l-.78.91a2.48,2.48,0,0,1-3,.68c-1.22-.56-2.38-1.09-2.75-2.38a2.58,2.58,0,0,1,.31-2.1c.86-1.3,2.34-1.38,3.79-1.29-1.34-1.56-2.53-3.63-1-5.5a2.37,2.37,0,0,1,1.64-1,2.64,2.64,0,0,1,.45-2.86c.71-.79,1.18-1.07,2.91-.64-1.21-1.1-2-2.31-.93-3.84a3.29,3.29,0,0,1,2.23-1.39,5.31,5.31,0,0,1,3.07.59c-1.14-2.21-1.11-3.14.13-4.2a2.36,2.36,0,0,1,2.3-.54,2.36,2.36,0,0,1,.9-2.55,2.62,2.62,0,0,1,3.24.11l2.47,2c-1.4-5.1-1.15-5.44-.5-6.3a2.52,2.52,0,0,1,2.82-.88,4,4,0,0,1,1.9,1.55c-.38-2.13-.05-2.73,1.12-3.41,1.49-.87,2.79-.2,4.72,1.63a2.17,2.17,0,0,1,1.25-1.68,2.57,2.57,0,0,1,3.47,1c.08.09.56.47,1,.82a2.12,2.12,0,0,1,.11-.21,2.56,2.56,0,0,1,1.88-1.3c.86-.11,1.32-.18,3.6,1.89a1.66,1.66,0,0,1,.13-.27,2.71,2.71,0,0,1,2.09-1.37l.19,0A31.58,31.58,0,0,0,178.31,79a32.24,32.24,0,0,0-6.5,2.34c-.58.28-1.2.61-1.88,1l-.17.09-.21.14a34.09,34.09,0,0,0-3.73,2.5,2.52,2.52,0,0,1-.63.41,2.67,2.67,0,0,1-.43.46,37.59,37.59,0,0,0-2.89,2.69,2.4,2.4,0,0,1-.72.52,2.63,2.63,0,0,1-.46.77c-.41.46-.8.93-1.18,1.41a2.48,2.48,0,0,1-1.11.8,2.61,2.61,0,0,1-.45,1.31c-.37.54-.73,1.08-1.08,1.63a2.48,2.48,0,0,1-2,1.16,2.5,2.5,0,0,1,0,2.29c-.15.3-.29.6-.43.89l-.1.22a2.51,2.51,0,0,1-1.33,1.24,2.49,2.49,0,0,1,0,1.82c-.16.42-.31.83-.46,1.25a2.5,2.5,0,0,1-1.59,1.55,2.48,2.48,0,0,1-2.19-.33,3.31,3.31,0,0,1-1.55-3.62,2.5,2.5,0,0,1,1.15-1.56,2.52,2.52,0,0,1-.62-.71,2.57,2.57,0,0,1-.23-2.06c.35-1.11,1.05-1.55,2.44-1.87-1.55-.42-2.81-1.16-2.5-3,.4-2.32,2.46-3,4.62-3.08-2-1.46-2.45-2.34-1.78-3.87a2.23,2.23,0,0,1,1.92-1.54,2.41,2.41,0,0,1-.33-2.65,2.65,2.65,0,0,1,2.92-1.39h0c.38.09,1.73.37,3.39.71l-.33-.37c-2.5-2.9-3.35-3.88-2.86-5.42a2.53,2.53,0,0,1,2-1.73,4.51,4.51,0,0,1,2.7.63c-1.34-1.78-1.45-2.58-.63-3.78.94-1.4,2.3-1.43,5.08-.61a2.14,2.14,0,0,1,.3-2.2,2.54,2.54,0,0,1,3.45-.74,14,14,0,0,0,1.4.3v-.32a2.55,2.55,0,0,1,1.08-2c.73-.5,1.12-.77,4.16,0a1.77,1.77,0,0,1,0-.4,2.71,2.71,0,0,1,1.24-2.17l.14-.09a32.87,32.87,0,0,0-7.77,1.45,33.88,33.88,0,0,0-11.69,6.47,34.71,34.71,0,0,0-5,5.17,37.26,37.26,0,0,0-3.91,6.17,40.86,40.86,0,0,0-4.06,13.65,2.5,2.5,0,0,1-4.52,1.15c-.64-.89-1.31-1.76-2-2.56a34.77,34.77,0,0,0-10.43-8.48,31.37,31.37,0,0,0-6.37-2.51,30.24,30.24,0,0,0-6.68-1,31.77,31.77,0,0,0-12.88,2.18,33.63,33.63,0,0,0-4.46,2.13h0c-.51.29-1,.6-1.52.92l-.26.17-.09.06c-.32.21-.64.42-1,.65a2.65,2.65,0,0,1,2.22,1l.13.17c2-2.45,2.39-2.48,3.24-2.54a2.54,2.54,0,0,1,2.14,1,.76.76,0,0,1,.08.11,13.46,13.46,0,0,0,1-1.16,2.54,2.54,0,0,1,3.27-1.41,2.23,2.23,0,0,1,1.43,1.3c1.75-2.3,2.83-3,4.38-2.47S113,84.79,113,86.14a4.16,4.16,0,0,1,1.51-1.71,2.52,2.52,0,0,1,3,.36c.84.81,1.08,1.26.44,6.07l2-2.36a2.64,2.64,0,0,1,3.22-.63,2.31,2.31,0,0,1,1.28,2.21,2.35,2.35,0,0,1,2.23.19c1.6.94,1.36,2.52.9,3.9a5.11,5.11,0,0,1,2.78-1h0a3.24,3.24,0,0,1,2.37,1c1.21,1.28.77,2.5-.18,3.75a2.27,2.27,0,0,1,2.68.26,2.51,2.51,0,0,1,1,1.8,2.38,2.38,0,0,1-.06.89,2.28,2.28,0,0,1,1.63.67c1.68,1.48,1.17,3.42-.1,5.51,1.8-.42,2.85-.32,3.73.64a2.54,2.54,0,0,1,.66,2,2.46,2.46,0,0,1-.35,1.06,2.41,2.41,0,0,1,1.49.81,2.71,2.71,0,0,1,.55,2.77,2.5,2.5,0,0,1,1.73,3,2.44,2.44,0,0,1,1,.69,2.54,2.54,0,0,1,.65,2,2.69,2.69,0,0,1,.85.63h0a2.66,2.66,0,0,1,.7,2.32,3.45,3.45,0,0,1-2.12,2.35,2.57,2.57,0,0,1-3.26-1l-.11-.18-.27-.43-.23-.35a2.72,2.72,0,0,1-.36-.93,2.52,2.52,0,0,1-.74-.68l-.12-.17-.4-.54a2.54,2.54,0,0,1-.47-1.14,2.48,2.48,0,0,1-1-.72l-.16-.2-.15-.18-.43-.48a2.66,2.66,0,0,1-.52-1,2.52,2.52,0,0,1-1-.62c-.46-.48-.93-.94-1.41-1.39a2.42,2.42,0,0,1-.62-.91,2.43,2.43,0,0,1-1-.51c-.53-.44-1.07-.88-1.62-1.31a2.43,2.43,0,0,1-.63-.69,2.35,2.35,0,0,1-.84-.38,39.08,39.08,0,0,0-3.6-2.19,1.85,1.85,0,0,1-.37-.25,2.35,2.35,0,0,1-.44-.17c-.89-.45-1.74-.84-2.59-1.19l-.34-.14-.23-.08-.15-.07-.16,0a32.57,32.57,0,0,0-12.08-2.21,31.52,31.52,0,0,0-13.33,3.07,35,35,0,0,0-10.82,8.09,37.72,37.72,0,0,0-4.88,6.77,2.62,2.62,0,0,1,2.24,0,1.51,1.51,0,0,1,.18.09c.75-3.19,1.12-3.42,1.82-3.84a2.5,2.5,0,0,1,2.39-.11l.11,0h0a16.19,16.19,0,0,0,.46-1.67A2.56,2.56,0,0,1,91.93,115a2.27,2.27,0,0,1,1.79.53c.63-3,1.26-4.07,2.86-4.3s2.3.65,2.86,1.86a4.42,4.42,0,0,1,.65-2.38,2.52,2.52,0,0,1,2.86-1c1.11.36,1.52.67,2.91,5.1.44-1.53.8-2.76.91-3.17a2.62,2.62,0,0,1,2.65-1.94,2.3,2.3,0,0,1,2,1.31,2.38,2.38,0,0,1,2-.86c1.85.08,2.38,1.53,2.57,2.93A5.25,5.25,0,0,1,118.1,111a3.24,3.24,0,0,1,2.51-.19c1.63.56,1.85,1.75,1.6,3.19a2,2,0,0,1,2.34-.83,2.56,2.56,0,0,1,1.73,1.16,2.37,2.37,0,0,1,.33.71,2.31,2.31,0,0,1,1.67-.11c2.18.52,2.58,2.52,2.37,4.78,1-.88,2.16-1.54,3.49-1.07a2.59,2.59,0,0,1,1.54,1.5,3.68,3.68,0,0,1-.58,3.16,2.53,2.53,0,0,1-1.92,1.31c-.44,0-.87.1-1.31.17a2.48,2.48,0,0,1-2.09-.65,2.49,2.49,0,0,1-1.64,1.46c-1,.3-2.07.64-3,1a33.45,33.45,0,0,0-6.22,3.24,38.19,38.19,0,0,0-10,9.73,45,45,0,0,0-6,11.94,50.4,50.4,0,0,0-2.45,12.63c0,.82-.08,1.64-.09,2.45a2.55,2.55,0,0,1,.52-1.26,2.52,2.52,0,0,1,1-.78,2.55,2.55,0,0,1-.1-1.23,2.5,2.5,0,0,1,1.66-2,3.61,3.61,0,0,1-.17-.46,2.68,2.68,0,0,1,.47-2.35,2.48,2.48,0,0,1,1.55-1,2.4,2.4,0,0,1-.45-1,2.59,2.59,0,0,1,.49-2.1c.82-1,1.89-1.23,3.84-1-1.44-2-2.16-3.91-.6-5.55a2.31,2.31,0,0,1,1.69-.83,2.43,2.43,0,0,1-.16-.95,2.57,2.57,0,0,1,.81-1.86c.81-.74,1.43-.91,2.94-.42-1.15-1.21-1.82-2.44-.64-3.9a3.29,3.29,0,0,1,2.32-1.22,5.23,5.23,0,0,1,3,.81c-.59-1.37-1.06-3,.48-4.13a2.31,2.31,0,0,1,2.31-.38,2.37,2.37,0,0,1,1.1-2.46,2.63,2.63,0,0,1,3.23.37l2.28,2.21-.07-.37,1.67-.4,0,0-1.66.31-.19-1a.15.15,0,0,0,0-.07c-.08-.5-.16-.94-.21-1.32-.22-1.43-.42-2.77.82-3.74a2.52,2.52,0,0,1,2.51-.33,4.3,4.3,0,0,1,1.77,1.67c-.16-1.53,0-2.61,1.37-3.26,2-1,3.46.7,5.3,2.83a2.6,2.6,0,0,1,.41-.53l0,0a3.54,3.54,0,0,1,.35-.42l.12-.11.26-.21.29-.19.09-.05a3.92,3.92,0,0,1,.36-.16h0a2.81,2.81,0,0,1,.31-.1,3.62,3.62,0,0,1,.58-.08,3.24,3.24,0,0,1,.44,0h0a2.24,2.24,0,0,1,.45.09,1.9,1.9,0,0,1,.36.12l.08,0h0a2.39,2.39,0,0,1,.49.28,3.29,3.29,0,0,1,.41.33,3.08,3.08,0,0,1,.26.24,2.49,2.49,0,0,1,.74,1.91,2.53,2.53,0,0,1-.95,1.83,10.67,10.67,0,0,1-1.6,1l-.23.11,0,0a2.13,2.13,0,0,1,.16.25,5.41,5.41,0,0,0,.83,1.15,2,2,0,0,1,.22.27l.24.34.4.57.06.09.24.36.08.12a3.36,3.36,0,0,1,.3.6,11.13,11.13,0,0,1,.47,2.18c.45,3.19-.36,6.23-1.08,8.92-.26,1-.51,1.93-.7,2.85a5.76,5.76,0,0,1-.92,2.07c-.05.09-.12.19-.17.27a.61.61,0,0,0,.05.12,5.07,5.07,0,0,1,.22,3.61l-1.51,4.56-1,5.41a2.44,2.44,0,0,1-.67,1.28,3.51,3.51,0,0,1,0,1.21,3.6,3.6,0,0,1-.57,1.38.5.5,0,0,0,0,.12,8.47,8.47,0,0,1,.1,1,3.91,3.91,0,0,1-.69,2.32,2.53,2.53,0,0,1-.33,1.31c-.3.52-.24,1.16.24,2.64a2.49,2.49,0,0,1-.11,1.84l-1,2.18a90.88,90.88,0,0,0,.2,10.57,2.48,2.48,0,0,1-.06.77,9,9,0,0,0,.47,5.57,2.48,2.48,0,0,1-.14,2.22,2.48,2.48,0,0,1,.5,2.45c-1.06,3.18-.27,7,.43,10.32,0,.19.1.38.15.57l.06.19a2.5,2.5,0,0,1-.77,2.56,5.55,5.55,0,0,0-.66.65,7.63,7.63,0,0,0,.13,1.15c.2,1.33.5,3.33-1,4.78a2.57,2.57,0,0,1-.4.34,3,3,0,0,1-.43,3.4,3.75,3.75,0,0,1-3.9,1.05l-.15,0A6.24,6.24,0,0,0,131,229a2.87,2.87,0,0,1,.29.31,3.21,3.21,0,0,1,.72,2.37c-.17,1.66-1.45,2.86-3.44,3.31,1.71,0,3.41.09,5.07.15,3.27.13,6.65.25,9.91.09C145.22,235.18,146.92,235.15,148.62,235.15Zm-20.8-2.28Zm46-13.68Zm-36.24-.8Zm-.7-46.94Zm-36.49-4.27v.23l0,0A1.52,1.52,0,0,1,100.35,167.18Zm59.88-8.08ZM133,142.37l0,0,1.26-.53Zm-.45-2.81.05.05.19,0-.05-.07Zm6.15-.25h0Zm-7.47-1h0l.66-.16,0,0Zm7.94-1.67h0ZM144,131a1.08,1.08,0,0,1,0,.19A1,1,0,0,0,144,131Zm0,0h0Zm0,0h0Zm-2.72-3.32-.15,0Zm3.11-3.55a1.39,1.39,0,0,0,.3.26l.12-1.79-.1,0a2.53,2.53,0,0,1-.92.22,2.39,2.39,0,0,0,.6,1.26h0ZM130.85,121a2.35,2.35,0,0,0,.21,1l.36-.16-.09-.59Zm27.54-10-.29.63.47-.1A2.35,2.35,0,0,0,158.39,111Zm-7.56-8.74.39,1.86a2.37,2.37,0,0,0,.89-1.33,1.82,1.82,0,0,0-.45-1.75Zm-34.75-1.8.12,0c0-.06,0-.13,0-.19Zm-4.86-1a4.29,4.29,0,0,1-.74.74h.88A2.62,2.62,0,0,1,111.22,99.5Zm71.64-2.93c0,.12,0,.25,0,.37l.35,0C183.13,96.82,183,96.7,182.86,96.57Zm22.08-5.33h0Zm0,0Zm-87.43-2.91ZM157,77.89Zm11.22-2,1,1.14.37-.19.44-.21Zm7.66-2.39a4.43,4.43,0,0,1,.47.83l.75-.19.22,0h0C176.86,73.89,176.38,73.7,175.92,73.52ZM168,66.3h0Z"/><path d="M167.6,154.07a2.51,2.51,0,0,1-2.13-1.19,2.48,2.48,0,0,1-1.43-1.44c-.17-.44-.31-.84-.45-1.23l-.15-.43a2.5,2.5,0,0,1,1.94-3.3l3.63-.61c.91-.15,1.65-.27,2.11-.36a2.51,2.51,0,0,1,2.91,2.87l-.35,2.15a2.51,2.51,0,0,1-1.34,1.83,24.65,24.65,0,0,1-4,1.6A2.64,2.64,0,0,1,167.6,154.07Z"/><path d="M170.55,165.29a2.5,2.5,0,0,1-2.48-2.22,2.73,2.73,0,0,1-.43-.47,2.51,2.51,0,0,1-.4-2,2.63,2.63,0,0,0,0-.9,2.49,2.49,0,0,1,.51-1.88,2.54,2.54,0,0,1,1.7-.94,7.53,7.53,0,0,1,1.37-.05,2.5,2.5,0,0,1,2.29,2.08l.55,3.23a2.5,2.5,0,0,1-1.34,2.66,7.68,7.68,0,0,1-.89.35l-.1,0A2.44,2.44,0,0,1,170.55,165.29Z"/><path d="M171.78,176a2.5,2.5,0,0,1-2.24-3.62h0a3.37,3.37,0,0,0,0-1.13,2.51,2.51,0,0,1,2.6-2.69h.1a3.58,3.58,0,0,1,.51,0,2.46,2.46,0,0,1,.47.1l3.47,1.15a2.5,2.5,0,0,1,.41,4.57c-.28.15-.76.41-4.7,1.49A2.5,2.5,0,0,1,171.78,176Z"/><path d="M172.2,210.77a2.5,2.5,0,0,1-2.46-2.92,4,4,0,0,1,.08-.53,5.6,5.6,0,0,1,2-3,2.18,2.18,0,0,0,.27-.24,2.63,2.63,0,0,1,2.68-.75l3.28,1.08a2.5,2.5,0,0,1,.41,4.58c-.29.15-.83.45-5.59,1.73A2.37,2.37,0,0,1,172.2,210.77Z"/><path d="M173.16,188.61a2.49,2.49,0,0,1-2.49-2.38,2.44,2.44,0,0,1,.38-1.46,3,3,0,0,1-.21-.44,2.48,2.48,0,0,1,.28-2.29,2.56,2.56,0,0,1,.45-1.76,2.51,2.51,0,0,1,1.75-1,11.85,11.85,0,0,1,1.6-.09,2.52,2.52,0,0,1,2.29,1.69l1.24,3.62a2.5,2.5,0,0,1-1.25,3,8.07,8.07,0,0,1-4,1.09Z"/><path d="M173.87,201a2.52,2.52,0,0,1-2.13-1.19,2.51,2.51,0,0,1-.54-3.5.38.38,0,0,1-.09-.09,2.5,2.5,0,0,1,1.4-4.16,8.87,8.87,0,0,1,3.21-.14,2.48,2.48,0,0,1,2,2.45v3.56a2.49,2.49,0,0,1-1.13,2.09,8.15,8.15,0,0,1-2,.87A2.57,2.57,0,0,1,173.87,201Zm-1.44-5.58Z"/><path class="cls-2" d="M158.79,212.12h0a15.82,15.82,0,0,1-.69,1.52A12.63,12.63,0,0,1,157,215.4c-.29.35-.56.66-.83.93a2.73,2.73,0,0,1-.25.23,4.11,4.11,0,0,1-.51.45,2.34,2.34,0,0,1-.27.2,4.1,4.1,0,0,1-.43.26l-.26.12a2.14,2.14,0,0,1-.38.13,1.09,1.09,0,0,1-.25,0,1.29,1.29,0,0,1-.34,0,1.33,1.33,0,0,1-.21,0,1.28,1.28,0,0,1-.33-.11,1.42,1.42,0,0,1-.18-.08,2,2,0,0,1-.34-.26l-.1-.08a3.14,3.14,0,0,1-.39-.48l-.12-.21q-.1-.18-.21-.39a2.71,2.71,0,0,1-.13-.3c0-.13-.11-.26-.15-.39a2.65,2.65,0,0,1-.12-.37l-.12-.4c0-.14-.07-.28-.1-.42s-.06-.28-.08-.41l-.09-.47c0-.13,0-.27,0-.4s-.05-.34-.07-.51l0-.38c0-.18,0-.36,0-.54h0c0-.64,0-1.28,0-1.9-.31,3.6-.61,7.2-.92,10.8-2.2.12-4.19-1.26-5.81-2.75a23.4,23.4,0,0,0-4.49-3.68h0a7.55,7.55,0,0,0-.69-.37,7.55,7.55,0,0,1,.69.37l.34-.18h0a17.92,17.92,0,0,1,3.36,1l.16.07a17.63,17.63,0,0,1,3.05,1.58,1.4,1.4,0,0,0,.66.29c.79.07,1-1.06,1-1.85-.1-1.09-.28-2.16-.4-3.24h0a123.25,123.25,0,0,0-2.24-13.38c3.44,3.68,5.44,8.37,7,13.19h0c.51,1.54,1,3.08,1.44,4.62,0-.11,0-.32.17-.61.07-.14.2-.35.3-.53s.18-.32.31-.53.44-.67.69-1l.2-.31c.33-.48.69-1,1.06-1.48h0c1.67-2.32,3.55-4.75,3.91-5.32A38,38,0,0,1,158.79,212.12Z"/></svg>