<svg id="Calque_1" data-name="Calque 1" xmlns="http://www.w3.org/2000/svg" viewBox="0 0 300 300"><defs><style>.cls-1{fill:#1d1d1b;}</style></defs><title>picto_poitou_charente</title><path class="cls-1" d="M150,6A144,144,0,0,1,251.82,251.82,144,144,0,1,1,48.18,48.18,143,143,0,0,1,150,6m0-6A150,150,0,1,0,300,150,150,150,0,0,0,150,0Z"/><path class="cls-1" d="M244.83,247.36a4.75,4.75,0,0,1-2.8-1.22,6.12,6.12,0,0,0-.54-.39,15.79,15.79,0,0,0-1.89-.86c-.76-.29-3.09-1.18-3.82-3.38a4.46,4.46,0,0,1-.15-2.15l-.45-.24a2.5,2.5,0,0,1-1.19-3l.09-.27-.25-.09a2.53,2.53,0,0,1-1.54-1.41,2.48,2.48,0,0,1,.07-2.08c0-.08.06-.17.1-.26a5.08,5.08,0,0,1,.59-1.21,4,4,0,0,1-1.8-2.78,3.78,3.78,0,0,1,.6-2.47l-.2-.31a2.47,2.47,0,0,1-.27-2.19,14.36,14.36,0,0,1,6.68-7.54,4.94,4.94,0,0,0,.44-.38,6.36,6.36,0,0,1,1.77-1.27,15.5,15.5,0,0,1,2.33-.77c.06-.81.14-1.73.29-2.64.22-1.38,1.64-3.27,3.48-3.27h.07a4.28,4.28,0,0,1,3.5,2.48l.07.14a7.12,7.12,0,0,1,.84,4.15,14.91,14.91,0,0,0,.56,5.83c.57,2.55,1.22,5.43.45,8.51v0a4.33,4.33,0,0,1,0,1.37l-.41,2.08c-.76,3.75-1.53,7.63-2.41,11.44a5.64,5.64,0,0,1-3.27,4A2.9,2.9,0,0,1,244.83,247.36Zm-1-4.7Zm-3.12-2.75a5.59,5.59,0,0,0,.69.31,21.06,21.06,0,0,1,2.48,1.13l.38.22c.81-3.58,1.55-7.25,2.26-10.8l.39-1.93v-.09a4.33,4.33,0,0,1,.1-1.58c.53-2,.08-4-.45-6.32-.24-1.11-.51-2.28-.66-3.5l-.21.07-1.32.36a12.91,12.91,0,0,0-2.05.63s-.24.21-.38.35a8.29,8.29,0,0,1-1.29,1,10.22,10.22,0,0,0-4.05,3.81l.53.8a2.49,2.49,0,0,1-.12,2.91,3.87,3.87,0,0,1,1.83,2.9,3.81,3.81,0,0,1-.14,1.3,2.56,2.56,0,0,1,.79.68,2.5,2.5,0,0,1,.37,2.32l-.42,1.21.55.3a2.47,2.47,0,0,1,1.25,1.57,2.55,2.55,0,0,1-.31,2A4,4,0,0,0,240.69,239.91Zm11.12-11.44h0Z"/><path class="cls-1" d="M185.22,220.48a2.56,2.56,0,0,1-2.54-1.95c-.52-2.18,1.58-3.08,2.6-3.51a2.47,2.47,0,0,1,1.61-.12,2.66,2.66,0,0,1,2.07,2.81c-.23,2.49-3.38,2.75-3.51,2.76Zm-.17-5a2.33,2.33,0,0,0-1.07,2.16,2.35,2.35,0,0,0,1.64,2.1l.63-2.42.89,2.08a2.48,2.48,0,0,0,.31-2.33A2.41,2.41,0,0,0,185.05,215.48Z"/><path class="cls-1" d="M147,239.57a30.65,30.65,0,0,1-13.18-2.83h0a2.47,2.47,0,0,1-.85-.6,28.07,28.07,0,0,0-3.73-2.21c-6.34-2.82-7.08-2.52-7.62-2.31-1.4.56-3,1-6.91.1-7.09-1.6-14.73-3.72-22.52-8.43A34.27,34.27,0,0,1,85,218a37.78,37.78,0,0,0-5.58-4.48,2.5,2.5,0,0,1,.91-4.5c7.9-1.65,9.88-19.45,11.2-31.24.57-5.16,1.07-9.62,1.92-12.54a2.5,2.5,0,0,1,.68-1.11A8.29,8.29,0,0,1,92.92,162c-.41-1.13-.35-2.57-.22-5,.11-1.91.26-4.8-.21-5.93-.94-2.24-2.92-4.47-4.84-6.62-3.35-3.77-7.43-8.35-6.1-14.13a33.76,33.76,0,0,1-8.27-7c-3.66-.44-6.48-2.52-9.42-4.69-.88-.64-1.8-1.32-2.8-2-.35-.24-.79-.21-1.78-.09a5.86,5.86,0,0,1-4-.57,8.81,8.81,0,0,1-2.43-2.65c-1.06-1.55-1.79-2.49-2.93-2.55a2.5,2.5,0,0,1-2.27-3.18,4.19,4.19,0,0,1,3.17-2.77v0a2.73,2.73,0,0,1-.13-1.15c-.32-.1-.64-.22-.95-.35A2.5,2.5,0,0,1,48.34,100C53.94,86.13,68.41,91.1,80,95.1c5.07,1.74,10.28,3.52,13.59,3.32-.2-1.7-.57-4.2-.88-6.35-1.9-13-1.95-15-.36-16.32A6.44,6.44,0,0,1,97.82,74c3.56.63,5.67,4.39,6.69,6.2a.75.75,0,0,0,.07.12l1.93,1c3.68,1.93,7.19,3.78,11.33,3.21a4.48,4.48,0,0,1-.07-1.13c.29-3.83,5.44-6.28,15.47-9.73.92-.32,1.95-.67,2.42-.86,1.67-1.77,1.93-3.73,2.26-6.19a16.14,16.14,0,0,1,2.25-7.23c2.9-4.4,5.91-6.85,9.22-7.48,4.77-.92,8.94,2,13.36,5.07l1.18.82c3,2.06,5.49,5,7.91,7.93,3.07,3.65,6,7.1,8.75,7.32,1.31.11,2.71-.51,4.3-1.88a2.48,2.48,0,0,1,2.6-.42A2.51,2.51,0,0,1,189,73c.53,8.75,5.09,9.87,12.64,11.72a60.88,60.88,0,0,1,8.15,2.41c2,.78,3.85,1.55,5.62,2.29a86.77,86.77,0,0,0,18.49,6,2.5,2.5,0,0,1,1.62,3.8c-3.44,5.36-4.51,9.55-5.76,14.41a87.73,87.73,0,0,1-2.67,9,39.29,39.29,0,0,0-1.54,5.25c-.71,3.18-1.61,3.74-4.82,4.56-.76.2-1.73.45-3,.83a29.33,29.33,0,0,1-2,4.92c-1.49,3.18-3.55,7.1-5.54,10.89l-1.93,3.68c1.64-.93,3.22-1.69,5-1,2.38.92,3.37,3.51,5.82,11.26h0a2.49,2.49,0,0,1,0,1.48,55.4,55.4,0,0,0,1,5.76,2.51,2.51,0,0,1,1,2.76l-.06.23c-1.05,3.75-1.66,5.42-5.24,8,3.37,3.44,3.37,6.07,2.18,9-.48,1.18-.53,1.3.29,2.26,1,1.12,7.45,4.53,9.64,5.3a2.5,2.5,0,0,1,2.77,1.84h0c1.65,6.34-3.58,10.81-7.4,14.08-.79.67-1.53,1.3-2.12,1.87-11.59,11.24-16.49,10.25-27.41,6.71-2.17-.7-4.61-1.49-7.45-2.26-3.46,1.14-6.8.26-9.77-.51s-5.77-1.51-8.65-.44c-4,1.49-6.75,3.81-8.06,6.73s-1.18,6.27.32,10.09a2.5,2.5,0,0,1-2.33,3.41h-.08c-2.28,0-4.24.1-6.14.2C150,239.5,148.5,239.57,147,239.57Zm-10.82-7.26c6.06,2.57,9.74,2.39,15.27,2.11l3.1-.14a16.57,16.57,0,0,1,.82-10.6c1.86-4.17,5.62-7.41,10.88-9.37,4.36-1.63,8.23-.61,11.65.28,2.8.73,5.21,1.36,7.41.43a2.47,2.47,0,0,1,1.61-.12c3.31.87,6.06,1.76,8.48,2.54,9.6,3.11,12.5,4.05,22.39-5.54.7-.68,1.5-1.36,2.35-2.08,3.16-2.7,5.65-5,5.92-7.52a43.56,43.56,0,0,1-4.53-2.12c-2.06-1.07-5.71-3.09-6.95-4.53-2.81-3.28-1.76-5.86-1.13-7.4.52-1.28.9-2.21-3.21-5.43a2.5,2.5,0,0,1,.24-4.1c4-2.47,4.7-3.11,5.43-5.47a19.64,19.64,0,0,1-1.07-4.09,45.89,45.89,0,0,1-.74-5.43v-.16a51.72,51.72,0,0,0-2.54-6.95c-.35.17-.81.44-1.2.66a32,32,0,0,1-6.54,3,2.49,2.49,0,0,1-2.55-.61,2.52,2.52,0,0,1-.59-2.56,104.29,104.29,0,0,1,5.15-10.46c2.47-4.7,6.51-12.39,7.1-14.68a2.63,2.63,0,0,1-.08-.93,2.5,2.5,0,0,1,1.72-2.12c2.28-.74,3.89-1.15,5-1.43l1.07-.28.12-.53a43.09,43.09,0,0,1,1.73-5.88,84.44,84.44,0,0,0,2.52-8.51,51.94,51.94,0,0,1,4.59-12.81,96,96,0,0,1-16-5.53c-1.74-.72-3.55-1.48-5.52-2.25a58.14,58.14,0,0,0-7.52-2.2c-6.79-1.67-13.78-3.38-15.87-12.23a9.27,9.27,0,0,1-4.4.78c-4.88-.39-8.6-4.82-12.19-9.1-2.21-2.63-4.5-5.35-6.92-7l-1.2-.82c-3.68-2.57-6.86-4.79-9.56-4.27-1.88.36-3.9,2.15-6,5.32a11.7,11.7,0,0,0-1.47,5.15c-.38,2.81-.85,6.31-4,9.34-.6.58-1.33.83-4,1.77-6.46,2.22-10.4,3.94-11.75,5.14l.2.11a2.5,2.5,0,0,1-.16,4.51c-7.86,3.42-14,.19-19-2.41-.81-.43-1.61-.85-2.4-1.23a3.8,3.8,0,0,1-1.64-1.87c-.49-.87-2-3.51-3.21-3.73a1.13,1.13,0,0,0-.71.17c0,2.2.89,8.37,1.46,12.21a72.86,72.86,0,0,1,1.07,9.14,2.49,2.49,0,0,1-1.53,2.19c-4.73,2-11.26-.24-18.82-2.84C67.08,95.93,58.94,93.7,54.66,99A2.5,2.5,0,0,1,57,103a5.39,5.39,0,0,1,1.8,2.86,2.48,2.48,0,0,1-2,3.13c-.22,0-.51.08-.86.11.38.48.71,1,1,1.38s.64.93.87,1.18c.22,0,.6-.05.86-.08a7,7,0,0,1,5.2.92c1.07.73,2,1.43,3,2.12,3.94,2.91,6,4.28,9.42,3.65a2.51,2.51,0,0,1,2.82,1.67,3.26,3.26,0,0,1,0,2.28,33.47,33.47,0,0,0,5.75,4.22,2.45,2.45,0,0,1,1.84,1,2.49,2.49,0,0,1,.26,2.57c-1.79,3.75.53,6.65,4.47,11.08a32.38,32.38,0,0,1,5.46,7.45,2.51,2.51,0,0,1,1.6-2.07l3.81-1.44c-1.16-3.34-2.4-6.66-2.94-7.7a2.55,2.55,0,0,1-.76-1.47A2.51,2.51,0,0,1,100.7,133a33.37,33.37,0,0,0,11.36-3.72,5.25,5.25,0,0,1,6.64.42l5.84,4.27a6.69,6.69,0,0,1,2.54,3,6.57,6.57,0,0,1,.13,3.43l-1.12,6.83v0l3.61,2.8a2.51,2.51,0,0,1,.64,3.21,49.89,49.89,0,0,0-3,7.18c-1.61,4.41-3.27,9-6.2,12.11h0a8.16,8.16,0,0,1-3.9,2.65A7.87,7.87,0,0,1,113,175a20.54,20.54,0,0,1-6.75-3.67,5.7,5.7,0,0,1,.13,1.55,2.5,2.5,0,0,1-4.09,1.82c-1.62-1.34-3.25-2.71-4.87-4.09-.34,2.21-.63,4.86-1,7.73-1.42,12.67-3.13,28-10.78,33.63,1.23,1,2,1.73,2.74,2.42a29.13,29.13,0,0,0,6.3,4.66c6.78,4.1,13.32,6.1,21,7.83,2.74.62,3.38.36,4,.14,2.25-.9,4-.95,11.51,2.38a26.53,26.53,0,0,1,3.31,1.85A14.63,14.63,0,0,1,136.15,232.31Zm-34.9-72.89.23.25c3.53,3.87,8.37,9.18,12.9,10.47a4.17,4.17,0,0,0,1.59.23,4.8,4.8,0,0,0,1.48-1.22h0c2.24-2.4,3.73-6.48,5.17-10.41.74-2,1.5-4.11,2.38-6l-2-1.57a4.81,4.81,0,0,1-1.57-1.82,5,5,0,0,1-.24-2.94l1.12-6.82a4,4,0,0,0,.09-.93,8.15,8.15,0,0,0-.78-.62l-5.84-4.27a6.06,6.06,0,0,0-.62-.41c-.17.06-.45.22-.65.32a38.36,38.36,0,0,1-9.69,3.67c.32.81.65,1.72,1,2.76,1,2.76,1.91,5.48,2,5.59a2.5,2.5,0,0,1-1.48,3.13L102,150.46c.09.73.18,1.37.27,2C102.67,155.05,102.83,156.81,101.25,159.42ZM125.79,147ZM96.27,78.56Z"/></svg>