<svg id="Calque_1" data-name="Calque 1" xmlns="http://www.w3.org/2000/svg" viewBox="0 0 99.86 100"><title>09_g_SNACKS CHOCOLATE BIO</title><path d="M60.43,16.36a23.44,23.44,0,0,0-1.75-2.23,7.7,7.7,0,0,0-1.22-1l.72-7.69A1,1,0,0,0,58,4.67a1,1,0,0,0-.69-.36L10.8,0A1,1,0,0,0,9.71.92L9,8.88C7.63,10.42.8,18.68.8,27c0,2.69-.07,5.46-.14,8.38C.29,49.73-.09,66,8.43,76.6L5.17,78.5a1,1,0,0,0-.64.69,1.29,1.29,0,0,0,0,.19v0a4.62,4.62,0,0,1-2.9,1.75l-.15-.06-.18,0a1.16,1.16,0,0,0-.18,0h0a.71.71,0,0,0-.25.06l-.13,0c-.06,0-.11.08-.16.11l-.16.11a.67.67,0,0,0-.07.11.74.74,0,0,0-.14.22h0a.63.63,0,0,0,0,.19.53.53,0,0,0,0,.18V91a1,1,0,0,0,.63.94L20,99.65a1,1,0,0,0,.91-.08l12.75-7.9,18.61,8.24a1,1,0,0,0,.41.09,1.07,1.07,0,0,0,.52-.14L99.43,72.32a1,1,0,0,0,.5-.87V62.63s0,0,0,0a.43.43,0,0,0,0-.05,1,1,0,0,0-.08-.29l0-.06a.87.87,0,0,0-.16-.23.23.23,0,0,0-.07-.07,1,1,0,0,0-.24-.17l0,0h0L64.38,48.07c0-.77,0-1.55,0-2.36v-.8c-.07-3.55-.11-5.1-.2-10.65a102,102,0,0,0-.82-11.69A16.27,16.27,0,0,0,60.43,16.36ZM18.73,73.14l12.55,5.29A15.63,15.63,0,0,0,32,81a7,7,0,0,1-2.46-1.27h0a1.3,1.3,0,0,0-.14-.26l0,0a1.29,1.29,0,0,0-.16-.17l-.1-.06-.13-.07L17.5,74.31A5.74,5.74,0,0,0,18.73,73.14ZM31.48,65.5,44,70.75a26.78,26.78,0,0,0,.13,3.32,4.61,4.61,0,0,1-1.78-1.78s0,0,0-.06a1.13,1.13,0,0,0-.08-.24.41.41,0,0,0-.05-.09.7.7,0,0,0-.15-.19s0,0,0-.06a1,1,0,0,0-.27-.17h0L30.25,66.66A5.7,5.7,0,0,0,31.48,65.5Zm9.39,8.33a6.52,6.52,0,0,0,2.1,2l-4.85,2.84a.39.39,0,0,0-.1.08l-.08.06a.88.88,0,0,0-.19.24v0a1.06,1.06,0,0,0-.1.3s0,0,0,0a8,8,0,0,1-3.4,1.86,15.1,15.1,0,0,1-.94-3Zm13.49-5-3.64,2a1,1,0,0,0-.51.93.78.78,0,0,0,0,.21,5.07,5.07,0,0,1-2,1.35l-.18-.08a1,1,0,0,0-.9.06L46.09,74A28.18,28.18,0,0,1,46,70.68l5.71-3Zm8.33,11.09s0,0,0-.06a.76.76,0,0,0-.08-.21.41.41,0,0,0-.05-.09,1,1,0,0,0-.16-.2l0,0a1.28,1.28,0,0,0-.25-.15L50.64,74.31a5.29,5.29,0,0,0,1.27-1.22l12.44,5.27a18.68,18.68,0,0,0,.19,2.71A3.92,3.92,0,0,1,62.69,79.88ZM52.53,84.25,40.88,79.34l5-2.91a1,1,0,0,0,.23-.13l1.71-1L59.45,80.2Zm12.69-7.71-11.71-5,3.18-1.79,11.71,5ZM39.05,80.76,51.58,86c0,.82,0,1.62,0,2.33l-14.91-6A7.88,7.88,0,0,0,39.05,80.76ZM53.63,88.5a23.16,23.16,0,0,1,0-2.47V86l7.78-4.55a5.77,5.77,0,0,0,1.9,1.32Zm12.9-7.71a18.16,18.16,0,0,1-.16-2.58l3.61-2,.53,2.17Zm5.1-6.29a1.4,1.4,0,0,0-.09-.17s-.05-.09-.07-.14a1.05,1.05,0,0,0-.07-.11,1,1,0,0,0-.41-.34L46.43,63.19c9.16,2,22.3,4.42,28.62-.66C76.4,64,77.5,65.45,77.57,67.4c.1,2.6-1.71,5.85-5.32,9.65Zm-34.16-13,11.82,5.07L44.91,69,33.22,64ZM27.4,67.64l11.65,4.92-6.91,4L20.48,71.69Zm.92,13.72A8.29,8.29,0,0,0,31,82.81l-9.66,6.07a10.76,10.76,0,0,1-.82-2.95Zm-6.79,9.77,11-6.89V90s0,0,0,0l-11,6.81Zm13-7.4,17,6.8v6.89l-17-7.55Zm19,7.15,17.08-10.2v6.41L53.58,97.26Zm26-23.55c-.12-3.25-2.32-5.45-3.78-6.91a1,1,0,0,0-1.42,0c-5.7,5.7-20.86,2.31-29.92.28-1.57-.36-2.94-.66-4.08-.88L59.5,48.34,96.64,62.82,76.93,74.59C78.79,71.93,79.67,69.52,79.59,67.33ZM62.39,31.21c.17,2.3-.12,4.75-.06,7.22q.09,3.34.05,6.48v.8c0,.54,0,1,0,1.58l-2.6-1a1,1,0,0,0-.88.07l-8.71,5.23c-.06-1.9-.09-3.91-.1-6,0-26.73,4.05-30.65,6.06-30.94,2.82,1,4.54,5.13,5.07,6.67C62,23.66,62.23,26.94,62.39,31.21ZM11.62,2.11,56.07,6.22l-.58,6.29L11,8.39ZM2.67,35.4c.08-2.93.15-5.71.15-8.43,0-7.25,6.08-14.88,7.55-16.62L53,14.3c-3.32,3.83-4.94,14.16-4.94,31.27,0,2.54,0,5,.14,7.2L37.85,59l-7.18,4.22a.92.92,0,0,0-.64.69,1.16,1.16,0,0,0,0,.18s0,0,0,0a4.38,4.38,0,0,1-2.08,1.55l-.19-.08a1,1,0,0,0-.9.06l-8.89,5.21a.94.94,0,0,0-.64.68,1.18,1.18,0,0,0,0,.2s0,0,0,0a4.31,4.31,0,0,1-2.08,1.54L15,73.24a1,1,0,0,0-.9.06l-3.88,2.27C1.93,65.51,2.31,49.54,2.67,35.4Zm12,39.89L26.31,80.2l-6.92,4L7.73,79.34ZM6,80.79l12.52,5.28a13.51,13.51,0,0,0,.35,1.83L4.32,82.23A5.79,5.79,0,0,0,6,80.79Zm-3.9,2.74,17.43,6.79v7l-17.43-7Zm70.59,2.36V79.47L97.91,64.4v6.48Zm-50.18-29c4.34,0,9.28-3,13.2-8.11,4.35-5.61,6.25-12.14,5-17a1,1,0,0,0-1.76-.38c-.11.13-.25.26-.36.4a7.53,7.53,0,0,0-4.5-5.1,3.92,3.92,0,0,1,.33-.36,1,1,0,0,0,.18-1.2,1,1,0,0,0-1.11-.5c-8,1.84-17.85,8.4-20.61,16.17A12.36,12.36,0,0,0,15,53,9.31,9.31,0,0,0,22.5,56.93ZM36.67,33.74a63.3,63.3,0,0,1-9.86,7,50,50,0,0,1,6-12.36C34.22,28.92,37,30.44,36.67,33.74ZM14.76,41.5C17,35.3,24.21,29.92,31,27.5c-2.6,3.86-5.8,10.36-6.71,15.18a1,1,0,0,0,1.55,1c.44-.29,1.07-.67,1.82-1.12A65,65,0,0,0,38.25,35l.1-.1c.23-.21.47-.42.68-.64.22,4-1.59,9-4.92,13.29-3.5,4.52-7.95,7.33-11.61,7.33a7.29,7.29,0,0,1-5.89-3.13A10.28,10.28,0,0,1,14.76,41.5Z" transform="translate(-0.07 0)"/></svg>