<?xml version="1.0" encoding="utf-8"?>
<!-- Generator: Adobe Illustrator 16.0.0, SVG Export Plug-In . SVG Version: 6.00 Build 0)  -->
<!DOCTYPE svg PUBLIC "-//W3C//DTD SVG 1.1//EN" "http://www.w3.org/Graphics/SVG/1.1/DTD/svg11.dtd">
<svg version="1.1" xmlns="http://www.w3.org/2000/svg" xmlns:xlink="http://www.w3.org/1999/xlink" x="0px" y="0px" width="100px"
	 height="100px" viewBox="0 0 100 100" enable-background="new 0 0 100 100" xml:space="preserve">
<g id="Calque_2">
</g>
<g id="Calque_1">
	<path d="M99.941,69.155c-0.143-0.397-0.52-0.663-0.941-0.663c-3.193,0-5.782-1.824-8.285-3.589
		c-2.418-1.704-4.701-3.313-7.438-3.313H68.015c1.52-3.958,3.694-8.06,6.64-11.005c0.188-0.188,0.293-0.442,0.293-0.707
		s-0.105-0.52-0.293-0.707c-1.705-1.705-4.147-3.015-6.7-3.594c-1.197-0.272-2.289-0.348-3.241-0.255
		c0.356-0.6,0.714-1.098,1.071-1.455c0.391-0.391,0.391-1.023,0-1.414c-1.931-1.931-8.394-3.836-13.921-2.847
		c-1.004-5.747-2.17-10.889-3.384-14.907c-0.163-1.245-1.862-1.967-5.687-2.4l3.279-15.526c0.018-0.062,0.031-0.125,0.04-0.19l0,0
		l0,0c0.01-0.068,0.021-0.136,0.021-0.207c0-0.06-0.011-0.116-0.018-0.173c-0.001-0.008-0.001-0.016-0.002-0.024
		C45.684,3.03,35.095,2.865,32.936,2.865c-2.204,0-13.197,0.169-13.197,3.51c0,0.023,0.006,0.045,0.007,0.068
		c0.001,0.019,0.004,0.036,0.006,0.054c0.029,0.345,0.175,0.656,0.422,0.935l3.521,6.519l1.951,8.368
		c-3.697,0.435-5.345,1.152-5.503,2.38c-2.244,7.471-4.899,26.559-6.466,46.509c-0.001,0.014,0.005,0.026,0.005,0.04
		s-0.008,0.025-0.008,0.039c0,0.099,0.032,0.191,0.047,0.287c0.003,0.011,0.002,0.022,0.005,0.033
		c0.212,1.147,1.579,2.046,4.225,2.763L0.377,88.365c-0.432,0.344-0.503,0.973-0.159,1.405C0.415,90.019,0.707,90.147,1,90.147
		c0.128,0,0.254-0.032,0.375-0.082c0.126,0.058,0.264,0.094,0.412,0.094c3.184,0,5.703,1.839,8.138,3.619
		c2.363,1.726,4.596,3.357,7.343,3.357h41.951c2.735,0,5.02-1.595,7.437-3.284c2.503-1.749,5.092-3.557,8.287-3.557
		c0.231,0,0.456-0.081,0.636-0.228l24.058-19.802C99.962,69.996,100.084,69.552,99.941,69.155z M65.397,71.364
		c1.351,0.275,2.113,0.534,2.523,0.719c-0.525,0.238-1.44,0.49-2.678,0.729l0.025-0.316C65.294,72.164,65.341,71.776,65.397,71.364z
		 M67.512,47.527c1.82,0.413,3.627,1.289,5.002,2.406c-6.177,6.791-8.891,17.91-9.239,22.405l-0.065,0.81
		c-1.604,0.228-3.542,0.427-5.771,0.571c0.292-4.758,2.98-18.676,6.071-25.963C64.094,47.306,65.502,47.072,67.512,47.527z
		 M63.638,43.326c-0.623,0.861-1.229,2.008-1.815,3.342c-0.031,0.059-0.059,0.116-0.077,0.179
		c-3.426,7.939-6.054,22.477-6.313,26.982c-1.732,0.079-3.602,0.126-5.606,0.126c-0.11,0-0.214-0.002-0.323-0.002
		c0.098-12.798,2.034-22.503,3.436-23.905c0.391-0.391,0.391-1.023,0-1.414c-1.248-1.249-2.779-2.295-4.475-2.911
		c-0.197-0.904-0.415-1.704-0.628-2.299C52.117,39.917,60.663,41.574,63.638,43.326z M42.633,73.746
		c-0.07-9.504-1.468-16.084-2.314-20.051c-0.385-1.804-0.783-3.668-0.621-4.144c4.898-4.408,9.313-1.7,11.217-0.066
		c-1.903,3.433-3.33,13.49-3.414,24.448C45.761,73.901,44.135,73.836,42.633,73.746z M34.71,72.87
		c-1.396-0.256-2.411-0.529-2.98-0.787c0.457-0.206,1.347-0.504,3.002-0.813C34.756,71.805,34.748,72.339,34.71,72.87z
		 M36.633,69.942L36.633,69.942C36.633,69.941,36.633,69.941,36.633,69.942c-0.481-4.231-2.407-8.398-4.29-12.459
		c-1.313-2.833-2.576-5.556-3.208-8.062c1.862,1.987,4.292,4.184,6.896,4.257c0.756,0.016,1.465-0.164,2.134-0.5
		c0.063,0.3,0.126,0.602,0.197,0.934c0.826,3.87,2.187,10.276,2.27,19.494c-1.467-0.119-2.788-0.262-3.941-0.42
		C36.782,72.1,36.756,71.019,36.633,69.942z M32.936,4.865c6.151,0,9.897,0.9,10.974,1.509c-1.077,0.609-4.823,1.508-10.974,1.508
		s-9.897-0.899-10.974-1.508C23.039,5.765,26.785,4.865,32.936,4.865z M25.518,13.119l-2.262-4.188
		c3.419,0.884,8.292,0.952,9.68,0.952c1.533,0,7.32-0.083,10.7-1.258l-2.941,13.924c-0.611,0.346-2.999,1.019-6.469,1.019
		c-3.478,0-5.869-0.677-6.473-1.021l-2.141-9.18C25.591,13.28,25.56,13.197,25.518,13.119z M26.699,24.218
		c2.142,1.33,7.459,1.35,7.526,1.35c0.067,0,5.422-0.021,7.549-1.365c2.75,0.265,3.977,0.619,4.487,0.834
		c-1.202,1.066-5.901,3.213-11.953,3.213c-6.049,0-10.747-2.147-11.948-3.214C22.861,24.826,24.054,24.48,26.699,24.218z
		 M15.677,71.282c1.429-18.146,3.849-36.129,5.928-44.35c2.404,1.75,7.436,3.318,12.704,3.318c5.286,0,10.334-1.578,12.73-3.334
		c1.031,3.702,2.016,8.208,2.88,13.177c-1.502,0.499-2.879,1.252-3.986,2.359c-0.313,0.313-0.383,0.793-0.173,1.183
		c0.127,0.234,0.32,0.784,0.524,1.565c-2.498-0.288-5.228,0.447-7.904,2.848c-0.001,0.001-0.003,0.001-0.004,0.002
		c-0.001,0.001-0.002,0.003-0.004,0.005c-0.01,0.009-0.02,0.016-0.03,0.024c-0.014,0.013-0.019,0.03-0.032,0.043
		c-0.648,0.594-0.74,1.508-0.534,2.955c-0.529,0.413-1.088,0.617-1.688,0.601c-2.333-0.065-5.026-3.082-6.635-4.883
		c-0.402-0.45-0.75-0.838-1.029-1.118c-0.286-0.285-0.717-0.37-1.09-0.216c-0.374,0.155-0.617,0.52-0.617,0.924
		c0,3.717,1.852,7.711,3.813,11.939c1.101,2.373,2.215,4.784,3.024,7.192c-0.185,0.004-0.371,0.041-0.535,0.151
		c-2.173,1.459-4.535,2.885-7.417,2.885c-0.227,0-0.446,0.077-0.623,0.218l-5.048,4.021C16.295,72.028,15.72,71.269,15.677,71.282z
		 M65.51,92.211c-2.152,1.503-4.185,2.923-6.291,2.923H17.268c-2.094,0-4.071-1.444-6.163-2.972
		c-1.576-1.151-3.285-2.393-5.253-3.184c1.899-0.789,3.58-1.967,5.132-3.068c2.151-1.526,4.182-2.968,6.284-2.968h41.951
		c2.107,0,4.14,1.416,6.292,2.915c1.662,1.158,3.466,2.41,5.532,3.176C68.978,89.803,67.171,91.051,65.51,92.211z M75.172,87.81
		c-0.076-0.019-0.148-0.046-0.229-0.046c-3.196,0-5.785-1.803-8.288-3.547c-2.417-1.684-4.7-3.274-7.436-3.274H17.268
		c-2.739,0-5.023,1.621-7.442,3.337c-1.48,1.05-2.993,2.112-4.64,2.813l15.625-12.445c0.006-0.004,0.011-0.009,0.017-0.013
		l5.131-4.087c3.264-0.109,5.909-1.699,8.144-3.199c0.169,0.643,0.309,1.286,0.416,1.926c-3.65,0.66-5.167,1.491-5.167,2.798
		c0,3.318,13.281,3.817,19.135,3.875c0.002,0,0.004,0.001,0.006,0.001c0.002,0,0.004-0.001,0.006-0.001
		c0.498,0.005,0.949,0.007,1.326,0.007c4.803,0,20.474-0.28,20.474-3.883c0-1.238-1.354-2.036-4.568-2.679
		c0.337-1.684,0.854-3.689,1.563-5.804h15.983c2.104,0,4.135,1.432,6.286,2.948c2.043,1.44,4.298,3.03,6.998,3.667L75.172,87.81z"/>
</g>
</svg>
