<?xml version="1.0" encoding="utf-8"?>
<!-- Generator: Adobe Illustrator 16.0.0, SVG Export Plug-In . SVG Version: 6.00 Build 0)  -->
<!DOCTYPE svg PUBLIC "-//W3C//DTD SVG 1.1//EN" "http://www.w3.org/Graphics/SVG/1.1/DTD/svg11.dtd">
<svg version="1.1" xmlns="http://www.w3.org/2000/svg" xmlns:xlink="http://www.w3.org/1999/xlink" x="0px" y="0px" width="100px"
	 height="100px" viewBox="0 0 100 100" enable-background="new 0 0 100 100" xml:space="preserve">
<g id="Calque_1">
</g>
<g id="Calque_2">
	<path d="M82.513,57.251c0-0.163-0.05-0.312-0.121-0.449c-1.102-3.351-9.594-4.662-13.616-5.099l2.062-10.726l7,1.347
		c0.063,0.012,0.126,0.018,0.189,0.018c0.199,0,0.395-0.06,0.562-0.173c0.22-0.148,0.371-0.379,0.421-0.64l0.933-4.892
		c0-0.002,0.001-0.003,0.002-0.005s0-0.003,0-0.005l0.933-4.892c0.103-0.542-0.251-1.065-0.793-1.17l-21.309-4.104
		c-0.259-0.049-0.531,0.006-0.75,0.155c-0.22,0.148-0.371,0.379-0.421,0.64l-1.867,9.798c-0.103,0.542,0.252,1.065,0.793,1.17
		l7.347,1.413l-2.24,11.655c-0.463-0.008-0.921-0.02-1.394-0.02c-2.507,0-5.057,0.108-7.496,0.328
		c0.16-1.051,0.32-2.104,0.481-3.136c1.784-11.404,3.46-22.175-2.021-29.848c-0.492-1.629-3.948-2.944-6.739-3.683
		c0.005-0.045,0.028-0.084,0.028-0.13c0-0.038-0.002-0.075-0.006-0.112l-1.386-12.22C42.987,0.18,37.346,0,35.604,0
		c-1.506,0-5.928,0.135-7.172,1.654l-6.738,1.257c-0.014,0-0.026-0.008-0.04-0.008c-1.039,0-1.737,1.122-1.737,2.791
		c0,1.489,0.558,2.537,1.416,2.747c0.043,0.015,0.078,0.043,0.124,0.052l5.963,1.202l-0.695,4.972
		c-0.006,0.046-0.01,0.093-0.01,0.139c0,0.164,0.04,0.316,0.107,0.459c-2.461,0.761-5.137,1.947-5.576,3.349
		c-5.485,7.671-3.809,18.442-2.025,29.845c0.985,6.297,2.003,12.808,2.003,19.399c0,2.838-0.977,6.9-1.922,10.83
		c-0.933,3.877-1.813,7.54-1.813,10.138c0,4.775,15.419,5.018,18.51,5.018c3.323,0,6.471-0.2,9.216-0.563l0.155,0.77
		C45.516,97.776,53.14,100,60.513,100c7.122,0,14.686-2.054,14.825-5.861l6.977-35.771c0.098-0.229,0.147-0.462,0.173-0.697
		c0.006-0.044,0.026-0.083,0.026-0.129c0-0.022-0.005-0.044-0.005-0.066c0-0.019,0.005-0.036,0.005-0.054V57.251z M78.724,32.342
		l-0.559,2.93l-19.344-3.723l0.559-2.933L78.724,32.342z M58.446,33.515l19.345,3.723l-0.56,2.934l-6.987-1.344
		c-0.004-0.001-0.007-0.004-0.011-0.005s-0.007,0.001-0.011,0l-4.984-0.959c-0.001,0-0.002-0.001-0.003-0.001s-0.002,0-0.003,0
		l-7.345-1.413L58.446,33.515z M68.874,40.6l-4.05,21.075c-1.014,0.058-2.072,0.095-3.168,0.113l4.184-21.772L68.874,40.6z
		 M61.27,63.797c1.08-0.013,2.136-0.045,3.165-0.096l-5.363,27.904c-0.184,0.846-1.029,1.41-1.84,1.236
		c-0.796-0.175-1.353-1.109-1.163-1.984L61.27,63.797z M61.253,53.288l-1.636,8.51c-11.549-0.079-18.342-2.317-19.498-3.911
		l-0.103-0.51c0.184-0.593,1.35-1.345,3.469-2.045c0.055-0.015,0.107-0.031,0.159-0.054c1.91-0.615,4.545-1.184,7.909-1.557
		c0.003,0,0.007,0.001,0.011,0.001c0.008,0,0.015-0.004,0.023-0.004c2.497-0.275,5.381-0.445,8.655-0.445
		C60.585,53.273,60.915,53.283,61.253,53.288z M44.697,52.892c1.274-3.667,3.63-5.464,5.739-7.072
		c0.46-0.351,0.912-0.697,1.339-1.054c-0.168,1.115-0.343,2.242-0.523,3.391c-0.189,1.206-0.377,2.431-0.562,3.66
		C48.517,52.077,46.479,52.435,44.697,52.892z M34.604,17.33v2.092c0,0.553,0.448,1,1,1s1-0.447,1-1V17.33
		c1.421-0.05,4.039-0.223,5.871-0.81c3.666,0.757,5.917,1.911,6.619,2.495c-1.195,0.996-6.337,3.126-12.87,3.126
		c-6.536,0-11.68-2.132-12.871-3.127c0.668-0.563,2.707-1.596,5.921-2.342C31.051,17.137,33.316,17.285,34.604,17.33z M40.391,2.546
		c-0.834,0.261-2.331,0.547-4.787,0.547c-2.455,0-3.952-0.286-4.786-0.547C31.652,2.285,33.149,2,35.604,2
		C38.059,2,39.557,2.285,40.391,2.546z M22.064,6.575c-0.005-0.002-0.008-0.006-0.013-0.008c-0.057-0.144-0.135-0.435-0.135-0.873
		c0-0.397,0.064-0.656,0.119-0.812l6.602-1.232c1.465,1.32,5.535,1.442,6.967,1.442c1.123,0,3.86-0.077,5.7-0.745l1.143,10.076
		c-0.826,0.348-3.312,0.928-6.842,0.928c-3.512,0-5.99-0.574-6.828-0.923l0.753-5.389c0.073-0.524-0.274-1.015-0.792-1.119
		L22.064,6.575z M21.195,48.149c-0.181-1.154-0.356-2.288-0.525-3.41c0.436,0.366,0.897,0.721,1.368,1.08
		c2.578,1.966,5.499,4.193,6.403,9.733c0.808,4.955-0.595,15.116-7.175,23.516c0.965-4.017,1.957-8.158,1.957-11.211
		C23.223,61.11,22.192,54.521,21.195,48.149z M35.997,91.843c-11.599,0-16.51-2.159-16.51-3.018c0-1.483,0.338-3.438,0.813-5.619
		c8.173-8.331,11.319-20.59,10.115-27.976c-1.032-6.325-4.576-9.028-7.164-11.001c-1.572-1.198-2.814-2.146-3.116-3.491
		c-0.007-0.031-0.028-0.055-0.038-0.085c-0.999-7.843-1.094-14.687,2.192-19.995c2.406,1.866,8.374,3.483,13.935,3.483
		c5.562,0,11.53-1.617,13.936-3.483c3.297,5.327,3.191,12.199,2.183,20.075c0,0.002-0.002,0.003-0.002,0.005
		c-0.302,1.346-1.544,2.292-3.116,3.49c-2.462,1.877-5.499,4.206-6.814,9.358c-2.302,0.833-3.884,1.899-4.317,3.213
		c-0.071,0.138-0.122,0.287-0.122,0.451v0.29c0,0.361,0.085,0.718,0.252,1.063l6.594,32.711
		C42.189,91.654,39.18,91.843,35.997,91.843z M73.358,93.841c-0.012,0.063-0.019,0.127-0.019,0.191
		c0,1.618-4.997,3.968-12.827,3.968c-7.903,0-13.147-2.444-13.147-4.062c0-0.066-0.007-0.133-0.02-0.197l-6.647-32.979
		c3.9,1.993,11.395,2.952,18.534,3.035L54.11,90.457c-0.421,1.939,0.813,3.926,2.696,4.339c0.247,0.054,0.494,0.079,0.737,0.079
		c1.635,0,3.117-1.161,3.487-2.869l5.464-28.432c5.818-0.444,10.574-1.505,13.344-2.963L73.358,93.841z M66.889,61.526l1.508-7.849
		c8.037,0.832,11.678,2.688,12.075,3.687l-0.068,0.352C79.539,59.102,74.663,60.857,66.889,61.526z"/>
</g>
</svg>
