<?xml version="1.0" encoding="utf-8"?>
<!-- Generator: Adobe Illustrator 16.0.0, SVG Export Plug-In . SVG Version: 6.00 Build 0)  -->
<!DOCTYPE svg PUBLIC "-//W3C//DTD SVG 1.1//EN" "http://www.w3.org/Graphics/SVG/1.1/DTD/svg11.dtd">
<svg version="1.1" xmlns="http://www.w3.org/2000/svg" xmlns:xlink="http://www.w3.org/1999/xlink" x="0px" y="0px" width="100px"
	 height="100px" viewBox="0 0 100 100" enable-background="new 0 0 100 100" xml:space="preserve">
<g id="Calque_2">
</g>
<g id="v2">
	<path d="M100,67.599c0-2.082-3.768-2.82-6.993-2.82c-0.46,0-0.932,0.017-1.401,0.049c0.018-0.075,0.046-0.146,0.046-0.227V11.938
		c0-0.046-0.012-0.09-0.019-0.136c-0.004-0.028-0.005-0.056-0.012-0.084c-0.025-0.11-0.066-0.215-0.126-0.31
		c-0.011-0.019-0.026-0.033-0.039-0.05c-0.055-0.076-0.12-0.143-0.195-0.201c-0.025-0.02-0.049-0.039-0.076-0.056
		c-0.02-0.012-0.035-0.029-0.056-0.041c-0.084-0.045-0.173-0.077-0.264-0.097c-0.003,0-0.005-0.003-0.008-0.003L42.048,0.684
		c-0.26-0.056-0.527-0.004-0.749,0.139L19.463,14.952c-0.017,0.011-0.025,0.029-0.041,0.041c-0.015,0.01-0.032,0.012-0.046,0.022
		c-0.032,0.026-0.046,0.065-0.074,0.094c-0.061,0.063-0.115,0.125-0.157,0.199c-0.026,0.048-0.044,0.097-0.063,0.148
		c-0.029,0.081-0.048,0.161-0.056,0.247c-0.002,0.03-0.02,0.057-0.02,0.088v21.835c0,0.064,0.025,0.121,0.037,0.182
		c-1.232-0.043-2.614-0.068-4.183-0.068c-13.77,0-13.77,1.839-13.77,2.532c0,0.036,0,0.076,0.002,0.118
		C0.371,43.006,0,45.774,0,48.625c0,2.9,0.38,5.72,1.129,8.383c0.729,2.583,1.775,4.904,3.107,6.897
		c1.349,2.026,2.933,3.626,4.709,4.756c1.566,0.993,3.22,1.553,4.923,1.719v23.653c-7.353,0.074-11.089,0.963-11.089,2.648
		c0,1.762,4.073,2.656,12.106,2.656s12.106-0.894,12.106-2.656c0-1.688-3.748-2.577-11.124-2.649v-23.65
		c1.069-0.101,2.118-0.362,3.138-0.79v12.99c0,0.473,0.331,0.881,0.794,0.979l48.81,10.276c0.068,0.015,0.138,0.021,0.206,0.021
		c0.104,0,0.207-0.02,0.307-0.053c0.032-0.01,0.061-0.027,0.092-0.041c0.046-0.02,0.094-0.034,0.137-0.062l19.426-12.318
		c0.161,0.772,0.263,1.606,0.263,2.482c0,1.165,0.856,2.043,1.993,2.043c1.05,0,1.903-0.663,1.903-1.478v-1.284
		c0-3.257,2.867-4.704,3.957-4.704c0.032,0,0.059-0.015,0.09-0.018c0.031,0.003,0.059,0.018,0.091,0.018
		c0.383,0,1.062-0.183,1.308-1.405c0.083-0.413,0.129-0.953,0.129-1.522c0-0.746-0.016-2.621-1.178-2.876
		c-0.037-0.01-0.067-0.033-0.106-0.039l-1.717-0.264l-0.003-2.077C97.907,69.954,100,69.149,100,67.599z M97.794,67.598
		c-0.636,0.354-2.299,0.819-4.787,0.819c-2.489,0-4.154-0.466-4.79-0.819c0.636-0.354,2.301-0.82,4.79-0.82
		C95.495,66.778,97.159,67.245,97.794,67.598z M42.039,2.726L52.84,5c-3.69,0.304-7.235,1.657-10.309,3.937l-2.1,1.399
		c-0.61,0.364-1.214,0.768-1.795,1.198c-0.436,0.323-0.534,0.935-0.223,1.378c0.313,0.443,0.921,0.559,1.373,0.257l1.711-1.141
		c2.786-1.653,5.93-2.527,9.091-2.527c6.529,0,12.627,3.835,13.592,8.549c0.066,0.326,0.291,0.597,0.599,0.724
		c0.123,0.05,0.252,0.075,0.381,0.075c0.194,0,0.388-0.057,0.555-0.168l3.854-2.569c0.339-0.226,0.507-0.634,0.425-1.033
		c-0.65-3.178-3.07-5.969-6.396-7.816l24.474,5.152L68.618,25.003l-46.032-9.691L42.039,2.726z M54.442,6.933
		c6.231,0,12.068,3.493,13.428,7.909l-2.133,1.422c-1.898-5.012-8.219-8.762-15.148-8.762c-0.2,0-0.4,0.003-0.601,0.009
		C51.439,7.128,52.933,6.933,54.442,6.933z M14.86,39.741c4.175,0,7.505,0.24,9.607,0.531c-2.103,0.291-5.433,0.531-9.607,0.531
		c-4.174,0-7.503-0.24-9.604-0.531C7.357,39.981,10.687,39.741,14.86,39.741z M26.958,41.781c0.529,2.188,0.813,4.481,0.813,6.844
		c0,1.511-0.121,2.993-0.338,4.441c-1.506-0.625-4.901-1.196-12.573-1.196c-7.597,0-10.998,0.56-12.525,1.178
		C2.12,51.605,2,50.129,2,48.625c0-2.356,0.282-4.644,0.809-6.829c1.721,0.547,5.162,1.007,12.052,1.007
		C21.813,42.803,25.254,42.334,26.958,41.781z M24.467,54.401c-2.103,0.291-5.433,0.531-9.606,0.531
		c-4.173,0-7.502-0.24-9.604-0.531c2.102-0.291,5.431-0.531,9.604-0.531C19.034,53.87,22.364,54.11,24.467,54.401z M5.9,62.796
		c-1.217-1.82-2.175-3.951-2.847-6.331c-0.047-0.166-0.079-0.337-0.122-0.504c1.758,0.531,5.193,0.971,11.929,0.971
		c6.801,0,10.24-0.448,11.982-0.985c-0.045,0.171-0.078,0.348-0.126,0.518c-0.671,2.38-1.629,4.51-2.848,6.333
		c-1.191,1.792-2.577,3.197-4.116,4.175c-3.1,1.967-6.634,1.966-9.735,0C8.479,65.995,7.094,64.59,5.9,62.796z M14.886,97.338
		c-4.137,0-7.086-0.323-8.754-0.656c1.558-0.311,4.246-0.609,7.961-0.648c0.184,0.233,0.455,0.394,0.775,0.394
		s0.593-0.16,0.775-0.394c3.733,0.037,6.434,0.336,7.996,0.648C21.972,97.015,19.022,97.338,14.886,97.338z M21.006,68.531
		c1.702-1.121,3.228-2.669,4.527-4.624c1.335-1.996,2.381-4.317,3.109-6.9c0.749-2.66,1.129-5.48,1.129-8.382
		c0-2.903-0.38-5.722-1.129-8.378c-0.002-0.007-0.008-0.012-0.01-0.02c-0.005-0.592-0.199-1.882-7.682-2.33
		c0.025-0.088,0.055-0.175,0.055-0.271V17.024l46.81,9.854v64.748l-46.81-9.855V68.531z M69.815,91.041v-64.43l19.836-12.835v50.825
		c0,0.163,0.048,0.311,0.118,0.447c-2.077,0.373-3.759,1.161-3.759,2.551c0,1.362,1.619,2.146,3.641,2.527v1.312l-2.811-0.432
		c-0.453-3.169-2.347-5.491-4.769-5.71c-3.091-0.271-5.827,2.846-6.208,7.111c-0.177,1.964,0.19,3.873,1.032,5.372
		c0.911,1.622,2.266,2.591,3.816,2.73c0.122,0.011,0.243,0.016,0.365,0.016c1.979,0,3.855-1.44,4.943-3.768l0.328,0.05
		c0.446,0.069,1.229,1.06,1.835,2.586L69.815,91.041z M82.289,70.306c-0.009-0.001-0.017,0.002-0.025,0.001
		c-0.42-0.06-0.835,0.057-1.181,0.345c-0.575,0.477-0.905,1.356-0.905,2.414c0,1.222,0,2.743,1.525,3.026
		c0.007,0.001,0.014,0.001,0.021,0.002c0.004,0,0.007,0.003,0.01,0.003l2.213,0.34c-0.789,1.379-1.91,2.186-3.056,2.079
		c-0.873-0.078-1.673-0.688-2.25-1.717c-0.646-1.151-0.925-2.647-0.784-4.214c0.271-3.042,2.099-5.477,4.037-5.297
		c1.321,0.12,2.436,1.494,2.869,3.398L82.289,70.306z M90.964,82.492c-0.377-3.544-2.127-7.326-4.31-7.662l-4.433-0.682
		c-0.043-0.244-0.044-0.718-0.044-1.083c0-0.361,0.064-0.593,0.121-0.734l8.2,1.261c0.051,0.008,0.102,0.012,0.151,0.012
		c0.001,0,0.001,0,0.001,0l0,0h0.001c0.129,0,0.253-0.028,0.368-0.074c0.041-0.017,0.074-0.045,0.112-0.066
		c0.069-0.039,0.136-0.077,0.193-0.13c0.037-0.035,0.063-0.076,0.095-0.115c0.046-0.056,0.088-0.112,0.12-0.178
		c0.024-0.049,0.037-0.101,0.054-0.154c0.013-0.045,0.038-0.083,0.045-0.131c0.004-0.026-0.006-0.05-0.004-0.076
		c0.003-0.026,0.016-0.049,0.016-0.076v-1.865h1.854l0.004,2.461c0,0.042,0.02,0.079,0.024,0.12c0.009,0.068,0.019,0.132,0.04,0.195
		c0.021,0.061,0.048,0.114,0.079,0.169c0.032,0.056,0.064,0.109,0.107,0.158c0.041,0.049,0.088,0.088,0.138,0.128
		c0.05,0.04,0.1,0.076,0.157,0.105c0.059,0.031,0.121,0.05,0.187,0.069c0.04,0.011,0.073,0.036,0.115,0.042l2.087,0.321
		c0.084,0.517,0.088,1.424,0.01,1.969C94.391,76.733,91.291,78.742,90.964,82.492z M53.983,42.163c-2.147,0-3.966,1.371-4.669,3.279
		c-0.522-1.419-1.666-2.522-3.105-3.002c0.297-7.253,5.462-9.874,10.318-9.874c0.553,0,1-0.448,1-1s-0.447-1-1-1
		c-4.29,0-9.119,1.864-11.243,6.732c-0.359-1.962-1.195-4.556-3.14-6.5c-3.241-3.244-8.26-3.408-9.232-3.408
		c-0.008,0-0.095,0-0.103,0.001c-0.533,0.012-0.964,0.442-0.977,0.976c-0.005,0.237-0.096,5.837,3.402,9.335
		c3.09,3.093,7.789,3.386,9.067,3.407c-0.041,0.353-0.063,0.723-0.082,1.097c-1.961,0.167-3.593,1.455-4.25,3.233
		c-0.704-1.906-2.523-3.276-4.672-3.276c-2.754,0-4.994,2.241-4.994,4.995c0,2.755,2.24,4.996,4.994,4.996
		c0.353,0,0.695-0.039,1.028-0.108c-0.974,0.912-1.592,2.199-1.592,3.636c0,2.754,2.239,4.995,4.991,4.995
		c0.208,0,0.406-0.037,0.607-0.062c-0.425,0.734-0.687,1.574-0.687,2.48c0,2.754,2.24,4.995,4.994,4.995
		c2.755,0,4.996-2.241,4.996-4.995c0-0.903-0.26-1.74-0.683-2.472c0.176,0.019,0.346,0.053,0.525,0.053
		c2.754,0,4.994-2.241,4.994-4.995c0-1.458-0.639-2.759-1.637-3.673c0.369,0.087,0.75,0.146,1.146,0.146
		c2.756,0,4.997-2.241,4.997-4.996C58.98,44.403,56.739,42.163,53.983,42.163z M36.65,36.288c-2.084-2.084-2.628-5.24-2.769-6.851
		c1.604,0.139,4.758,0.682,6.849,2.774c2.083,2.083,2.63,5.239,2.773,6.852C41.897,38.923,38.741,38.381,36.65,36.288z
		 M44.642,44.163c1.652,0,2.996,1.344,2.996,2.995c0,1.652-1.344,2.996-2.996,2.996c-1.651,0-2.994-1.344-2.994-2.996
		C41.647,45.506,42.99,44.163,44.642,44.163z M44.604,56.744c0.111,0.507,0.313,0.976,0.564,1.413
		c-0.176-0.019-0.347-0.053-0.526-0.053c-0.207,0-0.405,0.037-0.605,0.061C44.29,57.726,44.493,57.254,44.604,56.744z
		 M44.604,54.618c-0.247-1.134-0.891-2.111-1.766-2.814c0.562,0.219,1.166,0.35,1.804,0.35c0.593,0,1.154-0.122,1.683-0.312
		C45.473,52.542,44.847,53.504,44.604,54.618z M32.305,47.158c0-1.651,1.343-2.995,2.994-2.995c1.652,0,2.996,1.344,2.996,2.995
		c0,1.652-1.344,2.996-2.996,2.996C33.647,50.154,32.305,48.81,32.305,47.158z M39.971,48.877c0.317,0.858,0.861,1.596,1.563,2.159
		c-0.563-0.219-1.168-0.351-1.807-0.351c-0.351,0-0.693,0.038-1.023,0.107C39.266,50.267,39.699,49.614,39.971,48.877z
		 M36.735,55.681c0-1.651,1.342-2.995,2.991-2.995c1.652,0,2.997,1.344,2.997,2.995s-1.345,2.995-2.997,2.995
		C38.077,58.676,36.735,57.333,36.735,55.681z M44.642,66.09c-1.651,0-2.994-1.344-2.994-2.995c0-1.649,1.343-2.991,2.994-2.991
		c1.652,0,2.996,1.342,2.996,2.991C47.638,64.747,46.294,66.09,44.642,66.09z M49.48,58.676c-1.652,0-2.996-1.344-2.996-2.995
		s1.344-2.995,2.996-2.995c1.651,0,2.994,1.344,2.994,2.995S51.132,58.676,49.48,58.676z M49.48,50.686
		c-0.593,0-1.154,0.122-1.683,0.312c0.679-0.559,1.207-1.284,1.517-2.124c0.279,0.757,0.731,1.423,1.315,1.958
		C50.259,50.745,49.878,50.686,49.48,50.686z M53.983,50.154c-1.649,0-2.991-1.344-2.991-2.996c0-1.651,1.342-2.995,2.991-2.995
		c1.652,0,2.997,1.344,2.997,2.995C56.98,48.81,55.636,50.154,53.983,50.154z"/>
</g>
</svg>
