<svg id="Calque_1" data-name="Calque 1" xmlns="http://www.w3.org/2000/svg" viewBox="0 0 300 300"><defs><style>.cls-1{fill:#1d1d1b;}</style></defs><title>picto_paris</title><path class="cls-1" d="M150,6A144,144,0,0,1,251.82,251.82,144,144,0,1,1,48.18,48.18,143,143,0,0,1,150,6m0-6A150,150,0,1,0,300,150,150,150,0,0,0,150,0Z"/><path d="M225.32,145.37H192a2,2,0,0,1-2-2V126.15a2,2,0,0,1,2-2h33.31a2,2,0,0,1,2,2v17.22A2,2,0,0,1,225.32,145.37Zm-31.31-4h29.31V128.15H194Z"/><path d="M231.18,93.3H69.66a2,2,0,0,1-2-2V73.53a2,2,0,0,1,2-2H229.22v-.35a2,2,0,0,1,2-2h5.17a2,2,0,0,1,2,2V73.4a2,2,0,0,1-2,2h-3.21V91.3A2,2,0,0,1,231.18,93.3Zm-159.52-4H229.18V75.53H71.66Z"/><path d="M231.18,153.57H185a2,2,0,0,1-2-2v-32.2H117.86v32.2a2,2,0,0,1-2,2H69.66a2,2,0,0,1-2-2V114.91a2,2,0,0,1,2-2H231.18a2,2,0,0,1,2,2v36.66A2,2,0,0,1,231.18,153.57Zm-44.21-4h.46a1.76,1.76,0,0,1-.46-.14Zm-73.57,0h.46v-.14A1.76,1.76,0,0,1,113.4,149.57Zm76.37-4h37.78V123.92H189.77Zm-116.48,0h37.77V123.92H73.29Zm-1.63-25.68h41.4a1.94,1.94,0,0,1,.8.17v-2.72a1.76,1.76,0,0,1,.06-.46H71.66Zm115.26-3a2.31,2.31,0,0,1,.05.46v2.72a2,2,0,0,1,.8-.17h41.41v-3Z"/><rect x="67.66" y="63.67" width="165.52" height="7.74" rx="2"/><path d="M108.83,145.37H75.52a2,2,0,0,1-2-2V126.15a2,2,0,0,1,2-2h33.31a2,2,0,0,1,2,2v17.22A2,2,0,0,1,108.83,145.37Zm-31.31-4h29.31V128.15H77.52Z"/><path d="M118,236.14H69.66a2,2,0,0,1-2-2V155.8a2,2,0,0,1,2-2h46.2a2,2,0,0,1,.7.13l.18,0,1.08-.08a2,2,0,0,1,2.14,2v78.27A2,2,0,0,1,118,236.14Zm-46.3-4H116V157.88l-.34,0-.22,0H71.66Z"/><path d="M180.74,138.6a2,2,0,0,1-1.86-1.27,28.62,28.62,0,0,0-11.93-14,2,2,0,0,1,1-3.72h12.77a2,2,0,0,1,2,2v15a2,2,0,0,1-1.63,2A1.55,1.55,0,0,1,180.74,138.6Zm-6.69-15a33.2,33.2,0,0,1,4.69,5.22V123.6Z"/><path d="M178.64,236.14h-2.9a2,2,0,0,1-2-2l0-72.16a21.79,21.79,0,0,0-.75-5.66,2,2,0,0,1,.34-1.73,2,2,0,0,1,1.59-.79h3.72a2,2,0,0,1,2,2l0,78.34a2,2,0,0,1-2,2Z"/><path d="M231.18,112.68H69.66a2,2,0,0,1-2-2v-9.74H61.85a2,2,0,0,1-2-2v-.71a2,2,0,0,1-1.83-2V93.08a2,2,0,0,1,2-2h8.09a2,2,0,0,1,2,2v2.49H230.73V93.08a2,2,0,0,1,2-2h8.08a2,2,0,0,1,2,2v3.16a2,2,0,0,1-1.82,2v.71a2,2,0,0,1-2,2h-5.81v9.74A2,2,0,0,1,231.18,112.68Zm-159.52-4H229.18V99.57H71.66ZM234.73,96.94H237v-.7a2,2,0,0,1,.37-1.16h-2.63Zm-170.88,0h2.26V95.08H63.47a2,2,0,0,1,.38,1.16Z"/><path d="M231.18,236.14H182.87a2,2,0,0,1-2-2l0-78.28a2,2,0,0,1,2-2h1.73a2,2,0,0,1,.42,0l44.3,0a2,2,0,0,1,2-2h8.43a2,2,0,0,1,2,2v2.27a2,2,0,0,1-2,2h-6.52v76.09A2,2,0,0,1,231.18,236.14Zm-46.31-4h44.31V157.8h-43.8a2.57,2.57,0,0,1-.4,0h-.14ZM69.6,158.05H61.18a2,2,0,0,1-2-2v-2.27a2,2,0,0,1,2-2H69.6a2,2,0,0,1,2,2v2.27A2,2,0,0,1,69.6,158.05Zm.06-82.65H64.48a2,2,0,0,1-2-2V71.18a2,2,0,0,1,2-2h5.18a2,2,0,0,1,2,2V73.4A2,2,0,0,1,69.66,75.4Z"/><path d="M125.09,236.14h-2.9a2,2,0,0,1-2-2V155.8a2,2,0,0,1,2-2h3.72a2,2,0,0,1,1.93,2.53,21.54,21.54,0,0,0-.75,5.65v72.16A2,2,0,0,1,125.09,236.14Z"/><path d="M178.6,153.57h-5.34a2,2,0,0,1-1.79-1.11,21.73,21.73,0,0,0-19.34-12.06h-3.46a21.74,21.74,0,0,0-19.35,12.06,2,2,0,0,1-1.79,1.11h-5.34a2,2,0,0,1-2-2v-3.9a28.1,28.1,0,0,1,28.07-28.07h4.27a28.1,28.1,0,0,1,28.07,28.07v3.9a2,2,0,0,1-2,2Zm-4.13-4h2.13v-1.9a24.1,24.1,0,0,0-24.07-24.07h-4.27a24.1,24.1,0,0,0-24.07,24.07v1.9h2.13a25.77,25.77,0,0,1,22.35-13.17h3.46A25.77,25.77,0,0,1,174.47,149.57Z"/><path d="M120.1,138.5a1.58,1.58,0,0,1-.38,0,2,2,0,0,1-1.63-2V121.6a2,2,0,0,1,2-2h12.73a2,2,0,0,1,1,3.72A28.65,28.65,0,0,0,122,137.24,2,2,0,0,1,120.1,138.5Zm2-14.9v5.16a33.55,33.55,0,0,1,4.66-5.16Z"/></svg>