<?xml version="1.0" encoding="utf-8"?>
<!-- Generator: Adobe Illustrator 16.0.0, SVG Export Plug-In . SVG Version: 6.00 Build 0)  -->
<!DOCTYPE svg PUBLIC "-//W3C//DTD SVG 1.1//EN" "http://www.w3.org/Graphics/SVG/1.1/DTD/svg11.dtd">
<svg version="1.1" xmlns="http://www.w3.org/2000/svg" xmlns:xlink="http://www.w3.org/1999/xlink" x="0px" y="0px" width="100px"
	 height="100px" viewBox="0 0 100 100" enable-background="new 0 0 100 100" xml:space="preserve">
<g id="Calque_2">
</g>
<g id="Calque_1">
	<path d="M8.982,64.561l10.847,5.978c0.15,0.083,0.316,0.124,0.482,0.124c0.176,0,0.352-0.047,0.509-0.139
		c0.304-0.181,0.491-0.508,0.491-0.861V21.113c0-0.364-0.198-0.7-0.518-0.876L9.947,14.259c-0.311-0.17-0.687-0.166-0.991,0.015
		c-0.304,0.18-0.491,0.507-0.491,0.861v48.549C8.464,64.049,8.663,64.385,8.982,64.561z M10.464,16.828l8.847,4.875V67.97
		l-8.847-4.876V16.828z M15.345,72.418c-0.583-0.298-1.169-0.449-1.739-0.449c-1.724,0-3.465,1.452-3.465,4.696
		c0,3.307,1.886,6.861,4.293,8.09c0.584,0.3,1.17,0.451,1.741,0.451c1.725,0,3.465-1.452,3.465-4.697
		C19.639,77.205,17.753,73.652,15.345,72.418z M16.174,83.206c-0.25,0-0.529-0.077-0.83-0.231c-1.737-0.887-3.204-3.776-3.204-6.31
		c0-1.612,0.589-2.696,1.465-2.696c0.251,0,0.53,0.077,0.828,0.229c1.738,0.89,3.206,3.78,3.206,6.311
		C17.639,82.122,17.05,83.206,16.174,83.206z M95.021,47.899c0-2.625-3.589-4.84-9.883-6.144l2.663-11.471
		c1.374-5.917,2.158-14.901,1.812-17.834c-0.049-0.419-0.356-0.761-0.767-0.856c-0.411-0.097-0.837,0.077-1.066,0.432
		c-1.598,2.475-4.85,10.887-6.223,16.805l-2.019,8.479l-1.09-8.456c-0.001-0.013,0.002-0.025,0-0.038l-0.084-0.608l-0.003-0.026
		l0-0.001L76.252,12.93l0-0.001v0c-0.187-1.333-1.882-2.01-5.039-2.01c-1.07,0-2.214,0.083-3.401,0.247
		c-0.158,0.022-0.395,0.057-0.681,0.105V3.358c0-0.324-0.157-0.628-0.421-0.815c-0.264-0.188-0.604-0.236-0.909-0.128L57.95,5.158
		V1.001c0-0.292-0.128-0.57-0.35-0.76c-0.223-0.19-0.519-0.275-0.805-0.228L5.824,8.033C5.809,8.035,5.797,8.045,5.782,8.048
		C5.669,8.071,5.559,8.106,5.458,8.167c-0.001,0-0.001,0.001-0.002,0.002c-0.006,0.004-0.01,0.009-0.017,0.013
		C5.346,8.242,5.27,8.318,5.203,8.402c-0.018,0.022-0.034,0.043-0.05,0.067C5.091,8.563,5.039,8.663,5.011,8.773
		C5.009,8.783,5.009,8.792,5.007,8.802C4.991,8.873,4.979,8.946,4.979,9.021v80.848c0,0.375,0.21,0.719,0.544,0.89l17.823,9.131
		c0.033,0.018,0.069,0.025,0.104,0.038c0.027,0.011,0.052,0.022,0.079,0.03c0.09,0.025,0.181,0.042,0.273,0.042
		c0.103,0,0.203-0.02,0.302-0.051c0.009-0.003,0.019-0.002,0.028-0.005l34.371-12.012l0.601,3.697
		c0.099,4.212,7.322,6.726,14.307,6.726c6.88,0,14.302-2.61,14.404-6.835l6.974-42.002c0.154-0.371,0.231-0.751,0.231-1.133v-0.344
		c0-0.025-0.012-0.047-0.014-0.073C95.009,47.944,95.021,47.924,95.021,47.899z M83.503,29.289c0.923-3.979,2.649-8.88,4.101-12.34
		c-0.218,3.748-0.827,8.909-1.751,12.884l-5.435,23.412c-0.859,0.098-1.752,0.177-2.675,0.237l2.337-9.816
		c0.144-0.199,0.22-0.448,0.186-0.71l-0.006-0.044L83.503,29.289z M75.662,53.586c-0.7,0.022-1.41,0.037-2.138,0.037
		c-2.178,0-4.199-0.11-6.058-0.299L64.63,32.796c0.829,0.187,1.781,0.257,2.702,0.257c1.52,0,2.933-0.172,3.473-0.247
		c0.865-0.12,3.938-0.608,5.918-1.67l1.505,11.668L75.662,53.586z M65.412,53.07c-6.465-0.924-10.51-2.839-11.263-4.368L54.035,48
		c0.064-1.249,3.2-3.406,10.044-4.58L65.412,53.07z M76.383,28.492l0.057,0.44c-0.418,0.456-2.455,1.416-5.908,1.893
		c-3.46,0.479-5.682,0.106-6.204-0.22l-0.067-0.483c0-0.001-0.001-0.002-0.001-0.004l-1.827-13.209
		c0.747,0.167,1.667,0.255,2.78,0.255c1.069,0,2.213-0.083,3.399-0.246c0.868-0.12,3.961-0.612,5.94-1.684L76.383,28.492z
		 M68.085,13.146c1.081-0.149,2.162-0.228,3.127-0.228c1.472,0,2.345,0.175,2.79,0.327c-0.726,0.496-2.66,1.277-5.666,1.693
		c-1.08,0.149-2.16,0.228-3.125,0.228c-1.474,0-2.347-0.175-2.793-0.327C63.146,14.342,65.081,13.562,68.085,13.146z M55.95,5.856
		L23.877,17.064L9.169,9.531L55.95,2.17V5.856z M22.802,97.363L6.979,89.257V10.656l15.823,8.105V97.363z M24.802,97.59V18.86
		L65.13,4.767v6.914c-2.344,0.574-5.209,1.651-4.96,3.472l2.199,15.888c0,0.001,0.001,0.002,0.001,0.003l1.436,10.393
		c-5.864,1.006-11.777,3.21-11.777,6.604v0.2c0,0.34,0.062,0.681,0.185,1.015l5.964,36.67L24.802,97.59z M85.831,91.267
		c-0.009,0.055-0.014,0.109-0.014,0.164c0,2.277-5.419,4.924-12.406,4.924c-7.045,0-12.308-2.541-12.308-4.813
		c0-0.054-0.004-0.107-0.013-0.16l-6.427-39.52c3.645,2.275,10.719,3.761,18.861,3.761c8.09,0,15.173-1.443,18.83-3.649
		L85.831,91.267z M82.537,52.964l2.149-9.258c6.087,1.254,8.335,3.167,8.335,4.194c0,0.01,0.005,0.018,0.005,0.027l-0.164,0.988
		C91.997,50.47,88.174,52.088,82.537,52.964z"/>
</g>
</svg>
