<?xml version="1.0" encoding="utf-8"?>
<!-- Generator: Adobe Illustrator 16.0.0, SVG Export Plug-In . SVG Version: 6.00 Build 0)  -->
<!DOCTYPE svg PUBLIC "-//W3C//DTD SVG 1.1//EN" "http://www.w3.org/Graphics/SVG/1.1/DTD/svg11.dtd">
<svg version="1.1" xmlns="http://www.w3.org/2000/svg" xmlns:xlink="http://www.w3.org/1999/xlink" x="0px" y="0px" width="100px"
	 height="100px" viewBox="0 0 100 100" enable-background="new 0 0 100 100" xml:space="preserve">
<g id="Calque_1">
</g>
<g id="Calque_2">
	<path d="M96.083,23.079c0-0.033-0.016-0.06-0.019-0.092c-0.183-5.261-4.263-9.545-9.441-10.034V2.613
		C86.624,1.291,85.688,0,74.509,0C63.327,0,62.391,1.291,62.391,2.613v10.34c-5.174,0.494-9.249,4.776-9.432,10.034
		c-0.003,0.032-0.019,0.059-0.019,0.092c0,0.02,0.01,0.036,0.011,0.055c-0.001,0.074-0.011,0.145-0.011,0.219V66.59H28.788
		c-0.189,0-0.374,0.054-0.534,0.154L4.382,81.821c-0.04,0.025-0.068,0.062-0.103,0.091c-0.033,0.028-0.066,0.053-0.095,0.084
		c-0.061,0.067-0.108,0.141-0.148,0.221c-0.014,0.026-0.033,0.048-0.044,0.076c-0.045,0.112-0.069,0.231-0.071,0.354
		c0,0.007-0.004,0.013-0.004,0.02V99c0,0.552,0.448,1,1,1h53.822c0.118,0,0.233-0.028,0.345-0.07
		c0.032-0.012,0.062-0.026,0.092-0.041c0.032-0.016,0.066-0.024,0.097-0.043l23.872-15.077c0.29-0.184,0.466-0.502,0.466-0.846
		v-3.968h2.158c0.044,0,0.087,0,0.131,0c2.57,0,4.992-0.012,6.818-0.712c2.265-0.87,3.366-2.656,3.366-5.46v-50.43
		c0-0.074-0.01-0.145-0.011-0.219C96.073,23.114,96.083,23.098,96.083,23.079z M94.083,62c-3.187-0.485-5.639-3.236-5.639-6.556
		V30.717c0-3.32,2.453-6.07,5.639-6.555V62z M64.391,4.452c1.085,0.305,2.75,0.541,5.292,0.668c0.491,1.919,2.466,3.362,4.829,3.362
		S78.85,7.04,79.341,5.12c2.536-0.127,4.199-0.363,5.282-0.667v9.06c-0.947,0.395-4.396,0.988-10.111,0.988
		c-5.736,0-9.188-0.598-10.121-0.992V4.452z M71.872,5.197c0.811,0.018,1.684,0.028,2.637,0.028c0.956,0,1.832-0.01,2.644-0.028
		c-0.481,0.758-1.479,1.285-2.641,1.285S72.354,5.955,71.872,5.197z M74.509,2c5.45,0,8.029,0.333,9.234,0.613
		c-1.205,0.28-3.784,0.613-9.234,0.613c-5.452,0-8.031-0.333-9.236-0.613C66.478,2.333,69.057,2,74.509,2z M60.58,51.256v4.188
		c0,3.32-2.453,6.071-5.639,6.556V24.162c3.187,0.485,5.639,3.235,5.639,6.555V51.256z M29.078,68.59h50.076L58.448,81.667H8.373
		L29.078,68.59z M5.917,83.667h51.822V98H5.917V83.667z M59.738,97.186V83.218L81.61,69.404v13.967L59.738,97.186z M92.001,77.375
		c-1.511,0.58-3.827,0.567-6.232,0.58H83.61V67.59c0-0.094-0.014-0.185-0.039-0.273c0-0.001,0-0.003,0-0.005
		c-0.003-0.011-0.011-0.019-0.014-0.03c-0.027-0.083-0.064-0.162-0.111-0.234c-0.019-0.029-0.041-0.053-0.063-0.079
		c-0.041-0.051-0.084-0.097-0.134-0.139c-0.028-0.024-0.057-0.045-0.088-0.066c-0.023-0.016-0.042-0.036-0.067-0.05
		c-0.033-0.018-0.068-0.025-0.102-0.039c-0.033-0.014-0.065-0.028-0.1-0.039c-0.076-0.022-0.152-0.034-0.23-0.038
		c-0.018-0.001-0.034-0.008-0.051-0.008H54.941v-2.569c4.293-0.498,7.639-4.152,7.639-8.577v-4.188V30.717
		c0-4.392-3.297-8.021-7.544-8.562c0.566-3.967,3.892-7.048,7.969-7.234c1.404,1.047,5.25,1.579,11.508,1.579
		s10.104-0.532,11.508-1.579c4.077,0.186,7.402,3.267,7.969,7.234c-4.248,0.541-7.544,4.17-7.544,8.562v24.727
		c0,4.425,3.346,8.079,7.639,8.577v9.761C94.083,76.244,93.031,76.979,92.001,77.375z M58.578,78.024l6.493-4.102
		c1.249-0.789,1.336-1.562,1.188-2.07c-0.147-0.509-0.633-1.116-2.112-1.116H34.168c-1.572,0-3.843,0.657-5.171,1.496l-6.493,4.102
		c-1.25,0.789-1.337,1.562-1.189,2.071c0.147,0.51,0.633,1.117,2.111,1.117h29.98C54.977,79.521,57.248,78.864,58.578,78.024z
		 M30.066,73.922c1-0.632,2.918-1.187,4.103-1.187h29.037l-5.695,3.598c-1.002,0.633-2.92,1.188-4.104,1.188H24.37L30.066,73.922z"
		/>
</g>
</svg>
