<svg id="Calque_1" data-name="Calque 1" xmlns="http://www.w3.org/2000/svg" viewBox="0 0 300 300"><defs><style>.cls-1{fill:#1d1d1b;}</style></defs><title>picto_ardeche</title><path class="cls-1" d="M150,6A144,144,0,0,1,251.82,251.82,144,144,0,1,1,48.18,48.18,143,143,0,0,1,150,6m0-6A150,150,0,1,0,300,150,150,150,0,0,0,150,0Z"/><path d="M201,122.88a2.52,2.52,0,0,1-2.45-3l2.7-13.74a2.72,2.72,0,0,1,.2-.61l2.7-5.56a2.5,2.5,0,0,1,4.75,1,33.57,33.57,0,0,1-5.84,20.86A2.47,2.47,0,0,1,201,122.88Z"/><path d="M186.19,227.74a2.45,2.45,0,0,1-1-.22c-1.3-.61-1.3-.61-2.73-9.06-.19-1.09-.39-2.3-.58-3.36l-5.93-.31a2.47,2.47,0,0,1-1.49-.59c-.64.86-1.45,2-2.07,2.87a39.53,39.53,0,0,1-4.17,5.38,2.49,2.49,0,0,1-4-1,2.71,2.71,0,0,1,.79-3.35,27.19,27.19,0,0,0,.36-6.55l-.73-.37-1.22-.63a18.56,18.56,0,0,1-2,5.25,2.93,2.93,0,0,1-2.63,1.33c-2.28-.17-2.73-2.1-2.76-4.53l-.65.68c-.79.81-2.44,2.5-4.28,1.08-2.39-1.84-1.71-4.9-1.16-7.35.12-.54.27-1.2.37-1.81l-3.27.67a2.5,2.5,0,0,1-2.95-1.9l-.9-4.07a2.44,2.44,0,0,1-.09-2.06c15.63-36.29-5.62-49.36-26.18-62a2.5,2.5,0,0,1,2.59-4.28c2,1.17,3.62,2.19,5.15,3.14l.73-.31-7-3.9a2.5,2.5,0,0,1,.23-4.48,15.63,15.63,0,0,1,4.51-1.22l2.54-1.18a2.5,2.5,0,0,1,1.73-2.62l7.63-2.42-.24-.33-3.55-4.91-1.2-1.65a2.51,2.51,0,0,1,1.64-3.94l2.28-.36c1.81-.28,3.63-.57,5.45-.83l-3-5.76a2.52,2.52,0,0,1,.26-2.71,2.49,2.49,0,0,1,2.58-.86L144,98.43a2.52,2.52,0,0,1,.72-.66l1.36-.82-2-7.85a2.5,2.5,0,0,1,3.71-2.76L152.15,89l1.6-2.21a2.48,2.48,0,0,1,1.64-1,2.53,2.53,0,0,1,1.86.45l3.47,2.54.65-3.43a2.5,2.5,0,0,1,4.58-.86,41.68,41.68,0,0,0,2.94,4.22A18.92,18.92,0,0,0,171,90.94c2.13,1.84,5,3.41,10.41,1.36a2.54,2.54,0,0,1,4.24,1.36,2.32,2.32,0,0,1,.07.46c0,.1,0,.29.05.56l1.18-.43c4-1.44,8.09-2.94,12-4.54,2.48-1,4.7-1.95,6.78-2.92a14,14,0,0,0,4.1-3.51l.84-1q.41-.48.84-1c.39-.44.8-.88,1.21-1.31a21.71,21.71,0,0,1,2.07-1.91,35.91,35.91,0,0,1,6.51-3.89l.53-.27L223,73.4l1.08-.58a2.5,2.5,0,0,1,2.95.37l2.09,2a2.51,2.51,0,0,1,.54,2.86c-.51,1.12-1.08,2.21-1.76,3.5L227,83.23c-.52,1-1.11,2.11-1.62,3.24a19.39,19.39,0,0,0-1.54,4.63c-.09.54-.17,1.09-.23,1.65a30,30,0,0,0-.14,3.46c0,1.16.12,2.36.27,3.56.08.59.17,1.18.28,1.76.21,1.15.48,2.3.8,3.42s.64,2.14,1,3.21a2.47,2.47,0,0,1,1.84,1.07c.49.71.95,1.33,1.4,1.88a3.43,3.43,0,0,1,.55.06,2.52,2.52,0,0,1,1.94,2.07c0,.15,0,.3.05.44a11.89,11.89,0,0,0,3.42,1.86q.57.19,1.17.36c.42.12.86.23,1.31.32a64.1,64.1,0,0,0,10.52,1,2.5,2.5,0,0,1,1,4.74l-7,3.44,9.56,4.69a2.5,2.5,0,0,1-.05,4.51l-2.73,1.27c1.6,1.1,3.22,2.62,3.32,5a5.72,5.72,0,0,1-.28,2,7.07,7.07,0,0,1-.53,1.26,9.38,9.38,0,0,1-.62,1,37.42,37.42,0,0,0,2.92,3.29,21.85,21.85,0,0,0,2.23,2c.15.12.31.22.45.32.42.27.84.52,1.28.76a33.43,33.43,0,0,0,3.61,1.67,2.51,2.51,0,0,1,.15,4.58,4.24,4.24,0,0,1-1.21,3.35,3.55,3.55,0,0,1-1.71.85l2.33,1.84a2.52,2.52,0,0,1,.83,2.72l-.58,1.8a2.49,2.49,0,0,1-2.25,1.74l-4.71.24,2.7,3.41a2.5,2.5,0,0,1-1.66,4l-1.27.15a14,14,0,0,1-4.1-.41c2.37,2.7,2.52,2.91,2.58,3a2.5,2.5,0,0,1-1.66,3.9l-3.91.61,3,6a2.5,2.5,0,0,1-2.89,3.52l-4-1.08c.29.54.59,1.07.87,1.57a2.49,2.49,0,0,1-3.37,3.43l-.66-.36v.28a4.77,4.77,0,0,0,.55,2.66,2.5,2.5,0,0,1-2.71,4.2c-.11-.07-1.39-.88-3.13-2,1,2.37,1.21,3.65.39,4.85a3,3,0,0,1-2.32,1.3,3.66,3.66,0,0,1-2.59-1c1.21,3.69,1.3,4.51.6,5.59a2.52,2.52,0,0,1-2.77,1c-.64-.19-.83-.38-1.74-1.29-3.12-3.18-4.46-4.48-5-5l-.33-.09-2.67,6.27a2.44,2.44,0,0,1-1.19,1.26l.4,2.4a2.5,2.5,0,0,1-3.86,2.49,16.74,16.74,0,0,1-4.85-5.09,2.45,2.45,0,0,1-1.36-.92l-2.74-3.63-2.2,2.58a86.67,86.67,0,0,1,1,9,4.71,4.71,0,0,1-2.55,4.49,3,3,0,0,1-3.48-.86,2.39,2.39,0,0,1-.5-.91L195,220.9H195a2.49,2.49,0,0,1-1.93-1l-1.68-2.32c-.32.94-.71,2.18-1.07,3.31-2,6.16-2,6.16-3.09,6.66A2.4,2.4,0,0,1,186.19,227.74Zm5.68-16.24a2.48,2.48,0,0,1,2,1l1.48,2a2.52,2.52,0,0,1,1.65-.15l.07,0-.12-.73a2.51,2.51,0,0,1,.56-2l5-5.84a2.5,2.5,0,0,1,3.89.12l3.34,4.42h.09a2.47,2.47,0,0,1,.85.26l-.1-.61a2.5,2.5,0,0,1,4.63-1.68l0,.06,1.58-3.71a2.51,2.51,0,0,1,3-1.43l2.91.81a2.28,2.28,0,0,1,.44.15c-1-3.08-1-3.76-.38-4.76a3.08,3.08,0,0,1,2.42-1.45,3.36,3.36,0,0,1,1.76.38,3.16,3.16,0,0,1,.37-3.15,2.5,2.5,0,0,1,3.42-.48c.93.67,2,1.38,3,2.07a10.13,10.13,0,0,1-1.39-3,2.21,2.21,0,0,1-.08-.37l0-.18a2.36,2.36,0,0,1,0-.46,2.18,2.18,0,0,1,.13-.72,2.57,2.57,0,0,1,.95-1.28c.74-.51,1.22-.74,2.65-.21a2.43,2.43,0,0,1,.46-2.42,2.61,2.61,0,0,1,2.73-.91l3.63,1-1.68-3.39a2.52,2.52,0,0,1,0-2.27l.44-.84a2.51,2.51,0,0,1,1.83-1.32l2-.31c-1.67-1.9-3.74-4.24-5.29-6a2.5,2.5,0,0,1,2.74-4c2,.75,4.35,1.5,6.32,2l-2.05-2.58a2.5,2.5,0,0,1,1.83-4.05l5.6-.29-5.81-4.59a2.5,2.5,0,0,1,1.84-4.44l5.76.68c0-.13,0-.27,0-.42-.41-.2-.8-.4-1.18-.61-.56-.31-1.08-.62-1.59-1-.22-.15-.47-.32-.71-.5a26.74,26.74,0,0,1-2.78-2.46,44.58,44.58,0,0,1-3.22-3.61c-1.1-1.39-2.6-3.3-1.07-5a8.09,8.09,0,0,0,1.11-1.52c.08-.16.14-.31.19-.44a1.19,1.19,0,0,0,0-.28c0-.4-1.5-1.34-2.21-1.79a14.49,14.49,0,0,1-2.9-2.18,2.51,2.51,0,0,1,.77-4l1.88-.86-9.44-4.62a2.5,2.5,0,0,1,0-4.49l3.41-1.67c-.77-.12-1.48-.24-2.15-.39s-1.09-.24-1.61-.39-1-.3-1.52-.47a16.67,16.67,0,0,1-5.87-3.52,2.66,2.66,0,0,1-.32-.35,3.17,3.17,0,0,1-.35-.29l-.06-.06a2.57,2.57,0,0,1-1.17.54,2.49,2.49,0,0,1-2.81-1.72c-.43-1.26-.86-2.54-1.28-3.83l-.18-.57c-.44-1.37-.86-2.73-1.26-4.11s-.68-2.6-.92-3.91c-.12-.67-.23-1.34-.31-2a36,36,0,0,1-.31-4.1,32.15,32.15,0,0,1,.16-4.08c.07-.68.17-1.36.28-2a24.32,24.32,0,0,1,1.9-5.81c.57-1.26,1.21-2.48,1.76-3.52l.89-1.69.31-.58-.17.08A32.78,32.78,0,0,0,218,82.05a15.59,15.59,0,0,0-1.59,1.47c-.37.38-.72.77-1.08,1.17l-.81.92-.87,1a18.41,18.41,0,0,1-5.72,4.72c-2.16,1-4.45,2-7,3-4,1.63-8.21,3.14-12.23,4.6l-4.23,1.54a2.5,2.5,0,0,1-3.35-2.14l-.06-.67a13.67,13.67,0,0,1-13.28-3,22.76,22.76,0,0,1-2.58-2.67l-.28,1.51A2.5,2.5,0,0,1,161,95.12l-4.65-3.39-1.48,2a2.49,2.49,0,0,1-3.31.67l-1.1-.66.75,2.92a2.56,2.56,0,0,1-.11,1.57l-.52,1.27a2.47,2.47,0,0,1-.91,1.11,2.51,2.51,0,0,1-.08,2.64,2.48,2.48,0,0,1-2.73,1l-3.41-.87,2.25,4.34a2.51,2.51,0,0,1-2.22,3.65c-.49,0-.93,0-1.32,0s-.73,0-1.06,0l-.4,0c-1.4.19-2.8.41-4.2.63q1.2,1.64,2.37,3.27l2.22,3.19a2.49,2.49,0,0,1-1.3,3.81l-8.65,2.74a2.48,2.48,0,0,1-1.41,2.16c-1.19.58-2.45,1.18-3.74,1.77l6.29,3.5A2.5,2.5,0,0,1,132,137l-2.4,1c17.11,11.64,32.3,27.81,18.46,60.88l.35,1.6,3.56-.74a2.5,2.5,0,0,1,2.7,1.27,7.81,7.81,0,0,1,.52,5.15c2-2.09,2.86-2.55,4.38-1.67h0a2.65,2.65,0,0,1,.87-.58,2.5,2.5,0,0,1,3,.91,34.22,34.22,0,0,0,3.41,1.9c2.38,1.21,3.37,1.72,3.42,3.32,0,.44,0,.85,0,1.25a14.18,14.18,0,0,1,1.7-2,3.75,3.75,0,0,1,3-1.23,2.51,2.51,0,0,1,1.71.05,2.49,2.49,0,0,1,1.53,1.8l3.22.17a2.5,2.5,0,0,1,.93-.78,2.65,2.65,0,0,1,2.9.37c.6.5.73.61,1.35,4.12a3,3,0,0,1,1-.64l.58-.27.41-.2a24.7,24.7,0,0,1,2.41-1.05A2.54,2.54,0,0,1,191.87,211.5Zm57.67-64.86h0ZM187.93,159.9l-.26,0a2.49,2.49,0,0,1-2.21-2.08l-.1-.62a2.19,2.19,0,0,1,0-.51v-.4a2.43,2.43,0,0,1-.25-.76l-3.86-23.94a.88.88,0,0,1,0-.17,11.22,11.22,0,0,1,.51-3.76,1,1,0,0,0,.05-.16c.28-.81,1.06-4.86-.2-23.07a2.5,2.5,0,0,1,1.55-2.49q10.77-4.38,21.56-8.68L210.19,91l.15-.06a8.57,8.57,0,0,1,1.75-.49l.47-.08.93-.09-.2,0a2.5,2.5,0,0,1,2.91,3l-.6,2.44a7.48,7.48,0,0,1,1.3,3.74,2.46,2.46,0,0,1,1,1.29c1.14,3.4,2.31,6.79,3.48,10.19l.75,2.16c.89,2.56,1.77,5.11,2.64,7.67a2.49,2.49,0,0,1-.59,2.57,148.93,148.93,0,0,1-12.6,10.89c-9,7.19-17.48,14-21.31,24A2.5,2.5,0,0,1,187.93,159.9Zm1.23-10.54.08,0c4.92-7.54,12.15-13.33,19.2-19,3.76-3,7.64-6.11,11.08-9.42q-1.05-3.09-2.12-6.16l-.75-2.17q-1.52-4.35-3-8.72a2.51,2.51,0,0,1-1.87-3.2,2.49,2.49,0,0,0-.69-2.55,2.49,2.49,0,0,1-.73-1.87l-3.83,1.54q-9.93,4-19.86,8c1.21,18.53.24,22-.14,23.12a9.32,9.32,0,0,0-.35,1.94Z"/><path d="M101,222.1h-.21a110.75,110.75,0,0,1-21.53-2.66,79.33,79.33,0,0,1-20.86-7.13c-7.69-4.12-13.35-9.4-16.85-15.71a36.48,36.48,0,0,1,.63-34.32,75.1,75.1,0,0,1,6.49-9.06A126.9,126.9,0,0,1,63.7,137.61c1.53-1.29,2.9-2.42,4.42-3.49,1.18-.84,2.39-1.62,3.56-2.36l1.86-1.21a32.86,32.86,0,0,0,6.74-5.18A7.31,7.31,0,0,0,82,122.2l.46-2.46c.19-.95.41-1.83.63-2.67l.15-.58a22.07,22.07,0,0,0,.8-4.1,5.32,5.32,0,0,0-.9-3.27l-.17-.25a2.49,2.49,0,0,1,1.1-3.7l.26-.11a31.9,31.9,0,0,1,5.1-1.75,9.52,9.52,0,0,1,3.45-.25,4,4,0,0,1,2.94,1.9l.06.1a4.37,4.37,0,0,1,.33,3l-1.79,8.26a6.57,6.57,0,0,0-.23,1.45,5.26,5.26,0,0,0,1.32,3.11,16.8,16.8,0,0,0,3.35,3,79.85,79.85,0,0,0,8.69,5.21l9.29,4.89a151.87,151.87,0,0,1,18.42,11.18l.74.55a48.37,48.37,0,0,1,7.89,6.82,31.94,31.94,0,0,1,5.86,10.36v0A43.16,43.16,0,0,1,151,185.61,43.14,43.14,0,0,1,122.4,218,59.85,59.85,0,0,1,101,222.1Zm-10.56-7.8a73.23,73.23,0,0,0,10.47,1.22,50.11,50.11,0,0,0,19.44-3.15,45.15,45.15,0,0,0,8.9-4.23c.72-.47,1.41-1,2.09-1.48-10.86-3.53-22.1-2.53-33.47,3l-2.17,1.09A49.79,49.79,0,0,0,90.39,214.3ZM83,213.19a2.31,2.31,0,0,1,.2.24l2.61-1.93a67.22,67.22,0,0,1,7.6-5.19l2.23-1.13c13.29-6.46,26.44-7.33,39.15-2.61l.26-.29a64.92,64.92,0,0,0-12.76-2.92,2.5,2.5,0,0,1-1.56-4.49,8.51,8.51,0,0,0,2.87-4,13,13,0,0,0,.56-5.29l0,.16c-.74,4.59-3.43,10.77-8.57,13.09a2.51,2.51,0,0,1-1.43.19,23.76,23.76,0,0,1-8.37-2.91l.39.55a2.49,2.49,0,0,1-1.36,3.85,26.94,26.94,0,0,0-6.36,2.66,2.45,2.45,0,0,1-.84.38,2.36,2.36,0,0,1-.64.66l-1,.67a2.48,2.48,0,0,1-1.53.45,52.87,52.87,0,0,1-8.48-.86c.49.22,1,.41,1.5.59a2.5,2.5,0,0,1,.56,4.47c-1,.65-2,1.38-2.93,2.09C84.35,212.19,83.66,212.71,83,213.19Zm5.9-94.27c-.12.63-.22,1.23-.3,1.81-.06.37-.1.7-.13,1-.06.54-.12,1.09-.23,1.69a13.67,13.67,0,0,1-2.87,6.13,37.22,37.22,0,0,1-7.58,6.7l-1,.77a69.5,69.5,0,0,0-7.85,6.27,147.85,147.85,0,0,0-13.9,15,72.08,72.08,0,0,0-5.69,8.09,28.89,28.89,0,0,0-.69,26.31c2.62,4.9,7.28,9.3,13.46,12.71a71.12,71.12,0,0,0,9.05,4c2.17.74,4.15,1.35,6,1.87l1.62-1.26.89-.68c.67-.43,1.36-.94,2.09-1.49A19.24,19.24,0,0,1,72.54,194a2.5,2.5,0,0,1,4.82-1.19c1,2.62,3.6,4.91,7,6.1a21.36,21.36,0,0,0,2.93.78c-5.77-5.06-10.25-12.37-10.1-20.72.13-6.88,3.1-9.85,3.44-10.17a2.5,2.5,0,0,1,4.16,2.32c-1,5.21.38,11.23,4,16.92a57.59,57.59,0,0,0,8.5,10,28.52,28.52,0,0,1,2.88-1.25,27.57,27.57,0,0,1-3.83-9.35,10.72,10.72,0,0,1-.07-2.93,2.5,2.5,0,0,1,4.7-.82c3,5.83,7.18,9.11,13.08,10.27,2.4-1.47,4.44-5,5.08-9a32.47,32.47,0,0,0-2.33-18.1,2.5,2.5,0,0,1,4.37-2.39,53.84,53.84,0,0,1,6.54,14c1.71,5.65,1.89,10.11.56,14.05a14.17,14.17,0,0,1-1.19,2.56,59.07,59.07,0,0,1,11.8,3.39,36.39,36.39,0,0,0,5.39-14.09h0a36.73,36.73,0,0,0-1.64-18.87,23.14,23.14,0,0,0-7.91-11c-1.29-1.07-2.63-2.13-4-3.16A204.06,204.06,0,0,0,113.49,140l-9-5.38a84.27,84.27,0,0,1-9.06-6.12,26.09,26.09,0,0,1-4.21-4.17A10.93,10.93,0,0,1,88.86,118.92ZM77.45,211.3Zm0,0h0Zm44.91-11.94h0ZM89.21,109c0,.05,0,.09,0,.14a11.67,11.67,0,0,1,.49,3.41v.21l1-4.21C90.21,108.66,89.72,108.81,89.21,109Z"/></svg>