<?xml version="1.0" encoding="utf-8"?>
<!-- Generator: Adobe Illustrator 16.0.0, SVG Export Plug-In . SVG Version: 6.00 Build 0)  -->
<!DOCTYPE svg PUBLIC "-//W3C//DTD SVG 1.1//EN" "http://www.w3.org/Graphics/SVG/1.1/DTD/svg11.dtd">
<svg version="1.1" xmlns="http://www.w3.org/2000/svg" xmlns:xlink="http://www.w3.org/1999/xlink" x="0px" y="0px" width="100px"
	 height="100px" viewBox="0 0 100 100" enable-background="new 0 0 100 100" xml:space="preserve">
<g id="Calque_2">
</g>
<g id="Calque_1">
	<path d="M80.757,58.638c-0.129-0.84,0.973-1.726,2.461-1.974c1.491-0.249,2.807,0.232,2.938,1.072
		c0.13,0.841-0.973,1.724-2.463,1.974C82.204,59.958,80.888,59.479,80.757,58.638z M43.392,59.642
		c1.49-0.249,2.592-1.132,2.46-1.973c-0.129-0.842-1.443-1.322-2.935-1.073c-1.491,0.249-2.592,1.132-2.462,1.974
		C40.584,59.411,41.9,59.891,43.392,59.642z M58.229,51.497c1.299-0.216,2.261-0.987,2.146-1.719
		c-0.113-0.733-1.259-1.151-2.556-0.936c-1.301,0.218-2.261,0.987-2.147,1.721C55.786,51.295,56.931,51.714,58.229,51.497z
		 M73.747,66.778c-2.402,0.402-4.174,1.823-3.965,3.178c0.21,1.355,2.328,2.128,4.73,1.726c2.399-0.4,4.177-1.823,3.964-3.177
		C78.264,67.15,76.147,66.377,73.747,66.778z M57.234,66.742c2.401-0.4,4.176-1.824,3.964-3.177
		c-0.21-1.354-2.326-2.128-4.726-1.729c-2.402,0.403-4.175,1.825-3.966,3.179C52.717,66.371,54.835,67.143,57.234,66.742z
		 M75.135,52.292c2.307-0.666,3.619-2.216,2.927-3.461c-0.69-1.247-3.122-1.716-5.428-1.05c-2.312,0.667-3.624,2.217-2.931,3.462
		C70.395,52.488,72.825,52.958,75.135,52.292z M50.891,82.844c0.127,0.339,0.166,0.705,0.105,1.07
		c-0.062,0.595-0.573,0.921-1.159,1.294c-0.085,0.054-0.169,0.105-0.237,0.151c-0.312,0.56-0.815,0.959-1.206,1.206
		c-0.519,0.324-1.141,0.504-1.855,0.537c-0.016,0-0.093,0.002-0.108,0.002c-0.63,0-1.277-0.248-1.821-0.697
		c-0.509-0.423-0.828-1.053-0.9-1.776c-0.067-0.686,0.229-1.456,0.755-1.962c0.224-0.214,0.487-0.383,0.787-0.508
		c0.398-0.412,0.919-0.62,1.229-0.714c0.395-0.122,1.394-0.295,2.113-0.295c0.411,0,0.716,0.055,0.961,0.173
		C50.14,81.604,50.667,82.201,50.891,82.844z M48.944,83.408c-0.062-0.114-0.139-0.203-0.208-0.252
		c-0.042-0.004-0.091-0.004-0.143-0.004c-0.533,0-1.322,0.144-1.526,0.207c-0.226,0.069-0.354,0.162-0.381,0.197
		c-0.13,0.203-0.326,0.347-0.557,0.415c-0.124,0.036-0.217,0.084-0.279,0.143c-0.087,0.084-0.154,0.257-0.149,0.323
		c0.019,0.188,0.088,0.351,0.186,0.431c0.18,0.148,0.384,0.238,0.546,0.238v1l0.02-1c0.358-0.016,0.663-0.096,0.879-0.231
		c0.322-0.204,0.493-0.407,0.544-0.528c0.022-0.053,0.049-0.104,0.08-0.153c0.169-0.263,0.424-0.425,0.81-0.671
		C48.823,83.483,48.885,83.445,48.944,83.408z M35.591,79.189c-0.488-0.235-1.024-0.29-1.496-0.146
		c-0.384,0.118-1.142,0.621-1.338,0.81c-0.398,0.385-0.616,0.952-0.565,1.486c0.053,0.528,0.291,0.993,0.676,1.313
		c0.392,0.322,0.863,0.5,1.326,0.5c0.016,0,0.066-0.001,0.082-0.002c0.489-0.023,0.919-0.149,1.284-0.377
		c0.292-0.185,0.676-0.497,0.895-0.952c0.128-0.224,0.201-0.466,0.215-0.723c0.037-0.274,0.004-0.551-0.085-0.778
		C36.42,79.837,36.04,79.404,35.591,79.189z M99.173,63.063c-0.508,0.688-1.215,1.141-2.111,1.353
		c0.976,4.034-0.688,5.804-1.84,6.52c-1.1,0.684-2.655,0.654-3.934,0.494c0.015,0.119,0.025,0.24,0.031,0.365
		c0.079,1.908-1.028,4.209-2.52,5.24c-1.848,1.278-4.638,1.799-6.871,1.359c-0.436,1.158-1.383,3.202-3.431,3.99
		c-2.388,0.917-5.088,0.859-6.838-0.073c-0.992,1.026-2.983,2.967-5.262,3.35c-0.873,0.205-1.648,0.284-2.328,0.284
		c-1.385,0-2.373-0.328-2.994-0.597c-0.072,0.017-0.14,0.044-0.217,0.044c-0.505,0-0.907-0.382-0.973-0.87
		c-0.062-0.142-0.098-0.293-0.089-0.451c0.079-1.403-0.564-2.728-1.913-3.936c-2.771-2.483-7.661-3.723-10.32-3.278
		c-1.162,0.195-2.292,0.549-3.269,1.024c-0.29,0.14-0.629,0.133-0.911-0.018c-0.283-0.152-0.476-0.432-0.518-0.75
		c-0.003-0.026-0.01-0.104-0.012-0.129c-0.104-0.66-0.539-1.29-1.289-1.832c-1.825-1.317-5.024-1.792-8.351-1.236
		c-1.358,0.228-2.653,0.614-3.848,1.147c-0.459,0.206-1.003,0.036-1.264-0.396c-0.033-0.035-0.085-0.109-0.127-0.188
		c-0.03-0.055-0.054-0.113-0.073-0.173l-0.107-0.334c-0.45-1.395-1.139-3.54-0.401-5.634c-0.985-1.526-0.868-2.756-0.733-4.049
		c0.052-0.498,0.105-1.012,0.105-1.603c0-0.005,0.003-0.01,0.003-0.016c-0.006-0.166-0.005-0.333,0.021-0.503
		c0.211-1.425,1.541-2.705,3.418-3.47c-0.776-0.604-1.434-1.24-1.867-1.687c-1.75,0.933-4.45,0.991-6.837,0.073
		c-2.049-0.789-2.996-2.833-3.432-3.991c-2.233,0.44-5.023-0.082-6.872-1.36c-1.491-1.031-2.598-3.333-2.519-5.241
		c0.005-0.124,0.015-0.246,0.03-0.364c-1.277,0.159-2.833,0.189-3.932-0.493c-1.153-0.716-2.817-2.487-1.842-6.521
		c-0.896-0.212-1.603-0.665-2.111-1.353c-1.282-1.737-0.839-4.433-0.236-6.4c0.108-0.402,0.307-0.782,0.606-1.125
		c0.46-0.527,1.116-0.936,1.911-1.207c-0.682-0.52-1.186-1.127-1.461-1.784c-0.328-0.782-0.313-1.58,0.046-2.305
		c0.672-1.362,2.475-2.174,4.646-2.217c-0.286-0.477-0.446-0.979-0.463-1.485c-0.033-0.966,0.446-1.848,1.349-2.482
		c1.466-1.029,3.858-1.277,6.125-0.718c-0.038-0.348-0.008-0.697,0.091-1.039c0.321-1.106,1.315-1.95,2.8-2.375
		c2.09-0.597,4.811-0.223,6.783,0.855c0.089-0.274,0.224-0.538,0.402-0.784c0.777-1.071,2.316-1.726,4.223-1.797
		c2.535-0.092,5.075,0.833,6.454,2.279c1.126-1.283,3.441-1.883,6.027-1.45c2.586,0.432,4.604,1.757,5.273,3.342
		c1.75-0.927,4.445-0.982,6.825-0.067c1.795,0.69,3.056,1.814,3.458,3.084c0.092,0.292,0.138,0.586,0.136,0.876
		c2.204-0.387,4.904,0.142,6.709,1.391c1.29,0.891,1.973,2.021,1.925,3.182c-0.015,0.35-0.095,0.685-0.238,0.999
		c2.331,0.202,4.538,1.215,5.615,2.67c0.67,0.903,0.851,1.904,0.509,2.818c-0.174,0.463-0.477,0.88-0.887,1.233
		c2.056,0.743,3.527,2.098,3.751,3.607c0.071,0.478,0.01,0.95-0.166,1.39c1.583,0.187,2.847,0.806,3.527,1.742
		c0.179,0.246,0.313,0.51,0.402,0.785c1.947-1.065,4.726-1.441,6.782-0.855c1.485,0.425,2.48,1.269,2.801,2.375
		c0.099,0.343,0.129,0.693,0.09,1.044c2.246-0.548,4.714-0.278,6.125,0.712c0.903,0.635,1.382,1.517,1.35,2.482
		c-0.017,0.506-0.177,1.009-0.464,1.486c2.251,0.043,3.98,0.864,4.648,2.215c0.358,0.727,0.375,1.523,0.046,2.306
		c-0.276,0.657-0.779,1.264-1.462,1.784c0.804,0.274,1.465,0.688,1.924,1.221c0.294,0.341,0.49,0.719,0.596,1.118
		C100.013,58.638,100.454,61.329,99.173,63.063z M2.704,31.554c-0.111,0.126-0.166,0.243-0.191,0.346
		c-0.002,0.007,0,0.015-0.002,0.023c-0.001,0.003-0.002,0.007-0.003,0.01c-0.017,0.09-0.015,0.17-0.005,0.233
		c0.142,0.946,1.874,2.151,4.227,2.435c0.357,0.043,0.665,0.275,0.803,0.607l0.156,0.363c0.121,0.274,0.112,0.588-0.023,0.854
		c-0.136,0.267-0.383,0.459-0.675,0.524c-1.073,0.238-1.595,0.699-1.727,1.052c-0.099,0.265-0.018,0.576,0.242,0.925
		c0.901,1.217,3.369,2.057,5.5,1.869c0.291-0.021,0.57,0.075,0.778,0.273l0.368,0.338c0.231,0.216,0.347,0.53,0.311,0.845
		c-0.036,0.315-0.22,0.594-0.495,0.752c-0.307,0.177-0.676,0.47-0.693,0.864c-0.018,0.438,0.38,0.982,1.065,1.456
		c1.61,1.114,4.246,1.495,6.002,0.864c0.266-0.094,0.557-0.073,0.805,0.057l0.526,0.271c0.253,0.13,0.438,0.363,0.509,0.639
		c0.055,0.214,0.017,0.43-0.067,0.63v1.167c0.3,0.482,0.96,1.059,2.109,1.501c2.268,0.873,4.667,0.551,5.587-0.247
		c0.25-0.217,0.594-0.296,0.913-0.21l0.618,0.167c0.437,0.113,0.744,0.505,0.75,0.956c0.006,0.516,0.594,1.289,1.847,1.884
		c1.085-0.622,2.43-1.042,3.843-1.164c-0.143-0.314-0.224-0.65-0.239-1c-0.048-1.162,0.635-2.292,1.925-3.184
		c1.755-1.212,4.5-1.781,6.709-1.391c-0.001-0.29,0.044-0.583,0.136-0.875c0.403-1.271,1.664-2.395,3.459-3.084
		c2.299-0.884,5.115-0.841,6.825,0.065c0.669-1.585,2.688-2.909,5.273-3.34c0.547-0.091,1.096-0.138,1.631-0.138
		c1.922,0,3.52,0.598,4.393,1.588c1.138-1.196,3.079-2.025,5.16-2.228c-0.036-0.216-0.017-0.443,0.099-0.65
		c0.079-0.141,0.104-0.283,0.081-0.444c-0.141-0.945-1.872-2.15-4.224-2.436c-0.349-0.042-0.65-0.265-0.793-0.587l-0.168-0.377
		c-0.123-0.275-0.116-0.59,0.02-0.859c0.135-0.269,0.384-0.462,0.678-0.527c1.074-0.236,1.597-0.697,1.729-1.049
		c0.099-0.265,0.018-0.576-0.242-0.926c-0.902-1.218-3.366-2.058-5.5-1.871c-0.287,0.022-0.568-0.074-0.775-0.271l-0.369-0.337
		c-0.233-0.216-0.35-0.53-0.314-0.846c0.036-0.316,0.22-0.596,0.496-0.755c0.307-0.176,0.677-0.47,0.693-0.864
		c0.019-0.438-0.379-0.981-1.063-1.454c-1.613-1.115-4.249-1.494-6.003-0.864c-0.264,0.096-0.557,0.075-0.805-0.057l-0.527-0.274
		c-0.252-0.131-0.437-0.363-0.507-0.639c-0.07-0.275-0.021-0.567,0.138-0.804c0.139-0.209,0.168-0.422,0.089-0.669
		c-0.166-0.523-0.849-1.276-2.27-1.823c-2.269-0.873-4.667-0.551-5.588,0.246c-0.252,0.218-0.596,0.294-0.917,0.208l-0.615-0.166
		c-0.438-0.113-0.745-0.506-0.75-0.958c-0.009-0.898-1.554-2.118-3.84-2.5c-2.271-0.378-4.1,0.265-4.378,1.105
		c-0.144,0.436-0.567,0.724-1.023,0.683l-0.574-0.039c-0.327-0.021-0.685-0.206-0.854-0.486c-0.64-1.064-2.822-2.164-5.248-2.066
		c-1.495,0.055-2.364,0.539-2.679,0.973c-0.152,0.209-0.189,0.422-0.119,0.67c0.079,0.277,0.035,0.575-0.122,0.817
		s-0.41,0.405-0.695,0.446l-0.584,0.087c-0.276,0.041-0.554-0.033-0.772-0.206c-1.477-1.171-4.097-1.673-5.963-1.138
		c-0.775,0.222-1.31,0.599-1.429,1.009c-0.118,0.407,0.201,0.846,0.401,1.072c0.211,0.237,0.297,0.561,0.231,0.871
		c-0.066,0.311-0.275,0.572-0.564,0.704l-0.458,0.204c-0.262,0.121-0.563,0.123-0.825,0.006c-1.961-0.87-4.551-0.879-5.773-0.022
		c-0.341,0.24-0.509,0.501-0.5,0.778c0.013,0.386,0.372,1.008,1.338,1.594c0.258,0.156,0.432,0.421,0.473,0.72
		c0.041,0.299-0.056,0.601-0.263,0.82c-0.082,0.087-0.16,0.176-0.235,0.266c-0.238,0.283-0.611,0.409-0.975,0.334
		c-2.313-0.495-4.311,0.078-4.728,0.921c-0.062,0.125-0.128,0.329,0.005,0.646c0.225,0.537,1.042,1.347,2.606,1.861
		c0.468,0.154,0.754,0.625,0.674,1.112c-0.009,0.056-0.021,0.11-0.033,0.164L6.721,29.77c-0.062,0.506-0.498,0.874-1.004,0.879
		C4.099,30.625,3.079,31.125,2.704,31.554z M3.461,37.171c0.179-0.409,0.445-0.785,0.814-1.103c-0.885-0.32-1.652-0.758-2.268-1.269
		c-0.003,0.766,0.137,1.381,0.428,1.776C2.661,36.88,3.007,37.071,3.461,37.171z M9.284,44.019c-0.003-0.077-0.012-0.153-0.009-0.23
		c0.014-0.351,0.095-0.686,0.238-1c-1.875-0.162-3.658-0.854-4.849-1.874c-0.099,1.23,0.15,2.389,1.171,3.023
		C6.596,44.411,8.295,44.187,9.284,44.019z M18.113,51.015v-1.618c-0.021-0.054-0.049-0.107-0.066-0.162
		c-0.092-0.291-0.137-0.585-0.135-0.875c-2.205,0.388-4.908-0.142-6.711-1.39c-0.187-0.129-0.358-0.266-0.52-0.405
		c0,0.003-0.001,0.007-0.001,0.01c-0.051,1.226,0.724,2.868,1.658,3.514C13.883,51.158,16.365,51.541,18.113,51.015z M26.992,55.417
		c-0.005-0.042-0.024-0.078-0.024-0.121v-2.542c-1.628,0.396-3.636,0.271-5.464-0.431c-0.521-0.201-0.991-0.442-1.414-0.708
		c-0.024,0.205-0.103,0.39-0.231,0.537c0.307,0.865,0.964,2.528,2.364,3.067C23.989,55.898,25.827,55.847,26.992,55.417z
		 M29.583,55.417c0.023,0.024,0.053,0.055,0.077,0.08c0.113-0.336,0.266-0.669,0.503-0.989c0.035-0.047,0.081-0.09,0.118-0.137
		c-0.525-0.332-0.967-0.708-1.314-1.114v1.607C29.149,54.968,29.309,55.131,29.583,55.417z M28.965,63.069
		c0.38,0.44,1.349,0.91,2.929,0.91c0.528,0.021,1.027,0.369,1.092,0.872c0.001,0.012,0.011,0.098,0.012,0.11
		c0.005,0.021,0.038,0.197,0.042,0.219c0.08,0.486-0.207,0.958-0.673,1.111c-1.38,0.455-2.18,1.139-2.503,1.662
		c0.968-0.339,1.98-0.598,3.022-0.772c1.015-0.169,2.032-0.255,3.023-0.255c4.249,0,7.521,1.537,8.599,3.926
		c0.858-0.325,1.771-0.569,2.726-0.729c0.579-0.096,1.237-0.145,1.96-0.145c3.915,0,9.064,1.406,11.332,4.094
		c0.898,1.065,1.308,2.299,1.247,3.595c0.054,0.123,0.086,0.258,0.086,0.401v0.035c0.407,0.499,1.428,0.934,2.909,0.934
		c0.424,0,0.861-0.037,1.3-0.11c2.286-0.383,3.833-1.603,3.844-2.502c0.005-0.452,0.313-0.843,0.75-0.957l0.617-0.167
		c0.319-0.086,0.662-0.008,0.914,0.209c1.003,0.869,3.605,1.009,5.588,0.246c1.419-0.546,2.103-1.3,2.268-1.824
		c0.079-0.248,0.05-0.459-0.089-0.667c-0.158-0.237-0.208-0.53-0.137-0.806c0.071-0.276,0.256-0.509,0.509-0.639l0.527-0.272
		c0.248-0.131,0.538-0.152,0.804-0.057c0.546,0.196,1.214,0.3,1.93,0.3c1.496,0,3.018-0.436,4.072-1.165
		c0.686-0.474,1.083-1.018,1.066-1.456c-0.016-0.394-0.386-0.688-0.693-0.864c-0.275-0.158-0.458-0.438-0.495-0.752
		c-0.036-0.315,0.08-0.629,0.311-0.845l0.368-0.338c0.208-0.198,0.488-0.296,0.778-0.273c2.185,0.189,4.601-0.657,5.499-1.869
		c0.26-0.351,0.341-0.662,0.242-0.926c-0.132-0.353-0.654-0.814-1.727-1.052c-0.293-0.064-0.541-0.257-0.676-0.525
		c-0.135-0.268-0.143-0.582-0.021-0.856l0.155-0.361c0.139-0.332,0.446-0.563,0.803-0.606c2.353-0.284,4.085-1.489,4.228-2.438
		c0.009-0.062,0.011-0.14-0.005-0.229c-0.001-0.004-0.002-0.008-0.003-0.013c-0.002-0.008,0-0.015-0.002-0.023
		c-0.025-0.101-0.078-0.216-0.186-0.341c-0.479-0.554-1.627-0.912-2.928-0.912c-0.558-0.008-1.032-0.372-1.094-0.877
		c-0.001-0.013-0.01-0.1-0.011-0.112c-0.019-0.1-0.031-0.154-0.04-0.209c-0.08-0.486,0.206-0.959,0.674-1.113
		c1.563-0.514,2.381-1.324,2.606-1.861c0.133-0.318,0.066-0.521,0.004-0.647c-0.262-0.531-1.326-1.103-3.041-1.103
		c-0.556,0-1.123,0.061-1.687,0.182c-0.361,0.076-0.735-0.052-0.973-0.333c-0.076-0.09-0.153-0.179-0.236-0.267
		c-0.207-0.22-0.304-0.521-0.263-0.82c0.041-0.299,0.214-0.564,0.473-0.721c0.966-0.585,1.325-1.207,1.338-1.593
		c0.009-0.276-0.159-0.538-0.5-0.778c-1.168-0.821-3.865-0.823-5.772,0.023c-0.264,0.117-0.565,0.115-0.828-0.008l-0.455-0.204
		c-0.289-0.132-0.498-0.393-0.563-0.704s0.021-0.633,0.231-0.871c0.2-0.226,0.519-0.665,0.4-1.072
		c-0.119-0.41-0.653-0.787-1.43-1.009c-1.806-0.514-4.543,0.014-5.962,1.139c-0.217,0.172-0.494,0.248-0.772,0.206l-0.586-0.087
		c-0.285-0.042-0.538-0.206-0.693-0.447c-0.156-0.242-0.2-0.54-0.121-0.816c0.071-0.249,0.033-0.461-0.118-0.671
		c-0.315-0.434-1.184-0.917-2.679-0.972c-2.42-0.091-4.611,1.008-5.248,2.066c-0.169,0.28-0.464,0.46-0.79,0.482L65.6,42.792
		c-0.447,0.034-0.879-0.247-1.023-0.683c-0.2-0.604-1.321-1.215-3.076-1.215c-0.425,0-0.862,0.037-1.301,0.11
		c-2.286,0.381-3.832,1.601-3.841,2.5c-0.005,0.45-0.31,0.842-0.745,0.957l-0.58,0.156c-0.321,0.086-0.705,0.021-0.956-0.197
		c-1.004-0.867-3.605-1.008-5.589-0.246c-1.42,0.545-2.104,1.299-2.27,1.822c-0.079,0.248-0.051,0.46,0.089,0.669
		c0.158,0.236,0.208,0.527,0.138,0.803c-0.07,0.275-0.254,0.507-0.505,0.639l-0.529,0.276c-0.248,0.131-0.541,0.152-0.804,0.056
		c-0.547-0.197-1.216-0.301-1.933-0.301c-1.495,0-3.017,0.436-4.071,1.165c-0.685,0.473-1.083,1.017-1.064,1.455
		c0.016,0.394,0.386,0.688,0.693,0.864c0.275,0.158,0.459,0.438,0.496,0.754c0.036,0.315-0.08,0.629-0.313,0.846l-0.37,0.338
		c-0.208,0.196-0.485,0.295-0.775,0.27c-2.183-0.185-4.603,0.658-5.5,1.87c-0.26,0.351-0.342,0.662-0.243,0.927
		c0.132,0.352,0.655,0.813,1.729,1.049c0.294,0.064,0.543,0.258,0.678,0.527c0.135,0.269,0.143,0.584,0.02,0.859l-0.129,0.29
		c-0.143,0.321-0.484,0.632-0.833,0.675c-2.353,0.286-4.083,1.49-4.224,2.436C28.749,62.601,28.747,62.815,28.965,63.069z
		 M28.584,65.246c-0.023,0.371-0.012,0.702,0.06,1.028c0.215-0.237,0.455-0.467,0.732-0.678
		C29.091,65.499,28.831,65.378,28.584,65.246z M42.737,73.531c0.042,0.03,0.077,0.064,0.117,0.095l0.003-1.369
		c-0.001-0.013-0.002-0.029-0.003-0.037c-0.295-1.892-3.218-3.295-6.946-3.295c-0.881,0-1.787,0.077-2.694,0.228
		c-1.355,0.227-2.65,0.613-3.848,1.148c-0.095,0.043-0.195,0.06-0.294,0.071c0.006,0.854,0.226,1.708,0.46,2.464
		c1.066-0.398,2.189-0.697,3.352-0.893C36.779,71.294,40.461,71.887,42.737,73.531z M59.859,79.28v-0.684
		c-0.02-0.05-0.051-0.096-0.068-0.147c-0.052-0.155-0.064-0.321-0.037-0.482c0.163-0.957-0.084-1.809-0.757-2.605
		c-1.855-2.198-6.435-3.384-9.804-3.384c-0.613,0-1.161,0.04-1.63,0.118c-0.949,0.16-1.87,0.429-2.708,0.777l-0.005,2.633
		c0.76-0.266,1.552-0.48,2.383-0.62c3.18-0.524,8.746,0.857,11.986,3.762C59.449,78.853,59.66,79.064,59.859,79.28z M70.099,81.047
		c-0.07-0.137-0.119-0.286-0.119-0.45v-1.104c-0.946,0.663-2.175,1.169-3.583,1.405c-0.547,0.091-1.095,0.138-1.629,0.138
		c-1.106,0-2.094-0.208-2.909-0.565v3.034c0.703,0.3,2.031,0.691,4.146,0.197C67.638,83.426,69.221,81.943,70.099,81.047z
		 M80.205,77.277c0.004-0.011,0.008-0.021,0.012-0.032c-0.068-0.135-0.116-0.282-0.116-0.444V76.79
		c-0.469,0.318-1.003,0.601-1.604,0.833c-2.17,0.835-4.79,0.834-6.517,0.069v2.442c0.075,0.037,0.146,0.083,0.211,0.139
		c0.92,0.797,3.318,1.118,5.587,0.246C79.273,79.944,79.926,78.075,80.205,77.277z M89.32,71.878c0-0.003-0.001-0.008-0.001-0.011
		c-0.161,0.14-0.332,0.275-0.52,0.405c-1.749,1.211-4.488,1.783-6.699,1.393v2.709c1.733,0.435,4.078,0.042,5.562-0.983
		C88.596,74.745,89.371,73.104,89.32,71.878z M95.337,66.215c-1.182,1.012-2.955,1.707-4.85,1.871
		c0.143,0.315,0.225,0.652,0.239,1.003c0.003,0.077-0.005,0.153-0.009,0.229c0.989,0.168,2.688,0.391,3.45-0.082
		C95.188,68.603,95.436,67.445,95.337,66.215z M97.564,61.875c0.292-0.395,0.432-1.01,0.428-1.776
		c-0.616,0.511-1.383,0.949-2.268,1.269c0.369,0.318,0.636,0.694,0.815,1.103C96.994,62.372,97.339,62.18,97.564,61.875z
		 M16.307,34.409c1.49,0.249,2.806-0.231,2.937-1.072c0.129-0.84-0.973-1.726-2.461-1.973c-1.49-0.249-2.807,0.231-2.938,1.071
		C13.714,33.276,14.817,34.159,16.307,34.409z M56.609,34.34c1.491,0.249,2.807-0.231,2.937-1.072s-0.972-1.723-2.462-1.973
		c-1.492-0.25-2.806,0.231-2.935,1.072C54.017,33.208,55.119,34.091,56.609,34.34z M41.772,26.195
		c1.297,0.217,2.443-0.202,2.558-0.934c0.114-0.733-0.847-1.502-2.146-1.72c-1.298-0.215-2.443,0.203-2.557,0.936
		C39.511,25.208,40.473,25.979,41.772,26.195z M25.489,46.381c2.402,0.402,4.52-0.371,4.73-1.726
		c0.209-1.354-1.563-2.776-3.965-3.178c-2.401-0.401-4.518,0.372-4.729,1.727C21.313,44.558,23.09,45.98,25.489,46.381z
		 M42.767,41.44c2.399,0.401,4.518-0.371,4.728-1.726c0.209-1.354-1.564-2.776-3.966-3.178c-2.4-0.4-4.516,0.374-4.726,1.728
		C38.59,39.616,40.365,41.04,42.767,41.44z M24.866,26.991c2.31,0.667,4.74,0.196,5.433-1.048c0.692-1.245-0.62-2.795-2.931-3.462
		c-2.307-0.666-4.739-0.196-5.429,1.05C21.247,24.776,22.56,26.325,24.866,26.991z M63.546,56.519
		c0.174,0.363,0.482,0.692,0.899,0.956c0.362,0.227,0.793,0.353,1.285,0.375c0.014,0,0.063,0.002,0.077,0.002
		c0.465,0,0.937-0.179,1.331-0.504c0.38-0.316,0.618-0.781,0.671-1.316c0.05-0.527-0.167-1.094-0.569-1.482
		c-0.196-0.188-0.953-0.689-1.337-0.808c-0.464-0.141-1.002-0.089-1.494,0.146c-0.448,0.216-0.829,0.649-0.979,1.092
		c-0.103,0.263-0.136,0.543-0.1,0.817C63.346,56.053,63.417,56.295,63.546,56.519z"/>
</g>
</svg>
