<?xml version="1.0" encoding="utf-8"?>
<!-- Generator: Adobe Illustrator 16.0.0, SVG Export Plug-In . SVG Version: 6.00 Build 0)  -->
<!DOCTYPE svg PUBLIC "-//W3C//DTD SVG 1.1//EN" "http://www.w3.org/Graphics/SVG/1.1/DTD/svg11.dtd">
<svg version="1.1" xmlns="http://www.w3.org/2000/svg" xmlns:xlink="http://www.w3.org/1999/xlink" x="0px" y="0px" width="100px"
	 height="100px" viewBox="0 0 100 100" enable-background="new 0 0 100 100" xml:space="preserve">
<g id="Calque_2">
</g>
<g id="v2">
	<path d="M39.839,42.581c0.518-3.692,1.898-7.057,3.993-9.729c0.341-0.435,0.968-0.512,1.404-0.17
		c0.435,0.341,0.511,0.969,0.17,1.404c-1.878,2.396-3.118,5.429-3.587,8.773c-0.07,0.5-0.498,0.861-0.989,0.861
		c-0.046,0-0.093-0.003-0.14-0.01C40.144,43.633,39.762,43.127,39.839,42.581z M71.08,81.169v14.686
		c7.493,0.084,7.517,1.466,7.517,2.069c0,0.622,0,2.077-8.223,2.077c-5.769,0-7.484-0.716-7.998-1.358
		c-4.805,0.998-11.466,1.017-11.57,1.017c-0.164,0-16.42-0.044-16.42-3.826v-0.26c-1.501,0.143-3.12,0.231-4.446,0.231
		c-3.11,0-10.344-0.245-10.344-2.511V66.246c0-2.563,0.988-5.227,2.712-7.309c0.229-0.277,0.49-0.607,0.768-0.956
		c0.662-0.834,1.414-1.78,2.028-2.422l0.179-0.178c0.099-0.097,0.206-0.198,0.292-0.306c0.723-0.925,0.708-2.13,0.69-3.525
		c-0.005-0.421-0.009-0.847,0.006-1.273c0-0.001-0.001-0.002-0.001-0.004v-7.771c0-0.552,0.447-1,1-1h5.114c0.553,0,1,0.448,1,1
		v7.703c0.002,0.029,0.017,0.055,0.016,0.084l-0.005,0.274c-0.025,1.379-0.047,2.57,0.674,3.493c0.104,0.134,0.21,0.252,0.317,0.369
		v-11.09c0-4.995,1.497-9.657,4.216-13.128c0.838-1.069,1.81-1.928,2.748-2.758c0.707-0.625,1.374-1.215,1.979-1.882
		c0.167-0.18,0.312-0.397,0.461-0.612c0.096-0.14,0.192-0.279,0.292-0.413c1.644-2.21,1.709-6.148,1.762-9.312
		c0.01-0.591,0.02-1.163,0.038-1.704L45.95,0.995C45.953,0.444,46.4,0,46.95,0h7.71c0.553,0,1,0.448,1,1v12.85
		c0,2.816,0,8.058,2.067,10.836c0.098,0.132,0.304,0.312,0.485,0.471c0.19,0.167,0.372,0.329,0.512,0.482
		c0.594,0.653,1.199,1.22,1.841,1.82c0.893,0.835,1.815,1.7,2.667,2.785c2.612,3.334,3.993,7.861,3.993,13.092v3.896
		c0.038,0.105,0.067,0.215,0.067,0.334c0,0.136-0.026,0.266-0.067,0.393v11.355c0.906-0.039,1.941-0.061,3.134-0.061
		c8.942,0,9.29,1.198,9.304,1.911c0.491,1.752,0.741,3.607,0.741,5.515c0,1.915-0.252,3.781-0.748,5.545
		c-0.482,1.711-1.178,3.253-2.065,4.584c-0.904,1.359-1.97,2.434-3.168,3.192C73.363,80.674,72.24,81.055,71.08,81.169z
		 M69.08,95.861V81.089c-0.631-0.116-1.252-0.31-1.854-0.596v15.34c0,0.037-0.012,0.072-0.015,0.108
		C67.772,95.904,68.386,95.876,69.08,95.861z M77.653,71.923c-1.338,0.295-3.559,0.506-7.294,0.506c-3.704,0-5.919-0.208-7.26-0.499
		c0.421,1.407,0.997,2.677,1.725,3.768c0.752,1.127,1.617,2.007,2.572,2.614l0,0c1.907,1.208,4.06,1.205,5.955,0
		c0.96-0.609,1.826-1.487,2.574-2.613C76.657,74.605,77.233,73.332,77.653,71.923z M70.359,63.243c-4.008,0-6.283-0.241-7.582-0.571
		c-0.282,1.287-0.431,2.628-0.431,4.007c0,0.817,0.055,1.621,0.154,2.411c1.239-0.37,3.539-0.651,7.858-0.651
		c4.354,0,6.657,0.286,7.89,0.66c0.101-0.793,0.155-1.6,0.155-2.419c0-1.379-0.149-2.723-0.434-4.013
		C76.677,62.998,74.395,63.243,70.359,63.243z M65.226,59.446v-9.87c-4.39,1.789-14.26,1.816-14.388,1.816
		s-10.096-0.027-14.452-1.842v17.378c1.047,0.905,7.861,2.012,14.452,2.012c3.052,0,6.692-0.274,9.568-0.709
		c-0.037-0.513-0.06-1.03-0.06-1.552c0-1.866,0.242-3.677,0.711-5.392c0-0.013-0.001-0.026-0.001-0.038
		C61.057,60.715,61.071,59.833,65.226,59.446z M21.596,78.547c1.013,0.438,4.771,0.926,8.342,0.926c1.385,0,2.986-0.087,4.448-0.231
		v-8.444c-1.477,0.14-3.069,0.223-4.448,0.223c-2.073,0-5.977-0.113-8.342-0.863V78.547z M47.881,13.565
		c-0.006,0.188-0.008,0.381-0.013,0.569h5.794c0-0.094-0.002-0.191-0.002-0.285V2h-5.716L47.881,13.565z M36.386,43.335v4.044
		c1.047,0.905,7.861,2.013,14.452,2.013c6.483,0,13.17-1.07,14.388-1.967v-4.09c0-4.779-1.233-8.879-3.567-11.858
		c-0.756-0.964-1.584-1.738-2.46-2.558c-0.642-0.601-1.306-1.223-1.952-1.934c-0.094-0.103-0.22-0.209-0.35-0.322
		c-0.258-0.226-0.55-0.481-0.775-0.785c-1.867-2.511-2.321-6.174-2.426-9.743h-5.869c-0.066,3.28-0.277,7.098-2.139,9.6
		c-0.085,0.115-0.169,0.236-0.252,0.356c-0.192,0.279-0.392,0.567-0.631,0.827c-0.675,0.742-1.414,1.396-2.13,2.029
		c-0.912,0.807-1.773,1.569-2.499,2.495C37.731,34.562,36.386,38.786,36.386,43.335z M28.27,49.273h3.114v-5.771H28.27V49.273z
		 M21.596,66.246v1.847c1.014,0.439,4.771,0.927,8.342,0.927c1.379,0,2.981-0.088,4.448-0.233V57.389
		c-0.49-0.548-0.979-1.081-1.355-1.477c-0.18-0.185-0.363-0.398-0.54-0.627c-0.978-1.251-1.104-2.638-1.104-4.012h-3.121
		c0.001,0.084-0.002,0.169-0.001,0.252c0.02,1.624,0.041,3.303-1.121,4.79c-0.143,0.179-0.307,0.342-0.462,0.495l-0.139,0.138
		c-0.545,0.569-1.267,1.477-1.902,2.277c-0.284,0.357-0.554,0.697-0.79,0.984C22.417,61.942,21.596,64.141,21.596,66.246z
		 M34.386,93.563V81.252c-1.472,0.139-3.064,0.221-4.448,0.221c-2.073,0-5.977-0.113-8.342-0.862v12.27
		c1.089,0.43,4.971,0.923,8.344,0.923C31.264,93.804,32.896,93.711,34.386,93.563z M50.806,97.659c6.574,0,13.366-1.102,14.42-2.005
		v-16.27c0-0.065,0.025-0.123,0.037-0.185c-0.768-0.657-1.476-1.451-2.103-2.392c-0.888-1.33-1.583-2.872-2.065-4.583
		c-0.185-0.655-0.323-1.328-0.44-2.008c-2.965,0.444-6.692,0.724-9.816,0.724c-0.128,0-10.096-0.027-14.452-1.842v26.556
		C37.439,96.557,44.231,97.659,50.806,97.659z"/>
</g>
</svg>
