<svg id="Calque_1" data-name="Calque 1" xmlns="http://www.w3.org/2000/svg" viewBox="0 0 300 300"><defs><style>.cls-1{fill:#1d1d1b;}</style></defs><title>picto_alpes</title><path class="cls-1" d="M150,6A144,144,0,0,1,251.82,251.82,144,144,0,1,1,48.18,48.18,143,143,0,0,1,150,6m0-6A150,150,0,1,0,300,150,150,150,0,0,0,150,0Z"/><path d="M128.86,124.29c-4.37,0-9.24-3.22-11.35-5.49a29.53,29.53,0,0,1-6.83-13.1c-1.62-6.21-3-12.54-4.4-18.67l-.61-2.72c-.36-1.6-.65-3.21-.93-4.77-.35-1.89-.67-3.67-1.1-5.45-.13-.53-.29-1-.44-1.57a12.74,12.74,0,0,1-.66-6.8l0-.17c.27-1.2.69-3,2.28-3.88,1.92-1.05,4.16-.49,6,1.48l2.08,2.26c2.44,2.68,5,5.44,7.6,8,5.18,5.06,10.56,10.11,16,15,4.17,3.77,8.86,8.39,12.09,14.16,1.42,2.54,3.83,12.43.4,16.49-.88,1-2.88,2.61-6.41,1.36a11.8,11.8,0,0,1-4.92-3.88c-4.79-5.6-9.4-11.48-13.68-17.49h0l-.6-.84a32.67,32.67,0,0,0,5.85,11.38c.22.28.51.61.84,1,2.28,2.63,5.4,6.23,4.68,9.64a4.76,4.76,0,0,1-2.83,3.38A7.1,7.1,0,0,1,128.86,124.29ZM107.42,66.81v0a8.56,8.56,0,0,0,.58,4.24c.18.61.36,1.21.51,1.82.46,1.92.81,3.86,1.15,5.74.28,1.51.56,3.07.9,4.57l.61,2.72c1.35,6.09,2.76,12.38,4.35,18.49a25,25,0,0,0,5.66,11c2,2.09,6.7,4.63,8.65,3.71l.06,0c-.09-.83-1.29-2.58-3.55-5.19-.38-.44-.72-.82-1-1.14a37.94,37.94,0,0,1-8.21-24.61,2.5,2.5,0,0,1,4.6-1.28c2,3.14,4.16,6.28,6.33,9.32h0c4.2,5.89,8.71,11.65,13.41,17.13a7.63,7.63,0,0,0,2.79,2.42c.65.23.9.17.9.16,1.27-1,.43-8.42-.92-10.85-2.87-5.12-7-9.22-11.08-12.89-5.5-5-10.93-10.06-16.16-15.16-2.72-2.66-5.3-5.48-7.79-8.2Zm.33-1.19Z"/><path d="M225.31,187.92h-.84a99.17,99.17,0,0,1-22.21-2.41,47.89,47.89,0,0,1-7.84-2.49,12.92,12.92,0,0,1-3.82-3.2,13.06,13.06,0,0,0-1.58-1.55,2.5,2.5,0,0,1,1.54-4.76h0a56.23,56.23,0,0,0,14.17,2.29c1.06,0,2.13,0,3.16,0,.38,0,.78,0,1.19-.05A89.87,89.87,0,0,0,195.3,173c-5.84-.86-11.89-1.74-17.56-4-2.13-.83-5.07-2.3-6-5.42a5.66,5.66,0,0,1,.92-5.38c.9-1.13,3.64-4.57,18.18-3.66,6.77.43,13.94,2.13,22.58,5.37,10.08,3.77,18.85,9.84,26.1,15.28a18.68,18.68,0,0,1,3.95,4.51l.57.82a3.75,3.75,0,0,1,.34,3.82,4.73,4.73,0,0,1-4,2.59l-3.65.29C233,187.6,229.17,187.92,225.31,187.92Zm-21.37-7.15a97.08,97.08,0,0,0,20.59,2.15c3.9.06,7.92-.29,11.82-.61l2.64-.22a12.21,12.21,0,0,0-2.47-2.83c-7.31-5.49-15.39-11.06-24.85-14.6-8.16-3.06-14.88-4.66-21.14-5.06-9.43-.59-13.21.84-14,1.78-.08.1-.21.26,0,.84.23.76,1.25,1.5,3,2.19,5.14,2,10.64,2.82,16.47,3.67,7.11,1,14.47,2.11,21.08,5.59a2.51,2.51,0,0,1,.57,4c-2.74,2.62-6.6,3.05-9.67,3.12-1.13,0-2.29,0-3.44,0h0Zm-14.81-2.47Zm-.14-.06h0Z"/><path d="M189.89,155.05c-.66,0-1.32,0-2-.05l-.47,0c-2.8-.1-8.62-.31-9.4-4.56-.74-4,4.3-6.06,9.87-7.5a16.32,16.32,0,0,1-8.24-1.58,2.5,2.5,0,0,1-1.29-2.7c1-5.1,5.47-5.65,8.13-6,.65-.08,1.27-.16,1.82-.27,3-.64,6.13-1.53,9.12-2.39,1.72-.49,3.43-1,5.14-1.43,8.54-2.24,17.52-4.55,27.44-7a5.53,5.53,0,0,1,4.63.48,4.27,4.27,0,0,1,1.45,1.89c2.51,6-5.05,13.24-11.91,18.86a56.71,56.71,0,0,1-34.31,12.3Zm-6.1-5.46a20,20,0,0,0,3.83.4l.52,0a47.4,47.4,0,0,0,14.71-1.86A49.45,49.45,0,0,0,221,138.88c9.48-7.75,10.64-11.26,10.57-12.59l-.35.08c-9.9,2.49-18.86,4.8-27.39,7-1.68.44-3.35.92-5,1.4-3.08.89-6.27,1.8-9.48,2.47-.75.16-1.5.25-2.22.34s-1.21.16-1.66.25a28.12,28.12,0,0,0,5.4-.17A87.35,87.35,0,0,0,201.7,135c11.17-3.17,15.11-4.13,16.72-1.31a3,3,0,0,1,.17,2.61c-.55,1.39-1.39,3.48-21.88,9.68-.61.18-1.53.38-2.8.66C188.8,147.78,185.41,148.77,183.79,149.59Z"/><path d="M93,154c-2.45,0-4.85-1.22-7-2.32l-.92-.47a48.93,48.93,0,0,1-15.79-12.05c-4.9-5.76-10.36-12.62-13.17-21a2.49,2.49,0,0,1,.35-2.27l.47-.63a2.48,2.48,0,0,1,2.86-.87c.45.16.93.29,1.4.43a12.3,12.3,0,0,1,4,1.68c6.22,4.48,13.78,6.18,19.68,7.16,4.31.72,8.82,1,13.18,1.37,2.25.17,4.58.34,6.88.56.55,0,3.34.42,4.06,2.54a11.64,11.64,0,0,0,1.94,3,13,13,0,0,1,2.77,4.91,4.6,4.6,0,0,1-2.4,5.28,5.37,5.37,0,0,1-2.32.39,57.27,57.27,0,0,1-11.83-.84c1.18.78,2.33,1.59,3.47,2.43a3.75,3.75,0,0,1,1.29,1.54A3.5,3.5,0,0,1,102,147c-.64,2.74-4.83,5.71-6.32,6.38a6,6,0,0,1-.8.3h0A6.56,6.56,0,0,1,93,154ZM62.54,120.72c2.76,5.77,6.81,10.8,10.53,15.18a44,44,0,0,0,14.2,10.8l1,.49c1.81.92,4.07,2.06,5.25,1.71h0l.15-.05a13,13,0,0,0,3-2.32,71.3,71.3,0,0,0-14.08-7.85c-1.44-.6-5.27-2.2-5.32-5.91a2.51,2.51,0,0,1,2.75-2.52,38.68,38.68,0,0,1,10.63,3.12,49.54,49.54,0,0,0,6.69,2.35,48.59,48.59,0,0,0,11.35.92,12.24,12.24,0,0,0-1.68-2.49,18.71,18.71,0,0,1-2.39-3.63l-.15,0c-2.24-.22-4.54-.39-6.76-.55-4.48-.33-9.11-.67-13.64-1.42C77.66,127.47,69.53,125.63,62.54,120.72Z"/><path d="M69.31,202.56a2.5,2.5,0,0,1-2.45-3c.18-1,.32-1.85.46-2.72a33,33,0,0,1,1.2-5.48A63,63,0,0,1,94.3,157.94c4.66-3,8.57-3.72,11.31-2,2,1.22,2.89,2.7,2.82,4.4-.14,2.91-3.22,4.48-5.47,5.63-.3.15-.58.29-.81.42a43.68,43.68,0,0,0-11.37,9l9.06-6.4c7.32-5.16,14.34-7.83,20.87-7.92h.08a6.69,6.69,0,0,1,6,4,5.71,5.71,0,0,1-1,6.35,19.28,19.28,0,0,1-6,4.36C115,178,110,180.14,105.25,182.2l-6.19,2.68c-6.92,3-14.12,6.63-19.87,12.43a22.88,22.88,0,0,1-4.55,3.28L74,201a10.54,10.54,0,0,1-2.52,1c-.39.12-.83.25-1.33.43A2.57,2.57,0,0,1,69.31,202.56ZM102.2,160c-1,0-2.85.6-5.17,2.11A58.19,58.19,0,0,0,73.25,193a20.08,20.08,0,0,0-.72,3,15.64,15.64,0,0,0,3.11-2.24C82,187.38,90,183.37,97.06,180.3l6.21-2.69c4.75-2.05,9.67-4.17,14.44-6.37a14.31,14.31,0,0,0,4.38-3.2.73.73,0,0,0,.1-.92,1.73,1.73,0,0,0-1.41-1.05c-5.5.08-11.58,2.44-18.06,7l-18.57,13.1a2.5,2.5,0,0,1-3.94-1.84,9.5,9.5,0,0,1,1.85-5.75A49,49,0,0,1,99.74,162l1-.49a21.34,21.34,0,0,0,2.31-1.31l-.06,0A1.48,1.48,0,0,0,102.2,160Z"/><path d="M172.37,123.38a7.67,7.67,0,0,1-4.38-1.25,3.86,3.86,0,0,1-1.63-3.6,5,5,0,0,1,2.11-3.24,28.92,28.92,0,0,0,10-17l-2.74,3.32h0l-3.79,4.59a102.91,102.91,0,0,1-8.5,9.47,7.67,7.67,0,0,1-5.22,2.57h0A5.37,5.37,0,0,1,153,114.2c-1-4.1,4.65-10.37,6.4-12.19A141.35,141.35,0,0,0,170.81,87.9c.79-1.07,1.58-2.14,2.38-3.2,3.92-5.23,8.12-10.38,12.18-15.35l1.86-2.3a5.71,5.71,0,0,1,2.6-1.61,4.23,4.23,0,0,0,.57-.23,2.54,2.54,0,0,1,2-.07,2.5,2.5,0,0,1,1.41,1.44,5.11,5.11,0,0,0,.22.48,5,5,0,0,1,.71,2.85c-.08.86-.15,1.71-.23,2.57a97.7,97.7,0,0,1-1.35,10.73c-1.66,8.21-3.67,16.42-5.41,23.36a29.7,29.7,0,0,1-1.92,5c-.31.67-.62,1.35-.9,2-2.17,5.3-6.84,7.86-10.16,9.31A6.16,6.16,0,0,1,172.37,123.38Zm8.95-35a2.78,2.78,0,0,1,.75.11,2.5,2.5,0,0,1,1.74,2.18,33.58,33.58,0,0,1-11.25,27.69.87.87,0,0,0,.3,0c4-1.75,6.32-3.8,7.47-6.6.3-.74.63-1.48,1-2.21a25.47,25.47,0,0,0,1.62-4.17c1.73-6.89,3.72-15,5.35-23.14a93.77,93.77,0,0,0,1.27-10.08l-.3.37c-4,4.93-8.19,10-12.05,15.19-.79,1-1.57,2.11-2.36,3.18A145.64,145.64,0,0,1,163,105.48c-2.67,2.77-5.16,6.47-5.13,7.62a.68.68,0,0,0,.31.17h0c.52,0,1.47-.9,1.78-1.2a100.3,100.3,0,0,0,8.09-9l11.34-13.74A2.48,2.48,0,0,1,181.32,88.4Z"/><path d="M194.18,235.79a5.39,5.39,0,0,1-1.66-.28l-1.07-.32a14.88,14.88,0,0,1-4.69-2l-3.44-2.51c-8.52-6.18-17.33-12.57-24.06-21.12-1.32-1.67-2.6-3.36-3.89-5.06l-.84-1.1a12.32,12.32,0,0,1-1.08-12.32c1.2-2.52,3.41-3.89,5.62-3.46a5.73,5.73,0,0,1,3.34,2.29c1.66,2,3.28,4.1,4.86,6.12,2.39,3.06,4.83,6.19,7.44,9.14-.21-.53-.42-1.05-.64-1.56a57.74,57.74,0,0,0-3-5.12c-3.83-6.07-5-7.9-3.3-9.72a2.79,2.79,0,0,1,3.49-.43c4.08,2.18,6.81,5.78,8.44,7.93.37.49.69.91,1,1.23l.82,1c1.44,1.65,2.93,3.37,4.29,5.1,3.39,4.3,5.78,9.59,8.09,14.72.83,1.83,1.61,3.56,2.42,5.21a17.74,17.74,0,0,1,1.4,6c.07.59.13,1.19.22,1.77a3.84,3.84,0,0,1-1.2,3.72A3.71,3.71,0,0,1,194.18,235.79Zm-35.92-43.07a2.62,2.62,0,0,0-.3.49,7.36,7.36,0,0,0,.55,7.14l.85,1.11c1.26,1.67,2.53,3.34,3.83,5,6.3,8,14.82,14.19,23.06,20.17l3.47,2.52a10.19,10.19,0,0,0,3,1.2l0-.37a13.6,13.6,0,0,0-.92-4.31c-.85-1.72-1.68-3.57-2.49-5.36-2.18-4.85-4.44-9.86-7.45-13.68-.7-.88-1.45-1.78-2.21-2.67a18.22,18.22,0,0,1,1.15,5.07h0a11.24,11.24,0,0,1-.38,3.74,2.51,2.51,0,0,1-4.1,1.16c-4.88-4.51-9-9.76-12.94-14.84-1.55-2-3.15-4.05-4.77-6C158.49,193,158.38,192.85,158.26,192.72Z"/><path d="M123.24,238.39a5.16,5.16,0,0,1-1-.1,5.32,5.32,0,0,1-4.63-4.63c-.14-1-.29-2.07-.44-3.1a81.86,81.86,0,0,1-1-9.87c-.25-11.76,3.54-20,11.26-24.45a2.5,2.5,0,0,1,3.7,2.67q-.57,2.76-1,5.54l5.6-11.56c.87-1.78,2.66-5.48,6.4-6.1a6.16,6.16,0,0,1,6.35,2.78c2.58,3.79,2.5,10.86.63,14h0a41.1,41.1,0,0,1-4.68,6.48c-4.82,5.36-8.4,11.36-12.19,17.71l-1.78,3-1.62,2.63c-.42.68-.85,1.37-1.26,2.05C127,236.37,125.79,238.39,123.24,238.39ZM125,204.94c-2.73,3.74-4,8.91-3.86,15.64a75.9,75.9,0,0,0,1,9.27c.15,1.05.31,2.11.44,3.16,0,.1,0,.15,0,.16a1.1,1.1,0,0,0,.41.17c.1-.15.21-.34.3-.49l1.3-2.1c.53-.86,1.06-1.72,1.58-2.59s1.19-2,1.78-3c3.75-6.28,7.62-12.77,12.76-18.49a36.36,36.36,0,0,0,4.1-5.71h0c.79-1.32,1.08-6.35-.46-8.61a1.23,1.23,0,0,0-1.41-.67c-1,.18-2,1.88-2.71,3.34l-11.36,23.45a2.5,2.5,0,0,1-4.75-1.11A101.92,101.92,0,0,1,125,204.94Z"/><path d="M107.28,212.27a2.37,2.37,0,0,1-.91-.17,2.5,2.5,0,0,1-1.44-1.46c-.09-.25-.21-.51-.32-.76a8.8,8.8,0,0,1-.85-2.76c-1-10.39,2.46-20.32,10.27-29.53a18,18,0,0,1,5.62-3.94l1.14-.6a5.35,5.35,0,0,1,3.25-.42c.22,0,.44.05.65.05a2.51,2.51,0,0,1,2,.95l.54.68c.85-.81,1.7-1.58,2.52-2.3a5.83,5.83,0,0,1,6.34-.95,4.64,4.64,0,0,1,2.83,6.1c-.16.47-.3,1-.44,1.45a17.74,17.74,0,0,1-2.28,5.43c-3.54,5-7.78,10.8-12.45,16.21a45.6,45.6,0,0,1-6.66,5.95c-.87.69-1.74,1.37-2.58,2.07a28,28,0,0,1-3.21,2.23,23.08,23.08,0,0,1-2.06,1.1l-.78.39A2.43,2.43,0,0,1,107.28,212.27ZM121,178.62a10.93,10.93,0,0,0-3.11,2.21C111,189,108,197.26,108.69,206.21a22.34,22.34,0,0,0,2.58-1.78c.88-.73,1.79-1.45,2.7-2.16a41.77,41.77,0,0,0,6-5.29c4.54-5.25,8.69-10.95,12.16-15.84a13.64,13.64,0,0,0,1.56-3.92c.15-.52.3-1,.46-1.54-.71-.25-.81-.16-1.08.08-3.32,2.93-7.05,6.55-9.55,11.17a14.28,14.28,0,0,1-2.35,3c-.31.33-.62.66-.91,1a2.5,2.5,0,0,1-1.8.88,2.54,2.54,0,0,1-1.87-.73l-.19-.18a2.52,2.52,0,0,1-.44-3Z"/><path d="M193,200.59a2.4,2.4,0,0,1-.46-.05l-.83-.14c-.74-.14-1.51-.27-2.3-.47a5.26,5.26,0,0,1-2.17-1.21c-3.92-3.46-8.46-6-13.26-8.74-2-1.1-4-2.25-5.94-3.45a17.38,17.38,0,0,1-6.81-6.68,5.26,5.26,0,0,1,.38-5.64,4.3,4.3,0,0,1,5.18-1.69l.2,0,.2.05a4.78,4.78,0,0,1,.1-5.08c.75-1.25,2.59-3.06,6.42-1.23a12.38,12.38,0,0,1,3.33,2.15l2,1.89c3.23,3.11,6.58,6.33,9.69,9.69,4.13,4.45,6.21,8.73,6.55,13.44l0,.06a4.23,4.23,0,0,1,.3,1.43c0,.8,0,1.59,0,2.34l0,.86a2.51,2.51,0,0,1-2.5,2.43Zm-27.42-23.22s0,.09.09.18a12.69,12.69,0,0,0,5,4.72c1.89,1.16,3.87,2.28,5.79,3.36,4.78,2.7,9.71,5.48,14,9.25a3.86,3.86,0,0,1-.17-.93c-.23-3.56-1.9-6.91-5.25-10.52-1.5-1.63-3.08-3.23-4.68-4.81a14.85,14.85,0,0,1,1.12,1.68c.16.27.32.54.49.79a2.49,2.49,0,0,1-.48,3.32l-.79.65a2.5,2.5,0,0,1-2.09.52,2.47,2.47,0,0,1-1.71-1.3c-.11-.21-.21-.44-.31-.66a1.07,1.07,0,0,0-.07-.19,23.89,23.89,0,0,0-10.69-6Z"/><path d="M151.21,190.58c-3.27,0-5.34-2.69-6-3.6-1.23-1.6-7.22-9.79-4.71-14.54.73-1.39,2.41-3,6.24-2.79,7,.4,11.25,2,13.06,4.89a6.29,6.29,0,0,1,.29,6,44.67,44.67,0,0,1-2.87,5.75c-1,1.65-2.57,3.88-5.34,4.23h-.09A5,5,0,0,1,151.21,190.58Zm-5.21-16a2.29,2.29,0,0,0-1.16.19c-.45,1,1.42,5.37,4.29,9.11.84,1.1,1.55,1.65,2.11,1.65h0c.23-.05.77-.34,1.63-1.8a39.38,39.38,0,0,0,2.55-5.12c.4-1,.18-1.33.1-1.46-.61-1-3.37-2.22-9.12-2.55Z"/><path d="M179.2,135.29a4.52,4.52,0,0,1-3.35-1.47c-2.46-2.53-1.48-6.08-1.16-7.25a5.91,5.91,0,0,1,1.93-2.66c4.34-3.38,8.91-6.92,14-10.8,1.28-1,2.61-1.88,4.08-2.86a6.86,6.86,0,0,1,2.58-1.09,2.82,2.82,0,0,1,2.95,1.62l.06.09a2.39,2.39,0,0,1,.33,2.44c-.18.44-.34.88-.5,1.33a25.92,25.92,0,0,1-1.51,3.55,42.4,42.4,0,0,1-14.78,15.44A8.84,8.84,0,0,1,179.2,135.29Zm.26-7.19a3.27,3.27,0,0,0-.08,2.17,5.32,5.32,0,0,0,1.74-.85,38.4,38.4,0,0,0,12.24-12.12c-5,3.79-9.42,7.24-13.66,10.55A1.44,1.44,0,0,0,179.46,128.1Zm0-.21h0Z"/><path d="M136.46,172.44c-.35,0-.7,0-1.06-.05a10.69,10.69,0,0,1-7.44-3.9,11.23,11.23,0,0,1-1.69-3.27c-.14-.36-.28-.73-.44-1.08a2.59,2.59,0,0,1-.21-1.29,9.14,9.14,0,0,1,3.48-6.41,9.64,9.64,0,0,1,7.56-1.72c3.74.61,8.72,4.52,9.21,8.21a7.75,7.75,0,0,1-2,6.65A10.31,10.31,0,0,1,136.46,172.44Zm-5.77-9.65c.08.22.17.43.25.65a7.86,7.86,0,0,0,.9,1.9,5.76,5.76,0,0,0,4,2.07,5.62,5.62,0,0,0,4.39-1.29,2.85,2.85,0,0,0,.67-2.53c-.15-1-2.84-3.57-5.06-3.94a4.74,4.74,0,0,0-3.71.76A4,4,0,0,0,130.69,162.79Z"/><path d="M172.57,158.79a5.17,5.17,0,0,1-.95-.09c-2.14-.45-3.9-2.36-5-5.39a23.76,23.76,0,0,1-.81-3.68c-.08-.49-.16-1-.25-1.46a2.24,2.24,0,0,1,0-.58c.11-2.63.74-7.33,3.67-9.25a4.46,4.46,0,0,1,4.13-.44c3.07,1.17,5.29,6.62,5.47,9.85.26,4.45-.77,7.91-2.9,9.74A5.12,5.12,0,0,1,172.57,158.79Zm-2-11.26c.07.42.15.86.22,1.3a18.39,18.39,0,0,0,.6,2.84,4.59,4.59,0,0,0,1.21,2.1c.36-.25,1.47-1.69,1.24-5.74a10.68,10.68,0,0,0-2.1-5.25A10,10,0,0,0,170.57,147.53Zm.89-5Z"/><path d="M164,138.78h-.18a12.89,12.89,0,0,1-11.17-7.95,8,8,0,0,1,6.63-11.31,16,16,0,0,1,7.8,1.33c3.65,1.42,5.75,4.76,5.76,9.17h0a8.73,8.73,0,0,1-2.49,6.32A8.91,8.91,0,0,1,164,138.78Zm-3.36-14.35a5.24,5.24,0,0,0-.7,0,3.45,3.45,0,0,0-2.6,1.52,3.5,3.5,0,0,0,0,3,7.82,7.82,0,0,0,6.58,4.75,4,4,0,0,0,2.94-1,3.74,3.74,0,0,0,1-2.75h0c0-2.34-.87-3.86-2.58-4.52A13.26,13.26,0,0,0,160.65,124.43Z"/><path d="M157.58,171.54c-3.78,0-7.9-1-10.17-3.21a4.8,4.8,0,0,1-1.51-4.88c.66-2.41,3.27-4.34,7.16-5.29a31.29,31.29,0,0,1,8.52-.61c6.36.26,7.75,4,8.06,5.56h0a5.34,5.34,0,0,1-.93,4.12c-1.43,2-4.27,3.49-8,4.08A21,21,0,0,1,157.58,171.54Zm-6.77-6.89.1.12c1.26,1.23,5.28,2.19,9,1.6,2.71-.43,4.22-1.35,4.68-2,.13-.19.12-.27.11-.31h0c-.24-1.24-2.43-1.47-3.35-1.5a26.12,26.12,0,0,0-7.14.47A7.09,7.09,0,0,0,150.81,164.65Z"/><path d="M128.72,154.48c-1.3,0-4.18-.23-5.71-2.17a20.27,20.27,0,0,1-3.65-6,9,9,0,0,1,.84-7.66,11.23,11.23,0,0,1,7.92-5c3.62-.53,6.06,1.85,7.37,3.13a6.08,6.08,0,0,1,.84,1l.07,0a2.5,2.5,0,0,1,1.54,2.64c0,.29-.1.59-.16.89s-.08.38-.09.5c.85,4.25-1.1,7.59-3.12,10.29-1.52,2-4.5,2.28-5.71,2.29Zm-1.84-5.33a5.14,5.14,0,0,0,3.74,0c1.63-2.18,2.61-4.1,2.15-6.28a5.12,5.12,0,0,1-.08-1.21l-.24-.46a4.3,4.3,0,0,0-.45-.79c-1.5-1.46-2.26-1.89-3.15-1.76a6.15,6.15,0,0,0-4.39,2.66,4,4,0,0,0-.37,3.45A16.7,16.7,0,0,0,126.88,149.15Zm0,0Zm3.8,0Z"/><path d="M140.91,136.57c-3.63,0-7.52-2.14-9.09-4.71A6.21,6.21,0,0,1,131,129v-.18a2.06,2.06,0,0,1,0-.26c-.22-4.16,1.48-6.9,5.35-8.63a12.42,12.42,0,0,1,12.2.93,6.09,6.09,0,0,1,2.79,7.61,12.53,12.53,0,0,1-7.5,7.55A7.59,7.59,0,0,1,140.91,136.57ZM136,128.21c0,.13,0,.28,0,.45a3.92,3.92,0,0,0,.09.65c.76,1.24,4,2.83,5.84,2.09a7.65,7.65,0,0,0,4.67-4.6c.24-.69.26-1.08-.7-1.67a7.4,7.4,0,0,0-7.54-.63C136.41,125.39,135.9,126.16,136,128.21Z"/><path d="M118.79,161c-6.64,0-11.79-2.09-15.68-6.33a6,6,0,0,1-1.18-2.19c-.09-.24-.18-.51-.3-.8a2.49,2.49,0,0,1,2.45-3.49l1.42.09,2.07.14.67.05a15.3,15.3,0,0,0,6.09-.31c3.9-1.29,6,.72,7.48,2.62.4.53.87,1.05,1.36,1.6s1.07,1.2,1.59,1.88a3.95,3.95,0,0,1-2.7,6.58C120.93,161,119.84,161,118.79,161Zm-9.34-7.44c2.71,1.78,6,2.56,10.24,2.43l-.25-.28c-.54-.6-1.09-1.22-1.62-1.91-.92-1.22-1-1.18-1.92-.89A16.5,16.5,0,0,1,109.45,153.56Z"/><path d="M120.93,137.8a2.41,2.41,0,0,1-1.08-.25c-.25-.12-.49-.21-.72-.31a7.32,7.32,0,0,1-2.09-1.16,26.89,26.89,0,0,1-8.14-11.59l-.06-.19a4.42,4.42,0,0,1-.33-2.58,24.73,24.73,0,0,1,.77-2.64c.1-.3.2-.6.29-.9a2.55,2.55,0,0,1,1.37-1.54,2.48,2.48,0,0,1,2,0c.25.11.5.2.76.3a8.39,8.39,0,0,1,2.61,1.38,42.52,42.52,0,0,0,11.07,6.55c1.31.57,2.86,1.45,3.27,3.21.47,2-.89,3.59-1.47,4.28a21.47,21.47,0,0,1-3.59,3.49,10.85,10.85,0,0,1-2.78,1.37c-.31.12-.63.23-.94.37A2.57,2.57,0,0,1,120.93,137.8Zm-7.45-15.36a.3.3,0,0,0,0,.1l.1.28a21.91,21.91,0,0,0,6.65,9.45,5.9,5.9,0,0,0,.71.32l.14-.05a6.74,6.74,0,0,0,1.55-.7,15.88,15.88,0,0,0,2.55-2.47A47.42,47.42,0,0,1,113.48,122.44Z"/><path d="M128.72,154.48c-1.3,0-4.18-.23-5.71-2.17a20.27,20.27,0,0,1-3.65-6,9,9,0,0,1,.84-7.66,11.23,11.23,0,0,1,7.92-5c3.62-.53,6.06,1.85,7.37,3.13a6.08,6.08,0,0,1,.84,1l.07,0a2.5,2.5,0,0,1,1.54,2.64c0,.29-.1.59-.16.89s-.08.38-.09.5c.85,4.25-1.1,7.59-3.12,10.29-1.52,2-4.5,2.28-5.71,2.29Zm-1.84-5.33a5.14,5.14,0,0,0,3.74,0c1.63-2.18,2.61-4.1,2.15-6.28a5.12,5.12,0,0,1-.08-1.21l-.24-.46a4.3,4.3,0,0,0-.45-.79c-1.5-1.46-2.26-1.89-3.15-1.76a6.15,6.15,0,0,0-4.39,2.66,4,4,0,0,0-.37,3.45A16.7,16.7,0,0,0,126.88,149.15Zm0,0Zm3.8,0Z"/><path d="M140.91,136.57c-3.63,0-7.52-2.14-9.09-4.71A6.21,6.21,0,0,1,131,129v-.18a2.06,2.06,0,0,1,0-.26c-.22-4.16,1.48-6.9,5.35-8.63a12.42,12.42,0,0,1,12.2.93,6.09,6.09,0,0,1,2.79,7.61,12.53,12.53,0,0,1-7.5,7.55A7.59,7.59,0,0,1,140.91,136.57ZM136,128.21c0,.13,0,.28,0,.45a3.92,3.92,0,0,0,.09.65c.76,1.24,4,2.83,5.84,2.09a7.65,7.65,0,0,0,4.67-4.6c.24-.69.26-1.08-.7-1.67a7.4,7.4,0,0,0-7.54-.63C136.41,125.39,135.9,126.16,136,128.21Z"/><path d="M120.93,137.8a2.41,2.41,0,0,1-1.08-.25c-.25-.12-.49-.21-.72-.31a7.32,7.32,0,0,1-2.09-1.16,26.89,26.89,0,0,1-8.14-11.59l-.06-.19a4.42,4.42,0,0,1-.33-2.58,24.73,24.73,0,0,1,.77-2.64c.1-.3.2-.6.29-.9a2.55,2.55,0,0,1,1.37-1.54,2.48,2.48,0,0,1,2,0c.25.11.5.2.76.3a8.39,8.39,0,0,1,2.61,1.38,42.52,42.52,0,0,0,11.07,6.55c1.31.57,2.86,1.45,3.27,3.21.47,2-.89,3.59-1.47,4.28a21.47,21.47,0,0,1-3.59,3.49,10.85,10.85,0,0,1-2.78,1.37c-.31.12-.63.23-.94.37A2.57,2.57,0,0,1,120.93,137.8Zm-7.45-15.36a.3.3,0,0,0,0,.1l.1.28a21.91,21.91,0,0,0,6.65,9.45,5.9,5.9,0,0,0,.71.32l.14-.05a6.74,6.74,0,0,0,1.55-.7,15.88,15.88,0,0,0,2.55-2.47A47.42,47.42,0,0,1,113.48,122.44Z"/><path d="M151,161.44c-9.13,0-16.56-6.36-16.56-14.17S141.85,133.1,151,133.1s16.56,6.36,16.56,14.17S160.11,161.44,151,161.44Zm0-23.34c-6.38,0-11.56,4.11-11.56,9.17s5.18,9.17,11.56,9.17,11.56-4.11,11.56-9.17S157.35,138.1,151,138.1Z"/></svg>