<?xml version="1.0" encoding="utf-8"?>
<!-- Generator: Adobe Illustrator 16.0.0, SVG Export Plug-In . SVG Version: 6.00 Build 0)  -->
<!DOCTYPE svg PUBLIC "-//W3C//DTD SVG 1.1//EN" "http://www.w3.org/Graphics/SVG/1.1/DTD/svg11.dtd">
<svg version="1.1" xmlns="http://www.w3.org/2000/svg" xmlns:xlink="http://www.w3.org/1999/xlink" x="0px" y="0px" width="100px"
	 height="100px" viewBox="0 0 100 100" enable-background="new 0 0 100 100" xml:space="preserve">
<g id="Calque_2">
</g>
<g id="v2">
	<path d="M79.782,52.838V40.489c0-3.915,0.724-5.437,1.489-7.047c0.733-1.543,1.492-3.139,1.492-6.569
		c0-6.355-1.493-11.615-4.3-15.266C78.301,8.446,75.95,6.136,73.5,5.579V3.723C73.5,1.983,69.284,0,65.587,0
		c-3.696,0-7.91,1.983-7.91,3.723v1.873c-2.427,0.583-4.737,2.876-4.898,6.008c-2.902,3.737-4.445,8.999-4.445,15.269
		c0,0.27,0.005,1.345,0.014,1.975c-1.148-0.084-2.321-0.131-3.495-0.131c-2.538,0-5.14,0.193-7.446,0.583l-0.996-5.774
		c-0.059-0.34-0.288-0.625-0.606-0.755l-17.188-7.036c-0.508-0.208-1.094,0.034-1.305,0.546c-0.209,0.511,0.036,1.095,0.547,1.304
		l16.675,6.826l0.913,5.291c-3.177,0.776-5.419,2.02-5.419,3.788c0,0.038,0.018,0.071,0.021,0.108
		c-0.002,0.029-0.017,0.054-0.017,0.083v61.693c0,3.659,9.696,4.625,14.823,4.625c5.318,0,14.17-0.903,14.765-4.209
		c0.063,0.003,0.121,0.021,0.185,0.013c1.748-0.226,5.498-0.078,8.511,0.041c1.559,0.062,2.904,0.115,3.84,0.115
		c4.666,0,9.375-3.572,9.375-11.541c0.008-0.292,0.269-4.557,0.521-8.681c0.567-9.246,0.696-11.419,0.688-11.632
		c-0.146-3.396-0.971-4.922-1.698-6.268C80.365,56.59,79.782,55.512,79.782,52.838z M59.677,3.917C60.185,3.346,62.646,2,65.587,2
		c2.942,0,5.405,1.346,5.913,1.917v1.677H59.677V3.917z M58.28,7.51c0.122,0.053,0.255,0.083,0.396,0.083H72.5
		c0.146,0,0.281-0.034,0.405-0.089c1.654,0.274,3.313,1.783,3.548,3.926c-1.327,0.373-5.63,0.825-10.834,0.825
		c-5.202,0-9.505-0.452-10.831-0.825C55.021,9.312,56.645,7.81,58.28,7.51z M44.852,30.716c8.167,0,12.752,2.031,12.825,2.861
		c0.001,0.015,0.01,0.028,0.012,0.043c-0.001,0.021-0.012,0.039-0.012,0.06v0.118c-0.144,0.833-4.805,2.863-12.822,2.863
		c-2.41,0-4.495-0.173-6.253-0.435l-0.854-4.95C39.66,30.945,42.028,30.716,44.852,30.716z M46.042,79.343l-5.168-29.944
		c1.311,0.105,2.655,0.157,3.98,0.157c5.038,0,10.114-0.782,12.822-2.296l0.001,34.363C55.183,80.227,50.676,79.456,46.042,79.343z
		 M39.648,42.296c1.521-0.176,3.254-0.287,5.206-0.287c7.896,0,12.433,1.898,12.788,2.773c-0.355,0.875-4.893,2.773-12.788,2.773
		c-1.586,0-3.029-0.072-4.332-0.194L39.648,42.296z M38.449,47.11c-4.148-0.624-6.357-1.748-6.418-2.327
		c0.057-0.542,1.997-1.559,5.637-2.199L38.449,47.11z M44.854,40.009c-1.861,0-3.757,0.104-5.547,0.313l-0.352-2.039
		c2.015,0.261,4.09,0.379,5.898,0.379c4.935,0,10.081-0.803,12.822-2.329v5.971C54.969,40.791,49.893,40.009,44.854,40.009z
		 M37.327,40.606c-2.12,0.365-3.985,0.897-5.296,1.616v-5.798c1.241,0.672,2.956,1.172,4.838,1.528L37.327,40.606z M38.807,49.18
		l5.205,30.158c-4.648,0.076-9.389,0.781-11.98,2.202V47.343C33.64,48.224,36.08,48.827,38.807,49.18z M32.031,84.101
		c0.083-0.813,4.377-2.689,12.324-2.767l0.984,5.705c-0.163,0.001-0.318,0.007-0.485,0.007c-8.279,0-12.741-1.945-12.823-2.774
		V84.101z M46.389,81.352c7.197,0.232,11.215,2.058,11.288,2.834c-0.069,0.741-3.735,2.432-10.318,2.789L46.389,81.352z
		 M35.788,31.687l0.717,4.156c-2.843-0.633-4.39-1.479-4.474-1.954v-0.208c0-0.038-0.018-0.07-0.021-0.107
		c0.002-0.029,0.017-0.054,0.017-0.083C32.072,33.051,33.362,32.298,35.788,31.687z M44.854,98c-8.513,0-12.678-1.907-12.823-2.625
		v-8.542c2.749,1.507,7.915,2.213,12.823,2.213c0.277,0,0.554-0.007,0.83-0.012l0.621,3.598c0.084,0.487,0.507,0.83,0.984,0.83
		c0.057,0,0.113-0.005,0.171-0.015c0.544-0.094,0.909-0.611,0.815-1.155l-0.575-3.331c4.028-0.238,7.781-0.983,9.977-2.211v8.685
		C57.49,96.305,52.794,98,44.854,98z M80.055,75.615c-0.373,6.089-0.525,8.59-0.525,8.79c0,7.052-3.973,9.554-7.375,9.554
		c-0.896,0-2.288-0.055-3.761-0.113c-3.183-0.126-6.771-0.265-8.717-0.039V33.681c0-0.019-0.01-0.034-0.011-0.052
		c0.001-0.019,0.011-0.033,0.011-0.052c0-2.382-4.156-3.915-9.327-4.54c-0.012-0.488-0.017-1.86-0.017-2.164
		c0-5.596,1.296-10.276,3.729-13.636c1.49,0.541,4.689,1.019,11.557,1.019c6.861,0,10.062-0.477,11.555-1.017
		c2.342,3.284,3.59,7.963,3.59,13.634c0,2.979-0.602,4.245-1.299,5.71c-0.788,1.659-1.683,3.54-1.683,7.906v12.349
		c0,3.179,0.762,4.588,1.498,5.951c0.686,1.269,1.334,2.467,1.459,5.364C80.733,64.552,80.357,70.686,80.055,75.615z"/>
</g>
</svg>
