<?xml version="1.0" encoding="utf-8"?>
<!-- Generator: Adobe Illustrator 16.0.0, SVG Export Plug-In . SVG Version: 6.00 Build 0)  -->
<!DOCTYPE svg PUBLIC "-//W3C//DTD SVG 1.1//EN" "http://www.w3.org/Graphics/SVG/1.1/DTD/svg11.dtd">
<svg version="1.1" xmlns="http://www.w3.org/2000/svg" xmlns:xlink="http://www.w3.org/1999/xlink" x="0px" y="0px" width="100px"
	 height="100px" viewBox="0 0 100 100" enable-background="new 0 0 100 100" xml:space="preserve">
<g id="Calque_2">
</g>
<g id="Calque_1">
	<path d="M92.936,16.392H82.387c-0.531-2.859-2.793-5.118-5.654-5.641c-0.139-0.074-0.298-0.115-0.466-0.115H17.412
		c-3.445,0-6.315,2.485-6.924,5.756H8.064V2h78.372c0.552,0,1-0.448,1-1s-0.448-1-1-1H7.064c-0.552,0-1,0.448-1,1v16.392
		c0,0.552,0.448,1,1,1h3.3v58.655v13.645V99c0,0.552,0.448,1,1,1h58.048c0.552,0,1-0.448,1-1v-8.308v-4.845h11.093
		c0.552,0,1-0.448,1-1V18.392h10.43c0.552,0,1-0.448,1-1S93.488,16.392,92.936,16.392z M75.46,12.636
		c2.334,0,4.284,1.601,4.858,3.756h-9.717C71.175,14.236,73.125,12.636,75.46,12.636z M57.513,89.692V78.047h4.45v11.645H57.513z
		 M51.063,89.692V78.047h4.45v11.645H51.063z M44.613,89.692V78.047h4.45v11.645H44.613z M38.164,89.692V78.047h4.45v11.645H38.164z
		 M31.714,89.692V78.047h4.45v11.645H31.714z M25.264,89.692V78.047h4.45v11.645H25.264z M18.814,89.692V78.047h4.45v11.645H18.814z
		 M12.364,89.692V78.047h4.45v11.645H12.364z M63.963,78.047h4.45v11.645h-4.45V78.047z M17.412,12.636h53.134
		c-1.228,1.196-2.013,2.837-2.113,4.657c-0.003,0.034-0.02,0.064-0.02,0.099c0,0.021,0.011,0.039,0.012,0.059
		c-0.002,0.077-0.012,0.152-0.012,0.23v58.366H12.364V17.682C12.364,14.899,14.628,12.636,17.412,12.636z M12.364,98v-6.308h56.048
		V98H12.364z M80.506,83.847H70.413v-6.8V18.392h10.093V83.847z"/>
</g>
</svg>
