<?xml version="1.0" encoding="utf-8"?>
<!-- Generator: Adobe Illustrator 16.0.0, SVG Export Plug-In . SVG Version: 6.00 Build 0)  -->
<!DOCTYPE svg PUBLIC "-//W3C//DTD SVG 1.1//EN" "http://www.w3.org/Graphics/SVG/1.1/DTD/svg11.dtd">
<svg version="1.1" xmlns="http://www.w3.org/2000/svg" xmlns:xlink="http://www.w3.org/1999/xlink" x="0px" y="0px" width="100px"
	 height="100px" viewBox="0 0 100 100" enable-background="new 0 0 100 100" xml:space="preserve">
<g id="Calque_2">
</g>
<g id="Calque_1">
	<path d="M99.767,57.472c-0.25-0.667-0.781-1.205-1.576-1.617c-0.096-0.486-0.179-0.958-0.252-1.405
		c-0.173-1.059-0.346-2.092-0.746-3.067l0.006-0.033c0.592-2.976,1.583-7.957-1.009-10.609c-0.898-1.059-2.723-1.382-5.583-0.984
		c-10.371,1.439-34.657,13.249-42.173,29.764c-0.363,0.798-0.737,1.525-1.104,2.238c-0.991,1.927-1.925,3.752-2.493,6.505
		c-1.136,3.231-1.075,6.568,0.197,9.965c2.826,7.548,7.381,11.375,13.537,11.375c11.303,0,25.963-13.722,34.801-26.47
		C95.766,69.682,101.18,61.245,99.767,57.472z M95.965,54.773c0.021,0.128,0.045,0.264,0.067,0.395
		c-1.034-0.198-2.254-0.306-3.694-0.306c-6.07,0-16.352,1.962-25.885,5.782c10.32-8.659,21.723-13.136,25.933-11.22
		C95.308,50.755,95.555,52.268,95.965,54.773z M90.881,41.739c3.072-0.424,3.719,0.221,3.83,0.348
		c1.483,1.52,1.266,4.586,0.871,7.012c-0.6-0.538-1.367-1.039-2.368-1.495c-6.223-2.833-21.423,4.486-32.606,15.681
		c-3.943,2.014-7.534,4.385-10.371,7.1c0.005-0.012,0.011-0.022,0.017-0.035C57.475,54.483,80.88,43.126,90.881,41.739z
		 M91.729,71.995c-8.551,12.334-22.575,25.61-33.158,25.61c-5.236,0-9.161-3.39-11.664-10.077c-1.577-4.212-1.002-8.332,1.71-12.244
		c7.678-11.075,31.4-18.422,43.721-18.422c3.998,0,5.374,0.824,5.556,1.311C98.471,59.714,96.788,64.696,91.729,71.995z
		 M34.439,23.635c1.135,2.675,15.433,2.842,15.577,2.842h0.001c2.857,0,6.748-0.206,9.063-1.187
		c0.333-0.141,0.564-0.451,0.604-0.811c0.376-3.403-1.15-7.911-2.497-11.093c-1.617-3.814-5.501-6.279-9.897-6.279
		c-1.597,0-3.165,0.321-4.659,0.955c-3.854,1.634-6.812,4.68-9.31,9.586c-0.016,0.031-0.03,0.062-0.042,0.094
		c-0.764,1.983,0.007,3.531,0.688,4.896C34.13,22.965,34.295,23.294,34.439,23.635z M35.129,18.507
		c2.297-4.495,4.854-7.149,8.284-8.604c1.246-0.528,2.551-0.796,3.878-0.796c3.591,0,6.752,1.986,8.055,5.059
		c0.962,2.274,2.49,6.402,2.393,9.489c-1.656,0.532-4.358,0.822-7.721,0.822h-0.001c-6.578,0-12.774-1.044-13.791-1.749
		c-0.146-0.333-0.308-0.659-0.468-0.981C35.111,20.448,34.731,19.59,35.129,18.507z M46.553,57.543
		c8.181-3.47,15.283-10.59,18.536-18.583c3.142-7.747,2.797-18.355-0.879-27.025c-1.972-4.65-5.647-8.256-10.349-10.153
		c-4.7-1.896-9.851-1.854-14.503,0.118c-6.811,2.887-9.702,8.834-11.162,12.34c-3.534-1.389-9.819-3.446-16.631-0.56
		C1.939,17.761-2.577,28.905,1.499,38.523c3.677,8.669,11.061,16.292,18.812,19.421c3.837,1.543,8.145,2.311,12.492,2.311
		c4.707,0,9.458-0.901,13.707-2.694C46.524,57.556,46.539,57.55,46.553,57.543z M45.774,55.7
		c-7.711,3.269-17.184,3.418-24.716,0.389C13.774,53.149,6.82,45.948,3.34,37.742c-3.645-8.602,0.395-18.57,9.006-22.22
		c2.22-0.941,4.397-1.289,6.427-1.289c4.087,0,7.574,1.412,9.599,2.231c0.246,0.1,0.521,0.097,0.766-0.006
		c0.245-0.104,0.438-0.3,0.537-0.546c1.319-3.263,3.774-9.335,10.465-12.171c4.162-1.764,8.77-1.802,12.974-0.105
		c4.206,1.697,7.493,4.921,9.256,9.079c3.479,8.207,3.82,18.214,0.868,25.492c-3.055,7.506-9.727,14.199-17.42,17.477
		C45.802,55.689,45.788,55.694,45.774,55.7z M59.885,31.467c0.065-0.3-0.011-0.614-0.207-0.85c-0.195-0.237-0.489-0.371-0.796-0.362
		l-3.163,0.089c-2.946,0.086-5.729,0.167-8.242,0.167c-5.872,0-9.545-0.474-12.284-1.583c-0.246-0.1-0.521-0.097-0.766,0.006
		c-0.245,0.104-0.438,0.3-0.537,0.546c-1.875,4.64-6.894,9.533-13.247,15.729l-2.272,2.22c-0.219,0.215-0.328,0.519-0.293,0.825
		c0.034,0.305,0.207,0.578,0.468,0.74c0.84,0.519,1.699,0.976,2.553,1.357c3.513,1.565,7.513,2.394,11.569,2.394
		c3.84,0,7.624-0.744,10.942-2.15c6.943-2.943,12.874-9.207,15.479-16.348C59.406,33.369,59.675,32.434,59.885,31.467z
		 M57.208,33.563c-2.42,6.637-7.93,12.458-14.379,15.191c-3.073,1.303-6.587,1.992-10.162,1.992c-3.777,0-7.496-0.768-10.754-2.22
		c-0.399-0.178-0.799-0.375-1.199-0.588l1.326-1.295C28.176,40.657,33.1,35.856,35.353,31.12c3.625,1.218,8.131,1.393,12.124,1.393
		c2.543,0,5.34-0.082,8.3-0.168l1.841-0.052C57.494,32.728,57.356,33.153,57.208,33.563z M30.607,25.258
		c-0.145-0.34-0.267-0.688-0.389-1.032c-0.508-1.437-1.083-3.065-3.04-3.897c-0.032-0.014-0.064-0.025-0.098-0.036
		c-5.375-1.65-9.473-1.625-13.364,0.025c-5.746,2.438-8.568,8.792-6.292,14.165c1.349,3.18,3.525,7.411,6.233,9.509
		c0.178,0.138,0.394,0.209,0.612,0.209c0.132,0,0.265-0.026,0.39-0.079C19.97,41.872,31.744,27.945,30.607,25.258z M14.423,42.023
		c-2.288-2.077-4.192-6.048-5.156-8.321c-1.847-4.357,0.5-9.535,5.231-11.543c1.714-0.727,3.487-1.08,5.421-1.08
		c1.945,0,4.079,0.363,6.523,1.109c1.056,0.468,1.408,1.336,1.891,2.703c0.12,0.34,0.242,0.684,0.38,1.021
		C28.397,27.887,19.697,39.268,14.423,42.023z"/>
</g>
</svg>
