<svg id="Calque_1" data-name="Calque 1" xmlns="http://www.w3.org/2000/svg" viewBox="0 0 300 300"><defs><style>.cls-1{fill:#1d1d1b;}</style></defs><title>picto_provence</title><path class="cls-1" d="M150,6A144,144,0,0,1,251.82,251.82,144,144,0,1,1,48.18,48.18,143,143,0,0,1,150,6m0-6A150,150,0,1,0,300,150,150,150,0,0,0,150,0Z"/><path d="M113.9,172.49a2.39,2.39,0,0,1-1.15-.29,2.49,2.49,0,0,1-1.13-3.22,88.42,88.42,0,0,1,6.16-11.62h0a87.69,87.69,0,0,1,131.4-19.58,2.5,2.5,0,0,1-3,4l-.37-.24-.92-.6A92.86,92.86,0,0,0,116.84,170l-.6,1-.2.34A2.5,2.5,0,0,1,113.9,172.49Zm78.16-51.06a83.41,83.41,0,0,0-40.88,10.72,99.22,99.22,0,0,1,46.42-10.53C195.76,121.49,193.91,121.43,192.06,121.43Z"/><path d="M108.74,232a1,1,0,0,1-.73-.32A48.9,48.9,0,0,1,95.42,205h0c-4.52-33,21.44-62.29,49.15-71.48a1,1,0,0,1,1.23,1.35A120,120,0,0,1,139,147.54l-1.31,2.24c-19.42,33.35-22.83,46-27.95,81.38a1,1,0,0,1-.69.81A1,1,0,0,1,108.74,232ZM97.4,204.7a47.18,47.18,0,0,0,10.66,24.06c5-34.12,8.69-47,27.89-80l1.32-2.25,1.31-2.23q-1.68,2.55-3.23,4.92c-16.64,25.3-22.86,34.77-29.61,69.4a1,1,0,0,1-1.84.32,41.08,41.08,0,0,1-2.62-5.22c-5.6-13.68-4.34-28,1.27-40.72a55.88,55.88,0,0,0-5.15,31.7Zm31-59.45C107,159.81,92.73,187.55,103.13,213c.34.83.75,1.7,1.19,2.58,6.62-32.83,13-42.55,29.36-67.42.63-1,1.29-2,1.95-3C117,162.47,107.15,182.3,104.71,207a1,1,0,0,1-1,.9h0a1,1,0,0,1-1-.91C100.73,184.08,110,162.08,128.42,145.25ZM138.64,138a1,1,0,0,1,0,1.6c-19.58,14-31.41,33.15-33.73,53.8,4.84-21.33,16.14-38.91,34.91-54.55a1,1,0,0,1,1.29,0,1,1,0,0,1,.31.48c.56-1,1.1-2.09,1.6-3.13Q140.8,137,138.64,138Z"/><path d="M115.68,139.92a78.43,78.43,0,0,1-29-5.32c-15.78-6.25-28.47-18-36.7-33.87a1,1,0,0,1,0-1,1,1,0,0,1,.86-.48c8.63.1,16.43,2.18,24.68,4.39,2.17.58,4.36,1.16,6.6,1.72,4.63,1.16,10.21,2.36,16.11,3.64,20.67,4.47,46.38,10,59.26,19.09a1,1,0,0,1-.09,1.69,74.54,74.54,0,0,1-20.38,7.68A97.67,97.67,0,0,1,115.68,139.92Zm-63.13-38.6C68.69,131,100,143.74,136.61,135.53A73.53,73.53,0,0,0,155,128.84c-1-.61-2-1.21-3.06-1.79a1.06,1.06,0,0,1-.55.13l-4.29-.17c-24.37-1-44.32-1.77-66.69-9.46,22.79,11.63,49.17,11.79,70.4,10.42a1,1,0,0,1,.43,1.93,74.54,74.54,0,0,1-11.94,3.55h0C112.94,139,78,134.84,58.87,106.36a1,1,0,0,1,1-1.55c1.94.3,4,.72,6.29,1.27l5.72,1.41c10.56,2.59,20.53,5,31.58,7,2.88.51,6,1,9.24,1.54,6.87,1.12,14.21,2.3,21.17,3.82-11.47-3.55-24.53-6.38-36-8.86-5.92-1.29-11.51-2.49-16.17-3.66-2.26-.56-4.46-1.15-6.63-1.73C67.46,103.57,60.27,101.65,52.55,101.32Zm9.34,5.88c18.8,25.89,51.89,29.61,77,24.29h0c1.59-.33,3.14-.71,4.66-1.13-23.37.94-51.3-1-74.06-17.07a1,1,0,0,1,1-1.73c26,11.19,47.71,12.29,74.81,13.37-9.76-3.18-21.95-5.15-32.93-6.93-3.28-.53-6.38-1-9.27-1.55-11.11-2-21.11-4.42-31.71-7L65.66,108C64.33,107.7,63.08,107.43,61.89,107.2Z"/><path d="M190.22,121.59c-25.26,0-51.83-11.58-65.94-29.1a57,57,0,0,1-11.44-23.55,1,1,0,0,1,1.45-1.09c3.47,1.9,6.85,3.79,10.2,5.67,9.25,5.18,18,10.07,28,14.88,2.53,1.22,5.7,2.62,9.06,4.1,8.56,3.79,18.27,8.07,23.15,11.83a30.4,30.4,0,0,1,11.14,15.87,1,1,0,0,1-.15.84,1,1,0,0,1-.75.42C193.36,121.55,191.79,121.59,190.22,121.59ZM140,93.11c9.42,7.54,19.76,11.91,33,17A153.1,153.1,0,0,1,190.54,118a1,1,0,0,1,.49,1.15,1,1,0,0,1-.26.44c.92,0,1.84,0,2.76-.06-.25-.76-.53-1.51-.85-2.24l-.09.08a1,1,0,0,1-1.24,0c-7.51-5.63-15.22-8.39-23.38-11.3-4.26-1.53-8.66-3.1-13.27-5.16A112.21,112.21,0,0,1,140,93.11ZM115.32,70.7a55.33,55.33,0,0,0,10.51,20.53c12.65,15.69,35.57,26.5,58.35,28.15-26.86-3.15-50.73-17.44-60.54-36.65v0a54.94,54.94,0,0,1-2.74-6.57,1,1,0,0,1,.32-1.1,1,1,0,0,1,1.14-.08l.45.27c15,9,24.86,14.89,41.94,21.58,1.06.42,2.11.82,3.13,1.21,2.24.86,4.38,1.69,6.42,2.54-4.24-2.1-9.07-4.23-13.58-6.23-3.37-1.49-6.56-2.89-9.12-4.12-10-4.84-18.81-9.75-28.09-14.95C120.81,73.75,118.1,72.23,115.32,70.7Zm10.11,11.12c9.6,18.8,33.17,32.74,59.65,35.64-3.81-1.84-7.86-3.57-12.79-5.47-18.14-7-31-12.67-43.45-26.88a1,1,0,0,1,1.36-1.44,116.37,116.37,0,0,0,25.31,15.44c4.54,2,8.91,3.58,13.14,5.09,7,2.49,13.61,4.87,20.15,9-4.91-6.88-12.45-9.78-21.64-13.32L164,98.67c-16.47-6.45-26.28-12.17-40.24-20.53C124.27,79.36,124.83,80.6,125.43,81.82Z"/><path d="M155.12,196.18a15.73,15.73,0,0,1-5.74-1c-11.91-4.62-17.34-25.27-11-41.7,5.35-13.8,17.23-21.33,29.5-19.06a18.36,18.36,0,0,0,0-2.57c-.13-2.36-.36-6.75,5.46-7.38a2.55,2.55,0,0,1,1.16.15A2.59,2.59,0,0,1,176,126.1a17.48,17.48,0,0,1-.41,11.06c11.46,6.33,15.59,20.17,10,34.58a42.08,42.08,0,0,1-15.71,19.37C164.85,194.45,159.72,196.17,155.12,196.18ZM144,153.1c-.32.7-.63,1.42-.92,2.16-5.25,13.55-1.08,31.66,8.11,35.23,4.19,1.62,10.15.3,15.94-3.54a37,37,0,0,0,13.81-17c4.91-12.68,1-24.73-9.58-29.29a2.43,2.43,0,0,1-1-.82,2.5,2.5,0,0,1-1.3,0,20.26,20.26,0,0,0-3.77-.74,5,5,0,0,1,2,2.33c.88,2.1.26,4.69-1.66,6.92h0a10,10,0,0,1-4.82,2.93,11.23,11.23,0,0,0-5.14,3.12l-.5.53c-1.74,1.84-4.13,4.38-6.88,4.3a4.16,4.16,0,0,1-3.07-1.52A5.71,5.71,0,0,1,144,153.3C144,153.23,144,153.17,144,153.1ZM161.6,143a12.6,12.6,0,0,0-7.55,3.16c-3,2.4-4.92,5.75-5.1,7.6v.07a21.18,21.18,0,0,0,2.56-2.4l.56-.59a16.25,16.25,0,0,1,7.08-4.35,5.3,5.3,0,0,0,2.65-1.46h0a2.7,2.7,0,0,0,.85-1.74A2,2,0,0,0,161.6,143Z"/><path d="M204.29,178.84c-.32,0-.65,0-1,0-6.67.17-14.45-2.86-20.93-8.12a2.5,2.5,0,0,1-.8-2.7c3.68-11.46.19-21.93-8.89-26.68a2.51,2.51,0,0,1-1.14-3.21,21.06,21.06,0,0,1,3.6-5.65,2.72,2.72,0,0,0-1.67-1.15,2.46,2.46,0,0,1-1.6-1.24,2.5,2.5,0,0,1-2.14-4.31c3.63-3.31,7.76-.34,10.42,2.1A23.7,23.7,0,0,1,184,126.4c9.67-3.61,20.56.12,27.8,9.52l.17.19c.19.22.37.43.55.66h0c9.16,11.54,12.64,29.55,2.3,38.5A15.75,15.75,0,0,1,204.29,178.84Zm-.95-5h.12c3.39.16,6.13-.62,8.11-2.33,7.11-6.16,5.76-20.64-2.95-31.62h0q-.18-.23-.39-.45l-.24-.29-.09-.11c-6-7.8-14.49-10.83-22.21-7.91l-.21.07a18.48,18.48,0,0,0-4.46,1.89l-.24.12a2.49,2.49,0,0,1-.77,1.46,15.77,15.77,0,0,0-2.86,3.5c9.18,6,13,17.53,9.7,29.68,5.26,3.87,11.39,6.15,16.41,6Zm-32-45.85Z"/><path d="M170.59,131.14a2.5,2.5,0,0,1-2.17-3.74,1.74,1.74,0,0,1,.11-.18,2.5,2.5,0,0,1,4.46,2.13l0,.08A2.51,2.51,0,0,1,170.59,131.14Z"/></svg>