<svg id="Calque_1" data-name="Calque 1" xmlns="http://www.w3.org/2000/svg" viewBox="0 0 300 300"><defs><style>.cls-1{fill:#1d1d1b;}</style></defs><title>picto_loire_atlantique</title><path class="cls-1" d="M150,6A144,144,0,0,1,251.82,251.82,144,144,0,1,1,48.18,48.18,143,143,0,0,1,150,6m0-6A150,150,0,1,0,300,150,150,150,0,0,0,150,0Z"/><path d="M273.77,192.29h-9.06a2,2,0,0,1-1.51-.69,147.78,147.78,0,0,0-21.06-19.86v18.55a2,2,0,0,1-2,2h-5.22a2,2,0,0,1-2-2v-25.1l-1.7-1.1v26.2a2,2,0,0,1-2,2H224a2,2,0,0,1-2-2V158.68c-.56-.3-1.12-.61-1.7-.91v32.52a2,2,0,0,1-2,2h-5.21a2,2,0,0,1-2-2v-37l-1.7-.74v37.71a2,2,0,0,1-2,2h-5.22a2,2,0,0,1-2-2V149c-3.15-1.1-6.38-2.11-9.66-3v44.31a2,2,0,0,1-2,2H173.24a2,2,0,0,1-2-2V142a153.81,153.81,0,0,0-42.32,0v48.3a2,2,0,0,1-2,2H111.65a2,2,0,0,1-2-2V146c-3.28.9-6.51,1.91-9.66,3v41.3a2,2,0,0,1-2,2H92.77a2,2,0,0,1-2-2V152.58l-1.7.74v37a2,2,0,0,1-2,2H81.85a2,2,0,0,1-2-2V157.77l-1.7.91v31.61a2,2,0,0,1-2,2H70.94a2,2,0,0,1-2-2v-26.2l-1.7,1.1v25.1a2,2,0,0,1-2,2H60a2,2,0,0,1-2-2V171.74A147.78,147.78,0,0,0,37,191.6a2,2,0,0,1-1.51.69H26.39A2,2,0,0,1,24.83,189a160.53,160.53,0,0,1,84.22-54.12l6.42-54a2,2,0,0,1,2-1.76l5.2.07a2,2,0,0,1,2,1.81l4.77,50a164,164,0,0,1,41.3,0l4.77-49.76a2,2,0,0,1,2-1.81l5.2-.07h0a2,2,0,0,1,2,1.76l6.42,53.78A160.57,160.57,0,0,1,275.33,189a2,2,0,0,1-1.56,3.26Zm-8.15-4h3.89a156.7,156.7,0,0,0-80.71-49.84,2,2,0,0,1-1.5-1.7l-6.37-53.36-1.62,0-4.8,50.05a2,2,0,0,1-.75,1.37,2,2,0,0,1-1.51.42,160.61,160.61,0,0,0-44.34,0,2,2,0,0,1-1.51-.42,2,2,0,0,1-.75-1.37l-4.81-50.3-1.61,0-1.09,9.2a2,2,0,0,1,1.67-.91h0a2,2,0,0,1,2,1.87l2.61,40.64a2,2,0,0,1-1.65,2.1c-1.81.31-3.75.69-5.91,1.15a2,2,0,0,1-2.41-2.12l2.93-36.38-4.52,38.06a2,2,0,0,1-1.5,1.7,156.7,156.7,0,0,0-80.71,49.84h3.89a152.67,152.67,0,0,1,24.3-22.17A2,2,0,0,1,62,167.74v20.55h1.22V164.11a2,2,0,0,1,.89-1.66c1.83-1.22,3.77-2.45,5.77-3.67a2,2,0,0,1,3,1.72v27.79h1.21v-30.8a2,2,0,0,1,1-1.75c1.86-1,3.81-2.05,5.77-3a2,2,0,0,1,2,.09,2,2,0,0,1,.94,1.7v33.79h1.22V152a2,2,0,0,1,1.18-1.82c2.12-1,4-1.77,5.77-2.48a2,2,0,0,1,1.87.2,2,2,0,0,1,.88,1.66v38.71H96V147.58a2,2,0,0,1,1.32-1.88c4.47-1.61,9.13-3,13.84-4.26a2,2,0,0,1,2.5,1.94v44.91h11.27v-48a2,2,0,0,1,1.7-2,157.68,157.68,0,0,1,46.92,0,2,2,0,0,1,1.7,2v48h11.27V143.38a2,2,0,0,1,2.5-1.94c4.71,1.22,9.37,2.65,13.84,4.26a2,2,0,0,1,1.32,1.88v40.71h1.22V149.58a2,2,0,0,1,.88-1.66,2,2,0,0,1,1.87-.2c1.75.71,3.64,1.52,5.77,2.48a2,2,0,0,1,1.18,1.82v36.27h1.21V154.5a2,2,0,0,1,.95-1.7,2,2,0,0,1,1.95-.09c2,1,3.91,2,5.77,3a2,2,0,0,1,1,1.75v30.8h1.22V160.5a2,2,0,0,1,3-1.72c2.05,1.25,3.94,2.45,5.77,3.67a2,2,0,0,1,.89,1.66v24.18h1.22V167.74a2,2,0,0,1,3.18-1.61A151.67,151.67,0,0,1,265.62,188.29Zm-146-67.17-.93,11.62c.56-.12,1.12-.22,1.66-.32Zm64.12,16.11a2,2,0,0,1-.42,0c-2.16-.46-4.09-.84-5.9-1.15a2,2,0,0,1-1.65-2.11l2.61-38.61a2,2,0,0,1,2-1.86h0a2,2,0,0,1,2,1.83l3.36,39.77a2,2,0,0,1-2,2.17Zm-3.86-4.81,1.64.31-.92-10.94Z"/><path d="M205.74,198.26h-2s-4.48-.38-4.48-3.16a3.11,3.11,0,0,1,3.1-3.16h4.77a3.09,3.09,0,0,1,3.1,3.08C210.22,197.88,205.79,198.26,205.74,198.26Z"/><path d="M216.49,198.26h-2c-.05,0-4.48-.38-4.48-3.16a3.11,3.11,0,0,1,3.1-3.16h4.77A3.09,3.09,0,0,1,221,195C221,197.88,216.53,198.26,216.49,198.26Z"/><path d="M227.61,198.26h-2c-.05,0-4.48-.38-4.48-3.16a3.11,3.11,0,0,1,3.11-3.16H229a3.09,3.09,0,0,1,3.1,3.08C232.08,197.88,227.65,198.26,227.61,198.26Z"/><path d="M238.6,198.26h-2s-4.47-.38-4.47-3.16a3.11,3.11,0,0,1,3.1-3.16H240a3.09,3.09,0,0,1,3.1,3.08C243.08,197.88,238.65,198.26,238.6,198.26Z"/><path d="M183.92,198.26h-5.57c-.46,0-2.26-.14-3.92-.35-2.42-.31-4.92-.64-4.92-2.81,0-1.95,2-3.16,5.05-3.16h13.15c3.06,0,5,1.21,5,3.08,0,2.25-2.5,2.58-4.92,2.89C186.17,198.12,184.37,198.26,183.92,198.26Z"/><path d="M224.44,203.92h-3.18c-.11,0-5.53-.1-11-.27-3.16-.09-5.67-.19-7.48-.28-3.62-.2-5.27-.28-5.27-2.35,0-.92.47-2.9,4.83-2.9h41c4.36,0,4.83,2,4.83,2.84,0,2.13-1.65,2.21-5.27,2.41-1.81.09-4.33.19-7.48.28C230,203.82,224.54,203.92,224.44,203.92Z"/><path d="M181.61,203.92h-1.84c-.11,0-3.27-.11-6.42-.27-6.57-.34-8.14-.42-8.14-2.63,0-1.71,1.53-2.9,3.64-2.9h23.69c2.1,0,3.63,1.19,3.63,2.84,0,2.27-1.56,2.35-8.14,2.69C184.88,203.81,181.72,203.92,181.61,203.92Z"/><path d="M212.22,210h0s-11.85-.06-23.71-.15c-5.93,0-11.86-.11-16.3-.17-2.24,0-4.09-.06-5.4-.1-2.31-.06-4-.1-4-2.1,0-1.69,1.42-2.52,4.23-2.52h90.34c2.81,0,4.23.83,4.23,2.48,0,2-1.67,2.08-4,2.14-1.3,0-3.16.07-5.39.1-4.45.06-10.38.12-16.31.17-11.86.09-23.71.15-23.71.15Z"/><path d="M96.5,198.26h-2S90,197.88,90,195.1a3.11,3.11,0,0,1,3.1-3.16h4.77A3.09,3.09,0,0,1,101,195C101,197.88,96.55,198.26,96.5,198.26Z"/><path d="M85.76,198.26h-2s-4.47-.38-4.47-3.16a3.11,3.11,0,0,1,3.1-3.16h4.76A3.09,3.09,0,0,1,90.24,195C90.24,197.88,85.8,198.26,85.76,198.26Z"/><path d="M74.64,198.26h-2s-4.48-.38-4.48-3.16a3.12,3.12,0,0,1,3.11-3.16H76A3.1,3.1,0,0,1,79.12,195C79.12,197.88,74.68,198.26,74.64,198.26Z"/><path d="M63.64,198.26h-2c-.05,0-4.48-.38-4.48-3.16a3.11,3.11,0,0,1,3.1-3.16H65a3.09,3.09,0,0,1,3.1,3.08C68.12,197.88,63.69,198.26,63.64,198.26Z"/><path d="M121.88,198.26h-5.57c-.45,0-2.25-.14-3.91-.35-2.42-.31-4.92-.64-4.92-2.81,0-1.95,2-3.16,5-3.16h13.15c3.07,0,5,1.21,5,3.08,0,2.25-2.5,2.58-4.92,2.89C124.13,198.12,122.34,198.26,121.88,198.26Z"/><path d="M79,203.92H75.79c-.11,0-5.53-.1-11-.27-3.16-.09-5.67-.19-7.48-.28-3.62-.2-5.27-.28-5.27-2.35,0-.92.47-2.9,4.83-2.9h41c4.36,0,4.83,2,4.83,2.84,0,2.13-1.65,2.21-5.27,2.41-1.81.09-4.33.19-7.48.28C84.5,203.82,79.07,203.92,79,203.92Z"/><path d="M120.46,203.92h-1.84c-.11,0-3.27-.11-6.42-.27-6.58-.34-8.14-.42-8.14-2.63,0-1.71,1.53-2.9,3.63-2.9h23.69c2.11,0,3.64,1.19,3.64,2.84,0,2.27-1.57,2.35-8.14,2.69C123.73,203.81,120.57,203.92,120.46,203.92Z"/><path d="M88,210h0s-11.86-.06-23.71-.15c-5.93,0-11.86-.11-16.31-.17-2.23,0-4.09-.06-5.39-.1-2.31-.06-4-.1-4-2.1,0-1.69,1.42-2.52,4.23-2.52h90.34c2.81,0,4.23.83,4.23,2.48,0,2-1.67,2.08-4,2.14-1.31,0-3.17.07-5.4.1-4.45.06-10.38.12-16.3.17C99.87,209.94,88,210,88,210Z"/></svg>