<?xml version="1.0" encoding="utf-8"?>
<!-- Generator: Adobe Illustrator 16.0.0, SVG Export Plug-In . SVG Version: 6.00 Build 0)  -->
<!DOCTYPE svg PUBLIC "-//W3C//DTD SVG 1.1//EN" "http://www.w3.org/Graphics/SVG/1.1/DTD/svg11.dtd">
<svg version="1.1" xmlns="http://www.w3.org/2000/svg" xmlns:xlink="http://www.w3.org/1999/xlink" x="0px" y="0px" width="100px"
	 height="100px" viewBox="0 0 100 100" enable-background="new 0 0 100 100" xml:space="preserve">
<g id="Titres">
</g>
<g id="Calque_1">
	<path d="M96.709,49.776c-2.76-4.313-7.154-7.116-12.704-8.106c-1.147-0.205-2.331-0.309-3.518-0.309
		c-4.48,0-8.426,1.486-10.948,2.732c-1.207,0.599-2.585,0.95-3.892,1.017c0.001-0.006,0.004-0.01,0.005-0.016
		c0.336-2.633,0.417-4.997,0.315-7.121c1.488,0.495,4.875,1.457,8.702,1.457c0,0,0,0,0.001,0c3.144,0,5.895-0.654,8.175-1.944
		c7.406-4.188,9.202-14.61,9.275-15.052c0.077-0.464-0.181-0.919-0.619-1.092c-0.18-0.071-4.458-1.742-9.495-1.742
		c-3.144,0-5.896,0.654-8.18,1.945c-4.858,2.75-7.305,8.189-8.433,11.723c-0.773-3.866-2.146-6.685-3.352-8.754
		c-0.278-0.477-0.891-0.638-1.367-0.36c-0.477,0.278-0.639,0.89-0.36,1.367c2.048,3.515,4.623,9.339,3.355,19.303
		c-0.71-0.173-1.398-0.416-2.037-0.732c-2.521-1.246-6.466-2.732-10.945-2.732c-1.188,0-2.37,0.104-3.517,0.309
		c-5.552,0.99-9.945,3.793-12.705,8.107c-0.641,1.001-1.187,2.08-1.643,3.215C21.745,45.229,12.928,29.525,12.22,22.18
		c0.122-0.618,0.226-1.246,0.326-1.891c0.499-3.204,1.016-6.516,4.831-9.854c1.636-1.432,2.311-2.665,2.063-3.77
		c-0.1-0.445-0.452-1.244-1.686-1.594c-1.655-0.472-4.494,0.114-6.078,1.734C9.027,9.507,7.685,11.3,3.681,25.371
		C-3.72,41.55,1.415,55.392,7.033,64.16c9.95,15.526,27.403,25.199,38.118,25.425c3.443,3.162,7.155,5.325,10.656,5.491
		c0.585,0.027,1.065,0.017,1.698,0.001c0.099-0.002,0.455-0.032,0.982-0.08c1.561-0.141,4.808-0.436,7.1-0.439
		c2.293,0.003,5.541,0.298,7.102,0.439c0.527,0.048,0.883,0.078,1.053,0.082c0.277,0.006,0.565,0.013,0.866,0.013
		c0.245,0,0.498-0.004,0.762-0.017c9.734-0.463,21.114-16.316,23.742-26.371C100.876,61.96,99.977,54.884,96.709,49.776z
		 M74.813,23.286c1.979-1.119,4.399-1.686,7.195-1.686c3.435,0,6.561,0.868,7.97,1.326c-0.567,2.449-2.668,9.739-8.116,12.82
		c-1.977,1.119-4.396,1.685-7.191,1.685h-0.001c-3.436,0-6.563-0.867-7.975-1.326C67.264,33.655,69.371,26.367,74.813,23.286z
		 M32.142,54.958c-0.831,2.83-1.128,5.931-0.869,9.075C20.32,57.641,8.386,45.508,9.234,23.161l1.091,0.001
		C11.574,31.204,20.397,47.007,32.142,54.958z M13.104,8.203c0.883-0.903,2.487-1.331,3.542-1.292
		c0.582,0.026,0.824,0.182,0.842,0.188c0,0.005,0.025,0.56-1.428,1.831c-4.362,3.817-4.962,7.66-5.49,11.051
		c-0.063,0.403-0.136,0.79-0.203,1.182L8.27,21.16c0,0,0,0-0.001,0c-0.085,0-0.165,0.027-0.247,0.048
		c-0.034,0.009-0.07,0.008-0.103,0.02c-0.082,0.03-0.151,0.082-0.222,0.132c-0.035,0.025-0.075,0.041-0.106,0.07
		c-0.006,0.005-0.015,0.007-0.021,0.013L6.64,22.352C9.718,11.995,10.931,10.422,13.104,8.203z M8.717,63.081
		C3.377,54.75-1.508,41.615,5.455,26.296l1.734-1.689C6.874,47.863,20.06,60.19,31.591,66.511c0.129,0.733,0.282,1.466,0.473,2.194
		c1.478,5.654,5.724,13.143,10.889,18.697C32.627,85.979,17.361,76.57,8.717,63.081z M97.177,68.199
		c-2.492,9.532-13.296,24.47-21.902,24.879c-0.536,0.025-0.976,0.013-1.554,0c-0.1-0.004-0.406-0.033-0.853-0.073
		c-1.59-0.144-4.896-0.443-7.282-0.447c-2.383,0.004-5.691,0.303-7.28,0.447c-0.447,0.04-0.753,0.069-0.92,0.074
		c-0.46,0.011-0.953,0.023-1.486-0.002c-3.084-0.146-6.449-2.164-9.614-5.125c-0.041-0.047-0.085-0.086-0.133-0.125
		c-5.612-5.306-10.568-13.561-12.155-19.628c-1.625-6.214-0.821-12.698,2.152-17.344c2.487-3.886,6.313-6.314,11.373-7.217
		c1.031-0.185,2.096-0.278,3.165-0.278c4.094,0,7.73,1.373,10.059,2.524c1.458,0.723,3.116,1.146,4.887,1.225
		c1.678-0.079,3.336-0.502,4.792-1.224c2.33-1.152,5.967-2.525,10.061-2.525c1.069,0,2.134,0.093,3.166,0.278
		c5.059,0.903,8.885,3.33,11.372,7.216C97.998,55.5,98.803,61.984,97.177,68.199z M93.667,63.329c0.026,0.551-0.4,1.02-0.952,1.046
		c-0.016,0-0.032,0.001-0.048,0.001c-0.53,0-0.973-0.417-0.998-0.953c-0.311-6.608-3.163-11.016-8.477-13.101
		c-0.514-0.202-0.767-0.782-0.565-1.296c0.201-0.513,0.779-0.769,1.295-0.565C90.037,50.859,93.315,55.861,93.667,63.329z"/>
</g>
</svg>
