<?xml version="1.0" encoding="utf-8"?>
<!-- Generator: Adobe Illustrator 16.0.0, SVG Export Plug-In . SVG Version: 6.00 Build 0)  -->
<!DOCTYPE svg PUBLIC "-//W3C//DTD SVG 1.1//EN" "http://www.w3.org/Graphics/SVG/1.1/DTD/svg11.dtd">
<svg version="1.1" xmlns="http://www.w3.org/2000/svg" xmlns:xlink="http://www.w3.org/1999/xlink" x="0px" y="0px" width="100px"
	 height="100px" viewBox="0 0 100 100" enable-background="new 0 0 100 100" xml:space="preserve">
<g id="Calque_2">
</g>
<g id="Calque_1">
	<path d="M93.445,28.864c-0.001-0.023,0.007-0.046,0.004-0.07c-0.007-0.053-0.033-0.098-0.048-0.148
		c-0.015-0.051-0.025-0.103-0.049-0.151c-0.032-0.068-0.077-0.125-0.123-0.183c-0.031-0.039-0.055-0.08-0.091-0.113
		c-0.059-0.056-0.129-0.095-0.2-0.135c-0.037-0.021-0.068-0.049-0.107-0.065c-0.116-0.047-0.242-0.075-0.374-0.075
		c-5.884,0-19.847-7.996-19.847-10.582v-1.727c0-0.223-0.087-0.419-0.211-0.585c1.911-2.86,9.29-11.026,13.771-10.321
		c0.449,0.069,0.892-0.174,1.072-0.593c0.181-0.419,0.055-0.907-0.307-1.187c-2.004-1.548-5.926-2.711-9.804-1.604
		c-0.407,0.116-0.839,0.269-1.282,0.458c-2.327-1.965-6.077-2.621-9.294-0.29c-1.26-0.265-2.783-0.236-4.299,0.126
		c-2.028,0.485-3.578,1.44-4.229,2.577c-1.321-0.942-2.785-1.626-4.235-1.641c-1.606,0.007-3.876,0.798-5.255,4.777
		c-0.103,0.295-0.061,0.622,0.113,0.882c0.173,0.26,0.458,0.424,0.771,0.443c2.052,0.127,9.979,3.472,13.279,6.805
		c-0.009,0.051-0.031,0.098-0.031,0.152v2.325c0,2.783-13.315,12.318-22.504,14.367c-0.032,0.007-0.058,0.028-0.089,0.038
		c-0.056,0.018-0.107,0.04-0.158,0.068c-0.062,0.033-0.115,0.069-0.168,0.113c-0.042,0.035-0.081,0.071-0.117,0.113
		c-0.045,0.054-0.081,0.11-0.114,0.171c-0.026,0.048-0.051,0.094-0.069,0.146c-0.024,0.069-0.035,0.14-0.044,0.215
		c-0.004,0.039-0.022,0.072-0.022,0.112v42.936c0,0.294,0.133,0.553,0.336,0.736l-1.604-0.296c-1.082-0.201-2.196-0.053-2.99,0.363
		c-0.95-0.875-2.584-1.421-3.385-1.57c-0.985-0.182-2.07-0.274-3.227-0.274c-9.048,0-21.566,5.69-21.96,9.981
		c-0.038,0.414,0.016,0.872,0.24,1.322l-0.251,0.001c0,0,0.012,2.965,0.012,3.577c0,2.443,3.152,3.026,4.189,3.218
		c0.71,0.131,2.358,0.196,3.677-0.199c0.008,0.017,0.017,0.034,0.025,0.05c0.409,0.766,1.152,1.319,2.06,1.538
		c0.052,0.019,0.105,0.034,0.161,0.044l28.465,5.281c0.061,0.011,0.122,0.017,0.183,0.017c0.119,0,0.234-0.028,0.346-0.07
		c0.025-0.009,0.05-0.018,0.074-0.029c0.021-0.01,0.043-0.014,0.063-0.025L66.58,88.425c0.318-0.176,0.517-0.512,0.517-0.876v-2.015
		h8.845c0.002,0,0.003,0.001,0.005,0.001c0.022,0,0.041-0.011,0.063-0.013c0.101-0.006,0.202-0.019,0.296-0.055l0.025-0.01
		c0.003-0.001,0.006-0.002,0.009-0.003l16.478-6.339c0.386-0.148,0.641-0.52,0.641-0.934V28.923
		C93.457,28.902,93.446,28.885,93.445,28.864z M64.67,16.938v-0.325h5.939v0.325H64.67z M73.917,2.84
		c-1.953,1.337-3.948,3.588-5.363,7.375c-0.193,0.517,0.069,1.093,0.587,1.287c0.515,0.195,1.094-0.068,1.286-0.586
		c1.534-4.102,4.041-6.753,7.252-7.668c1.902-0.542,3.751-0.416,5.251-0.016c-5.269,1.997-11.091,8.767-12.577,11.382h-2.07
		c-2.252-4.203-1.251-10.125-0.704-11.393C69.793,1.518,72.217,1.771,73.917,2.84z M50.869,6.901
		c0.75-1.571,1.698-2.349,2.903-2.347c3.003,0.03,6.822,4.645,7.2,5.81c0.17,0.525,0.732,0.813,1.259,0.643
		c0.525-0.17,0.813-0.734,0.644-1.259c-0.239-0.737-1.451-2.524-3.132-4.132C59.726,5.564,59.725,5.51,59.7,5.46
		c-0.017-0.032-0.041-0.081,0.021-0.215c0.243-0.522,1.285-1.271,3-1.681c0.935-0.223,1.891-0.302,2.717-0.236
		c-0.681,2.469-1.07,7.311,0.62,11.286h-1.41c-0.005-0.005-0.005-0.012-0.01-0.017C61.762,11.263,54.484,7.833,50.869,6.901z
		 M64.462,18.939h2.093c-0.174,1.186-0.618,2.636-1.317,2.956c-0.503,0.229-0.724,0.823-0.493,1.325
		c0.168,0.367,0.53,0.584,0.909,0.584c0.14,0,0.281-0.029,0.416-0.091c1.773-0.811,2.322-3.349,2.492-4.774h2.579
		C73.331,22.557,81.888,27.18,88,29.065l-12.185,3.217h-29.42C54.095,28.954,63.018,22.797,64.462,18.939z M28.513,77.177
		c1.034,0,1.998,0.081,2.862,0.241c0.999,0.185,2.133,0.785,2.452,1.125c-0.006,0.042-0.008,0.085-0.009,0.128
		c0,0.387,0.226,0.755,0.603,0.918c0.505,0.22,1.095-0.012,1.315-0.519c0.113-0.261,0.894-0.646,2.039-0.444l25.403,4.764
		l-18.034,9.943l-28.03-5.222c-0.396-0.073-0.724-0.287-0.875-0.57c-0.075-0.141-0.094-0.277-0.052-0.375
		c0.22-0.507,0.01-1.135-0.497-1.354c-0.139-0.06-0.282-0.089-0.422-0.089c-0.339,0-0.655,0.172-0.827,0.486
		c-0.022,0.032-0.042,0.066-0.061,0.102c-0.197,0.16-1.055,0.446-2.319,0.446c-0.354,0-0.688-0.026-0.942-0.073
		c-1.637-0.303-2.623-0.818-2.574-1.345C8.768,82.907,19.346,77.177,28.513,77.177z M11.106,91.309
		c-1.598-0.295-2.552-0.763-2.552-1.251c0-0.311-0.003-1.231-0.006-2.061c0.573,0.261,1.297,0.486,2.209,0.655
		c0.375,0.069,0.826,0.106,1.305,0.106c0.412,0,1.313-0.039,2.182-0.265V91C13.747,91.271,12.203,91.51,11.106,91.309z
		 M17.061,92.738c-0.556-0.103-0.779-0.42-0.85-0.552c-0.078-0.146-0.096-0.289-0.051-0.394c0.001-0.001,0.001-0.002,0.002-0.003v0
		c0,0,0-0.001,0.001-0.002v0c0-0.001,0.001-0.001,0.001-0.001c0-0.001,0-0.001,0-0.001c0.001,0,0.001-0.001,0.001-0.001v0
		c0.057-0.134,0.079-0.276,0.078-0.417v-1.436c0.172,0.06,0.344,0.122,0.53,0.156l27.54,5.129v2.589l-27.123-5.032
		C17.149,92.757,17.105,92.746,17.061,92.738z M46.314,97.313v-2.339l18.782-10.355v2.34L46.314,97.313z M67.084,82.865
		c-0.002-0.032,0.005-0.064-0.001-0.097c-0.009-0.056-0.033-0.105-0.051-0.158c-0.012-0.034-0.018-0.067-0.032-0.099
		c-0.049-0.107-0.112-0.205-0.193-0.287c-0.011-0.011-0.024-0.017-0.035-0.026c-0.074-0.069-0.158-0.125-0.251-0.17
		c-0.035-0.016-0.071-0.025-0.108-0.038c-0.044-0.015-0.084-0.038-0.13-0.046l-18.181-3.44l-7.353-1.358
		c0.371-0.146,0.635-0.504,0.635-0.926V34.283h33.561v49.252h-7.849v-0.609C67.096,82.904,67.085,82.886,67.084,82.865z
		 M76.946,83.079V34.053l14.511-3.831v47.274L76.946,83.079z"/>
</g>
</svg>
