<svg id="Calque_1" data-name="Calque 1" xmlns="http://www.w3.org/2000/svg" viewBox="0 0 300 300"><defs><style>.cls-1{fill:#1d1d1b;}</style></defs><title>picto_centre_val_loire</title><path class="cls-1" d="M150,6A144,144,0,0,1,251.82,251.82,144,144,0,1,1,48.18,48.18,143,143,0,0,1,150,6m0-6A150,150,0,1,0,300,150,150,150,0,0,0,150,0Z"/><path class="cls-1" d="M206.65,152.23c-.85,0-1.9,0-3.2-.07-2.38-.06-4.76-.15-4.76-.15a2.48,2.48,0,0,1-2.35-2c-.87-4.31-4.64-16.61-10.35-16.61s-10.13,6.51-11.43,16.58a2.52,2.52,0,0,1-2.83,2.18h-.1c-1.4,0-6.86-.11-7.1-.11a2.51,2.51,0,0,1-2.42-2.14c-.49-3.38-1.4-9.16-1.72-10.27-1.29-4.39-4.29-11.75-10-11.75-6.11,0-11.27,10-11.27,21.77a2.5,2.5,0,0,1-2.5,2.5,3.42,3.42,0,0,1-.46,0c-.83,0-4.27,0-7.3,0a2.53,2.53,0,0,1-2.5-2.06,62.71,62.71,0,0,0-1.71-7.47c-1-2.39-4.59-10.12-10.19-9.26-4.79.73-9,7.57-10.13,16.61-.29,2.21-2.26,2.22-4,2.23H97l-4.87-.05a2.5,2.5,0,0,1-2.47-2.5v-3.87c-3.86-8-8.68-7.26-10.29-7-3,.47-6,3.57-8,8.33l0,2.51a2.51,2.51,0,0,1-2.5,2.54H28.05a2.5,2.5,0,0,1-2.5-2.5V138.6a2.51,2.51,0,0,1,1.8-2.4l116.28-34a2.61,2.61,0,0,1,.57-.09c.3,0,7.52-.41,10.34-.18a2,2,0,0,1,.49.09L273.19,136.2a2.51,2.51,0,0,1,1.81,2.4v11.06a2.5,2.5,0,0,1-2.5,2.5H231.64a2.51,2.51,0,0,1-2.5-2.54l.05-3c-2-4.55-4.81-7.4-7.75-7.85-4.26-.66-8.6,4-10.74,11.56C210.26,151.89,209.62,152.23,206.65,152.23Zm-72.53-2.57a2.49,2.49,0,0,0,1.85,2.42A2.5,2.5,0,0,1,134.12,149.66Zm66.67-2.58c2.16.07,4.27.13,5.64.14,3.11-9.19,9.17-14.4,15.77-13.38,4.87.75,9.06,4.77,11.8,11.33a2.66,2.66,0,0,1,.2,1l0,1H270v-6.68L153.9,106.9c-2.13-.13-7,.08-9.15.18l-114.2,33.4v6.68H66.37v-.48a2.39,2.39,0,0,1,.17-1c2.68-6.79,7.07-11.13,12-11.89,4.73-.73,11.31.47,15.82,10.35a2.5,2.5,0,0,1,.23,1v2c1.92,0,3.75,0,5.07,0,1.88-10.32,7.35-17.76,14-18.78,6.24-1,12.06,3.64,15.59,12.31a48.11,48.11,0,0,1,1.61,6.39c1.35,0,2.43,0,3.3,0,.76-13.76,7.6-24.2,16.2-24.2,6.65,0,11.9,5.45,14.8,15.35.38,1.32,1.12,6,1.56,8.85l3.19,0C172,135.49,178.05,128.4,186,128.4,195.17,128.4,199.46,141.77,200.79,147.08Z"/><path class="cls-1" d="M133.73,160.69H132c-.06,0-5.75-.73-5.75-4.32v-.13a4.11,4.11,0,0,1,4-4.2h5.19a4.12,4.12,0,0,1,4,4.2v.13C139.48,160,133.78,160.69,133.73,160.69Z"/><path class="cls-1" d="M98.73,160.69h-2.8c-.06,0-5.94-.66-5.94-4.32v-.13a4.12,4.12,0,0,1,4-4.2h6.61a4.12,4.12,0,0,1,4,4.2v.13C104.67,160,98.79,160.69,98.73,160.69Z"/><path class="cls-1" d="M168.68,160.69H167c-.06,0-5.8-.73-5.8-4.32v-.13a4.11,4.11,0,0,1,4-4.2h5.19a4.12,4.12,0,0,1,4,4.2v.13C174.48,160,168.73,160.69,168.68,160.69Z"/><path class="cls-1" d="M204,160.69h-1.26c-.06,0-6.71-.59-6.71-4.32v-.13a4.12,4.12,0,0,1,4-4.2h6.61a4.12,4.12,0,0,1,4,4.2v.13C210.71,160.1,204.07,160.69,204,160.69Z"/><path class="cls-1" d="M254.46,160.69h-4c-.16,0-4.88-.21-9.41-.54-8.92-.64-11.49-1-11.49-3.78v-.13a4.12,4.12,0,0,1,4-4.2h37.78a4.11,4.11,0,0,1,4,4.2v.13c0,2.83-2.57,3.14-11.48,3.78C259.35,160.48,254.62,160.69,254.46,160.69Z"/><path class="cls-1" d="M50.06,160.69H48.38c-.16,0-5.15-.21-10-.54-9.6-.65-12.11-.93-12.11-3.78v-.13a4.12,4.12,0,0,1,4-4.2H68.11a4.12,4.12,0,0,1,4,4.2v.13c0,2.85-2.52,3.13-12.11,3.78C55.22,160.48,50.23,160.69,50.06,160.69Z"/><path class="cls-1" d="M134.54,168.13h-2.4c-.36,0-2.15-.19-3.43-.39-2.26-.33-5.07-.75-5.07-3.33a3.6,3.6,0,0,1,3.52-3.72h12.36a3.58,3.58,0,0,1,3.52,3.63c0,2.67-2.81,3.09-5.07,3.42C136.7,167.94,134.9,168.13,134.54,168.13Z"/><path class="cls-1" d="M97.91,168.13H96.76c-.26,0-2.43-.17-4.24-.37-3.29-.37-6.13-.69-6.13-3.35a3.6,3.6,0,0,1,3.52-3.72h14.84a3.58,3.58,0,0,1,3.53,3.63c0,2.75-2.84,3.07-6.13,3.44C100.34,168,98.16,168.13,97.91,168.13Z"/><path class="cls-1" d="M169.37,168.13h-3c-.37,0-2-.19-3.31-.39-2.05-.32-4.87-.77-4.87-3.33a3.6,3.6,0,0,1,3.52-3.72H174a3.58,3.58,0,0,1,3.52,3.63c0,2.65-2.81,3.1-4.87,3.42C171.42,167.94,169.75,168.13,169.37,168.13Z"/><path class="cls-1" d="M205.27,168.13h-3.8c-.34,0-2.21-.18-3.69-.38-2.51-.35-5.35-.74-5.35-3.34a3.6,3.6,0,0,1,3.52-3.72h14.84a3.58,3.58,0,0,1,3.53,3.63c0,2.69-2.85,3.08-5.36,3.43C207.49,168,205.62,168.13,205.27,168.13Z"/><path class="cls-1" d="M244.77,168.13h-.07s-4.75-.14-9.38-.36c-2.74-.13-4.93-.26-6.5-.39-2.8-.24-5.21-.44-5.21-3a3.6,3.6,0,0,1,3.52-3.72h35.28a3.58,3.58,0,0,1,3.52,3.63c0,2.62-2.41,2.82-5.21,3.06-1.57.13-3.76.26-6.5.39-4.64.22-9.33.36-9.38.36Z"/><path class="cls-1" d="M61.08,168.13H52.71c-.2,0-3.88-.14-7.46-.36-7.31-.45-9.52-.59-9.52-3.36a3.6,3.6,0,0,1,3.52-3.72H74.54a3.58,3.58,0,0,1,3.52,3.63c0,2.86-2.21,3-9.52,3.45C65,168,61.28,168.13,61.08,168.13Z"/><path class="cls-1" d="M133.34,176.4h-.07s-2.71-.08-5.42-.21c-1.59-.07-2.87-.15-3.79-.23-1.49-.12-4-.33-4-2.77a3.14,3.14,0,0,1,3.09-3.2H143.5a3.13,3.13,0,0,1,3.1,3.15c0,2.49-2.49,2.7-4,2.82-.93.08-2.2.16-3.79.23-2.71.13-5.42.21-5.42.21Z"/><path class="cls-1" d="M97.33,176.4h-.06s-3.17-.08-6.34-.21c-1.86-.07-3.34-.15-4.41-.23-1.92-.13-4.29-.3-4.29-2.77a3.13,3.13,0,0,1,3.09-3.2h24a3.12,3.12,0,0,1,3.09,3.15c0,2.52-2.38,2.69-4.29,2.82-1.07.08-2.55.16-4.41.23-3.17.13-6.34.21-6.34.21Z"/><path class="cls-1" d="M167.85,176.4h-.07s-2.71-.08-5.42-.21c-1.59-.07-2.87-.15-3.79-.23-1.49-.12-4-.33-4-2.77a3.14,3.14,0,0,1,3.09-3.2H178a3.13,3.13,0,0,1,3.1,3.15c0,2.49-2.49,2.7-4,2.82-.93.08-2.2.16-3.79.23-2.71.13-5.42.21-5.42.21Z"/><path class="cls-1" d="M203.37,176.4h-.06s-3.17-.08-6.34-.21c-1.86-.07-3.34-.15-4.41-.23-1.92-.13-4.3-.3-4.3-2.77a3.14,3.14,0,0,1,3.1-3.2h24a3.12,3.12,0,0,1,3.09,3.15c0,2.52-2.38,2.69-4.29,2.82-1.07.08-2.56.16-4.41.23-3.17.13-6.34.21-6.34.21Z"/></svg>