<?xml version="1.0" encoding="utf-8"?>
<!-- Generator: Adobe Illustrator 16.0.0, SVG Export Plug-In . SVG Version: 6.00 Build 0)  -->
<!DOCTYPE svg PUBLIC "-//W3C//DTD SVG 1.1//EN" "http://www.w3.org/Graphics/SVG/1.1/DTD/svg11.dtd">
<svg version="1.1" xmlns="http://www.w3.org/2000/svg" xmlns:xlink="http://www.w3.org/1999/xlink" x="0px" y="0px" width="100px"
	 height="100px" viewBox="0 0 100 100" enable-background="new 0 0 100 100" xml:space="preserve">
<g id="Calque_1">
</g>
<g id="Calque_2">
	<path d="M96.476,14.941C93.93,9.158,90.056,4.97,85.272,2.831c-4.522-2.023-9.548-2.02-14.153,0.006
		c-0.765,0.337-1.486,0.678-2.169,1c-2.467,1.165-4.415,2.086-5.87,1.542c-1.113-0.416-2.15-1.747-3.173-4.07
		c-1.083-2.461-6.847-1.413-17.13,3.113C38.507,6.3,24.688,12.7,26.203,16.143c0.887,2.017,1.098,3.463,0.644,4.424
		c-0.362,0.765-1.174,1.368-2.803,2.085c-4.174,1.837-7.374,2.343-10.468,2.831c-2.598,0.41-5.052,0.797-7.697,1.96
		C-0.244,30.141-0.37,41.452,5.573,54.95c0,0.001,0,0.001,0,0.002c5.136,11.673,12.131,18.894,17.891,18.894
		c0.901,0,1.773-0.177,2.601-0.541c2.645-1.165,4.588-2.713,6.645-4.352c2.45-1.952,4.983-3.971,9.157-5.808
		c2.493-1.097,3.888-1.202,5.346,1.072v24.514c-0.003,0.396-0.535,0.873-1.27,1.136c-0.674,0.242-1.499,0.304-2.231,0.067
		c0.867-3.101,0.834-6.62-1.279-7.249l-31.402-9.338c-2.001-0.596-4.089-0.497-5.877,0.281c-1.847,0.803-3.156,2.227-3.686,4.009
		c-0.531,1.782-0.213,3.69,0.895,5.373c1.072,1.627,2.765,2.852,4.769,3.447l31.401,9.338c0.031,0.009,0.063,0.008,0.094,0.014
		c0.164,0.041,0.327,0.072,0.488,0.072c1.566,0,2.998-1.844,3.941-4.065c0.537,0.178,1.097,0.264,1.647,0.264
		c0.672,0,1.331-0.12,1.914-0.329c0.21-0.075,0.408-0.161,0.596-0.255v3.086c0,2.266,3.545,3.298,6.84,3.298h0
		c1.679,1.54,3.45,2.132,5.269,2.132c2.837,0,5.788-1.411,8.681-2.794c5.67-2.71,11.025-5.272,16.666,0.369
		c0.391,0.391,1.024,0.391,1.415,0s0.391-1.024,0-1.415c-6.64-6.641-13.175-3.515-18.943-0.759
		c-4.269,2.042-7.321,3.339-10.014,2.151c2.104-0.459,3.764-1.432,3.764-2.982V64.474c8.009-2.879,19.398-8.226,20.891-11.666
		c0.325-0.749,0.206-1.334,0.048-1.693c-1.022-2.324-1.303-3.989-0.858-5.09c0.582-1.439,2.578-2.255,5.104-3.287
		c0.698-0.285,1.437-0.586,2.201-0.923C98.156,37.466,101.527,26.415,96.476,14.941z M4.034,81.909
		c-0.777-1.18-1.008-2.495-0.648-3.702c0.359-1.207,1.27-2.181,2.566-2.745c1.356-0.59,2.958-0.66,4.509-0.198l29.087,8.65
		c-0.766,0.883-1.423,2.119-1.908,3.436l-26.876-7.994c-0.528-0.157-1.086,0.145-1.244,0.674c-0.157,0.529,0.144,1.086,0.673,1.244
		l26.882,7.994c-0.293,1.276-0.413,2.511-0.323,3.552c0.012,0.137,0.035,0.25,0.053,0.375L7.702,84.539
		C6.15,84.078,4.847,83.144,4.034,81.909z M39.11,93.875c-0.313-0.22-0.73-2.018,0.101-4.894c0.016-0.036,0.04-0.067,0.051-0.105
		c0.01-0.033,0.002-0.066,0.009-0.1c0.871-2.854,2.195-4.136,2.588-4.167c0.286,0.213,0.648,1.74,0.074,4.196
		c-0.276-0.047-0.568,0.011-0.802,0.202c-0.427,0.35-0.489,0.98-0.139,1.408c0.104,0.127,0.216,0.242,0.329,0.354
		C40.476,92.898,39.428,93.865,39.11,93.875z M55.053,95.841V63.277c0-0.553-0.448-1-1-1s-1,0.448-1,1v32.564
		c-2.444-0.175-3.75-0.953-3.839-1.259v-5.843c0-0.003,0.001-0.007,0.001-0.01c0-0.002-0.001-0.003-0.001-0.005V61.82
		c0-3.277,2.171-5.943,4.839-5.943c2.667,0,4.837,2.666,4.837,5.943v32.748C58.795,94.89,57.492,95.666,55.053,95.841z
		 M87.472,39.984c-0.748,0.329-1.468,0.623-2.151,0.902c-2.963,1.21-5.304,2.167-6.203,4.389c-0.667,1.65-0.387,3.762,0.871,6.603
		c-0.021,1.606-8.867,6.714-19.097,10.463V61.82c0-2.218-0.789-4.224-2.054-5.666l14.736-6.485c0.505-0.223,0.735-0.813,0.513-1.319
		c-0.223-0.506-0.813-0.733-1.319-0.513l-15.654,6.889c-0.922-0.539-1.96-0.85-3.061-0.85c-3.615,0-6.575,3.275-6.816,7.404
		c-1.938-1.442-4.09-0.883-6.176,0.034c-4.412,1.942-7.167,4.137-9.598,6.074c-2.038,1.624-3.797,3.026-6.204,4.086
		c-4.154,1.831-11.826-3.625-17.855-17.328c0,0-0.001-0.001-0.001-0.002C1.371,40.442,2.531,31.104,6.684,29.273
		c2.407-1.059,4.629-1.409,7.203-1.815c3.071-0.485,6.551-1.034,10.962-2.977c1.546-0.68,3.077-1.521,3.805-3.06
		c0.715-1.511,0.536-3.405-0.563-5.954c0.771-1.975,13.568-9.213,23.766-12.385c2.893-0.9,4.481-1.101,5.327-1.101
		c0.719,0,0.895,0.13,0.894,0.132c1.269,2.882,2.637,4.516,4.304,5.138c2.247,0.839,4.531-0.241,7.424-1.606
		c0.668-0.316,1.373-0.649,2.121-0.978c4.081-1.796,8.53-1.8,12.53-0.011c4.323,1.934,7.847,5.769,10.19,11.09
		C99.222,26.143,96.272,36.11,87.472,39.984z M78.453,9.035c-1.109,0-2.135,0.205-3.051,0.607L16.57,35.536
		c-4.528,1.995-7.295,9.446-4.221,16.433c2.482,5.64,7.875,8.592,11.919,8.592h0c1.109,0,2.135-0.205,3.051-0.607L86.15,34.06
		c4.528-1.994,7.295-9.445,4.222-16.431C87.889,11.987,82.497,9.035,78.453,9.035z M85.344,32.23L26.513,58.123
		c-0.66,0.291-1.415,0.438-2.244,0.438h0c-3.396,0-7.951-2.542-10.088-7.398c-2.572-5.844-0.393-12.216,3.196-13.797l58.832-25.893
		c0.66-0.291,1.416-0.438,2.245-0.438c3.395,0,7.95,2.542,10.087,7.399C91.112,24.278,88.933,30.648,85.344,32.23z M34.7,18.576
		c-0.223-0.505,0.007-1.096,0.512-1.318l20.185-8.883c0.506-0.224,1.096,0.007,1.318,0.512c0.223,0.505-0.007,1.096-0.512,1.318
		l-20.186,8.884c-0.131,0.058-0.268,0.085-0.402,0.085C35.231,19.174,34.864,18.951,34.7,18.576z"/>
</g>
</svg>
