<svg id="Calque_1" data-name="Calque 1" xmlns="http://www.w3.org/2000/svg" viewBox="0 0 99.51 90.69"><title>09_e_PREPARED MEALS CULINARY AIDS BIO</title><path d="M81.29,61.77c1.38,2.42.38,5.86-2.23,7.67a6.93,6.93,0,0,1-1.15.64,1.09,1.09,0,0,1-.39.08,1,1,0,0,1-.4-1.92,4.21,4.21,0,0,0,.8-.44c1.75-1.22,2.49-3.52,1.63-5a2.47,2.47,0,0,0-1.63-1.19,3.8,3.8,0,0,0-3,.69,5,5,0,0,0-1.4,1.51,1,1,0,1,1-1.72-1,6.86,6.86,0,0,1,2-2.14,5.79,5.79,0,0,1,4.53-1A4.48,4.48,0,0,1,81.29,61.77Zm4.14-4.21c12.81,15.8,17.73,32.32,11.21,37.6a7.71,7.71,0,0,1-5,1.61c-5.57,0-13.25-4.24-20.8-11.14a8.56,8.56,0,0,1-3.65,5.65c-3.46,2.57-9,3.92-15.32,3.92a50.84,50.84,0,0,1-9.52-.93c-13-2.46-27-5.59-28.88-11.45h0l-7-22.47a10.16,10.16,0,0,1-.33-1.11l-.49-.12-.1,0c-3.55-1-6-4.39-5.45-7.59A5.12,5.12,0,0,1,2.42,48a6.65,6.65,0,0,1,5.31-.66,8,8,0,0,1,2.61,1.3,24.73,24.73,0,0,1,10-4.47c-.68-1-1.35-2-2-2.9a38.22,38.22,0,0,1-3.88-6.4c-1.67-3.79-3.78-10.52-1-11.73l2.09-.93c2.73-1.2,6.3,4.88,8,8.67a38.45,38.45,0,0,1,2.12,7.2c.35,1.57.74,3.25,1.26,5.09a66.59,66.59,0,0,1,17.7,1.06l3.55.68A8.4,8.4,0,0,1,51,38.8a7.72,7.72,0,0,1,5-1.61C63.72,37.19,75.56,45.38,85.43,57.56ZM9.35,61.42c3.93,5.24,15.58,7.88,30.73,10.76A61.89,61.89,0,0,0,59.52,73a70.11,70.11,0,0,1-9.36-16.8c-1.91-.39-3.89-.78-5.92-1.16a66.5,66.5,0,0,0-13-1.2,28.9,28.9,0,0,0,5.05,5.91c.57.55,1.13,1.07,1.65,1.62a1.43,1.43,0,0,1,.15.22,26.64,26.64,0,0,0,3.16-.92,1,1,0,0,1,1.28.61,1,1,0,0,1-.6,1.28,27.63,27.63,0,0,1-9.31,1.69,25.31,25.31,0,0,1-9.07-1.7,1,1,0,0,1,.72-1.87,22.45,22.45,0,0,0,2.57.81,22,22,0,0,0-1.33-7.34C17.67,55,11.83,57.66,9.35,61.42ZM27.5,45.12c.52,1.62,1.18,3.38,2,5.31.22.48.44.94.66,1.37A68.93,68.93,0,0,1,44.61,53l4.81.94a28.52,28.52,0,0,1-1.31-7l-3.88-.75A65.25,65.25,0,0,0,27.5,45.12Zm-7.48-5c.89,1.27,1.83,2.63,2.8,4.16v0a56.72,56.72,0,0,1,3.91,7.36c.13.3.24.59.36.88l0,.08a24.29,24.29,0,0,1,1.77,9.26h0a22.53,22.53,0,0,0,6.91.1L35,61.16a28.42,28.42,0,0,1-6.3-7.93h0c-.33-.62-.65-1.28-1-2a63.33,63.33,0,0,1-4-12.72,35.74,35.74,0,0,0-2-6.83c-2.19-5-4.68-7.61-5.4-7.63l-2,.91c-.41.5-.14,4.12,2.06,9.09A36.17,36.17,0,0,0,20,40.11ZM21.51,46c-8.08,1.7-13,5.45-13.56,10.35a7.15,7.15,0,0,0,.34,3.16c3-3.76,8.74-6.3,16.49-7.28A53.55,53.55,0,0,0,21.51,46ZM5.9,57.1c0-.33,0-.66.07-1A10.5,10.5,0,0,1,8.85,50a6,6,0,0,0-1.65-.75,4.65,4.65,0,0,0-3.71.42,3.08,3.08,0,0,0-1.44,2.15C1.68,54,3.4,56.32,5.9,57.1Zm63,28s0-.06,0-.09,0-.07,0-.11l.28-.84a85,85,0,0,1-7-7.7q-.66-.81-1.29-1.62a53.11,53.11,0,0,1-8.25.63,69.1,69.1,0,0,1-12.93-1.27C26.3,71.6,15.5,69.18,10,64.85l5.43,17.36c1.67,5.22,19,8.51,27.34,10.1,9.53,1.81,18.67.78,23.28-2.63A6.53,6.53,0,0,0,68.9,85.14Zm15-26.32C74.52,47.26,63,39.19,56,39.19a5.78,5.78,0,0,0-3.74,1.16c-5.46,4.43-.19,20.36,11.5,34.8C73.09,86.7,84.57,94.77,91.64,94.77a5.78,5.78,0,0,0,3.74-1.16C100.84,89.18,95.57,73.25,83.88,58.82ZM31.7,35.15a1,1,0,0,0,.88-1.47A10.47,10.47,0,0,1,33,23.48,20.92,20.92,0,0,1,35.83,20c.48-.51,1-1,1.43-1.54,2.05-2.32,3.07-4.48,3.13-6.62.07-2.69-1.83-5.67-4.78-5.79a1,1,0,1,0-.08,2c1.69.07,2.91,2,2.86,3.74s-.9,3.39-2.63,5.34c-.44.51-.91,1-1.38,1.48a23.64,23.64,0,0,0-3.13,3.79,12.49,12.49,0,0,0-.44,12.18A1,1,0,0,0,31.7,35.15Zm12.58,4a1,1,0,0,0,.49-.13,1,1,0,0,0,.37-1.36,8.18,8.18,0,0,1,.62-8.78,15.12,15.12,0,0,1,1.09-1.24,14.81,14.81,0,0,0,1.61-1.94,7.73,7.73,0,0,0,.85-6.4A1,1,0,0,0,47.4,20a5.61,5.61,0,0,1-.63,4.7,11.72,11.72,0,0,1-1.39,1.67,18.27,18.27,0,0,0-1.2,1.38,10.22,10.22,0,0,0-.78,11A1,1,0,0,0,44.28,39.19ZM63.63,85c-1.35.87-8.86,5-23.69,1.55a1,1,0,1,0-.46,1.94A49.66,49.66,0,0,0,50.86,90c8.27,0,12.79-2.55,13.86-3.23A1,1,0,1,0,63.63,85Zm9.48-32.11a1,1,0,0,0,0-1.41c-8.17-7.73-14.4-9.65-17.51-8.87a3.23,3.23,0,0,0-2.43,2.06,1,1,0,1,0,1.89.64,1.31,1.31,0,0,1,1-.76c2.67-.67,8.54,1.66,15.64,8.38a1,1,0,0,0,.69.27A1,1,0,0,0,73.11,52.93Z" transform="translate(0 -6.08)"/></svg>