<?xml version="1.0" encoding="utf-8"?>
<!-- Generator: Adobe Illustrator 16.0.0, SVG Export Plug-In . SVG Version: 6.00 Build 0)  -->
<!DOCTYPE svg PUBLIC "-//W3C//DTD SVG 1.1//EN" "http://www.w3.org/Graphics/SVG/1.1/DTD/svg11.dtd">
<svg version="1.1" xmlns="http://www.w3.org/2000/svg" xmlns:xlink="http://www.w3.org/1999/xlink" x="0px" y="0px" width="100px"
	 height="100px" viewBox="0 0 100 100" enable-background="new 0 0 100 100" xml:space="preserve">
<g id="Calque_2">
</g>
<g id="v2">
	<path d="M43.478,68.33c-1.397-0.319-2.92-0.14-4.419,0.503c0.028-0.304,0.043-0.602,0.047-0.895
		c0.548,0.141,1.225,0.266,1.949,0.266h0.001c0.864,0,1.646-0.173,2.321-0.514c2.403-1.212,3.11-4.388,3.139-4.523
		c0.099-0.46-0.137-0.927-0.565-1.121c-0.062-0.028-1.516-0.676-3.18-0.676c-0.865,0-1.646,0.173-2.323,0.514
		c-0.983,0.497-1.68,1.324-2.164,2.136c-0.053-0.112-0.101-0.226-0.158-0.336c-0.256-0.489-0.859-0.678-1.35-0.422
		c-0.489,0.256-0.679,0.86-0.422,1.35c0.421,0.804,0.919,2.082,0.704,4.137c-1.419-0.562-2.855-0.719-4.176-0.418
		c-1.72,0.392-3.055,1.341-3.863,2.745c-0.934,1.623-1.113,3.802-0.48,5.831c0.933,2.972,4.435,7.465,7.586,7.465
		c0.205,0,0.396-0.007,0.563-0.028c0.205-0.024,0.587-0.069,1.492-0.069c0.696,0,1.12,0.037,1.369,0.059l0.164,0.014
		c0.158,0.012,0.331,0.024,0.522,0.024c3.043,0,6.642-4.459,7.583-7.466c0.635-2.026,0.456-4.205-0.478-5.828
		C46.532,69.672,45.196,68.722,43.478,68.33z M41.349,63.668c0.795-0.4,2.107-0.306,2.941-0.083c-0.3,0.763-0.869,1.841-1.813,2.318
		c-0.793,0.401-2.106,0.307-2.941,0.083C39.833,65.223,40.401,64.147,41.349,63.668z M45.909,76.308
		c-0.794,2.536-3.802,6.063-5.675,6.063c-0.137,0-0.259-0.01-0.377-0.019l-0.134-0.011c-0.284-0.025-0.76-0.067-1.545-0.067
		c-0.9,0-1.377,0.042-1.73,0.083c-0.098,0.012-0.207,0.014-0.324,0.014c-1.872,0-4.882-3.528-5.677-6.063
		c-0.463-1.482-0.346-3.105,0.305-4.236c0.53-0.921,1.396-1.524,2.574-1.792c0.997-0.229,2.102-0.085,3.224,0.405
		c1.005,0.438,2.259,0.438,3.256,0c1.121-0.49,2.229-0.631,3.227-0.405c1.178,0.268,2.044,0.872,2.574,1.793
		C46.256,73.205,46.372,74.828,45.909,76.308z M87.51,69.7V40.668c2.428-5.001,2.088-13.792-0.809-20.174
		c-2.103-4.633-5.279-7.712-9.22-8.952V8.616c0-0.116-0.029-0.224-0.066-0.328c0.373-0.289,0.381-0.596,0.381-0.856V2.349
		c0-0.023-0.012-0.042-0.013-0.064c0.024-0.116,0.027-0.229,0.027-0.334c0-0.738,0-1.854-8.536-1.854
		c-8.537,0-8.537,1.116-8.537,1.854c0,0.106,0.003,0.221,0.028,0.339c-0.001,0.021-0.012,0.039-0.012,0.06v5.083
		c0,0.354,0.011,0.793,0.944,1.156c-0.001,0.01-0.006,0.018-0.006,0.028v2.927c-3.94,1.239-7.117,4.318-9.221,8.951
		c-2.896,6.381-3.235,15.172-0.808,20.174v15.646l-9.368-4.726c-0.14-0.07-0.294-0.107-0.45-0.107H26.519l-3.766-10.761
		c-0.09-0.255-0.277-0.462-0.522-0.577c-0.243-0.114-0.525-0.125-0.776-0.028l-9.644,3.657c-0.517,0.196-0.776,0.773-0.58,1.29
		c0.196,0.517,0.777,0.778,1.289,0.581l8.685-3.293l3.195,9.132h-8.141c-0.463,0-0.865,0.318-0.973,0.769
		c-0.041,0.173-0.022,0.345,0.025,0.507v34.927c0,0.415,0.256,0.786,0.643,0.934l9.546,3.65c0.114,0.043,0.235,0.066,0.357,0.066
		h25.379c0.411,1.744,0.935,3.473,1.592,5.14l0.003-0.001c0.931,2.271,10.576,2.622,16.442,2.622c0.102,0,0.194-0.03,0.287-0.058
		c0.093,0.028,0.186,0.058,0.287,0.058c5.876,0,15.539-0.351,16.471-2.622l0.003,0.001C90.674,86.435,89.237,72.705,87.51,69.7z
		 M53.658,40.384c0.187-1.005,6.319-3.256,15.926-3.256c9.649,0,15.798,2.272,15.93,3.271c0,0.012-0.004,0.023-0.004,0.035v28.838
		c-0.117,0.012-0.235,0.038-0.348,0.093c-8.459,4.208-13.616,2.3-18.604,0.456c-3.851-1.425-7.825-2.891-12.894-1.154V40.433
		C53.664,40.416,53.659,40.4,53.658,40.384z M75.796,3.399v3.443c-0.911,0.209-3.207,0.446-6.521,0.446
		c-3.313,0-5.609-0.236-6.521-0.446V3.399c1.245,0.243,3.255,0.407,6.521,0.407C72.541,3.807,74.551,3.643,75.796,3.399z
		 M54.293,21.321c1.377-3.034,3.994-6.894,8.641-8.051c0.446-0.111,0.759-0.511,0.759-0.97V9.026
		c1.252,0.161,3.028,0.262,5.582,0.262c3.015,0,4.948-0.142,6.207-0.355V12.3c0,0.459,0.313,0.859,0.759,0.97
		c4.646,1.157,7.263,5.017,8.641,8.051c2.661,5.865,2.772,12.785,1.396,17.043c-3.074-2.322-11.17-3.237-16.692-3.237
		c-5.52,0-13.609,0.914-16.688,3.233C51.521,34.102,51.632,27.184,54.293,21.321z M25.099,53.482l0.54,1.543
		c0.145,0.412,0.531,0.67,0.944,0.67c0.109,0,0.221-0.019,0.33-0.057c0.521-0.183,0.796-0.753,0.614-1.274l-0.309-0.883h14.389
		l5.974,3.013H26.436l-5.974-3.013H25.099z M17.312,54.134l8.028,4.049v31.884l-8.028-3.07V54.134z M27.34,90.336v-31.84h24.324
		v11.203c-1.372,2.377-2.566,11.475-0.85,20.637H27.34z M84.484,96.68c-1.09,0.601-6.674,1.416-14.637,1.416
		c-0.102,0-0.194,0.03-0.287,0.058c-0.093-0.028-0.186-0.058-0.287-0.058c-7.947,0-13.521-0.814-14.608-1.415
		c-4.328-11.037-2.355-23.825-1.471-25.725c0.052-0.012,0.104-0.01,0.154-0.031c4.867-2.057,8.412-0.748,12.516,0.771
		c2.867,1.061,5.948,2.2,9.719,2.2c2.975,0,6.38-0.711,10.446-2.73C86.995,73.81,88.65,86.051,84.484,96.68z M61.64,58.386
		c0,4.815,3.918,8.732,8.734,8.732c4.815,0,8.732-3.917,8.732-8.732c0-4.734-3.788-8.591-8.492-8.72
		c-0.207-0.406-0.433-0.804-0.682-1.187c1.354-0.002,3.248-0.269,4.627-1.515c2.215-1.994,2.04-5.607,2.031-5.76
		c-0.025-0.47-0.376-0.858-0.841-0.932c-0.055-0.008-0.56-0.085-1.291-0.085c-1.354,0-3.26,0.262-4.647,1.513
		c-1.36,1.228-1.817,3.065-1.967,4.334c-0.324-0.282-0.646-0.533-0.956-0.71c-1.009-0.577-1.733-0.457-2.162-0.255
		c-0.5,0.235-0.755,0.842-0.52,1.342c0.235,0.5,0.793,0.724,1.291,0.49c0.533,0,1.938,1.312,2.96,2.97
		C64.562,50.749,61.64,54.229,61.64,58.386z M71.151,43.186c1.005-0.906,2.599-1.013,3.413-0.998
		c-0.083,0.94-0.374,2.417-1.344,3.292c-0.964,0.871-2.486,1-3.309,1c-0.035,0-0.069,0-0.103,0
		C69.896,45.537,70.188,44.055,71.151,43.186z M69.348,51.741c0.129,0.393,0.223,0.785,0.258,1.168
		c0.049,0.519,0.484,0.908,0.995,0.908c0.03,0,0.062-0.001,0.094-0.004c0.55-0.051,0.954-0.538,0.903-1.088
		c-0.029-0.319-0.096-0.648-0.179-0.981c3.216,0.505,5.688,3.287,5.688,6.643c0,3.712-3.021,6.732-6.732,6.732
		c-3.713,0-6.734-3.02-6.734-6.732C63.64,55.023,66.121,52.237,69.348,51.741z"/>
</g>
</svg>
