<?xml version="1.0" encoding="utf-8"?>
<!-- Generator: Adobe Illustrator 16.0.0, SVG Export Plug-In . SVG Version: 6.00 Build 0)  -->
<!DOCTYPE svg PUBLIC "-//W3C//DTD SVG 1.1//EN" "http://www.w3.org/Graphics/SVG/1.1/DTD/svg11.dtd">
<svg version="1.1" xmlns="http://www.w3.org/2000/svg" xmlns:xlink="http://www.w3.org/1999/xlink" x="0px" y="0px" width="100px"
	 height="100px" viewBox="0 0 100 100" enable-background="new 0 0 100 100" xml:space="preserve">
<g id="Calque_2">
</g>
<g id="Calque_1">
	<path d="M83.45,30.2c-0.034-0.242-0.144-0.454-0.319-0.608c-0.563-1.075-1.206-2.102-1.932-3.063
		c-0.109-4.831-2.534-21.024-7.745-26.235c-0.268-0.269-0.665-0.363-1.023-0.242l-2.74,0.914c-0.329,0.11-0.577,0.382-0.657,0.719
		c-0.08,0.337,0.021,0.691,0.266,0.937c4.276,4.276,6.684,17.863,7.099,23.653c-7.717,1.43-20.241,6.573-23.598,15.18h-5.6
		c-3.357-8.606-15.881-13.75-23.599-15.18c0.416-5.79,2.823-19.377,7.099-23.653c0.245-0.245,0.346-0.6,0.266-0.937
		c-0.08-0.337-0.328-0.609-0.657-0.719l-2.74-0.914c-0.359-0.121-0.756-0.026-1.023,0.242c-5.211,5.211-7.636,21.405-7.745,26.235
		c-0.73,0.966-1.376,2-1.942,3.081c-0.149,0.14-0.24,0.327-0.281,0.535c-3.073,6.261-3.416,13.999-0.585,19.809
		c2.426,4.981,6.82,7.725,12.374,7.725c7.443,0,15.59-4.588,19.254-10.751h4.758c3.664,6.163,11.811,10.751,19.254,10.751
		c5.553,0,9.947-2.744,12.374-7.725C86.828,44.161,86.498,36.452,83.45,30.2z M71.722,2.397l0.728-0.243
		c4.086,4.803,6.442,18.464,6.725,23.749c-0.253,0.018-0.517,0.042-0.792,0.073C77.946,20.184,75.748,7.897,71.722,2.397z
		 M52.201,43.455c-0.1,0.481-0.167,0.973-0.208,1.473h-3.987c-0.041-0.5-0.107-0.992-0.208-1.473H52.201z M27.55,2.155l0.728,0.243
		c-4.026,5.5-6.224,17.787-6.661,23.579c-0.275-0.031-0.539-0.055-0.792-0.073C21.108,20.619,23.464,6.958,27.55,2.155z
		 M17.791,49.079c-2.478-5.087-2.19-12.07,0.437-17.719c6.871,0.427,25.163,6.857,25.231,17.746
		c-4.158,4.292-10.363,6.574-15.093,6.574C22.283,55.68,19.258,52.09,17.791,49.079z M45.25,46.941
		c-2.018-10.697-18.233-16.667-25.999-17.5c0.323-0.54,0.661-1.068,1.032-1.569c6.752,0.311,25.487,6.775,25.771,17.803
		C45.806,46.111,45.535,46.532,45.25,46.941z M79.717,27.872c0.371,0.501,0.709,1.03,1.033,1.571
		c-7.777,0.84-23.985,6.817-25.985,17.52c-0.291-0.416-0.567-0.843-0.819-1.288C54.23,34.647,72.965,28.182,79.717,27.872z
		 M82.208,49.079c-1.467,3.012-4.492,6.601-10.576,6.601c-4.724,0-10.917-2.276-15.075-6.557
		c0.048-10.89,18.327-17.326,25.214-17.762C84.398,37.01,84.686,43.992,82.208,49.079z M50,60.111
		c-10.238,0-29.599,1.407-29.599,6.73v7.506c0,6.648,17.479,21.229,22.475,22.819C43.625,99.03,46.829,100,50,100
		s6.375-0.969,7.124-2.833c4.997-1.59,22.475-16.171,22.475-22.819v-7.506C79.598,61.518,60.237,60.111,50,60.111z M50,62.111
		c17.857,0,27.599,3.125,27.599,4.73S67.856,71.572,50,71.572s-27.599-3.125-27.599-4.731S32.143,62.111,50,62.111z M22.627,75.579
		c5.272,1.62,18.451,11.72,19.938,19.377C38.089,92.799,24.531,81.398,22.627,75.579z M50,98c-3.435,0-5.287-1.194-5.287-1.682
		c0-9.373-16.094-21.514-22.312-22.85v-3.945c5.203,3.135,19.355,4.049,27.599,4.049s22.396-0.914,27.599-4.049v3.945
		c-6.218,1.335-22.312,13.477-22.312,22.85C55.287,96.806,53.434,98,50,98z M57.434,94.956c1.487-7.658,14.666-17.758,19.938-19.377
		C75.468,81.398,61.91,92.799,57.434,94.956z"/>
</g>
</svg>
