<svg id="Calque_1" data-name="Calque 1" xmlns="http://www.w3.org/2000/svg" viewBox="0 0 300 300"><defs><style>.cls-1{fill:#1d1d1b;}</style></defs><title>picto_alpes_sud</title><path class="cls-1" d="M150,6A144,144,0,0,1,251.82,251.82,144,144,0,1,1,48.18,48.18,143,143,0,0,1,150,6m0-6A150,150,0,1,0,300,150,150,150,0,0,0,150,0Z"/><path d="M152.56,245.64a4.28,4.28,0,0,1-3.27-1.88,12.31,12.31,0,0,1-1.77-4.4,12.89,12.89,0,0,1,.28-4.19c0-.24.07-.45.1-.62a23.36,23.36,0,0,1,.78-3.06c.2-.69.51-1.72.56-2.08s0-.53,0-.75c0-.41,0-.79,0-1.38a10.06,10.06,0,0,1,.14-1.55,6.84,6.84,0,0,0,.09-.85c0-.47,0-1,0-1.44s0-.86,0-1.29,0-.71-.06-1.05a13.5,13.5,0,0,1-.07-1.5,6.48,6.48,0,0,0-.11-.94,11.27,11.27,0,0,1-.16-1.67,11,11,0,0,0-.14-1.15,11.8,11.8,0,0,1-.21-1.8l-.17-.4a6.14,6.14,0,0,1-.54-2.09,8.74,8.74,0,0,0-.29-1.1,10,10,0,0,1-.46-2c-.05-.16-.22-.5-.33-.73a6.85,6.85,0,0,1-.79-2.23,15.42,15.42,0,0,0-1-3,10.26,10.26,0,0,1-.68-2,7.8,7.8,0,0,0-.29-1,17.1,17.1,0,0,1-1.31-3.82l-.06-.36a20.67,20.67,0,0,1-.37-4.32,17.14,17.14,0,0,0-.28-1.82c-.06-.36-.12-.7-.17-1a28.09,28.09,0,0,1-.1-3.36c0-.82,0-1.71,0-2.5s-.17-3.34-.28-4a27.5,27.5,0,0,1-.09-3.24c0-.87,0-2.2,0-2.53a8.15,8.15,0,0,1-.09-1.62,3.83,3.83,0,0,0,0-.64,10.09,10.09,0,0,1-.13-1.94,6.36,6.36,0,0,0,0-.95c-.09-.49-.16-1-.23-1.53s-.12-.9-.19-1.2l0-.18c-.21-.88-.7-2.93-.9-3.57a4.18,4.18,0,0,0-.86-1.32,6.11,6.11,0,0,0-2.17-.26,4.32,4.32,0,0,1-1.56-.1,7.42,7.42,0,0,1-.15,2.42c-.19.67-.4,1.48-.58,2.37s-.32,1.65-.46,2.54a5.32,5.32,0,0,1-.72,1.86,1.73,1.73,0,0,0-.15.27c0,.3-.09,1-.13,1.67s-.09,1.45-.14,1.92c0,0,0,.25,0,.54a56.7,56.7,0,0,1-.46,6.22c-.34,2.28-.7,4.32-.94,5.67-.11.61-.19,1-.21,1.22a6.68,6.68,0,0,1-.77,2.23,7.84,7.84,0,0,0-.32.73,11.17,11.17,0,0,1-.36,1.76,7.37,7.37,0,0,0-.22,1,5.58,5.58,0,0,1-.81,2.22l-.15.26a12.11,12.11,0,0,1,.08,3l-.08.92c0,.38-.07.73-.12,1.24a9.2,9.2,0,0,1-.27,1.49,6,6,0,0,0-.15.76c0,.29,0,.66,0,1.06a14,14,0,0,1,0,1.69,12.39,12.39,0,0,1-.32,1.63,7.18,7.18,0,0,0-.2.93l-.14,1.28c-.06.63-.13,1.27-.19,1.77a6.71,6.71,0,0,0,0,.93,10.53,10.53,0,0,1-.09,1.61c0,.19,0,.75,0,1.12a9.83,9.83,0,0,1,0,2.17c0,.15.11.69.17,1a9.85,9.85,0,0,1,.22,1.54c0,.44,0,.92.07,1.4s.06,1,.07,1.46a6.1,6.1,0,0,0,.19,1.31,5.84,5.84,0,0,1,.2,1.24,11.35,11.35,0,0,1-.33,3.22,4.73,4.73,0,0,1-1.86,2.77c-.06.24-.13.52-.19.79a13.45,13.45,0,0,1-.59,2.05,4.87,4.87,0,0,0-.18.65,6.18,6.18,0,0,1-.7,1.93,1.83,1.83,0,0,0-.17.8c-.27,3-2.36,3.33-3.24,3.33l-2.14-.06c-.92,0-2.47-.09-2.83-.08l-1.09.1c-3.29.3-5.89.54-7.72-.56-2.86-1.71-1.5-5.15-1-6.28.06-.16.12-.29.16-.41.75-2.34,1.34-3.94,3-5.54a6.49,6.49,0,0,1,.12-1.35c.08-.35.13-.7.18-1.06s.14-1,.27-1.61a10,10,0,0,0,.12-1.21,15.12,15.12,0,0,1,.24-2.05,10.7,10.7,0,0,1,.55-1.63,6,6,0,0,0,.33-.94c.19-.86.35-1.66.52-2.54.09-.43.17-.79.26-1.15s.18-.71.25-1.15.12-.94.16-1.42.07-.81.12-1.21.13-.85.21-1.34.21-1.31.24-1.74a6.4,6.4,0,0,0,0-.95,13.22,13.22,0,0,1,0-1.48c0-.35,0-.78,0-1.22s-.06-1,0-1.44a11.51,11.51,0,0,0-.06-1.18c0-.46-.07-.92-.07-1.39s0-1.16-.06-1.77c0-.38,0-.75,0-1.09a7.36,7.36,0,0,0-.2-.9,9.68,9.68,0,0,1-.34-1.92,5.47,5.47,0,0,0-.18-.79,9,9,0,0,1-.36-1.87,5.06,5.06,0,0,0-.17-.8,9.4,9.4,0,0,1-.32-1.77c0-.58,0-2.3.06-5.05,0-1.39.07-2.63.06-3a20.87,20.87,0,0,1,.76-5.21c.1-.38.22-.9.25-1.1,0-.37,0-.85-.08-1.33-.06-.71-.11-1.45-.11-2,0-.36,0-.84-.08-1.33,0-.7-.11-1.43-.1-2,0-.35,0-.74,0-1.13,0-.62,0-1.24,0-1.8a6.12,6.12,0,0,0-.07-.86,9.32,9.32,0,0,1-.09-1.95,4.54,4.54,0,0,0-.07-.81,8.29,8.29,0,0,1-.07-2.09,6.07,6.07,0,0,0,0-.87,9.18,9.18,0,0,1,.08-1.92v0h0c0-.09-.07-.17-.11-.27l-.15-.37A8.34,8.34,0,0,0,110,152.4a11.27,11.27,0,0,0-1.28-1.34,5.68,5.68,0,0,1-1.33-2.14c-.06-.16-.16-.39-.22-.52a3.46,3.46,0,0,1-.94-1.27,4.88,4.88,0,0,1-1.19-2.28c0-.09,0-.17-.07-.25a5.19,5.19,0,0,1-1.1-2c0-.09,0-.19-.09-.28a6.22,6.22,0,0,1-1.07-2.21,4.27,4.27,0,0,0-.17-.51,12.1,12.1,0,0,1-.88-2.49l0-.1a11.2,11.2,0,0,1-.28-2.39c0-.27,0-.53,0-.79a9.93,9.93,0,0,1,0-1.85c0-.21,0-.43,0-.7a8.37,8.37,0,0,1,.25-1.72c0-.21.09-.42.13-.71a13,13,0,0,1,.34-1.7c.07-.27.14-.55.2-.86a16.36,16.36,0,0,1,.41-1.67c.1-.33.2-.66.27-1s.16-.85.23-1.3.18-1.12.29-1.61c0,0,0-.27-.06-.44a5.92,5.92,0,0,1,0-2,.64.64,0,0,1,0-.07,4.82,4.82,0,0,1-.16-1.93,6.94,6.94,0,0,0,0-.94,8.43,8.43,0,0,1-.05-2,10.1,10.1,0,0,0-.06-1.11A10.35,10.35,0,0,1,103,110a6.59,6.59,0,0,0,0-1,11.53,11.53,0,0,1,0-1.77,1.32,1.32,0,0,0,0-.37,5.79,5.79,0,0,1-.11-1.75c0-.28,0-.73,0-1.16a12.91,12.91,0,0,1,0-1.76,4.27,4.27,0,0,0,0-.74,9,9,0,0,1-.07-1.64,4.75,4.75,0,0,0-.1-1.22l-.09-.58c-.09-.67-.3-1.52-.43-2.08l0-.13c-.19-.52-1.16-2.42-1.75-3.56-1-2-1.41-2.8-1.58-3.29A24.57,24.57,0,0,1,97.49,77.7a2.54,2.54,0,0,1,0-.39l0-.46c-5.14,0-15.49-.94-24-6.65a2.49,2.49,0,0,1-1-2.67c.4-1.63,2.71-4.4,11.45-8.41,5.51-2.53,14-1.33,19,0l.11-.07a2.72,2.72,0,0,1,.57-.49,2.36,2.36,0,0,1,1-.36,25.67,25.67,0,0,1,6-2.1,2.7,2.7,0,0,1,.41,0,26.54,26.54,0,0,1,21.61,2.3c5-1.32,13.46-2.52,19,0,8.74,4,11,6.79,11.45,8.41a2.52,2.52,0,0,1-1,2.68c-8.44,5.69-18.75,6.59-23.91,6.64a28.65,28.65,0,0,1-2.61,13.72c-.08.33-.22,1-.34,1.55h.07a2.56,2.56,0,0,0,.39,0,27,27,0,0,1,2.92.19l.47,0a6.71,6.71,0,0,1,2.08.59c1.21.44,4.92,1.79,6.07,1.74a2.58,2.58,0,0,1,.68.08,21.09,21.09,0,0,0,3.17.48,4.86,4.86,0,0,0,.57-.09,7.17,7.17,0,0,1,2.3-.14l.54-.16A6.6,6.6,0,0,1,157,93.7l.14-.08a4.34,4.34,0,0,1,2.59-.73l.42-.17a5.07,5.07,0,0,1,2.54-.53l.35-.1a5.26,5.26,0,0,1,2-.3,6.54,6.54,0,0,0,.88-.17,8.39,8.39,0,0,1,1.92-.27c.17,0,.57-.1.85-.16a8.38,8.38,0,0,1,1.76-.3,5,5,0,0,0,.81-.13,10.23,10.23,0,0,1,1.51-.22l3.08-.18L177,90.3c.49,0,1.38,0,2.67,0h1.87l1.54-.1c1-.08,2.12-.18,2.75-.16h.46c.76,0,1.8,0,3.9-.09a14.1,14.1,0,0,1,2.05.12c.43,0,.88.09,1.19.09h.81a18.34,18.34,0,0,0,1.87,0,7,7,0,0,1,3.6.7,3.25,3.25,0,0,0,.5.2c.65.16,1.09.3,1.58.46l.65.21c.93.28,1.92.65,2.76,1a9.43,9.43,0,0,1,1.94,1.09c.27.18.58.38.74.46l.71.32a16,16,0,0,1,1.68.82,7.25,7.25,0,0,1,1.54,1.26,3.09,3.09,0,0,0,.44.41l.62.43a18,18,0,0,1,1.67,1.24,20.77,20.77,0,0,1,1.62,1.63c.21.23.42.46.61.65a17.69,17.69,0,0,1,1.28,1.54c.21.27.41.53.61.76a4,4,0,0,0,.39.27,6.17,6.17,0,0,1,1.58,1.32,7.38,7.38,0,0,0,.63.64,10.94,10.94,0,0,1,1.3,1.43c.16.22.36.43.56.66a10.72,10.72,0,0,1,1.25,1.62,23.4,23.4,0,0,1,1.15,2.22l.16.35a18.19,18.19,0,0,1,.82,2.12l.23.65a22.82,22.82,0,0,1,.65,2.34c.07.26.13.51.19.74a8.52,8.52,0,0,1,.23,1.9,7.16,7.16,0,0,0,.08.89,8.59,8.59,0,0,1,.05,1.94,5.14,5.14,0,0,0,0,.87,10.73,10.73,0,0,1-.05,2,6.37,6.37,0,0,0-.06,1,17.55,17.55,0,0,1-.06,1.79c0,.36,0,.72,0,1.07a10.48,10.48,0,0,1-.29,2.22c0,.25-.1.5-.14.76a27.52,27.52,0,0,1-.63,2.78c-.21.82-.45,1.71-.76,2.64s-.58,1.73-.89,2.58a8.46,8.46,0,0,1-.78,1.52,4.34,4.34,0,0,0-.35.66,8.06,8.06,0,0,0-.31,1.05,12.93,12.93,0,0,1-.5,1.66l-.95,2.41c-.1.28-.18.67-.28,1.08a9.79,9.79,0,0,1-1,2.86,5,5,0,0,0-.34.78c-.23.81-.44,1.58-.57,2.31a8.06,8.06,0,0,1-.66,1.89c-.09.2-.23.51-.28.66a10.68,10.68,0,0,1-1,3.76l-.32.62c-.07.12-.14.27-.2.39s.13.28.23.48a10,10,0,0,1,.52,1.15,2.86,2.86,0,0,0,.25.37,6.53,6.53,0,0,1,.85,1.34l.09.2c.27.58.41.89.74,1.52.2.37.36.64.53.92s.34.56.54.92.48.9.74,1.4.43.84.61,1.17c.43.77,1,1.71,1.34,2.48l.34.3a5.82,5.82,0,0,1,1.46,1.88c.11.27.31.63.51,1a15.85,15.85,0,0,1,1.07,2.37,5.54,5.54,0,0,1-.31,3.36c-.07.23-.17.56-.2.73a6.51,6.51,0,0,1-.75,3c-.11.23-.26.58-.32.76a21.57,21.57,0,0,1-.52,3.37,3.58,3.58,0,0,0,0,.62,6.48,6.48,0,0,1-.38,2.4c-.24.59-.6,1.44-.92,2.17l-.32.75c-.16.37-.3.74-.45,1.1s-.32.83-.5,1.25a4.33,4.33,0,0,0-.22.84,10.39,10.39,0,0,1-.45,1.6,10.3,10.3,0,0,0-.36,1.27c-.12.5-.25,1-.41,1.49A7.42,7.42,0,0,0,221,205a12.15,12.15,0,0,1-.2,1.44c0,.1.07.26.1.38a6.33,6.33,0,0,1,.31,2,10.48,10.48,0,0,0,.25,1.25,13,13,0,0,1,.33,1.86c0,.39,0,.78.06,1.17s0,.9.07,1.3l0,.25c.12.89.28,2.1.33,3a2.33,2.33,0,0,0,.47,1.22,4.54,4.54,0,0,1,.81,2.11,5.45,5.45,0,0,1-.24,2,2.37,2.37,0,0,0-.11,1.27l0,.2c.61,3,1,6.3-1,8.13-1.52,1.44-4,1.9-8.26,1.53a7.07,7.07,0,0,0-1.43.13,8.27,8.27,0,0,1-2.5.08,10.75,10.75,0,0,1-5.89,3.95,36.57,36.57,0,0,1-8.56.62l-.76-.15c-1.41-.28-2.75-.55-3.4-2.67-.28-.9-.33-2.18,1.19-5.39a8.87,8.87,0,0,0,.38-1.14c.1-.34.2-.68.32-1a5.43,5.43,0,0,1,1.59-2.19,1.85,1.85,0,0,0,.14-.14,2.81,2.81,0,0,0,.15-.5c0-.16.09-.36.16-.6s.1-.59.15-.94a10.8,10.8,0,0,1,.49-2.29c.22-.59.48-1.13.73-1.66.14-.29.28-.58.41-.89s.27-.65.4-1c.23-.57.45-1.14.7-1.66s.44-.91.67-1.37.36-.7.53-1.06a5.91,5.91,0,0,0,.31-.8,13,13,0,0,1,.53-1.33c.19-.4.43-1,.67-1.62s.46-1.13.64-1.52.28-.73.42-1.16.27-.82.43-1.21a3.34,3.34,0,0,0,0-.44,6.06,6.06,0,0,1,.26-2.23,6.25,6.25,0,0,0,.19-.93,9.55,9.55,0,0,1,.25-1.33c0-.17-.08-.47-.12-.68a6.25,6.25,0,0,1-.11-2.46s0-.19-.06-.31a6.27,6.27,0,0,1-.11-1.75,2.87,2.87,0,0,0-.07-.66,8.34,8.34,0,0,1-.17-1.36,9.84,9.84,0,0,0-.18-1.77,11.41,11.41,0,0,0-.4-1.4c-.08-.25-.17-.51-.25-.78a5.93,5.93,0,0,0-.46-.9,12.66,12.66,0,0,1-.65-1.28,3.78,3.78,0,0,0-.41-.71c-.19-.3-.4-.61-.62-1-.47-.9-.87-1.6-1.23-2.18-.2-.31-.44-.73-.69-1.17s-.67-1.19-.91-1.52-1.25-1.15-1.87-1.7a19.4,19.4,0,0,1-1.8-1.66c-.28-.31-.64-.65-1-1s-.72-.71-1-1-.85-.89-1.35-1.4l-1.06-1.11a7.61,7.61,0,0,1-1.14-1.69,4.69,4.69,0,0,0-.36-.61c-.35-.36-.86-.94-1.35-1.49l-1-1.14c-.46-.5-.92-1-1.36-1.51l-.44-.49a8.74,8.74,0,0,1-1.22-1.95c-.14-.27-.35-.67-.44-.79a10.65,10.65,0,0,0-.89-.88,14.23,14.23,0,0,1-1.53-1.61,6.83,6.83,0,0,0-.51-.58,7.19,7.19,0,0,1-1.49-2.1c-.14-.34-.26-.65-.36-.94s-.21-.57-.26-.66a8.56,8.56,0,0,1-.74-1,.61.61,0,0,1-.07-.1c-.33-.11-.63-.23-.9-.34s-.46-.19-.62-.24a4.38,4.38,0,0,1-1.61,0h0a12.37,12.37,0,0,1-2.43.48l-.34.05a15.48,15.48,0,0,1-3.06.06c-.26,0-.54,0-.81,0a8.55,8.55,0,0,1-2.14-.16,7.35,7.35,0,0,0-.85-.13c-.35-.05-.74-.09-1.17-.19v.05c-.05.74-.08,1.59-.09,2.52s0,1.63.05,2.52v.35c0,.75,0,1.53.08,2.35l0,.77c0,.61.06,1.23.1,1.88,0,.45.08.92.13,1.39s.08.83.11,1.26a15.8,15.8,0,0,1-.17,3.28l0,.34a5.36,5.36,0,0,0-.06,1.31l.06.52a12.91,12.91,0,0,1,.07,3.46,13.94,13.94,0,0,1-.35,1.44,2.88,2.88,0,0,0-.13.5,5.61,5.61,0,0,1-.33,2.33c0,.14-.1.33-.12.43l.06.92a7.38,7.38,0,0,0,.14,1.3,13.38,13.38,0,0,1,.35,2.35c0,.23,0,.47.06.7,0,.47.1,1.31.15,2.16s.1,1.52.14,1.94.16,1,.27,1.67.26,1.49.32,2,.07,1.12.08,1.61a10.56,10.56,0,0,0,.05,1.13l.16,1.85c.05.6.09,1.2.13,1.6a8.33,8.33,0,0,1-.13,2.15,5.75,5.75,0,0,0-.11.86c0,.35.1.71.16,1.07s.17,1,.22,1.47a6,6,0,0,0,.15.84,9.52,9.52,0,0,1,.26,1.48,4.2,4.2,0,0,0,.19.66,8.14,8.14,0,0,1,.41,1.77,3.51,3.51,0,0,0,.19.46,6.45,6.45,0,0,1,.57,2,4.93,4.93,0,0,0,.11.67,8.34,8.34,0,0,1,.22,1.36c0,.36.07.9.11,1.47.07.85.15,1.76.18,2.27,0,.29.09.66.16,1.06a13.63,13.63,0,0,1,.23,1.68,3.72,3.72,0,0,0,.48,1.36,16.74,16.74,0,0,1,1.41,3.52,18.35,18.35,0,0,1,.63,4c0,.36,0,.77.06,1.19a14.51,14.51,0,0,1,.07,1.85c-.1,1.89-2.16,4.81-3,5.53-4.28,3.66-5.4,4.1-7.74,4.81l-.46.14a3.16,3.16,0,0,1-2.63-.29,3.43,3.43,0,0,1-1.21.51A3.23,3.23,0,0,1,152.56,245.64Zm2.92-10.82a2,2,0,0,1,.48.05,2.54,2.54,0,0,1,1.93,3.11c-.11.77-.17,1.38-.21,1.87A23.07,23.07,0,0,0,162,236.6a9.44,9.44,0,0,0,1.27-2.1c0-.29,0-.72-.06-1.1a15,15,0,0,1-.08-1.63,14.1,14.1,0,0,0-.46-2.59,11.41,11.41,0,0,0-.88-2.28,8.62,8.62,0,0,1-1.17-3.65c0-.27-.09-.64-.16-1a12.87,12.87,0,0,1-.23-1.65c0-.48-.1-1.36-.17-2.18,0-.58-.09-1.14-.12-1.5a5,5,0,0,0-.1-.64,8.34,8.34,0,0,1-.22-1.36l-.18-.42a6.18,6.18,0,0,1-.58-2,5.71,5.71,0,0,0-.18-.64,7,7,0,0,1-.41-1.76,8,8,0,0,0-.16-.83,12,12,0,0,1-.26-1.48c0-.37-.1-.74-.16-1.1s-.16-.95-.21-1.43a7.77,7.77,0,0,1,.14-2.13,7.12,7.12,0,0,0,.1-.86c0-.42-.09-1.06-.15-1.71s-.1-1.29-.15-1.72-.06-1.08-.07-1.59,0-.77,0-1.15-.16-1.05-.27-1.69-.27-1.51-.32-2-.1-1.32-.16-2.17-.09-1.51-.13-1.92-.06-.57-.08-.86a8.12,8.12,0,0,0-.19-1.46,10.77,10.77,0,0,1-.3-2.31c0-.25,0-.5-.06-.75a5.58,5.58,0,0,1,.34-2.36c0-.14.1-.33.12-.42a5.79,5.79,0,0,1,.31-2.34,6.94,6.94,0,0,0,.23-.9,12.35,12.35,0,0,0-.12-2l-.06-.61a9.73,9.73,0,0,1,.08-2.44l0-.3a13.46,13.46,0,0,0,.15-2.27c0-.39-.07-.78-.11-1.17s-.1-1-.14-1.54c0-.67-.07-1.33-.1-2l0-.75c-.05-.86-.07-1.68-.09-2.47v-.27c0-1-.05-1.93-.05-2.77,0-1.06,0-2,.1-2.85a7,7,0,0,0,0-1.72c-.36-2.08.51-3.08,1.29-3.54a3,3,0,0,1,3.5.39,5.49,5.49,0,0,1,1.24.28,3.79,3.79,0,0,0,.71.12,12.31,12.31,0,0,1,1.38.23,5.56,5.56,0,0,0,1,0c.41,0,.83,0,1.23,0a9.69,9.69,0,0,0,2,0l.36,0a7.94,7.94,0,0,0,1.58-.3,4.65,4.65,0,0,1,2.14-.18H173a5.62,5.62,0,0,1,3.44.53,3.43,3.43,0,0,0,.52.2,4.2,4.2,0,0,1,2.74,2.16,4.17,4.17,0,0,0,.37.52,6.46,6.46,0,0,1,1.14,2.18l.27.71a6.87,6.87,0,0,0,.55.63,11.32,11.32,0,0,1,.85,1,12,12,0,0,0,.95,1,14.62,14.62,0,0,1,1.3,1.32,9,9,0,0,1,1,1.72,8.06,8.06,0,0,0,.49.89l.45.49,1.29,1.43c.28.3.68.75,1.1,1.22s.93,1.05,1.25,1.39a7.24,7.24,0,0,1,1.13,1.67,4.91,4.91,0,0,0,.38.63c.25.27.62.65,1,1.05s1.08,1.12,1.43,1.49.55.56.85.85.86.85,1.21,1.25c.17.18.88.8,1.36,1.21a19.52,19.52,0,0,1,2.66,2.57c.38.54.79,1.26,1.18,1.95.21.37.41.72.58,1,.43.69.88,1.48,1.41,2.48a6.26,6.26,0,0,0,.38.62,8.63,8.63,0,0,1,.83,1.51,7.88,7.88,0,0,0,.4.76,9.69,9.69,0,0,1,.89,1.91c.07.23.14.45.22.67a15,15,0,0,1,.57,2.1,14.22,14.22,0,0,1,.26,2.48,4.44,4.44,0,0,0,.09.64,6.9,6.9,0,0,1,.13,2,1.84,1.84,0,0,0,.05.38,5.45,5.45,0,0,1,.06,2.08c0,.14.07.45.11.66a6.08,6.08,0,0,1,.05,2.83,6.14,6.14,0,0,0-.16.83,9.36,9.36,0,0,1-.39,1.82c0,.1,0,.3,0,.45a5.53,5.53,0,0,1-.33,2.41c-.13.32-.24.66-.35,1-.17.5-.35,1.07-.6,1.63-.16.34-.35.83-.56,1.34-.28.69-.57,1.41-.79,1.88-.14.31-.23.57-.32.82a10.44,10.44,0,0,1-.53,1.34l-.58,1.17c-.21.41-.42.82-.61,1.22s-.38.9-.56,1.36l-.47,1.18-.48,1c-.2.43-.4.85-.56,1.28a6.64,6.64,0,0,0-.22,1.21,12.05,12.05,0,0,1-.3,1.59l-.12.49a8,8,0,0,1-.55,1.6,4.52,4.52,0,0,1-1.16,1.45c-.1.1-.25.24-.34.34s-.14.44-.2.66a11.85,11.85,0,0,1-.66,1.86c-.22.47-.38.85-.51,1.16a48.6,48.6,0,0,0,6-.46c3.4-1.12,3.79-2.07,5.53-7.63a2.59,2.59,0,0,1,3.16-1.73c.82.26,2.44.76,1.53,5a8.09,8.09,0,0,1,1.56,0c2.8.24,3.88,0,4.26-.13a10.74,10.74,0,0,0-.35-3.56l0-.25a7.11,7.11,0,0,1,.2-3.53.29.29,0,0,1,0-.09l0,0a7.22,7.22,0,0,1-1.21-3.53c0-.72-.19-1.85-.3-2.67l0-.25a17.32,17.32,0,0,1-.11-1.81c0-.31,0-.62,0-.93s-.14-.73-.22-1.1a10,10,0,0,1-.38-2.6,4.61,4.61,0,0,0-.12-.46,5.18,5.18,0,0,1-.18-2.77,8.66,8.66,0,0,0,.11-.88,9.66,9.66,0,0,1,.41-2.23c.1-.29.18-.65.27-1a16.16,16.16,0,0,1,.57-1.95,4.82,4.82,0,0,0,.21-.79,8.44,8.44,0,0,1,.51-1.75c.16-.38.31-.76.46-1.13s.31-.8.49-1.22l.33-.77c.3-.69.64-1.48.86-2,0-.08,0-.4,0-.61a7.78,7.78,0,0,1,.13-1.58,18.45,18.45,0,0,0,.43-2.64,6.9,6.9,0,0,1,.72-2.47c.1-.24.26-.61.33-.82a6.93,6.93,0,0,1,.44-2.39l.2-.68c-.17-.37-.45-.92-.64-1.29s-.45-.88-.6-1.21l-.34-.32a6.27,6.27,0,0,1-1.37-1.68c-.37-.72-.86-1.61-1.26-2.34-.21-.38-.45-.84-.69-1.3s-.46-.9-.66-1.26-.31-.53-.45-.76-.43-.72-.67-1.19c-.39-.73-.55-1.07-.86-1.74l-.09-.2a2.1,2.1,0,0,0-.27-.4,6,6,0,0,1-1-1.65c-.09-.24-.2-.44-.3-.65a8.92,8.92,0,0,1-.7-1.72,4.92,4.92,0,0,1,.7-3.73c.08-.15.17-.32.25-.5a5.78,5.78,0,0,0,.55-1.73,6.46,6.46,0,0,1,.71-2.55,5.66,5.66,0,0,0,.3-.72c.17-.94.43-1.88.68-2.77a8.79,8.79,0,0,1,.67-1.65,8.22,8.22,0,0,0,.35-.77c.08-.24.15-.58.23-.94a13.1,13.1,0,0,1,.49-1.79c.31-.81.64-1.64,1-2.47a10.78,10.78,0,0,0,.31-1.05,15.27,15.27,0,0,1,.49-1.66A9.74,9.74,0,0,1,220,139a4.83,4.83,0,0,0,.35-.65c.3-.8.57-1.62.83-2.4s.48-1.6.67-2.34a22.25,22.25,0,0,0,.53-2.3c0-.33.12-.66.18-1a6.79,6.79,0,0,0,.19-1.22c0-.46,0-.94.06-1.42a8.77,8.77,0,0,0,0-1.2,11.68,11.68,0,0,1,.08-1.71,7.79,7.79,0,0,0,0-1,10.42,10.42,0,0,1,0-1.68,4.25,4.25,0,0,0,0-.79h0a11.14,11.14,0,0,1-.14-1.52,5.77,5.77,0,0,0-.08-.88c-.07-.25-.13-.52-.2-.8-.16-.65-.34-1.39-.5-1.84-.09-.23-.17-.48-.25-.72-.21-.6-.41-1.16-.61-1.59l-.17-.37c-.31-.65-.6-1.26-.91-1.77a7.2,7.2,0,0,0-.71-.88c-.27-.31-.58-.66-.87-1a6.81,6.81,0,0,0-.72-.77,13.37,13.37,0,0,1-1-1.07,2.45,2.45,0,0,0-.39-.27,6.34,6.34,0,0,1-1.51-1.24c-.25-.29-.51-.62-.77-1s-.63-.82-.89-1.09-.46-.48-.72-.76c-.41-.44-.87-.94-1.2-1.23a13.59,13.59,0,0,0-1.23-.9l-.71-.49a7.57,7.57,0,0,1-1.1-1,2.51,2.51,0,0,0-.49-.43,11.65,11.65,0,0,0-1.17-.57l-.83-.37a11.28,11.28,0,0,1-1.4-.84,7.34,7.34,0,0,0-.92-.57c-.77-.29-1.66-.62-2.44-.86l-.75-.23a11.13,11.13,0,0,0-1.23-.36,8.91,8.91,0,0,1-1.23-.44,4.52,4.52,0,0,0-1.11-.36,20.64,20.64,0,0,1-2.5.07c-.26,0-.52,0-.73,0h0a16.19,16.19,0,0,1-1.72-.12,9.26,9.26,0,0,0-1.27-.09c-2.26.11-3.43.1-4.21.09h-.43c-.43,0-1.53.08-2.34.14s-1.42.11-1.78.12h-2c-.9,0-2,0-2.38,0l-1.16.07-3.06.17a4.45,4.45,0,0,0-.79.13,10.57,10.57,0,0,1-1.65.23,4.92,4.92,0,0,0-.75.15,7.73,7.73,0,0,1-2.13.31c-.11,0-.48.09-.72.15a8.13,8.13,0,0,1-2.28.29l-.28.08a5.74,5.74,0,0,1-2.08.32l-.33.14a5.53,5.53,0,0,1-2.39.58l-.11.06a4.36,4.36,0,0,1-2.95.73,6.49,6.49,0,0,0-.67.19,5.58,5.58,0,0,1-2.67.33,5.93,5.93,0,0,0-.73.11,6.87,6.87,0,0,1-1.89.16,26.67,26.67,0,0,1-3.67-.55c-1.95-.07-4.79-1-7.55-2l-.89-.32-.41,0c-.47,0-1.91-.18-2.27-.17a8.83,8.83,0,0,1-1.11-.06l-.37,0a3.29,3.29,0,0,0-.32.09,3.1,3.1,0,0,1-3-.38c-1.53-1.25-1.16-3.38-.95-4.65a15.62,15.62,0,0,1,1-3.81c.43-.75,3.28-7.9,1.64-13.32a2.5,2.5,0,0,1,2.6-3.22c.13,0,11.69.88,21.34-4.18a42.54,42.54,0,0,0-7.11-3.94c-3.81-1.75-11.4-1-16.62.56a2.19,2.19,0,0,1-.63.11,2.5,2.5,0,0,1-1.86-.71A21.05,21.05,0,0,0,112,61a2.57,2.57,0,0,1-1,.13,20.58,20.58,0,0,0-4.71,1.8l-.06,0-.09.05c-.5.28-.84.5-1,.61a2.46,2.46,0,0,1-1.83.7,2.85,2.85,0,0,1-.65-.11c-5.22-1.58-12.8-2.31-16.61-.56A42.54,42.54,0,0,0,79,67.6c9.68,5.08,21.22,4.19,21.34,4.18A2.5,2.5,0,0,1,102.9,75a10.92,10.92,0,0,0-.38,2.13,2.39,2.39,0,0,1,0,.8,19.2,19.2,0,0,0,.88,9.49c.11.28.79,1.62,1.29,2.6a28.11,28.11,0,0,1,2.14,4.61l0,.19c.15.65.38,1.63.51,2.53l.08.51a9.18,9.18,0,0,1,.15,2.34,4,4,0,0,0,0,.72,8.31,8.31,0,0,1,.06,1.72,11,11,0,0,0,0,1.11,14.57,14.57,0,0,1,0,1.87,1.32,1.32,0,0,0,0,.37,5.77,5.77,0,0,1,.11,1.8,6.33,6.33,0,0,0,0,1,11.28,11.28,0,0,1,0,1.84,9.62,9.62,0,0,0,.06,1.08,10.32,10.32,0,0,1,0,2.15,6.86,6.86,0,0,0,.06.92,9.49,9.49,0,0,1,0,2l0,.09a4.69,4.69,0,0,1,.1,2.24s0,.24.06.4a5.76,5.76,0,0,1,0,2.28c-.09.4-.16.86-.23,1.32s-.18,1.08-.28,1.57-.22.88-.35,1.31-.23.83-.3,1.2-.18.82-.27,1.19a9.68,9.68,0,0,0-.23,1.09,10.75,10.75,0,0,1-.22,1.19,3.9,3.9,0,0,0-.12.78c0,.39,0,.7-.07,1a5,5,0,0,0,0,.94c0,.34.05.69.06,1.05a7.52,7.52,0,0,0,.13,1.32l0,.1a7.21,7.21,0,0,0,.54,1.59,8.42,8.42,0,0,1,.46,1.23,3.72,3.72,0,0,0,.19.55,5.45,5.45,0,0,1,.94,1.85c0,.09,0,.18.08.26a4.92,4.92,0,0,1,1.14,2.21,2.17,2.17,0,0,0,.07.24,3.59,3.59,0,0,1,.82,1.17A6.25,6.25,0,0,1,112,147c.06.14.14.35.2.47a15.38,15.38,0,0,1,1.63,1.72,12.84,12.84,0,0,1,1.86,3.27l.13.29a5,5,0,0,1,.41,3.06,6.72,6.72,0,0,0,0,.92,10.63,10.63,0,0,1,0,1.66,5.75,5.75,0,0,0,.07.82,8.2,8.2,0,0,1,.1,1.9,5.25,5.25,0,0,0,.06.89,8.78,8.78,0,0,1,.1,1.75c0,.45,0,.95,0,1.45s0,.92,0,1.33,0,1,.09,1.51.09,1.21.09,1.73,0,1.05.09,1.63.09,1.24.1,1.69a9.38,9.38,0,0,1-.39,2.31,16.47,16.47,0,0,0-.62,3.92c0,.4,0,1.48-.06,3.19s-.1,4.2-.07,4.64a5.06,5.06,0,0,0,.17.8,9,9,0,0,1,.33,1.81,4.21,4.21,0,0,0,.18.79,8.76,8.76,0,0,1,.36,1.92,5.79,5.79,0,0,0,.19.89,9.16,9.16,0,0,1,.34,2c0,.32,0,.68,0,1,0,.65,0,1.33.06,1.91,0,.35,0,.7.06,1,0,.5.08,1.05.07,1.64,0,.35,0,.72,0,1.08,0,.55.06,1.12,0,1.72,0,.27,0,.55,0,.88a10.22,10.22,0,0,1,0,1.7c-.05.66-.18,1.44-.3,2.19-.07.42-.14.82-.18,1.15s-.07.68-.1,1c0,.58-.1,1.18-.21,1.8s-.2,1-.32,1.52c-.07.29-.14.58-.21.93-.18.91-.35,1.75-.54,2.64a11.28,11.28,0,0,1-.58,1.73,6.4,6.4,0,0,0-.31.89,10.72,10.72,0,0,0-.13,1.26,12.89,12.89,0,0,1-.23,2c-.09.4-.15.8-.2,1.2s-.14.94-.24,1.4c0,.07,0,.26,0,.41a4.13,4.13,0,0,1-1.26,3.24c-.93.84-1.23,1.51-1.94,3.73-.07.2-.16.45-.27.73a2.16,2.16,0,0,0-.1.25c1,0,2.55-.13,3.77-.24l1.12-.1c.57-.05,1.68,0,3.45.06l.39,0a5.88,5.88,0,0,1,.65-1.63,3,3,0,0,0,.14-.5,8.38,8.38,0,0,1,.43-1.43c.09-.23.23-.85.34-1.3s.27-1.16.44-1.66a4,4,0,0,1,1.52-1.92l.11-.07a6.77,6.77,0,0,0,.19-1.77c0-.08,0-.19-.08-.32a11.66,11.66,0,0,1-.32-2.29c0-.41,0-.87-.06-1.34s-.06-1-.08-1.51a6,6,0,0,0-.12-.73,8,8,0,0,1-.21-2.77,8.67,8.67,0,0,0,0-1.09,11.54,11.54,0,0,1,0-2.12,6.27,6.27,0,0,0,0-.91,11.07,11.07,0,0,1,.08-1.56c.06-.47.12-1.07.18-1.66s.1-1,.15-1.35a11.08,11.08,0,0,1,.3-1.54,8,8,0,0,0,.21-1,9,9,0,0,0,0-1.06,15.59,15.59,0,0,1,0-1.64,10.2,10.2,0,0,1,.26-1.45,4.92,4.92,0,0,0,.16-.78c0-.49.07-.83.11-1.19l.08-.95a7.57,7.57,0,0,0-.1-2.19,4.74,4.74,0,0,1,.79-3.05c.07-.12.15-.24.2-.35a12.73,12.73,0,0,1,.35-1.68,7.63,7.63,0,0,0,.23-1,7,7,0,0,1,.79-2.39c.11-.23.28-.58.32-.71s.1-.65.24-1.45c.23-1.32.59-3.31.91-5.52a49.87,49.87,0,0,0,.41-5.64c0-.52,0-.87,0-1,.05-.39.09-1,.12-1.62,0-.8.1-1.56.17-2.09a5.59,5.59,0,0,1,.77-2.05,2,2,0,0,0,.13-.25c.14-.86.31-1.8.48-2.64.21-1,.45-1.95.66-2.71,0-.15,0-.84,0-1.26a6.38,6.38,0,0,1,.3-3.13c1.2-2.56,4.17-1.92,5.43-1.65l.4.08a9.72,9.72,0,0,1,5.22,1,8.33,8.33,0,0,1,3,4.12c.23.73.63,2.39,1,3.88l0,.18a16.68,16.68,0,0,1,.29,1.72c.05.4.1.8.18,1.18a9.89,9.89,0,0,1,.13,1.93,6.52,6.52,0,0,0,.05,1.06,7.58,7.58,0,0,1,.1,1.63,4.11,4.11,0,0,0,0,.72,22.84,22.84,0,0,1,.1,3.34c0,.86,0,2.16,0,2.49.16,1,.31,3.75.33,4.62s0,1.78,0,2.65,0,2.23.05,2.58.08.5.14.81a14.85,14.85,0,0,1,.36,2.9,15.52,15.52,0,0,0,.29,3.29l.08.41a12.26,12.26,0,0,0,.88,2.47,10.58,10.58,0,0,1,.63,1.9,6.71,6.71,0,0,0,.28.95,19.42,19.42,0,0,1,1.5,4.7l.3.62a6.91,6.91,0,0,1,.83,2.48,10,10,0,0,0,.27,1,9.71,9.71,0,0,1,.5,2.32l.16.4a6,6,0,0,1,.55,2.21,8.11,8.11,0,0,0,.14,1.09,12,12,0,0,1,.21,1.95,6.11,6.11,0,0,0,.11.92,12.31,12.31,0,0,1,.16,1.74c0,.37,0,.71.05,1s.08,1,.08,1.53,0,1,0,1.44,0,.86,0,1.28a11,11,0,0,1-.14,1.53,5.38,5.38,0,0,0-.09.82c0,.52,0,.85,0,1.21s0,.54,0,.9a12.8,12.8,0,0,1-.77,3.53,24.26,24.26,0,0,0-.62,2.35c0,.2-.07.44-.12.71a19.25,19.25,0,0,0-.3,2.49c0,.05,0,.1,0,.15.16-.52.34-1.14.55-1.9A2.59,2.59,0,0,1,155.48,234.82Zm7.85-.4Zm55.29-5.24ZM195,226.4Zm23.59-5.1Zm2.18-14.67Zm-18.28,0Zm.69-4.91Zm4.67-2.23h0Zm-77.55-10.6h0Zm95.41-1.73Zm-3.9-3.72Zm4.95-.33h0Zm-65.91-.71Zm61.61-2.15Zm-66.12-.14ZM221.17,178ZM176,156.35h0Zm-39.45-1.94Zm36.38-3.68Zm-65.81-2.4Zm-2-3.52Zm51.54-46.12Zm-.26,0h0Zm5.64-1.51h0Zm.46,0Zm-23.82-.56.27,0ZM102,95.77v0Zm52.21-1.47h0Z"/></svg>