<?xml version="1.0" encoding="utf-8"?>
<!-- Generator: Adobe Illustrator 16.0.0, SVG Export Plug-In . SVG Version: 6.00 Build 0)  -->
<!DOCTYPE svg PUBLIC "-//W3C//DTD SVG 1.1//EN" "http://www.w3.org/Graphics/SVG/1.1/DTD/svg11.dtd">
<svg version="1.1" xmlns="http://www.w3.org/2000/svg" xmlns:xlink="http://www.w3.org/1999/xlink" x="0px" y="0px" width="100px"
	 height="100px" viewBox="0 0 100 100" enable-background="new 0 0 100 100" xml:space="preserve">
<g id="Calque_2">
</g>
<g id="v2">
	<path d="M72.632,29.68c-0.35-0.046-0.749-0.039-1.147-0.025l-0.025-3.483c-0.002-0.321-0.165-0.592-0.401-0.773
		c2.125-2.089,3.448-4.992,3.448-8.201c0-6.345-5.161-11.507-11.507-11.507c-1.5,0.001-2.981,0.306-4.356,0.868
		c-1.208-3.073-3.771-5.282-6.799-5.743C48.883,0.362,45.72,1.51,43.652,3.68c-1.313-1.984-3.676-3.201-5.762-3.567
		c-2.824-0.499-5.873,0.699-7.602,2.978c-0.52,0.685-0.917,1.475-1.185,2.318c-3.836-0.895-7.872-0.036-10.994,2.419
		c-4.342,3.414-6.031,9.269-4.255,14.448c-0.048,0.049-0.104,0.087-0.143,0.147c-1.339,2.084-1.691,5.284-0.82,7.443
		c0.271,0.669,0.652,1.224,1.123,1.643c-0.52,0.605-0.859,1.322-1.002,2.124c-0.284,1.59,0.246,3.416,1.417,4.884
		c0.608,0.762,0.599,2.741,0.577,7.077c-0.005,0.911-0.01,1.927-0.01,3.063c0,3.925-0.691,5.61-1.302,7.098
		c-0.481,1.173-0.936,2.281-0.936,4.093c0,1.351,0.475,5.587,6.192,6.036l-0.271,26.604c0,0.002,0.001,0.003,0.001,0.005
		c0,0.001-0.001,0.003-0.001,0.005c0,4.925,13.071,7.502,25.982,7.502c13.195,0,26.552-2.565,26.618-7.466
		c0-0.005,0.003-0.009,0.003-0.014l0.338-14.98c8.884-0.867,15.965-7.071,15.965-14.165V43.629
		C87.588,36.833,81.158,30.837,72.632,29.68z M14.761,59.848c0-1.418,0.347-2.263,0.786-3.334c0.646-1.576,1.451-3.538,1.451-7.857
		c0-1.133,0.005-2.146,0.01-3.054c0.025-5.109,0.034-7.021-1.014-8.334c-0.806-1.01-1.193-2.269-1.012-3.285
		c0.134-0.75,0.572-1.355,1.303-1.797c0.347-0.21,0.532-0.61,0.47-1.011c-0.063-0.401-0.363-0.724-0.758-0.817
		c-0.55-0.13-0.97-0.547-1.25-1.24c-0.5-1.24-0.41-3.081,0.141-4.558c0.31,0.533,0.656,1.045,1.039,1.532
		c0.197,0.25,0.491,0.381,0.787,0.381c0.216,0,0.435-0.07,0.617-0.214c0.435-0.341,0.509-0.97,0.168-1.404
		c-0.646-0.821-1.172-1.725-1.562-2.688c0-0.001,0-0.001,0-0.002c-1.818-4.508-0.417-9.757,3.409-12.764
		c2.878-2.264,6.683-2.946,10.175-1.826c0.022,0.007,0.045,0.002,0.068,0.008c0.022,0.005,0.04,0.021,0.063,0.025
		c0.044,0.008,0.084-0.005,0.128-0.003c0.07,0.003,0.139,0.006,0.208-0.005c0.058-0.01,0.109-0.029,0.164-0.048
		c0.067-0.024,0.131-0.048,0.191-0.085c0.05-0.031,0.091-0.068,0.135-0.107c0.051-0.045,0.1-0.09,0.141-0.146
		c0.039-0.052,0.065-0.109,0.094-0.169c0.02-0.041,0.051-0.073,0.065-0.117c0.008-0.023,0.002-0.046,0.008-0.069
		c0.006-0.022,0.021-0.04,0.024-0.063c0.164-0.925,0.534-1.789,1.071-2.497c1.286-1.697,3.558-2.589,5.661-2.217
		c1.929,0.339,4.3,1.662,4.95,3.767c0.114,0.373,0.437,0.645,0.823,0.696c0.383,0.05,0.769-0.126,0.977-0.456
		c1.5-2.367,4.483-3.726,7.248-3.298c2.599,0.396,4.777,2.515,5.549,5.397c0.007,0.025,0.022,0.044,0.031,0.068
		c0.017,0.048,0.019,0.099,0.044,0.146c0.013,0.024,0.035,0.038,0.05,0.06c0.029,0.046,0.066,0.083,0.103,0.124
		c0.043,0.048,0.08,0.1,0.131,0.138c0.088,0.068,0.188,0.12,0.293,0.155c0.032,0.011,0.067,0.01,0.101,0.017
		c0.07,0.016,0.14,0.035,0.213,0.035c0.02,0,0.039-0.007,0.059-0.008c0.02-0.001,0.038-0.005,0.058-0.008
		c0.048-0.005,0.096-0.006,0.144-0.019c0.046-0.012,0.081-0.043,0.124-0.062c0.026-0.011,0.055-0.01,0.081-0.024
		C59.884,8.078,61.433,7.691,63,7.69c5.241,0,9.506,4.265,9.506,9.507c0,5.242-4.265,9.506-9.506,9.506
		c-2.996,0-5.787-1.42-7.583-3.801c0.453-0.908,0.78-1.888,0.938-2.927c0.083-0.546-0.292-1.056-0.839-1.139
		c-0.546-0.084-1.056,0.293-1.138,0.839c-0.599,3.951-4.117,6.93-8.184,6.93c-4.324,0-8.262-3.665-8.262-7.689c0-0.552-0.447-1-1-1
		s-1,0.448-1,1c0,1.101,0.229,2.168,0.625,3.174c-0.136,0.1-0.257,0.223-0.329,0.389c-0.719,1.644-1.852,3.105-3.276,4.227
		c-1.809,1.421-3.973,2.23-6.257,2.341c-0.041,0.002-0.075,0.022-0.114,0.029c-1.36,0.042-2.562,0.583-3.564,1.636
		c-4.105,4.31-4.029,16.163-3.614,24.704c0.032,0.671,0.057,1.159,0.057,1.41c0,0.827,0.218,1.877,0.448,2.989
		c0.274,1.324,0.734,3.54,0.317,4.053c-0.042,0.052-0.166,0.063-0.262,0.063C15.437,63.929,14.761,61.372,14.761,59.848z
		 M85.588,63.375c0,6.294-6.729,11.784-14.999,12.238c-0.521,0.029-0.934,0.454-0.945,0.976l-0.358,15.886
		c0,0.004,0.002,0.008,0.002,0.012s-0.002,0.007-0.002,0.011c0,2.244-9.592,5.502-24.621,5.502c-14.857,0-23.981-3.204-23.982-5.502
		l0.273-26.771c0.375-0.161,0.648-0.386,0.82-0.598c1.018-1.25,0.546-3.523,0.09-5.721c-0.209-1.009-0.406-1.961-0.406-2.583
		c0-0.268-0.024-0.789-0.06-1.507c-0.613-12.634,0.418-20.448,3.065-23.227c0.661-0.694,1.406-1.032,2.278-1.032
		c0.032,0,0.06-0.016,0.091-0.019c2.687-0.139,5.229-1.093,7.354-2.763c1.439-1.133,2.605-2.572,3.451-4.178
		c1.871,2.666,5.074,4.505,8.555,4.505c3.232,0,6.18-1.526,8.082-3.913c2.176,2.531,5.347,4.011,8.724,4.011
		c2.395,0,4.619-0.737,6.463-1.993l0.028,3.969c0.004,0.529,0.419,0.964,0.948,0.991c0.263,0.014,0.596,0.002,0.936-0.01
		c0.356-0.013,0.76-0.028,0.988,0.001c7.539,1.023,13.225,6.168,13.225,11.967V63.375z M70.322,36.125c-0.551,0-0.997,0.445-1,0.995
		l-0.154,32.413c-0.001,0.266,0.104,0.521,0.291,0.71c0.188,0.188,0.443,0.294,0.709,0.294c6.551,0,10.62-2.841,10.62-7.415V43.88
		C80.788,39.242,76.582,36.125,70.322,36.125z M78.788,63.123c0,4.366-4.982,5.233-7.615,5.385l0.145-30.35
		c3.645,0.24,7.471,1.831,7.471,5.722V63.123z M45.196,37.435c-3.644,0-6.607,3.299-6.607,7.354v40.281
		c0,4.055,2.964,7.354,6.607,7.354c3.645,0,6.61-3.299,6.61-7.354V44.788C51.807,40.733,48.841,37.435,45.196,37.435z
		 M49.807,85.069c0,2.953-2.068,5.354-4.61,5.354c-2.541,0-4.607-2.402-4.607-5.354V44.788c0-2.952,2.066-5.354,4.607-5.354
		c2.542,0,4.61,2.401,4.61,5.354V85.069z M61.377,36.674c-3.065,0-5.56,2.766-5.56,6.166v41.469c0,3.4,2.494,6.166,5.56,6.166
		s5.56-2.766,5.56-6.166V42.84C66.937,39.44,64.442,36.674,61.377,36.674z M64.937,84.309c0,2.297-1.597,4.166-3.56,4.166
		s-3.56-1.869-3.56-4.166V42.84c0-2.297,1.597-4.166,3.56-4.166s3.56,1.869,3.56,4.166V84.309z M29.018,36.674
		c-3.065,0-5.56,2.766-5.56,6.166v41.469c0,3.4,2.494,6.166,5.56,6.166c3.066,0,5.561-2.766,5.561-6.166V42.84
		C34.578,39.44,32.084,36.674,29.018,36.674z M32.578,84.309c0,2.297-1.598,4.166-3.561,4.166s-3.56-1.869-3.56-4.166V42.84
		c0-2.297,1.597-4.166,3.56-4.166s3.561,1.869,3.561,4.166V84.309z M21.161,22.667c0-5.475,4.453-9.93,9.928-9.93
		c0.553,0,1,0.448,1,1s-0.447,1-1,1c-4.371,0-7.928,3.557-7.928,7.93c0,0.552-0.447,1-1,1S21.161,23.219,21.161,22.667z
		 M58.396,14.281c1.144-2.349,3.986-3.332,6.334-2.192c1.139,0.552,1.995,1.515,2.409,2.712c0.414,1.197,0.337,2.482-0.217,3.619
		c-0.174,0.355-0.529,0.562-0.9,0.562c-0.146,0-0.296-0.032-0.438-0.101c-0.496-0.242-0.702-0.84-0.461-1.337
		c0.32-0.656,0.364-1.398,0.126-2.089c-0.24-0.691-0.734-1.248-1.392-1.566c-1.363-0.658-3.003-0.09-3.663,1.267
		c-0.242,0.496-0.841,0.705-1.337,0.461C58.361,15.375,58.155,14.777,58.396,14.281z M40.113,13.845
		c-0.051-1.206,0.574-2.387,1.714-3.241c1.046-0.783,2.442-1.249,3.932-1.311c3.289-0.134,5.902,1.647,6.004,4.063
		c0.023,0.552-0.405,1.018-0.957,1.041c-0.498,0.024-1.018-0.404-1.041-0.957c-0.053-1.251-1.839-2.238-3.922-2.149
		c-1.075,0.045-2.102,0.378-2.816,0.913c-0.354,0.266-0.946,0.822-0.915,1.557c0.023,0.552-0.405,1.018-0.957,1.041
		c-0.014,0-0.028,0.001-0.043,0.001C40.579,14.803,40.136,14.383,40.113,13.845z"/>
</g>
</svg>
