<?xml version="1.0" encoding="utf-8"?>
<!-- Generator: Adobe Illustrator 16.0.0, SVG Export Plug-In . SVG Version: 6.00 Build 0)  -->
<!DOCTYPE svg PUBLIC "-//W3C//DTD SVG 1.1//EN" "http://www.w3.org/Graphics/SVG/1.1/DTD/svg11.dtd">
<svg version="1.1" xmlns="http://www.w3.org/2000/svg" xmlns:xlink="http://www.w3.org/1999/xlink" x="0px" y="0px" width="100px"
	 height="100px" viewBox="0 0 100 100" enable-background="new 0 0 100 100" xml:space="preserve">
<g id="Calque_2">
</g>
<g id="Calque_1">
	<path d="M83.491,29.155v-8.94c0-0.374-0.214-0.688-0.518-0.859c-0.487-1.569-2.328-2.89-5.304-3.799
		c-0.814-1.759-2.188-2.79-3.304-3.605c-1.056-0.773-1.654-1.241-1.654-1.873c0-0.595,0.198-1.458,0.407-2.372
		c0.496-2.161,1.057-4.61-0.255-6.258C72.098,0.487,70.817,0,69.057,0c-1.759,0-3.039,0.487-3.805,1.448
		c-1.313,1.647-0.751,4.097-0.255,6.258c0.209,0.914,0.407,1.776,0.407,2.372c0,0.632-0.598,1.1-1.654,1.873
		c-1.114,0.814-2.487,1.845-3.301,3.601c-3.008,0.918-4.856,2.261-5.323,3.85c-0.266,0.18-0.451,0.469-0.451,0.813v8.929
		c0,0.002,0,0.004,0,0.006s0,0.004,0,0.006c0,1.395,1.016,2.551,2.643,3.456c-1.402,1.774-2.643,4.198-2.643,6.121v35.329
		c-0.694,0.089-1.375,0.234-1.959,0.46c-0.538-0.807-1.736-1.275-3.375-1.323l-0.247-0.003c-1.463,0-3.235,0.369-4.344,1.18
		c-0.689-0.518-1.782-0.81-3.123-0.81c-0.382,0-0.774,0.024-1.166,0.073c-1.551,0.193-3.117,0.784-3.818,1.733
		c-1.252-0.452-3.193-0.457-4.795,0.001c-1.507,0.431-2.483,1.164-2.752,2.064c-0.271-0.028-0.554-0.042-0.848-0.042
		c-1.374,0-2.744,0.3-3.755,0.821c-1.438,0.735-1.624,1.654-1.607,2.136c0.001,0.032,0.003,0.066,0.006,0.103
		c-1.379,0.159-2.857,0.624-3.676,1.447c-0.561,0.562-0.762,1.254-0.553,1.9c0.046,0.144,0.111,0.28,0.193,0.408
		c-1.118,0.43-1.998,1.104-2.178,2.014c-0.027,0.135-0.035,0.27-0.029,0.403c-0.001,0.282-0.037,0.528-0.069,0.753
		c-0.091,0.65-0.189,1.433,0.432,2.314c-0.403,1.232,0.123,2.45,0.418,3.128l0.073,0.169c0.028,0.065,0.063,0.128,0.104,0.187
		c0.048,0.067,0.106,0.133,0.133,0.154c0.265,0.307,0.688,0.422,1.071,0.295c0.844-0.279,1.758-0.482,2.717-0.603
		c3.873-0.478,6.304,0.546,6.569,1.292c0.001,0.012,0.003,0.022,0.005,0.032c0.007,0.042,0.035,0.074,0.047,0.114
		c0.01,0.026,0.02,0.052,0.031,0.076c0.083,0.205,0.21,0.389,0.405,0.502c0.256,0.147,0.563,0.177,0.841,0.075
		c0.688-0.249,1.484-0.434,2.301-0.535c2.215-0.277,6.265,0.666,7.832,2.158c0.612,0.583,0.58,1.002,0.57,1.14
		c-0.013,0.168,0.029,0.328,0.097,0.479c0.118,0.42,0.488,0.734,0.946,0.734c0.046,0,0.086-0.021,0.131-0.026
		c0.447,0.144,1.156,0.319,2.15,0.319c0.486,0,1.04-0.042,1.661-0.151c1.604-0.199,3.013-1.189,3.758-1.758
		c1.275,0.478,3.18,0.505,4.857,0.024c1.412-0.404,2.148-1.405,2.528-2.09c1.59,0.215,3.503-0.072,4.829-0.753
		c1.106-0.568,1.934-1.787,2.021-2.925c0.949,0.065,1.846,0.021,2.536-0.296c1.412-0.655,1.994-1.931,1.669-3.527
		c0.433-0.124,0.792-0.323,1.091-0.584c0.226,0.004,0.451,0.01,0.679,0.01c6.985,0,14.409-2.039,14.409-5.818V38.732
		c0-1.963-1.222-4.392-2.601-6.146C82.491,31.685,83.491,30.537,83.491,29.155z M64.931,13.565c1.216-0.89,2.473-1.81,2.473-3.487
		c0-0.821-0.223-1.792-0.458-2.819c-0.375-1.636-0.841-3.671-0.13-4.564C67.184,2.233,67.938,2,69.057,2
		c1.121,0,1.875,0.233,2.242,0.694c0.712,0.894,0.245,2.93-0.13,4.564c-0.235,1.027-0.458,1.998-0.458,2.819
		c0,1.678,1.257,2.598,2.473,3.487c1.537,1.124,3.125,2.286,3.182,5.195c-0.53,0.444-3.085,1.211-7.31,1.211
		c-4.223,0-6.778-0.767-7.309-1.211C61.806,15.852,63.394,14.689,64.931,13.565z M59.822,17.891
		c-0.037,0.332-0.075,0.663-0.075,1.033c0,2.901,7.755,3.048,9.31,3.048s9.311-0.146,9.311-3.048c0-0.371-0.039-0.701-0.075-1.034
		c1.925,0.774,2.824,1.674,2.824,2.325c0,0.204,0.076,0.383,0.181,0.541c-0.963,1.47-5.597,3.279-12.215,3.279
		c-6.681,0-11.335-1.844-12.237-3.321c0.088-0.148,0.153-0.313,0.153-0.499C56.999,19.57,57.896,18.667,59.822,17.891z
		 M21.368,85.681c0.316-0.029,0.601-0.207,0.766-0.479l0.125-0.208c0.169-0.284,0.186-0.634,0.046-0.934s-0.419-0.511-0.745-0.564
		c-0.419-0.068-0.691-0.17-0.851-0.252c0.567-0.476,2.138-0.943,3.692-0.838c0.233,0.011,0.466-0.053,0.655-0.19l0.251-0.172
		c0.297-0.208,0.458-0.562,0.421-0.923s-0.268-0.674-0.603-0.816c-0.046-0.02-0.086-0.039-0.12-0.057
		c0.085-0.07,0.214-0.157,0.399-0.253c1.068-0.55,3.03-0.754,4.195-0.443c0.206,0.055,0.425,0.043,0.625-0.035l0.387-0.151
		c0.293-0.118,0.492-0.392,0.572-0.697c0.063-0.242,0.021-0.512-0.098-0.736c0.155-0.148,0.543-0.416,1.311-0.636
		c0.623-0.178,1.307-0.271,1.98-0.271c0.969,0,1.616,0.193,1.898,0.375c0.218,0.14,0.483,0.193,0.734,0.139l0.444-0.088
		c0.464-0.091,0.785-0.403,0.791-0.876c0.089-0.177,0.868-0.752,2.463-0.951c0.315-0.039,0.624-0.058,0.918-0.058
		c1.205,0,1.855,0.305,1.949,0.412c0.169,0.377,0.558,0.616,0.964,0.592l0.465-0.024c0.281-0.017,0.542-0.15,0.719-0.369
		c0.333-0.411,1.689-0.98,3.37-0.98l0.191,0.003c0.985,0.027,1.498,0.246,1.689,0.371c-0.042,0.236,0.003,0.482,0.13,0.691
		c0.161,0.265,0.435,0.439,0.743,0.475l0.419,0.046c0.214,0.021,0.433-0.023,0.62-0.133c0.974-0.574,2.896-0.848,4.159-0.578
		c0.316,0.066,0.516,0.147,0.638,0.211c-0.001,0.001-0.002,0.002-0.004,0.004c-0.277,0.231-0.408,0.595-0.341,0.949
		c0.066,0.355,0.318,0.647,0.66,0.764l0.317,0.106c0.209,0.074,0.438,0.077,0.647,0.007c1.328-0.438,3.228-0.438,4.02-0.027
		c-0.106,0.09-0.286,0.211-0.579,0.343c-0.318,0.144-0.538,0.441-0.582,0.787c-0.043,0.347,0.096,0.689,0.369,0.907
		c0.049,0.038,0.095,0.077,0.14,0.117c0.225,0.208,0.532,0.304,0.835,0.252c0.398-0.063,0.8-0.096,1.193-0.096
		c0.926,0,1.522,0.175,1.798,0.315c-0.21,0.174-0.668,0.447-1.512,0.653c-0.525,0.129-0.853,0.65-0.741,1.179
		c0.007,0.03,0.019,0.09,0.028,0.12c0.067,0.495,0.561,0.864,1.061,0.864c0.93,0,1.535,0.178,1.818,0.322
		c-0.337,0.273-1.227,0.702-2.605,0.826c-0.325,0.029-0.615,0.216-0.777,0.499l-0.11,0.19c-0.167,0.284-0.184,0.632-0.044,0.931
		s0.417,0.509,0.743,0.563c0.418,0.069,0.69,0.172,0.85,0.254c-0.569,0.475-2.139,0.942-3.691,0.838
		c-0.229-0.006-0.459,0.051-0.647,0.185l-0.254,0.176c-0.299,0.207-0.462,0.561-0.426,0.923c0.037,0.361,0.267,0.676,0.602,0.818
		c0.047,0.021,0.087,0.04,0.121,0.058c-0.085,0.07-0.214,0.158-0.399,0.253c-1.067,0.55-3.029,0.754-4.196,0.443
		c-0.206-0.057-0.423-0.043-0.622,0.034l-0.379,0.146c-0.295,0.115-0.498,0.389-0.581,0.695c-0.066,0.243-0.024,0.517,0.096,0.744
		c-0.155,0.147-0.542,0.415-1.312,0.636c-0.623,0.179-1.308,0.273-1.981,0.273c-0.967,0-1.612-0.194-1.893-0.376
		c-0.22-0.142-0.488-0.19-0.744-0.139l-0.43,0.086c-0.466,0.089-0.789,0.403-0.796,0.877c-0.088,0.176-0.868,0.753-2.465,0.953
		c-0.314,0.039-0.622,0.058-0.916,0.058c-0.957,0-1.564-0.191-1.822-0.324c0.016-0.626-0.194-1.227-0.62-1.762
		c-1.581-1.984-6.029-2.705-8.633-2.705c-0.515,0-0.985,0.026-1.398,0.077c-0.646,0.081-1.263,0.201-1.846,0.359
		c-1.073-1.493-3.763-2.05-6.195-2.05c-0.61,0-1.233,0.033-1.858,0.101c0.103-0.193,0.142-0.423,0.098-0.653
		c-0.007-0.039-0.026-0.137-0.038-0.174c-0.082-0.48-0.569-0.831-1.056-0.831c-0.933,0-1.538-0.178-1.82-0.323
		C19.098,86.234,19.987,85.806,21.368,85.681z M21.281,91.041c-0.773,0.097-1.523,0.241-2.24,0.433
		c-0.052-0.145-0.084-0.271-0.114-0.396c0.804-0.259,1.676-0.454,2.601-0.57c0.643-0.08,1.285-0.12,1.91-0.12
		c2.726,0,4.383,0.753,4.641,1.382C26.346,90.951,23.754,90.734,21.281,91.041z M31.48,92.598c-0.482,0.06-0.945,0.149-1.397,0.255
		l0.001-0.447c0.519-0.146,1.065-0.271,1.642-0.343c0.331-0.041,0.718-0.062,1.151-0.062c2.663,0,6.139,0.784,7.068,1.952
		c0.209,0.262,0.203,0.447,0.166,0.609c-0.005,0.024-0.001,0.049-0.005,0.073C37.677,92.993,33.655,92.326,31.48,92.598z
		 M44.819,97.258c-1.262,0.222-2.113,0.106-2.647-0.027v-0.648c0.522,0.135,1.119,0.21,1.781,0.21c0.38,0,0.771-0.024,1.163-0.073
		c0.758-0.095,1.519-0.287,2.182-0.567C46.667,96.597,45.757,97.141,44.819,97.258z M53.179,95.579
		c-1.497,0.43-3.145,0.307-3.813-0.074v-0.392c1.24,0.318,2.937,0.278,4.364-0.132c0.187-0.054,0.365-0.111,0.535-0.174
		C54.024,95.126,53.69,95.433,53.179,95.579z M60.171,92.88c-0.939,0.483-2.439,0.695-3.612,0.551v-0.508
		c0.249,0.022,0.504,0.037,0.771,0.037c1.277,0,2.539-0.267,3.525-0.722C60.697,92.483,60.471,92.727,60.171,92.88z M64.804,89.623
		c-0.272,0.126-0.746,0.147-1.231,0.131c0.617-0.13,1.218-0.323,1.744-0.583C65.188,89.438,64.958,89.552,64.804,89.623z
		 M81.491,38.732v42.786c0,1.507-4.865,3.774-12.214,3.814c0.013-0.76-0.208-1.527-0.463-2.143
		c-0.004-0.009-0.012-0.015-0.016-0.023c-0.067-0.164-0.152-0.324-0.271-0.47c-0.212-0.258-0.506-0.479-0.872-0.656
		c0.229-0.231,0.4-0.481,0.503-0.746c0.209-0.535,0.149-1.095-0.171-1.577c-0.617-0.929-1.968-1.213-2.927-1.294
		c0.031-0.128,0.043-0.244,0.046-0.343c0.01-0.338-0.086-1.188-1.194-1.768c-0.867-0.452-1.955-0.548-2.713-0.548
		c-0.476,0-0.961,0.038-1.434,0.11c-0.003-0.017-0.007-0.031-0.011-0.045c-0.12-0.484-0.578-1.352-2.293-1.718
		c-0.246-0.052-0.518-0.07-0.786-0.095V38.732c0-1.362,1.119-3.644,2.53-5.272c2.735,0.995,6.361,1.514,9.877,1.514
		c3.538,0,7.185-0.525,9.927-1.533C80.393,35.043,81.491,37.334,81.491,38.732z M81.491,29.155c0,0.654-0.921,1.452-2.561,2.149
		c-0.029,0.011-0.056,0.024-0.084,0.038c-2.173,0.905-5.572,1.631-9.763,1.631c-4.094,0-7.424-0.693-9.603-1.569
		c-0.094-0.058-0.19-0.099-0.295-0.122c-1.606-0.692-2.51-1.479-2.51-2.127c0-0.002,0-0.004,0-0.006s0-0.004,0-0.006v-5.859
		c2.678,1.803,7.645,2.751,12.408,2.751s9.731-0.948,12.409-2.751V29.155z M72.318,77.188c0,0.553-0.448,1-1,1h-4.47
		c-0.552,0-1-0.447-1-1s0.448-1,1-1h4.47C71.871,76.188,72.318,76.636,72.318,77.188z M72.318,64.898c0,0.553-0.448,1-1,1h-4.47
		c-0.552,0-1-0.447-1-1s0.448-1,1-1h4.47C71.871,63.898,72.318,64.346,72.318,64.898z M72.318,53.725c0,0.553-0.448,1-1,1h-4.47
		c-0.552,0-1-0.447-1-1s0.448-1,1-1h4.47C71.871,52.725,72.318,53.172,72.318,53.725z M66.849,40.432h4.47c0.552,0,1,0.447,1,1
		s-0.448,1-1,1h-4.47c-0.552,0-1-0.447-1-1S66.296,40.432,66.849,40.432z M55.315,84.476c-0.092-0.443,0.691-0.911,1.75-1.043
		c1.061-0.131,1.996,0.122,2.089,0.566c0.092,0.444-0.691,0.912-1.751,1.044C56.344,85.176,55.409,84.922,55.315,84.476z
		 M26.667,84.439c-0.092-0.444,0.691-0.911,1.75-1.042c1.061-0.133,1.995,0.12,2.086,0.565c0.094,0.444-0.689,0.913-1.749,1.043
		C27.695,85.139,26.76,84.886,26.667,84.439z M37.483,80.206c-0.081-0.387,0.602-0.794,1.526-0.909
		c0.922-0.114,1.736,0.107,1.816,0.494c0.083,0.388-0.601,0.795-1.524,0.909C38.379,80.813,37.565,80.595,37.483,80.206z
		 M53.693,89.694c0.151,0.714-1.111,1.467-2.818,1.679c-1.707,0.215-3.212-0.195-3.362-0.912c-0.149-0.716,1.111-1.469,2.818-1.68
		C52.039,88.568,53.544,88.978,53.693,89.694z M35.234,87.849c-0.148-0.717,1.112-1.469,2.819-1.682
		c1.706-0.212,3.21,0.198,3.36,0.914c0.151,0.716-1.112,1.469-2.817,1.681C36.89,88.974,35.384,88.566,35.234,87.849z
		 M47.458,80.566c-0.492-0.659,0.44-1.478,2.084-1.83c1.639-0.353,3.368-0.104,3.858,0.555c0.492,0.657-0.441,1.478-2.081,1.83
		C49.677,81.473,47.95,81.225,47.458,80.566z M33.162,96.007c-0.188-0.066-0.407-0.097-0.709-0.097c-0.53,0-1.232,0.093-1.52,0.157
		c-0.27,0.063-0.617,0.178-0.912,0.392c-0.223,0.073-0.417,0.169-0.589,0.292c-0.521,0.371-0.808,0.979-0.733,1.551
		c0.072,0.539,0.382,1.014,0.852,1.303c0.414,0.255,0.899,0.396,1.365,0.396c0.012,0,0.07-0.001,0.083-0.002
		c0.52-0.019,0.976-0.118,1.355-0.294c0.398-0.185,0.709-0.41,0.93-0.673c0.032-0.015,0.065-0.03,0.1-0.047
		c0.441-0.209,0.98-0.465,1.061-1.052c0.062-0.317,0.015-0.637-0.122-0.899C34.114,96.579,33.668,96.186,33.162,96.007z M30.915,99
		v-0.718c0.003-0.001,0.006-0.002,0.009-0.003L30.915,99z M23.242,94.88c-0.369-0.134-0.762-0.165-1.112-0.083
		c-0.287,0.066-0.849,0.34-1.027,0.469c-0.429,0.311-0.656,0.805-0.593,1.295c0.059,0.437,0.311,0.822,0.697,1.061
		c0.217,0.132,0.569,0.289,1.01,0.289c0.013,0,0.05,0,0.063-0.001c0.36-0.014,0.68-0.085,0.955-0.214
		c0.348-0.164,0.609-0.376,0.778-0.632c0.14-0.188,0.225-0.402,0.248-0.631c0.043-0.265,0.001-0.532-0.106-0.733
		C23.988,95.33,23.645,95.023,23.242,94.88z M22.432,96.683c-0.028-0.026-0.054-0.062-0.075-0.107
		c-0.063-0.122-0.09-0.264-0.078-0.403c0.012-0.064,0.032-0.128,0.06-0.187c0.082,0.081,0.137,0.191,0.154,0.313
		C22.508,96.413,22.498,96.553,22.432,96.683z"/>
</g>
</svg>
