<?xml version="1.0" encoding="utf-8"?>
<!-- Generator: Adobe Illustrator 16.0.0, SVG Export Plug-In . SVG Version: 6.00 Build 0)  -->
<!DOCTYPE svg PUBLIC "-//W3C//DTD SVG 1.1//EN" "http://www.w3.org/Graphics/SVG/1.1/DTD/svg11.dtd">
<svg version="1.1" xmlns="http://www.w3.org/2000/svg" xmlns:xlink="http://www.w3.org/1999/xlink" x="0px" y="0px" width="100px"
	 height="100px" viewBox="0 0 100 100" enable-background="new 0 0 100 100" xml:space="preserve">
<g id="Calque_2">
</g>
<g id="Calque_1">
	<path d="M94.991,70.813c-6.432-6.434-22.769-16.52-34.698-23.885c-4.15-2.562-7.747-4.784-9.893-6.226
		c-0.417-6.965-5.216-12.554-11.242-13.117l-0.001-11.183v0v0c0-0.017-0.009-0.031-0.01-0.048c-0.005-0.114-0.022-0.229-0.066-0.334
		l-0.002-0.006c0,0,0,0,0,0L37.09,11.22c-0.485-2.208-5.982-2.393-7.725-2.393c-1.743,0-7.244,0.184-7.725,2.395l-1.17,2.818
		L7.488,0.399c-0.57-0.572-1.438-0.531-2.581,0.124c-0.756,0.433-1.623,1.122-2.442,1.94C1.4,3.53-0.935,6.152,0.417,7.503
		l19.158,18.234l0,1.845c-2.931,0.27-5.651,1.711-7.74,4.146c-2.288,2.666-3.548,6.2-3.547,9.952v46.793
		c0,4.994,20.217,5.052,21.078,5.052s21.079-0.058,21.079-5.052l-0.001-22.458C60.59,82.022,67.091,91.271,70.811,94.991
		c3.229,3.229,7.522,5.008,12.089,5.008s8.86-1.779,12.09-5.008C101.656,88.324,101.656,77.478,94.991,70.813z M93.577,72.227
		c4.434,4.434,5.524,10.961,3.278,16.429c-0.402-3.944-2.829-8.648-6.944-12.763C83.518,69.5,69.46,58.7,59.196,50.813
		c-3.626-2.786-6.771-5.203-8.753-6.797v-0.891c2.202,1.43,5.305,3.346,8.799,5.503C70.419,55.53,87.309,65.958,93.577,72.227z
		 M50.443,46.572c1.959,1.543,4.591,3.566,7.535,5.827c10.221,7.853,24.219,18.607,30.519,24.907
		c5.33,5.329,7.712,12.063,5.688,15.464L50.443,49.028L50.443,46.572z M50.443,51.856L92.77,94.184
		c-3.402,2.023-10.135-0.358-15.465-5.687c-5.255-5.256-17.078-20.336-26.861-32.982V51.856z M29.365,14.241
		c1.268,0,4.528-0.097,6.398-1l1.306,3.148c-0.631,0.567-3.381,1.684-7.704,1.685c-4.324-0.001-7.074-1.119-7.705-1.686l0.061-0.147
		c0,0,0-0.001,0-0.001l1.245-2.999C24.836,14.145,28.097,14.241,29.365,14.241z M21.573,18.662c2.034,0.961,5.24,1.412,7.792,1.413
		c2.364,0,4.682-0.33,6.526-0.927c0.477-0.154,0.893-0.322,1.266-0.498l0.001,9.744c-0.497,0.487-3.202,1.35-7.793,1.35
		c-4.59,0-7.294-0.863-7.791-1.35L21.573,18.662z M29.365,10.827c2.607,0,4.445,0.378,5.321,0.708
		c-0.876,0.33-2.713,0.707-5.321,0.707c-2.607,0-4.445-0.377-5.321-0.707C24.921,11.205,26.759,10.827,29.365,10.827z M2.057,6.303
		C2.229,5.87,2.81,4.948,3.879,3.878C4.948,2.81,5.87,2.229,6.304,2.056l13.335,14.012c-0.039,0.107-0.067,0.219-0.067,0.333v0.001
		l0,0l0,0l0.001,6.574L2.057,6.303z M29.365,91.524c-11.923,0-18.661-1.982-19.078-3.052V41.679c0-3.274,1.088-6.345,3.065-8.649
		c1.789-2.084,4.112-3.292,6.594-3.468c1.609,2.062,7.992,2.182,9.418,2.182c1.426,0,7.808-0.119,9.419-2.18
		c5.379,0.386,9.658,5.665,9.658,12.116l0.007,46.752C48.028,89.542,41.29,91.524,29.365,91.524z M72.225,93.577
		c-4.999-5.001-14.787-20.195-21.782-31.306v-3.49c9.482,12.233,20.396,26.078,25.447,31.13c4.121,4.119,8.833,6.552,12.78,6.949
		c-1.806,0.747-3.758,1.139-5.771,1.139C78.868,97.999,75.076,96.428,72.225,93.577z M45.613,54.873
		c0.056-0.398-0.132-0.791-0.477-0.998c-0.684-0.409-1.719-0.607-3.166-0.607c-2.117,0-4.996,0.454-7.311,1.125
		c-0.026-0.291-0.062-0.601-0.101-0.916c3.358-8.603,6.075-13.038,7-13.534c0.154,0.029,0.247,0.106,0.328,0.266
		c0.313,0.614,0.166,2.052-0.618,3.307c-0.292,0.468-0.15,1.085,0.318,1.378c0.467,0.293,1.085,0.15,1.378-0.318
		c1.1-1.761,1.39-3.93,0.704-5.274c-0.416-0.816-1.147-1.3-2.056-1.364c-2.157-0.168-5.204,5.795-7.73,11.864
		c-0.314-1.277-0.71-2.505-1.184-3.499c0.512-2.431,0.767-4.463,1.029-6.598c0.069-0.559,0.138-1.123,0.213-1.701
		c0.071-0.548-0.315-1.049-0.863-1.121c-0.548-0.075-1.049,0.315-1.121,0.863c-0.076,0.583-0.146,1.151-0.214,1.715
		c-0.196,1.597-0.387,3.133-0.686,4.817c-0.258-0.082-0.542-0.064-0.786,0.074c-0.38,0.211-0.757,0.559-1.125,1.004
		c-0.088-3.477-0.599-7.942-2.292-8.996c-0.633-0.395-1.392-0.367-2.078,0.079c-0.463,0.3-0.559,0.9-0.258,1.363
		c0.286,0.442,0.896,0.563,1.354,0.314c0.981,0.918,1.588,7.42,1.201,10.899c-0.678,1.578-1.234,3.275-1.584,4.664
		c-2.658-1.24-6.386-2.387-8.685-2.387c-0.642,0-1.161,0.084-1.585,0.256c-0.373,0.15-0.619,0.51-0.625,0.911
		c-0.036,2.321,3.281,6.479,5.688,8.809c-2.739,1.935-6.661,5.531-6.983,7.824c-0.056,0.398,0.131,0.79,0.476,0.997
		c0.685,0.411,1.723,0.61,3.174,0.61c2.113,0,4.989-0.452,7.304-1.121c0.225,2.456,0.91,5.908,1.981,8.131
		c-0.758,3.088-1.048,4.662-1.414,7.074c-0.083,0.547,0.292,1.057,0.839,1.139c0.051,0.008,0.101,0.012,0.151,0.012
		c0.486,0,0.912-0.354,0.987-0.85c0.305-2.008,0.546-3.361,1.021-5.403c0.107,0.038,0.22,0.06,0.333,0.06
		c0.167,0,0.334-0.042,0.486-0.126c0.402-0.224,0.801-0.604,1.189-1.086c0.344,3.26,1.212,7.226,2.382,8.294
		c0.192,0.176,0.433,0.262,0.674,0.262c0.271,0,0.542-0.109,0.739-0.326c0.373-0.407,0.344-1.04-0.064-1.412
		c-0.811-0.74-2.06-6.872-1.879-10.028c0.751-1.679,1.369-3.533,1.745-5.03c2.664,1.242,6.396,2.391,8.694,2.391h0
		c0.637,0,1.152-0.083,1.574-0.253c0.374-0.15,0.62-0.51,0.627-0.911c0.038-2.323-3.282-6.483-5.69-8.815
		C41.367,60.765,45.29,57.168,45.613,54.873z M36.487,61.718c-0.276,0.167-0.455,0.457-0.479,0.778
		c-0.025,0.322,0.106,0.636,0.354,0.843c2.397,2.013,5.062,5.471,5.774,7.34c-0.006,0-0.012,0-0.019,0h0
		c-2.322,0-6.561-1.443-8.913-2.739c-0.283-0.156-0.624-0.166-0.914-0.026c-0.291,0.14-0.497,0.41-0.554,0.728
		c-0.338,1.907-1.103,4.177-1.935,5.999c-0.004,0.008-0.007,0.016-0.011,0.024c-0.513,1.118-1.05,2.066-1.529,2.652
		c-0.035-0.061-0.07-0.13-0.105-0.196c-0.008-0.016-0.015-0.03-0.024-0.045c-0.962-1.847-1.898-5.863-1.959-8.864
		c-0.007-0.322-0.168-0.622-0.434-0.804c-0.169-0.116-0.367-0.176-0.566-0.176c-0.115,0-0.23,0.02-0.341,0.06
		c-2.216,0.804-5.605,1.409-7.883,1.409c-0.597,0-1.039-0.04-1.364-0.093c0.993-1.733,4.16-4.737,6.839-6.357
		c0.276-0.167,0.455-0.457,0.479-0.778c0.025-0.322-0.107-0.636-0.354-0.843c-2.397-2.011-5.062-5.468-5.773-7.336
		c0.009,0,0.019,0,0.028,0c2.324,0,6.558,1.441,8.903,2.736c0.282,0.154,0.623,0.165,0.914,0.026s0.497-0.409,0.553-0.728
		c0.55-3.089,2.216-7.133,3.475-8.677c0.053,0.09,0.106,0.191,0.159,0.294c0.005,0.008,0.008,0.018,0.014,0.025
		c0.708,1.404,1.393,3.953,1.72,6.386c0,0.011,0.003,0.02,0.004,0.03c0.109,0.821,0.179,1.63,0.193,2.374
		c0.006,0.323,0.168,0.623,0.434,0.806c0.266,0.184,0.605,0.227,0.908,0.115c2.216-0.807,5.608-1.414,7.891-1.414
		c0.592,0,1.033,0.039,1.356,0.092C42.333,57.094,39.166,60.097,36.487,61.718z M29.79,57.655c-2.401-0.182-4.478,1.636-4.661,3.99
		c-0.09,1.157,0.276,2.28,1.031,3.162c0.754,0.88,1.806,1.413,2.958,1.501c0.115,0.009,0.23,0.014,0.344,0.014
		c2.25,0,4.147-1.758,4.321-4.001C33.968,59.936,32.178,57.843,29.79,57.655z M29.273,64.314c-0.622-0.047-1.188-0.334-1.594-0.809
		c-0.407-0.476-0.605-1.08-0.556-1.705c0.094-1.211,1.119-2.159,2.334-2.159c0.06,0,0.12,0.002,0.179,0.007
		c1.287,0.101,2.253,1.23,2.153,2.519C31.691,63.438,30.618,64.419,29.273,64.314z"/>
</g>
</svg>
