<svg id="Calque_1" data-name="Calque 1" xmlns="http://www.w3.org/2000/svg" viewBox="0 0 300 300"><defs><style>.cls-1{fill:#1d1d1b;}.cls-2{fill:none;stroke:#000;stroke-linejoin:round;stroke-width:2px;}</style></defs><title>picto_alsace</title><path class="cls-1" d="M150,6A144,144,0,0,1,251.82,251.82,144,144,0,1,1,48.18,48.18,143,143,0,0,1,150,6m0-6A150,150,0,1,0,300,150,150,150,0,0,0,150,0Z"/><path d="M152.42,178.07c-1.44,0-2.88-.06-4.31-.19-6.62-.58-11.82-1.86-17-6.32l-79.23-2.75a8.87,8.87,0,0,1-3.3,1.32,28.59,28.59,0,0,1-20-3.64,2.5,2.5,0,0,1-1-2.86,3.21,3.21,0,0,1,1.64-2c1.4-.71,2.79-.25,4.41.29a20.63,20.63,0,0,0,7.36,1.31c1.08,0,3.32,0,4.51-.18v-.28a3.83,3.83,0,0,1,1.66-3.42c1.95-1.27,4.47-.3,5.2,0a3.18,3.18,0,0,1,.4.23l.18.12a5.56,5.56,0,0,1,1.77,1.81l66.64-.23c-4.45-6.35-5.35-12-5.27-14a2.51,2.51,0,0,1,4.71-1.06,16.21,16.21,0,0,0,2.94,3.59,38.36,38.36,0,0,1-6-14,2.5,2.5,0,0,1,4.74-1.5,16,16,0,0,0,3,4.21,44.52,44.52,0,0,1-4.27-17.19,2.5,2.5,0,0,1,4.77-1.15,20.21,20.21,0,0,0,4.26,5.21,38.12,38.12,0,0,1-1.54-19.27,2.5,2.5,0,0,1,4.74-.61s1.51,3.28,3.69,6.93a52.51,52.51,0,0,1,2.14-18,2.5,2.5,0,0,1,4.83.25c0,.15,3,13.64,13.54,31.87a4.08,4.08,0,0,0-.26-1.47,2.5,2.5,0,0,1,3.72-3.07c.78.55,2.3,1.65,3.9,3-.59-2.91-1.73-6-3.94-8a2.5,2.5,0,0,1,2.49-4.21,32.32,32.32,0,0,1,7.51,3.92c-1.16-3.83-3-8.13-5.84-10.73a2.5,2.5,0,0,1,2.65-4.15c.34.15,8.53,3.63,15.55,13.09,6.05,8.14,12.29,22.4,8.87,44.76L220.11,162c1.25-2.25,4-4.65,9.22-4.44,4.26.15,6.37,2.12,7.28,4l17.79,1.22a2.5,2.5,0,0,1,.18,5l-18.25,2.59c-1.27,1.57-4.13,3.94-9.42,3.2-3.71-.54-5.59-1.88-6.53-3.1L184.69,170C178.28,173.27,165.4,178.07,152.42,178.07Zm-27.91-11.74,7.72.27a2.53,2.53,0,0,1,1.61.66c3.84,3.55,7.68,5,14.71,5.64,13.61,1.2,28.43-4.48,34.36-7.65a2.64,2.64,0,0,1,1.21-.3l3.21.05a2.5,2.5,0,0,1-.58-2.15c5.29-26.95-3.81-42-11.58-49.67a54.31,54.31,0,0,1,2.66,11.15,2.5,2.5,0,0,1-4.59,1.62,17.37,17.37,0,0,0-3.9-4.19,35.38,35.38,0,0,1,1.28,11.2,2.5,2.5,0,0,1-4.92.45c-.2-.79-1.47-2.22-3.12-3.72-.08.81-.18,1.63-.28,2.45s-.21,1.74-.27,2.53a2.5,2.5,0,0,1-4.6,1.16,151.1,151.1,0,0,1-15.14-30,56.46,56.46,0,0,0,1,15.39,2.5,2.5,0,0,1-4.23,2.31,45.1,45.1,0,0,1-5.73-7.69A31.73,31.73,0,0,0,139,131.48a2.5,2.5,0,0,1-3.06,3.81,38.62,38.62,0,0,1-8.29-5.48,40.42,40.42,0,0,0,7.47,14.72,2.5,2.5,0,0,1-2.64,4,27.51,27.51,0,0,1-4.94-2.18,36.88,36.88,0,0,0,9.53,9.9,2.5,2.5,0,0,1-1.8,4.57,29.91,29.91,0,0,1-10.94-4.27,32.1,32.1,0,0,0,4.18,5.52,2.5,2.5,0,0,1-1.81,4.21Zm99.84,1.06c.15.18.87.86,3.27,1.21,3.74.52,4.92-1.47,5-1.7a2.43,2.43,0,0,1,.61-.8,1.73,1.73,0,0,1-.49-.41,2.23,2.23,0,0,1-.61-1.67c-.11-.67-1-1.39-3-1.47-4.13-.14-4.81,2.06-4.9,2.51a2.34,2.34,0,0,1-.52,1.19A2.6,2.6,0,0,1,224.35,167.39Zm.06.38h0Zm0,0h0ZM191,165.05l4.89.06-4.65-.36A3.15,3.15,0,0,1,191,165.05Z"/><path class="cls-2" d="M229.77,167a2.09,2.09,0,0,1-2.12-2,2,2,0,0,1,2.06-1.9,2.09,2.09,0,0,1,2.12,2A2,2,0,0,1,229.77,167Z"/><path d="M145.06,119.47s4,25.15,34.16,43.48c-5.74,2.25-15.27,7.68-26.54,7.68h-.41c-8.27-.1-15.61-5.41-19.42-10.87,0,0,5.92,3.59,15.44,3.74,0,0-2.51-1.55-12.06-11.53a16.45,16.45,0,0,0,8.51,2,22.5,22.5,0,0,0,2.27-.11s-7.09-3.37-11.27-14.54c0,0,6.86,6.07,13.49,7.15,0,0-6.27-4.28-10.09-18,0,0,2.13,6.43,11.24,11.76,0,0-2.54-3.07-5.32-20.79m0-2a1.63,1.63,0,0,0-.31,0,2,2,0,0,0-1.67,2.29,136.62,136.62,0,0,0,3,14.92c-4-3.63-5.08-6.8-5.09-6.84a2,2,0,0,0-1.9-1.37,2,2,0,0,0-.58.09,2,2,0,0,0-1.35,2.45,48.45,48.45,0,0,0,5.42,12.73,39.28,39.28,0,0,1-5.56-3.94,2,2,0,0,0-1.33-.5,2,2,0,0,0-1.13.35,2,2,0,0,0-.74,2.35,33.21,33.21,0,0,0,7.06,11.56,12.3,12.3,0,0,1-3.62-1.29,1.91,1.91,0,0,0-1.07-.32,2,2,0,0,0-1.46,3.38c3.23,3.37,5.67,5.79,7.5,7.54a27,27,0,0,1-8.39-2.85,2,2,0,0,0-1-.29,2,2,0,0,0-1.64,3.15c3.73,5.33,11.48,11.61,21,11.72h.43c9.49,0,17.62-3.6,23.57-6.23,1.4-.62,2.62-1.16,3.7-1.58a2,2,0,0,0,.31-3.58c-29-17.65-33.19-41.84-33.23-42.08a2,2,0,0,0-2-1.69Z"/><path d="M174.94,120.29s11.87,9.1,10.58,41.62a72,72,0,0,1-21.4-20c.26-1,.69-2.71,1.31-5.1,0,0,5.08,6,5.89,8.3,0,0,3.51-8-.25-14.83,0,0,6.85,4.67,8.67,10.32,0,0-1.07-15.33-4.8-20.3m0-2a2,2,0,0,0-1.41.58,2,2,0,0,0-.19,2.62c1.57,2.1,2.69,6.68,3.41,11a33,33,0,0,0-4.55-3.88,2,2,0,0,0-2.88,2.62,14.07,14.07,0,0,1,1.28,8.87c-1.5-2.05-3.15-4-3.65-4.61a2,2,0,0,0-1.52-.7,1.73,1.73,0,0,0-.45,0,2,2,0,0,0-1.49,1.45c-.61,2.39-1.05,4.07-1.31,5.11a2,2,0,0,0,.31,1.67,74.16,74.16,0,0,0,22,20.55,2.06,2.06,0,0,0,1,.28,2,2,0,0,0,.95-.24,2,2,0,0,0,1.05-1.68c1.31-33.18-10.85-42.89-11.36-43.29a2.06,2.06,0,0,0-1.22-.41Z"/></svg>