<?xml version="1.0" encoding="utf-8"?>
<!-- Generator: Adobe Illustrator 16.0.0, SVG Export Plug-In . SVG Version: 6.00 Build 0)  -->
<!DOCTYPE svg PUBLIC "-//W3C//DTD SVG 1.1//EN" "http://www.w3.org/Graphics/SVG/1.1/DTD/svg11.dtd">
<svg version="1.1" xmlns="http://www.w3.org/2000/svg" xmlns:xlink="http://www.w3.org/1999/xlink" x="0px" y="0px" width="100px"
	 height="100px" viewBox="0 0 100 100" enable-background="new 0 0 100 100" xml:space="preserve">
<g id="Calque_2">
</g>
<g id="v2">
	<path d="M73.87,54.884c-0.482,0-1.556-1.511-1.556-2.368c0-0.077-0.027-0.145-0.044-0.217c0.654-0.371,1.057-0.828,1.057-1.402
		c0-2.489-7.33-2.861-11.699-2.861c-1.28,0-2.815,0.034-4.346,0.142V35.561c0-6.098-3.12-11.483-5.873-16.233
		c-2.025-3.493-3.925-6.793-4.029-9.575c1.058-0.313,1.069-0.742,1.069-1.165c0-0.552-0.448-1-1-1c-0.031,0-0.058,0.014-0.088,0.017
		v-6.08c0-0.784,0-1.524-6.168-1.524c-6.169,0-6.169,0.74-6.169,1.524v6.08c-0.031-0.003-0.057-0.017-0.088-0.017
		c-0.552,0-1,0.448-1,1c0,0.457,0.004,0.921,1.336,1.238c-0.323,2.671-2.153,5.851-4.103,9.217
		c-2.83,4.884-6.038,10.42-6.038,16.519v50.451c0,7.665,4.42,11.676,8.787,11.676c3.22,0,4.42-1.654,5.296-2.862
		c0.745-1.027,1.153-1.521,2.281-1.521c1.103,0,1.449,0.455,2.128,1.483c0.807,1.224,1.913,2.899,5.162,2.899
		c0.373,0,0.746-0.034,1.116-0.094c0.001,0.027,0.008,0.059,0.008,0.085c0,0.415,0.256,0.787,0.644,0.935
		C52.829,99.481,56.967,100,61.618,100c4.593,0,8.414-0.493,10.76-1.387c0.388-0.148,0.644-0.52,0.644-0.935
		c0-0.367,0.53-1.197,0.882-1.746c0.519-0.811,0.967-1.511,0.967-2.204V55.884C74.87,55.332,74.423,54.884,73.87,54.884z
		 M72.87,56.638l0.003,35.445c-0.582,0.637-4.518,1.806-11.546,1.806c-7.043,0-10.983-1.174-11.551-1.811
		c-0.005-0.037-0.024-0.067-0.033-0.103V56.651c1.38-0.635,2.513-2.428,2.7-3.766c2.53,0.726,6.44,0.874,9.185,0.874
		c2.588,0,6.205-0.135,8.732-0.759C70.575,54.316,71.591,56.011,72.87,56.638z M70.535,50.897c-1.444,0.41-4.453,0.862-8.907,0.862
		s-7.463-0.452-8.907-0.862c1.444-0.41,4.453-0.861,8.907-0.861S69.091,50.487,70.535,50.897z M49.929,50.896
		c0,0.456,0.25,0.838,0.677,1.163c-0.073,0.139-0.124,0.29-0.124,0.457c0,0.774-1.169,2.368-1.738,2.368c-0.552,0-1,0.448-1,1v3.154
		c-2.202,0.229-4.533,0.364-6.538,0.364c-6.432,0-13.075-1.117-14.076-2.029V41.097c4.279,1.811,13.951,1.838,14.076,1.838
		s9.797-0.027,14.076-1.838v7.271C52.375,48.73,49.929,49.459,49.929,50.896z M41.192,2c1.975,0,3.435,0.111,4.168,0.222v5.833
		c-0.989,0.093-2.401,0.166-4.168,0.166c-1.768,0-3.18-0.073-4.169-0.166V2.222C37.756,2.111,39.216,2,41.192,2z M32.898,20.044
		c2.047-3.534,3.968-6.876,4.352-9.947c0.991,0.078,2.266,0.124,3.942,0.124c1.824,0,3.188-0.053,4.21-0.144
		c0.214,3.208,2.179,6.634,4.276,10.252c2.626,4.533,5.604,9.67,5.604,15.231v3.347c-1.001,0.912-7.644,2.028-14.076,2.028
		S28.13,39.819,27.13,38.908v-3.347C27.13,30,30.194,24.711,32.898,20.044z M48.783,95.688c-2.173,0-2.755-0.883-3.493-2
		c-0.7-1.062-1.571-2.382-3.797-2.382c-2.198,0-3.142,1.301-3.9,2.346c-0.825,1.138-1.477,2.037-3.677,2.037
		c-3.269,0-6.787-3.028-6.787-9.676V59.563c4.279,1.812,13.951,1.839,14.076,1.839c2.008,0,4.329-0.131,6.538-0.353v32.68
		c0,0.328,0.161,0.635,0.43,0.821c0.381,0.265,0.727,0.665,1.009,1.106C49.049,95.667,48.917,95.688,48.783,95.688z M72.219,94.855
		c-0.434,0.678-0.879,1.374-1.082,2.073C68.985,97.612,65.569,98,61.618,98c-4.04,0-7.62-0.392-9.781-1.06
		c-0.131-0.718-0.445-1.474-0.863-2.167c3.516,1.039,8.871,1.116,10.354,1.116c1.593,0,7.652-0.09,11.102-1.366
		C72.355,94.641,72.283,94.754,72.219,94.855z M61.628,56.648c3.365,0,6.516-0.27,8.871-0.76c0.544-0.114,1.07,0.234,1.184,0.775
		c0.112,0.541-0.235,1.07-0.775,1.183c-2.485,0.518-5.781,0.802-9.279,0.802s-6.794-0.285-9.279-0.802
		c-0.54-0.112-0.888-0.642-0.775-1.183c0.112-0.541,0.634-0.889,1.184-0.775C55.112,56.378,58.263,56.648,61.628,56.648z
		 M71.102,67.365v20.098c0,0.552-0.447,1-1,1s-1-0.448-1-1V67.365c0-0.552,0.447-1,1-1S71.102,66.813,71.102,67.365z M35.23,86.6
		c0.19,0.19,0.29,0.44,0.29,0.71c0,0.26-0.1,0.52-0.29,0.7c-0.19,0.19-0.44,0.3-0.7,0.3c-0.27,0-0.52-0.11-0.71-0.3
		c-0.19-0.18-0.3-0.44-0.3-0.7c0-0.27,0.11-0.52,0.3-0.71C34.18,86.23,34.86,86.23,35.23,86.6z M43.96,81.86
		c0.18,0.18,0.29,0.44,0.29,0.7c0,0.27-0.11,0.52-0.29,0.71c-0.19,0.19-0.45,0.29-0.71,0.29c-0.27,0-0.52-0.1-0.71-0.29
		c-0.19-0.19-0.29-0.44-0.29-0.71c0-0.26,0.1-0.52,0.29-0.7C42.91,81.48,43.58,81.49,43.96,81.86z M37.75,73.93
		c0.18,0.19,0.29,0.45,0.29,0.71c0,0.26-0.11,0.52-0.29,0.71c-0.19,0.18-0.45,0.29-0.71,0.29c-0.27,0-0.52-0.11-0.71-0.29
		c-0.18-0.19-0.29-0.45-0.29-0.71c0-0.26,0.11-0.52,0.29-0.71C36.7,73.56,37.37,73.56,37.75,73.93z M32.49,64.77
		c0.19,0.19,0.29,0.45,0.29,0.71c0,0.26-0.1,0.52-0.29,0.71s-0.44,0.29-0.71,0.29c-0.26,0-0.52-0.1-0.7-0.29
		c-0.19-0.19-0.3-0.45-0.3-0.71c0-0.26,0.11-0.52,0.3-0.71C31.45,64.4,32.12,64.4,32.49,64.77z M45.21,67.65
		c0.19,0.18,0.29,0.44,0.29,0.71c0,0.26-0.1,0.52-0.29,0.7c-0.19,0.19-0.44,0.3-0.71,0.3c-0.26,0-0.52-0.11-0.7-0.3
		c-0.19-0.18-0.3-0.44-0.3-0.7c0-0.27,0.11-0.53,0.3-0.71C44.17,67.28,44.84,67.28,45.21,67.65z M51.18,36.43
		c-0.19-0.18-0.29-0.44-0.29-0.7c0-0.27,0.1-0.53,0.29-0.71c0.37-0.37,1.04-0.37,1.41,0c0.19,0.19,0.3,0.44,0.3,0.71
		c0,0.26-0.109,0.51-0.29,0.7c-0.189,0.19-0.45,0.3-0.71,0.3C51.62,36.73,51.359,36.62,51.18,36.43z M42.62,35.13
		c0.37-0.38,1.04-0.38,1.41,0c0.19,0.18,0.3,0.44,0.3,0.7c0,0.27-0.11,0.52-0.3,0.71c-0.18,0.19-0.44,0.29-0.7,0.29
		c-0.27,0-0.53-0.1-0.71-0.29c-0.19-0.19-0.29-0.44-0.29-0.71C42.33,35.57,42.43,35.31,42.62,35.13z M32.85,36.43
		c-0.18-0.18-0.29-0.44-0.29-0.7c0-0.27,0.11-0.52,0.29-0.71c0.37-0.37,1.04-0.37,1.42,0c0.18,0.19,0.29,0.44,0.29,0.71
		c0,0.26-0.11,0.52-0.29,0.7c-0.19,0.19-0.45,0.3-0.71,0.3C33.3,36.73,33.04,36.62,32.85,36.43z M32.85,28.84
		c-0.18-0.19-0.29-0.45-0.29-0.71c0-0.26,0.11-0.52,0.29-0.71c0.37-0.37,1.04-0.37,1.42,0c0.18,0.19,0.29,0.45,0.29,0.71
		c0,0.26-0.11,0.52-0.29,0.71c-0.19,0.18-0.45,0.29-0.71,0.29C33.3,29.13,33.04,29.02,32.85,28.84z M47.75,29.48
		c-0.18-0.19-0.29-0.44-0.29-0.71c0-0.26,0.11-0.51,0.29-0.7c0.38-0.38,1.05-0.38,1.42,0c0.19,0.18,0.29,0.44,0.29,0.7
		c0,0.27-0.1,0.52-0.29,0.71s-0.44,0.29-0.71,0.29C48.2,29.77,47.94,29.67,47.75,29.48z M40.37,28.22
		c-0.18-0.19-0.29-0.44-0.29-0.71c0-0.26,0.11-0.52,0.29-0.71c0.37-0.37,1.05-0.37,1.42,0c0.18,0.19,0.29,0.45,0.29,0.71
		c0,0.27-0.11,0.52-0.29,0.71c-0.19,0.19-0.45,0.29-0.71,0.29C40.81,28.51,40.56,28.41,40.37,28.22z M45.11,22.28
		c-0.19-0.19-0.3-0.44-0.3-0.71c0-0.26,0.11-0.52,0.3-0.7c0.37-0.38,1.04-0.38,1.41,0c0.19,0.18,0.29,0.44,0.29,0.7
		c0,0.27-0.1,0.52-0.29,0.71c-0.18,0.19-0.44,0.29-0.71,0.29C45.55,22.57,45.29,22.47,45.11,22.28z M37.16,21.4
		c-0.19-0.18-0.29-0.44-0.29-0.71s0.1-0.52,0.29-0.71c0.37-0.37,1.04-0.37,1.41,0c0.19,0.19,0.3,0.45,0.3,0.71
		c0,0.26-0.11,0.52-0.3,0.71c-0.18,0.18-0.44,0.29-0.7,0.29C37.6,21.69,37.35,21.58,37.16,21.4z M41.17,15.24
		c-0.18-0.18-0.29-0.44-0.29-0.7c0-0.27,0.11-0.52,0.29-0.71c0.38-0.37,1.05-0.37,1.42,0c0.18,0.19,0.29,0.44,0.29,0.71
		c0,0.26-0.11,0.52-0.29,0.7c-0.19,0.19-0.45,0.3-0.71,0.3C41.62,15.54,41.36,15.43,41.17,15.24z"/>
</g>
</svg>
