<?xml version="1.0" encoding="utf-8"?>
<!-- Generator: Adobe Illustrator 16.0.0, SVG Export Plug-In . SVG Version: 6.00 Build 0)  -->
<!DOCTYPE svg PUBLIC "-//W3C//DTD SVG 1.1//EN" "http://www.w3.org/Graphics/SVG/1.1/DTD/svg11.dtd">
<svg version="1.1" xmlns="http://www.w3.org/2000/svg" xmlns:xlink="http://www.w3.org/1999/xlink" x="0px" y="0px" width="100px"
	 height="100px" viewBox="0 0 100 100" enable-background="new 0 0 100 100" xml:space="preserve">
<g id="Calque_2">
</g>
<g id="Calque_1">
	<path d="M71.271,69.532c-0.044,0.059-4.459,5.897-9.101,5.897c-6.348,0-10.042-2.817-10.982-8.371
		c-0.002-0.013-0.01-0.022-0.013-0.035c0.365-0.168,0.697-0.412,0.974-0.723c0.349-0.392,0.808-0.889,1.269-1.388
		c0.483-0.523,0.968-1.048,1.335-1.461c0.821-0.927,0.586-1.746,0.447-2.055c-0.25-0.554-0.903-1.214-2.598-1.214h-5.204
		c-1.696,0-2.35,0.661-2.599,1.215c-0.139,0.309-0.373,1.128,0.45,2.056c0.363,0.408,0.842,0.927,1.321,1.445
		c0.465,0.503,0.929,1.006,1.28,1.4c0.277,0.312,0.61,0.557,0.975,0.724c-0.002,0.013-0.011,0.022-0.013,0.035
		c-0.938,5.554-4.631,8.37-10.979,8.37c-4.644,0-9.058-5.87-9.102-5.93c-0.374-0.503-1.084-0.608-1.587-0.235
		s-0.609,1.083-0.237,1.586c0.207,0.28,5.134,6.848,10.925,6.848c0.827,0,1.611-0.052,2.367-0.138
		c0.029,0.037,0.042,0.081,0.077,0.115c2.613,2.615,6.053,4.051,9.679,4.051c0.07,0,0.14,0,0.209,0c3.643,0,7.082-1.437,9.695-4.051
		c0.028-0.028,0.039-0.066,0.063-0.096c0.717,0.077,1.464,0.119,2.246,0.119c5.785,0,10.714-6.533,10.921-6.811
		c0.374-0.502,0.27-1.212-0.232-1.586C72.355,68.927,71.646,69.031,71.271,69.532z M47.405,62.453h5.193
		c-0.265,0.29-0.557,0.606-0.848,0.922c-0.47,0.509-0.939,1.017-1.296,1.418c-0.164,0.184-0.337,0.222-0.454,0.222
		c-0.167,0-0.323-0.076-0.453-0.223c-0.36-0.404-0.834-0.918-1.309-1.432C47.956,63.055,47.674,62.75,47.405,62.453z M50.06,79.458
		c-2.61,0.014-5.085-0.852-7.124-2.459c3.311-0.978,5.709-2.982,7.064-6.001c1.37,3.048,3.801,5.063,7.161,6.029
		C55.125,78.617,52.648,79.479,50.06,79.458z M97.187,36.273c2.807-7.365,1.946-24.354-2.822-31.439
		c-1.94-2.884-4.411-4.095-7.185-3.526c-9.137,1.876-18.249,11.07-20.44,13.402c-1.956-0.514-7.87-1.867-16.21-1.966
		c-0.038-0.004-0.076-0.006-0.114-0.006h-0.835c-0.038,0-0.076,0.002-0.113,0.005c-8.347,0.098-14.267,1.454-16.214,1.965
		C31.063,12.431,21.952,3.449,12.82,1.573c-2.758-0.564-5.219,0.637-7.154,3.5c-4.775,7.069-5.66,24.103-2.879,31.595l-0.022,0.1
		C0.93,41.703,0,46.865,0,52.115c0,25.758,22.43,46.713,50,46.713s50-21.038,50-46.896C100,46.386,98.972,41.943,97.187,36.273z
		 M50,96.558c-26.319,0-47.731-19.937-47.731-44.443c0-5.002,0.891-9.922,2.648-14.623c0.018-0.047,0.032-0.095,0.043-0.145
		l0.117-0.51c0.052-0.226,0.033-0.461-0.053-0.677C2.307,29.407,3.153,12.847,7.546,6.344c1.182-1.749,2.521-2.636,3.98-2.636
		c0.27,0,0.552,0.03,0.837,0.089c9.53,1.957,19.597,12.844,19.697,12.954c0.295,0.322,0.75,0.446,1.166,0.319
		c0.067-0.02,6.755-2.01,16.766-2.063c10.026,0.053,16.717,2.046,16.783,2.067c0.422,0.126,0.881,0,1.176-0.33
		c0.101-0.113,10.151-11.256,19.686-13.214c1.833-0.376,3.438,0.479,4.845,2.57c4.298,6.387,5.177,22.372,2.631,29.24
		c-0.029,0.031-0.057,0.065-0.083,0.101c-0.214,0.292-0.275,0.669-0.165,1.014c1.815,5.702,2.866,10.062,2.866,15.476
		C97.731,76.539,76.319,96.558,50,96.558z M94.289,61.961c-0.266,0.567-0.941,0.811-1.509,0.544
		C89.71,61.062,77.96,61.4,69.29,65.68c-0.161,0.079-0.333,0.117-0.501,0.117c-0.418,0-0.821-0.232-1.019-0.633
		c-0.277-0.562-0.046-1.242,0.516-1.52c9.127-4.504,21.543-5.035,25.458-3.193C94.312,60.718,94.555,61.394,94.289,61.961z
		 M65.208,61.184c-0.357-0.515-0.229-1.222,0.286-1.579c8.207-5.689,21.36-9.879,25.965-9.19c0.62,0.092,1.047,0.67,0.955,1.29
		c-0.093,0.62-0.671,1.047-1.29,0.955c-3.781-0.568-16.184,3.158-24.337,8.811c-0.197,0.137-0.422,0.202-0.646,0.202
		C65.783,61.672,65.429,61.501,65.208,61.184z M35.049,51.289c0-1.278,1.035-2.312,2.313-2.312c1.278,0,2.314,1.034,2.314,2.312
		c0,1.278-1.037,2.313-2.314,2.313C36.084,53.602,35.049,52.567,35.049,51.289z M59.76,51.289c0-1.278,1.038-2.312,2.315-2.312
		s2.313,1.034,2.313,2.312c0,1.278-1.036,2.313-2.313,2.313S59.76,52.567,59.76,51.289z M8.985,31.5
		c0.107,0.032,0.216,0.047,0.325,0.047c0.307,0,0.607-0.125,0.825-0.355c4.264-4.512,10.045-8.569,16.279-11.42
		c0.343-0.157,0.586-0.474,0.648-0.847c0.061-0.373-0.066-0.751-0.341-1.01c-2.296-2.168-6.823-5.943-11.346-6.872
		c-1.608-0.329-3.138,0.266-4.328,1.688C7.834,16.57,7.32,25.741,8.193,30.612C8.268,31.034,8.575,31.377,8.985,31.5z
		 M12.788,14.187c0.543-0.649,1.104-0.965,1.715-0.965c0.134,0,0.274,0.015,0.417,0.044c3.301,0.678,6.726,3.196,9.006,5.177
		c-5.134,2.536-9.915,5.842-13.773,9.519C9.788,23.034,10.698,16.684,12.788,14.187z M74.119,19.771
		c6.235,2.852,12.016,6.908,16.278,11.42c0.218,0.23,0.518,0.355,0.825,0.355c0.108,0,0.217-0.015,0.324-0.047
		c0.41-0.122,0.717-0.465,0.792-0.887c0.874-4.871,0.36-14.041-2.853-17.882c-1.189-1.422-2.718-2.018-4.328-1.688
		c-4.524,0.929-9.05,4.704-11.346,6.872c-0.274,0.259-0.402,0.637-0.34,1.01C73.533,19.297,73.776,19.614,74.119,19.771z
		 M85.614,13.266c0.799-0.166,1.47,0.129,2.132,0.921c2.09,2.498,2.999,8.848,2.635,13.774c-3.858-3.676-8.638-6.982-13.772-9.519
		C78.888,16.462,82.312,13.943,85.614,13.266z M57.334,70.102c0-0.82,0.664-1.482,1.483-1.482c0.818,0,1.482,0.662,1.482,1.482
		c0,0.819-0.664,1.482-1.482,1.482C57.999,71.584,57.334,70.921,57.334,70.102z M58.261,64.219c0-0.82,0.664-1.482,1.482-1.482
		c0.819,0,1.483,0.662,1.483,1.482c0,0.819-0.664,1.483-1.483,1.483C58.925,65.703,58.261,65.039,58.261,64.219z M63.636,66.629
		c0.819,0,1.483,0.662,1.483,1.482c0,0.819-0.664,1.483-1.483,1.483c-0.818,0-1.482-0.664-1.482-1.483
		C62.154,67.292,62.817,66.629,63.636,66.629z M30.846,65.68c-8.669-4.278-20.42-4.618-23.489-3.175
		c-0.567,0.267-1.243,0.023-1.51-0.544c-0.267-0.567-0.023-1.243,0.544-1.51c3.916-1.841,16.332-1.312,25.458,3.193
		c0.562,0.277,0.793,0.958,0.516,1.52c-0.197,0.401-0.6,0.633-1.019,0.633C31.179,65.797,31.007,65.759,30.846,65.68z M7.721,51.704
		c-0.092-0.62,0.335-1.197,0.955-1.29c4.614-0.687,17.758,3.501,25.966,9.19c0.515,0.357,0.643,1.064,0.286,1.579
		c-0.22,0.317-0.574,0.488-0.934,0.488c-0.223,0-0.448-0.065-0.646-0.202c-8.153-5.652-20.561-9.374-24.337-8.811
		C8.394,52.747,7.814,52.324,7.721,51.704z M41.319,68.62c0.819,0,1.483,0.662,1.483,1.482c0,0.819-0.665,1.482-1.483,1.482
		c-0.819,0-1.483-0.664-1.483-1.482C39.836,69.282,40.5,68.62,41.319,68.62z M40.392,62.737c0.819,0,1.483,0.662,1.483,1.482
		c0,0.819-0.664,1.483-1.483,1.483c-0.818,0-1.482-0.664-1.482-1.483C38.91,63.399,39.574,62.737,40.392,62.737z M36.5,66.629
		c0.819,0,1.483,0.662,1.483,1.482c0,0.819-0.664,1.483-1.483,1.483c-0.818,0-1.482-0.664-1.482-1.483
		C35.018,67.292,35.682,66.629,36.5,66.629z"/>
</g>
</svg>
