<?xml version="1.0" encoding="utf-8"?>
<!-- Generator: Adobe Illustrator 16.0.0, SVG Export Plug-In . SVG Version: 6.00 Build 0)  -->
<!DOCTYPE svg PUBLIC "-//W3C//DTD SVG 1.1//EN" "http://www.w3.org/Graphics/SVG/1.1/DTD/svg11.dtd">
<svg version="1.1" xmlns="http://www.w3.org/2000/svg" xmlns:xlink="http://www.w3.org/1999/xlink" x="0px" y="0px" width="100px"
	 height="100px" viewBox="0 0 100 100" enable-background="new 0 0 100 100" xml:space="preserve">
<g id="Titres">
</g>
<g id="Calque_1">
	<path d="M84.714,37.485c-4.9-0.966-8.054-2.837-11.392-4.818c-4.808-2.854-9.78-5.805-20.043-5.805
		c-5.814,0-11.873,2.591-17.194,5.853c-3.986-3.92-6.283-7.719-6.164-10.236c0.002-0.052,0.001-0.104-0.005-0.156
		c-0.188-1.707-1.04-3.247-2.401-4.336c-1.358-1.091-3.063-1.585-4.792-1.396c-1.734,0.19-3.29,1.046-4.379,2.405
		c-0.732,0.908-1.203,1.995-1.37,3.14c-1.948,0.016-3.814,0.902-5.048,2.446c-2.252,2.807-1.801,6.923,1.008,9.177
		c1.534,1.228,3.513,1.702,5.483,1.29c2.235-0.608,4.066-0.682,9.834,3.245c-2.813,2.273-5.069,4.382-6.479,5.768
		c-6.394-2.593-7.344-4.152-8.098-6.396c-0.735-1.815-2.229-3.194-4.098-3.784c-0.64-0.202-1.301-0.304-1.967-0.304
		c-2.863,0-5.364,1.834-6.223,4.563c-0.597,1.884-0.297,3.928,0.771,5.556c-0.856,0.773-1.5,1.768-1.851,2.88
		c-0.526,1.665-0.372,3.434,0.434,4.981c0.806,1.546,2.164,2.686,3.823,3.208c2.177,0.691,4.643,0.138,6.245-1.297l0.281-0.209
		c1.002-0.749,1.554-1.161,3.063-1.161c0.368,0,0.807,0.036,1.279,0.09c-2.293,2.691-5.557,8.166-5.557,12.19
		c0,19.073,30.757,19.073,40.864,19.073C83.426,83.45,100,74.916,100,58.083C100,45.758,95.429,39.598,84.714,37.485z M17.95,33.103
		c-1.331,0.275-2.7-0.055-3.766-0.907c-1.947-1.563-2.261-4.418-0.697-6.367c1.014-1.27,2.642-1.897,4.261-1.639
		c0.294,0.045,0.592-0.039,0.815-0.234s0.35-0.48,0.343-0.777c-0.025-1.064,0.328-2.104,0.996-2.934
		c0.757-0.945,1.836-1.538,3.039-1.67c1.204-0.135,2.38,0.212,3.321,0.969c0.939,0.752,1.512,1.762,1.658,2.924
		c-0.098,3.035,2.229,7.126,6.433,11.348c-1.574,1.036-3.069,2.112-4.458,3.178C23.547,32.59,21.131,32.234,17.95,33.103z
		 M14.152,50.097c-2.174,0-3.141,0.723-4.26,1.559l-0.343,0.26c-1.185,1.054-2.861,1.424-4.384,0.941
		c-1.151-0.362-2.094-1.152-2.651-2.224c-0.559-1.074-0.666-2.301-0.301-3.456c0.324-1.03,0.978-1.879,1.887-2.457
		c0.25-0.159,0.417-0.421,0.456-0.716c0.038-0.294-0.057-0.591-0.259-0.809C3.188,42,2.803,40.292,3.294,38.741
		c0.596-1.894,2.33-3.166,4.315-3.166c0.461,0,0.92,0.071,1.365,0.211c1.298,0.41,2.335,1.368,2.824,2.57
		c1.061,3.164,2.688,4.977,9.819,7.794c0.01,0.004,0.019,0.008,0.029,0.012c0.136,0.054,0.26,0.105,0.4,0.16
		c1.563,0.546,3.407,0.8,5.801,0.8c2.121,0,4.461-0.2,6.938-0.411c2.944-0.251,5.99-0.511,9.268-0.511
		c2.989,0,5.7,0.222,8.288,0.678c6.41,1.131,10.696,3.682,12.739,7.582c2.102,4.011,1.111,8.095,0.6,9.208
		c-1.803,3.916-5.526,5.901-11.066,5.902c-3.64,0-7.871-0.872-12.577-2.593c-6.638-2.427-10.651-6.408-14.193-9.921
		c-2.959-2.935-5.515-5.47-8.891-6.277C16.871,50.314,15.346,50.097,14.152,50.097z M50.739,81.451c-9.612,0-38.864,0-38.864-17.074
		c0-3.803,3.757-9.634,5.688-11.564c0.072-0.073,0.118-0.16,0.164-0.246c0.256,0.053,0.501,0.1,0.777,0.162
		c2.815,0.673,5.188,3.025,7.933,5.749c3.505,3.476,7.866,7.802,14.914,10.379c4.928,1.802,9.391,2.715,13.265,2.715
		c6.3,0,10.755-2.443,12.883-7.065c0.664-1.443,1.842-6.228-0.645-10.973c-2.346-4.478-7.111-7.379-14.163-8.624
		c-2.704-0.477-5.528-0.708-8.636-0.708c-3.362,0-6.59,0.275-9.438,0.519c-2.433,0.208-4.731,0.404-6.768,0.404
		c-1.564,0-2.845-0.119-3.935-0.355c5.125-4.913,17.887-15.907,29.365-15.907c9.714,0,14.235,2.684,19.022,5.525
		c3.337,1.98,6.787,4.028,12.025,5.06C94.039,41.362,98,46.761,98,58.083C98,73.588,82.099,81.451,50.739,81.451z M28.497,76.378
		c-0.152,0.397-0.531,0.641-0.934,0.641c-0.119,0-0.24-0.022-0.359-0.067c-8.754-3.375-12.741-9.284-12.741-13.346
		c0-0.552,0.447-1,1-1s1,0.448,1,1c0,2.838,3.053,8.238,11.46,11.48C28.438,75.284,28.696,75.862,28.497,76.378z"/>
</g>
</svg>
