<?xml version="1.0" encoding="utf-8"?>
<!-- Generator: Adobe Illustrator 16.0.0, SVG Export Plug-In . SVG Version: 6.00 Build 0)  -->
<!DOCTYPE svg PUBLIC "-//W3C//DTD SVG 1.1//EN" "http://www.w3.org/Graphics/SVG/1.1/DTD/svg11.dtd">
<svg version="1.1" xmlns="http://www.w3.org/2000/svg" xmlns:xlink="http://www.w3.org/1999/xlink" x="0px" y="0px" width="100px"
	 height="100px" viewBox="0 0 100 100" enable-background="new 0 0 100 100" xml:space="preserve">
<g id="Calque_2">
</g>
<g id="Calque_1">
	<path d="M99.947,47.237c0-1.043,0-3.214-15.222-4.958C75.443,41.216,63.111,40.63,50,40.63c-4.921,0-9.753,0.085-14.386,0.248
		c-1.005-4.561-1.374-8.321-1.705-11.739c-0.346-3.574-0.645-6.659-1.592-9.825C30.302,12.58,26.701,5.76,23.595,6.69l-2.933,0.876
		c-3.117,0.934-2.369,8.607-0.354,15.342c0.947,3.167,2.393,5.911,4.067,9.088c1.406,2.667,2.931,5.566,4.41,9.186
		C9.721,42.217,0.053,44.253,0.053,47.237c0,0.118,0.001,0.25,0.023,0.396c-0.005,0.04-0.023,0.074-0.023,0.115
		c0,20.115,6.893,33.512,20.916,40.442c-0.001,0.018-0.011,0.033-0.011,0.051v5.262c0,0.362,0.195,0.695,0.512,0.872
		C28.142,98.108,37.741,100,50,100c11.818,0,21.685-2.024,28.53-5.855c0.316-0.176,0.512-0.51,0.512-0.872v-5.033
		c0-0.018-0.01-0.033-0.011-0.051c14.023-6.931,20.916-20.328,20.916-40.442c0-0.041-0.019-0.076-0.023-0.115
		C99.946,47.488,99.947,47.355,99.947,47.237z M22.222,22.335c-2.346-7.84-1.747-12.626-0.986-12.855l2.932-0.876
		c0.776-0.211,3.891,3.443,6.236,11.283c0.892,2.979,1.182,5.976,1.517,9.445c0.463,4.774,0.986,10.187,3.195,17.567l0.162,0.48
		c-0.764-0.024-1.5-0.05-2.216-0.079c-2.187-7.252-4.699-12.024-6.918-16.235C24.517,27.98,23.113,25.316,22.222,22.335z
		 M29.554,43.142c0.473,1.262,0.938,2.614,1.388,4.064c-3.182-0.156-6.156-0.363-9.872-0.622l-0.657-0.046
		c-0.548-0.033-1.027,0.377-1.066,0.927c-0.038,0.55,0.377,1.027,0.928,1.066l0.657,0.046c9.318,0.65,13.996,0.976,28.857,0.976
		c0.553,0,0.999-0.447,0.999-0.999s-0.446-0.999-0.999-0.999c-5.149,0-9.069-0.04-12.384-0.118c-0.002-0.004,0-0.007-0.002-0.01
		l-0.384-1.135c-0.359-1.199-0.657-2.329-0.933-3.43c4.487-0.153,9.157-0.234,13.914-0.234c28.498,0,46.094,2.681,47.882,4.609
		c-1.79,1.928-19.385,4.61-47.882,4.61c-28.489,0-46.082-2.68-47.881-4.608C3.256,46.063,11.254,44.108,29.554,43.142z
		 M77.044,92.681c-6.529,3.483-15.86,5.321-27.044,5.321c-11.432,0-20.763-1.759-27.044-5.092v-3.803
		c7.26,3.131,16.258,4.692,27.044,4.692s19.784-1.561,27.044-4.692V92.681z M50,91.801c-31.615,0-47.301-13.846-47.921-42.292
		c1.941,0.876,5.74,1.833,13.194,2.687c9.283,1.064,21.615,1.65,34.727,1.65c13.11,0,25.442-0.586,34.726-1.65
		c7.455-0.854,11.254-1.811,13.194-2.687C97.301,77.955,81.615,91.801,50,91.801z M46.111,28.792c-2-3.813-1.826-8.638,0.443-12.294
		c0.888-1.439,2.043-2.647,3.16-3.815c0.472-0.493,0.942-0.985,1.393-1.495c1.741-1.973,2.609-3.742,2.654-5.405
		c0.049-1.729-1.182-3.714-2.9-3.786c-0.551-0.023-0.979-0.489-0.956-1.04S50.403-0.014,50.945,0
		c2.975,0.125,4.891,3.119,4.814,5.837c-0.059,2.15-1.09,4.333-3.154,6.673c-0.468,0.529-0.957,1.042-1.446,1.553
		c-1.094,1.144-2.127,2.224-2.906,3.486c-1.904,3.068-2.05,7.116-0.372,10.315c0.257,0.488,0.068,1.092-0.42,1.349
		c-0.148,0.077-0.308,0.114-0.464,0.114C46.638,29.327,46.29,29.133,46.111,28.792z M58.826,32.905
		c-1.936-3.41-1.616-7.967,0.778-11.084c0.385-0.5,0.808-0.952,1.217-1.39c0.526-0.562,1.023-1.093,1.406-1.684
		c0.898-1.401,1.139-3.182,0.638-4.761c-0.167-0.526,0.125-1.087,0.65-1.254c0.529-0.169,1.088,0.125,1.254,0.65
		c0.678,2.139,0.355,4.549-0.863,6.447c-0.481,0.742-1.063,1.364-1.626,1.966c-0.395,0.421-0.766,0.819-1.092,1.242
		c-1.919,2.497-2.176,6.148-0.625,8.878c0.272,0.48,0.104,1.09-0.375,1.362c-0.156,0.088-0.326,0.13-0.492,0.13
		C59.349,33.411,59.01,33.229,58.826,32.905z"/>
</g>
</svg>
