<?xml version="1.0" encoding="utf-8"?>
<!-- Generator: Adobe Illustrator 16.0.0, SVG Export Plug-In . SVG Version: 6.00 Build 0)  -->
<!DOCTYPE svg PUBLIC "-//W3C//DTD SVG 1.1//EN" "http://www.w3.org/Graphics/SVG/1.1/DTD/svg11.dtd">
<svg version="1.1" xmlns="http://www.w3.org/2000/svg" xmlns:xlink="http://www.w3.org/1999/xlink" x="0px" y="0px" width="100px"
	 height="100px" viewBox="0 0 100 100" enable-background="new 0 0 100 100" xml:space="preserve">
<g id="Calque_2">
</g>
<g id="v2">
	<path d="M73.814,82.688h-2.743l0.012-0.012c0.188-0.188,0.293-0.441,0.293-0.707s-0.105-0.52-0.293-0.707l-3.166-3.165l0.049-0.015
		c0.255-0.074,0.469-0.246,0.597-0.479c0.127-0.232,0.157-0.506,0.083-0.761l-2.865-9.825c-0.155-0.53-0.71-0.833-1.24-0.68
		l-9.825,2.863c-0.254,0.074-0.469,0.246-0.597,0.479c-0.127,0.233-0.157,0.507-0.083,0.762l2.704,9.276l-1.545,1.545
		c-0.391,0.391-0.391,1.023,0,1.414l7.236,7.237c0.042,0.043,0.098,0.064,0.147,0.099v3.911c0,0.553,0.448,1,1,1h10.235
		c0.552,0,1-0.447,1-1V83.688C74.814,83.136,74.366,82.688,73.814,82.688z M56.237,70.842l7.905-2.304l2.305,7.905l-0.143,0.041
		l-2.458-2.458c-0.391-0.391-1.023-0.391-1.414,0l-4.078,4.078L56.237,70.842z M57.317,81.97l5.822-5.822l5.823,5.822l-5.823,5.823
		L57.317,81.97z M72.814,92.924h-8.235v-3.743l4.747-4.747c0.176,0.153,0.399,0.255,0.65,0.255h2.838V92.924z M78.652,37.517
		c0-3.038-6.939-4.627-13.794-4.627c-1.584,0-3.388,0.103-5.158,0.322c0.023-0.084,0.052-0.167,0.052-0.26
		c0-2.477-3.659-4.829-7.532-7.319c-2.027-1.304-5.42-3.485-5.465-4.323V10.956h0.192c0.552,0,1-0.448,1-1V1c0-0.552-0.448-1-1-1
		H34.153c-0.552,0-1,0.448-1,1v8.956c0,0.552,0.448,1,1,1h0.192v10.353c-0.045,0.839-3.438,3.021-5.465,4.324
		c-3.874,2.49-7.532,4.843-7.532,7.319v60.564c0,2.904,12.031,3.338,19.203,3.338c3.836,0,7.592-0.157,10.71-0.445
		C52.515,99.215,60.165,100,64.858,100c5.124,0,13.794-0.915,13.794-4.344V37.631c0-0.02-0.01-0.037-0.012-0.057
		C78.642,37.554,78.652,37.537,78.652,37.517z M53.064,40.57c0.021-0.078,0.021-0.161,0.023-0.245
		c2.795,1.465,7.931,2.046,11.771,2.046c4.602,0,9.241-0.716,11.794-2.106v5.364c-2.551-1.394-7.187-2.115-11.794-2.115
		c-4.491,0-9.205,0.653-11.794,2.039V40.57z M51.064,63.696c-6.274,0.58-14.802,0.586-21.07-0.002l0.001-22.283
		c3.083,0.278,6.781,0.43,10.555,0.43c3.755,0,7.436-0.15,10.514-0.426V63.696z M64.858,45.515c7.184,0,11.333,1.717,11.752,2.545
		c-0.419,0.829-4.568,2.547-11.752,2.547c-7.785,0-11.634-1.845-11.792-2.543C53.228,47.358,57.075,45.515,64.858,45.515z
		 M76.652,37.524c0,0.019,0.01,0.034,0.011,0.053c-0.001,0.019-0.011,0.035-0.011,0.054v0.107
		c-0.182,0.791-4.397,2.633-11.794,2.633c-7.763,0-11.634-1.853-11.794-2.546v-0.195c0-0.033-0.016-0.062-0.019-0.094
		c0.003-0.031,0.018-0.058,0.018-0.089c0.161-0.705,4.032-2.557,11.795-2.557C72.254,34.89,76.471,36.733,76.652,37.524z M35.153,2
		h10.794v6.956H35.153V2z M23.348,93.207V32.952c0-1.385,3.98-3.944,6.614-5.637c3.958-2.545,6.384-4.196,6.384-6.005V10.956h8.41
		V21.31c0,1.809,2.426,3.46,6.383,6.005c2.634,1.693,6.614,4.252,6.614,5.637c0,0.196,0.071,0.369,0.169,0.523
		c-3.711,0.654-6.857,1.902-6.857,3.961c0,0.035,0.016,0.064,0.02,0.098c-0.003,0.034-0.02,0.063-0.02,0.097v1.774
		c-3.055,0.281-6.741,0.436-10.514,0.436c-4.168,0-8.234-0.187-11.45-0.527c-0.282-0.025-0.563,0.062-0.774,0.251
		s-0.331,0.459-0.331,0.743L27.995,64.6c0,0.512,0.386,0.94,0.895,0.994c3.384,0.357,7.526,0.555,11.661,0.555
		c3.68,0,7.362-0.157,10.514-0.443V94.42c-3.055,0.28-6.742,0.435-10.514,0.435C30.976,94.854,24.626,93.929,23.348,93.207z
		 M64.858,98c-7.852,0-11.619-1.731-11.794-2.407V64.876c0.035-0.121,0.05-0.249,0.036-0.382c-0.004-0.042-0.027-0.075-0.036-0.115
		V50.568c2.589,1.386,7.303,2.039,11.794,2.039c4.607,0,9.243-0.722,11.794-2.115l0.001,45.15C76.473,96.313,72.698,98,64.858,98z"
		/>
</g>
</svg>
