<?xml version="1.0" encoding="utf-8"?>
<!-- Generator: Adobe Illustrator 16.0.0, SVG Export Plug-In . SVG Version: 6.00 Build 0)  -->
<!DOCTYPE svg PUBLIC "-//W3C//DTD SVG 1.1//EN" "http://www.w3.org/Graphics/SVG/1.1/DTD/svg11.dtd">
<svg version="1.1" xmlns="http://www.w3.org/2000/svg" xmlns:xlink="http://www.w3.org/1999/xlink" x="0px" y="0px" width="100px"
	 height="100px" viewBox="0 0 100 100" enable-background="new 0 0 100 100" xml:space="preserve">
<g id="Calque_1">
</g>
<g id="Calque_2">
	<path d="M38.092,47.098c-0.369,0-0.741,0.038-1.105,0.113c-1.429,0.294-2.656,1.127-3.458,2.346
		c-0.801,1.218-1.08,2.675-0.785,4.103c0.518,2.524,2.764,4.356,5.341,4.356c0.369,0,0.74-0.037,1.104-0.112
		c2.948-0.609,4.853-3.503,4.244-6.449C42.911,48.93,40.665,47.098,38.092,47.098z M38.785,55.944
		c-1.846,0.378-3.708-0.859-4.083-2.688c-0.188-0.905-0.011-1.829,0.497-2.601s1.285-1.299,2.19-1.485
		c0.231-0.048,0.469-0.072,0.702-0.072c1.63,0,3.052,1.161,3.382,2.761C41.859,53.726,40.652,55.559,38.785,55.944z M34.858,41.845
		c-0.111-0.541,0.236-1.07,0.777-1.182c0.548-0.108,1.07,0.237,1.182,0.777l0.6,2.91c0.111,0.541-0.236,1.07-0.777,1.182
		c-0.068,0.014-0.137,0.021-0.203,0.021c-0.465,0-0.881-0.325-0.979-0.798L34.858,41.845z M41.317,63.269
		c0.111,0.541-0.236,1.07-0.777,1.182c-0.068,0.014-0.137,0.021-0.203,0.021c-0.465,0-0.881-0.325-0.979-0.798l-0.6-2.91
		c-0.111-0.541,0.236-1.07,0.777-1.182c0.546-0.108,1.07,0.237,1.182,0.777L41.317,63.269z M49.204,51.287l-2.91,0.6
		c-0.068,0.014-0.137,0.021-0.203,0.021c-0.465,0-0.881-0.325-0.979-0.798c-0.111-0.541,0.236-1.07,0.777-1.182l2.91-0.6
		c0.548-0.109,1.07,0.237,1.182,0.777C50.093,50.646,49.745,51.176,49.204,51.287z M30.286,55.188l-2.912,0.6
		c-0.068,0.014-0.137,0.021-0.203,0.021c-0.465,0-0.881-0.325-0.979-0.798c-0.111-0.541,0.237-1.07,0.777-1.182l2.912-0.6
		c0.548-0.111,1.07,0.237,1.182,0.777C31.175,54.547,30.826,55.076,30.286,55.188z M41.745,45.183l1.635-2.484
		c0.303-0.461,0.923-0.591,1.385-0.285c0.461,0.303,0.589,0.923,0.285,1.385l-1.635,2.484c-0.191,0.292-0.511,0.45-0.836,0.45
		c-0.188,0-0.379-0.053-0.549-0.165C41.569,46.265,41.441,45.645,41.745,45.183z M34.432,59.933l-1.633,2.483
		c-0.192,0.292-0.512,0.45-0.837,0.45c-0.188,0-0.379-0.053-0.549-0.164c-0.461-0.304-0.589-0.924-0.286-1.386l1.633-2.483
		c0.305-0.461,0.924-0.589,1.386-0.286C34.606,58.851,34.734,59.471,34.432,59.933z M48.231,59.235
		c-0.191,0.292-0.511,0.45-0.836,0.45c-0.188,0-0.379-0.053-0.549-0.165l-2.484-1.635c-0.461-0.303-0.589-0.923-0.285-1.385
		C44.38,56.04,45,55.91,45.462,56.216l2.484,1.635C48.407,58.153,48.535,58.773,48.231,59.235z M27.946,45.878
		c0.304-0.459,0.924-0.588,1.386-0.284l2.48,1.636c0.461,0.304,0.588,0.925,0.284,1.386c-0.192,0.291-0.511,0.449-0.836,0.449
		c-0.188,0-0.38-0.054-0.55-0.165l-2.48-1.636C27.77,46.96,27.643,46.339,27.946,45.878z M84.716,11.386l1.308-6.535
		c0.059-0.294-0.018-0.599-0.207-0.83c-0.19-0.231-0.474-0.366-0.773-0.366H50.472c-0.024-0.086-0.056-0.17-0.102-0.246
		C50.268,0.248,39.37,0,36.018,0c-3.358,0-14.293,0.248-14.354,3.426c-0.179,0.307-0.201,0.692-0.005,1.017l4.227,6.984
		l2.204,10.767c-3.807,0.406-5.435,1.107-5.585,2.384c-2.482,7.571-6.767,47.669-8.52,67.587c-0.001,0.014,0.005,0.025,0.004,0.039
		c0,0.014-0.008,0.025-0.008,0.039c-0.016,1.533-0.023,3.091-0.023,4.674c0,1.003,0.534,1.712,7.68,2.396
		C26.26,99.756,32.103,100,38.088,100s11.828-0.244,16.452-0.688c7.146-0.685,7.681-1.394,7.681-2.396
		c0-0.122-0.002-0.238-0.002-0.359c0.817,0.027,1.643,0.046,2.477,0.046c4.008,0,13.33-0.298,13.33-3.061V76.439L84.716,11.386z
		 M53.675,24.588c-0.126-1.122-1.483-1.973-6.86-2.457l2.024-9.89h33.777L76.05,76.094c-0.798,0.508-4.741,1.385-11.354,1.385
		c-1.346,0-2.648-0.047-3.911-0.121C58.712,56.777,55.634,30.575,53.675,24.588z M82.905,10.241H49.249l0.938-4.587h33.636
		L82.905,10.241z M36.018,2c6.591,0,10.688,0.847,12.014,1.452c-1.326,0.604-5.424,1.45-12.014,1.45
		c-6.591,0-10.688-0.846-12.014-1.45C25.328,2.847,29.427,2,36.018,2z M27.686,10.539l-2.853-4.714
		c3.516,0.971,8.98,1.077,11.185,1.077c2.42,0,8.771-0.129,12.158-1.388l-3.461,16.898c-0.69,0.354-3.36,1.033-7.27,1.033
		s-6.579-0.68-7.27-1.033L27.81,10.856C27.787,10.744,27.745,10.637,27.686,10.539z M29.168,24.1
		c2.272,1.326,7.977,1.347,8.277,1.347c0.307,0,6.239-0.025,8.406-1.437c0.072,0.022,0.14,0.056,0.219,0.063
		c3.198,0.258,4.65,0.619,5.285,0.85c-1.469,1.081-6.672,3.15-13.268,3.15c-6.697,0-11.959-2.134-13.333-3.2
		C25.269,24.662,26.477,24.336,29.168,24.1z M38.088,98c-12.072,0-20.319-0.969-22.131-1.582c0.002-1.393,0.01-2.765,0.023-4.119
		c1.65-18.751,5.529-55.335,7.999-65.568c2.689,1.817,8.595,3.342,14.108,3.342s11.419-1.524,14.108-3.342
		c2.469,10.229,6.348,46.814,7.999,65.568c0.016,1.353,0.023,2.727,0.025,4.119C58.409,97.03,50.161,98,38.088,98z M76.025,93.266
		c-0.861,0.512-4.704,1.337-11.33,1.337c-0.838,0-1.668-0.02-2.487-0.048c-0.004-0.771-0.004-1.556-0.013-2.314
		c0-0.013-0.008-0.024-0.008-0.037c-0.001-0.014,0.005-0.025,0.004-0.039c-0.324-3.685-0.735-8.063-1.205-12.794
		c1.204,0.065,2.437,0.108,3.709,0.108c2.844,0,8.364-0.151,11.33-1.237V93.266z M63.307,20.641c0.127,0.345,0.189,0.734,0.189,1.17
		c0,0.435-0.088,0.822-0.26,1.163c-0.174,0.342-0.41,0.63-0.709,0.866c-0.301,0.237-0.652,0.419-1.057,0.543
		c-0.404,0.127-0.834,0.189-1.293,0.189c-0.273,0-0.557-0.025-0.844-0.073c-0.287-0.05-0.555-0.125-0.801-0.227
		c-0.246-0.101-0.459-0.228-0.637-0.381c-0.18-0.152-0.297-0.334-0.35-0.543c-0.045-0.096-0.068-0.189-0.068-0.28
		c0-0.072,0.014-0.146,0.039-0.218c0.027-0.072,0.064-0.136,0.113-0.188c0.047-0.054,0.104-0.099,0.172-0.132
		c0.064-0.035,0.139-0.052,0.219-0.052c0.072,0,0.15,0.022,0.23,0.067c0.084,0.046,0.172,0.102,0.271,0.163
		c0.096,0.063,0.199,0.13,0.309,0.198c0.107,0.068,0.223,0.123,0.346,0.165c0.133,0.05,0.271,0.086,0.416,0.11
		c0.145,0.023,0.293,0.033,0.441,0.033c0.203,0,0.389-0.028,0.564-0.089c0.172-0.06,0.322-0.15,0.449-0.273
		c0.125-0.124,0.223-0.28,0.297-0.467c0.072-0.187,0.107-0.408,0.107-0.663c0-0.24-0.027-0.454-0.082-0.642
		c-0.055-0.187-0.135-0.345-0.236-0.474c-0.104-0.13-0.227-0.229-0.367-0.295c-0.141-0.067-0.299-0.101-0.471-0.101
		c-0.193,0-0.357,0.027-0.486,0.08c-0.133,0.054-0.246,0.12-0.342,0.201c-0.096,0.079-0.18,0.168-0.256,0.263
		c-0.078,0.096-0.158,0.183-0.244,0.264c-0.086,0.079-0.184,0.146-0.291,0.199c-0.109,0.053-0.246,0.08-0.41,0.08
		c-0.24,0-0.432-0.078-0.572-0.232s-0.211-0.392-0.211-0.717v-3.295c0-0.199,0.025-0.358,0.074-0.48
		c0.049-0.121,0.127-0.218,0.229-0.286c0.104-0.068,0.234-0.115,0.395-0.139c0.16-0.025,0.352-0.038,0.572-0.038h3.678
		c0.1,0,0.191,0.013,0.281,0.04c0.086,0.027,0.164,0.067,0.23,0.123c0.068,0.055,0.119,0.125,0.156,0.212
		c0.039,0.085,0.059,0.189,0.059,0.312c0,0.236-0.072,0.409-0.217,0.52c-0.146,0.111-0.352,0.167-0.619,0.167h-3.133l-0.059,2.225
		c0.496-0.47,1.113-0.703,1.854-0.703c0.363,0,0.697,0.064,1.004,0.193c0.307,0.131,0.572,0.315,0.795,0.558
		C63.008,20.002,63.182,20.296,63.307,20.641z M66.168,24.29c0.418,0.223,0.934,0.334,1.543,0.334c0.408,0,0.773-0.052,1.096-0.154
		s0.605-0.249,0.85-0.436c0.244-0.186,0.451-0.41,0.623-0.671s0.313-0.55,0.42-0.867c0.109-0.316,0.189-0.654,0.238-1.015
		s0.074-0.735,0.074-1.125c0-0.59-0.061-1.145-0.178-1.664c-0.117-0.518-0.309-0.971-0.568-1.355
		c-0.262-0.385-0.602-0.689-1.021-0.912s-0.932-0.335-1.533-0.335c-0.416,0-0.785,0.053-1.109,0.157s-0.609,0.252-0.852,0.44
		c-0.244,0.189-0.451,0.416-0.623,0.678c-0.168,0.263-0.307,0.553-0.412,0.869c-0.109,0.317-0.184,0.654-0.232,1.014
		c-0.047,0.358-0.072,0.728-0.072,1.108c0,0.591,0.059,1.146,0.172,1.663c0.115,0.516,0.303,0.968,0.563,1.355
		C65.408,23.762,65.748,24.065,66.168,24.29z M66.508,19.195c0.031-0.35,0.092-0.652,0.182-0.906s0.217-0.449,0.381-0.589
		c0.164-0.139,0.377-0.209,0.641-0.209s0.477,0.071,0.641,0.212c0.164,0.142,0.291,0.339,0.383,0.593
		c0.092,0.252,0.154,0.556,0.188,0.905c0.031,0.352,0.047,0.736,0.047,1.155c0,0.432-0.018,0.823-0.051,1.174
		c-0.033,0.35-0.098,0.649-0.188,0.897c-0.092,0.249-0.221,0.44-0.385,0.577c-0.164,0.139-0.375,0.206-0.635,0.206
		c-0.264,0-0.477-0.067-0.641-0.206c-0.164-0.137-0.291-0.331-0.381-0.583c-0.09-0.251-0.15-0.552-0.182-0.902
		c-0.033-0.352-0.049-0.738-0.049-1.163C66.459,19.934,66.475,19.546,66.508,19.195z M72.234,19.862
		c-0.049-0.076-0.072-0.173-0.072-0.291c0-0.099,0.02-0.185,0.059-0.257c0.041-0.073,0.096-0.133,0.164-0.18
		c0.068-0.049,0.148-0.084,0.24-0.107c0.092-0.021,0.189-0.032,0.297-0.032h1.596v-1.558c0-0.08,0.008-0.164,0.023-0.255
		c0.016-0.088,0.043-0.171,0.086-0.245c0.041-0.074,0.102-0.136,0.18-0.186s0.178-0.074,0.301-0.074
		c0.105,0,0.197,0.021,0.271,0.062c0.074,0.043,0.135,0.102,0.184,0.172c0.047,0.073,0.082,0.154,0.102,0.247
		c0.021,0.092,0.031,0.184,0.031,0.279v1.558h1.604c0.078,0,0.164,0.007,0.254,0.024c0.088,0.017,0.17,0.046,0.246,0.089
		c0.074,0.042,0.137,0.101,0.186,0.178c0.049,0.075,0.074,0.172,0.074,0.285c0,0.104-0.021,0.191-0.064,0.267
		c-0.041,0.074-0.096,0.136-0.168,0.183c-0.07,0.047-0.15,0.082-0.242,0.104c-0.092,0.021-0.188,0.031-0.285,0.031h-1.604v1.549
		c0,0.081-0.008,0.166-0.025,0.256c-0.018,0.089-0.047,0.172-0.088,0.245c-0.043,0.074-0.102,0.137-0.182,0.183
		c-0.078,0.049-0.174,0.072-0.293,0.072c-0.207,0-0.355-0.071-0.449-0.212s-0.141-0.322-0.141-0.544v-1.549h-1.596
		c-0.084,0-0.17-0.009-0.26-0.025c-0.09-0.018-0.172-0.047-0.246-0.09C72.342,19.999,72.279,19.939,72.234,19.862z"/>
</g>
</svg>
