<svg id="Calque_1" data-name="Calque 1" xmlns="http://www.w3.org/2000/svg" viewBox="0 0 300 300"><defs><style>.cls-1{fill:#1d1d1b;}.cls-2{fill:none;stroke:#000;stroke-linejoin:round;stroke-width:5px;}</style></defs><title>picto_sud_ouest</title><path class="cls-1" d="M149.83,6.23A144,144,0,0,1,251.65,252.05,144,144,0,1,1,48,48.4,143.07,143.07,0,0,1,149.83,6.23m0-6a150,150,0,1,0,150,150,150,150,0,0,0-150-150Z" transform="translate(0.17 -0.23)"/><path class="cls-2" d="M228.09,149.14c9-18.92,9.47-38.69,8.72-49.83A16.44,16.44,0,0,0,230,87l.14-.08c-.23-.11-.47-.21-.7-.33a16.16,16.16,0,0,0-2.24-1.23,36.6,36.6,0,0,0-5.3-1.86c-14.61-5.12-32.14-6.86-39.85-5.82-1.43,0-3,0-4.62.16-1.92,0-3.84.11-5.75.26a110.16,110.16,0,0,0-35.52,8.92A120.32,120.32,0,0,0,76,144.68c-18.93,35.44-13.19,62.1-10.29,68.43.78,3.13,3,5.88,6.21,6.46,43,7.9,89.35,3.63,123.71-27.39A104.15,104.15,0,0,0,228.09,149.14Zm-108.24-1.72a30.64,30.64,0,0,0-6.26-4.18q3.06-3.37,6.3-6.57a26.87,26.87,0,0,1,5.76,3.67,3.36,3.36,0,0,0,4.55-5,28,28,0,0,0-5.16-3.57q3.69-3.31,7.55-6.39a27.82,27.82,0,0,1,6.23,3.9,3.36,3.36,0,1,0,4.55-5A27.58,27.58,0,0,0,138.5,121q3.76-2.72,7.69-5.17a27.86,27.86,0,0,1,6.3,3.93,3.36,3.36,0,0,0,4.55-4.94,24.93,24.93,0,0,0-4.11-3c1.77-1,3.55-1.92,5.36-2.82l.1,0a31.4,31.4,0,0,1,7.39,4.46,3.36,3.36,0,1,0,4.55-5,26.25,26.25,0,0,0-4.35-3.11q2.07-.87,4.17-1.68a22.12,22.12,0,0,1,4.79,3,3.36,3.36,0,1,0,4.55-4.94,13,13,0,0,0-1.11-.93c6.66-2.06,29.37-8.79,35.34-7.9,4.19,2.29,10.67,7.24,17.91,23a11.65,11.65,0,0,1,.09,4c-14.79,58.58-54,86-120.06,93-4.94-12-21.13-26-25.86-28.5,5.34-11.18,16.57-31.42,21.09-36.84,2.55,1.26,7,3.29,8.41,4.58a3.36,3.36,0,0,0,4.55-4.94ZM225.5,88c-4.52,0-11.89.08-12.42-.27a57,57,0,0,0-11.88-6C214.11,83.53,222.23,86.54,225.5,88Zm8.74,13.23a102.28,102.28,0,0,1,.15,12.83c-.94-4.45-8-14.28-16.86-22.13-.89-.79,7.72-.87,11.58-1.67A17.15,17.15,0,0,1,234.24,101.19ZM163.81,80.81c3.34-.51,9.36-.74,13.49-.93l-.42.22c3,0,5.76.05,8.47.16a66.39,66.39,0,0,1,20.87,7.82c-7.93.65-29.34,5.91-36.75,8a72.33,72.33,0,0,0-8.79-3.17c-1.8-.45-2.88-.29-3.33,1.51s1.93,3.54,3.73,4l-1.86,1c-1.62.13-1.77,2.6-5.37.44-2.59-1-4.76-1.66-5.83-1.93a3.36,3.36,0,0,0-1.63,6.52c.24.06.53.14.88.25-1.46.74-2.9,1.5-4.33,2.3a78.94,78.94,0,0,0-8.21-2.85,3.36,3.36,0,1,0-1.63,6.52c.54.14,1.4.4,2.47.76q-3.58,2.33-7,4.88a76.39,76.39,0,0,0-7.49-2.56,3.36,3.36,0,0,0-1.63,6.52c.62.16,1.66.48,3,.92q-3.52,3-6.85,6.19a76.53,76.53,0,0,0-7.65-2.62,3.36,3.36,0,0,0-1.63,6.52c.8.2,2.3.67,4.14,1.34q-3,3.19-5.75,6.58a73.18,73.18,0,0,0-7.11-2.41,3.36,3.36,0,1,0-1.63,6.52c.84.21,2.44.72,4.42,1.43-4.07,5.51-16.56,27.91-19.61,37.82-3.69-1.51-7.7-3.41-11.81-4.73a160.62,160.62,0,0,1,6.34-20.49C92.86,121.58,125.17,86.74,163.81,80.81Zm-93,131.53c-1.29-.18-2.46.48-3.39-2.53-2-8.5-1.25-18.35.59-27.74a6.65,6.65,0,0,0,1.65.87,56.81,56.81,0,0,1,9,4.09C75.55,196.21,72.1,202.55,70.81,212.34ZM83.9,189.85c8.17,4.53,14.85,7.83,23.86,23.67q-11.2,1-23.4,1.35a102.46,102.46,0,0,1-10.24-1.52S80.22,198.23,83.9,189.85Z" transform="translate(0.17 -0.23)"/></svg>