<svg id="Calque_1" data-name="Calque 1" xmlns="http://www.w3.org/2000/svg" viewBox="0 0 300 300"><defs><style>.cls-1{fill:#1d1d1b;}</style></defs><title>picto_sarthe</title><path class="cls-1" d="M150,6A144,144,0,0,1,251.82,251.82,144,144,0,1,1,48.18,48.18,143,143,0,0,1,150,6m0-6A150,150,0,1,0,300,150,150,150,0,0,0,150,0Z"/><path class="cls-1" d="M204.22,200.89c-30,0-51.09-19.77-60-56.47a8.35,8.35,0,0,1-4.8-1.13c-3.32-1.72-5.35-4-6-6.72a8.11,8.11,0,0,1-.22-1.58,8.13,8.13,0,0,1-4.33-.44c-1.51-.64-3.49-2.15-4.31-5.73-.62-2.71-.44-4.84.55-6.35l-5.12-2.58a2.5,2.5,0,0,1,1-4.73l7.23-.24-10-7.29a2.5,2.5,0,0,1,1.8-4.5l12.58,1.66-.2-.2c-2.39-2.42-3.39-4.85-3-7.23.45-2.63,2.51-4.77,6.29-6.57a5.25,5.25,0,0,1,4.29-.12,7.84,7.84,0,0,1,2.38,1.58c.34-3.1,1.22-6.27,3.23-8.43A8.52,8.52,0,0,1,153,81.23c3.75.36,5.51,2.31,6.32,3.89,1.32,2.56,1.06,5.92.23,9.07a7.08,7.08,0,0,1,7,2.33c2.83,2.94,3.76,6.42,2.55,9.56-1.31,3.38-4.88,5.82-9.81,6.79,2.26,5.37,10.39,17.33,38.09,17,38-.56,44.5-3.3,53.93-13.86,9.05-10.13,15.37-16.74,20.66-16.4a6,6,0,0,1,4.67,2.84c3.22,4.72,0,11.29-2.6,15.21a6.74,6.74,0,0,1,.62.47c1.67,1.46,2.36,3.76,2.06,6.83-.59,6.18-5.75,11.06-7.92,12.85a87.55,87.55,0,0,1-8.48,28.7c-7,14-21.2,31.32-48.93,34.05Q207.72,200.89,204.22,200.89Zm-58.67-64.34a2.49,2.49,0,0,1,2.44,2c5.84,28.26,21.5,61.08,62.9,57,20.39-2,35.49-12.49,44.88-31.16a83.07,83.07,0,0,0,8.14-28.08,2.51,2.51,0,0,1,1-1.86c.06,0,6.28-4.6,6.8-10,.15-1.53-.12-2.35-.38-2.59a1.71,1.71,0,0,0-1.07-.18,2.5,2.5,0,0,1-2.46-4.05c2.36-2.81,6.62-9.54,4.67-12.4-.43-.63-.72-.65-.87-.66-3.29-.23-11.61,9.15-16.6,14.74-11.17,12.52-20.32,15-57.59,15.52-39.33.59-43.74-22.64-43.9-23.63a2.46,2.46,0,0,1,.5-2,2.5,2.5,0,0,1,1.79-.95c5.34-.37,8-2.39,8.59-4s-.46-3.23-1.49-4.3a2.33,2.33,0,0,0-2-1c-2,.2-4.43,3.11-5.29,4.48a2.5,2.5,0,0,1-4.29-2.58c2.31-4,4.93-10.86,3.55-13.52-.14-.28-.53-1-2.35-1.21a3.55,3.55,0,0,0-3.22,1c-2.75,3-2.08,11.12-1.63,13.74a2.5,2.5,0,0,1-4.8,1.32c-1-2.52-3.15-6.35-4.7-7-.17-.07-.21,0-.29,0-2,1-3.36,2.07-3.51,2.92-.12.66.47,1.7,1.6,2.85a21.24,21.24,0,0,0,8.34,5.28,2.5,2.5,0,0,1-1,4.89l-14.25-1.87,7.92,5.78a2.5,2.5,0,0,1-1.39,4.52l-4.69.16,2,1a2.5,2.5,0,0,1-2,4.57,3.31,3.31,0,0,0-1.74-.17,5.1,5.1,0,0,0,.17,2.45c.28,1.21.74,2,1.37,2.24,1.33.56,3.71-.43,4.66-1a2.5,2.5,0,0,1,3.34,3.58h0a4,4,0,0,0-.51,2.9c.41,1.56,2.11,2.73,3.46,3.42a6.53,6.53,0,0,0,1.34.56c0-.1,0-.22,0-.37a2.49,2.49,0,0,1,2.26-2.47Zm-2.61,3.27Zm63,45.81a18.24,18.24,0,0,1-5.65-1c-3.09-1-13.57-5-18.48-12.81a2.5,2.5,0,0,1,3.36-3.5,28.15,28.15,0,0,1,3.73,2.68,14.74,14.74,0,0,0,4.81,3,4.41,4.41,0,0,0,4.12-.64,2.23,2.23,0,0,0,.48-2.74,2.5,2.5,0,0,1,2.59-4,56.08,56.08,0,0,0,6.78,1.47,3.93,3.93,0,0,0,1.48.06s.11,0,.2-.28a3.07,3.07,0,0,0-.2-2.18,15,15,0,0,0-1.53-2.29,18.23,18.23,0,0,1-2.17-3.42,2.51,2.51,0,0,1,3.45-3.24c.2.11.5,0,.66-.11a2.18,2.18,0,0,0,1.1-1.57c.16-1.87-1.52-3.72-2.53-4.65-.62-.57-1.28-1.11-2-1.68a25.4,25.4,0,0,1-4-3.78,2.5,2.5,0,0,1,2.86-3.89,64.72,64.72,0,0,1,12.16,6.33c4.89,3.26,7.13,6.86,6.67,10.7h0a7.65,7.65,0,0,1-3.94,5.64,8.6,8.6,0,0,1,2.27,6.81c-.51,3.84-3.82,6.34-7.33,7.06a6.29,6.29,0,0,1-1.2,4.56C211.94,184.44,209.22,185.63,205.9,185.63Zm-7.38-7c1.13.49,2.24.9,3.3,1.25,2.69.89,6.33,1.25,7.7-.66a1.37,1.37,0,0,0,.31-.93c-.12-.56-1.23-1-2.8-1.56a14.57,14.57,0,0,1-4.17-2,7.28,7.28,0,0,1-1.72,2.35A8.2,8.2,0,0,1,198.52,178.64Zm12.76-6a7.16,7.16,0,0,0,1.37.14c2,.08,4.27-1.15,4.5-2.91s-1.27-3.31-2.93-4.67a7.77,7.77,0,0,1-.22,4.42A5.41,5.41,0,0,1,211.28,172.65ZM214,159.37a2.46,2.46,0,0,1,1.05.23,3,3,0,0,0,3.81-2.12h0c.24-2-1.65-3.89-3.59-5.32a8.54,8.54,0,0,1,.4,3.31,7,7,0,0,1-1.69,3.9Z"/><path class="cls-1" d="M94.35,214.33a2.5,2.5,0,0,1-.49-5l9.44-1.9a69.92,69.92,0,0,0,14.31-22.6,2.54,2.54,0,0,1,.54-1.58l.35-.44a2.5,2.5,0,0,1,4.31,2.4,74.9,74.9,0,0,1-16.45,26.25,2.44,2.44,0,0,1-1.3.72l-10.21,2.05A2.12,2.12,0,0,1,94.35,214.33Z"/><path class="cls-1" d="M145.68,223.42a2.53,2.53,0,0,1-1.22-.32,2.49,2.49,0,0,1-1-3.4l3.89-7A63.13,63.13,0,0,0,137,181.17a2.5,2.5,0,0,1,4.18-2.76,68.24,68.24,0,0,1,11.23,34.82,2.52,2.52,0,0,1-.31,1.32l-4.25,7.59A2.5,2.5,0,0,1,145.68,223.42Z"/><path class="cls-1" d="M111.08,195.32c-9.53,0-20.58-2.3-32.48-9.08-16.09-9.16-21.29-30.76-22.95-42.65a10,10,0,0,1-4.87,2.73,4.85,4.85,0,0,1-5-1.73,5.38,5.38,0,0,1-.52-4.89c-2.14-1.1-4.77-3.06-5-6.1-.2-2.87,1.83-5.54,6.17-8.11l-7.88-8.26a2.47,2.47,0,0,1-.45-2.79,2.33,2.33,0,0,1,.53-.74l-4.37-1.41a2.5,2.5,0,0,1,.33-4.84l18.57-3.26c0-4.1.09-12.6,1.79-16.43,1.11-2.5,3.31-3.67,5.59-3a6.71,6.71,0,0,1,3.88,3.76c1.72-3.7,4.07-7.24,7.16-8.93A8.56,8.56,0,0,1,79,79.15a6.8,6.8,0,0,1,4.49,5c.76,3.66-1.44,8.34-4.26,12.56A6.25,6.25,0,0,1,81,97c1.56.45,3.6,1.75,4.43,5.38a8.06,8.06,0,0,1-1.57,7.49c-1.86,2.12-4.79,3.07-7.46,3.48,7.28,6.67,24.18,19.47,46.14,18.84a2.5,2.5,0,0,1,2,4.06c-.42.52-.23,3.15,2.08,6.87,3.31,5.34,9.52,10.52,15.33,9.25a2.55,2.55,0,0,1,2,.39,2.49,2.49,0,0,1,1,1.68c0,.13,2.06,13,7.41,22.27a2.48,2.48,0,0,1-.44,3,62,62,0,0,1-21,12.2A60.24,60.24,0,0,1,111.08,195.32ZM57.37,132.85h.26a2.52,2.52,0,0,1,2.25,2.41c0,.35,1.34,35.33,21.19,46.63,33.3,18.95,59.69.56,66-4.55a79.43,79.43,0,0,1-6.59-19.81,15.22,15.22,0,0,1-5.38-.91,5.53,5.53,0,0,1,1.29,2.75,5,5,0,0,1-2.1,4.65,8.06,8.06,0,0,1-4.95,1.57c0,.09,0,.18.07.26a5,5,0,0,1-1.24,4.48c-1.7,1.94-4.2,2.74-7.48,2.4a5.38,5.38,0,0,1-5.5,5.55c-15.4-.34-26.79-4.54-33.84-12.48A29.37,29.37,0,0,1,74.05,145a2.52,2.52,0,0,1,2.23-2.25,2.48,2.48,0,0,1,2.64,1.72c4,12.55,15.84,18,18.82,18.44a.88.88,0,0,0,.83-.55c0-.15.07-.32.1-.49a4.76,4.76,0,0,1,1.67-3.29c1.81-1.38,3.94-.62,4.74-.33l2.66,1,.32-2.1a2.49,2.49,0,0,1,.91-1.57,6.53,6.53,0,0,1,6.13-1.09,6.16,6.16,0,0,1,.67.26l.16.06s0,0,0-.06a6.51,6.51,0,0,0,.15-1.94,2.5,2.5,0,0,1,2-2.51c2.72-.55,5.35.58,7.9,1.67a29.27,29.27,0,0,0,2.83,1.11,29.55,29.55,0,0,1-6.45-7.34,17.46,17.46,0,0,1-3-8.57c-30.11-.76-49.87-23.52-50.73-24.52a2.5,2.5,0,0,1,2.15-4.11c2.69.25,7.6-.07,9.28-2,.4-.45.88-1.26.46-3.07-.13-.56-.42-1.53-.94-1.68-1.68-.48-6.12,2.46-9.06,5.4h0A2.5,2.5,0,0,1,67,103.65c5.29-5.32,12.38-14.55,11.56-18.44-.09-.46-.34-1-1.42-1.4A3.5,3.5,0,0,0,74,84c-4.65,2.55-7.77,13.76-8.5,17.49a2.5,2.5,0,0,1-4.92-.88c1-6.18-.24-9.6-1.1-10.68-1.23,3-1.43,11.53-1.27,16.3a2.51,2.51,0,0,1-2.07,2.55L45.4,110.63l11.35,3.64a2.5,2.5,0,0,1-1,4.88l-9.17-.68,5.68,6A2.48,2.48,0,0,1,53,126.6a2.51,2.51,0,0,1-1.38,1.81c-6.39,3-6.35,4.82-6.35,4.84.05.75,2.07,2.1,4.07,2.74a2.51,2.51,0,0,1,1.42,3.64A6.16,6.16,0,0,0,50,141.4c1.24-.3,3.91-2.19,5-6.64A2.49,2.49,0,0,1,57.37,132.85Zm26,27.5a23.08,23.08,0,0,0,1.75,2.2c6.09,6.82,16.24,10.43,30.15,10.74a.36.36,0,0,0,.35-.21.29.29,0,0,0,0-.35,11.51,11.51,0,0,0-2.45-2.25,2.5,2.5,0,0,1,2.41-4.34c4.41,1.85,7.71,2.19,8.82.91l.1-.12c-.21-.32-1.14-1.39-4.6-2.8a2.5,2.5,0,0,1,1.61-4.73c6.26,1.71,9,1.29,9.61.77h0a1.49,1.49,0,0,0,.25-.23,7,7,0,0,0-2.25-1.67,23.49,23.49,0,0,1-5-1.71,26,26,0,0,0-3.1-1.19,6.28,6.28,0,0,1-.33,1.2,5,5,0,0,1-4.84,3.3,6,6,0,0,1-1.92-.51l-.35-.14a1.51,1.51,0,0,0-.7-.05l-.58,3.82a2.49,2.49,0,0,1-3.32,2l-5.37-1.92c0,.22-.08.44-.14.65A5.82,5.82,0,0,1,97,167.9C94.43,167.53,88.68,165.2,83.39,160.35Z"/><circle class="cls-1" cx="67.23" cy="117.68" r="3.09"/><circle class="cls-1" cx="149.78" cy="118.96" r="2.91"/><path class="cls-1" d="M203.45,225.13a2.5,2.5,0,0,1-1.18-4.71,19.8,19.8,0,0,1,8.93-2.29L220,193.36a2.5,2.5,0,0,1,4.72,1.67l-9.39,26.49a2.49,2.49,0,0,1-2.57,1.66,14.75,14.75,0,0,0-8.11,1.66A2.47,2.47,0,0,1,203.45,225.13Z"/><path class="cls-1" d="M255,214a2.5,2.5,0,0,1-1.72-4.32,20.29,20.29,0,0,0,3-5.94,12.14,12.14,0,0,0-1.85-3L239.65,181a2.5,2.5,0,1,1,4-3l14.79,19.73a15.53,15.53,0,0,1,2.73,4.85c.84,2.95-3.23,9.56-4.47,10.73A2.51,2.51,0,0,1,255,214Zm1.37-10h0Zm-.06-.36Z"/></svg>