<?xml version="1.0" encoding="utf-8"?>
<!-- Generator: Adobe Illustrator 16.0.0, SVG Export Plug-In . SVG Version: 6.00 Build 0)  -->
<!DOCTYPE svg PUBLIC "-//W3C//DTD SVG 1.1//EN" "http://www.w3.org/Graphics/SVG/1.1/DTD/svg11.dtd">
<svg version="1.1" id="Calque_1" xmlns="http://www.w3.org/2000/svg" xmlns:xlink="http://www.w3.org/1999/xlink" x="0px" y="0px"
	 viewBox="0 0 232.4 232.4" style="enable-background:new 0 0 232.4 232.4;" xml:space="preserve">
<style type="text/css">
	.st0{fill:#1D1D1B;}
</style>
<g>
	<g>
		<path class="st0" d="M19,190.5H8.3c-0.9,0-1.7-0.7-1.9-1.6l-1.6-8c-4.5-22.5-3.9-46.2,1.6-68.4c5.4-21.7,6-44.8,1.6-66.7l-1.6-8
			c-0.1-0.6,0-1.2,0.4-1.6c0.4-0.4,0.9-0.7,1.5-0.7H19c0.9,0,1.7,0.7,1.9,1.6l1.6,8c4.5,22.5,3.9,46.2-1.6,68.4
			c-5.4,21.7-6,44.8-1.6,66.7l1.6,8c0.1,0.6,0,1.2-0.4,1.6C20.1,190.3,19.6,190.5,19,190.5z M9.9,186.7h6.7l-1.1-5.7
			c-4.5-22.5-3.9-46.2,1.6-68.4c5.4-21.7,6-44.8,1.6-66.7c0,0,0,0,0,0l-1.3-6.5h-6.7l1.1,5.7c4.5,22.5,3.9,46.2-1.6,68.4
			c-5.4,21.7-6,44.8-1.6,66.7L9.9,186.7z"/>
		<path d="M57.6,172.3c-1.2,0-2.2-1-2.2-2.2v-21.6c0-1.2,1-2.2,2.2-2.2c1.2,0,2.2,1,2.2,2.2v21.6C59.8,171.3,58.9,172.3,57.6,172.3
			L57.6,172.3z M57.6,172.3"/>
		<path d="M88.2,146.8c-1.2,0-2.2-1-2.2-2.2V94.8c0-3-2.4-5.4-5.4-5.4s-5.4,2.4-5.4,5.4v49.8c0,1.2-1,2.2-2.2,2.2
			c-1.2,0-2.2-1-2.2-2.2V94.8c0-5.4,4.4-9.9,9.9-9.9c5.4,0,9.9,4.4,9.9,9.9v49.8C90.4,145.8,89.4,146.8,88.2,146.8L88.2,146.8z
			 M88.2,146.8"/>
		<path d="M103.5,146.8c-1.2,0-2.2-1-2.2-2.2v-43.6c0-3-2.4-5.4-5.4-5.4c-3,0-5.4,2.4-5.4,5.4v43.6c0,1.2-1,2.2-2.2,2.2
			c-1.2,0-2.2-1-2.2-2.2v-43.6c0-5.4,4.4-9.9,9.9-9.9c5.4,0,9.9,4.4,9.9,9.9v43.6C105.7,145.8,104.7,146.8,103.5,146.8L103.5,146.8z
			 M103.5,146.8"/>
		<path d="M108.7,204.3H67.9c-6.5,0-11.8-5-12.4-11.4c-8.6-1.1-15.4-8.5-15.4-17.4v-27.1c0-5.4,4.4-9.9,9.9-9.9c2,0,3.9,0.6,5.5,1.6
			V101c0-5.4,4.4-9.9,9.9-9.9c5.4,0,9.9,4.4,9.9,9.9v43.6c0,1.2-1,2.2-2.2,2.2c-1.2,0-2.2-1-2.2-2.2V101c0-3-2.4-5.4-5.4-5.4
			c-3,0-5.4,2.4-5.4,5.4v47.5c0,1.2-1,2.2-2.2,2.2c-1.2,0-2.2-1-2.2-2.2c0-3-2.4-5.5-5.5-5.5c-3,0-5.5,2.4-5.5,5.5v27.1
			c0,7.2,5.9,13.1,13.1,13.1c1.2,0,2.2,1,2.2,2.2v1c0,4.4,3.6,8,8,8h40.9c4.4,0,7.8-3.5,7.8-8v-84.7c0-3-2.4-5.4-5.4-5.4
			c-3,0-5.4,2.4-5.4,5.4v37.5c0,1.2-1,2.2-2.2,2.2c-1.2,0-2.2-1-2.2-2.2v-37.5c0-5.4,4.4-9.9,9.9-9.9c5.4,0,9.9,4.4,9.9,9.9v84.7
			C121,198.8,115.6,204.3,108.7,204.3L108.7,204.3z M108.7,204.3"/>
	</g>
	<g>
		<path class="st0" d="M168.6,178c-0.2-0.3-0.5-0.4-0.8-0.5c-0.4-0.1-0.9-0.1-1.3,0.1c-0.3,0.2-0.6,0.3-0.9,0.5
			c-0.9,0.5-1.8,1-2.7,1.5c-0.4,0.2-0.7,0.6-0.9,1c-0.1,0.4-0.1,0.9,0.1,1.3c0.4,0.8,1.5,1.2,2.4,0.7c0.9-0.5,1.9-1,2.8-1.5
			c0.3-0.2,0.6-0.3,0.8-0.5c0.4-0.2,0.7-0.6,0.9-1c0.1-0.4,0.1-0.9-0.1-1.3l0,0C168.8,178.2,168.7,178.1,168.6,178z"/>
		<path class="st0" d="M207.6,168.6c1.6-0.1,3.1-0.8,4.2-2c1.1-1.2,1.6-2.8,1.5-4.4c-0.1-1.6-0.8-3.1-2-4.2
			c-1.2-1.1-2.8-1.6-4.4-1.5c-2.9,0.2-5.3,2.3-5.7,5.2c-0.1,0.5,0,0.9,0.3,1.3c0.3,0.4,0.7,0.6,1.1,0.7c0.5,0.1,0.9,0,1.3-0.3
			c0.4-0.3,0.6-0.7,0.7-1.1c0.2-1.2,1.2-2.1,2.5-2.2c0.7,0,1.4,0.2,1.9,0.7c0.1,0.1,0.2,0.2,0.3,0.3c0.3,0.4,0.6,0.9,0.6,1.5
			c0,0.7-0.2,1.3-0.6,1.9c-0.5,0.5-1.1,0.8-1.8,0.8c-0.2,0-0.6,0-1.2-0.3c-0.4-0.2-0.9-0.2-1.3,0c-0.4,0.2-0.8,0.5-1,0.9
			c-0.4,0.9,0.1,1.9,0.9,2.3C205.9,168.5,206.8,168.6,207.6,168.6z"/>
		<path class="st0" d="M223.2,165.9c0.6-0.7,0.9-1.6,0.9-2.5c0-0.8-0.3-1.5-0.8-2c-0.7-0.8-1.8-1.3-2.9-1.2
			c-0.9,0.1-1.8,0.5-2.4,1.1c-0.6,0.7-0.9,1.6-0.9,2.5c0,0.8,0.3,1.5,0.8,2c0.7,0.8,1.8,1.3,2.9,1.2
			C221.7,167,222.6,166.6,223.2,165.9z M220.7,164.7c-0.5,0-0.8-0.3-0.9-0.4c-0.1-0.1-0.2-0.3-0.2-0.6c0-0.3,0.1-0.5,0.3-0.8
			c0.1-0.1,0.4-0.3,0.7-0.3c0.5,0,0.8,0.3,0.9,0.4c0.1,0.1,0.2,0.3,0.2,0.6c0,0.4-0.2,0.6-0.3,0.8
			C221.3,164.4,221,164.6,220.7,164.7z"/>
		<path class="st0" d="M150.3,157.4c0.6-0.7,0.9-1.6,0.9-2.5l0,0c0-0.8-0.3-1.5-0.8-2c-0.7-0.8-1.8-1.3-2.9-1.2
			c-0.9,0.1-1.8,0.5-2.4,1.1c-0.6,0.7-0.9,1.6-0.9,2.5c0,0.8,0.3,1.5,0.8,2c0.7,0.8,1.8,1.3,2.9,1.2
			C148.9,158.5,149.7,158.1,150.3,157.4z M147.8,156.1L147.8,156.1c-0.5,0-0.8-0.3-0.9-0.4c-0.1-0.1-0.2-0.3-0.2-0.6
			c0-0.3,0.1-0.5,0.3-0.8c0.1-0.1,0.4-0.3,0.7-0.3c0.5,0,0.8,0.3,0.9,0.4c0.1,0.1,0.2,0.3,0.2,0.6c0,0.4-0.2,0.6-0.3,0.8
			C148.4,155.9,148.2,156.1,147.8,156.1z"/>
		<g>
			<path class="st0" d="M215.9,171.8c0,0-0.1,0-0.2,0.1l0,0C215.8,171.9,215.9,171.9,215.9,171.8c0,0,0.1,0.1,0.2,0.1
				c0,0,0,0.1,0,0.1c0,0.1,0,0.1,0,0.1l0,0l0,0v0c0,0-0.1,0.1-0.1,0.1c-0.1,0-0.2-0.1-0.2-0.2c0-0.1,0-0.1,0-0.1l0,0
				c0,0-0.1,0.1-0.1,0.2c0,0.1,0,0.2,0.2,0.2c0.1,0,0.1,0,0.2-0.1c0,0,0.1-0.1,0.1-0.2C216.2,172,216.1,171.8,215.9,171.8z"/>
			<path class="st0" d="M217.9,173.8c0.5-0.5,0.7-1.2,0.7-1.9c0-0.6-0.2-1.1-0.6-1.6c-0.5-0.6-1.4-1-2.2-1l0,0
				c-0.7,0-1.4,0.4-1.8,0.9c-0.5,0.5-0.7,1.2-0.7,1.9c0.1,1.4,1.4,2.6,2.8,2.5C216.8,174.7,217.4,174.4,217.9,173.8z M216,172.7
				c-0.2,0-0.4-0.1-0.5-0.2c-0.1-0.1-0.1-0.2-0.1-0.4c0-0.2,0-0.3,0.2-0.4c0.1-0.1,0.3-0.2,0.4-0.2c0.3,0,0.6,0.3,0.7,0.6
				c0,0.2,0,0.3-0.2,0.4l0,0C216.3,172.6,216.1,172.7,216,172.7z"/>
		</g>
		<path class="st0" d="M155.8,148.6c0.4-0.2,0.7-0.6,0.8-1.1c0.1-0.5,0.1-0.9-0.2-1.3c-0.2-0.4-0.6-0.7-1.1-0.8
			c-0.5-0.1-0.9-0.1-1.3,0.2c-0.4,0.2-0.7,0.3-1.1,0.3c-0.7,0-1.3-0.2-1.9-0.7c-0.5-0.5-0.8-1.1-0.9-1.8c-0.1-1.4,1-2.6,2.4-2.7
			c1.4-0.1,2.6,1,2.7,2.3c0,0.5,0.3,0.9,0.6,1.2c0.4,0.3,0.8,0.4,1.3,0.4c0.5,0,0.9-0.3,1.2-0.6c0.3-0.4,0.4-0.8,0.4-1.3
			c-0.1-1.3-0.6-2.4-1.4-3.4c-1.2-1.4-3-2.3-5-2.2c-3.3,0.2-5.9,3-5.7,6.4c0.1,1.3,0.6,2.5,1.4,3.5c1.2,1.5,3.1,2.3,5,2.2
			C154.1,149.4,155,149.1,155.8,148.6z"/>
		<path class="st0" d="M140.8,147.8c1.4-0.1,2.4-1.3,2.4-2.6c0-0.5-0.2-1.1-0.6-1.5c-0.5-0.6-1.3-0.9-2.1-0.9
			c-1.4,0.1-2.4,1.3-2.4,2.6C138.2,146.8,139.4,147.9,140.8,147.8z M140.7,146.1c-0.2,0-0.5-0.1-0.6-0.3c-0.1-0.1-0.2-0.3-0.2-0.4
			c0-0.4,0.3-0.8,0.7-0.8c0.4,0,0.8,0.3,0.8,0.7c0,0.2-0.1,0.4-0.2,0.6C141.1,146,140.9,146.1,140.7,146.1z"/>
		<g>
			<path class="st0" d="M215.3,187.4c0-0.4-0.1-0.7-0.3-1c0,0-0.1-0.1-0.1-0.1c-0.5-0.5-1.2-0.5-1.7,0c-0.2,0.2-0.3,0.5-0.3,0.9
				l0,0.1c-0.1,0.3,0,0.6,0.2,0.9c0.3,0.4,0.6,0.5,1,0.5l0.5,0l0.4-0.4C215.1,188,215.3,187.7,215.3,187.4z"/>
			<path class="st0" d="M170.1,195.2c2.5-1.3,5-2.6,7.6-3.6c6.5-2.6,11.1-1.2,16.9,0.6c2.1,0.7,4.3,1.3,6.8,1.9
				c5.2,1.1,11,0.3,15.9-2.2c9.8-5.1,12.3-14.5,14.7-23.5c0.4-1.5,0.8-3,1.2-4.4c0.1-0.3,0.1-0.6,0-0.9l0-0.2
				c0.5-3.6,0.5-13.1-1.3-18.4c-0.9-2.6-2.5-5.6-4.6-8.2c-1.3-1.6-2.9-3.1-4.7-4.1c-7.6-4.4-17.3-4.8-25.5-1.1
				c-0.6,0.3-1.2,0.6-1.8,0.9c-4,1.9-9,4.3-12.7,4.3c-4.3,0.1-8-0.9-12.2-2l-0.1,0c-0.6-0.2-1.2-0.3-1.8-0.5
				c-1.8-0.5-3.5-1.2-5.2-1.8c-3.2-1.3-6.4-2.6-10.5-2.6c-9,0.1-16.5,3.8-21.2,10.4c-4.5,6.4-6,14.9-4.2,23.9l0,0.2l-0.1,0.1
				c-0.2,0.3-0.3,0.7-0.2,1.1c0.2,1.7,0.4,3.5,0.5,5c0.5,5.2,0.9,10.1,2.6,13.9c0.9,2.2,2.5,5.5,5.1,8.5c2.2,2.7,4.9,4.8,8,6.3
				C153.3,203.8,161.8,199.4,170.1,195.2z M144.7,195.7c-2.6-1.3-4.9-3.1-6.8-5.4c-1.8-2.1-3.3-4.7-4.6-7.7c-0.5-1.3-1-2.8-1.3-4.8
				l-0.4-2.4l1.2,2.1c1.4,2.4,2.9,4.3,4.3,5.8c5.2,5.3,11.9,6.4,19.3,3.2c0.9-0.4,1.3-1.4,0.9-2.3c-0.2-0.4-0.5-0.8-0.9-0.9
				c-0.4-0.2-0.9-0.2-1.3,0l-0.1,0c-6,2.6-11.2,1.8-15.4-2.5c-3.2-3.2-6-8.8-7.5-13c-3.4-9.6-2.5-19.4,2.2-26.2
				c4-5.7,10.5-8.9,18.4-8.9c3.4,0,6.2,1.1,9.2,2.3c1.8,0.7,3.6,1.4,5.6,2l1.9,0.5c4.3,1.2,8.3,2.3,13.2,2.2
				c4.5-0.1,9.8-2.6,14.1-4.7l0.1-0.1c0.6-0.3,1.2-0.6,1.7-0.8c7.1-3.3,15.7-3,22.2,0.9c3.2,1.9,6.3,6,7.8,10.5
				c1.7,5,1.6,14.9,1,17.6c-1.4,6.4-2.9,11.5-8.7,15.1c-2.7,1.7-8.1,2.6-11.4,1.9c-2.7-0.6-5.9-1.7-9.1-2.8
				c-3.8-1.3-7.4-2.6-10.2-2.9c-5.8-0.7-10.2-0.7-14.3,0c-0.5,0.1-0.9,0.3-1.1,0.7c-0.3,0.4-0.4,0.8-0.3,1.3
				c0.1,0.5,0.3,0.9,0.7,1.1c0.4,0.3,0.8,0.4,1.3,0.3c3.7-0.6,7.8-0.6,13.2,0c2.4,0.3,5.9,1.5,9.5,2.8c3.2,1.1,6.6,2.3,9.5,2.9
				c4.2,0.9,10.4-0.2,13.9-2.3l1.6-1l-1,1.6c-1.9,2.9-4.3,5.2-7.2,6.8l0.3,0l-1.5,0.6l-1.5,0.8l0.2-0.2c-3.7,1.4-7.7,1.7-11.3,0.9
				c-2.4-0.5-4.5-1.2-6.5-1.8c-6-1.9-11.6-3.6-19.3-0.6c-2.7,1.1-5.3,2.4-7.9,3.8C160.6,196.1,153.3,199.9,144.7,195.7z"/>
		</g>
		<path class="st0" d="M205.9,188.1c0.5,0.3,1,0.2,1.4-0.2c0.5-0.4,0.6-1.1,0.3-1.6c0-0.1-0.1-0.1-0.1-0.1c-0.4-0.5-1.1-0.6-1.6-0.4
			c-0.5,0.2-0.9,0.8-0.7,1.4C205.2,187.6,205.5,187.9,205.9,188.1L205.9,188.1z"/>
		<path class="st0" d="M200.5,187.9c0.1,0,0.2-0.1,0.2-0.1c0.5-0.4,0.7-1.1,0.4-1.7c0-0.1-0.1-0.1-0.1-0.1c-0.4-0.4-1-0.6-1.5-0.3
			l-0.2,0c-0.3,0-0.6,0.2-0.8,0.4c-0.5,0.5-0.5,1.2,0,1.7C199.1,188.3,199.7,188.3,200.5,187.9z"/>
	</g>
	<g>
		<path class="st0" d="M38.4,186.4H10.1l-1.3-6.3c-4.4-21.9-3.8-44.9,1.6-66.6c5.6-22.3,6.1-46,1.6-68.6L11,39.6h140l1.3,6.3
			c4.4,21.9,3.8,44.9-1.6,66.6c-1.2,4.7-2.1,9.5-2.9,14.3c1.6-0.2,3.1-0.2,4.5-0.1c0.7-4.4,1.6-8.8,2.7-13.2
			c5.6-22.3,6.1-46,1.6-68.6l-1.6-8c-0.2-1-1.1-1.8-2.2-1.8H8.3c-0.7,0-1.3,0.3-1.7,0.8c-0.4,0.5-0.6,1.2-0.5,1.8l1.6,8
			c4.4,21.9,3.8,44.9-1.6,66.6c-5.6,22.3-6.1,46-1.6,68.6l1.6,8c0.2,1,1.1,1.8,2.2,1.8H42C40.6,189.6,39.4,188.1,38.4,186.4z"/>
		<path class="st0" d="M128.2,186.4h-3.9v4.4h6C129.5,189.4,128.8,187.8,128.2,186.4z"/>
	</g>
</g>
</svg>
