<?xml version="1.0" encoding="utf-8"?>
<!-- Generator: Adobe Illustrator 16.0.0, SVG Export Plug-In . SVG Version: 6.00 Build 0)  -->
<!DOCTYPE svg PUBLIC "-//W3C//DTD SVG 1.1//EN" "http://www.w3.org/Graphics/SVG/1.1/DTD/svg11.dtd">
<svg version="1.1" xmlns="http://www.w3.org/2000/svg" xmlns:xlink="http://www.w3.org/1999/xlink" x="0px" y="0px" width="100px"
	 height="100px" viewBox="0 0 100 100" enable-background="new 0 0 100 100" xml:space="preserve">
<g id="Calque_2">
</g>
<g id="Calque_1">
	<path d="M95.647,13.042C91.507,9.727,84.611,8.85,74.689,10.38H7.27c-1.723,0-2.277,0.721-2.439,1.326
		c-0.069,0.259-0.195,0.766,0.321,1.604c1.521,3.834,3.94,12.509,4.463,18.087H1.009c-0.127,0-0.247,0.029-0.36,0.073
		c-0.038,0.015-0.069,0.038-0.104,0.057c-0.07,0.038-0.137,0.079-0.197,0.133c-0.033,0.03-0.061,0.063-0.09,0.098
		c-0.049,0.057-0.09,0.118-0.125,0.185c-0.022,0.042-0.041,0.083-0.058,0.128c-0.009,0.027-0.027,0.05-0.034,0.078
		c-0.014,0.054-0.009,0.107-0.014,0.161c-0.003,0.03-0.018,0.056-0.018,0.087v6.248c0,0.365,0.199,0.701,0.519,0.876l16.241,8.913
		c0.02,0.011,0.041,0.015,0.062,0.024c0.024,0.011,0.049,0.02,0.074,0.029c0.111,0.042,0.227,0.07,0.346,0.07h11.356
		c-1.684,1.487-3.208,2.742-4.396,3.684c-1.684,1.336-4.534,3.099-7.552,4.964C8.851,62.034,0,67.506,0,72.029v6.032
		c0,6.324,5.985,10.224,10.234,10.973l0.242,0.042c2.987,0.528,7.313,1.292,13.176,1.292c5.408,0,12.124-0.651,20.301-2.738
		c9.279-2.367,14.334-7.656,18.396-11.905c1.865-1.951,3.529-3.687,5.33-4.923l5.344,2.041c0.058,0.022,0.121,0.022,0.182,0.034
		c0.04,0.007,0.073,0.028,0.114,0.03c0.021,0.001,0.04,0.002,0.061,0.002l0,0c0.005,0,0.01,0,0.015,0
		C84.257,72.754,100,61.801,100,57.251V47.205v-1.007v-22.86C100,18.819,98.536,15.355,95.647,13.042z M98,46.198v1.007
		c0,2.294-9.668,10.052-18.982,12.732C80.057,49.797,91.712,39.326,98,34.368V46.198z M94.397,14.604
		C96.821,16.545,98,19.402,98,23.338c0,2.375-2.725,5.181-7.147,7.619c-0.227-1.08-0.852-2.517-2.559-3.578
		c-4.669-2.904-14.481-0.843-28.376,5.939c-0.206-0.192-0.419-0.379-0.6-0.592c-0.194-0.228-0.478-0.354-0.779-0.352
		c-0.3,0.005-0.581,0.145-0.767,0.379c-0.606,0.767-1.473,1.769-2.522,2.921c-4.028,2.101-8.441,4.561-13.141,7.313
		c2.905-4.879,5.34-10.917,5.362-17.834c0.707-3.459,9.002-8.853,21.318-11.617C81.376,10.717,89.991,11.075,94.397,14.604z
		 M39.623,46.781c3.917-2.346,7.627-4.478,11.133-6.413c-5.885,5.899-13.504,12.684-17.33,14.013
		c0.342-0.408,0.743-0.869,1.121-1.304C35.911,51.509,37.756,49.38,39.623,46.781z M56.552,37.174
		c0.021-0.023,0.043-0.043,0.062-0.067c0.809-0.881,1.49-1.646,2-2.238c0.112,0.103,0.243,0.187,0.361,0.285
		c0.088,0.105,0.194,0.187,0.313,0.248c1.828,1.4,4.201,2.253,6.886,2.66c-5.357,6.241-20.177,20.795-24.739,20.934
		c-2.323-0.16-6.131-0.882-8.009-2.589C39.4,54.767,50.994,43.22,56.552,37.174z M61.781,34.634
		c16.852-8.073,23.177-6.973,25.457-5.556c1.416,0.88,1.703,2.104,1.734,2.845c-1.176,0.562-2.439,1.098-3.785,1.593
		C77.076,36.499,67.242,37.547,61.781,34.634z M39.877,36.563H19.541c0.373-4.895,3.281-13.042,7.024-13.042h19.368
		c-0.209,0.447-0.363,0.896-0.443,1.348c-0.003,0.012-0.005,0.024-0.007,0.037C44.803,28.807,42.638,32.813,39.877,36.563z
		 M11.702,32.693c-0.001-0.028-0.002-0.055-0.003-0.083c0.016-0.07,0.043-0.137,0.043-0.212c0-0.115-0.029-0.221-0.065-0.324
		c-0.283-4.465-1.906-11.123-3.403-15.879c0.713,0.494,1.551,1.03,2.575,1.622c3.981,2.299,8.661,4.234,12.197,5.144
		c-3.192,2.775-5.028,8.944-5.451,12.966L11.702,32.693z M7.27,12.38h57.916c-7.418,2.05-14.613,5.401-17.902,9.141H26.565
		c-2.873,0-9.613-2.49-14.717-5.436c-3.161-1.826-4.478-3.099-4.906-3.691C7.03,12.386,7.139,12.38,7.27,12.38z M9.732,33.398
		c0.023,0.437,0.324,0.786,0.732,0.897l7.553,4.145c0.02,0.011,0.041,0.015,0.062,0.024c0.024,0.011,0.049,0.02,0.074,0.029
		c0.111,0.042,0.227,0.07,0.346,0.07h19.833c-0.479,0.591-0.967,1.174-1.465,1.747h-19.36L4.91,33.398H9.732z M2.009,34.087
		l14.241,7.815v3.967L2.009,38.054V34.087z M18.25,46.559v-4.248h16.813c-1.42,1.519-2.864,2.946-4.257,4.248H18.25z M25.454,53.809
		c5.475-4.342,13.86-11.79,18.622-19.927c-2.56,8.137-8.02,14.413-11.038,17.882c-1.411,1.622-2.154,2.487-2.371,3.175
		c-0.132,0.244-0.171,0.536-0.066,0.817c1.625,4.395,9.196,5.13,10.795,5.235c6.481-0.19,24.176-19.028,27.175-22.684
		c5.505,0.309,11.875-0.917,17.307-2.915c4.635-1.704,9.485-4.318,12.123-7.405v3.849c-6.185,4.714-20.315,16.741-21.031,28.605
		c-1.228,0.25-2.438,0.402-3.604,0.418c-5.41,0.077-8.679,3.496-12.462,7.455c-3.223,3.372-6.793,7.092-12.43,9.609
		c-0.484-5.071-9.516-14.443-21.4-17.82c-3.489-0.992-6.283-1.574-8.46-1.754C21.429,56.606,23.849,55.084,25.454,53.809z
		 M14.636,60.822c0.084-0.025,0.17-0.045,0.248-0.094c0.823-0.516,3.427-1.035,11.643,1.299c12.704,3.61,20.298,13.47,19.964,16.497
		c-0.008,0.07,0.012,0.134,0.018,0.202c-0.958,0.349-1.972,0.664-3.049,0.938c-16.631,4.242-27.046,2.4-32.642,1.412l-0.235-0.042
		C7.121,80.424,2,77.14,2,72.029C2,69.126,8.586,64.626,14.636,60.822z M60.903,74.343c-4.088,4.277-8.721,9.124-17.444,11.35
		c-16.623,4.241-27.04,2.402-32.635,1.414l-0.242-0.043C7.121,86.454,2,83.17,2,78.061v-0.146c2.119,2.849,5.526,4.612,8.234,5.09
		l0.234,0.042c2.988,0.528,7.315,1.293,13.181,1.293c5.409,0,12.125-0.65,20.304-2.737c9.279-2.367,14.334-7.656,18.396-11.905
		c3.491-3.652,6.278-6.556,10.579-6.811l-0.246,4.04c-2.078,0.143-3.841,0.788-5.445,1.772c-0.221,0.054-0.414,0.175-0.555,0.36
		C64.652,70.426,62.845,72.312,60.903,74.343z M72.559,68.935l-0.095,1.554l-2.458-0.938C70.805,69.238,71.646,69.023,72.559,68.935
		z M98,57.251c0,2.675-13.151,12.789-23.555,13.604l0.494-8.091c0.896-0.089,1.815-0.235,2.751-0.442
		c0.08,0.021,0.157,0.049,0.244,0.049c0.262,0,0.496-0.106,0.674-0.271c7.502-1.919,15.7-7.105,19.392-11.222V57.251z M59.38,39.98
		c-0.18-0.19-0.29-0.44-0.29-0.71c0-0.26,0.11-0.52,0.29-0.7c0.37-0.37,1.04-0.37,1.42,0c0.18,0.18,0.29,0.44,0.29,0.7
		c0,0.26-0.11,0.52-0.29,0.71c-0.19,0.19-0.45,0.29-0.71,0.29S59.569,40.17,59.38,39.98z M55.12,44.58
		c-0.19-0.19-0.29-0.45-0.29-0.71c0-0.26,0.1-0.52,0.29-0.71c0.37-0.37,1.04-0.37,1.41,0c0.189,0.19,0.3,0.45,0.3,0.71
		c0,0.26-0.11,0.52-0.3,0.71c-0.181,0.18-0.44,0.29-0.7,0.29C55.56,44.87,55.31,44.76,55.12,44.58z M50.819,48.33
		c-0.189-0.19-0.3-0.44-0.3-0.71s0.11-0.52,0.3-0.71c0.37-0.37,1.04-0.37,1.41,0c0.19,0.19,0.29,0.45,0.29,0.71
		c0,0.26-0.1,0.52-0.29,0.71c-0.189,0.18-0.439,0.29-0.71,0.29C51.26,48.62,51,48.51,50.819,48.33z M46.649,52.71
		c-0.189-0.18-0.29-0.44-0.29-0.7c0-0.27,0.101-0.53,0.29-0.71c0.37-0.37,1.04-0.37,1.41,0c0.19,0.19,0.3,0.44,0.3,0.71
		c0,0.26-0.109,0.52-0.3,0.7c-0.18,0.19-0.439,0.3-0.7,0.3C47.09,53.01,46.84,52.9,46.649,52.71z M41.569,56.36
		c-0.189-0.19-0.289-0.44-0.289-0.71c0-0.26,0.1-0.52,0.289-0.7c0.37-0.38,1.04-0.38,1.41,0c0.19,0.18,0.301,0.44,0.301,0.7
		c0,0.27-0.11,0.52-0.301,0.71c-0.18,0.19-0.439,0.29-0.71,0.29C42.01,56.65,41.75,56.55,41.569,56.36z"/>
</g>
</svg>
