<?xml version="1.0" encoding="utf-8"?>
<!-- Generator: Adobe Illustrator 16.0.0, SVG Export Plug-In . SVG Version: 6.00 Build 0)  -->
<!DOCTYPE svg PUBLIC "-//W3C//DTD SVG 1.1//EN" "http://www.w3.org/Graphics/SVG/1.1/DTD/svg11.dtd">
<svg version="1.1" xmlns="http://www.w3.org/2000/svg" xmlns:xlink="http://www.w3.org/1999/xlink" x="0px" y="0px" width="100px"
	 height="100px" viewBox="0 0 100 100" enable-background="new 0 0 100 100" xml:space="preserve">
<g id="Calque_1">
</g>
<g id="Calque_2">
	<path d="M89.805,95.585l-13.241,1.588l-0.476-3.97l13.24-1.589c0.548-0.066,0.939-0.563,0.874-1.112
		c-0.065-0.549-0.563-0.939-1.112-0.874l-13.24,1.589l-0.477-3.974l13.24-1.589c0.548-0.066,0.939-0.563,0.874-1.112
		c-0.065-0.548-0.563-0.936-1.112-0.874l-13.24,1.589l-0.477-3.974l13.241-1.589c0.548-0.066,0.939-0.563,0.874-1.112
		c-0.065-0.549-0.565-0.938-1.112-0.874l-13.241,1.589l-0.477-3.971l13.24-1.59c0.548-0.066,0.939-0.564,0.874-1.112
		c-0.065-0.548-0.566-0.937-1.112-0.874l-13.24,1.59l-0.477-3.974l13.241-1.59c0.548-0.066,0.939-0.564,0.874-1.112
		c-0.065-0.549-0.562-0.939-1.112-0.874l-13.241,1.59l-0.477-3.974l13.242-1.587c0.548-0.066,0.939-0.563,0.874-1.112
		c-0.065-0.549-0.564-0.938-1.112-0.874L72.272,61.42l-0.477-3.971l13.241-1.59c0.548-0.066,0.939-0.564,0.874-1.112
		c-0.065-0.549-0.564-0.94-1.112-0.874l-13.241,1.59l-0.477-3.974l13.242-1.587c0.548-0.066,0.939-0.563,0.874-1.112
		c-0.065-0.549-0.567-0.939-1.112-0.874l-13.242,1.587l-0.477-3.972l13.242-1.589c0.548-0.066,0.939-0.563,0.874-1.112
		c-0.065-0.548-0.567-0.936-1.112-0.874l-13.242,1.589l-0.477-3.974l13.243-1.589c0.548-0.066,0.939-0.563,0.874-1.112
		c-0.065-0.549-0.563-0.938-1.112-0.874l-13.243,1.589l-0.477-3.974l13.242-1.587c0.548-0.066,0.939-0.563,0.874-1.112
		c-0.065-0.548-0.564-0.937-1.112-0.874l-13.242,1.587l-0.477-3.971l13.241-1.59c0.548-0.066,0.939-0.564,0.874-1.112
		c-0.065-0.549-0.564-0.938-1.112-0.874l-13.242,1.59l-0.477-3.974l13.242-1.587c0.548-0.066,0.939-0.563,0.874-1.112
		c-0.065-0.549-0.567-0.938-1.112-0.874l-13.243,1.587l-0.477-3.971l13.242-1.59c0.03-0.004,0.054-0.021,0.084-0.027
		c0.078-0.017,0.15-0.04,0.221-0.073c0.043-0.021,0.083-0.042,0.123-0.067c0.063-0.042,0.117-0.092,0.169-0.147
		c0.031-0.033,0.063-0.062,0.09-0.099c0.046-0.063,0.077-0.136,0.107-0.21c0.017-0.04,0.039-0.076,0.05-0.119
		c0.002-0.011,0.01-0.019,0.012-0.029l1.241-5.486c0.001-0.004,0-0.009,0-0.013s0.003-0.008,0.004-0.012l1.333-6.668
		c0.059-0.294-0.017-0.599-0.207-0.83S82.786,0,82.486,0H41.403c-0.3,0-0.583,0.135-0.773,0.366s-0.266,0.536-0.207,0.83l1.323,6.62
		L45.165,43c-1.521-0.045-3.066-0.073-4.626-0.073c-10.882,0-31.462,1.429-31.462,6.834c0,0.083,0.02,0.162,0.029,0.243
		c-0.008,0.049-0.029,0.094-0.029,0.145v33.341c0,5.407,20.58,6.836,31.462,6.836c2.711,0,5.382-0.08,7.981-0.215v4.747
		c0,2.785,9.428,3.086,13.482,3.086c2.337,0,4.57-0.112,6.558-0.313l0.179,1.489C68.799,99.627,69.23,100,69.729,100
		c0.04,0,0.08-0.002,0.121-0.007l0.18-0.021l5.779-0.691c0.003,0,0.006-0.003,0.009-0.003l14.225-1.706
		c0.548-0.066,0.939-0.563,0.874-1.112C90.852,95.91,90.349,95.519,89.805,95.585z M70.604,97.888l-9.774-81.436l3.973-0.477
		l1.311,10.923v0.001l0,0.001l0.714,5.952c0,0.001,0,0.003,0,0.004c0,0.002,0.001,0.003,0.001,0.004l0.714,5.954
		c0,0.001,0,0.001,0,0.002s0,0.001,0,0.002l1.43,11.912c0,0.002,0,0.003,0,0.004s0.001,0.002,0.001,0.004l0.715,5.955v0.001l0,0.001
		l1.43,11.911c0,0.002,0,0.003,0,0.005s0.001,0.003,0.001,0.005l0.714,5.952c0,0.001,0,0.002,0,0.003s0,0.002,0.001,0.003
		l0.714,5.948c0,0.002,0,0.004,0,0.006s0.001,0.004,0.002,0.006l0.714,5.95c0,0.002,0,0.003,0,0.004s0.001,0.002,0.001,0.004
		l0.715,5.955v0.001c0,0.001,0,0.001,0,0.001l0.595,4.962L70.604,97.888z M81.266,2l-0.933,4.668H43.556L42.623,2H81.266z
		 M79.901,8.668l-0.809,3.577L59.6,14.585c-0.132,0.017-0.259,0.059-0.373,0.123c-0.093,0.053-0.168,0.127-0.239,0.205
		c-0.017,0.018-0.04,0.027-0.055,0.047c-0.009,0.012-0.011,0.026-0.019,0.038c-0.067,0.093-0.125,0.194-0.156,0.308
		c-0.036,0.126-0.047,0.259-0.031,0.392l7.533,62.766c-1.364,0.088-2.778,0.146-4.257,0.146c-6.712,0-10.705-0.892-11.505-1.407
		L43.838,8.668H79.901z M11.076,52.415c5.43,3.241,20.635,4.182,29.462,4.182c1.974,0,3.963-0.045,5.936-0.118l0.43,4.43
		c-2.102,0.087-4.233,0.141-6.366,0.141c-19.063,0-29.462-3.195-29.462-4.837V52.415z M40.539,44.927
		c1.627,0,3.239,0.03,4.821,0.079l0.921,9.478c-1.908,0.07-3.833,0.113-5.742,0.113c-19.063,0-29.462-3.194-29.462-4.836
		C11.076,48.12,21.476,44.927,40.539,44.927z M40.539,88.325c-19.063,0-29.462-3.194-29.462-4.836V58.867
		c5.43,3.241,20.635,4.182,29.462,4.182c2.197,0,4.395-0.055,6.56-0.146l1.422,14.633v10.574
		C45.923,88.245,43.251,88.325,40.539,88.325z M62.002,95.943c-6.728,0-10.619-0.84-11.482-1.358V79.352
		c2.994,1.104,8.598,1.257,11.482,1.257c1.562,0,3.057-0.061,4.496-0.157l1.824,15.193C66.41,95.836,64.259,95.943,62.002,95.943z"
		/>
</g>
</svg>
