<?xml version="1.0" encoding="utf-8"?>
<!-- Generator: Adobe Illustrator 16.0.0, SVG Export Plug-In . SVG Version: 6.00 Build 0)  -->
<!DOCTYPE svg PUBLIC "-//W3C//DTD SVG 1.1//EN" "http://www.w3.org/Graphics/SVG/1.1/DTD/svg11.dtd">
<svg version="1.1" xmlns="http://www.w3.org/2000/svg" xmlns:xlink="http://www.w3.org/1999/xlink" x="0px" y="0px" width="100px"
	 height="100px" viewBox="0 0 100 100" enable-background="new 0 0 100 100" xml:space="preserve">
<g id="Calque_2">
</g>
<g id="Calque_1">
	<path d="M40.414,51.651l0.418,0.177c1.302,0.551,2.543,0.843,3.59,0.843c0.94,0,1.73-0.229,2.321-0.659l0.843-0.568
		c-0.285,0.377-0.53,0.784-0.714,1.223c-0.587,1.399-0.567,2.913,0.075,4.305l10.715,20.507c0.415,0.842,1.275,1.366,2.246,1.366
		c0.305,0,0.606-0.053,0.896-0.156c1.234-0.442,1.947-1.701,1.663-2.906l-3.226-15.396c0.011-0.137-0.002-0.277-0.052-0.415
		c-0.012-0.034-0.038-0.057-0.054-0.089l-1.429-6.819c-0.614-2.347-2.814-3.985-5.353-3.985c-0.356,0-0.71,0.035-1.061,0.098
		l-0.223-0.622l2.424-0.635c1.346-0.3,2.462-1.636,3.144-3.764l0.109-0.342c0.111-0.347,0.024-0.728-0.227-0.992
		c-0.251-0.264-0.63-0.372-0.979-0.279l-3.318,0.869c-1.07,0.24-1.99,1.141-2.664,2.562c-0.152-0.02-0.309-0.016-0.462,0.04
		c-0.493,0.176-0.748,0.699-0.616,1.196c-1.939-0.574-3.615-0.484-4.643,0.266l-3.597,2.427c-0.304,0.206-0.472,0.561-0.436,0.926
		C39.843,51.192,40.076,51.509,40.414,51.651z M55.761,53.521l1.289,6.154l-2.708,0.971c-0.521,0.187-0.791,0.759-0.604,1.279
		c0.146,0.408,0.531,0.663,0.941,0.663c0.112,0,0.226-0.019,0.337-0.059l2.448-0.877l1.459,6.967l-1.698,0.607
		c-0.52,0.186-0.791,0.758-0.604,1.278c0.146,0.409,0.531,0.664,0.941,0.664c0.111,0,0.226-0.019,0.337-0.059l1.438-0.515
		l1.178,5.622c0.055,0.233-0.114,0.492-0.385,0.589c-0.269,0.097-0.565,0.007-0.684-0.231l-4.601-8.803l1.815-0.651
		c0.52-0.187,0.79-0.759,0.604-1.279c-0.187-0.521-0.759-0.792-1.279-0.604l-2.074,0.744l-3.625-6.937l3.791-1.358
		c0.521-0.186,0.791-0.759,0.604-1.279s-0.761-0.792-1.278-0.604l-4.053,1.452l-0.608-1.165c-0.384-0.833-0.393-1.774-0.025-2.65
		c0.409-0.976,1.241-1.75,2.281-2.124c0.442-0.158,0.898-0.238,1.356-0.238C53.983,51.078,55.389,52.102,55.761,53.521z
		 M52.696,45.354l1.401-0.367c-0.335,0.549-0.71,0.907-1.073,0.988l-1.401,0.367C51.957,45.793,52.332,45.436,52.696,45.354z
		 M44.989,49.111c0.499-0.364,1.462-0.39,2.61-0.089l-2.005,1.353c-0.499,0.362-1.461,0.389-2.608,0.088L44.989,49.111z M100,24.436
		c0-0.052-0.021-0.096-0.029-0.146v-6.171c0.007-0.089,0.029-0.177,0.029-0.267c0-0.101-0.029-0.192-0.058-0.284
		c-0.587-5.679-15.285-8.74-29.14-8.74c-10.396,0-21.264,1.725-26.294,4.984H8.47C2.909,13.811,0,27.267,0,40.56
		c0,13.106,2.83,26.361,8.239,26.731c0.057,0.01,0.109,0.034,0.169,0.034c0.073,0,0.145-0.012,0.217-0.017h5.78
		c0.028,0.002,0.053,0.017,0.082,0.017c0.073,0,0.145-0.012,0.217-0.017h9.16v14.84c0,5.861,15.076,9.024,29.261,9.024
		c13.857,0,28.558-3.021,29.229-8.625c11.034-1.383,17.617-4.488,17.617-8.333v-7.23c0.007-0.09,0.029-0.178,0.029-0.269
		c0-0.051-0.021-0.096-0.029-0.145V24.703C99.978,24.614,100,24.526,100,24.436z M97.971,66.904
		c-0.297,2.138-5.632,4.837-15.585,6.124V32.764c7.438-0.931,12.85-2.638,15.585-4.833V66.904z M53.125,18.761
		c16.89,0,27.261,4.13,27.261,7.092v0.046c0,3.322-11.195,7.024-27.261,7.024c-16.064,0-27.259-3.702-27.259-7.024
		c0-0.003-0.002-0.006-0.002-0.01v-0.036C25.864,22.891,36.235,18.761,53.125,18.761z M97.971,24.624
		c-0.295,2.146-5.63,4.839-15.585,6.124v-4.567c7.438-0.931,12.85-2.636,15.585-4.832V24.624z M25.864,29.354
		c4.557,3.639,16.181,5.569,27.261,5.569c11.079,0,22.703-1.93,27.261-5.568v3.127c0,3.322-11.195,7.024-27.261,7.024
		c-16.064,0-27.259-3.702-27.259-7.024c0-0.003-0.002-0.006-0.002-0.01V29.354z M25.864,35.937
		c4.557,3.639,16.181,5.569,27.261,5.569c11.079,0,22.703-1.93,27.261-5.568v38.823c0,3.322-11.195,7.024-27.261,7.024
		c-16.064,0-27.259-3.702-27.259-7.024c0-0.003-0.002-0.006-0.002-0.01V35.937z M97.971,17.919v0.121
		c-0.298,2.178-5.774,4.916-15.997,6.177c-2.498-4.855-16.035-7.456-28.849-7.456c-3.122,0-6.288,0.155-9.326,0.458
		c0.214-0.478,0.641-0.958,1.265-1.429c0.336-0.036,0.616-0.231,0.769-0.516c3.998-2.413,13.161-4.447,24.971-4.447
		C86.813,10.827,97.971,14.564,97.971,17.919z M14.487,15.855c2.619,0,6.409,8.808,6.409,24.735c0,15.766-3.712,24.542-6.328,24.718
		h-2.742c3.287-4.234,4.991-14.521,4.991-24.718c0-10.246-1.72-20.583-5.038-24.779h2.488C14.34,15.828,14.409,15.855,14.487,15.855
		z M2,40.56c0-15.66,3.691-24.421,6.329-24.72c0.027,0.002,0.051,0.016,0.079,0.016c2.619,0,6.409,8.808,6.409,24.735
		c0,15.766-3.712,24.542-6.328,24.718H8.47C5.825,65.308,2,56.495,2,40.56z M17.905,65.308c3.287-4.234,4.991-14.521,4.991-24.718
		c0-10.246-1.72-20.583-5.038-24.779h24.468c-0.355,0.522-0.576,1.073-0.654,1.65c-9.817,1.237-17.808,4.093-17.808,8.392v39.456
		H17.905z M53.125,89.173c-16.065,0-27.261-3.702-27.261-7.024v-3.932c4.557,3.639,16.181,5.569,27.261,5.569
		c11.079,0,22.703-1.93,27.261-5.568v3.93C80.386,85.471,69.19,89.173,53.125,89.173z M82.386,80.526v-5.479
		c7.438-0.935,12.849-2.646,15.585-4.842v4.01C97.971,76.374,92.612,79.202,82.386,80.526z"/>
</g>
</svg>
