<?xml version="1.0" encoding="utf-8"?>
<!-- Generator: Adobe Illustrator 16.0.0, SVG Export Plug-In . SVG Version: 6.00 Build 0)  -->
<!DOCTYPE svg PUBLIC "-//W3C//DTD SVG 1.1//EN" "http://www.w3.org/Graphics/SVG/1.1/DTD/svg11.dtd">
<svg version="1.1" xmlns="http://www.w3.org/2000/svg" xmlns:xlink="http://www.w3.org/1999/xlink" x="0px" y="0px" width="100px"
	 height="100px" viewBox="0 0 100 100" enable-background="new 0 0 100 100" xml:space="preserve">
<g id="Calque_2">
</g>
<g id="Calque_1">
	<path d="M99.9,21.126c-0.185-0.383-0.593-0.612-1.015-0.558l-0.264,0.03c-0.493-0.211-1.595-0.962-3.066-2.432
		c-1.25-1.25,0.057-5.298,0.439-5.866c0.39-0.392,0.414-1.048,0.023-1.438c-0.387-0.383-0.982-0.41-1.373-0.035
		c-0.009,0.008-0.019,0.016-0.028,0.024c-0.407,0.287-3.192,1.581-5.247,1.582c-0.452,0-1.057-0.067-1.375-0.386
		c-1.153-1.152,0.571-5.783,1.162-6.588c0.389-0.392,0.419-1.053,0.027-1.442c-0.385-0.382-0.974-0.415-1.363-0.042
		c-0.012,0.009-0.023,0.019-0.034,0.028c-0.34,0.219-2.334,1.015-4.096,1.015c-0.585,0-1.375-0.092-1.815-0.532
		c-1.472-1.47-2.224-2.57-2.435-3.063l0.03-0.262c0.049-0.423-0.174-0.83-0.557-1.015c-0.384-0.185-0.841-0.108-1.142,0.191
		c-0.187,0.186-0.462,0.582-0.361,1.235l-2.382,20.577c-4.364-3.661-9.975-5.661-16.022-5.661c-0.603,0-1.206,0.027-1.808,0.066
		c-0.256-0.091-0.535-0.069-0.78,0.055c-6.025,0.56-11.924,3.055-16.844,7.167l-1.466,1.224c-4.746,3.968-9.161,8.38-13.12,13.113
		l-1.228,1.463c-9.171,10.952-9.725,25.795-1.631,35.414L1.528,77.371c-0.496-0.076-0.931,0.057-1.235,0.36
		c-0.301,0.301-0.379,0.759-0.194,1.143c0.185,0.383,0.593,0.612,1.015,0.558l0.265-0.03c0.495,0.21,1.598,0.961,3.07,2.431
		c1.252,1.254-0.058,5.298-0.441,5.865c-0.391,0.39-0.417,1.046-0.026,1.437c0.385,0.386,0.982,0.413,1.374,0.039
		c0.009-0.008,0.019-0.016,0.027-0.024c0.406-0.287,3.193-1.582,5.248-1.582c0.452,0,1.057,0.067,1.375,0.386
		c1.152,1.151-0.568,5.783-1.16,6.588c-0.389,0.393-0.418,1.054-0.025,1.442c0.385,0.384,0.973,0.414,1.363,0.041
		c0.012-0.009,0.023-0.019,0.034-0.029c0.34-0.219,2.334-1.016,4.095-1.016c0.584,0,1.374,0.092,1.813,0.532
		c1.472,1.47,2.224,2.57,2.435,3.063l-0.03,0.262c-0.049,0.423,0.174,0.83,0.557,1.015c0.139,0.067,0.288,0.1,0.436,0.1
		c0.259,0,0.515-0.101,0.707-0.292c0.187-0.186,0.462-0.582,0.361-1.235l2.326-20.095c0.208-0.02,0.399-0.032,0.579-0.039
		c3.662,2.913,8.148,4.694,13.009,5.155c0.142,0.072,0.291,0.12,0.446,0.12c0.112,0,0.222-0.027,0.329-0.064
		c0.585,0.038,1.174,0.064,1.769,0.064c0,0,0,0,0.001,0c4.144,0,8.283-0.938,12.146-2.697c0.009-0.003,0.017-0.008,0.026-0.012
		c2.569-1.173,5.017-2.706,7.259-4.581l1.468-1.223c4.757-3.979,9.172-8.392,13.121-13.113l1.228-1.464
		c9.198-10.984,9.725-25.878,1.577-35.47l20.594-2.377c0.492,0.077,0.931-0.056,1.236-0.361
		C100.008,21.967,100.085,21.509,99.9,21.126z M54.511,45.857c2.104,13.047,4.272,26.529-2.278,33.255
		c-3.548,1.594-7.336,2.445-11.125,2.453c5.644-7.662,3.7-20.177,1.803-32.317c-1.735-11.104-3.369-21.59,1.28-26.357
		c3.234-2.033,6.77-3.398,10.393-4.017C51.134,24.859,52.774,35.088,54.511,45.857z M25.292,40.862l1.229-1.464
		c3.884-4.643,8.214-8.97,12.869-12.862l0.802-0.669c-2.011,5.978-0.672,14.633,0.743,23.69c1.929,12.345,3.901,25.086-2.325,31.885
		c-3.666-0.361-7.091-1.536-10.054-3.428c3.688-0.651,8.527-2.559,11.212-6.325c0.32-0.45,0.216-1.074-0.234-1.395
		c-0.451-0.321-1.075-0.215-1.395,0.234c-2.965,4.16-9.061,5.624-11.926,5.743c-0.183-0.155-0.359-0.32-0.537-0.482l6.339-6.394
		c0.389-0.392,0.386-1.025-0.006-1.414c-0.392-0.389-1.026-0.387-1.414,0.006l-5.314,5.359c0.026-4.712,0.366-9.114,3.799-12.546
		c0.391-0.39,0.391-1.023,0-1.414s-1.023-0.391-1.414,0c-3.957,3.956-4.352,8.933-4.384,13.879
		C16.199,64.376,16.896,50.889,25.292,40.862z M20.909,95.579c-0.519-0.614-1.038-1.152-1.368-1.481
		c-0.741-0.742-1.827-1.118-3.227-1.118c-0.883,0-1.872,0.166-2.77,0.402c0.818-2.229,1.417-5.305-0.124-6.843
		c-0.644-0.645-1.583-0.972-2.79-0.972c-1.316,0-2.811,0.387-4.053,0.843c0.527-1.995,0.703-4.572-0.714-5.992
		c-0.329-0.329-0.867-0.847-1.48-1.364l16.559-1.912c-2.331,0.723-5.136,2.053-7.609,4.528c-0.39,0.391-0.39,1.024,0,1.415
		c0.195,0.195,0.451,0.292,0.707,0.292s0.512-0.098,0.708-0.293c2.394-2.396,5.312-3.678,7.688-4.299
		c-1.314,3.073-3.813,6.972-4.875,8.031c-0.391,0.39-0.392,1.023-0.001,1.415c0.195,0.196,0.452,0.293,0.708,0.293
		c0.255,0,0.511-0.097,0.707-0.292c0.675-0.674,2.049-2.596,3.343-4.817L20.909,95.579z M74.769,59.191l-1.229,1.465
		c-3.874,4.632-8.205,8.959-12.87,12.862l-1.468,1.223c-0.967,0.809-1.975,1.55-3.015,2.223c4.08-7.862,2.172-19.805,0.298-31.426
		c-1.832-11.356-3.547-22.081,0.782-26.983c0.579-0.039,1.159-0.065,1.738-0.065c5.319,0,10.258,1.681,14.18,4.754
		c-4.9,0.042-9.835,0.458-13.756,4.382c-0.391,0.391-0.391,1.024,0,1.414c0.195,0.195,0.451,0.293,0.707,0.293
		s0.512-0.098,0.707-0.293c3.333-3.334,7.575-3.753,12.137-3.798l-6.108,6.16c-0.389,0.392-0.386,1.025,0.006,1.414
		c0.195,0.193,0.45,0.29,0.704,0.29c0.257,0,0.515-0.099,0.71-0.296l6.571-6.626c-0.006,4.912-0.24,9.514-3.802,13.075
		c-0.391,0.39-0.391,1.023,0,1.414c0.195,0.195,0.451,0.293,0.707,0.293s0.512-0.098,0.707-0.293
		c3.927-3.926,4.347-8.856,4.384-13.766C83.849,35.794,83.13,49.206,74.769,59.191z M83.294,22.368
		c2.287-1.32,4.285-2.742,4.976-3.433c0.391-0.391,0.391-1.024,0-1.414c-0.391-0.391-1.024-0.391-1.414,0
		c-1.279,1.28-6.686,4.652-9.79,5.513c0.862-3.103,4.236-8.51,5.517-9.79c0.391-0.39,0.391-1.023,0-1.414s-1.023-0.391-1.414,0
		c-0.708,0.707-2.182,2.784-3.528,5.138L79.094,4.42c0.519,0.614,1.039,1.152,1.368,1.482c0.742,0.741,1.829,1.117,3.229,1.117
		c0.882,0,1.871-0.165,2.768-0.401c-0.819,2.229-1.42,5.303,0.122,6.844c0.644,0.645,1.583,0.971,2.79,0.971
		c1.253,0,2.761-0.384,4.029-0.842c-0.532,1.984-0.704,4.544,0.742,5.99c0.329,0.329,0.867,0.847,1.479,1.363L83.294,22.368z"/>
</g>
</svg>
