<?xml version="1.0" encoding="utf-8"?>
<!-- Generator: Adobe Illustrator 16.0.0, SVG Export Plug-In . SVG Version: 6.00 Build 0)  -->
<!DOCTYPE svg PUBLIC "-//W3C//DTD SVG 1.1//EN" "http://www.w3.org/Graphics/SVG/1.1/DTD/svg11.dtd">
<svg version="1.1" xmlns="http://www.w3.org/2000/svg" xmlns:xlink="http://www.w3.org/1999/xlink" x="0px" y="0px" width="100px"
	 height="100px" viewBox="0 0 100 100" enable-background="new 0 0 100 100" xml:space="preserve">
<g id="Calque_2">
</g>
<g id="Calque_1">
	<path d="M85.092,74.53c-0.959-0.68-2.021-1.373-3.105-2.021V40.362c0-0.132-0.029-0.257-0.076-0.373
		c-0.016-0.041-0.045-0.072-0.066-0.11c-0.041-0.07-0.078-0.14-0.135-0.198c-0.033-0.036-0.074-0.061-0.113-0.091
		c-0.059-0.046-0.115-0.09-0.182-0.123c-0.049-0.023-0.1-0.034-0.152-0.049c-0.049-0.015-0.094-0.041-0.146-0.048
		c-2.883-0.378-13.914-8.934-14.287-24.755h2.006c0.443,5.042,4.676,14.639,8.715,14.639c0.553,0,1.016-0.446,1.016-0.999
		c0-0.51-0.369-0.93-0.863-0.991c-0.043-0.007-0.088-0.011-0.133-0.012c-1.258-0.498-2.578-8.039-2.76-12.638h2.143
		c0.553,0,1-0.448,1-1v-1.316h3.174c1.512,0,2.607-1.762,2.607-4.189c0-2.429-1.096-4.191-2.607-4.191h-3.174V2.601
		c0-0.553-0.447-1-1-1H60.064c-6.624,0-12.014,5.389-12.014,12.014c0,0.553,0.447,1,1.001,1h6.806
		c-0.238,10.211-4.803,16.792-7.677,19.919v-0.676c0-2.137-1.959-3.317-4.228-4.683c-4.244-2.556-10.026-6.06-10.167-17.649
		c0.311-0.37,0.489-0.799,0.489-1.286V2.943c0-3.924-11.474-3.924-11.474,0v7.297c0,0.484,0.177,0.911,0.484,1.28
		c-0.138,11.595-5.923,15.099-10.167,17.655c-2.269,1.366-4.228,2.546-4.228,4.683v54.945c0,4.668,10.183,6.794,19.645,6.794
		c4.28,0,8.235-0.4,11.494-1.151c0.236,0.174,0.467,0.342,0.682,0.495C43.725,97.08,48.776,100,51.307,100
		c0.22,0,0.42-0.022,0.598-0.068c1.806-0.467,4.508-1.445,7.369-2.481c3.318-1.201,7.078-2.563,9.967-3.309
		c2.895-0.749,7.475-1.543,11.514-2.243c3.459-0.6,6.725-1.166,8.521-1.629c0.682-0.177,1.119-0.677,1.17-1.333l0.549-6.485
		c0.002-0.013,0.002-0.025,0.004-0.038l0.105-1.25c0-0.001-0.002-0.003,0-0.004c0-0.002,0-0.004,0-0.006
		C91.25,79.205,87.398,76.167,85.092,74.53z M77.951,5.916l3.121-0.007c0.188,0.088,0.66,0.873,0.66,2.2
		c0,1.326-0.473,2.109-0.607,2.188h-3.174V5.916z M70.842,14.615h1.984c0.09,1.78,0.363,5.621,1.113,8.924
		C72.414,20.932,71.072,17.431,70.842,14.615z M50.103,12.614c0.503-5.053,4.779-9.013,9.962-9.013h15.887v9.013H50.103z
		 M48.181,37.365c2.608-2.398,9.394-9.887,9.677-22.75h6.969c0.334,15.72,10.197,24.571,14.83,26.4
		c-1.418,1.538-7.527,3.592-18.309,3.592c-5.059,0-9.684-0.475-13.167-1.333V37.365z M48.181,45.335
		c3.577,0.823,8.184,1.273,13.167,1.273c7.547,0,15.137-1.044,18.637-3.307v28.082c-2.135-1.121-4.164-1.918-5.459-1.918
		c-0.229,0-0.439,0.025-0.629,0.073c-1.801,0.467-4.498,1.443-7.354,2.477c-3.322,1.202-7.089,2.565-9.98,3.312
		c-2.163,0.56-5.266,1.145-8.382,1.697V45.335z M24.803,2.975c0.135-0.296,1.417-1.02,3.735-1.02c2.337,0,3.624,0.735,3.742,0.948
		c-0.118,0.292-1.406,1.027-3.742,1.027c-2.318,0-3.601-0.723-3.735-0.941V2.975z M24.803,5.258
		c1.053,0.444,2.396,0.673,3.735,0.673c1.341,0,2.686-0.23,3.738-0.674L32.28,10.2c-0.014,0.035-0.047,0.077-0.094,0.122
		c-0.048,0.035-0.098,0.063-0.138,0.106c-0.473,0.337-1.653,0.8-3.511,0.8c-1.84,0-3.019-0.454-3.495-0.771
		c-0.055-0.063-0.121-0.111-0.19-0.158c-0.017-0.02-0.043-0.042-0.05-0.059V5.258z M28.536,93.597
		c-11.36,0-17.644-2.834-17.644-4.793V33.858c0-0.959,1.177-1.716,3.259-2.969c4.25-2.558,10.56-6.39,11.096-18.165
		c0.974,0.333,2.133,0.504,3.291,0.504c1.155,0,2.313-0.171,3.287-0.503C32.361,24.5,38.672,28.331,42.92,30.889
		c2.082,1.253,3.26,2.01,3.26,2.969v43.517c-0.374,0.065-0.748,0.131-1.115,0.194c-3.465,0.601-6.738,1.168-8.534,1.633
		c-0.318,0.082-0.584,0.242-0.784,0.456c-0.205,0.165-0.349,0.406-0.373,0.688l-0.149,1.774c-0.002,0.016-0.003,0.031-0.004,0.047
		l-0.504,6.02c-0.205,1.289,1.438,3.083,3.262,4.639C35.197,93.33,31.983,93.597,28.536,93.597z M88.482,88.405
		c-1.775,0.431-4.838,0.962-8.07,1.522c-4.076,0.707-8.699,1.508-11.672,2.277c-2.98,0.771-6.788,2.149-10.148,3.365
		c-2.815,1.019-5.474,1.981-7.188,2.425c-0.754,0.189-4.684-1.243-9.532-4.685c-3.73-2.647-5.098-4.444-5.171-4.882l0.271-3.21
		c1.279,1.324,3.002,2.638,4.265,3.534c3.859,2.742,9.098,5.366,11.207,4.818c1.805-0.466,4.507-1.429,7.368-2.448
		c3.316-1.182,7.074-2.521,9.961-3.269c2.895-0.748,7.467-1.54,11.502-2.239c2.91-0.504,5.684-0.985,7.564-1.402L88.482,88.405z
		 M81.051,82.158c-4.07,0.706-8.684,1.506-11.656,2.274c-2.975,0.771-6.781,2.148-10.14,3.364c-2.818,1.02-5.479,1.983-7.193,2.427
		c-0.002,0-0.038,0.009-0.125,0.009c-1.345,0-5.324-1.795-9.409-4.694c-3.049-2.164-4.52-3.761-4.997-4.52
		c1.802-0.423,4.761-0.937,7.877-1.477c4.071-0.707,8.687-1.507,11.657-2.276c2.981-0.77,6.795-2.15,10.158-3.368
		c2.811-1.017,5.465-1.978,7.178-2.421c0,0,0.037-0.01,0.125-0.01c1.342,0,5.32,1.795,9.408,4.696
		c3.09,2.193,4.561,3.803,5.018,4.516C87.146,81.102,84.178,81.617,81.051,82.158z M39.16,60.899c0.554,0,1.001-0.448,1.001-1
		c0-0.227-0.074-0.435-0.201-0.603L29.436,37.88c-0.336-0.685-1.459-0.685-1.796,0L17.038,59.458
		c-0.152,0.31-0.134,0.677,0.049,0.97c0.183,0.293,0.503,0.471,0.849,0.471h21.205C39.147,60.9,39.155,60.9,39.16,60.899z
		 M19.542,58.898l8.996-18.309l8.997,18.309H19.542z M28.536,45.587c0.553,0,1,0.448,1,1v6.273c0,0.553-0.447,1-1,1
		s-1.001-0.448-1.001-1v-6.273C27.535,46.036,27.983,45.587,28.536,45.587z M29.249,55.312c0.18,0.19,0.29,0.44,0.29,0.71
		c0,0.26-0.11,0.51-0.29,0.7c-0.19,0.19-0.45,0.3-0.71,0.3c-0.27,0-0.53-0.11-0.711-0.3c-0.19-0.18-0.29-0.44-0.29-0.7
		c0-0.27,0.1-0.53,0.29-0.71C28.199,54.942,28.869,54.942,29.249,55.312z"/>
</g>
</svg>
