<svg id="Calque_1" data-name="Calque 1" xmlns="http://www.w3.org/2000/svg" viewBox="0 0 300 300"><defs><style>.cls-1{fill:#1d1d1b;}</style></defs><title>picto_cevennes</title><path class="cls-1" d="M150,6A144,144,0,0,1,251.82,251.82,144,144,0,1,1,48.18,48.18,143,143,0,0,1,150,6m0-6A150,150,0,1,0,300,150,150,150,0,0,0,150,0Z"/><path d="M117.4,229c-2.73,0-5.57-.37-7.13-1.55a2.48,2.48,0,0,1-1-1.85c0-.49,0-1,0-1.47s0-.67,0-1a4.17,4.17,0,0,1-2.12-4.4,5.72,5.72,0,0,0,.05-.85.49.49,0,0,1,0-.12c0-3.8-4.56-11.52-7.6-16.64-2.35-3.94-3.59-6.07-3.95-7.58a4.14,4.14,0,0,1,0-1.83,28.06,28.06,0,0,0,.41-5.27,2.61,2.61,0,0,1,.19-.92L98.58,180a2.5,2.5,0,0,1,2.88-1.47,1.7,1.7,0,0,1,.45.15l.37-.67c2.22-4,3.44-6.18,5.77-5.38a1.36,1.36,0,0,1,.25.11,22.08,22.08,0,0,1,1.28-2.36,2.5,2.5,0,0,1,4.59,1.34l0,2.53a2.44,2.44,0,0,1,0,.27c-.42,4.44-1,8.19-1.58,11.5a48.48,48.48,0,0,0-1,8.55v.16a6.23,6.23,0,0,0,.51,2l.08.21c.21.54.48,1.14.75,1.74s.65,1.47.94,2.22c.39,1,.75,2,1.11,3,.51,1.42,1,2.77,1.56,4.08,1,2.12,1.93,4.28,2.88,6.45l.25.62a5.18,5.18,0,0,0,.68,1.36h0a75.88,75.88,0,0,1,5.42,7.42,3.18,3.18,0,0,1,0,2.79,3.37,3.37,0,0,1-2.24,1.76A28.06,28.06,0,0,1,117.4,229Zm-3.14-5.23a24,24,0,0,0,5.6.13c-1.21-1.64-2.8-3.7-3.25-4.22a9.39,9.39,0,0,1-1.55-2.79c-.07-.17-.13-.34-.2-.5-.93-2.12-1.89-4.26-2.86-6.4-.66-1.5-1.19-3-1.7-4.44-.34-1-.69-1.93-1.06-2.89-.27-.69-.56-1.35-.86-2s-.58-1.32-.85-2l-.1-.27a10.45,10.45,0,0,1-.81-3.78,52.91,52.91,0,0,1,1-9.46c.1-.59.2-1.19.3-1.81h0a2.5,2.5,0,0,1-2.13-1.37,59.81,59.81,0,0,0-3,6.58,2.51,2.51,0,0,1-1.87,1.59,25.18,25.18,0,0,1-.34,2.51v0a64.61,64.61,0,0,0,3.29,5.93c3.71,6.23,8.31,14,8.31,19.16a10.16,10.16,0,0,1,0,1.31l.65.39A2.46,2.46,0,0,1,114,221,10,10,0,0,1,114.26,223.79Zm8.2-.28h0Z"/><path d="M172.75,229c-.93,0-1.84-.05-2.68-.13-5.14-.47-5.91-1.48-6.27-2a2.48,2.48,0,0,1-.51-1.33c0-.24,0-.47,0-.7a4.35,4.35,0,0,1-2,.87l-.14,0a2.51,2.51,0,0,1-.66.14l-.23,0c-4.4.38-7.32.16-9.18-.7a2.51,2.51,0,0,1-1.46-2.27v-.56a11.26,11.26,0,0,0-.1-2.07,2.11,2.11,0,0,0-.35-.32c-1.93-1.53-1.64-3.19-1.08-6.5l0-.21c1.43-6.9,2.82-15.61,2.51-19.59l-.08-.26c-.45-1.37-.78-2.85-.31-7.08,0-.36.06-.72.1-1.08a4.12,4.12,0,0,0,.05-.94l0-.16c-.21-1.23-.93-4.73-2.14-10.43a2.44,2.44,0,0,1-1.52.78,158.08,158.08,0,0,1-21.26,1.07A69.8,69.8,0,0,1,113,174.48a2.51,2.51,0,0,1-1.4-4.1L112,170a48.45,48.45,0,0,0-11.83,8.49,58.32,58.32,0,0,0-5.11,6l-.11.15c-4.65,5.31-7.4,9.93-6.33,28.95a12.39,12.39,0,0,0,2,4.19c.12.15,2.52,3.29,2.93,5.17a2.39,2.39,0,0,1,0,1A3.23,3.23,0,0,1,91,226.48a23.41,23.41,0,0,1-13.12-.38,2.48,2.48,0,0,1-1.64-2.76c.15-1,.23-2,.32-3l0-.45a3.92,3.92,0,0,1-2.2-4.53l0-.18c2.52-10.84,1.42-23,1-28.21-.14-1.55-.21-2.32-.2-2.85a11.81,11.81,0,0,1,2.9-7.92,11.79,11.79,0,0,0,2.76-6.89,11.6,11.6,0,0,0-.92-4.08c-4.75-11.73-4.44-16.52-4-23.76.08-1.3.17-2.72.24-4.28a19.92,19.92,0,0,1-12.67-7.7c-.4-.51-3.9-5.09-3.19-7.88A2.49,2.49,0,0,1,62,119.82c-.27-3.26.26-6.48,2.08-7.77a2.61,2.61,0,0,1,.52-.28c.26-5.59,1.49-6.78,2.68-7.39a2.5,2.5,0,0,1,3.36,1.09c.08.15.22.47.41.93,4.56,10.91,9.41,14.26,12.92,15,8.31-5.34,18.67-7.42,30.8-6.18l1.67.22c21.4,2.86,22.68,3,51.27-2a49.79,49.79,0,0,0,21.05-9,29.3,29.3,0,0,0,3.43-3.14,9.39,9.39,0,0,1-.07-1.62,13.12,13.12,0,0,1-8.9-1.16,11.44,11.44,0,0,1-5.42-6.11,7.64,7.64,0,0,1,.95-7.33,5.47,5.47,0,0,1,5.26-1.78,45.07,45.07,0,0,1,6.09,1.8c2.13.72,4.66,1.58,6.49,2l.2-.27A12.1,12.1,0,0,1,199,84.63c-3-5.63-10.73-6.11-10.81-6.11H188c-3-.3-4.07-2-4.14-3.47-.08-1.93,1.53-3.6,3.92-4.05,11-2.1,18.16,5.55,21.35,10.11a19.91,19.91,0,0,1,3.86.19c4-4.78,11.16-11.14,20.35-9.09,1.87.42,3.73,2.1,3.6,4.2,0,.49-.35,2.95-3.89,3.31H233c-.08,0-7.45.51-10.6,5.76a9.62,9.62,0,0,1,.75.87c1.48-.39,3.11-1,4.6-1.52a29.82,29.82,0,0,1,5.23-1.6,5.63,5.63,0,0,1,4.78,1.28,6.65,6.65,0,0,1,1.91,5.42,2.51,2.51,0,0,1-2,2.29,2.48,2.48,0,0,1-.06,3,12.76,12.76,0,0,1-3.84,3.23,11,11,0,0,1-5.87,1.28,2.49,2.49,0,0,1-.72,1.6c-.47.48-.87.93-1.21,1.34a2.52,2.52,0,0,1,1.39,3,27.65,27.65,0,0,1-2.42,5.76c-.6,1.09-1.52,3.36-2.33,5.36a36.68,36.68,0,0,1-2,4.65.75.75,0,0,1-.07.12,9.84,9.84,0,0,1-2.19,2.34,3,3,0,0,1-.08.41,8.68,8.68,0,0,1-3,4.47c0,.15-.08.4-.11.59s-.12.64-.2.92a7.19,7.19,0,0,1-2.57,3.85,2.49,2.49,0,0,1-2.67.17l-.13-.08a7,7,0,0,1-2.49.39,2.55,2.55,0,0,1-1.24-.39,2.51,2.51,0,0,1-2.19-1.53,2.58,2.58,0,0,1-.61-.78,8.62,8.62,0,0,1-.57,1.19c-1.43,2.53-2.31,3.89-3.52,5.78l-1.05,1.63a91.92,91.92,0,0,0-6.44,12.81c-.56,1.29-1.07,2.49-1.56,3.53-4,9.66-6.38,11-10.91,12.82l-.85.35c-2.07,5.36-5.38,14.93-5.35,17.09a.49.49,0,0,1,0,.12,5.73,5.73,0,0,0,.21,1.23,10.44,10.44,0,0,1,.34,2,32.26,32.26,0,0,1-.49,4.93,60.63,60.63,0,0,0-.73,7.22c-.11,9,3,13.16,5.93,17.22.57.79,1.13,1.55,1.63,2.31a5,5,0,0,1,.84,3.63,2.42,2.42,0,0,1-.78,1.45C178.09,228.61,175.36,229,172.75,229Zm-11.56-3.26,0,0Zm7.14-2.12a25.58,25.58,0,0,0,6.48.27c-.28-.4-.57-.79-.86-1.19-3.13-4.28-7-9.61-6.89-20.16a63.57,63.57,0,0,1,.78-7.91c.19-1.46.47-3.46.45-3.94a6.76,6.76,0,0,0-.21-1.12,9.14,9.14,0,0,1-.34-2.52c0-3,2.69-10.78,4.49-15.68a3.61,3.61,0,0,1-1.1.11,3.1,3.1,0,0,1-2.45-1.39,2.55,2.55,0,0,1-.36-.91c-.57-3.26,1.12-5.23,3.46-8A75.08,75.08,0,0,0,182.11,146c.61-1.15,3.82-6.92,6.79-7.23a3,3,0,0,1,2.85,1.23,2.4,2.4,0,0,1,.27.46c.51-.9,1-1.8,1.62-2.69l1.05-1.65c1.22-1.88,2-3.13,3.38-5.53a2.87,2.87,0,0,0,.46-2,31,31,0,0,0-1.8-4.4,29.35,29.35,0,0,1-2.47-6.58c-.7-2.12-.49-3.68.63-4.64a3,3,0,0,1,3.45-.27c1.43.75,1.94,1.74,3.43,4.69.45.91,1,2,1.8,3.52a2.5,2.5,0,0,1,3.77-2.66,1.11,1.11,0,0,1,0-.19,4.36,4.36,0,0,1,1.48-4,3.18,3.18,0,0,1,3.1-.43,3.92,3.92,0,0,1,1.69,1.21,4.33,4.33,0,0,1,2.14-1.06,3.25,3.25,0,0,1,2.4.55c.84-2.08,1.7-4.16,2.38-5.41.17-.3.33-.61.48-.9-.58-.24-2.16-1.14-1.54-3.71a12.43,12.43,0,0,1,3.17-5.52,4.24,4.24,0,0,0-.43-.88,2.51,2.51,0,0,1,1.22-3.71,2.44,2.44,0,0,1-1.4-1.13,2.53,2.53,0,0,1-.32-1.51,2.48,2.48,0,0,1-2-1.33,5.47,5.47,0,0,0-1.25-1.6l-.33-.21-.26-.16a2.51,2.51,0,0,1-1-3,14.55,14.55,0,0,1,.88-2c-.67.74-1.26,1.47-1.76,2.13a2.54,2.54,0,0,1-2.55.92,15.32,15.32,0,0,0-5.28-.26,2.49,2.49,0,0,1-2.42-1.15,26.21,26.21,0,0,0-3.21-4.12,14.15,14.15,0,0,1,1.5,2.84,2.53,2.53,0,0,1,.6,1.09,2.49,2.49,0,0,1-1.24,2.81,8.3,8.3,0,0,0-2.62,2.12,8.13,8.13,0,0,0-.76,1.15,2.53,2.53,0,0,1-2.36,1.29,15.94,15.94,0,0,1-2.37-.39,2.49,2.49,0,0,1-1.7,2.41c.47-.08.94-.16,1.41-.22a2.5,2.5,0,0,1,2.67,3.29,9.33,9.33,0,0,0-.54,2.5,7.1,7.1,0,0,0,.1,1.31,1.91,1.91,0,0,1,.07,1.21,2.42,2.42,0,0,1-.51,1.17,20.38,20.38,0,0,1-5,4.84,55,55,0,0,1-23.22,10c-29.35,5.21-31.12,5-52.8,2.07l-1.59-.21C103,119.05,93.43,121,86,126.1a2.45,2.45,0,0,1-1.68.42c-5.62-.62-10.55-4.58-14.7-11.8,0,.77,0,1.62.07,2.55,0,.18,0,.29,0,.32A2.51,2.51,0,0,1,67.92,120a2.7,2.7,0,0,1-.84.11,12.73,12.73,0,0,0,1,3.72,2.5,2.5,0,0,1-.47,2.79,14.34,14.34,0,0,0,11.1,5.77h.06a2.49,2.49,0,0,1,1.78.75,2.52,2.52,0,0,1,.72,1.8c-.06,2.66-.21,4.9-.33,6.88-.46,7-.72,10.89,3.59,21.51a16.56,16.56,0,0,1,1.3,6,2.44,2.44,0,0,1,0,.27,16.51,16.51,0,0,1-3.73,9.59c-1.21,1.65-2,2.65-1.92,5,0,.36.09,1.39.18,2.38.48,5.35,1.61,17.77-.93,29.24.25.15.54.32.86.53a2.88,2.88,0,0,1,1.39,2.84,1.55,1.55,0,0,1,0,.21l-.12,1.4c0,.39-.06.78-.1,1.17a17.85,17.85,0,0,0,6.09.13c-.31-.47-.63-.93-.89-1.26a17.43,17.43,0,0,1-2.93-6.15,3.23,3.23,0,0,1-.08-.53c-1.22-21,2.16-26.65,7.47-32.74a61.68,61.68,0,0,1,5.51-6.45A52.74,52.74,0,0,1,110.7,165c1.14-.52,2.19-.94,3.22-1.35,5.15-2,9.21-3.67,16.78-16.92,0,0,2.62-3.9,5.32-2.72a2.82,2.82,0,0,1,1.41,3.69c-1.22,3.89-3.11,9.15-5.19,12.1a37.36,37.36,0,0,1-9,9.24,19.72,19.72,0,0,1-2.51,1.38c1.42.1,3,.17,4.76.2a162.9,162.9,0,0,0,17.89-.73c-1.82-10-.71-15,.36-19.78l.3-1.33a32.39,32.39,0,0,1,1.82-5.23c1-2.22,2.17-5,4.63-4.45,3,.64,2.24,4.08,1.46,7.71-2.19,10.16.7,23.86.73,24,2.22,10.41,2.5,12,2.59,12.56a7.54,7.54,0,0,1,0,2.52c0,.24-.06.48-.06.72a2,2,0,0,1,0,.23c-.4,3.58-.12,4.45.08,5.08a8.47,8.47,0,0,1,.25.86c0,.1,0,.2,0,.3.51,5.44-1.63,16.67-2.57,21.24l0,.11c-.15.9-.26,1.59-.31,2a6.65,6.65,0,0,1,1.24,1.49,2.34,2.34,0,0,1,.29.62,10.44,10.44,0,0,1,.38,2.45,22.26,22.26,0,0,0,3.81,0c-.21-.39-.44-.79-.67-1.19s-.47-.83-.69-1.24a12.2,12.2,0,0,1-1.71-4.16c-.77-5.24.11-10.27,1.71-19.39l0-.14a8.54,8.54,0,0,1,1.43-3.36c.32-.46.68-1,.84-5.25a2.5,2.5,0,0,1,2.46-2.41,2.66,2.66,0,0,1,1.88.77,2.55,2.55,0,0,1,.73,1.87,34.1,34.1,0,0,0,.33,5.72c2.19,4.54,1.89,14.42,1.44,23.33-.06,1-.11,2.17-.14,3a5.65,5.65,0,0,1,1.06.75,2.28,2.28,0,0,1,.42.51A6.39,6.39,0,0,1,168.33,223.64ZM90,221.58Zm-12-.85Zm83.27-21c-1.11,6.48-1.59,10.25-1.05,13.94a6.85,6.85,0,0,0,.9,2.13c0-.15,0-.29,0-.44A129.06,129.06,0,0,0,161.27,199.74Zm3.38-7.55,0,.07Zm18.4-32.53c-.93,1.32-1.81,2.5-2.62,3.55A11.7,11.7,0,0,0,183.05,159.66Zm24.81-31.73a2.51,2.51,0,0,1,.76.12,1.62,1.62,0,0,1,.33.13,2.51,2.51,0,0,1,1.35-.59h0c0-.17.09-.34.15-.52a9.77,9.77,0,0,1-5.26-3.24l.9,1.34a1.75,1.75,0,0,1,.16.27l.16.3a12,12,0,0,1,.77,1.78,2.7,2.7,0,0,1,.53.43ZM212.19,117h0Zm-19.82-14.71a2.47,2.47,0,0,0,.26.78l0-.07A2.19,2.19,0,0,1,192.37,102.31ZM185.78,91.4a2.38,2.38,0,0,0,.68,1,6.89,6.89,0,0,0,2.66,1.1,2.51,2.51,0,0,1,1.67,1.3c.63-.1,1.28-.22,1.93-.35l.21,0a2.4,2.4,0,0,1-1.05-.18c-.36-.14-.75-.31-1.16-.51h0l-1.13-.57c-.91-.48-2-1-2.86-1.38A8.79,8.79,0,0,0,185.78,91.4Zm39.29,2.82.12,0c.4.11.78.2,1.15.27a2.49,2.49,0,0,1,1.53-1.06,6.89,6.89,0,0,0,2.66-1.1,2.55,2.55,0,0,0,.68-1c-.26.08-.58.18-1,.33-.91.38-1.95.91-2.87,1.39l-1.12.57c-.42.2-.8.37-1.16.52Zm-37-20.76Z"/><path d="M205.06,108.27c-1.26,0-1.79-2.55-1.8-2.57h0a16.94,16.94,0,0,0-.93-3.21,2.55,2.55,0,0,1-1.72.58c-1.55-.07-2.74-1.42-3-3.35a4.67,4.67,0,0,1,.08-1.64,1,1,0,0,1-.38-1.7,4.29,4.29,0,0,1,5.18,0c2.16,1.72,3.79,7.51,3.57,10.87a1.12,1.12,0,0,1-1,1Zm-4.89-10.74a1,1,0,0,1-.25.48,2,2,0,0,0-.29,1.48c.11.92.54,1.56,1.07,1.58.36,0,.63-.36.65-.71a1,1,0,0,1,.81-.93h.18A4.68,4.68,0,0,0,201.28,98,2.39,2.39,0,0,0,200.17,97.53Z"/></svg>