<svg id="Calque_1" data-name="Calque 1" xmlns="http://www.w3.org/2000/svg" viewBox="0 0 98.68 94.71"><title>09_f_CANS SOUPS SPREADS BIO</title><path d="M87.42,56.56a240.37,240.37,0,0,0-25.86-1.23c-1.44,0-2.84,0-4.24,0-.43-2.51-.65-4.72-.85-6.77a44,44,0,0,0-1.12-7.28,1,1,0,0,0,.08-.39V13.8c-.18-5.53-14.29-8.51-27.57-8.51S.28,8.31.28,13.9v53c0,5.45,13.14,8.24,25.35,8.52h0a.92.92,0,0,0,.51-.17A26,26,0,0,0,39.7,91.12v3.79a1,1,0,0,0,.51.87c5,2.8,12.19,4.22,21.35,4.22,8.83,0,16.21-1.52,21.34-4.39a1,1,0,0,0,.51-.86V91.13C93.84,85.92,99,75.9,99,60.88c0,0,0-.05,0-.07s0-.22,0-.31C99,59.59,99,57.89,87.42,56.56Zm-25.86.76c20.22,0,32.91,1.78,35.18,3.18-2.27,1.4-15,3.18-35.18,3.18H59.32a.88.88,0,0,0,0-.39l-.3-.9c-.55-1.82-.95-3.47-1.27-5C59,57.34,60.25,57.32,61.56,57.32ZM27.93,22.38c10.56,0,21.21-1.75,25.51-5.14V20c0,3.1-10.47,6.55-25.51,6.55S2.42,23.13,2.42,20a1,1,0,0,0-.15-.49V17.13C6.47,20.59,17.25,22.38,27.93,22.38Zm-25.66.94c4.2,3.46,15,5.25,25.66,5.25s21.21-1.75,25.51-5.14V36c-1.47-3.26-3.5-6.28-5.52-5.67l-2.36.71c-3,.91-1.6,8.63-.42,12.59A40.6,40.6,0,0,0,48.43,51c.74,1.39,1.51,2.87,2.29,4.53-5.6.2-10.74.55-14.92,1L33.66,46.38a1,1,0,0,0,0-.41.35.35,0,0,0,0-.08l-1.34-6.41a5,5,0,0,0-2.53-3.17,5.55,5.55,0,0,0-3.52-.53L26,35.29l2.22-.59c1.28-.28,2.35-1.55,3-3.57l.11-.32a1,1,0,0,0-1.2-1.27L27,30.36a4,4,0,0,0-2.53,2.4,1,1,0,0,0-.42.05,1,1,0,0,0-.62,1.1c-1.81-.52-3.37-.43-4.34.28l-3.38,2.28a1,1,0,0,0-.43.93,1,1,0,0,0,.6.81l.39.17a9.09,9.09,0,0,0,3.4.8,3.69,3.69,0,0,0,2.21-.63l.55-.37a5.1,5.1,0,0,0-.5.92A5,5,0,0,0,22,43.19l7.48,14.32c-4.33.88-5.33,1.85-5.33,3a1.72,1.72,0,0,0,0,.31s0,0,0,.07c0,1.91.09,3.73.26,5.48a1,1,0,0,0-.39-.1c-13-.57-21.75-3.8-21.75-6.46ZM31.53,57.13l-2-3.77,1.65-.59a1,1,0,0,0-.67-1.88l-1.91.69-3.36-6.43,3.51-1.26A1,1,0,0,0,28.1,42l-3.77,1.35-.55-1a3,3,0,0,1,0-2.45,3.65,3.65,0,0,1,5-1.79,3,3,0,0,1,1.52,1.85l1.21,5.75-2.51.9a1,1,0,0,0-.6,1.27,1,1,0,0,0,.94.66,1,1,0,0,0,.33-.06l2.25-.81,1.92,9.16L32.7,57Zm-5-24.05a1.72,1.72,0,0,1,.91-.79L28.65,32a1.66,1.66,0,0,1-.9.79Zm-4,2.63-1.79,1.21a3,3,0,0,1-2.29.1l1.78-1.2A3,3,0,0,1,22.53,35.71ZM51.6,57.49a59.6,59.6,0,0,1,2.22,6.1c-15.69-.38-25.46-1.87-27.44-3.09C28.06,59.51,35.78,58,51.6,57.49Zm4.25,6.14a1.09,1.09,0,0,0,0-.31,61.7,61.7,0,0,0-2.67-7.26h0c-1-2.27-2-4.19-3-6a39.5,39.5,0,0,1-3.14-7c-1.72-5.75-1.49-9.66-.92-10.12l2.31-.7c.78.07,3.11,3.2,4.84,9a39.29,39.29,0,0,1,1.21,7.57A68,68,0,0,0,57.07,63l.23.67Zm-28-56.35c15.79,0,25.51,3.83,25.58,6.59-.07,3.09-10.52,6.52-25.51,6.52S2.42,16.94,2.42,13.84a.86.86,0,0,0-.08-.36C3.24,10.77,12.78,7.28,27.86,7.28ZM2.27,66.85V63.16c3.86,3,12.79,4.7,21.66,5.09H24A1,1,0,0,0,24.6,68a41,41,0,0,0,1,5.36C10.39,73,2.27,69.36,2.27,66.85Zm79.15,27.3C76.61,96.68,69.76,98,61.56,98c-8.39,0-15.23-1.27-19.87-3.69V92c5.37,2.24,12,3.35,19.87,3.35S76.06,94.28,81.42,92ZM61.56,93.4c-23.21,0-34.8-10.1-35.39-30.83,1.59.63,4.43,1.28,9.53,1.87a240.24,240.24,0,0,0,25.86,1.23,240.37,240.37,0,0,0,25.86-1.23c5.09-.58,7.93-1.24,9.52-1.87C96.36,83.31,84.77,93.4,61.56,93.4Z" transform="translate(-0.28 -5.29)"/></svg>